<svg width="20" height="24" viewBox="0 0 20 24" fill="none" xmlns="http://www.w3.org/2000/svg">
<g id="management-icon 1" clip-path="url(#clip0_23766_14629)">
<path id="Vector" fill-rule="evenodd" clip-rule="evenodd" d="M6.54028 13.9921C6.54018 13.6614 6.58874 13.3324 6.68444 13.0155H13.3136C13.4565 13.4865 13.4952 13.9824 13.4269 14.4694C13.3587 14.9565 13.1851 15.4232 12.918 15.8379C12.6509 16.2527 12.2966 16.6056 11.8791 16.8726C11.4617 17.1397 10.991 17.3147 10.499 17.3856C10.0071 17.4565 9.50548 17.4218 9.02835 17.2837C8.55121 17.1456 8.10977 16.9074 7.73408 16.5853C7.3584 16.2633 7.0573 15.865 6.8513 15.4175C6.64529 14.97 6.53921 14.4838 6.54028 13.9921ZM8.54068 7.53507C8.20103 7.23624 7.93247 7.01944 7.8752 6.39835H7.83768C7.75323 6.39867 7.67018 6.37712 7.59676 6.33585C7.47551 6.26145 7.38249 6.14954 7.33215 6.01749C7.20972 5.73819 7.11296 5.00772 7.42101 4.79678L7.36374 4.75967V4.67764C7.3519 4.53116 7.34992 4.35342 7.34597 4.16592C7.34597 3.47842 7.3203 2.64444 6.75355 2.47647L6.51659 2.40421L6.67457 2.20889C7.08903 1.69129 7.55914 1.21977 8.07662 0.802643C8.54158 0.409733 9.10032 0.140815 9.69984 0.0213934C9.97949 -0.0232349 10.2656 -0.00722437 10.5384 0.0683167C10.8111 0.143858 11.0641 0.277125 11.2796 0.458893C11.4345 0.584384 11.5761 0.725077 11.7022 0.878815C11.953 0.905682 12.1952 0.984641 12.413 1.11052C12.6308 1.2364 12.8193 1.40637 12.966 1.60928C13.1523 1.85644 13.2915 2.13507 13.3768 2.43155C13.4658 2.73317 13.5032 3.04741 13.4874 3.36124C13.4743 3.93204 13.2412 4.47633 12.8357 4.88272C12.9045 4.88539 12.9718 4.90271 13.0332 4.9335C13.2662 5.05655 13.2741 5.32413 13.2129 5.55069C13.1517 5.746 13.0746 5.95694 13.0016 6.13663C12.9127 6.38467 12.7844 6.43155 12.5355 6.40421C12.5217 7.01553 12.2374 7.18546 11.8523 7.54288C11.8681 8.4628 8.52291 8.35538 8.54265 7.54288L8.54068 7.53507ZM8.3669 8.29288L9.36414 10.8788L9.87362 9.46866L9.62875 9.20499C9.44313 8.93741 9.50632 8.63468 9.84992 8.57999C9.97285 8.57112 10.0963 8.57112 10.2192 8.57999C10.355 8.57045 10.4914 8.57568 10.626 8.59561C10.9439 8.66397 10.9775 8.96866 10.8235 9.21085L10.5766 9.47452L11.0585 10.8788L11.9589 8.29288C12.6086 8.87882 14.5261 8.98819 15.2468 9.38272C16.2342 9.93155 16.2105 10.9921 16.4317 11.9745H3.8981C4.11335 10.998 4.09558 9.92374 5.08294 9.38272C5.96367 8.89835 7.65008 8.93546 8.37085 8.29288H8.3669ZM2.27291 7.6171C2.10308 7.35147 1.7891 6.9921 1.7891 6.68155C1.79291 6.58072 1.82736 6.48336 1.88794 6.40219C1.94853 6.32101 2.03245 6.25977 2.12875 6.22647C2.11295 5.96475 2.10111 5.69913 2.10111 5.43546C2.10111 5.27921 2.10111 5.121 2.10111 4.96671C2.11645 4.87172 2.14024 4.77826 2.1722 4.68741C2.29493 4.29099 2.56336 3.95442 2.92457 3.74405C3.05239 3.66416 3.18883 3.59865 3.33136 3.54874C3.59005 3.45499 3.46564 3.0253 3.74803 3.01944C4.40956 3.00186 5.49763 3.60538 5.92022 4.05655C6.19072 4.35221 6.34488 4.7341 6.35466 5.13272L6.31912 6.27921C6.38174 6.29189 6.4401 6.32003 6.48878 6.361C6.53746 6.40198 6.57488 6.45447 6.59755 6.51358C6.68839 6.87686 6.30924 7.32608 6.13152 7.61514C6.05845 7.73428 5.89258 7.97452 5.73657 8.20108C5.37532 8.28053 5.0252 8.40317 4.69392 8.56632L4.6406 8.59366C3.45577 9.2421 3.28002 10.2499 3.10427 11.2714C3.07859 11.4218 3.05292 11.5722 3.0154 11.7421C2.99549 11.818 2.98554 11.8961 2.98578 11.9745H0C0 9.36124 2.01817 10.1913 2.98183 8.87882C3.02923 8.81046 3.05095 8.77335 3.05095 8.7421C3.05095 8.71085 2.3361 7.72452 2.27291 7.6171ZM17.7271 7.6171C17.8949 7.35147 18.2109 6.9921 18.2109 6.68155C18.2071 6.58072 18.1726 6.48336 18.1121 6.40219C18.0515 6.32101 17.9676 6.25977 17.8712 6.22647C17.887 5.96475 17.8969 5.69913 17.8969 5.43546C17.8969 5.27921 17.8969 5.121 17.8969 4.96671C17.8839 4.87217 17.8634 4.77879 17.8357 4.68741C17.7116 4.2917 17.4435 3.95557 17.0833 3.74405C16.9546 3.66452 16.8176 3.59903 16.6746 3.54874C16.4159 3.45499 16.5423 3.0253 16.2579 3.01944C15.5964 3.00186 14.5083 3.60538 14.0857 4.05655C13.8149 4.35183 13.6612 4.73411 13.6532 5.13272L13.6789 6.27921C13.6164 6.29223 13.5582 6.32049 13.5096 6.36142C13.461 6.40235 13.4235 6.45466 13.4005 6.51358C13.3116 6.87686 13.6908 7.32608 13.8665 7.61514C13.9317 7.72061 14.064 7.92374 14.2141 8.12686C14.7264 8.21716 15.2244 8.37412 15.6951 8.59366C16.8799 9.24796 17.0478 10.2401 17.2235 11.2616C17.2512 11.4257 17.2788 11.5917 17.3203 11.7792C17.3345 11.8434 17.3418 11.9088 17.342 11.9745H19.9961C19.9961 9.36124 17.9779 10.1913 17.0122 8.87882C16.9649 8.81046 16.9431 8.77335 16.9431 8.7421C16.9431 8.71085 17.66 7.72452 17.733 7.62491L17.7271 7.6171ZM19.9882 14.121V14.8437C19.9856 15.1649 19.8553 15.4722 19.6254 15.6992C19.3956 15.9261 19.0847 16.0545 18.7599 16.0565H17.4961C17.3387 16.7506 17.0835 17.4192 16.7378 18.0429L17.575 18.8749C17.8045 19.1045 17.9332 19.4144 17.9332 19.7372C17.9332 20.0601 17.8045 20.3699 17.575 20.5995L16.5502 21.6132C16.3185 21.8411 16.0051 21.9691 15.6783 21.9691C15.3516 21.9691 15.0381 21.8411 14.8065 21.6132L14.0383 20.8534C13.3928 21.2508 12.6914 21.5516 11.957 21.746V22.7812C11.9559 23.1041 11.8258 23.4135 11.5949 23.6418C11.364 23.8701 11.0512 23.9989 10.7247 23.9999H9.2812C8.95471 23.9989 8.6419 23.8701 8.41103 23.6418C8.18017 23.4135 8.05001 23.1041 8.04897 22.7812V21.7597C7.30697 21.571 6.59798 21.2727 5.94589 20.8749L5.19747 21.6132C4.96617 21.841 4.65304 21.9689 4.32662 21.9689C4.0002 21.9689 3.68707 21.841 3.45577 21.6132L2.42891 20.5995C2.19942 20.3699 2.07072 20.0601 2.07072 19.7372C2.07072 19.4144 2.19942 19.1045 2.42891 18.8749L3.23657 18.078C2.88064 17.4443 2.61798 16.7637 2.45656 16.0565H1.24408C0.918609 16.0555 0.60668 15.9276 0.375986 15.7005C0.145291 15.4735 0.0144463 15.1656 0.0118483 14.8437V13.4042C0.0124641 13.2712 0.0351459 13.1393 0.0789889 13.0136H5.08886C5.0388 13.2974 5.01369 13.5849 5.01382 13.873C5.01382 13.9589 5.01382 14.0429 5.01382 14.1269C5.01382 14.2108 5.01382 14.2968 5.01382 14.3808C5.01382 15.6815 5.53624 16.9289 6.46614 17.8486C7.39605 18.7684 8.65727 19.2851 9.97235 19.2851C11.2874 19.2851 12.5487 18.7684 13.4786 17.8486C14.4085 16.9289 14.9309 15.6815 14.9309 14.3808C14.9309 14.2968 14.9309 14.2108 14.9309 14.1269C14.9309 14.0429 14.9309 13.9589 14.9309 13.873C14.931 13.5849 14.9059 13.2974 14.8558 13.0136H19.919C19.9643 13.139 19.9877 13.2711 19.9882 13.4042V14.121Z" fill="#7234F7" fill-opacity="0.42"/>
</g>
<defs>
<clipPath id="clip0_23766_14629">
<rect width="20" height="24" fill="white"/>
</clipPath>
</defs>
</svg>
