<svg width="22" height="20" viewBox="0 0 22 20" fill="none" xmlns="http://www.w3.org/2000/svg">
<g id="money-receiving-rupee-icon 1" clip-path="url(#clip0_23766_14619)">
<path id="Vector" fill-rule="evenodd" clip-rule="evenodd" d="M0.416152 10.0661H3.62016C3.8491 10.0661 4.03627 10.2536 4.03627 10.4821V17.7949C4.03627 18.0234 3.84867 18.2109 3.62016 18.2109H0.416152C0.187602 18.2109 0 18.0237 0 17.7949V10.4821C0 10.2532 0.187301 10.0661 0.416152 10.0661ZM13.5166 0C16.5911 0 19.0834 2.49186 19.0834 5.5657C19.0834 8.6395 16.5911 11.1314 13.5166 11.1314C10.4421 11.1314 7.94978 8.6395 7.94978 5.5657C7.94978 2.49186 10.4421 0 13.5166 0ZM13.5166 1.13226C15.9656 1.13226 17.9509 3.11719 17.9509 5.56553C17.9509 8.01404 15.9656 9.99897 13.5166 9.99897C11.0676 9.99897 9.08243 8.01404 9.08243 5.56553C9.08243 3.11719 11.0676 1.13226 13.5166 1.13226ZM11.8305 5.11496L12.1163 4.47112H13.1946C13.181 4.42519 13.1575 4.38026 13.1233 4.33644C13.0882 4.29153 13.0456 4.25293 12.9975 4.22229C12.9456 4.18895 12.8895 4.16269 12.8307 4.14423C12.7691 4.12374 12.7038 4.11395 12.6354 4.11395H11.8305L12.1163 3.4701H15.2027L14.9167 4.11395H14.1714C14.2014 4.13727 14.2289 4.16377 14.2533 4.19299C14.2785 4.22179 14.301 4.25282 14.3205 4.2857C14.3392 4.31784 14.3557 4.3501 14.3693 4.38223C14.382 4.41454 14.3908 4.44465 14.3948 4.47112H15.2027L14.9167 5.11496H14.3324C14.2894 5.22417 14.226 5.32753 14.1411 5.42505C14.0562 5.5236 13.9576 5.61046 13.8454 5.68852C13.7322 5.76658 13.6102 5.83102 13.4785 5.88459C13.3495 5.93614 13.2149 5.97218 13.0775 5.99195L14.6991 7.66112H13.417L11.971 6.07486V5.48364H12.6111C12.6729 5.4838 12.7342 5.47356 12.7926 5.45336C12.8513 5.4338 12.9071 5.40623 12.9584 5.37143C13.0078 5.33906 13.0522 5.29965 13.0902 5.25445C13.1272 5.20952 13.1536 5.16372 13.1691 5.11496H11.8305ZM13.5166 0.50607C16.3115 0.50607 18.5772 2.7714 18.5772 5.5657C18.5772 8.35995 16.3115 10.6253 13.5166 10.6253C10.7217 10.6253 8.45595 8.35995 8.45595 5.5657C8.45595 2.7714 10.7217 0.50607 13.5166 0.50607ZM4.61098 17.5322L4.61085 10.7153C4.61084 10.7018 4.61349 10.6884 4.61867 10.6758C4.62384 10.6633 4.63143 10.652 4.641 10.6424C4.65058 10.6328 4.66194 10.6252 4.67446 10.62C4.68697 10.6148 4.70038 10.6121 4.71393 10.6121H7.78082L7.80845 10.6158C8.46562 10.7347 9.12111 10.9715 9.77513 11.2808C10.4198 11.586 11.0652 11.963 11.7103 12.3683L14.0775 12.3693C14.4184 12.3912 14.7121 12.5107 14.9277 12.6876C15.0938 12.824 15.2138 12.9954 15.274 13.1839C15.3347 13.3745 15.3344 13.582 15.259 13.7871C15.1758 14.0131 15.0012 14.2368 14.7171 14.4317C14.2833 14.7485 13.783 14.8981 13.2464 14.9549L13.2432 14.9552C12.7166 15.0106 12.1552 14.9766 11.5871 14.9259C11.3587 14.9149 11.2093 15.0116 11.1415 15.1415C11.114 15.1942 11.099 15.2525 11.0978 15.3118C11.0964 15.3719 11.1086 15.4315 11.1336 15.4862C11.1972 15.6232 11.3485 15.7316 11.5925 15.7327L11.5997 15.733C11.7556 15.7447 11.9226 15.7283 12.085 15.7124C12.2091 15.7003 12.3312 15.6882 12.4488 15.6881C13.1423 15.6875 13.7738 15.6212 14.3162 15.4193C14.8488 15.2213 15.2981 14.8901 15.6395 14.3586L15.9933 13.5328C16.0028 13.5101 16.0203 13.4916 16.0424 13.4809L19.5988 11.7188C20.1775 11.528 20.7068 11.5858 21.1197 11.7964C21.3887 11.9336 21.6087 12.1365 21.7616 12.3781C21.9145 12.6199 22.0001 12.9019 22 13.1962C21.9998 13.6147 21.8269 14.0584 21.4303 14.4499L21.4185 14.4599C20.1351 15.3935 18.8323 16.2464 17.5119 17.0219C16.1947 17.7955 14.8622 18.4908 13.5165 19.1115C12.5236 19.7138 11.5294 20.0049 10.5346 19.9999C9.54022 19.9948 8.54683 19.6935 7.55502 19.112L4.66688 17.6237C4.65005 17.615 4.63594 17.6019 4.62607 17.5858C4.61621 17.5697 4.61099 17.5511 4.61098 17.5322Z" fill="#7234F7" fill-opacity="0.42"/>
</g>
<defs>
<clipPath id="clip0_23766_14619">
<rect width="22" height="20" fill="white"/>
</clipPath>
</defs>
</svg>
