<svg width="53" height="52" viewBox="0 0 53 52" fill="none" xmlns="http://www.w3.org/2000/svg">
<rect x="0.5" width="52" height="52" rx="26" fill="#FE7465"/>
<path d="M20.672 33.368L26.864 26.792C27.376 26.248 27.792 25.76 28.112 25.328C28.432 24.896 28.664 24.488 28.808 24.104C28.952 23.72 29.024 23.328 29.024 22.928C29.024 22.176 28.776 21.592 28.28 21.176C27.8 20.744 27.184 20.528 26.432 20.528C25.632 20.528 24.928 20.728 24.32 21.128C23.712 21.528 23.168 22.152 22.688 23L20.768 21.416C21.424 20.28 22.232 19.424 23.192 18.848C24.152 18.256 25.264 17.96 26.528 17.96C27.568 17.96 28.48 18.168 29.264 18.584C30.048 19 30.656 19.584 31.088 20.336C31.52 21.072 31.736 21.928 31.736 22.904C31.736 23.608 31.648 24.24 31.472 24.8C31.312 25.344 31.032 25.896 30.632 26.456C30.232 27 29.68 27.64 28.976 28.376L24.224 33.296L20.672 33.368ZM20.672 35V33.368L23.048 32.528H32.072V35H20.672Z" fill="white"/>
</svg>
