<svg width="20" height="22" viewBox="0 0 20 22" fill="none" xmlns="http://www.w3.org/2000/svg">
<g id="outsourcing-icon 1" clip-path="url(#clip0_23766_14623)">
<g id="Group">
<path id="Vector" d="M0.00903016 11.6499C0.00361206 11.7949 0 11.9417 0 12.0885C0 12.7725 0.0668232 13.4331 0.198664 14.0812C0.32328 14.7168 0.516525 15.3291 0.774788 15.9307C0.774788 15.9378 0.782012 15.9486 0.785624 15.9557C1.04208 16.5555 1.35452 17.1159 1.71031 17.644C2.06429 18.174 2.47246 18.661 2.92216 19.1068C3.37186 19.5579 3.86491 19.9572 4.39769 20.3063C4.93227 20.6626 5.50117 20.967 6.10078 21.223C6.71302 21.4844 7.34333 21.6742 7.98989 21.8049C8.63464 21.9338 9.30648 22 9.99639 22C10.6863 22 11.3527 21.9338 12.0065 21.8031C12.6476 21.6795 13.2653 21.488 13.8721 21.2319C13.8794 21.2319 13.8902 21.2248 13.8974 21.2212C14.497 20.967 15.0677 20.6572 15.6005 20.3045C16.1351 19.9536 16.6263 19.549 17.076 19.105C17.5312 18.6592 17.9339 18.1704 18.2879 17.6423C18.6473 17.1123 18.9525 16.5483 19.2126 15.9539C19.4763 15.347 19.6677 14.7222 19.7995 14.0812C19.9314 13.4385 19.9982 12.7725 19.9982 12.0885C19.9982 11.9417 19.9946 11.7967 19.9892 11.6517C13.3484 11.6499 6.66607 11.6499 0.00903016 11.6499ZM0.886762 12.5218H3.6518C3.75474 13.8771 4.20986 15.2378 5.01896 16.6128H2.09319C1.90717 16.2923 1.73921 15.9593 1.58931 15.6084C1.58208 15.6012 1.58208 15.5977 1.57847 15.5905C1.35091 15.0498 1.17031 14.4894 1.05653 13.9076C0.964421 13.4564 0.906628 12.998 0.886762 12.5218ZM2.66209 17.4811H5.58245C6.41503 18.6699 7.5149 19.8659 8.88207 21.0654C8.63645 21.0368 8.39624 20.9992 8.16327 20.9526C7.56908 20.8327 7.00018 20.6608 6.44754 20.4227C5.88947 20.1864 5.36933 19.9053 4.88171 19.583C4.39588 19.2625 3.9516 18.8991 3.53802 18.4891C3.22016 18.174 2.92577 17.841 2.66209 17.4847V17.4811ZM11.1143 21.0654C12.4887 19.8641 13.585 18.6699 14.4139 17.4811H17.3343C17.0706 17.8374 16.7762 18.1722 16.4584 18.4855C16.0448 18.8955 15.6005 19.259 15.1147 19.5794C14.6343 19.8999 14.1123 20.1792 13.5489 20.4191C13.5416 20.4263 13.538 20.4263 13.5308 20.4299C12.9854 20.6554 12.4201 20.8345 11.8331 20.9473C11.5929 20.9956 11.3527 21.0314 11.1143 21.0601V21.0654ZM17.905 16.6128H14.9774C15.7883 15.2396 16.2435 13.8789 16.3446 12.5218H19.1096C19.0861 12.998 19.032 13.4564 18.9417 13.9076C18.8207 14.4966 18.6473 15.0605 18.4071 15.6084C18.2572 15.9575 18.0892 16.2923 17.905 16.6128ZM10.4371 20.5015V17.4811H13.3394C12.5772 18.4801 11.611 19.4845 10.4371 20.5015ZM10.4371 16.6128V12.5218H15.4687C15.3549 13.8664 14.851 15.2271 13.9516 16.6128H10.4371ZM9.56113 12.5218V16.6128H6.0466C5.14719 15.2271 4.64331 13.8646 4.52953 12.5218H9.56113ZM9.56113 17.4811V20.5015C8.38541 19.4845 7.41918 18.4801 6.65703 17.4811H9.56113Z" fill="#7234F7" fill-opacity="0.42"/>
<path id="Vector_2" fill-rule="evenodd" clip-rule="evenodd" d="M15.0659 6.82844L15.3783 6.82128L15.6384 6.81412C15.3332 5.8885 15.4361 5.03808 16.1658 4.31477C16.2886 4.71223 16.5667 5.03987 17.0399 5.28157C17.2656 5.44807 17.4842 5.64859 17.6955 5.87955C17.7334 5.72558 17.5907 5.54117 17.4173 5.3496C17.5781 5.42838 17.7244 5.53759 17.8309 5.74885C17.9537 5.99413 17.9519 6.20182 17.9104 6.46679C17.8905 6.59033 17.8616 6.70491 17.8183 6.81233H18.2499C18.705 5.84374 18.4161 4.40787 17.4842 3.80094C17.197 3.61474 16.9929 3.6219 16.657 3.6219C16.2723 3.6219 16.0755 3.63264 15.7468 3.84928C15.2627 4.16796 14.9647 4.7176 14.8383 5.48209C14.8148 5.86344 14.7968 6.52229 15.0659 6.82844ZM0.17334 10.2606C0.211267 9.215 1.47549 9.17382 2.46339 8.56331L3.1244 10.2606H0.17334ZM4.45905 9.68587H4.58909C4.70648 9.68587 4.8022 9.59098 4.8022 9.4746V9.13264C4.8022 9.01627 4.70648 8.92138 4.58909 8.92138H3.81791C3.70052 8.92138 3.6048 9.01627 3.6048 9.13264V9.4746C3.6048 9.59098 3.70052 9.68587 3.81791 9.68587H3.94975L3.83597 10.2606H4.56922L4.45905 9.68587ZM3.10995 7.82568C3.13523 7.62695 2.54285 6.97346 2.43449 6.61181C2.20332 6.24658 2.12024 5.86881 2.37309 5.48209C2.47423 5.32812 2.43088 4.91454 2.43088 4.70328C2.43088 2.60676 6.13866 2.60497 6.13866 4.70328C6.13866 4.96826 6.07726 5.3138 6.22174 5.52327C6.46375 5.87239 6.33913 6.28954 6.13325 6.6136C6.00321 6.99495 5.38374 7.61083 5.42528 7.82747C5.46321 8.90169 3.10272 8.86588 3.10995 7.82568ZM9.20892 7.41389L10.1372 10.1156L10.605 8.51139L10.3756 8.26432C10.2709 8.11393 10.2492 7.98502 10.307 7.87223C10.4316 7.63053 10.6863 7.6735 10.9247 7.6735C11.1757 7.6735 11.4863 7.62695 11.564 7.93847C11.5893 8.0441 11.5568 8.15152 11.4845 8.26432L11.2552 8.51139L11.7229 10.1156L12.5627 7.41389C13.6554 8.38964 15.8569 7.81852 16.1224 10.2588H5.35485C5.63478 7.68961 8.10724 8.39859 9.20892 7.41389ZM8.45219 3.83675C8.45761 3.98893 8.53708 4.18766 8.6942 4.41861L8.69781 4.42219L9.21614 5.2386C9.42384 5.56624 9.63875 5.89745 9.90966 6.14094C10.1643 6.37369 10.4786 6.53124 10.8885 6.53124C11.3346 6.53303 11.6579 6.36832 11.9234 6.12304C12.1997 5.86702 12.42 5.51253 12.6368 5.15982L13.2201 4.20914C13.3393 3.94059 13.3754 3.77766 13.3357 3.69889C13.314 3.65413 13.2328 3.63801 13.1027 3.64339C13.0124 3.66845 12.9077 3.66845 12.7831 3.63443L13.0196 2.73746C11.1919 2.92366 10.1643 1.22818 8.86216 2.51725L9.03193 3.58072C8.82062 3.62369 8.43774 3.48762 8.45219 3.83675ZM13.3718 3.33723C13.4946 3.37483 13.5831 3.44286 13.6373 3.55208C13.7258 3.72574 13.6897 3.98535 13.5253 4.35595C13.5217 4.36311 13.5181 4.36848 13.5163 4.37565L12.9257 5.33886C12.6964 5.71126 12.4652 6.08544 12.1546 6.37369C11.8331 6.67447 11.4321 6.87499 10.8867 6.87141C10.3774 6.86962 9.99274 6.67805 9.67849 6.3916C9.37507 6.11767 9.14571 5.76497 8.92718 5.42122L8.40885 4.60481C8.21741 4.32014 8.11808 4.06054 8.11085 3.8457C8.10724 3.74186 8.1253 3.65055 8.16503 3.5664C8.20657 3.48046 8.26798 3.40706 8.35286 3.34977C8.3944 3.3247 8.44135 3.29964 8.49012 3.28173C8.45761 2.8413 8.44677 2.29524 8.46845 1.8387C8.47928 1.7277 8.50095 1.61669 8.53166 1.5039C8.6635 1.03482 8.99761 0.658848 9.40758 0.397454C9.55206 0.307936 9.711 0.22916 9.87896 0.170078C10.8723 -0.184414 12.1907 0.0107356 12.8968 0.76806C13.1858 1.076 13.3664 1.486 13.4043 2.02848L13.3718 3.33723ZM16.2543 8.58837L16.4872 7.7845L16.3734 7.66096C16.3211 7.58756 16.312 7.52132 16.3391 7.46581C16.4005 7.34407 16.5288 7.36734 16.648 7.36734C16.7726 7.36734 16.9279 7.34228 16.9676 7.49983C16.9803 7.55175 16.964 7.60546 16.9297 7.66275L16.8141 7.78808L17.0471 8.59195L16.6498 8.90348L16.2543 8.58837ZM18.342 8.30908C18.165 7.95816 17.9411 7.65917 17.6792 7.37988C18.1705 7.56786 18.6743 7.75406 19.0446 7.98681C19.2812 8.13362 19.404 8.24462 19.4979 8.42187C19.702 8.80143 19.7236 9.1398 19.7525 9.55159L19.8248 10.2606H16.9532C16.8755 9.93294 16.8322 9.65901 16.6696 9.29557C17.1663 8.81038 17.6955 8.4165 18.342 8.30908ZM14.8185 7.69677C15.093 7.57682 15.3765 7.47477 15.6239 7.37988C15.4831 7.53206 15.353 7.68782 15.2356 7.85432C15.1038 7.80061 14.9647 7.7469 14.8185 7.69677Z" fill="#7234F7" fill-opacity="0.42"/>
</g>
</g>
<defs>
<clipPath id="clip0_23766_14623">
<rect width="20" height="22" fill="white"/>
</clipPath>
</defs>
</svg>
