<svg width="53" height="52" viewBox="0 0 53 52" fill="none" xmlns="http://www.w3.org/2000/svg">
<rect x="0.5" width="52" height="52" rx="26" fill="#FE7465"/>
<path d="M25.904 35.24C24.784 35.24 23.768 35.04 22.856 34.64C21.96 34.224 21.2 33.624 20.576 32.84L22.448 30.968C22.784 31.48 23.256 31.888 23.864 32.192C24.472 32.496 25.136 32.648 25.856 32.648C26.544 32.648 27.136 32.52 27.632 32.264C28.128 32.008 28.512 31.648 28.784 31.184C29.072 30.72 29.216 30.184 29.216 29.576C29.216 28.936 29.072 28.392 28.784 27.944C28.512 27.496 28.112 27.152 27.584 26.912C27.072 26.656 26.448 26.528 25.712 26.528C25.424 26.528 25.128 26.552 24.824 26.6C24.52 26.632 24.248 26.688 24.008 26.768L25.232 25.184C25.568 25.056 25.92 24.952 26.288 24.872C26.672 24.776 27.04 24.728 27.392 24.728C28.256 24.728 29.032 24.936 29.72 25.352C30.424 25.768 30.976 26.352 31.376 27.104C31.792 27.84 32 28.712 32 29.72C32 30.808 31.744 31.768 31.232 32.6C30.72 33.432 30.008 34.08 29.096 34.544C28.184 35.008 27.12 35.24 25.904 35.24ZM24.008 26.768V25.136L28.496 19.904L31.808 19.832L27.128 25.208L24.008 26.768ZM21.416 20.672V18.2H31.808V19.832L29.432 20.672H21.416Z" fill="white"/>
</svg>
