<svg width="22" height="22" viewBox="0 0 22 22" fill="none" xmlns="http://www.w3.org/2000/svg">
<g id="time-clock-icon 1" clip-path="url(#clip0_23766_14633)">
<path id="Vector" fill-rule="evenodd" clip-rule="evenodd" d="M11 0C13.1756 0 15.3023 0.645139 17.1113 1.85383C18.9202 3.06253 20.3301 4.7805 21.1627 6.79048C21.9952 8.80047 22.2131 11.0122 21.7886 13.146C21.3642 15.2798 20.3166 17.2398 18.7782 18.7782C17.2398 20.3166 15.2798 21.3642 13.146 21.7886C11.0122 22.2131 8.80047 21.9952 6.79048 21.1627C4.7805 20.3301 3.06253 18.9202 1.85383 17.1113C0.645139 15.3023 0 13.1756 0 11C0 8.08262 1.15893 5.28473 3.22183 3.22183C5.28473 1.15893 8.08262 0 11 0ZM9.47461 5.46419H10.8192C10.9377 5.46466 11.0513 5.51197 11.1351 5.59581C11.219 5.67965 11.2663 5.79322 11.2668 5.91178V11.1003H15.9951C16.1137 11.1007 16.2273 11.148 16.3111 11.2319C16.3949 11.3157 16.4422 11.4293 16.4427 11.5479V12.8906C16.4422 13.0092 16.3949 13.1228 16.3111 13.2066C16.2273 13.2904 16.1137 13.3377 15.9951 13.3382H9.02523V5.9082C9.0257 5.78933 9.07326 5.67549 9.15748 5.5916C9.2417 5.50771 9.35574 5.46061 9.47461 5.46061V5.46419Z" fill="#7234F7" fill-opacity="0.42"/>
</g>
<defs>
<clipPath id="clip0_23766_14633">
<rect width="22" height="22" fill="white"/>
</clipPath>
</defs>
</svg>
