<svg width="48" height="48" viewBox="0 0 48 48" fill="none" xmlns="http://www.w3.org/2000/svg">
<g id="Frame 1000006927">
<rect width="48" height="48" rx="24" fill="url(#paint0_linear_23766_37171)" fill-opacity="0.4"/>
<path id="Vector 4" d="M9.25168 30.3367C8.88533 30.7499 8.92337 31.382 9.33666 31.7483C9.74994 32.1147 10.382 32.0766 10.7483 31.6633L9.25168 30.3367ZM18.0551 21.9131L18.6631 21.1192L17.9242 20.5532L17.3068 21.2497L18.0551 21.9131ZM24.7288 27.0243L24.1207 27.8182L24.8792 28.3991L25.4941 27.668L24.7288 27.0243ZM34.9963 15.9139C34.9488 15.3637 34.4642 14.9562 33.9139 15.0037L24.9473 15.7782C24.3971 15.8258 23.9896 16.3103 24.0371 16.8606C24.0846 17.4108 24.5692 17.8183 25.1194 17.7708L33.0898 17.0823L33.7782 25.0527C33.8258 25.6029 34.3103 26.0104 34.8606 25.9629C35.4108 25.9154 35.8183 25.4308 35.7708 24.8806L34.9963 15.9139ZM10.7483 31.6633L18.8034 22.5764L17.3068 21.2497L9.25168 30.3367L10.7483 31.6633ZM17.447 22.707L24.1207 27.8182L25.3368 26.2304L18.6631 21.1192L17.447 22.707ZM25.4941 27.668L34.7653 16.6436L33.2347 15.3564L23.9634 26.3807L25.4941 27.668Z" fill="white"/>
</g>
<defs>
<linearGradient id="paint0_linear_23766_37171" x1="64.9897" y1="-85.9119" x2="66.8335" y2="105.482" gradientUnits="userSpaceOnUse">
<stop stop-color="#F7F0FF" stop-opacity="0.44"/>
<stop offset="1" stop-color="#7234F7"/>
</linearGradient>
</defs>
</svg>
