<svg width="28" height="28" viewBox="0 0 28 28" fill="none" xmlns="http://www.w3.org/2000/svg">
<g id="correct" clip-path="url(#clip0_23766_14699)">
<g id="Group">
<g id="Group 427320826">
<path id="Vector" fill-rule="evenodd" clip-rule="evenodd" d="M14 0C6.27813 0 0 6.27813 0 14C0 21.7219 6.27813 28 14 28C21.7219 28 28 21.7219 28 14C28 6.27813 21.7219 0 14 0Z" fill="#7234F7" fill-opacity="0.42"/>
<path id="Vector_2" fill-rule="evenodd" clip-rule="evenodd" d="M20.7715 9.27988C21.1105 9.61895 21.1105 10.1768 20.7715 10.5158L12.5684 18.7189C12.3988 18.8885 12.1746 18.976 11.9504 18.976C11.7262 18.976 11.502 18.8885 11.3324 18.7189L7.23086 14.6174C6.8918 14.2783 6.8918 13.7205 7.23086 13.3814C7.56992 13.0424 8.12773 13.0424 8.4668 13.3814L11.9504 16.865L19.5355 9.27988C19.8746 8.93535 20.4324 8.93535 20.7715 9.27988Z" fill="white"/>
</g>
</g>
</g>
<defs>
<clipPath id="clip0_23766_14699">
<rect width="28" height="28" fill="white"/>
</clipPath>
</defs>
</svg>
