<svg width="108" height="75" viewBox="0 0 108 75" fill="none" xmlns="http://www.w3.org/2000/svg">
<path id="Ellipse 1235" d="M106.142 15.6693C108.114 12.0898 106.822 7.55159 103.064 5.94643C93.5478 1.88231 83.2582 -0.151846 72.857 0.00882772C59.9823 0.207711 47.3824 3.76256 36.3022 10.3221C25.2221 16.8816 16.0453 26.2188 9.67866 37.4109C4.5352 46.4527 1.36969 56.4524 0.355952 66.7503C-0.0444332 70.8176 3.31322 74.1326 7.40012 74.1249C11.487 74.1172 14.7462 70.7853 15.2482 66.7293C16.2034 59.0107 18.6735 51.5309 22.5429 44.7287C27.6362 35.775 34.9777 28.3053 43.8418 23.0577C52.7059 17.81 62.7859 14.9662 73.0856 14.8071C80.9104 14.6862 88.6563 16.118 95.883 18.9929C99.6804 20.5036 104.169 19.2487 106.142 15.6693Z" fill="#7234F7"/>
</svg>
