<svg width="26" height="26" viewBox="0 0 26 26" fill="none" xmlns="http://www.w3.org/2000/svg">
<g id="Job">
<path id="Vector" d="M20.4763 6.5H18.418C18.418 4.65833 17.0096 3.25 15.168 3.25H10.8346C8.99297 3.25 7.58463 4.65833 7.58463 6.5H5.5263C3.68464 6.5 2.16797 8.01667 2.16797 9.85833V10.9417C2.16797 11.9167 2.6013 12.7833 3.2513 13.4333V18.4167C3.2513 20.8 5.2013 22.75 7.58463 22.75H18.418C20.8013 22.75 22.7513 20.8 22.7513 18.4167V13.5417C23.4013 12.8917 23.8346 12.025 23.8346 11.05V9.96667C23.8346 8.01667 22.318 6.5 20.4763 6.5ZM10.8346 5.41667H15.168C15.818 5.41667 16.2513 5.85 16.2513 6.5H9.7513C9.7513 5.85 10.1846 5.41667 10.8346 5.41667ZM4.33464 9.85833C4.33464 9.20833 4.8763 8.66667 5.5263 8.66667H20.4763C21.1263 8.66667 21.668 9.20833 21.668 9.85833V10.9417C21.668 11.375 21.4513 11.8083 21.018 12.1333C20.9096 12.2417 20.693 12.35 20.5846 12.35L14.0846 13.7583C13.9763 13.325 13.543 12.8917 13.0013 12.8917C12.4596 12.8917 12.1346 13.2167 11.918 13.7583L5.41797 12.35C5.2013 12.35 5.09297 12.2417 4.98464 12.1333H4.8763C4.5513 11.9167 4.33464 11.4833 4.33464 10.9417V9.85833ZM20.5846 18.4167C20.5846 19.6083 19.6096 20.5833 18.418 20.5833H7.58463C6.39297 20.5833 5.41797 19.6083 5.41797 18.4167V14.625L11.918 16.0333V16.25C11.918 16.9 12.3513 17.3333 13.0013 17.3333C13.6513 17.3333 14.0846 16.9 14.0846 16.25V16.0333L20.5846 14.625V18.4167Z" fill="#7234F7"/>
</g>
</svg>
