<svg width="28" height="28" viewBox="0 0 28 28" fill="none" xmlns="http://www.w3.org/2000/svg">
<g id="lightbulb 1" clip-path="url(#clip0_23766_14692)">
<g id="Group">
<path id="Vector" d="M7.64059 17.3573C8.35806 17.965 8.83381 18.7884 9.0057 19.6872H13.18V13.841C11.7663 13.4758 10.719 12.1896 10.719 10.6634H12.3597C12.3597 11.5681 13.0957 12.3041 14.0003 12.3041C14.905 12.3041 15.641 11.5681 15.641 10.6634H17.2817C17.2817 12.1896 16.2344 13.4758 14.8207 13.841V19.6872H18.9959C19.1697 18.7886 19.6499 17.9611 20.3742 17.3452C22.5796 15.4699 23.8445 12.7355 23.8445 9.84306C23.8445 1.01878 13.0826 -3.31489 6.95391 2.98131C2.95413 7.09058 3.29605 13.677 7.64059 17.3573Z" fill="#7234F7" fill-opacity="0.42"/>
<path id="Vector_2" d="M14.0001 28.0001C15.8095 28.0001 17.2815 26.5281 17.2815 24.7188H10.7188C10.7188 26.5281 12.1908 28.0001 14.0001 28.0001Z" fill="#7234F7" fill-opacity="0.42"/>
<path id="Vector_3" d="M9.07812 21.3281H18.9223V23.0782H9.07812V21.3281Z" fill="#7234F7" fill-opacity="0.42"/>
</g>
</g>
<defs>
<clipPath id="clip0_23766_14692">
<rect width="28" height="28" fill="white"/>
</clipPath>
</defs>
</svg>
