<svg width="28" height="28" viewBox="0 0 28 28" fill="none" xmlns="http://www.w3.org/2000/svg">
<path id="path7143" d="M24.8602 0C20.2022 0 13.9521 3.19567 9.75493 8.68978H6.27554C3.76137 8.68978 2.32039 10.5663 1.32823 12.5509L0 15.2071H3.13571H6.27554L9.53421 18.4658L12.7929 21.7245V24.8643V28L15.4491 26.672C17.4337 25.6796 19.3102 24.2386 19.3102 21.7245V18.2451C24.8043 14.0479 28 7.79778 28 3.13984V0H24.8602ZM19.3102 6.51734C20.5101 6.51734 21.4827 7.48994 21.4827 8.68978C21.4827 9.88962 20.5101 10.8622 19.3102 10.8622C18.1104 10.8622 17.1378 9.88962 17.1378 8.68978C17.1378 7.48994 18.1104 6.51734 19.3102 6.51734ZM5.18932 19.552L4.1031 20.6382C2.53416 22.2072 1.93065 26.0693 1.93065 26.0693C1.93065 26.0693 5.61946 25.6392 7.36177 23.8969L8.44799 22.8107L5.18932 19.552Z" fill="#7234F7" fill-opacity="0.42"/>
</svg>
