<svg width="71" height="50" viewBox="0 0 71 50" fill="none" xmlns="http://www.w3.org/2000/svg">
<path d="M16.0053 17.6005C16.0335 18.2673 16.0974 18.6873 16.0609 19.0982C15.9067 20.8448 16.2672 22.5731 16.1255 24.3384C15.9319 26.7507 16.0751 29.1914 16.0964 31.6201C16.0993 31.9521 16.2308 32.2828 16.3178 32.6837L23.7032 25.2983L16.0053 17.6005ZM31.574 17.8956C31.5802 22.8202 31.5865 27.8097 31.5929 32.7016C32.7201 31.8123 38.4044 26.0554 38.9193 25.2408L31.574 17.8956ZM46.8203 32.7835C48.6331 31.2573 53.7315 26.0498 54.1828 25.2538L46.8041 17.8751C46.8095 22.8204 46.8149 27.7883 46.8203 32.7835ZM31.3778 2.38094C31.3505 2.70507 31.325 2.86747 31.325 3.02993C31.3287 7.25717 31.3469 11.4846 31.3283 15.7118C31.3257 16.3161 31.5471 16.7199 31.9588 17.1269C34.4031 19.5431 36.8266 21.9804 39.257 24.4112C39.4642 24.6187 39.6795 24.8199 39.8703 25.042C40.124 25.3369 40.1193 25.6549 39.8659 25.9463C39.6744 26.1664 39.4598 26.3671 39.2531 26.5738C36.8596 28.968 34.4749 31.3707 32.0644 33.7475C31.5904 34.2149 31.3464 34.6792 31.3536 35.3784C31.395 39.3963 31.3823 43.4144 31.3925 47.4325C31.393 47.6483 31.4344 47.8638 31.4686 48.1913C31.6999 47.9822 31.8264 47.8773 31.9419 47.7618C36.3461 43.3595 40.7415 38.9484 45.1639 34.5647C45.6289 34.1034 45.7692 33.6384 45.7661 33.0142C45.7409 27.9499 45.7264 22.8853 45.7545 17.8214C45.7587 17.0432 45.5335 16.5057 44.9798 15.9577C40.6891 11.7123 36.431 7.43411 32.1631 3.16619L31.3778 2.38094ZM16.034 48.2945C16.3916 47.9816 16.5204 47.8816 16.6349 47.7671C21.101 43.3029 25.5617 38.8334 30.0387 34.3802C30.4542 33.9669 30.6659 33.5517 30.6387 32.9545C30.5571 31.1615 30.4843 29.3666 30.4756 27.572C30.4688 26.1968 30.6109 24.8212 30.6034 23.446C30.5935 21.5677 30.4648 19.6896 30.469 17.8119C30.4707 17.0419 30.2645 16.4953 29.7047 15.942C25.4687 11.7557 21.2683 7.53261 17.0569 3.32124L16.2829 2.54716C16.1888 3.08407 16.0591 3.48935 16.0564 3.89573C16.041 6.32489 16.0452 8.75388 16.0654 11.1829C16.0709 11.8048 16.2021 12.4264 16.1976 13.0473C16.191 13.9206 16.1318 14.7948 16.0565 15.6651C16.0046 16.2638 16.2473 16.6758 16.6636 17.0867C19.0814 19.4734 21.476 21.8837 23.8782 24.2863C24.0857 24.4938 24.306 24.6907 24.4967 24.9129C24.8722 25.3507 24.8743 25.5612 24.5046 25.9998C24.3163 26.2228 24.0952 26.4179 23.8881 26.625C21.6112 28.9019 19.3597 31.2054 17.0424 33.4404C16.32 34.1371 16.0084 34.8425 16.0702 35.8527C16.1618 37.3551 16.096 38.8669 16.1028 40.3742C16.1044 40.7083 16.1312 41.0423 16.1451 41.3762C16.1815 42.25 16.2613 43.1251 16.2427 43.9979C16.2145 45.328 16.1176 46.6565 16.034 48.2945ZM55.2662 25.1578C55.3034 25.8566 54.9067 26.2263 54.5195 26.6127C52.1512 28.9733 49.8043 31.3557 47.4126 33.6919C46.8606 34.231 46.6231 34.7656 46.6325 35.5494C46.6796 39.4419 46.6629 43.335 46.6694 47.2278C46.67 47.5156 46.677 47.8032 46.6833 48.2442L69.5895 25.338C69.345 25.0935 69.1451 24.893 68.9444 24.6929C61.6131 17.3854 54.2818 10.0774 46.9481 2.77186C46.9234 2.74716 46.8673 2.7414 46.8279 2.7461C46.7913 2.75042 46.7576 2.78015 46.6946 2.81386C46.6695 2.90958 46.6121 3.02517 46.6119 3.14102C46.6118 7.41048 46.6266 11.6801 46.6093 15.9495C46.6074 16.488 46.8942 16.7891 47.2221 17.1163C49.1513 19.0403 51.0768 20.9684 53.0038 22.8954L55.2662 25.1578ZM1.04351 2.55766C0.825331 4.0429 0.937116 46.9653 1.16368 47.9308L1.62571 47.4688C5.97156 43.1229 10.3087 38.7682 14.6746 34.4426C15.2005 33.9218 15.3647 33.3883 15.3602 32.6726C15.3288 27.7736 15.3166 22.8744 15.3493 17.9757C15.3549 17.15 15.0962 16.5822 14.5185 16.01C10.2872 11.8203 6.08623 7.60038 1.8756 3.38976L1.04351 2.55766ZM30.4026 35.4232L29.4088 36.417C25.2095 40.6163 21.0128 44.8178 16.8066 49.0104C16.4707 49.3452 16.2086 49.8719 15.4543 49.6402C15.2863 48.4947 15.4009 47.2912 15.3753 46.0966C15.35 44.9243 15.3634 43.7511 15.3618 42.5785C15.3604 41.3637 15.3588 40.1491 15.3608 38.9345C15.3631 37.7661 15.3705 36.5978 15.3762 35.2277C14.9658 35.5982 14.6936 35.8231 14.4446 36.0718C10.1249 40.3871 5.81032 44.7075 1.48622 49.0185C1.15354 49.35 0.887299 49.8835 0.251129 49.6281C0.112312 48.9665 -0.0816489 2.12948 0.0702466 1.42457C0.101288 1.28082 0.245835 1.16188 0.320037 1.05692C0.418925 1.06128 0.46039 1.06078 0.501687 1.06559C0.542272 1.07041 0.588138 1.07028 0.620868 1.09025C0.691831 1.13384 0.758603 1.18566 0.822086 1.23966C0.885945 1.29403 0.944711 1.35422 1.00399 1.4135C5.6928 6.09757 10.3811 10.7815 15.0711 15.4639C15.0981 15.4908 15.1476 15.4947 15.3139 15.5574C15.3126 10.6954 15.3115 5.87885 15.3098 0.935862C15.6642 1.08184 15.9109 1.13265 16.0922 1.27013C16.3573 1.47099 16.5758 1.73336 16.8132 1.97071C20.9953 6.15243 25.1774 10.3345 29.3597 14.5168L30.3264 15.4836C30.7728 13.8766 30.5601 12.3538 30.5555 10.8439C30.5489 8.63506 30.5453 6.42623 30.5469 4.2176C30.5476 3.46439 30.5677 2.71159 30.5798 1.95876C30.5851 1.62512 30.542 1.26962 30.9595 1.10725C30.9862 1.10839 31.0276 1.10755 31.0686 1.11198C31.1092 1.1168 31.1634 1.11232 31.1874 1.13629C35.9613 5.90582 40.7328 10.6777 45.7121 15.657C45.7417 13.8303 45.7193 12.2726 45.7215 10.716C45.7239 9.12441 45.7194 7.53284 45.717 5.94128C45.7147 4.35775 45.7116 2.77422 45.7085 1.04287C46.0986 1.13919 46.3851 1.14987 46.6013 1.27882C46.8456 1.42501 47.0284 1.67634 47.2361 1.88367C54.7403 9.38758 62.244 16.8916 69.7479 24.3956L70.6033 25.2509C70.0369 26.1409 47.3417 48.8924 46.1588 49.7664C46.0355 49.5749 45.8348 49.3976 45.8106 49.1993C45.7554 48.7449 45.7836 48.2801 45.7828 47.8194C45.7763 44.1755 45.771 40.5317 45.7649 36.8877C45.7641 36.4738 45.7593 36.0596 45.7553 35.4633C45.3673 35.8125 45.0949 36.0374 44.846 36.2859C40.615 40.5121 36.3898 44.745 32.1522 48.9647C31.7918 49.3236 31.4893 49.9797 30.8321 49.6677C30.2576 49.3949 30.5022 48.7671 30.5068 48.2969C30.5293 46.0836 30.6393 43.8705 30.6273 41.6577C30.6164 39.6573 30.4879 37.6576 30.4026 35.4232Z" fill="url(#paint0_linear_9432_6182)"/>
<defs>
<linearGradient id="paint0_linear_9432_6182" x1="-0.311923" y1="1.68888" x2="47.0642" y2="49.065" gradientUnits="userSpaceOnUse">
<stop stop-color="#7233F7"/>
<stop offset="1" stop-color="#FF7262"/>
</linearGradient>
</defs>
</svg>
