<svg width="769" height="247" viewBox="0 0 769 247" fill="none" xmlns="http://www.w3.org/2000/svg">
<g opacity="0.4">
<path d="M2.86884 356.554C1.67886 357.744 1 359.359 1 361.031V394.825C1 398.316 3.82818 401.134 7.32735 401.134H41.1045C42.7828 401.134 44.3966 400.468 45.5813 399.283L281.14 163.724C282.331 162.533 283.01 160.917 283.01 159.247V125.452C283.01 121.96 280.183 119.144 276.683 119.144H242.887C241.208 119.144 239.595 119.809 238.41 120.994L2.86884 356.554ZM2.86884 356.554L1.94622 355.629" stroke="url(#paint0_linear_11519_103439)" stroke-opacity="0.4" stroke-width="0.920726"/>
<path d="M498.013 364.016H464.218C460.717 364.016 457.891 361.198 457.891 357.707V323.911C457.891 322.241 458.569 320.626 459.76 319.434L569.949 209.245C571.133 208.06 572.748 207.395 574.426 207.395H608.222C611.724 207.395 614.549 210.211 614.549 213.702V247.498C614.549 249.168 613.871 250.784 612.681 251.975L502.49 362.166C501.305 363.35 499.692 364.016 498.013 364.016Z" stroke="url(#paint1_linear_11519_103439)" stroke-opacity="0.4" stroke-width="0.920726"/>
<path d="M323.427 202.786H289.632C286.131 202.786 283.305 199.97 283.305 196.478V162.682C283.305 161.012 283.983 159.396 285.174 158.206L369.129 74.2506C370.314 73.0656 371.927 72.4004 373.606 72.4004H407.402C410.902 72.4004 413.728 75.2165 413.728 78.7083V112.504C413.728 114.174 413.05 115.79 411.859 116.981L327.904 200.936C326.72 202.121 325.106 202.786 323.427 202.786Z" stroke="url(#paint2_linear_11519_103439)" stroke-opacity="0.4" stroke-width="0.920726"/>
<path d="M677.382 188.464H643.585C640.086 188.464 637.258 185.648 637.258 182.156V148.36C637.258 146.69 637.937 145.074 639.129 143.883L723.083 59.9284C724.268 58.7434 725.883 58.0781 727.56 58.0781H761.357C764.856 58.0781 767.684 60.8945 767.684 64.3861V98.1818C767.684 99.852 767.005 101.468 765.813 102.659L681.859 186.614C680.674 187.799 679.059 188.464 677.382 188.464Z" stroke="url(#paint3_linear_11519_103439)" stroke-opacity="0.4" stroke-width="0.920726"/>
<path d="M571.467 206.606H537.671C534.171 206.606 531.344 203.789 531.344 200.298V166.502C531.344 164.832 532.022 163.216 533.213 162.025L589.5 105.737C590.685 104.552 592.3 103.887 593.977 103.887H627.774C631.273 103.887 634.101 106.703 634.101 110.195V143.99C634.101 145.66 633.422 147.277 632.232 148.467L575.944 204.756C574.759 205.94 573.145 206.606 571.467 206.606Z" stroke="url(#paint4_linear_11519_103439)" stroke-opacity="0.4" stroke-width="0.920726"/>
<path d="M590.724 102.202C589.655 103.271 588.239 103.917 586.74 104.033H586.266H552.472C548.97 104.033 546.145 101.217 546.145 97.7256V63.9295C546.145 62.2596 546.823 60.6437 548.013 59.4527L604.283 3.16456C605.468 1.97972 607.08 1.31445 608.76 1.31445H642.554C646.056 1.31445 648.881 4.13065 648.881 7.62228V41.4373C648.881 43.1072 648.203 44.7234 647.013 45.9141L590.724 102.202Z" stroke="url(#paint5_linear_11519_103439)" stroke-opacity="0.4" stroke-width="0.920726"/>
<path d="M281.455 328.707H247.659C244.159 328.707 241.332 325.889 241.332 322.398V288.601C241.332 286.932 242.01 285.317 243.201 284.125L327.156 200.171C328.341 198.986 329.955 198.32 331.633 198.32H365.429C368.929 198.32 371.756 201.136 371.756 204.628V238.424C371.756 240.094 371.078 241.71 369.887 242.901L285.932 326.856C284.747 328.041 283.133 328.707 281.455 328.707Z" stroke="url(#paint6_linear_11519_103439)" stroke-opacity="0.4" stroke-width="0.920726"/>
<path d="M412.154 281.964H378.358C374.858 281.964 372.031 279.149 372.031 275.658V241.861C372.031 240.191 372.71 238.575 373.9 237.385L486.477 124.808C487.662 123.623 489.275 122.958 490.954 122.958H524.75C528.25 122.958 531.077 125.774 531.077 129.266V163.062C531.077 164.732 530.398 166.348 529.207 167.538L416.631 280.114C415.446 281.299 413.832 281.964 412.154 281.964Z" stroke="url(#paint7_linear_11519_103439)" stroke-opacity="0.4" stroke-width="0.920726"/>
</g>
<defs>
<linearGradient id="paint0_linear_11519_103439" x1="142.005" y1="119.144" x2="142.005" y2="401.134" gradientUnits="userSpaceOnUse">
<stop stop-color="#7233F7"/>
<stop offset="1" stop-color="#FF7262"/>
</linearGradient>
<linearGradient id="paint1_linear_11519_103439" x1="536.22" y1="207.395" x2="536.22" y2="364.016" gradientUnits="userSpaceOnUse">
<stop stop-color="#7233F7"/>
<stop offset="1" stop-color="#FF7262"/>
</linearGradient>
<linearGradient id="paint2_linear_11519_103439" x1="348.517" y1="72.4004" x2="348.517" y2="202.786" gradientUnits="userSpaceOnUse">
<stop stop-color="#7233F7"/>
<stop offset="1" stop-color="#FF7262"/>
</linearGradient>
<linearGradient id="paint3_linear_11519_103439" x1="702.471" y1="58.0781" x2="702.471" y2="188.464" gradientUnits="userSpaceOnUse">
<stop stop-color="#7233F7"/>
<stop offset="1" stop-color="#FF7262"/>
</linearGradient>
<linearGradient id="paint4_linear_11519_103439" x1="582.722" y1="103.887" x2="582.722" y2="206.606" gradientUnits="userSpaceOnUse">
<stop stop-color="#7233F7"/>
<stop offset="1" stop-color="#FF7262"/>
</linearGradient>
<linearGradient id="paint5_linear_11519_103439" x1="597.513" y1="1.31445" x2="597.513" y2="104.033" gradientUnits="userSpaceOnUse">
<stop stop-color="#7233F7"/>
<stop offset="1" stop-color="#FF7262"/>
</linearGradient>
<linearGradient id="paint6_linear_11519_103439" x1="306.544" y1="198.32" x2="306.544" y2="328.707" gradientUnits="userSpaceOnUse">
<stop stop-color="#7233F7"/>
<stop offset="1" stop-color="#FF7262"/>
</linearGradient>
<linearGradient id="paint7_linear_11519_103439" x1="451.554" y1="122.958" x2="451.554" y2="281.964" gradientUnits="userSpaceOnUse">
<stop stop-color="#7233F7"/>
<stop offset="1" stop-color="#FF7262"/>
</linearGradient>
</defs>
</svg>
