<svg width="187" height="191" viewBox="0 0 187 191" fill="none" xmlns="http://www.w3.org/2000/svg">
<g opacity="0.4">
<path d="M-82.3435 125.787C-82.7615 126.205 -83 126.772 -83 127.359V139.23C-83 140.457 -82.0065 141.446 -80.7774 141.446H-68.9123C-68.3228 141.446 -67.7559 141.213 -67.3397 140.796L15.406 58.0506C15.8243 57.6323 16.0626 57.0646 16.0626 56.478V44.6064C16.0626 43.3799 15.0696 42.3906 13.8401 42.3906H1.96848C1.37893 42.3906 0.812135 42.6243 0.395967 43.0405L-82.3435 125.787ZM-82.3435 125.787L-82.6676 125.462" stroke="url(#paint0_linear_9435_7518)" stroke-width="0.920726"/>
<path d="M91.5882 128.408H79.7167C78.4871 128.408 77.4941 127.418 77.4941 126.192V114.32C77.4941 113.733 77.7324 113.166 78.1507 112.747L116.857 74.0406C117.273 73.6244 117.841 73.3906 118.43 73.3906H130.302C131.532 73.3906 132.524 74.3799 132.524 75.6064V87.478C132.524 88.0647 132.286 88.6323 131.868 89.0506L93.1608 127.758C92.7446 128.174 92.1778 128.408 91.5882 128.408Z" stroke="url(#paint1_linear_9435_7518)" stroke-width="0.920726"/>
<path d="M30.2596 71.7718H18.388C17.1585 71.7718 16.1655 70.7825 16.1655 69.556V57.6844C16.1655 57.0978 16.4038 56.5302 16.8221 56.1119L46.3134 26.6206C46.7295 26.2044 47.2963 25.9707 47.886 25.9707H59.7575C60.9871 25.9707 61.98 26.9599 61.98 28.1865V40.0581C61.98 40.6447 61.7417 41.2124 61.3234 41.6307L31.8322 71.1219C31.416 71.5381 30.8491 71.7718 30.2596 71.7718Z" stroke="url(#paint2_linear_9435_7518)" stroke-width="0.920726"/>
<path d="M154.595 66.7406H142.724C141.494 66.7406 140.501 65.7513 140.501 64.5248V52.6532C140.501 52.0665 140.739 51.4989 141.158 51.0806L170.649 21.5894C171.065 21.1731 171.633 20.9395 172.222 20.9395H184.094C185.323 20.9395 186.316 21.9288 186.316 23.1553V35.0268C186.316 35.6135 186.078 36.1812 185.659 36.5994L156.168 66.0907C155.752 66.5068 155.185 66.7406 154.595 66.7406Z" stroke="url(#paint3_linear_9435_7518)" stroke-width="0.920726"/>
<path d="M117.391 73.1138H105.519C104.29 73.1138 103.296 72.1244 103.296 70.8979V59.0264C103.296 58.4397 103.535 57.8721 103.953 57.4538L123.725 37.6812C124.141 37.2649 124.709 37.0312 125.298 37.0312H137.17C138.399 37.0312 139.392 38.0205 139.392 39.2471V51.1186C139.392 51.7052 139.154 52.2729 138.736 52.6912L118.963 72.4638C118.547 72.88 117.98 73.1138 117.391 73.1138Z" stroke="url(#paint4_linear_9435_7518)" stroke-width="0.920726"/>
<path d="M31.1854 189.877H19.3138C18.0843 189.877 17.0913 188.888 17.0913 187.662V175.79C17.0913 175.204 17.3296 174.636 17.7479 174.218L37.5205 154.445C37.9367 154.029 38.5035 153.795 39.0931 153.795H50.9647C52.1942 153.795 53.1872 154.784 53.1872 156.01V167.882C53.1872 168.469 52.9489 169.037 52.5306 169.455L32.758 189.227C32.3418 189.643 31.775 189.877 31.1854 189.877Z" stroke="url(#paint5_linear_9435_7518)" stroke-width="0.920726"/>
<path d="M121.921 159.742H110.049C108.82 159.742 107.826 158.754 107.826 157.527V145.655C107.826 145.069 108.065 144.501 108.483 144.083L128.255 124.31C128.671 123.894 129.239 123.66 129.828 123.66H141.7C142.929 123.66 143.922 124.649 143.922 125.876V137.747C143.922 138.334 143.684 138.902 143.266 139.32L123.493 159.092C123.077 159.509 122.51 159.742 121.921 159.742Z" stroke="url(#paint6_linear_9435_7518)" stroke-width="0.920726"/>
<path d="M124.155 36.4393C123.78 36.8146 123.282 37.0415 122.756 37.0824H122.589H110.718C109.488 37.0824 108.496 36.0932 108.496 34.8667V22.995C108.496 22.4084 108.734 21.8408 109.152 21.4224L128.918 1.64989C129.334 1.23369 129.901 1 130.491 1H142.362C143.592 1 144.584 1.98926 144.584 3.21577V15.0941C144.584 15.6807 144.346 16.2484 143.928 16.6667L124.155 36.4393Z" stroke="url(#paint7_linear_9435_7518)" stroke-width="0.920726"/>
<path d="M67.2303 182.928H55.3588C54.1292 182.928 53.1362 181.94 53.1362 180.713V168.841C53.1362 168.255 53.3746 167.687 53.7929 167.269L91.3863 129.675C91.8025 129.259 92.3693 129.025 92.9588 129.025H104.831C106.06 129.025 107.053 130.014 107.053 131.241V143.113C107.053 143.699 106.815 144.267 106.396 144.685L68.8029 182.278C68.3868 182.695 67.8199 182.928 67.2303 182.928Z" stroke="url(#paint8_linear_9435_7518)" stroke-width="0.920726"/>
<path d="M56.3978 135.442H44.5262C43.2967 135.442 42.3037 134.453 42.3037 133.226V121.355C42.3037 120.768 42.542 120.2 42.9604 119.782L62.7329 100.009C63.1491 99.5932 63.7159 99.3594 64.3055 99.3594H76.1771C77.4067 99.3594 78.3996 100.349 78.3996 101.576V113.446C78.3996 114.034 78.1613 114.601 77.743 115.019L57.9704 134.792C57.5542 135.208 56.9874 135.442 56.3978 135.442Z" stroke="url(#paint9_linear_9435_7518)" stroke-width="0.920726"/>
<path d="M15.517 116.005H3.64536C2.41585 116.005 1.42285 115.015 1.42285 113.788V101.917C1.42285 101.33 1.66114 100.763 2.07951 100.344L31.5706 70.8531C31.9869 70.4368 32.5537 70.2031 33.1432 70.2031H45.0149C46.2444 70.2031 47.2374 71.1924 47.2374 72.4189V84.2905C47.2374 84.8771 46.9991 85.4448 46.5808 85.8631L17.0895 115.355C16.6733 115.771 16.1065 116.005 15.517 116.005Z" stroke="url(#paint10_linear_9435_7518)" stroke-width="0.920726"/>
<path d="M10.1527 151.534H-1.71887C-2.9484 151.534 -3.94141 150.544 -3.94141 149.318V137.446C-3.94141 136.859 -3.70303 136.292 -3.28474 135.874L26.2065 106.382C26.6226 105.966 27.1894 105.732 27.7791 105.732H39.6506C40.8802 105.732 41.8731 106.722 41.8731 107.949V119.82C41.8731 120.407 41.6348 120.974 41.2165 121.393L11.7253 150.884C11.3091 151.3 10.7423 151.534 10.1527 151.534Z" stroke="url(#paint11_linear_9435_7518)" stroke-width="0.920726"/>
<path d="M61.4276 99.5852H49.5559C48.3265 99.5852 47.3335 98.5964 47.3335 97.3699V85.4981C47.3335 84.9115 47.5718 84.3438 47.9901 83.9255L87.5353 44.3803C87.9515 43.9642 88.5183 43.7305 89.1079 43.7305H100.98C102.209 43.7305 103.202 44.7197 103.202 45.9462V57.8179C103.202 58.4044 102.964 58.9721 102.545 59.3904L63.0002 98.9352C62.5839 99.3513 62.0171 99.5852 61.4276 99.5852Z" stroke="url(#paint12_linear_9435_7518)" stroke-width="0.920726"/>
</g>
<defs>
<linearGradient id="paint0_linear_9435_7518" x1="-33.4687" y1="42.3906" x2="-33.4687" y2="141.446" gradientUnits="userSpaceOnUse">
<stop stop-color="#7233F7"/>
<stop offset="1" stop-color="#FF7262"/>
</linearGradient>
<linearGradient id="paint1_linear_9435_7518" x1="105.009" y1="73.3906" x2="105.009" y2="128.408" gradientUnits="userSpaceOnUse">
<stop stop-color="#7233F7"/>
<stop offset="1" stop-color="#FF7262"/>
</linearGradient>
<linearGradient id="paint2_linear_9435_7518" x1="39.0728" y1="25.9707" x2="39.0728" y2="71.7718" gradientUnits="userSpaceOnUse">
<stop stop-color="#7233F7"/>
<stop offset="1" stop-color="#FF7262"/>
</linearGradient>
<linearGradient id="paint3_linear_9435_7518" x1="163.409" y1="20.9395" x2="163.409" y2="66.7406" gradientUnits="userSpaceOnUse">
<stop stop-color="#7233F7"/>
<stop offset="1" stop-color="#FF7262"/>
</linearGradient>
<linearGradient id="paint4_linear_9435_7518" x1="121.344" y1="37.0312" x2="121.344" y2="73.1138" gradientUnits="userSpaceOnUse">
<stop stop-color="#7233F7"/>
<stop offset="1" stop-color="#FF7262"/>
</linearGradient>
<linearGradient id="paint5_linear_9435_7518" x1="35.1392" y1="153.795" x2="35.1392" y2="189.877" gradientUnits="userSpaceOnUse">
<stop stop-color="#7233F7"/>
<stop offset="1" stop-color="#FF7262"/>
</linearGradient>
<linearGradient id="paint6_linear_9435_7518" x1="125.874" y1="123.66" x2="125.874" y2="159.743" gradientUnits="userSpaceOnUse">
<stop stop-color="#7233F7"/>
<stop offset="1" stop-color="#FF7262"/>
</linearGradient>
<linearGradient id="paint7_linear_9435_7518" x1="126.54" y1="1" x2="126.54" y2="37.0824" gradientUnits="userSpaceOnUse">
<stop stop-color="#7233F7"/>
<stop offset="1" stop-color="#FF7262"/>
</linearGradient>
<linearGradient id="paint8_linear_9435_7518" x1="80.0948" y1="129.025" x2="80.0948" y2="182.928" gradientUnits="userSpaceOnUse">
<stop stop-color="#7233F7"/>
<stop offset="1" stop-color="#FF7262"/>
</linearGradient>
<linearGradient id="paint9_linear_9435_7518" x1="60.3516" y1="99.3594" x2="60.3516" y2="135.442" gradientUnits="userSpaceOnUse">
<stop stop-color="#7233F7"/>
<stop offset="1" stop-color="#FF7262"/>
</linearGradient>
<linearGradient id="paint10_linear_9435_7518" x1="24.3301" y1="70.2031" x2="24.3301" y2="116.005" gradientUnits="userSpaceOnUse">
<stop stop-color="#7233F7"/>
<stop offset="1" stop-color="#FF7262"/>
</linearGradient>
<linearGradient id="paint11_linear_9435_7518" x1="18.9658" y1="105.732" x2="18.9658" y2="151.534" gradientUnits="userSpaceOnUse">
<stop stop-color="#7233F7"/>
<stop offset="1" stop-color="#FF7262"/>
</linearGradient>
<linearGradient id="paint12_linear_9435_7518" x1="75.2677" y1="43.7305" x2="75.2677" y2="99.5852" gradientUnits="userSpaceOnUse">
<stop stop-color="#7233F7"/>
<stop offset="1" stop-color="#FF7262"/>
</linearGradient>
</defs>
</svg>
