<svg width="248" height="144" viewBox="0 0 248 144" fill="none" xmlns="http://www.w3.org/2000/svg">
<g opacity="0.4">
<path d="M1.65648 78.7867C1.23847 79.2047 1 79.7719 1 80.3593V92.2302C1 93.4566 1.99346 94.4464 3.22263 94.4464H15.0877C15.6772 94.4464 16.2441 94.2125 16.6603 93.7964L99.406 11.0506C99.8243 10.6323 100.063 10.0646 100.063 9.47801V-2.39356C100.063 -3.62015 99.0696 -4.60938 97.8401 -4.60938H85.9685C85.3789 -4.60938 84.8121 -4.3757 84.396 -3.95953L1.65648 78.7867ZM1.65648 78.7867L1.33238 78.4617" stroke="url(#paint0_linear_9435_7532)" stroke-width="0.920726"/>
<path d="M175.588 81.4077H163.717C162.487 81.4077 161.494 80.4179 161.494 79.1915V67.3197C161.494 66.7332 161.732 66.166 162.151 65.7471L200.857 27.0406C201.273 26.6244 201.841 26.3906 202.43 26.3906H214.302C215.532 26.3906 216.524 27.3799 216.524 28.6064V40.478C216.524 41.0647 216.286 41.6323 215.868 42.0506L177.161 80.7577C176.745 81.1738 176.178 81.4077 175.588 81.4077Z" stroke="url(#paint1_linear_9435_7532)" stroke-width="0.920726"/>
<path d="M114.26 24.7718H102.388C101.158 24.7718 100.166 23.7825 100.166 22.556V10.6844C100.166 10.0978 100.404 9.53015 100.822 9.11187L130.313 -20.3794C130.73 -20.7956 131.296 -21.0293 131.886 -21.0293H143.758C144.987 -21.0293 145.98 -20.0401 145.98 -18.8135V-6.94191C145.98 -6.35532 145.742 -5.7876 145.323 -5.36931L115.832 24.1219C115.416 24.5381 114.849 24.7718 114.26 24.7718Z" stroke="url(#paint2_linear_9435_7532)" stroke-width="0.920726"/>
<path d="M238.595 19.7406H226.724C225.494 19.7406 224.501 18.7513 224.501 17.5248V5.65322C224.501 5.06653 224.739 4.49891 225.158 4.08062L254.649 -25.4106C255.065 -25.8269 255.633 -26.0605 256.222 -26.0605H268.094C269.323 -26.0605 270.316 -25.0712 270.316 -23.8447V-11.9732C270.316 -11.3865 270.078 -10.8188 269.659 -10.4006L240.168 19.0907C239.752 19.5068 239.185 19.7406 238.595 19.7406Z" stroke="url(#paint3_linear_9435_7532)" stroke-width="0.920726"/>
<path d="M201.391 26.1138H189.519C188.29 26.1138 187.296 25.1244 187.296 23.8979V12.0264C187.296 11.4397 187.535 10.8721 187.953 10.4538L207.725 -9.31881C208.141 -9.73507 208.709 -9.96875 209.298 -9.96875H221.17C222.399 -9.96875 223.392 -8.97952 223.392 -7.75293V4.11864C223.392 4.70523 223.154 5.27295 222.736 5.69124L202.963 25.4638C202.547 25.88 201.98 26.1138 201.391 26.1138Z" stroke="url(#paint4_linear_9435_7532)" stroke-width="0.920726"/>
<path d="M115.185 142.877H103.314C102.084 142.877 101.091 141.888 101.091 140.662V128.79C101.091 128.204 101.33 127.636 101.748 127.218L121.52 107.445C121.937 107.029 122.504 106.795 123.093 106.795H134.965C136.194 106.795 137.187 107.784 137.187 109.01V120.882C137.187 121.469 136.949 122.037 136.531 122.455L116.758 142.227C116.342 142.643 115.775 142.877 115.185 142.877Z" stroke="url(#paint5_linear_9435_7532)" stroke-width="0.920726"/>
<path d="M205.921 112.742H194.049C192.82 112.742 191.826 111.754 191.826 110.527V98.6554C191.826 98.0689 192.065 97.5008 192.483 97.0828L212.255 77.3102C212.671 76.894 213.239 76.6602 213.828 76.6602H225.7C226.929 76.6602 227.922 77.649 227.922 78.8764V90.7473C227.922 91.3338 227.684 91.9019 227.266 92.3199L207.493 112.092C207.077 112.509 206.51 112.742 205.921 112.742Z" stroke="url(#paint6_linear_9435_7532)" stroke-width="0.920726"/>
<path d="M151.23 135.928H139.359C138.129 135.928 137.136 134.94 137.136 133.713V121.841C137.136 121.255 137.375 120.687 137.793 120.269L175.386 82.6754C175.802 82.2592 176.369 82.0254 176.959 82.0254H188.831C190.06 82.0254 191.053 83.0142 191.053 84.2406V96.1125C191.053 96.699 190.815 97.2671 190.396 97.6851L152.803 135.278C152.387 135.695 151.82 135.928 151.23 135.928Z" stroke="url(#paint7_linear_9435_7532)" stroke-width="0.920726"/>
<path d="M140.398 88.4417H128.526C127.297 88.4417 126.304 87.4528 126.304 86.2264V74.3546C126.304 73.7681 126.542 73.2 126.96 72.782L146.733 53.0094C147.149 52.5932 147.716 52.3594 148.305 52.3594H160.177C161.407 52.3594 162.4 53.3492 162.4 54.5756V66.4465C162.4 67.0339 162.161 67.6011 161.743 68.0191L141.97 87.7917C141.554 88.2078 140.987 88.4417 140.398 88.4417Z" stroke="url(#paint8_linear_9435_7532)" stroke-width="0.920726"/>
<path d="M99.517 69.0046H87.6454C86.4159 69.0046 85.4229 68.0148 85.4229 66.7884V54.9165C85.4229 54.33 85.6611 53.7629 86.0795 53.3439L115.571 23.8531C115.987 23.4368 116.554 23.2031 117.143 23.2031H129.015C130.244 23.2031 131.237 24.1924 131.237 25.4189V37.2905C131.237 37.8771 130.999 38.4448 130.581 38.8631L101.09 68.3545C100.673 68.7707 100.107 69.0046 99.517 69.0046Z" stroke="url(#paint9_linear_9435_7532)" stroke-width="0.920726"/>
<path d="M94.1527 104.534H82.2811C81.0516 104.534 80.0586 103.544 80.0586 102.318V90.4459C80.0586 89.8594 80.297 89.2922 80.7153 88.8742L110.206 59.3825C110.623 58.9663 111.189 58.7324 111.779 58.7324H123.651C124.88 58.7324 125.873 59.7222 125.873 60.9486V72.8205C125.873 73.407 125.635 73.9741 125.217 74.393L95.7253 103.884C95.3091 104.3 94.7423 104.534 94.1527 104.534Z" stroke="url(#paint10_linear_9435_7532)" stroke-width="0.920726"/>
<path d="M145.428 52.5852H133.556C132.326 52.5852 131.333 51.5964 131.333 50.3699V38.4981C131.333 37.9115 131.572 37.3438 131.99 36.9255L171.535 -2.61968C171.952 -3.03585 172.518 -3.26953 173.108 -3.26953H184.98C186.209 -3.26953 187.202 -2.2803 187.202 -1.0538V10.8179C187.202 11.4044 186.964 11.9721 186.545 12.3904L147 51.9352C146.584 52.3513 146.017 52.5852 145.428 52.5852Z" stroke="url(#paint11_linear_9435_7532)" stroke-width="0.920726"/>
</g>
<defs>
<linearGradient id="paint0_linear_9435_7532" x1="50.5313" y1="-4.60938" x2="50.5313" y2="94.4464" gradientUnits="userSpaceOnUse">
<stop stop-color="#7233F7"/>
<stop offset="1" stop-color="#FF7262"/>
</linearGradient>
<linearGradient id="paint1_linear_9435_7532" x1="189.009" y1="26.3906" x2="189.009" y2="81.4077" gradientUnits="userSpaceOnUse">
<stop stop-color="#7233F7"/>
<stop offset="1" stop-color="#FF7262"/>
</linearGradient>
<linearGradient id="paint2_linear_9435_7532" x1="123.073" y1="-21.0293" x2="123.073" y2="24.7718" gradientUnits="userSpaceOnUse">
<stop stop-color="#7233F7"/>
<stop offset="1" stop-color="#FF7262"/>
</linearGradient>
<linearGradient id="paint3_linear_9435_7532" x1="247.409" y1="-26.0605" x2="247.409" y2="19.7406" gradientUnits="userSpaceOnUse">
<stop stop-color="#7233F7"/>
<stop offset="1" stop-color="#FF7262"/>
</linearGradient>
<linearGradient id="paint4_linear_9435_7532" x1="205.344" y1="-9.96875" x2="205.344" y2="26.1138" gradientUnits="userSpaceOnUse">
<stop stop-color="#7233F7"/>
<stop offset="1" stop-color="#FF7262"/>
</linearGradient>
<linearGradient id="paint5_linear_9435_7532" x1="119.139" y1="106.795" x2="119.139" y2="142.877" gradientUnits="userSpaceOnUse">
<stop stop-color="#7233F7"/>
<stop offset="1" stop-color="#FF7262"/>
</linearGradient>
<linearGradient id="paint6_linear_9435_7532" x1="209.874" y1="76.6602" x2="209.874" y2="112.743" gradientUnits="userSpaceOnUse">
<stop stop-color="#7233F7"/>
<stop offset="1" stop-color="#FF7262"/>
</linearGradient>
<linearGradient id="paint7_linear_9435_7532" x1="164.095" y1="82.0254" x2="164.095" y2="135.928" gradientUnits="userSpaceOnUse">
<stop stop-color="#7233F7"/>
<stop offset="1" stop-color="#FF7262"/>
</linearGradient>
<linearGradient id="paint8_linear_9435_7532" x1="144.352" y1="52.3594" x2="144.352" y2="88.4417" gradientUnits="userSpaceOnUse">
<stop stop-color="#7233F7"/>
<stop offset="1" stop-color="#FF7262"/>
</linearGradient>
<linearGradient id="paint9_linear_9435_7532" x1="108.33" y1="23.2031" x2="108.33" y2="69.0046" gradientUnits="userSpaceOnUse">
<stop stop-color="#7233F7"/>
<stop offset="1" stop-color="#FF7262"/>
</linearGradient>
<linearGradient id="paint10_linear_9435_7532" x1="102.966" y1="58.7324" x2="102.966" y2="104.534" gradientUnits="userSpaceOnUse">
<stop stop-color="#7233F7"/>
<stop offset="1" stop-color="#FF7262"/>
</linearGradient>
<linearGradient id="paint11_linear_9435_7532" x1="159.268" y1="-3.26953" x2="159.268" y2="52.5852" gradientUnits="userSpaceOnUse">
<stop stop-color="#7233F7"/>
<stop offset="1" stop-color="#FF7262"/>
</linearGradient>
</defs>
</svg>
