<svg width="44" height="17" viewBox="0 0 44 17" fill="none" xmlns="http://www.w3.org/2000/svg">
<g id="Blinkit logo" clip-path="url(#clip0_11516_26619)">
<path id="Vector" d="M5.52822 2.88532C6.27164 2.88532 6.93546 3.07822 7.51963 3.46403C8.1091 3.84433 8.5711 4.38447 8.90563 5.08444C9.22957 5.75688 9.39154 6.54778 9.39154 7.45716C9.39154 8.33907 9.22957 9.12719 8.90563 9.82164C8.58169 10.5161 8.12504 11.059 7.53557 11.4503C6.94075 11.8472 6.27164 12.0456 5.52822 12.0456C4.98653 12.0456 4.47672 11.9299 3.99878 11.6984C3.52084 11.4669 3.11194 11.1417 2.77207 10.7228V11.8389H0V0H2.77207V4.19983C3.11194 3.78095 3.52084 3.45853 3.99878 3.23255C4.47672 3.00106 4.98653 2.88532 5.52822 2.88532ZM4.69976 9.65628C5.09274 9.65628 5.44323 9.56261 5.75123 9.37522C6.05923 9.18782 6.30084 8.92602 6.47613 8.58982C6.65137 8.25911 6.73899 7.8816 6.73899 7.45716C6.73899 7.04384 6.65137 6.66904 6.47613 6.33284C6.30084 5.99664 6.05923 5.73484 5.75123 5.54742C5.44323 5.36003 5.09274 5.26633 4.69976 5.26633C4.32803 5.26633 3.99613 5.36003 3.70405 5.54742C3.41198 5.72928 3.18362 5.98559 3.019 6.31629C2.85438 6.6525 2.77207 7.03279 2.77207 7.45716C2.77207 7.8816 2.85438 8.26189 3.019 8.59809C3.18362 8.9288 3.41198 9.18782 3.70405 9.37522C3.99613 9.56261 4.32803 9.65628 4.69976 9.65628Z" fill="black"/>
<path id="Vector_2" d="M9.771 11.8389V0H12.5431V11.8389H9.771Z" fill="black"/>
<path id="Vector_3" d="M13.3289 11.8392V3.08398H16.085V11.8392H13.3289Z" fill="black"/>
<path id="Vector_4" d="M22.0724 2.88574C22.6618 2.88574 23.1928 3.02904 23.6655 3.31564C24.1381 3.59674 24.5098 3.99357 24.7807 4.50615C25.0409 5.02424 25.171 5.61123 25.171 6.26713V11.8393H22.5264V6.91194C22.5264 6.59229 22.4653 6.30844 22.3432 6.06041C22.2264 5.80689 22.0591 5.61123 21.8413 5.47344C21.6289 5.33565 21.3793 5.26675 21.0926 5.26675C20.8217 5.26675 20.5722 5.33565 20.3438 5.47344C20.1154 5.60571 19.9375 5.78762 19.8101 6.0191C19.6773 6.23954 19.6109 6.49862 19.6109 6.79623L19.595 11.8393H16.8389V3.08416H19.595V4.08451C19.8552 3.70973 20.2031 3.41761 20.6385 3.20817C21.074 2.99322 21.5519 2.88574 22.0724 2.88574Z" fill="black"/>
<path id="Vector_5" d="M31.2618 6.91152L34.3923 11.8389H31.2618L29.4297 8.73862L28.5853 9.75551V11.8389H25.8132V0H28.5853V6.5395L31.2459 3.08374H34.3764L31.2618 6.91152Z" fill="black"/>
<path id="Vector_6" d="M13.3274 0.000976562H16.0926V2.24537H13.3274V0.000976562Z" fill="black"/>
<path id="Vector_7" d="M34.8323 11.8128V3.05762H37.5884V11.8128H34.8323Z" fill="#0C831F"/>
<path id="Vector_8" d="M43.4162 9.34069L43.9659 11.1843C43.7163 11.4324 43.4003 11.6335 43.018 11.7878C42.641 11.9422 42.2719 12.0193 41.9107 12.0193C41.3903 12.0193 40.9257 11.9008 40.5167 11.6638C40.1078 11.4213 39.7892 11.0851 39.5608 10.6552C39.3325 10.2364 39.2183 9.75407 39.2183 9.20843V5.34756H38.1111V3.0575H39.2183V0.000976562H41.8629V3.0575H43.6074V5.34756H41.8629V8.67933C41.8629 8.9604 41.9347 9.18916 42.078 9.36551C42.2214 9.54191 42.4046 9.63008 42.6276 9.63008C42.787 9.63008 42.9357 9.60526 43.0737 9.55568C43.2118 9.50604 43.326 9.43441 43.4162 9.34069Z" fill="#0C831F"/>
<path id="Vector_9" d="M34.8105 0.000976562H37.5757V2.24537H34.8105V0.000976562Z" fill="#0C831F"/>
<path id="Vector_10" d="M17.9094 14.0743V14.3387H18.3872V14.5521H17.9094V16.2701H17.6862V14.5521H17.384V14.3387H17.6862V14.0743C17.6862 13.9807 17.7044 13.8968 17.7407 13.8226C17.7782 13.7472 17.8303 13.6877 17.8971 13.6439C17.9627 13.6013 18.0364 13.5801 18.1184 13.5801C18.2438 13.5801 18.3586 13.6214 18.4628 13.7041L18.3486 13.8755C18.2947 13.8208 18.2227 13.7934 18.1325 13.7934C18.0903 13.7934 18.0523 13.8056 18.0183 13.8299C17.9844 13.8542 17.9574 13.8877 17.9375 13.9302C17.9187 13.9728 17.9094 14.0208 17.9094 14.0743Z" fill="#232323"/>
<path id="Vector_11" d="M19.6416 16.3157C19.4729 16.3157 19.3136 16.2694 19.1637 16.177C19.0149 16.0846 18.8972 15.96 18.8105 15.8032C18.7215 15.6524 18.677 15.4858 18.677 15.3035C18.677 15.1247 18.7203 14.9581 18.807 14.8037C18.8937 14.6481 19.0126 14.5241 19.1637 14.4317C19.3089 14.3405 19.4682 14.2949 19.6416 14.2949C19.8102 14.2949 19.9683 14.3405 20.116 14.4317C20.2647 14.5216 20.3836 14.6451 20.4726 14.8019C20.5593 14.9575 20.6026 15.1247 20.6026 15.3035C20.6026 15.481 20.5593 15.6481 20.4726 15.805C20.3859 15.9606 20.2688 16.0846 20.1212 16.177C19.976 16.2694 19.8161 16.3157 19.6416 16.3157ZM19.6416 16.1022C19.7704 16.1022 19.891 16.0664 20.0035 15.9946C20.116 15.9217 20.2055 15.8232 20.2723 15.6992C20.3367 15.574 20.3689 15.4421 20.3689 15.3035C20.3689 15.1624 20.3361 15.0311 20.2706 14.9095C20.2061 14.7867 20.1177 14.6889 20.0052 14.6159C19.8904 14.543 19.7693 14.5065 19.6416 14.5065C19.5115 14.5065 19.3903 14.5423 19.2779 14.6141C19.1654 14.6858 19.077 14.783 19.0126 14.9058C18.9447 15.0275 18.9106 15.16 18.9106 15.3035C18.9106 15.4445 18.9435 15.5764 19.0091 15.6992C19.0746 15.822 19.1643 15.9199 19.2779 15.9928C19.3926 16.0658 19.5139 16.1022 19.6416 16.1022Z" fill="#232323"/>
<path id="Vector_12" d="M21.2966 14.3387V14.7344C21.3306 14.6469 21.3827 14.5703 21.453 14.5046C21.5244 14.4378 21.6087 14.3861 21.706 14.3496C21.8032 14.3132 21.9069 14.2949 22.017 14.2949V14.5065C21.8799 14.5065 21.7569 14.5356 21.648 14.594C21.5391 14.6524 21.453 14.7332 21.3897 14.8365C21.3277 14.9411 21.2966 15.0591 21.2966 15.1904V16.27H21.0735V14.3387H21.2966Z" fill="#232323"/>
<path id="Vector_13" d="M24.3697 14.2949C24.4938 14.2949 24.6057 14.3259 24.7052 14.3879C24.8048 14.4499 24.8827 14.5369 24.9389 14.6487C24.994 14.7691 25.0215 14.8962 25.0215 15.0299V16.27H24.7984V15.0591C24.7984 14.9533 24.779 14.8585 24.7404 14.7745C24.7017 14.6894 24.6473 14.6232 24.577 14.5758C24.5055 14.5296 24.4259 14.5065 24.3381 14.5065C24.2373 14.5065 24.1471 14.5283 24.0675 14.5721C23.989 14.6159 23.9275 14.6779 23.883 14.7582C23.8385 14.8372 23.8162 14.9278 23.8162 15.0299V16.27H23.5931V15.0591C23.5931 14.9533 23.5738 14.8585 23.5351 14.7745C23.4965 14.6894 23.4426 14.6232 23.3735 14.5758C23.3044 14.5296 23.2253 14.5065 23.1363 14.5065C23.0356 14.5065 22.9454 14.5283 22.8657 14.5721C22.7872 14.6159 22.7258 14.6779 22.6812 14.7582C22.6367 14.8372 22.6145 14.9278 22.6145 15.0299V16.27H22.3914V14.3387H22.6145V14.6232C22.659 14.5198 22.7299 14.4396 22.8271 14.3825C22.9243 14.3241 23.0367 14.2949 23.1644 14.2949C23.3014 14.2949 23.4221 14.332 23.5264 14.4062C23.6306 14.4791 23.7079 14.5813 23.7583 14.7126C23.7829 14.6299 23.8244 14.5569 23.883 14.4937C23.9427 14.4305 24.0154 14.3812 24.1009 14.346C24.184 14.3119 24.2736 14.2949 24.3697 14.2949Z" fill="#232323"/>
<path id="Vector_14" d="M26.3988 16.1022C26.5182 16.1022 26.6354 16.0804 26.7502 16.0366C26.8649 15.9916 26.954 15.9326 27.0172 15.8597L27.1577 16.0166C27.1086 16.0737 27.0418 16.1254 26.9575 16.1716C26.8743 16.2165 26.7829 16.2518 26.6834 16.2773C26.585 16.3028 26.4901 16.3157 26.3988 16.3157C26.2348 16.3157 26.0807 16.2713 25.9367 16.1825C25.7938 16.0926 25.6801 15.9697 25.5959 15.8141C25.5092 15.6585 25.4658 15.487 25.4658 15.2998C25.4658 15.1174 25.5068 14.949 25.5888 14.7946C25.6708 14.6402 25.7833 14.5168 25.9261 14.4244C26.069 14.338 26.2219 14.2949 26.3847 14.2949C26.5628 14.2949 26.7179 14.3399 26.8503 14.4298C26.9838 14.5186 27.0875 14.6463 27.1613 14.8129C27.2304 14.9843 27.2649 15.1788 27.2649 15.3965H25.6925C25.7054 15.529 25.744 15.6494 25.8084 15.7575C25.874 15.8658 25.9578 15.9496 26.0597 16.0093C26.1616 16.0713 26.2746 16.1022 26.3988 16.1022ZM26.3917 14.5065C26.2722 14.5065 26.1622 14.535 26.0614 14.5922C25.9619 14.6493 25.8799 14.729 25.8155 14.8311C25.7522 14.9332 25.7123 15.0506 25.696 15.1831H27.0418C27.0324 15.0481 27.0002 14.9296 26.9452 14.8275C26.8901 14.7253 26.8151 14.6463 26.7203 14.5904C26.6266 14.5345 26.5171 14.5065 26.3917 14.5065Z" fill="#232323"/>
<path id="Vector_15" d="M27.959 14.3387V14.7344C27.9929 14.6469 28.045 14.5703 28.1154 14.5046C28.1868 14.4378 28.2711 14.3861 28.3683 14.3496C28.4656 14.3132 28.5692 14.2949 28.6793 14.2949V14.5065C28.5423 14.5065 28.4193 14.5356 28.3103 14.594C28.2014 14.6524 28.1154 14.7332 28.0521 14.8365C27.99 14.9411 27.959 15.0591 27.959 15.1904V16.27H27.7358V14.3387H27.959Z" fill="#232323"/>
<path id="Vector_16" d="M29.0537 16.2698V13.6582H29.2768V16.2698H29.0537Z" fill="#232323"/>
<path id="Vector_17" d="M30.0674 16.9422C29.9667 16.9422 29.8682 16.921 29.7722 16.8784L29.8302 16.6723C29.8981 16.71 29.9748 16.7288 30.0603 16.7288C30.1306 16.7288 30.1898 16.7143 30.2378 16.6851C30.287 16.6559 30.3286 16.6109 30.3625 16.5501L30.4733 16.2984L29.6562 14.3379H29.9022L30.5892 16.023L31.241 14.3379H31.4817L30.6243 16.5082C30.5681 16.6553 30.4943 16.7635 30.4029 16.8328C30.3128 16.9033 30.2009 16.9398 30.0674 16.9422Z" fill="#232323"/>
<path id="Vector_18" d="M35.1282 15.1628V16.139H34.6372L34.6333 14.0488H35.1279V14.2653C35.1508 14.2253 35.2955 14.0281 35.7064 14.0523V14.555C35.7064 14.555 35.1508 14.5108 35.1279 15.1103C35.1282 15.1103 35.1282 15.1466 35.1282 15.1628Z" fill="black"/>
<path id="Vector_19" d="M41.6736 15.1628V16.139H41.1826L41.1787 14.0488H41.6736V14.2653C41.6965 14.2253 41.8412 14.0281 42.2522 14.0523V14.555C42.2522 14.555 41.6965 14.5108 41.6736 15.1103C41.6736 15.1103 41.6736 15.1466 41.6736 15.1628Z" fill="black"/>
<path id="Vector_20" d="M37.4669 15.8671C37.2687 16.0768 37.023 16.1814 36.7374 16.1814C36.448 16.1814 36.2063 16.0768 36.008 15.8671C35.8097 15.6575 35.7107 15.402 35.7107 15.0961C35.7107 14.7901 35.8097 14.5346 36.008 14.325C36.2063 14.1154 36.448 14.0107 36.7374 14.0107C37.0269 14.0107 37.2687 14.1154 37.4669 14.325C37.6652 14.5346 37.7681 14.7901 37.7681 15.0961C37.7684 15.402 37.6652 15.6575 37.4669 15.8671ZM36.3608 15.5025C36.4598 15.6071 36.5869 15.6617 36.7374 15.6617C36.8881 15.6617 37.0151 15.6071 37.1141 15.5025C37.2131 15.3979 37.2647 15.2594 37.2647 15.0961C37.2647 14.9327 37.2131 14.7943 37.1141 14.6896C37.0148 14.585 36.8881 14.5304 36.7374 14.5304C36.5869 14.5304 36.464 14.585 36.3608 14.6896C36.2615 14.7943 36.2102 14.9327 36.2102 15.0961C36.2102 15.2594 36.2615 15.3975 36.3608 15.5025Z" fill="black"/>
<path id="Vector_21" d="M39.4937 15.315C39.5609 15.5743 39.7429 15.6996 40.0395 15.6996C40.2293 15.6996 40.3757 15.6327 40.4747 15.4949L40.8781 15.7418C40.6883 16.0346 40.4034 16.181 40.0314 16.181C39.7109 16.181 39.4538 16.0764 39.2598 15.8716C39.066 15.6668 38.967 15.4075 38.967 15.0936C38.967 14.7842 39.0621 14.5249 39.2558 14.3201C39.4456 14.1153 39.6949 14.0107 39.9957 14.0107C40.2806 14.0107 40.5139 14.1153 40.7001 14.3243C40.886 14.5335 40.9771 14.7884 40.9771 15.0978C40.9771 15.1648 40.9693 15.2401 40.9572 15.3153H39.4937V15.315ZM39.4858 14.901H40.4747C40.4469 14.7628 40.3878 14.6586 40.2966 14.5874C40.2055 14.5204 40.1068 14.4828 39.9921 14.4828C39.8576 14.4828 39.7468 14.5204 39.66 14.5916C39.5727 14.671 39.5133 14.7714 39.4858 14.901Z" fill="black"/>
<path id="Vector_22" d="M42.9579 14.6455C42.9579 14.6997 42.9935 14.746 43.0608 14.7795C43.1281 14.813 43.2111 14.8423 43.31 14.8717C43.4091 14.8969 43.508 14.9304 43.607 14.9722C43.706 15.014 43.789 15.0768 43.8563 15.1731C43.9236 15.2653 43.9592 15.3824 43.9592 15.5247C43.9592 15.7339 43.8841 15.8969 43.7334 16.0098C43.5832 16.1228 43.3969 16.1815 43.1755 16.1815C42.7756 16.1815 42.5025 16.0181 42.3601 15.6918L42.7955 15.4324C42.8511 15.6124 42.9814 15.7001 43.1755 15.7001C43.3535 15.7001 43.4447 15.6414 43.4447 15.5243C43.4447 15.4698 43.4091 15.4238 43.3418 15.3903C43.2744 15.3568 43.1915 15.3234 43.0925 15.2981C42.9935 15.2688 42.8945 15.2353 42.7955 15.1935C42.6965 15.1517 42.6136 15.0889 42.5463 14.997C42.479 14.9093 42.4434 14.7961 42.4434 14.6625C42.4434 14.4615 42.5146 14.2985 42.657 14.1855C42.7995 14.0685 42.9736 14.0098 43.1833 14.0098C43.3418 14.0098 43.4842 14.0474 43.6149 14.1227C43.7455 14.198 43.8484 14.3068 43.9236 14.4449L43.4962 14.6918C43.4329 14.5537 43.33 14.4825 43.1837 14.4825C43.1203 14.4825 43.065 14.4991 43.0213 14.5284C42.9817 14.5533 42.9579 14.5951 42.9579 14.6455Z" fill="black"/>
<path id="Vector_23" d="M34.3983 14.049H33.9116L33.9119 14.2096C33.7411 14.0783 33.547 14.0127 33.3219 14.0127H33.3181C33.3102 14.0127 33.3023 14.0127 33.2909 14.0127C33.0851 14.0127 32.9028 14.07 32.7473 14.1892C32.4794 14.3735 32.3047 14.6937 32.3047 15.059C32.3047 15.1823 32.324 15.3011 32.3628 15.4078C32.4096 15.5638 32.4909 15.7075 32.6075 15.8304C32.8016 16.0355 33.0384 16.1381 33.3219 16.1381C33.547 16.1381 33.745 16.0725 33.9119 15.9413V16.0235C33.9119 16.1837 33.8652 16.3108 33.776 16.3971C33.6869 16.4834 33.5624 16.5283 33.4033 16.5283C33.1625 16.5283 32.9917 16.434 32.8946 16.241L32.4677 16.4996C32.553 16.6637 32.6774 16.7869 32.8365 16.8732C32.9956 16.9596 33.1782 17.0003 33.3879 17.0003C33.6676 17.0003 33.9044 16.9182 34.1024 16.75C34.3004 16.5818 34.3974 16.3398 34.3974 16.0235L34.3983 14.049ZM32.9492 15.4696C32.8561 15.367 32.8094 15.2358 32.8094 15.0756C32.8094 14.9153 32.8597 14.78 32.957 14.6775C33.0541 14.5749 33.1782 14.5213 33.3259 14.5213C33.4735 14.5213 33.5977 14.5745 33.6947 14.6775C33.7917 14.78 33.8423 14.9153 33.8423 15.0756C33.8423 15.2354 33.7921 15.3712 33.6947 15.4737C33.5977 15.5763 33.4735 15.6298 33.3259 15.6298C33.3027 15.6298 33.2831 15.6298 33.2599 15.6257C33.1354 15.6091 33.0306 15.5514 32.9492 15.4696Z" fill="black"/>
<path id="Vector_24" d="M38.0492 14.5748L38.0566 16.1398H38.5476L38.5402 14.5748H38.9469V14.05H38.5476C38.5672 13.8379 38.7002 13.7378 38.9472 13.7578V13.2633C38.6502 13.2433 38.4258 13.3075 38.2775 13.4564C38.1377 13.5921 38.0655 13.7913 38.0534 14.05H37.7744V14.5745L38.0492 14.5748Z" fill="black"/>
</g>
<defs>
<clipPath id="clip0_11516_26619">
<rect width="44" height="17" fill="white"/>
</clipPath>
</defs>
</svg>
