<svg width="42" height="30" viewBox="0 0 42 30" fill="none" xmlns="http://www.w3.org/2000/svg">
<g id="myntra-2 logo" clip-path="url(#clip0_11516_26656)">
<path id="Vector" d="M8.96398 2.94952C9.78315 1.94185 10.6725 0.8622 11.9364 0.454333C13.3524 0.070458 14.5577 1.21009 15.4471 2.18177C17.7759 4.91688 19.4728 8.14383 21.0526 11.3828C21.9069 9.41541 22.9718 7.54402 24.0718 5.72062C25.125 4.06516 26.2133 2.3857 27.7347 1.12611C28.4368 0.574294 29.4081 0.0464658 30.2858 0.514313C31.5263 1.18609 32.4624 2.30173 33.3401 3.39337C35.2008 5.85257 36.6636 8.59968 37.986 11.3948C39.636 14.9936 41.0637 18.7484 41.6606 22.6951C41.8361 24.5185 41.9999 26.5698 40.9233 28.1653C40.0924 29.4129 38.5126 29.8448 37.1083 29.5928C35.8913 29.149 34.8263 28.3332 34.0306 27.3016C32.1348 24.9024 31.0113 21.9993 29.9698 19.1322C29.8177 18.6284 29.6305 18.1366 29.4666 17.6447C29.3613 18.1486 29.2209 18.6524 29.057 19.1442C27.9921 22.0473 26.857 25.0103 24.9027 27.4215C24.1186 28.4052 23.0888 29.161 21.9186 29.5928C20.2334 29.9527 18.6068 29.053 17.5184 27.7814C15.3886 25.4062 14.2067 22.3352 13.1183 19.3482C12.9077 18.7364 12.6971 18.1246 12.5449 17.4888C12.3694 18.1246 12.1587 18.7604 11.9364 19.3722C10.9534 22.1193 9.82996 24.8904 8.05119 27.2056C7.07989 28.3932 5.81602 29.5568 4.2362 29.6408C2.77339 29.7728 1.3574 28.8011 0.795685 27.4335C-8.03769e-05 25.5382 0.233968 23.4029 0.585041 21.4235C1.3457 17.6447 2.74999 14.0339 4.41173 10.591C5.6873 7.9159 7.1384 5.30075 8.96398 2.94952ZM9.79485 3.78925C7.99268 6.14048 6.55328 8.77962 5.26601 11.4547C3.66278 14.9216 2.21168 18.5324 1.59145 22.3352C1.3691 23.3909 1.3691 24.4825 1.47443 25.5502C1.60315 26.5578 1.98933 27.6375 2.89042 28.1533C3.7564 28.6691 4.86813 28.4652 5.65219 27.8894C7.05648 26.8817 7.99268 25.3462 8.80014 23.8227C10.5321 20.4278 11.6672 16.745 12.5215 13.0382C13.4343 16.841 14.5811 20.6318 16.4067 24.0986C17.1323 25.3822 17.8929 26.7138 19.0749 27.6015C19.6717 28.1533 20.4558 28.5372 21.2749 28.4412C22.1877 28.3452 22.9484 27.7454 23.592 27.1096C24.6803 25.958 25.4761 24.5425 26.1782 23.1269C27.6762 19.984 28.706 16.6251 29.5134 13.2422C30.5198 17.3448 31.772 21.4595 33.9252 25.1063C34.7327 26.3779 35.6806 27.6975 37.0966 28.2973C38.0913 28.7171 39.3552 28.3452 39.9286 27.3976C40.619 26.2579 40.6775 24.8424 40.5722 23.5468C40.4318 21.4475 39.835 19.4082 39.1796 17.4168C37.869 13.5781 36.1487 9.88326 34.054 6.44038C33.0827 4.90488 32.0763 3.35739 30.7188 2.13379C30.239 1.70193 29.5251 1.28206 28.9166 1.71392C27.7464 2.44568 26.9389 3.6093 26.1197 4.71294C24.1303 7.616 22.492 10.783 21.1462 14.0459C21.1111 14.0939 21.0175 14.1899 20.9824 14.2378C20.8653 13.866 20.7483 13.5061 20.5962 13.1462C19.2153 10.0872 17.6823 7.07617 15.728 4.36506C15.0609 3.46535 14.3705 2.55365 13.4694 1.89386C13.0832 1.61795 12.5683 1.36604 12.1119 1.60596C11.1406 2.06181 10.4619 2.96152 9.79485 3.78925Z" fill="#FEFEFE"/>
<path id="Vector_2" d="M9.79497 3.79001C10.462 2.96228 11.1524 2.07457 12.1237 1.61872C12.5801 1.3788 13.0951 1.61872 13.4812 1.90662C14.3823 2.56641 15.0728 3.49011 15.7398 4.37782C17.6824 7.10093 19.2271 10.1 20.608 13.159C20.7718 13.5068 20.8889 13.8787 20.9942 14.2506C19.192 11.1196 17.5537 7.86868 15.3068 5.0376C14.6515 4.24586 13.961 3.40613 13.0131 2.98627C12.4748 2.74635 11.9248 3.05825 11.4801 3.35815C9.86518 4.7497 8.67154 6.56111 7.5481 8.36052C4.90335 12.6791 2.91394 17.4176 1.60327 22.336C2.2235 18.5332 3.6629 14.9224 5.27783 11.4555C6.5534 8.78038 7.99279 6.14124 9.79497 3.79001ZM28.9167 1.70269C29.5253 1.27083 30.2391 1.69069 30.7189 2.12255C32.0764 3.33416 33.0828 4.88165 34.0541 6.42915C36.1488 9.88402 37.8808 13.5668 39.1798 17.4056C39.8351 19.3969 40.4319 21.4243 40.5723 23.5356C40.35 22.072 39.9755 20.6325 39.4957 19.241C38.2553 15.4142 36.535 11.7434 34.452 8.32453C33.5392 6.86101 32.5679 5.40948 31.3976 4.16189C30.9295 3.68204 30.4263 3.17821 29.7827 2.96228C29.2795 2.80633 28.8231 3.16621 28.4135 3.41813C27.3252 4.29384 26.4826 5.42148 25.6752 6.56111C24.2475 8.63643 22.9719 10.8197 21.8251 13.063C21.6378 13.4229 21.4038 13.7588 21.1463 14.0587C22.4921 10.7837 24.1304 7.62876 26.1198 4.7257C26.939 3.61007 27.7582 2.43445 28.9167 1.70269Z" fill="#9E242E"/>
<path id="Vector_3" d="M11.4802 3.35756C11.9249 3.05765 12.4749 2.74575 13.0132 2.98568C13.9611 3.40554 14.6515 4.24527 15.3069 5.03701C17.5537 7.86808 19.1921 11.119 20.9825 14.25C19.8591 17.5249 18.525 20.8119 18.4431 24.3267C18.3846 25.4543 18.6772 26.558 19.0868 27.6017C17.9048 26.7139 17.1325 25.3824 16.4186 24.0988C14.6047 20.6319 13.4462 16.8532 12.5334 13.0384C11.8781 9.87143 11.2695 6.63249 11.4802 3.35756Z" fill="#FF912E"/>
<path id="Vector_4" d="M28.4252 3.40584C28.8348 3.15392 29.2912 2.79404 29.7944 2.94999C30.4381 3.16592 30.9413 3.66975 31.4094 4.1496C32.5796 5.40919 33.5509 6.84872 34.4637 8.31224C36.5467 11.7311 38.267 15.4019 39.5074 19.2287C39.9989 20.6202 40.3617 22.0598 40.5841 23.5233C40.6894 24.8189 40.6309 26.2344 39.9404 27.374C39.367 28.3337 38.1149 28.6936 37.1084 28.2737C35.6924 27.6859 34.7446 26.3544 33.9371 25.0828C31.7838 21.448 30.5317 17.3333 29.5253 13.2186C28.8465 10.0157 28.2146 6.72876 28.4252 3.40584ZM7.54812 8.36023C8.67155 6.56081 9.8652 4.7494 11.4801 3.35786C11.2695 6.62079 11.878 9.87173 12.5451 13.0387C11.6908 16.7575 10.5439 20.4283 8.82368 23.8232C8.01621 25.3467 7.08002 26.8822 5.67573 27.8899C4.89167 28.4657 3.77994 28.6696 2.91396 28.1538C2.01287 27.6379 1.62669 26.5463 1.49796 25.5506C1.38094 24.483 1.39264 23.3913 1.61499 22.3357C2.90225 17.4173 4.90337 12.6788 7.54812 8.36023Z" fill="#F41CB2"/>
<path id="Vector_5" d="M25.6868 6.54922C26.4943 5.4096 27.3369 4.28196 28.4252 3.40625C28.2145 6.71717 28.8465 10.0161 29.5369 13.231C28.7294 16.6259 27.6879 19.9728 26.2017 23.1158C25.4996 24.5434 24.7038 25.9469 23.6155 27.0985C22.9836 27.7343 22.2112 28.3341 21.2984 28.4301C20.4792 28.5261 19.6952 28.1422 19.0984 27.5904C18.6888 26.5467 18.3962 25.4431 18.4547 24.3154C18.5366 20.8006 19.8707 17.5017 20.9941 14.2387C21.0293 14.1907 21.1229 14.0948 21.158 14.0468C21.4154 13.7349 21.6495 13.411 21.8367 13.0511C22.9953 10.8078 24.2591 8.62455 25.6868 6.54922Z" fill="#F25511"/>
</g>
<defs>
<clipPath id="clip0_11516_26656">
<rect width="42" height="30" fill="white"/>
</clipPath>
</defs>
</svg>
