<svg width="20" height="30" viewBox="0 0 20 30" fill="none" xmlns="http://www.w3.org/2000/svg">
<g id="swiggy-1 logo" clip-path="url(#clip0_11516_26606)">
<path id="Vector" d="M10.0195 29.9992C10.0005 29.9854 9.97995 29.9668 9.95782 29.9481C9.60521 29.5001 7.42397 26.7001 5.20162 23.1085C4.53436 21.9645 4.10191 21.0716 4.18571 20.8407C4.40312 20.2404 8.27781 19.9114 9.47081 20.4559C9.83369 20.6212 9.82421 20.8391 9.82421 20.9671C9.82421 21.5164 9.79811 22.991 9.79811 22.991C9.79811 23.2956 10.0392 23.5427 10.3373 23.5419C10.6354 23.5419 10.8757 23.2932 10.8749 22.9877L10.8694 19.3151H10.8686C10.8686 18.9959 10.5286 18.9165 10.4654 18.9035C9.84239 18.8995 8.57823 18.8962 7.22 18.8962C4.22366 18.8962 3.55324 19.0226 3.04568 18.6807C1.9428 17.9418 0.139465 12.9607 0.0975633 10.1574C0.038269 6.20368 2.32308 2.7806 5.54236 1.08485C6.88637 0.391325 8.4043 0 10.0092 0C15.1038 0 19.3002 3.9408 19.8584 9.01183C19.8584 9.01588 19.8584 9.02155 19.8592 9.0256C19.962 10.2514 13.3692 10.5115 12.0655 10.155C11.8655 10.1007 11.8149 9.89008 11.8149 9.80015C11.8141 8.86842 11.8078 6.245 11.8078 6.245C11.807 5.93956 11.5651 5.69326 11.267 5.69326C10.9698 5.69326 10.7286 5.94199 10.7286 6.24744L10.7405 11.0795C10.75 11.3841 10.999 11.4659 11.0678 11.4805C11.8094 11.4805 13.5431 11.4797 15.1583 11.4797C17.3411 11.4797 18.2582 11.739 18.8686 12.2145C19.2741 12.5313 19.4307 13.1382 19.2939 13.9273C18.0693 20.9436 10.3136 29.6378 10.0219 30L10.0195 29.9992Z" fill="white"/>
</g>
<defs>
<clipPath id="clip0_11516_26606">
<rect width="20" height="30" fill="white"/>
</clipPath>
</defs>
</svg>
