<svg width="41" height="14" viewBox="0 0 41 14" fill="none" xmlns="http://www.w3.org/2000/svg">
<g id="Uber logo" clip-path="url(#clip0_11516_26611)">
<g id="Group">
<path id="Vector" d="M2.35887 9.99862C2.53213 10.4509 2.772 10.8376 3.07854 11.1587C3.38508 11.4799 3.74823 11.7257 4.168 11.8961C4.58782 12.0665 5.04426 12.1517 5.53737 12.1517C6.01717 12.1517 6.46693 12.0632 6.88675 11.8862C7.30657 11.7092 7.67304 11.4602 7.98621 11.1391C8.29938 10.8179 8.54262 10.4345 8.71588 9.98879C8.88914 9.54309 8.97575 9.045 8.97575 8.4944V0H11.0747V13.7641H8.99575V12.486C8.52931 12.9709 7.97953 13.3445 7.34651 13.6068C6.71345 13.8689 6.03049 14 5.2975 14C4.55115 14 3.85483 13.8722 3.20845 13.6166C2.56212 13.3609 2.00235 12.9972 1.52927 12.5253C1.0562 12.0533 0.683004 11.4865 0.40982 10.8245C0.136592 10.1625 0 9.42514 0 8.61236V0H2.099V8.4944C2.099 9.045 2.18561 9.54635 2.35887 9.99862Z" fill="white"/>
<path id="Vector_2" d="M14.6929 0V5.01404C15.1593 4.55524 15.6991 4.19151 16.3121 3.92276C16.9251 3.65401 17.5915 3.51966 18.3111 3.51966C19.0575 3.51966 19.7571 3.65727 20.4101 3.93255C21.0631 4.20783 21.6295 4.58143 22.1093 5.05337C22.5891 5.52531 22.9689 6.08239 23.2488 6.7247C23.5286 7.36706 23.6686 8.04871 23.6686 8.76968C23.6686 9.49062 23.5286 10.169 23.2488 10.8047C22.9689 11.4405 22.5891 11.9944 22.1093 12.4662C21.6295 12.9382 21.0631 13.3118 20.4101 13.5871C19.7571 13.8623 19.0574 14 18.3111 14C17.5915 14 16.9218 13.8656 16.3021 13.5969C15.6824 13.3281 15.1393 12.9644 14.6729 12.5056V13.764H12.6738V0H14.6929ZM14.9227 10.1264C15.1026 10.5459 15.3525 10.9129 15.6724 11.2276C15.9922 11.5422 16.3654 11.7913 16.7918 11.9748C17.2183 12.1583 17.6781 12.25 18.1712 12.25C18.651 12.25 19.1041 12.1583 19.5305 11.9748C19.957 11.7913 20.3268 11.5422 20.64 11.2276C20.9532 10.913 21.2031 10.5459 21.3897 10.1264C21.5762 9.70694 21.6695 9.25471 21.6695 8.76968C21.6695 8.28465 21.5762 7.82912 21.3897 7.40308C21.2031 6.97705 20.9532 6.60675 20.64 6.29214C20.3268 5.97758 19.957 5.73175 19.5305 5.5548C19.104 5.37786 18.651 5.28932 18.1712 5.28932C17.6915 5.28932 17.2383 5.37781 16.8119 5.5548C16.3854 5.7318 16.0123 5.97758 15.6924 6.29214C15.3726 6.60675 15.1193 6.97705 14.9328 7.40308C14.7462 7.82912 14.6529 8.28465 14.6529 8.76968C14.6529 9.25471 14.7428 9.70694 14.9227 10.1264Z" fill="white"/>
<path id="Vector_3" d="M24.8079 6.74406C25.0744 6.11485 25.441 5.56103 25.9074 5.08257C26.3738 4.6041 26.9269 4.22723 27.5666 3.95196C28.2063 3.67668 28.8993 3.53906 29.6456 3.53906C30.3786 3.53906 31.0583 3.67015 31.6847 3.93229C32.311 4.19447 32.8508 4.55825 33.3039 5.02361C33.757 5.48893 34.1102 6.03953 34.3634 6.67528C34.6166 7.31107 34.7432 8.00254 34.7432 8.74976V9.39864H26.4472C26.5138 9.80501 26.6471 10.1819 26.847 10.5292C27.0469 10.8766 27.2968 11.1781 27.5966 11.4337C27.8965 11.6894 28.2363 11.8893 28.6161 12.0334C28.996 12.1776 29.3991 12.2497 29.8256 12.2497C31.0384 12.2497 32.0179 11.7581 32.7642 10.775L34.2235 11.8368C33.7171 12.5053 33.0907 13.0297 32.3444 13.4098C31.5981 13.7899 30.7585 13.98 29.8256 13.98C29.066 13.98 28.3563 13.8489 27.6966 13.5868C27.0369 13.3246 26.4639 12.9575 25.9775 12.4856C25.491 12.0137 25.1079 11.4599 24.828 10.8241C24.5482 10.1884 24.4082 9.49684 24.4082 8.74967C24.4081 8.04183 24.5414 7.37328 24.8079 6.74406ZM27.6166 5.96735C27.0502 6.43272 26.6737 7.0521 26.4872 7.82551H32.7042C32.531 7.0521 32.1611 6.43272 31.5947 5.96735C31.0283 5.50203 30.3653 5.26935 29.6057 5.26935C28.846 5.26935 28.183 5.50203 27.6166 5.96735Z" fill="white"/>
<path id="Vector_4" d="M38.5211 6.19377C38.0946 6.65256 37.8814 7.27521 37.8814 8.06175V13.7641H35.8623V3.73593H37.8613V4.9747C38.1146 4.56834 38.4444 4.24716 38.8509 4.01121C39.2573 3.77522 39.7404 3.65723 40.3002 3.65723H40.9999V5.50555H40.1603C39.4939 5.50559 38.9475 5.73497 38.5211 6.19377Z" fill="white"/>
</g>
</g>
<defs>
<clipPath id="clip0_11516_26611">
<rect width="41" height="14" fill="white"/>
</clipPath>
</defs>
</svg>
