<svg width="45" height="9" viewBox="0 0 45 9" fill="none" xmlns="http://www.w3.org/2000/svg">
<g id="Zomato logo" clip-path="url(#clip0_11516_26671)">
<path id="Vector" d="M6.86685 2.27148L6.82637 3.48742L3.43305 6.93465C4.8505 6.93465 5.7493 6.92171 6.2676 6.8948C6.11738 7.54901 5.99522 8.08384 5.87217 8.88567C5.19052 8.83187 4.12784 8.81842 3.06461 8.81842C1.87942 8.81842 0.843536 8.8317 0.012207 8.88567L0.039912 7.65594L3.43305 4.2225C1.9476 4.2225 1.40231 4.23561 0.789386 4.24906C0.925212 3.63437 1.02074 2.95326 1.11609 2.27148C2.19263 2.3115 2.61504 2.32461 4.01882 2.32461C5.31357 2.32478 6.04902 2.3115 6.86685 2.27148ZM10.7238 1.91033C8.51548 1.91033 6.82637 3.75425 6.82637 5.95965C6.82637 7.61626 7.84822 8.88567 9.83776 8.88567C12.0592 8.88567 13.7353 7.04142 13.7353 4.82307C13.7355 3.18041 12.7403 1.91033 10.7238 1.91033ZM10.0558 7.11338C9.56503 7.11338 9.27916 6.69859 9.27916 5.88365C9.27916 4.66771 9.8106 3.69254 10.4651 3.69254C10.9416 3.69254 11.2279 4.09371 11.2279 4.92159C11.2277 6.12408 10.7103 7.11338 10.0558 7.11338ZM41.9363 1.81886C39.6998 1.81886 37.988 3.68716 37.988 5.92031C37.988 7.59945 39.0233 8.88567 41.039 8.88567C43.2894 8.88567 44.9877 7.01721 44.9877 4.77011C44.9878 3.10525 43.9804 1.81886 41.9363 1.81886ZM41.2176 7.10632C40.7267 7.10632 40.441 6.69153 40.441 5.87659C40.441 4.66065 40.9726 3.68565 41.6269 3.68565C42.1033 3.68565 42.39 4.08648 42.39 4.91453C42.3897 6.11753 41.8717 7.10632 41.2176 7.10632ZM25.1959 4.31581C25.3732 3.18041 25.2779 2.15126 23.929 2.15126C22.9476 2.15126 21.8848 2.92636 21.1353 4.2225C21.299 3.15317 21.2033 2.15126 19.8679 2.15126C18.8595 2.15126 17.7693 2.96621 17.0195 4.31581C17.2103 3.43395 17.1697 2.43154 17.115 2.21784C16.3384 2.33823 15.6572 2.40481 14.703 2.43154C14.7304 3.0464 14.6894 3.84756 14.5667 4.60988L14.2533 6.61385C14.1306 7.40257 13.9942 8.31116 13.8579 8.88584H16.3927C16.4065 8.53797 16.5021 7.99036 16.5701 7.50933L16.7881 6.13333C16.9651 5.23752 17.7281 4.18248 18.314 4.18248C18.6548 4.18248 18.6415 4.48966 18.5459 5.06417L18.3006 6.61369C18.1775 7.4024 18.0417 8.31099 17.9051 8.88567H20.4671C20.481 8.5378 20.5626 7.99019 20.6307 7.50916L20.8485 6.13316C21.0259 5.23735 21.7894 4.18231 22.375 4.18231C22.7161 4.18231 22.7026 4.47587 22.6475 4.87704L22.0355 8.8855H24.3737L25.1959 4.31581ZM37.4384 6.78787L37.1659 8.36479C36.7433 8.57849 35.9528 8.88601 35.0398 8.88601C33.4861 8.88601 33.1731 8.11091 33.4179 6.46741L33.8134 3.82167H33.0488L33.2647 2.10906L34.0994 2.0714L34.413 0.828728L36.7702 0L36.4707 2.07123H38.0925C38.0382 2.28493 37.8468 3.46119 37.7932 3.8215H36.2115L35.8571 6.26683C35.7617 6.89481 35.8166 7.12212 36.2793 7.12212C36.6207 7.12179 37.1245 6.93465 37.4384 6.78787ZM28.4965 7.63964C29.3545 7.54027 29.9449 6.76736 30.0869 5.99613L30.1108 5.7895C29.7422 5.71249 29.2093 5.65381 28.6926 5.71283C28.2006 5.76882 27.7911 5.95998 27.5709 6.23673C27.4049 6.43547 27.3214 6.67321 27.3585 6.95668C27.4144 7.38121 27.9169 7.70571 28.4965 7.63964ZM27.7663 8.86096C26.5554 9 25.7579 8.55075 25.5184 7.529C25.3682 6.88606 25.5767 6.15367 25.9414 5.7167C26.4298 5.14521 27.2257 4.77834 28.197 4.66754C28.9787 4.57692 29.6373 4.62164 30.2533 4.73059L30.2788 4.6319C30.2965 4.47402 30.3143 4.31648 30.2896 4.12784C30.2258 3.64345 29.817 3.35493 28.8078 3.47094C28.1268 3.54912 27.479 3.77896 26.976 4.04058L26.4867 2.65869C27.1685 2.29283 28.0279 2.0144 29.0114 1.90159C30.8901 1.68621 32.2103 2.24609 32.3794 3.53332C32.4242 3.87564 32.4296 4.23847 32.3833 4.56767C32.1421 6.15922 31.9875 7.35683 31.9197 8.1595C31.9087 8.28375 31.9096 8.49728 31.9215 8.79992L29.5902 8.7979C29.6398 8.67248 29.6842 8.50233 29.7238 8.28897C29.7501 8.14857 29.7688 7.97153 29.7805 7.75699C29.2877 8.38884 28.6104 8.76411 27.7663 8.86096Z" fill="white"/>
</g>
<defs>
<clipPath id="clip0_11516_26671">
<rect width="45" height="9" fill="white"/>
</clipPath>
</defs>
</svg>
