<svg width="180" height="27" viewBox="0 0 180 27" fill="none" xmlns="http://www.w3.org/2000/svg">
<g clip-path="url(#clip0_9828_9965)">
<path fill-rule="evenodd" clip-rule="evenodd" d="M31.329 11.0434V26.3413C31.3139 26.5107 31.24 26.6694 31.1202 26.7897C31.0004 26.9099 30.8424 26.9842 30.6738 26.9994H10.3533C10.2769 27.0003 10.201 26.986 10.1301 26.9574C10.0592 26.9288 9.99455 26.8865 9.93995 26.8327L1.23923 18.0399L1.13659 17.9353L0.582601 17.3704L0.169219 16.9468C0.0915284 16.8642 0.0393993 16.7607 0.0191728 16.649C-0.00105357 16.5372 0.0114945 16.4219 0.0552906 16.3172C0.0990867 16.2125 0.172243 16.1228 0.26586 16.059C0.359477 15.9953 0.46952 15.9602 0.582601 15.9582H20.342V0.777537C20.342 0.540274 20.3209 0.286063 20.4826 0.120826C20.6443 -0.0444107 20.9536 0.00784368 21.1856 0.00784368H41.1025C41.2846 0.00791444 41.4594 0.0799521 41.589 0.208388L50.353 8.96454L50.398 9.00973L50.758 9.3741L51.2445 9.85992C51.3415 9.95655 51.4078 10.08 51.4348 10.2145C51.4618 10.3491 51.4484 10.4886 51.3963 10.6155C51.3441 10.7424 51.2556 10.8508 51.1419 10.927C51.0283 11.0032 50.8946 11.0437 50.758 11.0434H31.329ZM31.3163 8.96595L24.5011 2.0839H40.5303L47.42 8.96595H31.3163ZM4.15541 18.0399L10.9664 24.9219H27.0742L20.1845 18.0399H4.15541Z" fill="#BD89FF"/>
<path d="M63.2971 16.0994C61.4186 16.0994 59.758 17.5117 59.758 20.1131C59.758 22.7145 61.4256 24.1805 63.3576 24.1805C65.3696 24.1805 66.2962 22.7682 66.5915 21.7881L69.2911 22.7767C68.6823 24.7976 66.7504 27.005 63.3618 27.005C59.5766 27.005 56.6914 24.0534 56.6914 20.1188C56.6914 16.1305 59.5766 13.2579 63.2816 13.2579C66.7504 13.2579 68.6556 15.4385 69.1871 17.5131L66.434 18.5229C66.1303 17.3705 65.2557 16.0994 63.2971 16.0994ZM77.5433 24.2341C79.4485 24.2341 81.1429 22.8219 81.1429 20.1131C81.1429 17.4298 79.4485 16.0443 77.5433 16.0443C75.6634 16.0443 73.9424 17.4269 73.9424 20.1131C73.9424 22.7993 75.6634 24.2341 77.5433 24.2341ZM77.5433 13.2522C81.4072 13.2522 84.2404 16.1502 84.2404 20.1131C84.2404 24.1014 81.4072 26.9994 77.5433 26.9994C73.7048 26.9994 70.8716 24.1014 70.8716 20.1131C70.8659 16.1502 73.7048 13.2522 77.5433 13.2522ZM95.5212 25.1648C94.8857 26.3342 93.377 26.9726 91.8655 26.9726C88.7946 26.9726 86.9949 24.6861 86.9949 21.8135V13.6519H90.0657V21.2556C90.0657 22.8515 90.8067 24.2073 92.6599 24.2073C94.433 24.2073 95.3596 23.0111 95.3596 21.3093V13.6519H98.4304V24.2341C98.43 25.0245 98.4741 25.8143 98.5626 26.5997H95.6267C95.5565 26.1247 95.5212 25.6451 95.5212 25.1648ZM109.954 13.5714V16.7095C109.622 16.657 109.286 16.6301 108.949 16.629C106.567 16.629 105.482 18.0116 105.482 20.4323V26.5997H102.408V13.6519H105.399V15.7251C106.008 14.3129 107.438 13.4923 109.132 13.4923C109.408 13.4926 109.683 13.5191 109.954 13.5714ZM111.406 23.0902L114.077 22.3459C114.183 23.5153 115.061 24.5533 116.697 24.5533C117.962 24.5533 118.63 23.8613 118.63 23.0634C118.63 22.3728 118.153 21.8403 117.121 21.6285L115.215 21.2048C112.938 20.6992 111.747 19.2092 111.747 17.4284C111.747 15.1687 113.811 13.2537 116.486 13.2537C120.085 13.2537 121.251 15.5938 121.462 16.8705L118.868 17.6148C118.762 16.8705 118.207 15.6743 116.486 15.6743C115.4 15.6743 114.632 16.3649 114.632 17.1628C114.632 17.8535 115.136 18.3591 115.93 18.5186L117.889 18.9169C120.324 19.4493 121.594 20.9379 121.594 22.8529C121.594 24.8202 120.006 27.0008 116.723 27.0008C112.992 26.9994 111.562 24.5533 111.403 23.0902H111.406ZM126.709 18.7036H133.036C132.984 17.1883 131.978 15.8325 129.86 15.8325C129.068 15.8147 128.3 16.1025 127.713 16.6366C127.127 17.1707 126.766 17.9106 126.706 18.7036H126.709ZM133.38 22.0804L135.967 22.9038C135.279 25.1634 133.24 26.9994 130.143 26.9994C126.649 26.9994 123.553 24.446 123.553 20.0594C123.553 15.9638 126.57 13.2522 129.825 13.2522C133.796 13.2522 136.126 15.8847 136.126 19.9789C136.135 20.3104 136.109 20.6418 136.047 20.9675H126.626C126.706 22.9348 128.242 24.3443 130.141 24.3443C132 24.3401 132.953 23.3571 133.377 22.0804H133.38ZM150.449 13.6519L145.387 26.5997H142.316L137.092 13.6519H140.479L143.894 22.9038L147.229 13.6519H150.449ZM155.754 26.5997H152.71V13.6519H155.754V26.5997ZM152.239 9.10437C152.236 8.70598 152.352 8.31577 152.57 7.98336C152.789 7.65094 153.101 7.39135 153.467 7.23761C153.833 7.08386 154.236 7.0429 154.625 7.11994C155.014 7.19698 155.372 7.38853 155.652 7.67024C155.933 7.95195 156.123 8.31108 156.2 8.70195C156.277 9.09283 156.236 9.49779 156.083 9.86532C155.93 10.2329 155.671 10.5464 155.34 10.7659C155.01 10.9855 154.621 11.1013 154.224 11.0985C153.963 11.0991 153.705 11.0479 153.464 10.9479C153.223 10.8479 153.003 10.701 152.819 10.5158C152.634 10.3305 152.488 10.1105 152.388 9.86826C152.288 9.62606 152.237 9.36647 152.238 9.10437H152.239ZM163.613 9.69047V13.6519H166.284V16.3903H163.613V22.3996C163.613 23.5421 164.115 24.0209 165.254 24.0209C165.609 24.0145 165.963 23.9791 166.312 23.915V26.467C166.127 26.5475 165.545 26.7593 164.432 26.7593C162.051 26.7593 160.567 25.3244 160.567 22.9038V16.3903H158.182V13.6519H158.845C160.221 13.6519 160.83 12.7735 160.83 11.6309V9.69047H163.613ZM168.675 23.0902C168.675 20.7769 170.362 19.5016 172.565 19.1824L175.874 18.6768C176.616 18.5709 176.827 18.1981 176.827 17.7461C176.827 16.6558 176.086 15.7788 174.392 15.7788C172.777 15.7788 171.878 16.8154 171.744 18.119L168.932 17.4806C169.169 15.2464 171.182 13.2522 174.358 13.2522C178.329 13.2522 179.841 15.5119 179.841 18.0921V24.5265C179.833 25.2209 179.886 25.9147 180 26.5997H177.142C177.115 26.5206 177.01 25.9882 177.01 24.9516C176.401 25.9402 175.13 26.9994 173.039 26.9994C170.339 26.9994 168.672 25.138 168.672 23.0902H168.675ZM173.621 24.5731C175.342 24.5731 176.824 23.7497 176.824 21.2232V20.6385L173.462 21.1441C172.509 21.3037 171.741 21.8347 171.741 22.8981C171.741 23.7822 172.403 24.5731 173.621 24.5731Z" fill="url(#paint0_linear_9828_9965)"/>
</g>
<defs>
<linearGradient id="paint0_linear_9828_9965" x1="113.311" y1="17.3337" x2="166.22" y2="43.2745" gradientUnits="userSpaceOnUse">
<stop stop-color="#BD89FF"/>
<stop offset="1" stop-color="#FF7262"/>
</linearGradient>
<clipPath id="clip0_9828_9965">
<rect width="180" height="27" fill="white"/>
</clipPath>
</defs>
</svg>
