<svg width="48" height="62" viewBox="0 0 48 62" fill="none" xmlns="http://www.w3.org/2000/svg">
<g clip-path="url(#clip0_10404_18454)">
<path d="M15.946 41.1521C16.0975 43.6975 16.2479 46.2429 16.3995 48.7883C14.3143 50.3274 12.2279 51.8665 10.1427 53.4056L2.22689 55.4291C1.5549 55.601 0.841141 55.3613 0.403095 54.8163C-0.0349501 54.2714 -0.124469 53.5158 0.176314 52.8813L8.32611 35.6738C9.71664 35.8409 11.1084 36.008 12.4989 36.1739C13.6483 37.8329 14.7977 39.4919 15.946 41.1521Z" fill="#FF83B0"/>
<path d="M24.002 42.773C24.4962 43.0673 24.9891 43.3604 25.4821 43.6546C24.9879 44.1874 24.495 44.7202 24.002 45.253C21.5958 50.4855 19.1895 55.718 16.7832 60.9504C16.4884 61.5886 15.8546 61.9991 15.1612 61.9991C14.4677 61.9991 13.8232 61.5838 13.5319 60.9371L10.1445 53.4039C12.0793 49.3194 14.0129 45.2349 15.9477 41.1504C17.4397 40.9893 18.9317 40.8271 20.4237 40.666C21.6161 41.3684 22.8097 42.0707 24.002 42.773Z" fill="#FC6096"/>
<path d="M37.8575 53.4056L34.4701 60.9389C34.1801 61.5819 33.5463 61.9972 32.8492 62.0009C32.1522 62.0045 31.5136 61.594 31.2188 60.9522L24 45.2548V42.7748C25.1435 41.8521 26.2869 40.9305 27.4304 40.0078C28.9713 40.3893 30.5122 40.7707 32.0531 41.1521C33.7826 41.8702 35.5121 42.5883 37.2428 43.3064C37.4469 46.6728 37.6522 50.0392 37.8563 53.4056H37.8575Z" fill="#FC197F"/>
<path d="M47.5975 54.8156C47.1595 55.3605 46.4457 55.6003 45.7737 55.4283L37.8579 53.4048C35.9231 49.3204 33.9895 45.2359 32.0547 41.1514C32.9308 39.6777 33.8081 38.2039 34.6842 36.7302C36.348 36.3779 38.0107 36.0243 39.6745 35.6719L47.8243 52.8805C48.1251 53.5138 48.0356 54.2707 47.5975 54.8156Z" fill="#FC6096"/>
<path d="M23.9987 2.17578C26.0505 8.64219 28.1035 15.1086 30.1552 21.5762C28.1035 27.9179 26.0505 34.2596 23.9987 40.6C13.6098 40.6 5.0625 31.9261 5.0625 21.3873C5.0625 10.8485 13.611 2.17578 23.9987 2.17578Z" fill="#FFCC66"/>
<path d="M42.9362 21.3873C42.9362 31.9261 34.389 40.6 24 40.6V2.17578C34.3878 2.17578 42.9362 10.8485 42.9362 21.3873Z" fill="#FFA64D"/>
<path d="M24.001 8.36328C25.0835 12.2189 26.1661 16.0757 27.2487 19.9314C26.1661 23.5291 25.0835 27.1268 24.001 30.7245L20.0944 32.6329C20.006 32.6753 19.3018 33.0046 18.5415 32.6329C17.78 32.2611 17.5938 31.4958 17.5723 31.4002L16.6079 27.1122L12.7013 25.2038C12.2107 24.964 11.8539 24.5099 11.7321 23.9711C11.6116 23.4322 11.7381 22.8667 12.0783 22.4344L14.7817 18.9953L13.8173 14.7074C13.6956 14.1685 13.8233 13.6018 14.1623 13.1707C14.5024 12.7384 15.0169 12.4865 15.5623 12.4865H19.8974L22.6009 9.04746C22.9411 8.61516 23.4567 8.36328 24.001 8.36328Z" fill="#FFE666"/>
<path d="M36.2689 23.9711C36.0803 24.8066 35.3868 25.1614 35.2997 25.2038L31.3931 27.1122L30.4286 31.4002C30.4072 31.4958 30.221 32.2611 29.4595 32.6329C28.6991 33.0046 27.9949 32.6753 27.9066 32.6329L24 30.7245V8.36328C24.5443 8.36328 25.0599 8.61516 25.4001 9.04746L28.1035 12.4865H32.4386C32.9829 12.4865 33.4985 12.7384 33.8387 13.1707C34.1777 13.6018 34.3054 14.1685 34.1837 14.7074L33.2192 18.9953L35.9227 22.4344C35.9836 22.5119 36.4562 23.1355 36.2689 23.9711Z" fill="#FFCC66"/>
<path d="M24.0018 3.63281C24.435 2.97406 24.8695 2.3141 25.3028 1.65414C24.8683 1.10316 24.435 0.552188 24.0018 0C12.4371 0 2.92188 9.65481 2.92188 21.3864C2.92188 33.1191 12.4371 42.7739 24.0018 42.7739C24.6177 42.2314 25.2324 41.6877 25.8482 41.1452C25.2324 40.4768 24.6177 39.8096 24.0018 39.1411C14.3528 39.1411 6.50263 31.1768 6.50263 21.3864C6.50263 11.5959 14.3528 3.63281 24.0018 3.63281Z" fill="#FFE666"/>
<path d="M45.0799 21.3864C45.0799 33.1191 35.5646 42.7739 24 42.7739V39.1411C33.6489 39.1411 41.4991 31.1768 41.4991 21.3864C41.4991 11.5959 33.6489 3.63281 24 3.63281V0C35.5634 0 45.0799 9.65481 45.0799 21.3864Z" fill="#FFCC66"/>
</g>
<defs>
<clipPath id="clip0_10404_18454">
<rect width="48" height="62" fill="white"/>
</clipPath>
</defs>
</svg>
