<svg width="17" height="13" viewBox="0 0 17 13" fill="none" xmlns="http://www.w3.org/2000/svg">
<path d="M5.28854 12.1728C5.20957 12.1733 5.1313 12.1582 5.05819 12.1283C4.98509 12.0984 4.9186 12.0544 4.86254 11.9988L0.338538 7.47484C0.226788 7.36242 0.164062 7.21035 0.164062 7.05183C0.164062 6.89332 0.226788 6.74125 0.338538 6.62883C0.394316 6.5726 0.460677 6.52796 0.533792 6.4975C0.606908 6.46704 0.685331 6.45136 0.764538 6.45136C0.843746 6.45136 0.922169 6.46704 0.995284 6.4975C1.0684 6.52796 1.13476 6.5726 1.19054 6.62883L5.28854 10.7268L15.2725 0.742835C15.385 0.631084 15.537 0.568359 15.6955 0.568359C15.8541 0.568359 16.0061 0.631084 16.1185 0.742835C16.1748 0.798613 16.2194 0.864973 16.2499 0.938089C16.2803 1.0112 16.296 1.08963 16.296 1.16883C16.296 1.24804 16.2803 1.32647 16.2499 1.39958C16.2194 1.4727 16.1748 1.53906 16.1185 1.59483L5.70854 11.9988C5.59678 12.1097 5.44594 12.1722 5.28854 12.1728Z" fill="white"/>
</svg>
