<svg width="40" height="40" viewBox="0 0 40 40" fill="none" xmlns="http://www.w3.org/2000/svg">
<rect x="0.5" y="0.5" width="39" height="39" rx="7.5" stroke="#00005F" stroke-opacity="0.08"/>
<mask id="path-3-inside-1_28864_34837" fill="white">
<path fill-rule="evenodd" clip-rule="evenodd" d="M14 12.8701H15V12.3701C15 11.5417 15.6716 10.8701 16.5 10.8701C17.3284 10.8701 18 11.5417 18 12.3701V12.8701H21V12.3701C21 11.5417 21.6716 10.8701 22.5 10.8701C23.3284 10.8701 24 11.5417 24 12.3701V12.8701H25C26.3807 12.8701 27.5 13.9894 27.5 15.3701V18.013C27.5 18.2891 27.2761 18.513 27 18.513C26.7239 18.513 26.5 18.2891 26.5 18.013V17.8701H12.5V24.3701C12.5 25.1985 13.1716 25.8701 14 25.8701H18C18.2761 25.8701 18.5 26.094 18.5 26.3701C18.5 26.6462 18.2761 26.8701 18 26.8701H14C12.6193 26.8701 11.5 25.7508 11.5 24.3701V15.3701C11.5 13.9894 12.6193 12.8701 14 12.8701ZM16 12.3701V14.3701C16 14.6463 16.2239 14.8701 16.5 14.8701C16.7761 14.8701 17 14.6463 17 14.3701V12.3701C17 12.094 16.7761 11.8701 16.5 11.8701C16.2239 11.8701 16 12.094 16 12.3701ZM23 12.3701C23 12.094 22.7761 11.8701 22.5 11.8701C22.2239 11.8701 22 12.094 22 12.3701V14.3701C22 14.6463 22.2239 14.8701 22.5 14.8701C22.7761 14.8701 23 14.6463 23 14.3701V12.3701ZM21 13.8701V14.3701C21 15.1985 21.6716 15.8701 22.5 15.8701C23.3284 15.8701 24 15.1985 24 14.3701V13.8701H25C25.8284 13.8701 26.5 14.5417 26.5 15.3701V16.8701H12.5V15.3701C12.5 14.5417 13.1716 13.8701 14 13.8701H15V14.3701C15 15.1985 15.6716 15.8701 16.5 15.8701C17.3284 15.8701 18 15.1985 18 14.3701V13.8701H21Z"/>
</mask>
<path fill-rule="evenodd" clip-rule="evenodd" d="M14 12.8701H15V12.3701C15 11.5417 15.6716 10.8701 16.5 10.8701C17.3284 10.8701 18 11.5417 18 12.3701V12.8701H21V12.3701C21 11.5417 21.6716 10.8701 22.5 10.8701C23.3284 10.8701 24 11.5417 24 12.3701V12.8701H25C26.3807 12.8701 27.5 13.9894 27.5 15.3701V18.013C27.5 18.2891 27.2761 18.513 27 18.513C26.7239 18.513 26.5 18.2891 26.5 18.013V17.8701H12.5V24.3701C12.5 25.1985 13.1716 25.8701 14 25.8701H18C18.2761 25.8701 18.5 26.094 18.5 26.3701C18.5 26.6462 18.2761 26.8701 18 26.8701H14C12.6193 26.8701 11.5 25.7508 11.5 24.3701V15.3701C11.5 13.9894 12.6193 12.8701 14 12.8701ZM16 12.3701V14.3701C16 14.6463 16.2239 14.8701 16.5 14.8701C16.7761 14.8701 17 14.6463 17 14.3701V12.3701C17 12.094 16.7761 11.8701 16.5 11.8701C16.2239 11.8701 16 12.094 16 12.3701ZM23 12.3701C23 12.094 22.7761 11.8701 22.5 11.8701C22.2239 11.8701 22 12.094 22 12.3701V14.3701C22 14.6463 22.2239 14.8701 22.5 14.8701C22.7761 14.8701 23 14.6463 23 14.3701V12.3701ZM21 13.8701V14.3701C21 15.1985 21.6716 15.8701 22.5 15.8701C23.3284 15.8701 24 15.1985 24 14.3701V13.8701H25C25.8284 13.8701 26.5 14.5417 26.5 15.3701V16.8701H12.5V15.3701C12.5 14.5417 13.1716 13.8701 14 13.8701H15V14.3701C15 15.1985 15.6716 15.8701 16.5 15.8701C17.3284 15.8701 18 15.1985 18 14.3701V13.8701H21Z" fill="#7234F7" fill-opacity="0.8"/>
<path d="M15 12.8701V14.8701H17V12.8701H15ZM18 12.8701H16V14.8701H18V12.8701ZM21 12.8701V14.8701H23V12.8701H21ZM24 12.8701H22V14.8701H24V12.8701ZM26.5 17.8701H28.5V15.8701H26.5V17.8701ZM12.5 17.8701V15.8701H10.5V17.8701H12.5ZM21 13.8701H23V11.8701H21V13.8701ZM24 13.8701V11.8701H22V13.8701H24ZM26.5 16.8701V18.8701H28.5V16.8701H26.5ZM12.5 16.8701H10.5V18.8701H12.5V16.8701ZM15 13.8701H17V11.8701H15V13.8701ZM18 13.8701V11.8701H16V13.8701H18ZM14 12.8701V14.8701H15V12.8701V10.8701H14V12.8701ZM15 12.8701H17V12.3701H15H13V12.8701H15ZM15 12.3701H17C17 12.6463 16.7761 12.8701 16.5 12.8701V10.8701V8.87012C14.567 8.87012 13 10.4371 13 12.3701H15ZM16.5 10.8701V12.8701C16.2239 12.8701 16 12.6463 16 12.3701H18H20C20 10.4371 18.433 8.87012 16.5 8.87012V10.8701ZM18 12.3701H16V12.8701H18H20V12.3701H18ZM18 12.8701V14.8701H21V12.8701V10.8701H18V12.8701ZM21 12.8701H23V12.3701H21H19V12.8701H21ZM21 12.3701H23C23 12.6463 22.7761 12.8701 22.5 12.8701V10.8701V8.87012C20.5671 8.87012 19 10.4371 19 12.3701H21ZM22.5 10.8701V12.8701C22.2239 12.8701 22 12.6463 22 12.3701H24H26C26 10.4371 24.4329 8.87012 22.5 8.87012V10.8701ZM24 12.3701H22V12.8701H24H26V12.3701H24ZM24 12.8701V14.8701H25V12.8701V10.8701H24V12.8701ZM25 12.8701V14.8701C25.2761 14.8701 25.5 15.094 25.5 15.3701H27.5H29.5C29.5 12.8848 27.4853 10.8701 25 10.8701V12.8701ZM27.5 15.3701H25.5V18.013H27.5H29.5V15.3701H27.5ZM27.5 18.013H25.5C25.5 17.1845 26.1715 16.513 27 16.513V18.513V20.513C28.3807 20.513 29.5 19.3937 29.5 18.013H27.5ZM27 18.513V16.513C27.8285 16.513 28.5 17.1845 28.5 18.013H26.5H24.5C24.5 19.3937 25.6193 20.513 27 20.513V18.513ZM26.5 18.013H28.5V17.8701H26.5H24.5V18.013H26.5ZM26.5 17.8701V15.8701H12.5V17.8701V19.8701H26.5V17.8701ZM12.5 17.8701H10.5V24.3701H12.5H14.5V17.8701H12.5ZM12.5 24.3701H10.5C10.5 26.3031 12.067 27.8701 14 27.8701V25.8701V23.8701C14.2762 23.8701 14.5 24.094 14.5 24.3701H12.5ZM14 25.8701V27.8701H18V25.8701V23.8701H14V25.8701ZM18 25.8701V27.8701C17.1715 27.8701 16.5 27.1985 16.5 26.3701H18.5H20.5C20.5 24.9896 19.3808 23.8701 18 23.8701V25.8701ZM18.5 26.3701H16.5C16.5 25.5418 17.1715 24.8701 18 24.8701V26.8701V28.8701C19.3808 28.8701 20.5 27.7507 20.5 26.3701H18.5ZM18 26.8701V24.8701H14V26.8701V28.8701H18V26.8701ZM14 26.8701V24.8701C13.7239 24.8701 13.5 24.6463 13.5 24.3701H11.5H9.5C9.5 26.8554 11.5147 28.8701 14 28.8701V26.8701ZM11.5 24.3701H13.5V15.3701H11.5H9.5V24.3701H11.5ZM11.5 15.3701H13.5C13.5 15.094 13.7239 14.8701 14 14.8701V12.8701V10.8701C11.5147 10.8701 9.5 12.8848 9.5 15.3701H11.5ZM16 12.3701H14V14.3701H16H18V12.3701H16ZM16 14.3701H14C14 15.7508 15.1193 16.8701 16.5 16.8701V14.8701V12.8701C17.3284 12.8701 18 13.5417 18 14.3701H16ZM16.5 14.8701V16.8701C17.8807 16.8701 19 15.7508 19 14.3701H17H15C15 13.5417 15.6716 12.8701 16.5 12.8701V14.8701ZM17 14.3701H19V12.3701H17H15V14.3701H17ZM17 12.3701H19C19 10.9894 17.8807 9.87012 16.5 9.87012V11.8701V13.8701C15.6716 13.8701 15 13.1985 15 12.3701H17ZM16.5 11.8701V9.87012C15.1193 9.87012 14 10.9894 14 12.3701H16H18C18 13.1985 17.3284 13.8701 16.5 13.8701V11.8701ZM23 12.3701H25C25 10.9893 23.8806 9.87012 22.5 9.87012V11.8701V13.8701C21.6716 13.8701 21 13.1987 21 12.3701H23ZM22.5 11.8701V9.87012C21.1194 9.87012 20 10.9893 20 12.3701H22H24C24 13.1987 23.3284 13.8701 22.5 13.8701V11.8701ZM22 12.3701H20V14.3701H22H24V12.3701H22ZM22 14.3701H20C20 15.7509 21.1194 16.8701 22.5 16.8701V14.8701V12.8701C23.3284 12.8701 24 13.5416 24 14.3701H22ZM22.5 14.8701V16.8701C23.8806 16.8701 25 15.7509 25 14.3701H23H21C21 13.5416 21.6716 12.8701 22.5 12.8701V14.8701ZM23 14.3701H25V12.3701H23H21V14.3701H23ZM21 13.8701H19V14.3701H21H23V13.8701H21ZM21 14.3701H19C19 16.3031 20.5671 17.8701 22.5 17.8701V15.8701V13.8701C22.7761 13.8701 23 14.094 23 14.3701H21ZM22.5 15.8701V17.8701C24.4329 17.8701 26 16.3031 26 14.3701H24H22C22 14.094 22.2239 13.8701 22.5 13.8701V15.8701ZM24 14.3701H26V13.8701H24H22V14.3701H24ZM24 13.8701V15.8701H25V13.8701V11.8701H24V13.8701ZM25 13.8701V15.8701C24.7239 15.8701 24.5 15.6463 24.5 15.3701H26.5H28.5C28.5 13.4371 26.9329 11.8701 25 11.8701V13.8701ZM26.5 15.3701H24.5V16.8701H26.5H28.5V15.3701H26.5ZM26.5 16.8701V14.8701H12.5V16.8701V18.8701H26.5V16.8701ZM12.5 16.8701H14.5V15.3701H12.5H10.5V16.8701H12.5ZM12.5 15.3701H14.5C14.5 15.6463 14.2761 15.8701 14 15.8701V13.8701V11.8701C12.067 11.8701 10.5 13.4371 10.5 15.3701H12.5ZM14 13.8701V15.8701H15V13.8701V11.8701H14V13.8701ZM15 13.8701H13V14.3701H15H17V13.8701H15ZM15 14.3701H13C13 16.3031 14.567 17.8701 16.5 17.8701V15.8701V13.8701C16.7761 13.8701 17 14.094 17 14.3701H15ZM16.5 15.8701V17.8701C18.433 17.8701 20 16.3031 20 14.3701H18H16C16 14.094 16.2239 13.8701 16.5 13.8701V15.8701ZM18 14.3701H20V13.8701H18H16V14.3701H18ZM18 13.8701V15.8701H21V13.8701V11.8701H18V13.8701Z" fill="#7234F7" fill-opacity="0.8" mask="url(#path-3-inside-1_28864_34837)"/>
<path d="M24.5 24.3701C24.2239 24.3701 24 24.1462 24 23.8701V21.3701C24 21.094 24.2239 20.8701 24.5 20.8701C24.7761 20.8701 25 21.094 25 21.3701V23.3701H26C26.2761 23.3701 26.5 23.594 26.5 23.8701C26.5 24.1462 26.2761 24.3701 26 24.3701H24.5Z" fill="#7234F7" fill-opacity="0.8"/>
<path fill-rule="evenodd" clip-rule="evenodd" d="M24.5 28.8701C27.2614 28.8701 29.5 26.6315 29.5 23.8701C29.5 21.1087 27.2614 18.8701 24.5 18.8701C21.7386 18.8701 19.5 21.1087 19.5 23.8701C19.5 26.6315 21.7386 28.8701 24.5 28.8701ZM24.5 27.8701C26.7091 27.8701 28.5 26.0792 28.5 23.8701C28.5 21.661 26.7091 19.8701 24.5 19.8701C22.2909 19.8701 20.5 21.661 20.5 23.8701C20.5 26.0792 22.2909 27.8701 24.5 27.8701Z" fill="#7234F7" fill-opacity="0.8"/>
</svg>
