<svg width="25" height="26" viewBox="0 0 25 26" fill="none" xmlns="http://www.w3.org/2000/svg">
<mask id="path-1-inside-1_28864_34838" fill="white">
<path fill-rule="evenodd" clip-rule="evenodd" d="M6 5.87012H7V5.37012C7 4.54169 7.67157 3.87012 8.5 3.87012C9.32843 3.87012 10 4.54169 10 5.37012V5.87012H13V5.37012C13 4.54169 13.6716 3.87012 14.5 3.87012C15.3284 3.87012 16 4.54169 16 5.37012V5.87012H17C18.3807 5.87012 19.5 6.98941 19.5 8.37012V11.013C19.5 11.2891 19.2761 11.513 19 11.513C18.7239 11.513 18.5 11.2891 18.5 11.013V10.8701H4.5V17.3701C4.5 18.1985 5.17157 18.8701 6 18.8701H10C10.2761 18.8701 10.5 19.094 10.5 19.3701C10.5 19.6462 10.2761 19.8701 10 19.8701H6C4.61929 19.8701 3.5 18.7508 3.5 17.3701V8.37012C3.5 6.98941 4.61929 5.87012 6 5.87012ZM8 5.37012V7.37012C8 7.64626 8.22386 7.87012 8.5 7.87012C8.77614 7.87012 9 7.64626 9 7.37012V5.37012C9 5.09398 8.77614 4.87012 8.5 4.87012C8.22386 4.87012 8 5.09398 8 5.37012ZM15 5.37012C15 5.09398 14.7761 4.87012 14.5 4.87012C14.2239 4.87012 14 5.09398 14 5.37012V7.37012C14 7.64626 14.2239 7.87012 14.5 7.87012C14.7761 7.87012 15 7.64626 15 7.37012V5.37012ZM13 6.87012V7.37012C13 8.19855 13.6716 8.87012 14.5 8.87012C15.3284 8.87012 16 8.19855 16 7.37012V6.87012H17C17.8284 6.87012 18.5 7.54169 18.5 8.37012V9.87012H4.5V8.37012C4.5 7.54169 5.17157 6.87012 6 6.87012H7V7.37012C7 8.19855 7.67157 8.87012 8.5 8.87012C9.32843 8.87012 10 8.19855 10 7.37012V6.87012H13Z"/>
</mask>
<path fill-rule="evenodd" clip-rule="evenodd" d="M6 5.87012H7V5.37012C7 4.54169 7.67157 3.87012 8.5 3.87012C9.32843 3.87012 10 4.54169 10 5.37012V5.87012H13V5.37012C13 4.54169 13.6716 3.87012 14.5 3.87012C15.3284 3.87012 16 4.54169 16 5.37012V5.87012H17C18.3807 5.87012 19.5 6.98941 19.5 8.37012V11.013C19.5 11.2891 19.2761 11.513 19 11.513C18.7239 11.513 18.5 11.2891 18.5 11.013V10.8701H4.5V17.3701C4.5 18.1985 5.17157 18.8701 6 18.8701H10C10.2761 18.8701 10.5 19.094 10.5 19.3701C10.5 19.6462 10.2761 19.8701 10 19.8701H6C4.61929 19.8701 3.5 18.7508 3.5 17.3701V8.37012C3.5 6.98941 4.61929 5.87012 6 5.87012ZM8 5.37012V7.37012C8 7.64626 8.22386 7.87012 8.5 7.87012C8.77614 7.87012 9 7.64626 9 7.37012V5.37012C9 5.09398 8.77614 4.87012 8.5 4.87012C8.22386 4.87012 8 5.09398 8 5.37012ZM15 5.37012C15 5.09398 14.7761 4.87012 14.5 4.87012C14.2239 4.87012 14 5.09398 14 5.37012V7.37012C14 7.64626 14.2239 7.87012 14.5 7.87012C14.7761 7.87012 15 7.64626 15 7.37012V5.37012ZM13 6.87012V7.37012C13 8.19855 13.6716 8.87012 14.5 8.87012C15.3284 8.87012 16 8.19855 16 7.37012V6.87012H17C17.8284 6.87012 18.5 7.54169 18.5 8.37012V9.87012H4.5V8.37012C4.5 7.54169 5.17157 6.87012 6 6.87012H7V7.37012C7 8.19855 7.67157 8.87012 8.5 8.87012C9.32843 8.87012 10 8.19855 10 7.37012V6.87012H13Z" fill="#7234F7"/>
<path d="M7 5.87012V7.87012H9V5.87012H7ZM10 5.87012H8V7.87012H10V5.87012ZM13 5.87012V7.87012H15V5.87012H13ZM16 5.87012H14V7.87012H16V5.87012ZM18.5 10.8701H20.5V8.87012H18.5V10.8701ZM4.5 10.8701V8.87012H2.5V10.8701H4.5ZM13 6.87012H15V4.87012H13V6.87012ZM16 6.87012V4.87012H14V6.87012H16ZM18.5 9.87012V11.8701H20.5V9.87012H18.5ZM4.5 9.87012H2.5V11.8701H4.5V9.87012ZM7 6.87012H9V4.87012H7V6.87012ZM10 6.87012V4.87012H8V6.87012H10ZM6 5.87012V7.87012H7V5.87012V3.87012H6V5.87012ZM7 5.87012H9V5.37012H7H5V5.87012H7ZM7 5.37012H9C9 5.64626 8.77614 5.87012 8.5 5.87012V3.87012V1.87012C6.567 1.87012 5 3.43712 5 5.37012H7ZM8.5 3.87012V5.87012C8.22386 5.87012 8 5.64626 8 5.37012H10H12C12 3.43712 10.433 1.87012 8.5 1.87012V3.87012ZM10 5.37012H8V5.87012H10H12V5.37012H10ZM10 5.87012V7.87012H13V5.87012V3.87012H10V5.87012ZM13 5.87012H15V5.37012H13H11V5.87012H13ZM13 5.37012H15C15 5.64628 14.7761 5.87012 14.5 5.87012V3.87012V1.87012C12.5671 1.87012 11 3.43709 11 5.37012H13ZM14.5 3.87012V5.87012C14.2239 5.87012 14 5.64628 14 5.37012H16H18C18 3.43709 16.4329 1.87012 14.5 1.87012V3.87012ZM16 5.37012H14V5.87012H16H18V5.37012H16ZM16 5.87012V7.87012H17V5.87012V3.87012H16V5.87012ZM17 5.87012V7.87012C17.2761 7.87012 17.5 8.09398 17.5 8.37012H19.5H21.5C21.5 5.88483 19.4853 3.87012 17 3.87012V5.87012ZM19.5 8.37012H17.5V11.013H19.5H21.5V8.37012H19.5ZM19.5 11.013H17.5C17.5 10.1845 18.1715 9.51302 19 9.51302V11.513V13.513C20.3807 13.513 21.5 12.3937 21.5 11.013H19.5ZM19 11.513V9.51302C19.8285 9.51302 20.5 10.1845 20.5 11.013H18.5H16.5C16.5 12.3937 17.6193 13.513 19 13.513V11.513ZM18.5 11.013H20.5V10.8701H18.5H16.5V11.013H18.5ZM18.5 10.8701V8.87012H4.5V10.8701V12.8701H18.5V10.8701ZM4.5 10.8701H2.5V17.3701H4.5H6.5V10.8701H4.5ZM4.5 17.3701H2.5C2.5 19.3031 4.06697 20.8701 6 20.8701V18.8701V16.8701C6.27617 16.8701 6.5 17.094 6.5 17.3701H4.5ZM6 18.8701V20.8701H10V18.8701V16.8701H6V18.8701ZM10 18.8701V20.8701C9.17147 20.8701 8.5 20.1985 8.5 19.3701H10.5H12.5C12.5 17.9896 11.3808 16.8701 10 16.8701V18.8701ZM10.5 19.3701H8.5C8.5 18.5418 9.17147 17.8701 10 17.8701V19.8701V21.8701C11.3808 21.8701 12.5 20.7507 12.5 19.3701H10.5ZM10 19.8701V17.8701H6V19.8701V21.8701H10V19.8701ZM6 19.8701V17.8701C5.72386 17.8701 5.5 17.6463 5.5 17.3701H3.5H1.5C1.5 19.8554 3.51472 21.8701 6 21.8701V19.8701ZM3.5 17.3701H5.5V8.37012H3.5H1.5V17.3701H3.5ZM3.5 8.37012H5.5C5.5 8.09398 5.72386 7.87012 6 7.87012V5.87012V3.87012C3.51472 3.87012 1.5 5.88484 1.5 8.37012H3.5ZM8 5.37012H6V7.37012H8H10V5.37012H8ZM8 7.37012H6C6 8.75083 7.11929 9.87012 8.5 9.87012V7.87012V5.87012C9.32843 5.87012 10 6.54169 10 7.37012H8ZM8.5 7.87012V9.87012C9.88071 9.87012 11 8.75083 11 7.37012H9H7C7 6.54169 7.67157 5.87012 8.5 5.87012V7.87012ZM9 7.37012H11V5.37012H9H7V7.37012H9ZM9 5.37012H11C11 3.98941 9.88071 2.87012 8.5 2.87012V4.87012V6.87012C7.67157 6.87012 7 6.19855 7 5.37012H9ZM8.5 4.87012V2.87012C7.11929 2.87012 6 3.98941 6 5.37012H8H10C10 6.19855 9.32843 6.87012 8.5 6.87012V4.87012ZM15 5.37012H17C17 3.9893 15.8806 2.87012 14.5 2.87012V4.87012V6.87012C13.6716 6.87012 13 6.19865 13 5.37012H15ZM14.5 4.87012V2.87012C13.1194 2.87012 12 3.9893 12 5.37012H14H16C16 6.19865 15.3284 6.87012 14.5 6.87012V4.87012ZM14 5.37012H12V7.37012H14H16V5.37012H14ZM14 7.37012H12C12 8.75093 13.1194 9.87012 14.5 9.87012V7.87012V5.87012C15.3284 5.87012 16 6.54158 16 7.37012H14ZM14.5 7.87012V9.87012C15.8806 9.87012 17 8.75093 17 7.37012H15H13C13 6.54158 13.6716 5.87012 14.5 5.87012V7.87012ZM15 7.37012H17V5.37012H15H13V7.37012H15ZM13 6.87012H11V7.37012H13H15V6.87012H13ZM13 7.37012H11C11 9.30314 12.5671 10.8701 14.5 10.8701V8.87012V6.87012C14.7761 6.87012 15 7.09395 15 7.37012H13ZM14.5 8.87012V10.8701C16.4329 10.8701 18 9.30314 18 7.37012H16H14C14 7.09395 14.2239 6.87012 14.5 6.87012V8.87012ZM16 7.37012H18V6.87012H16H14V7.37012H16ZM16 6.87012V8.87012H17V6.87012V4.87012H16V6.87012ZM17 6.87012V8.87012C16.7239 8.87012 16.5 8.64628 16.5 8.37012H18.5H20.5C20.5 6.43709 18.9329 4.87012 17 4.87012V6.87012ZM18.5 8.37012H16.5V9.87012H18.5H20.5V8.37012H18.5ZM18.5 9.87012V7.87012H4.5V9.87012V11.8701H18.5V9.87012ZM4.5 9.87012H6.5V8.37012H4.5H2.5V9.87012H4.5ZM4.5 8.37012H6.5C6.5 8.64626 6.27614 8.87012 6 8.87012V6.87012V4.87012C4.067 4.87012 2.5 6.43712 2.5 8.37012H4.5ZM6 6.87012V8.87012H7V6.87012V4.87012H6V6.87012ZM7 6.87012H5V7.37012H7H9V6.87012H7ZM7 7.37012H5C5 9.30312 6.567 10.8701 8.5 10.8701V8.87012V6.87012C8.77614 6.87012 9 7.09398 9 7.37012H7ZM8.5 8.87012V10.8701C10.433 10.8701 12 9.30312 12 7.37012H10H8C8 7.09398 8.22386 6.87012 8.5 6.87012V8.87012ZM10 7.37012H12V6.87012H10H8V7.37012H10ZM10 6.87012V8.87012H13V6.87012V4.87012H10V6.87012Z" fill="#7234F7" mask="url(#path-1-inside-1_28864_34838)"/>
<path d="M16.5 17.3701C16.2239 17.3701 16 17.1462 16 16.8701V14.3701C16 14.094 16.2239 13.8701 16.5 13.8701C16.7761 13.8701 17 14.094 17 14.3701V16.3701H18C18.2761 16.3701 18.5 16.594 18.5 16.8701C18.5 17.1462 18.2761 17.3701 18 17.3701H16.5Z" fill="#7234F7"/>
<path fill-rule="evenodd" clip-rule="evenodd" d="M16.5 21.8701C19.2614 21.8701 21.5 19.6315 21.5 16.8701C21.5 14.1087 19.2614 11.8701 16.5 11.8701C13.7386 11.8701 11.5 14.1087 11.5 16.8701C11.5 19.6315 13.7386 21.8701 16.5 21.8701ZM16.5 20.8701C18.7091 20.8701 20.5 19.0792 20.5 16.8701C20.5 14.661 18.7091 12.8701 16.5 12.8701C14.2909 12.8701 12.5 14.661 12.5 16.8701C12.5 19.0792 14.2909 20.8701 16.5 20.8701Z" fill="#7234F7"/>
</svg>
