<svg width="24" height="24" viewBox="0 0 24 24" fill="none" xmlns="http://www.w3.org/2000/svg">
<g id="SVG">
<path id="Vector" fill-rule="evenodd" clip-rule="evenodd" d="M5.5 5.27999H6.5V4.79999C6.5 4.00469 7.17157 3.35999 8 3.35999C8.82843 3.35999 9.5 4.00469 9.5 4.79999V5.27999H12.5V4.79999C12.5 4.00469 13.1716 3.35999 14 3.35999C14.8284 3.35999 15.5 4.00469 15.5 4.79999V5.27999H16.5C17.8807 5.27999 19 6.3545 19 7.67999V10.2172C19 10.4822 18.7761 10.6972 18.5 10.6972C18.2239 10.6972 18 10.4822 18 10.2172V10.08H4V16.32C4 17.1153 4.67157 17.76 5.5 17.76H9.5C9.77614 17.76 10 17.9749 10 18.24C10 18.505 9.77614 18.72 9.5 18.72H5.5C4.11929 18.72 3 17.6455 3 16.32V7.67999C3 6.3545 4.11929 5.27999 5.5 5.27999ZM7.5 4.79999V6.71999C7.5 6.98508 7.72386 7.19999 8 7.19999C8.27614 7.19999 8.5 6.98508 8.5 6.71999V4.79999C8.5 4.53489 8.27614 4.31999 8 4.31999C7.72386 4.31999 7.5 4.53489 7.5 4.79999ZM14.5 4.79999C14.5 4.53489 14.2761 4.31999 14 4.31999C13.7239 4.31999 13.5 4.53489 13.5 4.79999V6.71999C13.5 6.98508 13.7239 7.19999 14 7.19999C14.2761 7.19999 14.5 6.98508 14.5 6.71999V4.79999ZM12.5 6.23999V6.71999C12.5 7.51528 13.1716 8.15999 14 8.15999C14.8284 8.15999 15.5 7.51528 15.5 6.71999V6.23999H16.5C17.3284 6.23999 18 6.88469 18 7.67999V9.11999H4V7.67999C4 6.88469 4.67157 6.23999 5.5 6.23999H6.5V6.71999C6.5 7.51528 7.17157 8.15999 8 8.15999C8.82843 8.15999 9.5 7.51528 9.5 6.71999V6.23999H12.5Z" fill="#444040"/>
<path id="Vector_2" d="M16 16.32C15.7239 16.32 15.5 16.1051 15.5 15.84V13.44C15.5 13.175 15.7239 12.96 16 12.96C16.2761 12.96 16.5 13.175 16.5 13.44V15.36H17.5C17.7761 15.36 18 15.575 18 15.84C18 16.1051 17.7761 16.32 17.5 16.32H16Z" fill="#444040"/>
<path id="Vector_3" fill-rule="evenodd" clip-rule="evenodd" d="M16 20.64C18.7614 20.64 21 18.4909 21 15.84C21 13.189 18.7614 11.04 16 11.04C13.2386 11.04 11 13.189 11 15.84C11 18.4909 13.2386 20.64 16 20.64ZM16 19.68C18.2091 19.68 20 17.9607 20 15.84C20 13.7192 18.2091 12 16 12C13.7909 12 12 13.7192 12 15.84C12 17.9607 13.7909 19.68 16 19.68Z" fill="#444040"/>
</g>
</svg>
