<svg id="Layer_1" data-name="Layer 1" xmlns="http://www.w3.org/2000/svg" viewBox="0 0 1280 668.72"><defs fill="#7234f7"><style>.cls-1{fill-rule:evenodd;}</style></defs><path class="cls-1" d="M779.41,273.52v378.9a17.91,17.91,0,0,1-16.3,16.3H257.59a14.48,14.48,0,0,1-10.27-4.28L30.84,446.83l-2.54-2.55L14.52,430.43,4.25,420.1a14.49,14.49,0,0,1,10.27-24.72H506.08V19.28c0-5.88-.53-12.19,3.56-16.28S521.38.19,527.05.19h495.49a17.16,17.16,0,0,1,12.09,5l218,216.9,1.14,1.13,9,9,12.1,12c10.85,10.79,3.21,29.3-12.1,29.3H779.41Zm-.31-51.44L609.55,51.64h398.83l171.33,170.44ZM103.41,446.83,273,617.27H673.57L502.24,446.83Z" fill="#7234f7"/></svg>