<svg width="453" height="114" viewBox="0 0 453 114" fill="none" xmlns="http://www.w3.org/2000/svg">
<rect width="114" height="114" rx="57" fill="url(#paint0_linear_22314_6430)"/>
<path fill-rule="evenodd" clip-rule="evenodd" d="M65.4962 53.7698V77.0006C65.4741 77.2582 65.3623 77.4997 65.1806 77.6825C64.9989 77.8653 64.7589 77.9777 64.5029 78H33.6963C33.5799 77.9999 33.4647 77.9767 33.3573 77.9317C33.2499 77.8867 33.1524 77.8207 33.0704 77.7376L19.8781 64.3957L19.7233 64.2393L18.8835 63.3902L18.2577 62.7568C18.1344 62.6324 18.0506 62.4741 18.0167 62.3018C17.9829 62.1295 18.0006 61.9509 18.0676 61.7888C18.1346 61.6266 18.2478 61.488 18.393 61.3905C18.5383 61.2931 18.7089 61.2411 18.8835 61.2412H48.8394V38.1821C48.8394 37.8216 48.8071 37.4347 49.0563 37.1839C49.3056 36.9332 49.7718 37.0116 50.1173 37.0116H80.3126C80.5888 37.0119 80.8537 37.1221 81.0494 37.3182L94.3344 50.6166L94.4039 50.6859L94.9524 51.2377L95.6897 51.9734C96.3509 52.6349 95.8854 53.7698 94.9524 53.7698H65.4962ZM65.4773 50.616L55.1449 40.1661H79.4497L89.8906 50.616H65.4773ZM24.3005 64.3957L34.6354 74.8455H59.0463L48.6054 64.3957H24.3005Z" fill="white"/>
<path d="M147.312 54.529C142.399 54.529 138.04 58.206 138.04 65.0085C138.04 71.8109 142.399 75.6276 147.452 75.6276C152.709 75.6276 155.133 71.9506 155.884 69.3767L162.942 71.9506C161.351 77.2271 156.298 82.9816 147.441 82.9816C137.542 82.9816 130 75.2599 130 65.0048C130 54.5915 137.542 47.0978 147.232 47.0978C156.298 47.0978 161.281 52.7898 162.663 58.2023L155.466 60.8387C154.704 57.8677 152.434 54.529 147.312 54.529ZM184.551 75.7637C189.537 75.7637 193.966 72.0867 193.966 65.0085C193.966 57.9964 189.537 54.3893 184.551 54.3893C179.638 54.3893 175.14 57.9964 175.14 65.0085C175.14 72.0205 179.634 75.7637 184.551 75.7637ZM184.551 47.1015C194.655 47.1015 202.061 54.6651 202.061 65.0085C202.061 75.418 194.655 82.9853 184.551 82.9853C174.516 82.9853 167.114 75.418 167.114 65.0085C167.114 54.6651 174.502 47.1015 184.551 47.1015ZM231.553 78.1942C229.892 81.2497 225.947 82.9154 222.002 82.9154C213.977 82.9154 209.269 76.944 209.269 69.4503V48.1421H217.298V67.9979C217.298 72.1639 219.234 75.7196 224.081 75.7196C228.715 75.7196 231.139 72.5941 231.139 68.1523V48.1421H239.168V75.7637C239.167 77.8277 239.282 79.8901 239.512 81.941H231.813C231.633 80.7004 231.546 79.4479 231.553 78.1942ZM269.279 47.9398V56.1322C268.41 55.9956 267.531 55.9255 266.65 55.9226C260.418 55.9226 257.584 59.5334 257.584 65.8505V81.9521H249.558V48.1421H257.378V53.5546C258.97 49.8776 262.706 47.7266 267.134 47.7266C267.854 47.7321 268.572 47.8034 269.279 47.9398ZM273.074 72.789L280.062 70.8438C280.34 73.8994 282.628 76.6057 286.914 76.6057C290.236 76.6057 291.966 74.8003 291.966 72.7191C291.966 70.9137 290.72 69.5275 288.021 68.9723L283.039 67.8692C277.088 66.5491 273.972 62.6625 273.972 58.0111C273.972 52.1279 279.372 47.1162 286.36 47.1162C295.772 47.1162 298.826 53.2237 299.372 56.555L292.59 58.4965C292.311 56.555 290.859 53.4333 286.357 53.4333C283.519 53.4333 281.514 55.235 281.514 57.3199C281.514 59.1216 282.826 60.4416 284.905 60.8571L290.038 61.8977C296.406 63.2876 299.728 67.1742 299.728 72.1712C299.728 77.319 295.578 83 286.995 83C277.228 82.9853 273.492 76.5984 273.074 72.7816V72.789ZM313.088 61.3278H329.627C329.487 57.3713 326.858 53.8341 321.322 53.8341C319.255 53.7914 317.25 54.5441 315.718 55.9377C314.187 57.3313 313.246 59.26 313.088 61.3278ZM330.528 70.1526L337.285 72.2963C335.489 78.1795 330.158 82.9853 322.063 82.9853C312.926 82.9853 304.831 76.3226 304.831 64.8687C304.831 54.1797 312.721 47.1015 321.231 47.1015C331.614 47.1015 337.703 53.9738 337.703 64.6591C337.727 65.5222 337.657 66.3852 337.494 67.233H312.857C313.066 72.3808 317.08 76.0578 322.063 76.0578C326.921 76.0431 329.414 73.4766 330.521 70.1452L330.528 70.1526ZM375.169 48.1494L361.971 81.9484H353.941L340.218 48.1421H349.076L358.004 72.2963L366.722 48.1421L375.169 48.1494ZM389.035 81.9484H381.079V48.1421H389.035V81.9484ZM379.815 36.2727C379.808 35.2336 380.11 34.216 380.681 33.3493C381.253 32.4826 382.068 31.8059 383.024 31.4052C383.98 31.0045 385.034 30.898 386.05 31.0991C387.067 31.3002 388.001 31.7999 388.733 32.5347C389.466 33.2695 389.964 34.2061 390.165 35.2256C390.365 36.2451 390.259 37.3013 389.859 38.2601C389.46 39.2189 388.785 40.0369 387.921 40.6101C387.057 41.1833 386.042 41.4859 385.006 41.4793C384.324 41.4803 383.648 41.3463 383.018 41.085C382.388 40.8237 381.815 40.4402 381.333 39.9565C380.851 39.4728 380.468 38.8985 380.208 38.2663C379.947 37.6342 379.814 36.9567 379.815 36.2727ZM409.548 37.8023V48.1421H416.54V55.2938H409.548V70.9799C409.548 73.9656 410.864 75.2158 413.842 75.2158C414.769 75.1987 415.694 75.1052 416.606 74.9363V81.5991C416.122 81.8087 414.6 82.3639 411.693 82.3639C405.46 82.3639 401.589 78.6133 401.589 72.2999V55.2938H395.356V48.1421H397.083C400.683 48.1421 402.274 45.8513 402.274 42.8656V37.8023H409.548ZM422.776 72.7816C422.776 66.744 427.209 63.4126 432.95 62.578L441.599 61.2579C443.539 60.9821 444.092 60.0114 444.092 58.8311C444.092 55.9851 442.153 53.6833 437.724 53.6833C433.504 53.6833 431.15 56.3896 430.805 59.7908L423.473 58.1251C424.096 52.2971 429.357 47.0941 437.661 47.0941C448.041 47.0941 451.986 52.9773 451.986 59.7246V76.5211C451.964 78.3341 452.102 80.1454 452.4 81.9337H444.928C444.858 81.7278 444.58 80.3379 444.58 77.6316C442.989 80.2055 439.667 82.9779 434.2 82.9779C427.15 82.9853 422.787 78.1243 422.787 72.7816H422.776ZM435.718 76.6682C440.217 76.6682 444.092 74.5172 444.092 67.9243V66.3947L435.293 67.7147C432.807 68.1302 430.798 69.5201 430.798 72.2963C430.817 74.587 432.547 76.6682 435.729 76.6682H435.718Z" fill="white"/>
<defs>
<linearGradient id="paint0_linear_22314_6430" x1="30.2807" y1="6.42318" x2="83.0425" y2="106.441" gradientUnits="userSpaceOnUse">
<stop stop-color="#5028FF"/>
<stop offset="1" stop-color="#FF4B00"/>
</linearGradient>
</defs>
</svg>
