<svg width="41" height="41" viewBox="0 0 41 41" fill="none" xmlns="http://www.w3.org/2000/svg">
<rect x="1" y="0.879883" width="39" height="39" rx="7.5" stroke="#00005F" stroke-opacity="0.08"/>
<path fill-rule="evenodd" clip-rule="evenodd" d="M13 18.9474C13 24.1549 19.3 29.1299 20.5 29.1299C21.7 29.1299 28 24.1549 28 18.9474C28 14.9061 24.6425 11.6299 20.5 11.6299C16.3575 11.6299 13 14.9049 13 18.9474Z" stroke="#8940FF" stroke-width="1.3" stroke-linecap="round" stroke-linejoin="round"/>
<path fill-rule="evenodd" clip-rule="evenodd" d="M22.375 18.5049C22.375 19.0022 22.1775 19.4791 21.8258 19.8307C21.4742 20.1823 20.9973 20.3799 20.5 20.3799C20.0027 20.3799 19.5258 20.1823 19.1742 19.8307C18.8225 19.4791 18.625 19.0022 18.625 18.5049C18.625 18.0076 18.8225 17.5307 19.1742 17.1791C19.5258 16.8274 20.0027 16.6299 20.5 16.6299C20.9973 16.6299 21.4742 16.8274 21.8258 17.1791C22.1775 17.5307 22.375 18.0076 22.375 18.5049Z" stroke="#8940FF" stroke-width="1.875" stroke-linecap="round" stroke-linejoin="round"/>
</svg>
