<svg width="21" height="21" viewBox="0 0 21 21" fill="none" xmlns="http://www.w3.org/2000/svg">
<path fill-rule="evenodd" clip-rule="evenodd" d="M3 8.94738C3 14.1549 9.3 19.1299 10.5 19.1299C11.7 19.1299 18 14.1549 18 8.94738C18 4.90613 14.6425 1.62988 10.5 1.62988C6.3575 1.62988 3 4.90488 3 8.94738Z" stroke="#7234F7" stroke-width="1.3" stroke-linecap="round" stroke-linejoin="round"/>
<path fill-rule="evenodd" clip-rule="evenodd" d="M12.375 8.50488C12.375 9.00216 12.1775 9.47908 11.8258 9.83071C11.4742 10.1823 10.9973 10.3799 10.5 10.3799C10.0027 10.3799 9.52581 10.1823 9.17417 9.83071C8.82254 9.47908 8.625 9.00216 8.625 8.50488C8.625 8.0076 8.82254 7.53069 9.17417 7.17906C9.52581 6.82743 10.0027 6.62988 10.5 6.62988C10.9973 6.62988 11.4742 6.82743 11.8258 7.17906C12.1775 7.53069 12.375 8.0076 12.375 8.50488Z" stroke="#7234F7" stroke-width="1.875" stroke-linecap="round" stroke-linejoin="round"/>
</svg>
