<svg width="16" height="16" viewBox="0 0 16 16" fill="none" xmlns="http://www.w3.org/2000/svg">
<g id="Mic">
<path id="Vector" d="M11.5 7.63C11.5 8.55826 11.1313 9.4485 10.4749 10.1049C9.8185 10.7613 8.92826 11.13 8 11.13C7.07174 11.13 6.1815 10.7613 5.52513 10.1049C4.86875 9.4485 4.5 8.55826 4.5 7.63" stroke="#F23D2C" stroke-miterlimit="10" stroke-linecap="round"/>
<path id="Vector_2" d="M8 11.33V14" stroke="#F23D2C" stroke-miterlimit="10" stroke-linecap="round"/>
<path id="Vector_3" d="M7.54004 14H9.76004" stroke="#F23D2C" stroke-miterlimit="10" stroke-linecap="round"/>
<path id="Vector_4" d="M6.22998 14H8.49998" stroke="#F23D2C" stroke-miterlimit="10" stroke-linecap="round"/>
<path id="Vector_5" d="M9.75 3.75C9.75 2.7835 8.9665 2 8 2C7.0335 2 6.25 2.7835 6.25 3.75V7.37C6.25 8.3365 7.0335 9.12 8 9.12C8.9665 9.12 9.75 8.3365 9.75 7.37V3.75Z" stroke="#F23D2C" stroke-miterlimit="10" stroke-linecap="round"/>
</g>
</svg>
