<svg width="324" height="499" viewBox="0 0 324 499" fill="none" xmlns="http://www.w3.org/2000/svg">
<path fill-rule="evenodd" clip-rule="evenodd" d="M0.000105804 0.66766C-0.000911963 0.665079 -0.00144117 0.663143 0.347205 0.330167C0.695893 -0.00281217 0.696256 -0.00216818 0.697111 0.000413052L0.70106 0.0107425L0.717181 0.0526888C0.731633 0.0907619 0.753332 0.147539 0.782359 0.222395C0.840412 0.3734 0.927574 0.597974 1.0438 0.89546C1.27618 1.49043 1.62463 2.37385 2.08804 3.52766C3.01481 5.83399 4.40128 9.21862 6.23868 13.528C9.91351 22.1461 15.3916 34.4611 22.602 49.2412C37.0231 78.8016 58.371 118.215 86.077 157.628C141.493 236.459 222.313 315.24 323.997 315.24V316.531C222.036 316.531 141.031 237.535 85.5331 158.588C57.7827 119.112 36.4015 79.6372 21.9578 50.0304C14.7358 35.2271 9.24752 22.8895 5.5641 14.2507C3.72241 9.93104 2.33181 6.53672 1.40125 4.22073C0.935964 3.06305 0.585726 2.17445 0.35156 1.57496C0.234516 1.27554 0.14646 1.0484 0.0875513 0.89546C0.0581175 0.818669 0.0359706 0.76123 0.0211519 0.722512L0.00437963 0.678631L0.000105804 0.66766ZM0.0388622 95.6118C0.0378444 95.6099 0.0372747 95.6092 0.347205 95.1904C0.657096 94.7723 0.657422 94.7729 0.658236 94.7742L0.66214 94.7813L0.67814 94.811L0.706433 94.8633L0.743073 94.9304C0.767825 94.9762 0.79787 95.031 0.833247 95.0956L0.889794 95.1988C0.924113 95.2614 0.962178 95.3305 1.00399 95.406C1.23604 95.826 1.58416 96.4507 2.0472 97.2664C2.97329 98.8971 4.35906 101.291 6.19577 104.339C9.86913 110.435 15.3458 119.146 22.5547 129.601C36.9728 150.513 58.3185 178.398 86.0233 206.284C141.434 262.056 222.271 317.822 323.997 317.822V319.112C222.078 319.112 141.09 263.239 85.5869 207.373C57.8352 179.44 36.4518 151.506 22.0051 130.553C14.7816 120.077 9.29185 111.345 5.60697 105.23C3.76454 102.173 2.37329 99.7695 1.44203 98.1298C0.976427 97.3096 0.625786 96.6804 0.391335 96.2558C0.274047 96.0435 0.185868 95.8822 0.126797 95.7738C0.097282 95.7196 0.075054 95.6789 0.0601132 95.6512L0.0432182 95.6202L0.0388622 95.6118ZM0.347205 161.012C0.0851099 161.505 0.0856795 161.507 0.0867379 161.508L0.091094 161.514L0.10807 161.536L0.152078 161.595L0.174916 161.624C0.234069 161.702 0.322371 161.818 0.439742 161.97C0.674398 162.275 1.0252 162.726 1.49105 163.314C2.42264 164.49 3.81429 166.213 5.65704 168.404C9.34258 172.788 14.8328 179.048 22.0566 186.557C36.5042 201.576 57.8869 221.598 85.6365 241.617C141.136 281.657 222.106 321.693 323.997 321.693V320.403C222.243 320.403 141.388 280.421 85.974 240.443C58.2668 220.454 36.9204 200.465 22.5031 185.478C15.2946 177.984 9.81841 171.741 6.14569 167.373C4.30936 165.188 2.9239 163.473 1.99818 162.304C1.53534 161.72 1.18743 161.273 0.955587 160.972C0.905838 160.907 0.861419 160.849 0.822377 160.798C0.770431 160.73 0.727969 160.675 0.694994 160.631C0.666089 160.594 0.644472 160.565 0.630223 160.546L0.614264 160.525L0.610401 160.519C0.610401 160.519 0.609953 160.519 0.601892 160.534C0.598066 160.541 0.592448 160.551 0.584183 160.567C0.568917 160.595 0.544694 160.64 0.506019 160.713L0.347205 161.012ZM0.173126 233.224C0.173126 233.224 0.172882 233.224 0.173126 233.223C0.17337 233.222 0.17402 233.219 0.175527 233.213C0.178539 233.202 0.185014 233.18 0.19853 233.135C0.221572 233.058 0.265173 232.913 0.347205 232.641C0.426592 232.378 0.470153 232.234 0.494172 232.155C0.505367 232.118 0.512288 232.096 0.516644 232.081C0.520837 232.068 0.522543 232.063 0.523317 232.061C0.523805 232.06 0.524013 232.06 0.524013 232.06L0.527876 232.063L0.543876 232.075L0.608732 232.123C0.666541 232.167 0.753495 232.231 0.86948 232.317C1.10145 232.488 1.44953 232.743 1.91253 233.075C2.83853 233.739 4.22435 234.715 6.06114 235.957C9.73466 238.442 15.212 241.992 22.4221 246.253C36.8423 254.776 58.1935 266.143 85.9073 277.51C141.335 300.245 222.213 322.984 323.997 322.984V324.275C222.136 324.275 141.189 301.519 85.7033 278.76C57.9602 267.38 36.5823 256 22.1377 247.462C14.9153 243.194 9.42632 239.636 5.7416 237.145C3.89929 235.898 2.50805 234.919 1.57671 234.251C1.11106 233.917 0.760375 233.66 0.5258 233.487C0.408553 233.4 0.320295 233.335 0.261184 233.291L0.194417 233.24L0.177482 233.228L0.173126 233.224ZM0.347205 290.073C0.29192 290.535 0.277101 290.661 0.273559 290.695C0.272216 290.708 0.272703 290.708 0.272703 290.708L0.276937 290.709L0.293628 290.714L0.359947 290.734C0.418735 290.752 0.506666 290.777 0.623628 290.812L0.733221 290.844L0.868136 290.883C0.942596 290.904 1.02406 290.928 1.11245 290.954C1.27561 291.001 1.46235 291.054 1.67258 291.114C2.60254 291.379 3.99248 291.768 5.83336 292.262C9.51519 293.251 15.0012 294.663 22.2202 296.358C36.6583 299.747 58.029 304.266 85.7636 308.784C141.233 317.82 222.159 326.856 323.997 326.856V325.565C222.19 325.565 141.291 316.532 85.847 307.5C58.1247 302.984 36.7662 298.468 22.3395 295.082C15.1262 293.388 9.64579 291.978 5.96938 290.99C4.13117 290.496 2.74396 290.108 1.81665 289.844C1.353 289.712 1.00427 289.611 0.771693 289.542C0.655382 289.509 0.568103 289.483 0.509927 289.465L0.444627 289.446L0.42842 289.441L0.424431 289.44C0.424431 289.44 0.423983 289.44 0.422314 289.452C0.420726 289.464 0.417799 289.487 0.412221 289.533L0.399844 289.635C0.388526 289.729 0.371794 289.868 0.347205 290.073ZM0.351642 324.92C0.350706 324.92 0.350259 324.92 0.347205 325.565C0.344111 326.211 0.3446 326.211 0.345495 326.211H0.349606H0.356445L0.366054 326.211H0.37843H0.393492H0.411322L0.431881 326.212H0.455167L0.481181 326.212H0.509927L0.541392 326.213H0.575634L0.612555 326.214L0.652211 326.214L0.694587 326.215H0.739698L0.787488 326.216L0.83801 326.216L0.891264 326.217L0.947282 326.218L1.00595 326.218L1.06733 326.22L1.13142 326.22L1.19822 326.221L1.26771 326.221L1.33998 326.223L1.41488 326.223L1.49252 326.224L1.5728 326.225L1.65581 326.226L1.74155 326.227L1.82997 326.229L1.92104 326.229L2.01483 326.231L2.11132 326.232L2.21049 326.233L2.31235 326.234L2.41689 326.236L2.52412 326.237L2.63404 326.238L2.74661 326.24L2.8619 326.241L2.97984 326.242L3.10047 326.243L3.22374 326.245L3.3497 326.247L3.47835 326.248L3.60964 326.25L3.74362 326.251L3.88024 326.253L4.01955 326.254L4.1615 326.256L4.3061 326.258L4.45339 326.26L4.60333 326.262L4.75591 326.263L4.91118 326.265L5.0691 326.267L5.22962 326.269L5.39283 326.271L5.55869 326.273L5.72719 326.275L5.89829 326.277L6.07209 326.279L6.24849 326.281L6.42757 326.283L6.60927 326.285L6.7936 326.288L6.98059 326.29L7.17018 326.292L7.36241 326.294L7.55725 326.297L7.75474 326.3L7.95488 326.302L8.15761 326.304L8.363 326.307L8.57095 326.309L8.78159 326.312L8.99479 326.314L9.21064 326.316L9.42909 326.32L9.65015 326.322L9.87385 326.325L10.1001 326.327L10.329 326.33L10.5606 326.333L10.7946 326.336L11.0314 326.338L11.2707 326.342L11.5126 326.344L11.7571 326.347L12.0042 326.35L12.254 326.353L12.5063 326.356L12.7612 326.359L13.0187 326.362L13.2787 326.365L13.5414 326.369L13.8066 326.372L14.0745 326.375L14.3449 326.378L14.6179 326.382L14.8934 326.385L15.1716 326.388L15.4523 326.391L15.7357 326.394L16.0215 326.398L16.31 326.402L16.601 326.405L16.8946 326.409L17.1907 326.412L17.4894 326.416L17.7907 326.42L18.0946 326.423L18.4009 326.427L18.7099 326.431L19.0214 326.434L19.3355 326.438L19.6521 326.442L19.9713 326.445L20.293 326.449L20.6172 326.453L20.9441 326.457L21.2735 326.461L21.6054 326.465L21.9398 326.469L22.2768 326.473L22.6163 326.477L22.9584 326.481L23.303 326.485L23.6501 326.489L23.9998 326.494L24.352 326.498L24.7067 326.502L25.064 326.506L25.4237 326.511L25.7861 326.515L26.1509 326.52L26.5182 326.523L26.8881 326.528L27.2605 326.533L27.6354 326.537L28.0128 326.542L28.3927 326.546L28.7751 326.551L29.1601 326.555L29.5475 326.56L29.9375 326.565L30.33 326.569L30.7249 326.574L31.1224 326.579L31.5224 326.584L31.9248 326.589L32.3298 326.593L32.7373 326.598L33.1472 326.603L33.5597 326.608L33.9746 326.613L34.392 326.618L34.8119 326.623L35.2343 326.628L35.6592 326.633L36.0865 326.638L36.5163 326.644L36.9487 326.649L37.3834 326.654L37.8207 326.659L38.2605 326.664L38.7027 326.669L39.1474 326.674L39.5945 326.68L40.0441 326.685L40.4962 326.691L40.9509 326.696L41.4076 326.702L41.8673 326.707L42.3293 326.713L42.7934 326.718L43.2604 326.724L43.7298 326.729L44.2016 326.735L44.6755 326.741L45.1522 326.747L45.6314 326.753L46.113 326.758L46.597 326.764L47.0835 326.77L47.5721 326.776L48.0634 326.782L48.5573 326.787L49.0535 326.793L49.5522 326.799L50.053 326.805L50.5566 326.811L51.0626 326.817L51.5711 326.824L52.0816 326.829L52.5949 326.836L53.1103 326.842L53.6286 326.848L54.1489 326.855L54.672 326.86L55.1972 326.867L55.7248 326.873L56.2548 326.88L56.7873 326.886L57.3223 326.892L57.8596 326.898L58.3995 326.905L58.9417 326.911L59.486 326.918L60.0332 326.925L60.5824 326.931L61.1344 326.938L61.6885 326.944L62.245 326.951L62.804 326.958L63.3654 326.964L63.9292 326.971L64.4951 326.978L65.0638 326.985L65.6346 326.992L66.2078 326.998L66.7834 327.006L67.3615 327.013L67.9421 327.019L68.525 327.026L69.11 327.033L69.6975 327.04L70.2874 327.047L70.8797 327.055L71.4745 327.062L72.0713 327.069L72.671 327.076L73.2727 327.083L73.8769 327.09L74.4834 327.098L75.0921 327.105L75.7035 327.112L76.3171 327.12L76.933 327.127L77.551 327.134L78.1718 327.142L78.7947 327.149L79.42 327.157L80.0478 327.164L80.6776 327.171L81.3102 327.179L81.9449 327.187L82.582 327.195L83.2212 327.202L83.8628 327.209L84.5068 327.217L85.1533 327.225L85.8022 327.233L86.4532 327.24L87.1066 327.249L87.7625 327.257L88.4203 327.264L89.0807 327.272L89.7434 327.28L90.4082 327.288L91.0755 327.296L91.7452 327.304L92.4173 327.312L93.0915 327.32L93.7681 327.328L94.4471 327.337L95.1282 327.344L95.8118 327.353L96.4973 327.361L97.1858 327.369L97.8758 327.377L98.5687 327.386L99.2636 327.394L99.961 327.402L100.661 327.411L101.363 327.419L102.067 327.428L102.773 327.436L103.482 327.444L104.193 327.453L104.907 327.462L105.622 327.47L106.34 327.479L107.06 327.487L107.783 327.496L108.507 327.504L109.234 327.513L109.964 327.522L110.696 327.531L111.429 327.539L112.166 327.548L112.904 327.557L113.645 327.566L114.388 327.575L115.133 327.584L115.88 327.593L116.63 327.602L117.382 327.611L118.136 327.62L118.893 327.629L119.652 327.638L120.412 327.647L121.176 327.656L121.941 327.665L122.709 327.675L123.479 327.684L124.251 327.693L125.026 327.702L125.803 327.712L126.581 327.721L127.363 327.73L128.146 327.739L128.932 327.749L129.72 327.759L130.509 327.768L131.302 327.777L132.097 327.787L132.893 327.796L133.693 327.806L134.494 327.815L135.297 327.825L136.103 327.835L136.911 327.844L137.721 327.854L138.534 327.864L139.348 327.873L140.165 327.883L140.984 327.893L141.805 327.903L142.628 327.913L143.454 327.923L144.282 327.933L145.112 327.943L145.944 327.952L146.779 327.963L147.615 327.972L148.454 327.983L149.295 327.992L150.138 328.003L150.984 328.013L151.831 328.023L152.681 328.033L153.533 328.043L154.387 328.054L155.243 328.064L156.102 328.074L156.962 328.085L157.826 328.095L158.691 328.105L159.558 328.115L160.427 328.126L161.299 328.136L162.172 328.146L163.048 328.157L163.926 328.168L164.807 328.178L165.689 328.188L166.573 328.199L167.46 328.21L168.349 328.221L169.24 328.231L170.133 328.242L171.028 328.252L171.926 328.263L172.826 328.274L173.728 328.285L174.631 328.296L175.538 328.306L176.446 328.317L177.356 328.328L178.268 328.339L179.183 328.35L180.1 328.361L181.019 328.372L181.94 328.383L182.863 328.394L183.788 328.405L184.716 328.416L185.646 328.427L186.577 328.439L187.511 328.45L188.447 328.461L189.385 328.472L190.325 328.483L191.267 328.495L192.212 328.506L193.158 328.518L194.107 328.528L195.058 328.54L196.011 328.552L196.966 328.563L197.923 328.574L198.882 328.586L199.843 328.598L200.806 328.608L201.772 328.62L202.74 328.632L203.709 328.643L204.681 328.655L205.655 328.667L206.631 328.678L207.609 328.69L208.589 328.702L209.571 328.714L210.556 328.725L211.542 328.737L212.531 328.749L213.521 328.761L214.514 328.773L215.508 328.785L216.505 328.796L217.504 328.809L218.505 328.82L219.508 328.832L220.513 328.845L221.52 328.856L222.529 328.869L223.54 328.881L224.554 328.893L225.569 328.905L226.587 328.917L227.606 328.929L228.627 328.941L229.651 328.954L230.677 328.966L231.704 328.978L232.734 328.991L233.766 329.003L234.8 329.016L235.836 329.028L236.874 329.04L237.914 329.052L238.956 329.065L240 329.078L241.046 329.09L242.094 329.103L243.145 329.115L244.196 329.128L245.251 329.14L246.307 329.153L247.365 329.166L248.426 329.178L249.488 329.191L250.552 329.204L251.619 329.216L252.687 329.229L253.757 329.242L254.83 329.255L255.904 329.268L256.981 329.281L258.059 329.294L259.14 329.307L260.222 329.32L261.307 329.333L262.393 329.345L263.482 329.358L264.572 329.372L265.665 329.385L266.759 329.398L267.855 329.411L268.954 329.424L270.055 329.437L271.157 329.451L272.262 329.464L273.368 329.477L274.476 329.49L275.587 329.504L276.699 329.516L277.813 329.53L278.93 329.544L280.048 329.556L281.168 329.57L282.291 329.584L283.415 329.597L284.541 329.611L285.669 329.624L286.799 329.638L287.932 329.651L289.066 329.665L290.202 329.678L291.34 329.692L292.48 329.706L293.622 329.719L294.766 329.733L295.912 329.747L297.059 329.76L298.209 329.774L299.361 329.787L300.514 329.802L301.67 329.815L302.828 329.829L303.987 329.843L305.148 329.857L306.312 329.871L307.477 329.885L308.644 329.899L309.814 329.913L310.984 329.927L312.158 329.941L313.333 329.955L314.51 329.969L315.689 329.983L316.869 329.997L318.052 330.011L319.236 330.026L320.423 330.04L321.612 330.054L322.802 330.068L323.994 330.082L324 328.792L322.808 328.778L321.618 328.763L320.429 328.749L319.243 328.735L318.058 328.721L316.875 328.707L315.695 328.692L314.516 328.678L313.339 328.665L312.164 328.65L310.991 328.636L309.82 328.622L308.65 328.608L307.483 328.594L306.318 328.58L305.155 328.567L303.993 328.552L302.834 328.539L301.676 328.525L300.521 328.511L299.367 328.497L298.215 328.483L297.065 328.47L295.918 328.456L294.772 328.442L293.628 328.428L292.486 328.415L291.346 328.401L290.208 328.388L289.072 328.374L287.938 328.361L286.805 328.347L285.675 328.334L284.547 328.32L283.421 328.306L282.297 328.293L281.174 328.279L280.054 328.266L278.936 328.253L277.82 328.239L276.705 328.226L275.593 328.213L274.482 328.199L273.374 328.186L272.268 328.173L271.163 328.16L270.061 328.146L268.96 328.134L267.862 328.12L266.765 328.107L265.671 328.094L264.578 328.081L263.488 328.068L262.399 328.055L261.313 328.042L260.228 328.029L259.146 328.016L258.065 328.003L256.987 327.99L255.911 327.977L254.836 327.964L253.764 327.952L252.693 327.939L251.625 327.926L250.558 327.913L249.494 327.901L248.432 327.888L247.372 327.875L246.313 327.863L245.257 327.85L244.203 327.837L243.151 327.824L242.1 327.812L241.052 327.799L240.006 327.787L238.962 327.775L237.92 327.762L236.88 327.75L235.842 327.737L234.806 327.725L233.773 327.712L232.741 327.7L231.711 327.688L230.683 327.675L229.657 327.663L228.634 327.651L227.612 327.639L226.593 327.626L225.575 327.615L224.56 327.602L223.546 327.59L222.535 327.578L221.526 327.566L220.519 327.554L219.514 327.542L218.511 327.53L217.51 327.518L216.511 327.506L215.514 327.494L214.52 327.482L213.527 327.47L212.537 327.459L211.548 327.446L210.562 327.435L209.577 327.423L208.595 327.411L207.615 327.4L206.637 327.388L205.661 327.376L204.687 327.364L203.715 327.353L202.746 327.341L201.778 327.329L200.813 327.318L199.849 327.307L198.888 327.295L197.929 327.284L196.972 327.272L196.017 327.261L195.064 327.249L194.113 327.238L193.164 327.227L192.218 327.215L191.273 327.204L190.331 327.193L189.391 327.182L188.453 327.17L187.517 327.159L186.583 327.148L185.652 327.137L184.722 327.126L183.794 327.115L182.869 327.104L181.946 327.093L181.025 327.082L180.106 327.071L179.189 327.06L178.275 327.049L177.362 327.038L176.452 327.027L175.544 327.016L174.637 327.005L173.734 326.994L172.832 326.984L171.932 326.973L171.035 326.962L170.139 326.951L169.246 326.94L168.355 326.93L167.466 326.919L166.58 326.909L165.695 326.898L164.813 326.887L163.933 326.877L163.054 326.866L162.178 326.856L161.305 326.846L160.433 326.835L159.564 326.825L158.697 326.815L157.832 326.804L156.969 326.794L156.108 326.784L155.249 326.773L154.393 326.763L153.539 326.753L152.687 326.742L151.837 326.733L150.99 326.722L150.144 326.712L149.301 326.702L148.46 326.692L147.621 326.682L146.785 326.672L145.95 326.662L145.118 326.652L144.288 326.642L143.46 326.632L142.635 326.622L141.811 326.613L140.99 326.602L140.171 326.593L139.354 326.583L138.54 326.573L137.727 326.564L136.917 326.554L136.109 326.544L135.304 326.534L134.5 326.525L133.699 326.515L132.9 326.505L132.103 326.496L131.308 326.487L130.516 326.477L129.726 326.468L128.938 326.458L128.152 326.449L127.369 326.44L126.587 326.43L125.809 326.421L125.032 326.412L124.257 326.402L123.485 326.393L122.715 326.384L121.947 326.374L121.182 326.365L120.419 326.356L119.658 326.347L118.899 326.338L118.142 326.329L117.388 326.32L116.636 326.311L115.886 326.302L115.139 326.293L114.394 326.284L113.651 326.276L112.91 326.267L112.172 326.258L111.436 326.249L110.702 326.24L109.97 326.231L109.241 326.223L108.514 326.214L107.789 326.205L107.067 326.197L106.346 326.188L105.628 326.18L104.913 326.171L104.199 326.162L103.488 326.154L102.779 326.145L102.073 326.137L101.369 326.129L100.667 326.12L99.9671 326.112L99.2697 326.103L98.5748 326.095L97.8823 326.087L97.1919 326.078L96.5034 326.07L95.8179 326.062L95.1343 326.054L94.4533 326.046L93.7742 326.038L93.0976 326.03L92.4234 326.021L91.7513 326.014L91.0816 326.005L90.4144 325.998L89.7495 325.99L89.0868 325.981L88.4264 325.974L87.7686 325.966L87.1127 325.958L86.4593 325.95L85.8083 325.942L85.1594 325.934L84.5133 325.927L83.8693 325.919L83.2273 325.912L82.5881 325.904L81.951 325.896L81.3163 325.889L80.6841 325.881L80.0539 325.874L79.4261 325.866L78.8008 325.859L78.1779 325.851L77.5571 325.843L76.9391 325.836L76.3232 325.829L75.7096 325.821L75.0982 325.814L74.4896 325.807L73.883 325.799L73.2788 325.792L72.6771 325.785L72.0779 325.778L71.4806 325.771L70.8858 325.764L70.2935 325.757L69.7036 325.75L69.1161 325.743L68.5311 325.736L67.9482 325.728L67.3676 325.722L66.7895 325.715L66.2139 325.708L65.6407 325.701L65.0699 325.694L64.5012 325.687L63.9353 325.681L63.3715 325.674L62.8101 325.667L62.2511 325.661L61.6946 325.654L61.1405 325.647L60.5889 325.641L60.0393 325.634L59.4926 325.628L58.9478 325.621L58.4056 325.614L57.8658 325.608L57.3284 325.601L56.7934 325.596L56.2609 325.589L55.7309 325.583L55.2033 325.576L54.6781 325.57L54.155 325.564L53.6347 325.557L53.1164 325.551L52.601 325.545L52.0877 325.539L51.5772 325.533L51.0687 325.526L50.5627 325.521L50.0595 325.515L49.5583 325.508L49.0596 325.503L48.5634 325.497L48.0695 325.491L47.5786 325.485L47.0896 325.479L46.6031 325.474L46.1191 325.468L45.6375 325.462L45.1583 325.456L44.6816 325.45L44.2077 325.445L43.7359 325.439L43.2665 325.434L42.7996 325.428L42.3354 325.423L41.8734 325.417L41.4138 325.411L40.957 325.406L40.5024 325.401L40.0503 325.395L39.6007 325.39L39.1535 325.385L38.7088 325.379L38.2666 325.374L37.8269 325.368L37.3896 325.363L36.9548 325.358L36.5225 325.353L36.0927 325.348L35.6653 325.343L35.2404 325.337L34.8181 325.332L34.3981 325.327L33.9807 325.323L33.5658 325.317L33.1534 325.312L32.7434 325.308L32.3359 325.303L31.931 325.298L31.5285 325.293L31.1285 325.288L30.7311 325.283L30.3361 325.279L29.9436 325.274L29.5537 325.27L29.1662 325.264L28.7813 325.26L28.3988 325.255L28.0189 325.251L27.6415 325.246L27.2666 325.242L26.8943 325.237L26.5244 325.233L26.157 325.229L25.7922 325.224L25.4299 325.22L25.0701 325.215L24.7129 325.212L24.3581 325.207L24.0059 325.203L23.6563 325.199L23.3092 325.195L22.9645 325.19L22.6225 325.186L22.283 325.183L21.946 325.179L21.6115 325.174L21.2796 325.17L20.9503 325.166L20.6234 325.163L20.2991 325.159L19.9774 325.155L19.6583 325.151L19.3417 325.147L19.0276 325.143L18.7161 325.14L18.4071 325.136L18.1007 325.132L17.7968 325.129L17.4956 325.125L17.1968 325.121L16.9007 325.118L16.6071 325.115L16.3161 325.111L16.0276 325.108L15.7418 325.104L15.4585 325.101L15.1778 325.097L14.8996 325.094L14.624 325.091L14.351 325.088L14.0806 325.084L13.8128 325.081L13.5475 325.078L13.2849 325.075L13.0248 325.072L12.7673 325.068L12.5124 325.066L12.2601 325.063L12.0104 325.059L11.7633 325.057L11.5188 325.053L11.2768 325.051L11.0375 325.048L10.8008 325.045L10.5667 325.043L10.3352 325.039L10.1063 325.037L9.88 325.034L9.6563 325.032L9.43524 325.029L9.21678 325.026L9.00094 325.024L8.78769 325.021L8.5771 325.019L8.36911 325.016L8.16376 325.013L7.96102 325.011L7.76089 325.009L7.5634 325.006L7.36856 325.004L7.17628 325.002L6.98669 324.999L6.79975 324.997L6.61541 324.995L6.43368 324.993L6.25463 324.991L6.07824 324.988L5.90444 324.986L5.73329 324.984L5.56483 324.982L5.39898 324.981L5.23577 324.979L5.07521 324.977L4.91733 324.975L4.76206 324.973L4.60948 324.971L4.45954 324.969L4.31225 324.968L4.16764 324.966L4.0257 324.964L3.88639 324.962L3.74976 324.961L3.61579 324.959L3.48449 324.957L3.35585 324.956L3.22988 324.955L3.10657 324.953L2.98599 324.952L2.86801 324.95L2.7528 324.949L2.64015 324.948L2.53028 324.946L2.42304 324.945L2.31849 324.944L2.21664 324.943L2.11747 324.941L2.02098 324.94L1.92718 324.939L1.83608 324.938L1.74769 324.937L1.662 324.936L1.57894 324.935L1.49862 324.933L1.42103 324.933L1.34608 324.932L1.2739 324.931L1.20437 324.93L1.13756 324.93L1.07348 324.929L1.01205 324.928L0.953384 324.927L0.897448 324.926L0.844162 324.926L0.79364 324.925H0.745805L0.700734 324.924L0.658354 324.924L0.618702 324.923L0.581741 324.922H0.547544L0.516074 324.922H0.487333L0.461318 324.921H0.437991L0.417473 324.921H0.39964H0.384576H0.3722L0.362634 324.92H0.355754H0.351642ZM0.347205 498.508C0.0851099 498.014 0.0856795 498.013 0.0867379 498.012L0.091094 498.006L0.10807 497.984L0.112059 497.978L0.147926 497.931L0.174916 497.895L0.224828 497.829L0.281539 497.755C0.326524 497.696 0.379284 497.628 0.439742 497.549C0.674398 497.245 1.0252 496.794 1.49105 496.206C2.42264 495.029 3.81425 493.307 5.65704 491.115C9.34258 486.731 14.8328 480.472 22.0566 472.962C36.5042 457.943 57.8869 437.922 85.6365 417.902C141.136 377.862 222.106 337.826 323.997 337.826V339.117C222.243 339.117 141.388 379.099 85.974 419.077C58.2668 439.066 36.9204 459.054 22.5031 474.041C15.2946 481.535 9.81841 487.779 6.14569 492.147C4.30936 494.331 2.9239 496.047 1.99818 497.215C1.53534 497.8 1.18743 498.247 0.955587 498.548C0.839643 498.699 0.752721 498.812 0.694994 498.888C0.671789 498.919 0.653306 498.943 0.639546 498.961L0.630223 498.974L0.614264 498.995L0.610401 499C0.610401 499 0.609831 499.001 0.59029 498.965C0.563258 498.914 0.499302 498.794 0.347205 498.508ZM0.173126 425.65C0.172068 425.65 0.171498 425.651 0.347205 426.233C0.522873 426.815 0.523199 426.815 0.524013 426.815L0.527876 426.811L0.543876 426.8L0.608732 426.751C0.666541 426.707 0.753495 426.643 0.86948 426.557C0.964702 426.487 1.07947 426.403 1.21373 426.305C1.29576 426.245 1.38508 426.18 1.48165 426.11C1.61204 426.016 1.75567 425.912 1.91253 425.8C2.83853 425.135 4.22435 424.159 6.06114 422.917C9.73466 420.433 15.212 416.883 22.4221 412.621C36.8423 404.098 58.1935 392.731 85.9073 381.364C141.335 358.629 222.213 335.89 323.997 335.89V334.6C222.136 334.6 141.189 357.355 85.7033 380.114C57.9602 391.494 36.5823 402.874 22.1377 411.412C14.9153 415.68 9.42632 419.238 5.7416 421.73C3.89929 422.976 2.50805 423.955 1.57671 424.624C1.11106 424.957 0.760375 425.214 0.5258 425.387C0.459808 425.436 0.403019 425.478 0.355428 425.514C0.318422 425.541 0.287035 425.565 0.261184 425.584L0.194417 425.634L0.177482 425.647L0.173126 425.65ZM0.347205 368.156C0.271198 367.522 0.271726 367.521 0.272703 367.521L0.276937 367.52L0.293628 367.515L0.359947 367.495C0.418735 367.478 0.506666 367.452 0.623628 367.417C0.857551 367.349 1.20759 367.247 1.67258 367.115C2.60254 366.849 3.99248 366.461 5.83336 365.967C9.51519 364.978 15.0012 363.565 22.2202 361.871C36.6583 358.482 58.029 353.963 85.7636 349.445C141.233 340.409 222.159 331.373 323.997 331.373V332.664C222.19 332.664 141.291 341.697 85.847 350.729C58.1247 355.245 36.7662 359.761 22.3395 363.147C15.1262 364.841 9.64579 366.252 5.96938 367.239C4.13117 367.733 2.74396 368.121 1.81665 368.385C1.53661 368.465 1.29849 368.533 1.10255 368.59C0.97411 368.627 0.86378 368.659 0.771693 368.687C0.655382 368.721 0.568103 368.747 0.509927 368.763L0.444627 368.783L0.42842 368.788L0.424431 368.789C0.423576 368.789 0.423173 368.79 0.347205 368.156Z" fill="url(#paint0_linear_9356_46785)"/>
<defs>
<linearGradient id="paint0_linear_9356_46785" x1="319.112" y1="242.956" x2="6.28302" y2="242.956" gradientUnits="userSpaceOnUse">
<stop offset="0.0182341" stop-color="#FD4B28" stop-opacity="0"/>
<stop offset="0.127609" stop-color="#FD4B28"/>
<stop offset="0.563305" stop-color="#FD4C28" stop-opacity="0.65"/>
<stop offset="0.943305" stop-color="#FD4C28" stop-opacity="0"/>
</linearGradient>
</defs>
</svg>
