<svg width="325" height="499" viewBox="0 0 325 499" fill="none" xmlns="http://www.w3.org/2000/svg">
<path fill-rule="evenodd" clip-rule="evenodd" d="M325 0.66766C325.001 0.665079 325.001 0.663143 324.652 0.330167C324.302 -0.00281217 324.302 -0.00216818 324.301 0.000413052L324.297 0.0107425L324.281 0.0526888C324.266 0.0907619 324.244 0.147539 324.215 0.222395C324.157 0.3734 324.07 0.597974 323.953 0.89546C323.72 1.49043 323.37 2.37385 322.906 3.52766C321.976 5.83399 320.585 9.21862 318.742 13.528C315.056 22.1461 309.561 34.4611 302.328 49.2412C287.863 78.8016 266.449 118.215 238.657 157.628C183.07 236.459 102.001 315.24 0.00286865 315.24V316.531C102.278 316.531 183.534 237.535 239.203 158.588C267.039 119.112 288.486 79.6372 302.974 50.0304C310.219 35.2271 315.724 22.8895 319.419 14.2507C321.266 9.93104 322.661 6.53672 323.594 4.22073C324.061 3.06305 324.412 2.17445 324.647 1.57496C324.765 1.27554 324.853 1.0484 324.912 0.89546C324.942 0.818669 324.964 0.76123 324.979 0.722512L324.996 0.678631L325 0.66766ZM324.961 95.6118C324.962 95.6099 324.963 95.6092 324.652 95.1904C324.341 94.7723 324.341 94.7729 324.34 94.7742L324.336 94.7813L324.32 94.811L324.291 94.8633L324.255 94.9304C324.23 94.9762 324.2 95.031 324.164 95.0956L324.107 95.1988C324.073 95.2614 324.035 95.3305 323.993 95.406C323.76 95.826 323.411 96.4507 322.946 97.2664C322.018 98.8971 320.627 101.291 318.785 104.339C315.1 110.435 309.607 119.146 302.376 129.601C287.913 150.513 266.502 178.398 238.711 206.284C183.13 262.056 102.043 317.822 0.00286865 317.822V319.112C102.237 319.112 183.474 263.239 239.149 207.373C266.986 179.44 288.436 151.506 302.927 130.553C310.173 120.077 315.679 111.345 319.376 105.23C321.224 102.173 322.619 99.7695 323.554 98.1298C324.021 97.3096 324.372 96.6804 324.607 96.2558C324.725 96.0435 324.814 95.8822 324.873 95.7738C324.902 95.7196 324.925 95.6789 324.94 95.6512L324.957 95.6202L324.961 95.6118ZM324.652 161.012C324.915 161.505 324.914 161.507 324.913 161.508L324.909 161.514L324.892 161.536L324.847 161.595L324.825 161.624C324.765 161.702 324.677 161.818 324.559 161.97C324.324 162.275 323.972 162.726 323.504 163.314C322.57 164.49 321.174 166.213 319.325 168.404C315.629 172.788 310.121 179.048 302.875 186.557C288.383 201.576 266.934 221.598 239.099 241.617C183.428 281.657 102.208 321.693 0.00286865 321.693V320.403C102.071 320.403 183.176 280.421 238.761 240.443C266.553 220.454 287.966 200.465 302.427 185.478C309.658 177.984 315.151 171.741 318.835 167.373C320.677 165.188 322.067 163.473 322.996 162.304C323.46 161.72 323.809 161.273 324.041 160.972C324.091 160.907 324.136 160.849 324.175 160.798C324.227 160.73 324.27 160.675 324.303 160.631C324.332 160.594 324.354 160.565 324.368 160.546L324.384 160.525L324.388 160.519C324.388 160.519 324.388 160.519 324.396 160.534C324.4 160.541 324.406 160.551 324.414 160.567C324.429 160.595 324.454 160.64 324.492 160.713L324.652 161.012ZM324.826 233.224C324.826 233.224 324.827 233.224 324.826 233.223C324.826 233.222 324.825 233.219 324.824 233.213C324.821 233.202 324.814 233.18 324.801 233.135C324.778 233.058 324.734 232.913 324.652 232.641C324.572 232.378 324.528 232.234 324.504 232.155C324.493 232.118 324.486 232.096 324.482 232.081C324.478 232.068 324.476 232.063 324.475 232.061C324.475 232.06 324.474 232.06 324.474 232.06L324.47 232.063L324.454 232.075L324.389 232.123C324.331 232.167 324.244 232.231 324.128 232.317C323.895 232.488 323.546 232.743 323.082 233.075C322.153 233.739 320.763 234.715 318.92 235.957C315.235 238.442 309.741 241.992 302.509 246.253C288.044 254.776 266.627 266.143 238.828 277.51C183.229 300.245 102.101 322.984 0.00286865 322.984V324.275C102.178 324.275 183.375 301.519 239.032 278.76C266.861 267.38 288.305 256 302.794 247.462C310.039 243.194 315.545 239.636 319.241 237.145C321.089 235.898 322.484 234.919 323.418 234.251C323.886 233.917 324.237 233.66 324.473 233.487C324.59 233.4 324.679 233.335 324.738 233.291L324.805 233.24L324.822 233.228L324.826 233.224ZM324.652 290.073C324.707 290.535 324.722 290.661 324.726 290.695C324.727 290.708 324.726 290.708 324.726 290.708L324.722 290.709L324.705 290.714L324.639 290.734C324.58 290.752 324.492 290.777 324.374 290.812L324.265 290.844L324.129 290.883C324.054 290.904 323.973 290.928 323.884 290.954C323.72 291.001 323.533 291.054 323.322 291.114C322.389 291.379 320.995 291.768 319.149 292.262C315.455 293.251 309.952 294.663 302.711 296.358C288.229 299.747 266.792 304.266 238.972 308.784C183.331 317.82 102.155 326.856 0.00286865 326.856V325.565C102.125 325.565 183.273 316.532 238.888 307.5C266.696 302.984 288.12 298.468 302.592 295.082C309.827 293.388 315.324 291.978 319.012 290.99C320.856 290.496 322.248 290.108 323.178 289.844C323.643 289.712 323.993 289.611 324.226 289.542C324.343 289.509 324.43 289.483 324.488 289.465L324.554 289.446L324.57 289.441L324.574 289.44C324.574 289.44 324.575 289.44 324.576 289.452C324.578 289.464 324.581 289.487 324.587 289.533L324.599 289.635C324.61 289.729 324.627 289.868 324.652 290.073ZM324.647 324.92C324.648 324.92 324.649 324.92 324.652 325.565C324.655 326.211 324.654 326.211 324.653 326.211H324.649H324.642L324.633 326.211H324.62H324.605H324.587L324.567 326.212H324.543L324.517 326.212H324.488L324.457 326.213H324.423L324.386 326.214L324.346 326.214L324.303 326.215H324.258L324.21 326.216L324.159 326.216L324.106 326.217L324.05 326.218L323.991 326.218L323.929 326.22L323.865 326.22L323.798 326.221L323.728 326.221L323.656 326.223L323.581 326.223L323.503 326.224L323.422 326.225L323.339 326.226L323.253 326.227L323.164 326.229L323.073 326.229L322.979 326.231L322.882 326.232L322.783 326.233L322.681 326.234L322.576 326.236L322.468 326.237L322.358 326.238L322.245 326.24L322.129 326.241L322.011 326.242L321.89 326.243L321.766 326.245L321.64 326.247L321.511 326.248L321.379 326.25L321.245 326.251L321.108 326.253L320.968 326.254L320.826 326.256L320.681 326.258L320.533 326.26L320.382 326.262L320.229 326.263L320.074 326.265L319.915 326.267L319.754 326.269L319.591 326.271L319.424 326.273L319.255 326.275L319.084 326.277L318.909 326.279L318.732 326.281L318.553 326.283L318.37 326.285L318.185 326.288L317.998 326.29L317.808 326.292L317.615 326.294L317.419 326.297L317.221 326.3L317.021 326.302L316.817 326.304L316.611 326.307L316.403 326.309L316.191 326.312L315.977 326.314L315.761 326.316L315.542 326.32L315.32 326.322L315.096 326.325L314.869 326.327L314.639 326.33L314.407 326.333L314.172 326.336L313.935 326.338L313.694 326.342L313.452 326.344L313.207 326.347L312.959 326.35L312.708 326.353L312.455 326.356L312.199 326.359L311.941 326.362L311.68 326.365L311.417 326.369L311.151 326.372L310.882 326.375L310.611 326.378L310.337 326.382L310.061 326.385L309.782 326.388L309.5 326.391L309.216 326.394L308.929 326.398L308.64 326.402L308.348 326.405L308.053 326.409L307.756 326.412L307.457 326.416L307.154 326.42L306.85 326.423L306.542 326.427L306.232 326.431L305.92 326.434L305.605 326.438L305.287 326.442L304.967 326.445L304.644 326.449L304.319 326.453L303.991 326.457L303.661 326.461L303.328 326.465L302.992 326.469L302.654 326.473L302.314 326.477L301.971 326.481L301.625 326.485L301.277 326.489L300.926 326.494L300.573 326.498L300.217 326.502L299.859 326.506L299.498 326.511L299.134 326.515L298.768 326.52L298.4 326.523L298.029 326.528L297.655 326.533L297.279 326.537L296.901 326.542L296.52 326.546L296.136 326.551L295.75 326.555L295.361 326.56L294.97 326.565L294.576 326.569L294.18 326.574L293.782 326.579L293.38 326.584L292.977 326.589L292.57 326.593L292.162 326.598L291.75 326.603L291.337 326.608L290.921 326.613L290.502 326.618L290.081 326.623L289.657 326.628L289.231 326.633L288.802 326.638L288.371 326.644L287.937 326.649L287.501 326.654L287.063 326.659L286.621 326.664L286.178 326.669L285.732 326.674L285.283 326.68L284.832 326.685L284.379 326.691L283.923 326.696L283.465 326.702L283.004 326.707L282.54 326.713L282.074 326.718L281.606 326.724L281.135 326.729L280.662 326.735L280.187 326.741L279.708 326.747L279.228 326.753L278.745 326.758L278.259 326.764L277.771 326.77L277.281 326.776L276.788 326.782L276.293 326.787L275.795 326.793L275.295 326.799L274.793 326.805L274.287 326.811L273.78 326.817L273.27 326.824L272.758 326.829L272.243 326.836L271.726 326.842L271.206 326.848L270.684 326.855L270.159 326.86L269.632 326.867L269.103 326.873L268.572 326.88L268.037 326.886L267.501 326.892L266.962 326.898L266.42 326.905L265.876 326.911L265.33 326.918L264.782 326.925L264.231 326.931L263.677 326.938L263.121 326.944L262.563 326.951L262.002 326.958L261.439 326.964L260.873 326.971L260.306 326.978L259.735 326.985L259.163 326.992L258.588 326.998L258.01 327.006L257.431 327.013L256.848 327.019L256.263 327.026L255.677 327.033L255.087 327.04L254.496 327.047L253.901 327.055L253.305 327.062L252.706 327.069L252.105 327.076L251.501 327.083L250.895 327.09L250.287 327.098L249.676 327.105L249.063 327.112L248.447 327.12L247.83 327.127L247.21 327.134L246.587 327.142L245.962 327.149L245.335 327.157L244.705 327.164L244.073 327.171L243.439 327.179L242.802 327.187L242.163 327.195L241.522 327.202L240.878 327.209L240.232 327.217L239.584 327.225L238.933 327.233L238.28 327.24L237.625 327.249L236.967 327.257L236.307 327.264L235.644 327.272L234.98 327.28L234.313 327.288L233.643 327.296L232.972 327.304L232.297 327.312L231.621 327.32L230.943 327.328L230.261 327.337L229.578 327.344L228.893 327.353L228.205 327.361L227.514 327.369L226.822 327.377L226.127 327.386L225.43 327.394L224.73 327.402L224.029 327.411L223.324 327.419L222.618 327.428L221.91 327.436L221.199 327.444L220.485 327.453L219.77 327.462L219.052 327.47L218.332 327.479L217.609 327.487L216.885 327.496L216.158 327.504L215.428 327.513L214.697 327.522L213.963 327.531L213.227 327.539L212.488 327.548L211.748 327.557L211.005 327.566L210.259 327.575L209.512 327.584L208.762 327.593L208.01 327.602L207.256 327.611L206.499 327.62L205.74 327.629L204.979 327.638L204.216 327.647L203.45 327.656L202.683 327.665L201.912 327.675L201.14 327.684L200.365 327.693L199.588 327.702L198.809 327.712L198.028 327.721L197.244 327.73L196.459 327.739L195.671 327.749L194.88 327.759L194.088 327.768L193.293 327.777L192.496 327.787L191.696 327.796L190.895 327.806L190.091 327.815L189.285 327.825L188.477 327.835L187.667 327.844L186.854 327.854L186.039 327.864L185.222 327.873L184.403 327.883L183.581 327.893L182.757 327.903L181.932 327.913L181.103 327.923L180.273 327.933L179.44 327.943L178.605 327.952L177.768 327.963L176.929 327.972L176.088 327.983L175.244 327.992L174.398 328.003L173.55 328.013L172.7 328.023L171.848 328.033L170.993 328.043L170.136 328.054L169.278 328.064L168.416 328.074L167.553 328.085L166.687 328.095L165.82 328.105L164.95 328.115L164.078 328.126L163.204 328.136L162.327 328.146L161.448 328.157L160.568 328.168L159.685 328.178L158.8 328.188L157.912 328.199L157.023 328.21L156.132 328.221L155.238 328.231L154.342 328.242L153.444 328.252L152.543 328.263L151.641 328.274L150.736 328.285L149.83 328.296L148.921 328.306L148.01 328.317L147.097 328.328L146.181 328.339L145.264 328.35L144.344 328.361L143.422 328.372L142.498 328.383L141.573 328.394L140.644 328.405L139.714 328.416L138.781 328.427L137.847 328.439L136.91 328.45L135.971 328.461L135.031 328.472L134.087 328.483L133.142 328.495L132.195 328.506L131.246 328.518L130.294 328.528L129.34 328.54L128.385 328.552L127.426 328.563L126.466 328.574L125.504 328.586L124.54 328.598L123.574 328.608L122.605 328.62L121.635 328.632L120.662 328.643L119.687 328.655L118.71 328.667L117.732 328.678L116.751 328.69L115.767 328.702L114.782 328.714L113.795 328.725L112.805 328.737L111.814 328.749L110.82 328.761L109.824 328.773L108.827 328.785L107.827 328.796L106.825 328.809L105.821 328.82L104.815 328.832L103.807 328.845L102.796 328.856L101.784 328.869L100.77 328.881L99.7533 328.893L98.7349 328.905L97.714 328.917L96.6914 328.929L95.6669 328.941L94.6398 328.954L93.6112 328.966L92.5804 328.978L91.5473 328.991L90.5125 329.003L89.4753 329.016L88.436 329.028L87.3951 329.04L86.3517 329.052L85.3067 329.065L84.2592 329.078L83.2101 329.09L82.1586 329.103L81.105 329.115L80.0498 329.128L78.9922 329.14L77.9329 329.153L76.8711 329.166L75.8077 329.178L74.7419 329.191L73.6745 329.204L72.6045 329.216L71.533 329.229L70.4594 329.242L69.3834 329.255L68.3057 329.268L67.226 329.281L66.1442 329.294L65.0604 329.307L63.9746 329.32L62.8867 329.333L61.7968 329.345L60.7053 329.358L59.6112 329.372L58.5152 329.385L57.4175 329.398L56.3178 329.411L55.2156 329.424L54.1118 329.437L53.006 329.451L51.8981 329.464L50.7886 329.477L49.6766 329.49L48.5626 329.504L47.4469 329.516L46.3293 329.53L45.2091 329.544L44.0873 329.556L42.9639 329.57L41.838 329.584L40.7102 329.597L39.5806 329.611L38.4491 329.624L37.3154 329.638L36.1798 329.651L35.0421 329.665L33.9023 329.678L32.761 329.692L31.6176 329.706L30.4721 329.719L29.3246 329.733L28.175 329.747L27.0239 329.76L25.8707 329.774L24.7154 329.787L23.5581 329.802L22.3991 329.815L21.2378 329.829L20.0747 329.843L18.9097 329.857L17.743 329.871L16.5738 329.885L15.403 329.899L14.2303 329.913L13.0558 329.927L11.8789 329.941L10.7003 329.955L9.51978 329.969L8.33716 329.983L7.15292 329.997L5.96661 330.011L4.77829 330.026L3.58832 330.04L2.39587 330.054L1.20181 330.068L0.00613403 330.082L0 328.792L1.19571 328.778L2.38977 328.763L3.58218 328.749L4.77216 328.735L5.96048 328.721L7.14679 328.707L8.33102 328.692L9.51364 328.678L10.6942 328.665L11.8728 328.65L13.0493 328.636L14.2241 328.622L15.3969 328.608L16.5677 328.594L17.7368 328.58L18.9036 328.567L20.0686 328.552L21.2316 328.539L22.393 328.525L23.5519 328.511L24.7093 328.497L25.8645 328.483L27.0177 328.47L28.1689 328.456L29.3185 328.442L30.466 328.428L31.6114 328.415L32.7548 328.401L33.8962 328.388L35.0359 328.374L36.1736 328.361L37.3093 328.347L38.4429 328.334L39.5745 328.32L40.704 328.306L41.8319 328.293L42.9578 328.279L44.0812 328.266L45.2029 328.253L46.3227 328.239L47.4408 328.226L48.5565 328.213L49.6704 328.199L50.782 328.186L51.8919 328.173L52.9998 328.16L54.1057 328.146L55.2095 328.134L56.3116 328.12L57.4114 328.107L58.5091 328.094L59.6051 328.081L60.6991 328.068L61.7907 328.055L62.8806 328.042L63.9685 328.029L65.0543 328.016L66.1381 328.003L67.2199 327.99L68.2996 327.977L69.3773 327.964L70.4533 327.952L71.5269 327.939L72.5984 327.926L73.6684 327.913L74.7358 327.901L75.8016 327.888L76.865 327.875L77.9267 327.863L78.986 327.85L80.0437 327.837L81.0989 327.824L82.1525 327.812L83.2036 327.799L84.2531 327.787L85.3006 327.775L86.3456 327.762L87.3889 327.75L88.4298 327.737L89.4691 327.725L90.506 327.712L91.5412 327.7L92.5739 327.688L93.605 327.675L94.6337 327.663L95.6607 327.651L96.6853 327.639L97.7079 327.626L98.7284 327.615L99.7472 327.602L100.764 327.59L101.778 327.578L102.79 327.566L103.8 327.554L104.808 327.542L105.815 327.53L106.819 327.518L107.821 327.506L108.821 327.494L109.818 327.482L110.814 327.47L111.807 327.459L112.799 327.446L113.788 327.435L114.776 327.423L115.761 327.411L116.744 327.4L117.725 327.388L118.704 327.376L119.681 327.364L120.656 327.353L121.629 327.341L122.599 327.329L123.567 327.318L124.534 327.307L125.498 327.295L126.46 327.284L127.42 327.272L128.378 327.261L129.334 327.249L130.288 327.238L131.239 327.227L132.189 327.215L133.136 327.204L134.081 327.193L135.025 327.182L135.965 327.17L136.904 327.159L137.841 327.148L138.775 327.137L139.708 327.126L140.638 327.115L141.566 327.104L142.492 327.093L143.416 327.082L144.338 327.071L145.258 327.06L146.175 327.049L147.09 327.038L148.004 327.027L148.915 327.016L149.824 327.005L150.73 326.994L151.635 326.984L152.537 326.973L153.438 326.962L154.336 326.951L155.232 326.94L156.125 326.93L157.017 326.919L157.906 326.909L158.794 326.898L159.679 326.887L160.561 326.877L161.442 326.866L162.321 326.856L163.197 326.846L164.072 326.835L164.944 326.825L165.813 326.815L166.681 326.804L167.547 326.794L168.41 326.784L169.271 326.773L170.13 326.763L170.987 326.753L171.842 326.742L172.694 326.733L173.544 326.722L174.392 326.712L175.238 326.702L176.082 326.692L176.923 326.682L177.762 326.672L178.599 326.662L179.434 326.652L180.267 326.642L181.097 326.632L181.925 326.622L182.751 326.613L183.575 326.602L184.396 326.593L185.216 326.583L186.033 326.573L186.848 326.564L187.66 326.554L188.471 326.544L189.279 326.534L190.085 326.525L190.889 326.515L191.69 326.505L192.489 326.496L193.287 326.487L194.081 326.477L194.874 326.468L195.664 326.458L196.453 326.449L197.238 326.44L198.022 326.43L198.803 326.421L199.582 326.412L200.359 326.402L201.134 326.393L201.906 326.384L202.676 326.374L203.444 326.365L204.21 326.356L204.973 326.347L205.734 326.338L206.493 326.329L207.25 326.32L208.004 326.311L208.756 326.302L209.506 326.293L210.253 326.284L210.998 326.276L211.741 326.267L212.482 326.258L213.22 326.249L213.957 326.24L214.69 326.231L215.422 326.223L216.152 326.214L216.878 326.205L217.603 326.197L218.326 326.188L219.046 326.18L219.764 326.171L220.479 326.162L221.192 326.154L221.903 326.145L222.612 326.137L223.318 326.129L224.022 326.12L224.724 326.112L225.424 326.103L226.121 326.095L226.816 326.087L227.508 326.078L228.199 326.07L228.886 326.062L229.572 326.054L230.255 326.046L230.936 326.038L231.615 326.03L232.291 326.021L232.966 326.014L233.637 326.005L234.307 325.998L234.973 325.99L235.638 325.981L236.301 325.974L236.961 325.966L237.618 325.958L238.274 325.95L238.927 325.942L239.578 325.934L240.226 325.927L240.872 325.919L241.516 325.912L242.157 325.904L242.796 325.896L243.433 325.889L244.067 325.881L244.699 325.874L245.329 325.866L245.956 325.859L246.581 325.851L247.204 325.843L247.823 325.836L248.441 325.829L249.057 325.821L249.67 325.814L250.281 325.807L250.889 325.799L251.495 325.792L252.099 325.785L252.7 325.778L253.299 325.771L253.895 325.764L254.49 325.757L255.081 325.75L255.671 325.743L256.257 325.736L256.842 325.728L257.424 325.722L258.004 325.715L258.582 325.708L259.157 325.701L259.729 325.694L260.3 325.687L260.867 325.681L261.433 325.674L261.996 325.667L262.557 325.661L263.115 325.654L263.671 325.647L264.224 325.641L264.775 325.634L265.324 325.628L265.87 325.621L266.414 325.614L266.956 325.608L267.495 325.601L268.031 325.596L268.565 325.589L269.097 325.583L269.626 325.576L270.153 325.57L270.678 325.564L271.2 325.557L271.72 325.551L272.237 325.545L272.752 325.539L273.264 325.533L273.774 325.526L274.281 325.521L274.786 325.515L275.289 325.508L275.789 325.503L276.287 325.497L276.782 325.491L277.275 325.485L277.765 325.479L278.253 325.474L278.739 325.468L279.222 325.462L279.702 325.456L280.18 325.45L280.656 325.445L281.129 325.439L281.6 325.434L282.068 325.428L282.534 325.423L282.997 325.417L283.458 325.411L283.917 325.406L284.373 325.401L284.826 325.395L285.277 325.39L285.726 325.385L286.172 325.379L286.615 325.374L287.056 325.368L287.495 325.363L287.931 325.358L288.365 325.353L288.796 325.348L289.225 325.343L289.651 325.337L290.074 325.332L290.496 325.327L290.914 325.323L291.331 325.317L291.744 325.312L292.156 325.308L292.564 325.303L292.97 325.298L293.374 325.293L293.775 325.288L294.174 325.283L294.57 325.279L294.964 325.274L295.355 325.27L295.744 325.264L296.13 325.26L296.514 325.255L296.895 325.251L297.273 325.246L297.649 325.242L298.023 325.237L298.394 325.233L298.762 325.229L299.128 325.224L299.492 325.22L299.852 325.215L300.211 325.212L300.567 325.207L300.92 325.203L301.271 325.199L301.619 325.195L301.965 325.19L302.308 325.186L302.648 325.183L302.986 325.179L303.322 325.174L303.655 325.17L303.985 325.166L304.313 325.163L304.638 325.159L304.961 325.155L305.281 325.151L305.599 325.147L305.914 325.143L306.226 325.14L306.536 325.136L306.843 325.132L307.148 325.129L307.45 325.125L307.75 325.121L308.047 325.118L308.342 325.115L308.634 325.111L308.923 325.108L309.21 325.104L309.494 325.101L309.775 325.097L310.054 325.094L310.331 325.091L310.605 325.088L310.876 325.084L311.145 325.081L311.411 325.078L311.674 325.075L311.935 325.072L312.193 325.068L312.449 325.066L312.702 325.063L312.953 325.059L313.2 325.057L313.446 325.053L313.688 325.051L313.928 325.048L314.166 325.045L314.401 325.043L314.633 325.039L314.863 325.037L315.09 325.034L315.314 325.032L315.536 325.029L315.755 325.026L315.971 325.024L316.185 325.021L316.396 325.019L316.605 325.016L316.811 325.013L317.014 325.011L317.215 325.009L317.413 325.006L317.609 325.004L317.802 325.002L317.992 324.999L318.179 324.997L318.364 324.995L318.546 324.993L318.726 324.991L318.903 324.988L319.077 324.986L319.249 324.984L319.418 324.982L319.584 324.981L319.748 324.979L319.909 324.977L320.067 324.975L320.223 324.973L320.376 324.971L320.527 324.969L320.674 324.968L320.819 324.966L320.962 324.964L321.102 324.962L321.239 324.961L321.373 324.959L321.505 324.957L321.634 324.956L321.76 324.955L321.884 324.953L322.005 324.952L322.123 324.95L322.239 324.949L322.352 324.948L322.462 324.946L322.569 324.945L322.674 324.944L322.777 324.943L322.876 324.941L322.973 324.94L323.067 324.939L323.158 324.938L323.247 324.937L323.333 324.936L323.416 324.935L323.497 324.933L323.575 324.933L323.65 324.932L323.722 324.931L323.792 324.93L323.859 324.93L323.923 324.929L323.985 324.928L324.044 324.927L324.1 324.926L324.153 324.926L324.204 324.925H324.252L324.297 324.924L324.34 324.924L324.379 324.923L324.416 324.922H324.451L324.482 324.922H324.511L324.537 324.921H324.561L324.581 324.921H324.599H324.614H324.627L324.636 324.92H324.643H324.647ZM324.652 498.508C324.915 498.014 324.914 498.013 324.913 498.012L324.909 498.006L324.892 497.984L324.888 497.978L324.852 497.931L324.825 497.895L324.774 497.829L324.718 497.755C324.672 497.696 324.62 497.628 324.559 497.549C324.324 497.245 323.972 496.794 323.504 496.206C322.57 495.029 321.174 493.307 319.325 491.115C315.629 486.731 310.121 480.472 302.875 472.962C288.383 457.943 266.934 437.922 239.099 417.902C183.428 377.862 102.208 337.826 0.00286865 337.826V339.117C102.071 339.117 183.176 379.099 238.761 419.077C266.553 439.066 287.966 459.054 302.427 474.041C309.658 481.535 315.151 487.779 318.835 492.147C320.677 494.331 322.067 496.047 322.996 497.215C323.46 497.8 323.809 498.247 324.041 498.548C324.158 498.699 324.245 498.812 324.303 498.888C324.326 498.919 324.345 498.943 324.358 498.961L324.368 498.974L324.384 498.995L324.388 499C324.388 499 324.388 499.001 324.408 498.965C324.435 498.914 324.499 498.794 324.652 498.508ZM324.826 425.65C324.827 425.65 324.828 425.651 324.652 426.233C324.476 426.815 324.475 426.815 324.474 426.815L324.47 426.811L324.454 426.8L324.389 426.751C324.331 426.707 324.244 426.643 324.128 426.557C324.032 426.487 323.917 426.403 323.783 426.305C323.7 426.245 323.611 426.18 323.514 426.11C323.383 426.016 323.239 425.912 323.082 425.8C322.153 425.135 320.763 424.159 318.92 422.917C315.235 420.433 309.741 416.883 302.509 412.621C288.044 404.098 266.627 392.731 238.828 381.364C183.229 358.629 102.101 335.89 0.00286865 335.89V334.6C102.178 334.6 183.375 357.355 239.032 380.114C266.861 391.494 288.305 402.874 302.794 411.412C310.039 415.68 315.545 419.238 319.241 421.73C321.089 422.976 322.484 423.955 323.418 424.624C323.886 424.957 324.237 425.214 324.473 425.387C324.539 425.436 324.596 425.478 324.643 425.514C324.681 425.541 324.712 425.565 324.738 425.584L324.805 425.634L324.822 425.647L324.826 425.65ZM324.652 368.156C324.728 367.522 324.727 367.521 324.726 367.521L324.722 367.52L324.705 367.515L324.639 367.495C324.58 367.478 324.492 367.452 324.374 367.417C324.14 367.349 323.789 367.247 323.322 367.115C322.389 366.849 320.995 366.461 319.149 365.967C315.455 364.978 309.952 363.565 302.711 361.871C288.229 358.482 266.792 353.963 238.972 349.445C183.331 340.409 102.155 331.373 0.00286865 331.373V332.664C102.125 332.664 183.273 341.697 238.888 350.729C266.696 355.245 288.12 359.761 302.592 363.147C309.827 364.841 315.324 366.252 319.012 367.239C320.856 367.733 322.248 368.121 323.178 368.385C323.459 368.465 323.697 368.533 323.894 368.59C324.023 368.627 324.134 368.659 324.226 368.687C324.343 368.721 324.43 368.747 324.488 368.763L324.554 368.783L324.57 368.788L324.574 368.789C324.575 368.789 324.576 368.79 324.652 368.156Z" fill="url(#paint0_linear_9356_46784)"/>
<defs>
<linearGradient id="paint0_linear_9356_46784" x1="4.90278" y1="242.956" x2="318.698" y2="242.956" gradientUnits="userSpaceOnUse">
<stop offset="0.0182341" stop-color="#FD4B28" stop-opacity="0"/>
<stop offset="0.127609" stop-color="#FD4B28"/>
<stop offset="0.563305" stop-color="#FD4C28" stop-opacity="0.65"/>
<stop offset="0.943305" stop-color="#FD4C28" stop-opacity="0"/>
</linearGradient>
</defs>
</svg>
