<svg width="325" height="282" viewBox="0 0 325 282" fill="none" xmlns="http://www.w3.org/2000/svg">
<g opacity="0.4">
<path d="M156.228 98.5925L137.847 99.3428C135.943 99.4205 134.584 100.772 134.804 102.369L136.94 117.83C137.046 118.594 137.517 119.317 138.24 119.836L205.135 167.797C205.854 168.313 206.775 168.581 207.687 168.544L226.069 167.794C227.973 167.716 229.332 166.365 229.111 164.768L226.975 149.308C226.87 148.544 226.398 147.819 225.676 147.301L158.78 99.3396C158.061 98.824 157.141 98.5552 156.228 98.5925Z" stroke="url(#paint0_linear_26230_26222)" stroke-opacity="0.6" stroke-width="2"/>
<path d="M71.4644 176.223L53.0831 176.973C51.1794 177.051 49.82 178.402 50.0407 179.999L52.1767 195.459C52.2822 196.223 52.7533 196.947 53.4763 197.466L104.445 234.008C105.164 234.524 106.084 234.792 106.997 234.755L125.378 234.005C127.282 233.927 128.641 232.576 128.42 230.979L126.284 215.518C126.179 214.755 125.708 214.03 124.985 213.512L74.0162 176.97C73.297 176.454 72.3772 176.186 71.4644 176.223Z" stroke="url(#paint1_linear_26230_26222)" stroke-opacity="0.6" stroke-width="2"/>
<path d="M264.879 174.918L246.497 175.669C244.594 175.746 243.234 177.098 243.455 178.695L245.591 194.155C245.696 194.919 246.168 195.643 246.892 196.162L297.86 232.704C298.579 233.22 299.499 233.488 300.412 233.451L318.793 232.701C320.696 232.623 322.057 231.272 321.836 229.674L319.7 214.214C319.594 213.45 319.123 212.726 318.399 212.208L267.431 175.666C266.712 175.15 265.791 174.881 264.879 174.918Z" stroke="url(#paint2_linear_26230_26222)" stroke-opacity="0.6" stroke-width="2"/>
<path d="M206.127 168.969L187.746 169.719C185.843 169.796 184.483 171.148 184.703 172.745L186.839 188.205C186.945 188.969 187.416 189.693 188.139 190.212L222.311 214.712C223.03 215.227 223.95 215.496 224.863 215.459L243.244 214.708C245.147 214.631 246.508 213.28 246.287 211.682L244.151 196.222C244.045 195.458 243.574 194.734 242.852 194.216L208.679 169.716C207.96 169.2 207.04 168.931 206.127 168.969Z" stroke="url(#paint3_linear_26230_26222)" stroke-opacity="0.6" stroke-width="2"/>
<path d="M51.6467 22.3574L33.2654 23.1077C31.3617 23.1854 30.0022 24.536 30.2228 26.1331L32.3589 41.5937C32.4644 42.3575 32.9356 43.0822 33.6585 43.6001L67.8307 68.1001C68.5501 68.6158 69.4698 68.8845 70.3826 68.8473L88.7639 68.097C90.6675 68.0193 92.0271 66.6688 91.8065 65.0716L89.6704 49.611C89.5649 48.8472 89.0937 48.1225 88.3709 47.6046L54.1986 23.1046C53.4792 22.5889 52.5595 22.3202 51.6467 22.3574Z" stroke="url(#paint4_linear_26230_26222)" stroke-opacity="0.6" stroke-width="2"/>
<path d="M197.557 55.8667L179.176 56.617C177.273 56.6947 175.912 58.0452 176.133 59.6424L178.269 75.1029C178.375 75.8667 178.846 76.5915 179.568 77.1094L213.741 101.609C214.46 102.125 215.38 102.394 216.293 102.357L234.674 101.606C236.577 101.529 237.938 100.178 237.717 98.5797L235.581 83.1203C235.475 82.3565 235.004 81.6318 234.282 81.1138L200.109 56.6138C199.39 56.0982 198.47 55.8294 197.557 55.8667Z" stroke="url(#paint5_linear_26230_26222)" stroke-opacity="0.6" stroke-width="2"/>
<path d="M223.202 216.303C222.553 215.838 221.742 215.574 220.919 215.554L220.661 215.565L202.281 216.315C200.377 216.393 199.018 217.744 199.239 219.341L201.375 234.801C201.48 235.565 201.951 236.289 202.674 236.808L236.836 261.308C237.556 261.824 238.474 262.093 239.388 262.055L257.768 261.305C259.673 261.227 261.032 259.876 260.811 258.279L258.674 242.81C258.568 242.046 258.097 241.322 257.374 240.803L223.202 216.303Z" stroke="url(#paint6_linear_26230_26222)" stroke-opacity="0.6" stroke-width="2"/>
<path d="M108.706 29.1264L90.3247 29.8766C88.421 29.9544 87.0614 31.3049 87.282 32.902L89.4181 48.3626C89.5236 49.1264 89.9949 49.8511 90.7178 50.3691L155.689 96.9504C156.408 97.4661 157.328 97.7348 158.241 97.6976L176.623 96.9473C178.526 96.8696 179.886 95.519 179.665 93.9219L177.529 78.4613C177.424 77.6975 176.952 76.9728 176.229 76.4549L111.258 29.8735C110.539 29.3578 109.619 29.0891 108.706 29.1264Z" stroke="url(#paint7_linear_26230_26222)" stroke-opacity="0.6" stroke-width="2"/>
<path d="M100.475 91.6548L82.0935 92.4051C80.1899 92.4828 78.8303 93.8333 79.0509 95.4305L81.187 110.891C81.2925 111.655 81.7637 112.38 82.4867 112.898L116.659 137.397C117.378 137.913 118.298 138.182 119.211 138.145L137.592 137.394C139.496 137.317 140.855 135.965 140.634 134.368L138.499 118.908C138.393 118.143 137.922 117.42 137.199 116.902L103.027 92.402C102.307 91.8863 101.388 91.6175 100.475 91.6548Z" stroke="url(#paint8_linear_26230_26222)" stroke-opacity="0.6" stroke-width="2"/>
<path d="M40.6753 119.551L22.294 120.302C20.3904 120.379 19.0309 121.731 19.2516 123.328L21.3877 138.789C21.4932 139.553 21.9642 140.276 22.6874 140.795L73.6558 177.337C74.3752 177.853 75.2949 178.121 76.2077 178.084L94.589 177.334C96.4928 177.256 97.8522 175.905 97.6315 174.308L95.4954 158.848C95.3899 158.084 94.9188 157.359 94.1959 156.841L43.2272 120.299C42.5079 119.783 41.5881 119.514 40.6753 119.551Z" stroke="url(#paint9_linear_26230_26222)" stroke-opacity="0.6" stroke-width="2"/>
<path d="M25.98 73.6231L7.59877 74.3734C5.69503 74.4511 4.33561 75.8028 4.55628 77.4L6.69234 92.8605C6.79787 93.6243 7.269 94.3479 7.99186 94.8658L58.9606 131.409C59.6799 131.924 60.5996 132.193 61.5125 132.156L79.8937 131.406C81.7975 131.328 83.1567 129.976 82.9361 128.379L80.8 112.918C80.6945 112.155 80.2235 111.431 79.5005 110.912L28.5319 74.3703C27.8126 73.8546 26.8929 73.5858 25.98 73.6231Z" stroke="url(#paint10_linear_26230_26222)" stroke-opacity="0.6" stroke-width="2"/>
<path d="M114.718 138.031L96.3367 138.782C94.4331 138.859 93.0735 140.21 93.2941 141.807L95.4302 157.268C95.5357 158.032 96.0068 158.756 96.7297 159.274L165.074 208.274C165.794 208.79 166.713 209.058 167.626 209.021L186.008 208.271C187.911 208.193 189.271 206.842 189.05 205.245L186.914 189.784C186.808 189.02 186.337 188.296 185.614 187.778L117.27 138.779C116.551 138.263 115.631 137.994 114.718 138.031Z" stroke="url(#paint11_linear_26230_26222)" stroke-opacity="0.6" stroke-width="2"/>
</g>
<defs>
<linearGradient id="paint0_linear_26230_26222" x1="139.355" y1="135.307" x2="223.436" y2="123.691" gradientUnits="userSpaceOnUse">
<stop stop-color="#7234F7"/>
<stop offset="1" stop-color="#FF7262"/>
</linearGradient>
<linearGradient id="paint1_linear_26230_26222" x1="53.7624" y1="206.937" x2="123.763" y2="197.265" gradientUnits="userSpaceOnUse">
<stop stop-color="#7234F7"/>
<stop offset="1" stop-color="#FF7262"/>
</linearGradient>
<linearGradient id="paint2_linear_26230_26222" x1="247.176" y1="205.632" x2="317.178" y2="195.961" gradientUnits="userSpaceOnUse">
<stop stop-color="#7234F7"/>
<stop offset="1" stop-color="#FF7262"/>
</linearGradient>
<linearGradient id="paint3_linear_26230_26222" x1="187.551" y1="193.354" x2="242.702" y2="185.734" gradientUnits="userSpaceOnUse">
<stop stop-color="#7234F7"/>
<stop offset="1" stop-color="#FF7262"/>
</linearGradient>
<linearGradient id="paint4_linear_26230_26222" x1="33.0703" y1="46.743" x2="88.2214" y2="39.1232" gradientUnits="userSpaceOnUse">
<stop stop-color="#7234F7"/>
<stop offset="1" stop-color="#FF7262"/>
</linearGradient>
<linearGradient id="paint5_linear_26230_26222" x1="178.98" y1="80.2523" x2="234.132" y2="72.6324" gradientUnits="userSpaceOnUse">
<stop stop-color="#7234F7"/>
<stop offset="1" stop-color="#FF7262"/>
</linearGradient>
<linearGradient id="paint6_linear_26230_26222" x1="202.086" y1="239.95" x2="257.226" y2="232.332" gradientUnits="userSpaceOnUse">
<stop stop-color="#7234F7"/>
<stop offset="1" stop-color="#FF7262"/>
</linearGradient>
<linearGradient id="paint7_linear_26230_26222" x1="91.7327" y1="65.1157" x2="174.113" y2="53.7339" gradientUnits="userSpaceOnUse">
<stop stop-color="#7234F7"/>
<stop offset="1" stop-color="#FF7262"/>
</linearGradient>
<linearGradient id="paint8_linear_26230_26222" x1="81.8984" y1="116.04" x2="137.05" y2="108.421" gradientUnits="userSpaceOnUse">
<stop stop-color="#7234F7"/>
<stop offset="1" stop-color="#FF7262"/>
</linearGradient>
<linearGradient id="paint9_linear_26230_26222" x1="22.9733" y1="150.266" x2="92.9735" y2="140.594" gradientUnits="userSpaceOnUse">
<stop stop-color="#7234F7"/>
<stop offset="1" stop-color="#FF7262"/>
</linearGradient>
<linearGradient id="paint10_linear_26230_26222" x1="8.27798" y1="104.337" x2="78.2782" y2="94.6659" gradientUnits="userSpaceOnUse">
<stop stop-color="#7234F7"/>
<stop offset="1" stop-color="#FF7262"/>
</linearGradient>
<linearGradient id="paint11_linear_26230_26222" x1="97.9204" y1="175.292" x2="183.282" y2="163.498" gradientUnits="userSpaceOnUse">
<stop stop-color="#7234F7"/>
<stop offset="1" stop-color="#FF7262"/>
</linearGradient>
</defs>
</svg>
