<svg width="487" height="144" viewBox="0 0 487 144" fill="none" xmlns="http://www.w3.org/2000/svg">
<rect width="144" height="144" rx="72" fill="url(#paint0_linear_27990_54273)"/>
<path fill-rule="evenodd" clip-rule="evenodd" d="M82.6602 67.2839V96.6564C82.6314 96.9817 82.4907 97.2864 82.2627 97.5174C82.0347 97.7483 81.734 97.8908 81.4129 97.92H42.7303C42.5848 97.9218 42.4404 97.8944 42.3054 97.8395C42.1704 97.7846 42.0473 97.7032 41.9434 97.6L25.3805 80.7174L25.1851 80.5167L24.1305 79.432L23.3436 78.6185C23.1957 78.46 23.0965 78.2614 23.0579 78.0468C23.0194 77.8322 23.0433 77.6109 23.1267 77.4098C23.2101 77.2087 23.3493 77.0365 23.5275 76.9141C23.7058 76.7917 23.9152 76.7244 24.1305 76.7204H61.7451V47.573C61.7451 47.1174 61.7049 46.6293 62.0127 46.3121C62.3205 45.9948 62.9094 46.0951 63.351 46.0951H101.265C101.612 46.0953 101.945 46.2336 102.191 46.4802L118.875 63.2924L118.96 63.3791L119.646 64.0787L120.572 65.0115C120.757 65.1971 120.883 65.4341 120.934 65.6924C120.986 65.9507 120.96 66.2187 120.861 66.4623C120.761 66.7059 120.593 66.914 120.377 67.0603C120.16 67.2066 119.906 67.2845 119.646 67.2839H82.6602ZM82.6361 63.2951L69.6625 50.0812H100.176L113.291 63.2951H82.6361ZM30.9318 80.7174L43.8973 93.9312H74.5607L61.4453 80.7174H30.9318Z" fill="white"/>
<path d="M181.312 69.529C176.399 69.529 172.04 73.206 172.04 80.0085C172.04 86.8109 176.399 90.6276 181.452 90.6276C186.709 90.6276 189.133 86.9506 189.884 84.3767L196.942 86.9506C195.351 92.2271 190.298 97.9816 181.441 97.9816C171.542 97.9816 164 90.2599 164 80.0048C164 69.5915 171.542 62.0978 181.232 62.0978C190.298 62.0978 195.281 67.7898 196.663 73.2023L189.466 75.8387C188.704 72.8677 186.434 69.529 181.312 69.529ZM218.551 90.7637C223.537 90.7637 227.966 87.0867 227.966 80.0085C227.966 72.9964 223.537 69.3893 218.551 69.3893C213.638 69.3893 209.14 72.9964 209.14 80.0085C209.14 87.0205 213.634 90.7637 218.551 90.7637ZM218.551 62.1015C228.655 62.1015 236.061 69.6651 236.061 80.0085C236.061 90.418 228.655 97.9853 218.551 97.9853C208.516 97.9853 201.114 90.418 201.114 80.0085C201.114 69.6651 208.502 62.1015 218.551 62.1015ZM265.553 93.1942C263.892 96.2497 259.947 97.9154 256.002 97.9154C247.977 97.9154 243.269 91.944 243.269 84.4503V63.1421H251.298V82.9979C251.298 87.1639 253.234 90.7196 258.081 90.7196C262.715 90.7196 265.139 87.5941 265.139 83.1523V63.1421H273.168V90.7637C273.167 92.8277 273.282 94.8901 273.512 96.941H265.813C265.633 95.7004 265.546 94.4479 265.553 93.1942ZM303.279 62.9398V71.1322C302.41 70.9956 301.531 70.9255 300.65 70.9226C294.418 70.9226 291.584 74.5334 291.584 80.8505V96.9521H283.558V63.1421H291.378V68.5546C292.97 64.8776 296.706 62.7266 301.134 62.7266C301.854 62.7321 302.572 62.8034 303.279 62.9398ZM307.074 87.789L314.062 85.8438C314.34 88.8994 316.628 91.6057 320.914 91.6057C324.236 91.6057 325.966 89.8003 325.966 87.7191C325.966 85.9137 324.72 84.5275 322.021 83.9723L317.039 82.8692C311.088 81.5491 307.972 77.6625 307.972 73.0111C307.972 67.1279 313.373 62.1162 320.36 62.1162C329.772 62.1162 332.826 68.2237 333.372 71.555L326.59 73.4965C326.311 71.555 324.859 68.4333 320.357 68.4333C317.519 68.4333 315.514 70.235 315.514 72.3199C315.514 74.1216 316.826 75.4416 318.905 75.8571L324.038 76.8977C330.406 78.2876 333.728 82.1742 333.728 87.1712C333.728 92.319 329.578 98 320.995 98C311.228 97.9853 307.492 91.5983 307.074 87.7816V87.789ZM347.088 76.3278H363.627C363.487 72.3713 360.858 68.8341 355.322 68.8341C353.255 68.7914 351.25 69.5441 349.718 70.9377C348.187 72.3313 347.246 74.26 347.088 76.3278ZM364.528 85.1526L371.285 87.2963C369.489 93.1795 364.158 97.9853 356.063 97.9853C346.926 97.9853 338.831 91.3226 338.831 79.8687C338.831 69.1797 346.721 62.1015 355.231 62.1015C365.614 62.1015 371.703 68.9738 371.703 79.6591C371.727 80.5222 371.657 81.3852 371.494 82.233H346.857C347.066 87.3808 351.08 91.0578 356.063 91.0578C360.921 91.0431 363.414 88.4766 364.521 85.1452L364.528 85.1526ZM409.169 63.1494L395.971 96.9484H387.941L374.218 63.1421H383.076L392.004 87.2963L400.722 63.1421L409.169 63.1494ZM423.035 96.9484H415.079V63.1421H423.035V96.9484ZM413.815 51.2727C413.808 50.2336 414.11 49.216 414.681 48.3493C415.253 47.4826 416.068 46.8059 417.024 46.4052C417.98 46.0045 419.034 45.898 420.05 46.0991C421.067 46.3002 422.001 46.7999 422.733 47.5347C423.466 48.2695 423.964 49.2061 424.165 50.2256C424.365 51.2451 424.259 52.3013 423.859 53.2601C423.46 54.2189 422.785 55.0369 421.921 55.6101C421.057 56.1833 420.042 56.4859 419.006 56.4793C418.324 56.4803 417.648 56.3463 417.018 56.085C416.388 55.8237 415.815 55.4402 415.333 54.9565C414.851 54.4728 414.468 53.8985 414.208 53.2663C413.947 52.6342 413.814 51.9567 413.815 51.2727ZM443.548 52.8023V63.1421H450.54V70.2938H443.548V85.9799C443.548 88.9656 444.864 90.2158 447.842 90.2158C448.769 90.1987 449.694 90.1052 450.606 89.9363V96.5991C450.122 96.8087 448.6 97.3639 445.693 97.3639C439.46 97.3639 435.589 93.6133 435.589 87.2999V70.2938H429.356V63.1421H431.083C434.683 63.1421 436.274 60.8513 436.274 57.8656V52.8023H443.548ZM456.776 87.7816C456.776 81.744 461.209 78.4126 466.95 77.578L475.599 76.2579C477.539 75.9821 478.092 75.0114 478.092 73.8311C478.092 70.9851 476.153 68.6833 471.724 68.6833C467.504 68.6833 465.15 71.3896 464.805 74.7908L457.473 73.1251C458.096 67.2971 463.357 62.0941 471.661 62.0941C482.041 62.0941 485.986 67.9773 485.986 74.7246V91.5211C485.964 93.3341 486.102 95.1454 486.4 96.9337H478.928C478.858 96.7278 478.58 95.3379 478.58 92.6316C476.989 95.2055 473.667 97.9779 468.2 97.9779C461.15 97.9853 456.787 93.1243 456.787 87.7816H456.776ZM469.718 91.6682C474.217 91.6682 478.092 89.5172 478.092 82.9243V81.3947L469.293 82.7147C466.807 83.1302 464.798 84.5201 464.798 87.2963C464.817 89.587 466.547 91.6682 469.729 91.6682H469.718Z" fill="white"/>
<defs>
<linearGradient id="paint0_linear_27990_54273" x1="38.2493" y1="8.11349" x2="104.896" y2="134.452" gradientUnits="userSpaceOnUse">
<stop stop-color="#5028FF"/>
<stop offset="1" stop-color="#FF4B00"/>
</linearGradient>
</defs>
</svg>
