<svg width="487" height="144" viewBox="0 0 487 144" fill="none" xmlns="http://www.w3.org/2000/svg">
<rect x="0.5" width="144" height="144" rx="72" fill="url(#paint0_linear_27990_54264)"/>
<path fill-rule="evenodd" clip-rule="evenodd" d="M83.1602 67.2839V96.6564C83.1314 96.9817 82.9907 97.2864 82.7627 97.5174C82.5347 97.7483 82.234 97.8908 81.9129 97.92H43.2303C43.0848 97.9218 42.9404 97.8944 42.8054 97.8395C42.6704 97.7846 42.5473 97.7032 42.4434 97.6L25.8805 80.7174L25.6851 80.5167L24.6305 79.432L23.8436 78.6185C23.6957 78.46 23.5965 78.2614 23.5579 78.0468C23.5194 77.8322 23.5433 77.6109 23.6267 77.4098C23.7101 77.2087 23.8493 77.0365 24.0275 76.9141C24.2058 76.7917 24.4152 76.7244 24.6305 76.7204H62.2451V47.573C62.2451 47.1174 62.2049 46.6293 62.5127 46.3121C62.8205 45.9948 63.4094 46.0951 63.851 46.0951H101.765C102.112 46.0953 102.445 46.2336 102.691 46.4802L119.375 63.2924L119.46 63.3791L120.146 64.0787L121.072 65.0115C121.257 65.1971 121.383 65.4341 121.434 65.6924C121.486 65.9507 121.46 66.2187 121.361 66.4623C121.261 66.7059 121.093 66.914 120.877 67.0603C120.66 67.2066 120.406 67.2845 120.146 67.2839H83.1602ZM83.1361 63.2951L70.1625 50.0812H100.676L113.791 63.2951H83.1361ZM31.4318 80.7174L44.3973 93.9312H75.0607L61.9453 80.7174H31.4318Z" fill="white"/>
<path d="M181.812 69.529C176.899 69.529 172.54 73.206 172.54 80.0084C172.54 86.8109 176.899 90.6276 181.952 90.6276C187.209 90.6276 189.633 86.9506 190.384 84.3767L197.442 86.9506C195.851 92.2271 190.798 97.9816 181.941 97.9816C172.042 97.9816 164.5 90.2599 164.5 80.0048C164.5 69.5915 172.042 62.0978 181.732 62.0978C190.798 62.0978 195.781 67.7898 197.163 73.2023L189.966 75.8387C189.204 72.8677 186.934 69.529 181.812 69.529ZM219.051 90.7637C224.037 90.7637 228.466 87.0867 228.466 80.0084C228.466 72.9964 224.037 69.3893 219.051 69.3893C214.138 69.3893 209.64 72.9964 209.64 80.0084C209.64 87.0205 214.134 90.7637 219.051 90.7637ZM219.051 62.1015C229.155 62.1015 236.561 69.6651 236.561 80.0084C236.561 90.418 229.155 97.9853 219.051 97.9853C209.016 97.9853 201.614 90.418 201.614 80.0084C201.614 69.6651 209.002 62.1015 219.051 62.1015ZM266.053 93.1942C264.392 96.2497 260.447 97.9154 256.502 97.9154C248.477 97.9154 243.769 91.944 243.769 84.4503V63.1421H251.798V82.9978C251.798 87.1639 253.734 90.7195 258.581 90.7195C263.215 90.7195 265.639 87.5941 265.639 83.1523V63.1421H273.668V90.7637C273.667 92.8277 273.782 94.8901 274.012 96.941H266.313C266.133 95.7004 266.046 94.4479 266.053 93.1942ZM303.779 62.9398V71.1322C302.91 70.9956 302.031 70.9255 301.15 70.9226C294.918 70.9226 292.084 74.5334 292.084 80.8505V96.9521H284.058V63.1421H291.878V68.5546C293.47 64.8776 297.206 62.7266 301.634 62.7266C302.354 62.7321 303.072 62.8034 303.779 62.9398ZM307.574 87.789L314.562 85.8438C314.84 88.8994 317.128 91.6057 321.414 91.6057C324.736 91.6057 326.466 89.8003 326.466 87.7191C326.466 85.9137 325.22 84.5275 322.521 83.9722L317.539 82.8691C311.588 81.5491 308.472 77.6625 308.472 73.0111C308.472 67.1279 313.872 62.1162 320.86 62.1162C330.272 62.1162 333.326 68.2237 333.872 71.555L327.09 73.4965C326.811 71.555 325.359 68.4333 320.857 68.4333C318.019 68.4333 316.014 70.235 316.014 72.3198C316.014 74.1216 317.326 75.4416 319.405 75.8571L324.538 76.8977C330.906 78.2876 334.228 82.1742 334.228 87.1712C334.228 92.319 330.078 98 321.495 98C311.728 97.9853 307.992 91.5983 307.574 87.7816V87.789ZM347.588 76.3278H364.127C363.987 72.3713 361.358 68.8341 355.822 68.8341C353.755 68.7914 351.75 69.5441 350.218 70.9377C348.687 72.3313 347.746 74.26 347.588 76.3278ZM365.028 85.1526L371.785 87.2963C369.989 93.1795 364.658 97.9853 356.563 97.9853C347.426 97.9853 339.331 91.3226 339.331 79.8687C339.331 69.1797 347.221 62.1015 355.731 62.1015C366.114 62.1015 372.203 68.9738 372.203 79.6591C372.227 80.5222 372.157 81.3852 371.994 82.233H347.357C347.566 87.3808 351.58 91.0578 356.563 91.0578C361.421 91.0431 363.914 88.4766 365.021 85.1452L365.028 85.1526ZM409.669 63.1494L396.471 96.9484H388.441L374.718 63.1421H383.576L392.504 87.2963L401.222 63.1421L409.669 63.1494ZM423.535 96.9484H415.579V63.1421H423.535V96.9484ZM414.315 51.2727C414.308 50.2336 414.61 49.216 415.181 48.3493C415.753 47.4826 416.568 46.8059 417.524 46.4052C418.48 46.0045 419.534 45.898 420.55 46.0991C421.567 46.3002 422.501 46.7999 423.233 47.5347C423.966 48.2695 424.464 49.2061 424.665 50.2256C424.865 51.2451 424.759 52.3013 424.359 53.2601C423.96 54.2189 423.285 55.0369 422.421 55.6101C421.557 56.1833 420.542 56.4859 419.506 56.4793C418.824 56.4803 418.148 56.3463 417.518 56.085C416.888 55.8237 416.315 55.4402 415.833 54.9565C415.351 54.4728 414.968 53.8985 414.708 53.2663C414.447 52.6342 414.314 51.9567 414.315 51.2727ZM444.048 52.8023V63.1421H451.04V70.2938H444.048V85.9799C444.048 88.9656 445.365 90.2158 448.342 90.2158C449.269 90.1987 450.194 90.1052 451.106 89.9363V96.5991C450.622 96.8086 449.1 97.3639 446.193 97.3639C439.96 97.3639 436.089 93.6133 436.089 87.2999V70.2938H429.856V63.1421H431.583C435.183 63.1421 436.774 60.8513 436.774 57.8656V52.8023H444.048ZM457.276 87.7816C457.276 81.744 461.709 78.4126 467.45 77.578L476.099 76.2579C478.039 75.9821 478.592 75.0114 478.592 73.8311C478.592 70.9851 476.653 68.6833 472.224 68.6833C468.004 68.6833 465.65 71.3896 465.305 74.7908L457.973 73.1251C458.596 67.2971 463.857 62.0941 472.161 62.0941C482.541 62.0941 486.486 67.9773 486.486 74.7246V91.5211C486.464 93.3341 486.602 95.1454 486.9 96.9337H479.428C479.358 96.7278 479.08 95.3379 479.08 92.6316C477.489 95.2055 474.167 97.9779 468.7 97.9779C461.65 97.9853 457.287 93.1243 457.287 87.7816H457.276ZM470.218 91.6682C474.717 91.6682 478.592 89.5172 478.592 82.9243V81.3947L469.793 82.7147C467.307 83.1302 465.298 84.5201 465.298 87.2963C465.316 89.587 467.047 91.6682 470.229 91.6682H470.218Z" fill="#1D1D1D"/>
<defs>
<linearGradient id="paint0_linear_27990_54264" x1="38.7493" y1="8.11349" x2="105.396" y2="134.452" gradientUnits="userSpaceOnUse">
<stop stop-color="#5028FF"/>
<stop offset="1" stop-color="#FF4B00"/>
</linearGradient>
</defs>
</svg>
