<svg width="253" height="276" viewBox="0 0 253 276" fill="none" xmlns="http://www.w3.org/2000/svg">
<path d="M126.109 3.84809C129.766 -2.06652 138.682 -0.939841 140.753 5.69776C145.766 0.878776 154.122 4.18674 154.477 11.1314C160.53 7.71031 167.801 12.9927 166.418 19.8073C173.132 17.9992 178.861 24.9239 175.827 31.1801C182.78 31.0986 186.607 39.2303 182.112 44.5356C188.867 46.1854 190.551 55.0137 184.878 59.0347C191.01 62.3128 190.446 71.2822 183.951 73.7658C189.075 78.4659 186.298 87.0135 179.39 87.8039C183.185 93.6306 178.369 101.219 171.481 100.266C173.707 106.854 167.156 113.006 160.721 110.371C161.239 117.305 153.363 121.635 147.786 117.482C146.563 124.327 137.859 126.562 133.49 121.152C130.603 127.478 121.616 127.478 118.729 121.152C114.36 126.562 105.656 124.327 104.433 117.482C98.8557 121.635 90.9801 117.305 91.498 110.371C85.0631 113.006 78.5117 106.854 80.7381 100.266C73.8503 101.219 69.0342 93.6306 72.8291 87.8039C65.9208 87.0135 63.1436 78.4659 68.2679 73.7658C61.7732 71.2822 61.2084 62.3128 67.341 59.0347C61.6678 55.0137 63.3516 46.186 70.107 44.5356C65.612 39.2303 69.4385 31.0986 76.3919 31.1801C73.3575 24.9233 79.0864 17.9986 85.8008 19.8073C84.4175 12.9927 91.6884 7.71031 97.7419 11.1314C98.0969 4.18674 106.453 0.878191 111.466 5.69776C113.536 -0.939841 122.453 -2.06593 126.109 3.84809Z" fill="#EEEEEE"/>
<path d="M222.664 30.366C224.937 33.0828 225.795 36.4874 225.238 40.5787C224.658 44.8417 222.872 47.8638 219.878 49.6478C216.886 51.433 213.151 52.0207 208.681 51.4125L207.746 56.3774L201.481 55.5249L202.518 45.546L204.606 45.8301C208.699 46.3873 211.905 46.2654 214.227 45.4639C216.55 44.6624 217.921 42.7214 218.34 39.6407C218.645 37.4055 218.24 35.5664 217.125 34.1251C216.009 32.6838 214.313 31.8091 212.035 31.4991C209.758 31.1892 207.879 31.5566 206.406 32.6024C204.932 33.6488 204.045 35.2682 203.746 37.4624L196.975 36.5408C197.319 34.0091 198.196 31.8296 199.604 30.001C201.013 28.173 202.856 26.8553 205.138 26.048C207.417 25.2412 209.972 25.0303 212.799 25.4146C217.102 25.9999 220.39 27.6504 222.664 30.366ZM199.506 68.1486C198.741 67.1415 198.446 65.9843 198.624 64.676C198.802 63.3689 199.394 62.3318 200.402 61.5655C201.407 60.8003 202.565 60.5062 203.874 60.6843C205.138 60.8566 206.156 61.4466 206.92 62.4525C207.686 63.4597 207.98 64.618 207.803 65.9251C207.624 67.2334 207.032 68.2693 206.024 69.0357C205.02 69.8008 203.881 70.0973 202.616 69.9256C201.307 69.7469 200.27 69.1546 199.506 68.1486Z" fill="#EEEEEE"/>
<path d="M53.8298 30.3666C56.103 33.0834 56.9614 36.488 56.4042 40.5793C55.8241 44.8423 54.0383 47.8643 51.0438 49.6484C48.0517 51.4336 44.3172 52.0213 39.8468 51.4131L38.9123 56.378L32.6467 55.5255L33.6838 45.5465L35.7725 45.8307C39.865 46.3879 43.071 46.266 45.3935 45.4645C47.716 44.663 49.0869 42.7219 49.5064 39.6413C49.8105 37.4061 49.4057 35.567 48.2913 34.1257C47.1746 32.6844 45.479 31.8097 43.201 31.4997C40.9237 31.1898 39.0453 31.5571 37.5724 32.603C36.0977 33.6494 35.2106 35.2688 34.9124 37.463L28.1406 36.5408C28.4851 34.0091 29.3616 31.8296 30.7701 30.001C32.1786 28.173 34.0224 26.8553 36.3039 26.048C38.583 25.2412 41.1375 25.0303 43.9651 25.4146C48.2679 26.0005 51.5565 27.651 53.8298 30.3666ZM30.6723 68.1492C29.9065 67.142 29.6118 65.9849 29.7899 64.6766C29.968 63.3695 30.5604 62.3324 31.5681 61.5661C32.5729 60.8009 33.7312 60.5068 35.0395 60.6849C36.3045 60.8571 37.3222 61.4471 38.0862 62.4531C38.852 63.4603 39.1461 64.6186 38.9685 65.9257C38.7904 67.234 38.1981 68.2699 37.1904 69.0362C36.1855 69.8014 35.0472 70.0979 33.7822 69.9262C32.4733 69.7475 31.4363 69.1552 30.6723 68.1492Z" fill="#EEEEEE"/>
<path d="M207.381 210.377C203.745 204.158 200.107 197.939 196.471 191.72" stroke="#EEEEEE" stroke-width="4.9582" stroke-miterlimit="10" stroke-linecap="round" stroke-linejoin="round"/>
<path d="M222.023 195.786C216.885 191.063 211.746 186.341 206.607 181.618" stroke="#EEEEEE" stroke-width="4.9582" stroke-miterlimit="10" stroke-linecap="round" stroke-linejoin="round"/>
<path d="M232.79 178.45C226.547 175.505 220.305 172.56 214.062 169.615" stroke="#EEEEEE" stroke-width="4.9582" stroke-miterlimit="10" stroke-linecap="round" stroke-linejoin="round"/>
<path d="M239.323 159.118C232.411 158.156 225.498 157.194 218.586 156.231" stroke="#EEEEEE" stroke-width="4.9582" stroke-miterlimit="10" stroke-linecap="round" stroke-linejoin="round"/>
<path d="M241.271 138.539C234.159 139.687 227.046 140.835 219.934 141.984" stroke="#EEEEEE" stroke-width="4.9582" stroke-miterlimit="10" stroke-linecap="round" stroke-linejoin="round"/>
<path d="M44.8379 210.376C48.4745 204.157 52.1118 197.939 55.7484 191.719" stroke="#EEEEEE" stroke-width="4.9582" stroke-miterlimit="10" stroke-linecap="round" stroke-linejoin="round"/>
<path d="M30.1953 195.786C35.3336 191.063 40.4725 186.341 45.6108 181.618" stroke="#EEEEEE" stroke-width="4.9582" stroke-miterlimit="10" stroke-linecap="round" stroke-linejoin="round"/>
<path d="M19.4297 178.45C25.6724 175.505 31.9145 172.56 38.1572 169.615" stroke="#EEEEEE" stroke-width="4.9582" stroke-miterlimit="10" stroke-linecap="round" stroke-linejoin="round"/>
<path d="M12.8984 159.118C19.8108 158.156 26.7232 157.194 33.6356 156.231" stroke="#EEEEEE" stroke-width="4.9582" stroke-miterlimit="10" stroke-linecap="round" stroke-linejoin="round"/>
<path d="M10.9492 138.539C18.0614 139.687 25.1736 140.835 32.2863 141.984" stroke="#EEEEEE" stroke-width="4.9582" stroke-miterlimit="10" stroke-linecap="round" stroke-linejoin="round"/>
<path d="M167.461 198.557L160.139 188.104C160.139 188.104 158.507 181.184 155.541 176.57H96.2849C93.3185 181.184 91.6868 188.104 91.6868 188.104L84.3649 198.557C74.1603 213.124 69.2148 230.731 70.3409 248.481L72.0617 275.604H124.791L123.518 232.911C123.494 232.107 124.139 231.442 124.943 231.442H126.882C127.687 231.442 128.332 232.107 128.308 232.911L127.034 275.604H179.764L181.485 248.481C182.611 230.731 177.665 213.124 167.461 198.557Z" fill="#5E48B5"/>
<path d="M94.0781 188.104H157.75" stroke="#EEEEEE" stroke-width="1.0989" stroke-miterlimit="10" stroke-linecap="round" stroke-linejoin="round"/>
<path d="M111.352 229.08L144.567 227.982" stroke="#EEEEEE" stroke-width="1.0989" stroke-miterlimit="10" stroke-linecap="round" stroke-linejoin="round"/>
<path d="M105.963 222.818L136.986 224.686" stroke="#EEEEEE" stroke-width="1.0989" stroke-miterlimit="10" stroke-linecap="round" stroke-linejoin="round"/>
<path d="M100.427 188.104C98.4392 200.853 90.4547 209.007 76.6082 212.451C75.6843 214.59 74.8552 216.766 74.127 218.975C97.1503 214.846 104.621 200.941 106.348 188.104H100.427Z" stroke="#EEEEEE" stroke-width="1.0989" stroke-miterlimit="10" stroke-linecap="round" stroke-linejoin="round"/>
<path d="M151.395 188.104C153.383 200.853 161.368 209.007 175.214 212.451C176.138 214.59 176.967 216.766 177.695 218.975C154.672 214.846 147.201 200.941 145.475 188.104H151.395Z" stroke="#EEEEEE" stroke-width="1.0989" stroke-miterlimit="10" stroke-linecap="round" stroke-linejoin="round"/>
<path d="M122.863 178.107V231.442" stroke="#EEEEEE" stroke-width="1.0989" stroke-miterlimit="10" stroke-linecap="round" stroke-linejoin="round"/>
<path d="M126.038 185.769C126.781 185.769 127.384 185.167 127.384 184.423C127.384 183.679 126.781 183.077 126.038 183.077C125.294 183.077 124.691 183.679 124.691 184.423C124.691 185.167 125.294 185.769 126.038 185.769Z" fill="#1E2B4A"/>
<path d="M126.038 197.679C126.781 197.679 127.384 197.076 127.384 196.333C127.384 195.589 126.781 194.986 126.038 194.986C125.294 194.986 124.691 195.589 124.691 196.333C124.691 197.076 125.294 197.679 126.038 197.679Z" fill="#1E2B4A"/>
<path d="M126.038 209.588C126.781 209.588 127.384 208.985 127.384 208.242C127.384 207.498 126.781 206.896 126.038 206.896C125.294 206.896 124.691 207.498 124.691 208.242C124.691 208.985 125.294 209.588 126.038 209.588Z" fill="#1E2B4A"/>
<path d="M129.416 178.107V206.742C129.416 209.798 127.632 212.574 124.852 213.845L122.842 214.763" stroke="#EEEEEE" stroke-width="1.0989" stroke-miterlimit="10" stroke-linecap="round" stroke-linejoin="round"/>
<path d="M79.9474 217.495L79.1547 221.413C76.9682 232.222 76.2715 243.28 77.0848 254.278L78.6608 275.603" stroke="#EEEEEE" stroke-width="1.0989" stroke-miterlimit="10" stroke-linecap="round" stroke-linejoin="round"/>
<path d="M171.875 217.495L172.668 221.413C174.854 232.222 175.551 243.28 174.738 254.278L173.162 275.604" stroke="#EEEEEE" stroke-width="1.0989" stroke-miterlimit="10" stroke-linecap="round" stroke-linejoin="round"/>
<path d="M129.416 212.602V231.442" stroke="#EEEEEE" stroke-width="1.0989" stroke-miterlimit="10" stroke-linecap="round" stroke-linejoin="round"/>
<path d="M155.543 176.569H96.2865C95.0368 178.513 94.0255 180.865 93.2715 182.938L157.374 180.009C156.836 178.816 156.225 177.632 155.543 176.569Z" fill="#1E2B4A"/>
<path d="M126.496 25.2987C135.999 20.5752 148.401 27.8251 152.526 46.5005C158.958 50.3451 158.079 56.7167 156.871 61.166C163.572 64.6263 163.132 69.1307 162.253 72.9753C166.648 76.0513 167.637 92.3098 167.637 92.3098H85.9043C85.9043 92.3098 85.9043 81.2147 91.7263 73.8541C86.3437 67.7022 91.0672 62.0021 93.2643 60.0733C85.135 51.4437 87.1399 40.2384 98.6745 31.2303C110.209 22.2222 119.521 17.0598 126.496 25.2987Z" fill="#31419E"/>
<path d="M111.03 61.6397L108.868 58.6956C106.626 55.6442 101.95 56.0473 100.264 59.4367C99.0989 61.7791 99.9133 64.6242 102.141 65.9952L106.665 68.7794C107.183 69.0975 107.778 69.2663 108.385 69.2663C110.197 69.2663 111.666 67.7974 111.666 65.9853V63.5825C111.667 62.8835 111.444 62.2027 111.03 61.6397Z" fill="#FF7A7A"/>
<path d="M102.086 60.6038C104.104 58.4617 106.576 59.4918 110.49 65.0115" stroke="#1E2B4A" stroke-width="1.5" stroke-miterlimit="10" stroke-linecap="round" stroke-linejoin="round"/>
<path d="M105.219 63.4045L106.107 60.2383" stroke="#1E2B4A" stroke-width="1.5" stroke-miterlimit="10" stroke-linecap="round" stroke-linejoin="round"/>
<path d="M106.287 70.7848C107.318 70.7848 108.154 69.9488 108.154 68.9175C108.154 67.8863 107.318 67.0503 106.287 67.0503C105.256 67.0503 104.42 67.8863 104.42 68.9175C104.42 69.9488 105.256 70.7848 106.287 70.7848Z" fill="#FFC275"/>
<path d="M141.231 61.6397L143.394 58.6956C145.635 55.6442 150.311 56.0473 151.997 59.4367C153.163 61.7791 152.348 64.6242 150.12 65.9952L145.596 68.7794C145.079 69.0975 144.484 69.2663 143.877 69.2663C142.065 69.2663 140.596 67.7974 140.596 65.9853V63.5825C140.595 62.8835 140.818 62.2027 141.231 61.6397Z" fill="#FF7A7A"/>
<path d="M150.174 60.6033C148.155 58.4613 145.683 59.4913 141.77 65.011" stroke="#1E2B4A" stroke-width="1.5" stroke-miterlimit="10" stroke-linecap="round" stroke-linejoin="round"/>
<path d="M147.045 63.4045L146.156 60.2383" stroke="#1E2B4A" stroke-width="1.5" stroke-miterlimit="10" stroke-linecap="round" stroke-linejoin="round"/>
<path d="M145.973 70.7848C147.004 70.7848 147.84 69.9488 147.84 68.9175C147.84 67.8863 147.004 67.0503 145.973 67.0503C144.941 67.0503 144.105 67.8863 144.105 68.9175C144.105 69.9488 144.941 70.7848 145.973 70.7848Z" fill="#FFC275"/>
<path d="M224.833 87.2564L224.545 86.7684C223.749 85.4232 223.862 83.7282 224.827 82.5001L228.276 78.11C228.712 77.5552 228.533 76.7408 227.906 76.4191C226.719 75.811 225.272 76.101 224.416 77.1228C223.416 78.318 222.058 79.9966 220.825 81.7162C220.084 82.7491 219.185 83.6532 218.186 84.4394C214.686 87.1955 211.279 91.7057 211.279 91.7057L224.833 87.2564Z" fill="#D13F3F"/>
<path d="M146.254 81.7639C155.761 77.754 160.65 76.1615 168.395 80.2259C176.14 84.2902 176.414 94.1772 176.853 98.5714C177.293 102.966 180.533 134.054 180.533 134.054L207.613 97.0879C207.943 92.5842 212.337 87.6955 224.311 85.9928C224.311 85.9928 227.716 82.3679 230.627 80.6102C230.627 80.6102 234.967 73.8543 236.779 74.1835C238.592 74.5128 234.637 81.4891 234.637 81.4891L237.255 79.292C237.255 79.292 241.064 71.1627 242.932 71.7667C244.8 72.3708 240.186 81.4891 240.186 81.4891L242.493 79.347C242.493 79.347 246.228 71.1539 248.37 71.7351C250.512 72.3163 245.514 81.5441 245.514 81.5441C245.514 81.5441 250.677 75.8867 252.05 77.0949C253.423 78.3036 246.008 85.2241 243.756 87.5308C241.504 89.8381 236.396 92.9134 230.684 95.605C224.971 98.2966 218.984 101.207 218.984 101.207L196.676 160.943C192.599 171.861 180.894 177.894 169.637 174.881C160.481 172.43 153.823 164.53 152.96 155.09L146.254 81.7639Z" fill="#FF7A7A"/>
<path d="M164.112 103.295L159.938 122.959" stroke="#D13F3F" stroke-width="1.0989" stroke-miterlimit="10" stroke-linecap="round" stroke-linejoin="round"/>
<path d="M170.023 148.402L179.478 135.496" stroke="#D13F3F" stroke-width="1.0989" stroke-miterlimit="10" stroke-linecap="round" stroke-linejoin="round"/>
<path d="M233.4 82.9717L230.393 87.9565" stroke="#D13F3F" stroke-width="1.0989" stroke-miterlimit="10" stroke-linecap="round" stroke-linejoin="round"/>
<path d="M244.527 82.8096C241.917 85.6822 235.914 90.3875 235.914 90.3875" stroke="#D13F3F" stroke-width="1.0989" stroke-miterlimit="10" stroke-linecap="round" stroke-linejoin="round"/>
<path d="M239.317 82.7104C237.148 85.3481 232.785 88.8629 232.785 88.8629" stroke="#D13F3F" stroke-width="1.0989" stroke-miterlimit="10" stroke-linecap="round" stroke-linejoin="round"/>
<path d="M152.811 153.447L152.961 155.09C153.78 164.046 159.816 171.612 168.252 174.458C159.258 165.732 159.782 150.512 162.024 143.094L152.811 153.447Z" fill="#1E2B4A"/>
<path d="M161.556 77.9575C157.449 77.4912 153.51 78.7631 148.004 81.0329L156.202 111.095C154.619 95.9773 155.866 77.3693 161.556 77.9575Z" fill="#F55858"/>
<path d="M27.3843 87.2564L27.6726 86.7684C28.4676 85.4232 28.3552 83.7282 27.3902 82.5001L23.941 78.11C23.5051 77.5552 23.6838 76.7408 24.3113 76.4191C25.4977 75.811 26.9449 76.101 27.8009 77.1228C28.8016 78.318 30.1591 79.9966 31.3924 81.7162C32.133 82.7491 33.0318 83.6532 34.0307 84.4394C37.5314 87.1955 40.9378 91.7057 40.9378 91.7057L27.3843 87.2564Z" fill="#D13F3F"/>
<path d="M105.964 81.7639C96.4566 77.754 91.5679 76.1615 83.823 80.2259C76.078 84.2902 75.8038 94.1772 75.3644 98.5714C74.925 102.966 71.6844 134.054 71.6844 134.054L44.6049 97.0879C44.2751 92.5842 39.8814 87.6955 27.9069 85.9928C27.9069 85.9928 24.5017 82.3679 21.5904 80.6102C21.5904 80.6102 17.2513 73.8543 15.4385 74.1835C13.6257 74.5128 17.5805 81.4891 17.5805 81.4891L14.9627 79.292C14.9627 79.292 11.1538 71.1627 9.28601 71.7667C7.41877 72.3708 12.0321 81.4891 12.0321 81.4891L9.72543 79.347C9.72543 79.347 5.99035 71.1539 3.84832 71.7351C1.70629 72.3163 6.70456 81.5441 6.70456 81.5441C6.70456 81.5441 1.54166 75.8867 0.168319 77.0949C-1.20502 78.3036 6.21006 85.2241 8.46224 87.5308C10.7144 89.8381 15.8223 92.9134 21.5347 95.605C27.2472 98.2966 33.2345 101.207 33.2345 101.207L55.5418 160.943C59.6191 171.861 71.3235 177.894 82.5809 174.881C91.7372 172.43 98.3947 164.53 99.2578 155.09L105.964 81.7639Z" fill="#FF7A7A"/>
<path d="M88.1074 103.295L92.2819 122.959" stroke="#D13F3F" stroke-width="1.0989" stroke-miterlimit="10" stroke-linecap="round" stroke-linejoin="round"/>
<path d="M82.1948 148.402L72.7402 135.496" stroke="#D13F3F" stroke-width="1.0989" stroke-miterlimit="10" stroke-linecap="round" stroke-linejoin="round"/>
<path d="M18.8164 82.9717L21.8238 87.9565" stroke="#D13F3F" stroke-width="1.0989" stroke-miterlimit="10" stroke-linecap="round" stroke-linejoin="round"/>
<path d="M7.69141 82.8101C10.3016 85.6827 16.3041 90.388 16.3041 90.388" stroke="#D13F3F" stroke-width="1.0989" stroke-miterlimit="10" stroke-linecap="round" stroke-linejoin="round"/>
<path d="M12.9023 82.7104C15.0719 85.3481 19.4345 88.8629 19.4345 88.8629" stroke="#D13F3F" stroke-width="1.0989" stroke-miterlimit="10" stroke-linecap="round" stroke-linejoin="round"/>
<path d="M99.4081 153.448L99.2581 155.09C98.439 164.046 92.4025 171.613 83.9668 174.458C92.9603 165.732 92.4371 150.512 90.1943 143.094L99.4081 153.448Z" fill="#1E2B4A"/>
<path d="M90.6621 77.9575C94.7698 77.4912 98.7088 78.7631 104.214 81.0329L96.0166 111.095C97.5991 95.9773 96.3523 77.3693 90.6621 77.9575Z" fill="#F55858"/>
<path d="M157.86 113.183C157.86 113.183 152.628 101.87 153.974 78.8168C153.993 78.4899 153.678 78.2444 153.368 78.3492C150.967 79.1613 141.882 82.5026 126.11 91.3649C110.337 82.5026 101.251 79.1613 98.8508 78.3492C98.5409 78.2444 98.2263 78.4899 98.2456 78.8168C99.5908 101.87 94.3594 113.183 94.3594 113.183C86.3402 127.354 88.757 139.109 91.5031 147.018C94.2492 154.928 94.8814 164.293 94.8814 164.293C91.5072 170.489 91.7123 173.463 92.7153 175.656C93.4079 177.17 94.9587 178.107 96.6238 178.107H126.088H126.131H155.596C157.261 178.107 158.811 177.17 159.504 175.656C160.507 173.463 160.713 170.489 157.338 164.293C157.338 164.293 157.97 154.928 160.717 147.018C163.462 139.109 165.879 127.354 157.86 113.183Z" fill="#D12676"/>
<path d="M144.646 102.842C148.853 99.6926 146.624 94.1764 144.399 92.2992C147.53 87.2722 144.805 82.4122 143.119 81.2422C143.119 81.2422 131.139 87.3361 126.111 92.2992C121.083 87.3361 109.103 81.2422 109.103 81.2422C107.417 82.4122 104.692 87.2722 107.823 92.2992C105.598 94.1758 103.369 99.692 107.576 102.842C104.692 104.553 104.856 110.372 108.317 111.392C108.482 116.432 113.673 118.592 116.886 114.273C119.852 114.363 121.912 113.553 122.736 110.042C125.867 108.963 126.111 105.182 126.111 105.182C126.111 105.182 126.356 108.963 129.486 110.042C130.31 113.553 132.37 114.362 135.336 114.273C138.549 118.592 143.74 116.433 143.905 111.392C147.365 110.372 147.53 104.552 144.646 102.842Z" fill="#1E2B4A"/>
<path d="M126.109 108.844V173.273" stroke="#EEEEEE" stroke-width="1.0989" stroke-miterlimit="10" stroke-linecap="round" stroke-linejoin="round"/>
<path d="M135.174 116.588C138.71 133.257 130.744 163.066 133.145 173.273" stroke="#EEEEEE" stroke-width="1.0989" stroke-miterlimit="10" stroke-linecap="round" stroke-linejoin="round"/>
<path d="M142.458 116.588C149.83 134.384 138.706 163.066 141.255 173.273" stroke="#EEEEEE" stroke-width="1.0989" stroke-miterlimit="10" stroke-linecap="round" stroke-linejoin="round"/>
<path d="M149.743 116.588C161.726 135.885 145.881 159.319 149.367 173.273" stroke="#EEEEEE" stroke-width="1.0989" stroke-miterlimit="10" stroke-linecap="round" stroke-linejoin="round"/>
<path d="M117.049 116.588C113.513 133.257 121.479 163.066 119.078 173.273" stroke="#EEEEEE" stroke-width="1.0989" stroke-miterlimit="10" stroke-linecap="round" stroke-linejoin="round"/>
<path d="M109.764 116.588C102.392 134.384 113.517 163.066 110.967 173.273" stroke="#EEEEEE" stroke-width="1.0989" stroke-miterlimit="10" stroke-linecap="round" stroke-linejoin="round"/>
<path d="M102.48 116.588C90.4969 135.885 106.342 159.319 102.856 173.273" stroke="#EEEEEE" stroke-width="1.0989" stroke-miterlimit="10" stroke-linecap="round" stroke-linejoin="round"/>
<path d="M144.646 101.016C148.853 98.1324 146.624 93.0825 144.399 91.3641C147.53 86.7619 144.805 82.3132 143.119 81.2422C143.119 81.2422 131.139 86.8211 126.111 91.3641C121.083 86.8205 109.103 81.2422 109.103 81.2422C107.417 82.3132 104.692 86.7625 107.823 91.3641C105.598 93.0825 103.369 98.1324 107.576 101.016C104.692 102.582 104.856 107.91 108.317 108.843C108.482 113.457 113.673 115.434 116.886 111.48C119.852 111.562 121.912 110.82 122.736 107.607C125.867 106.618 126.111 103.158 126.111 103.158C126.111 103.158 126.356 106.618 129.486 107.607C130.31 110.82 132.37 111.562 135.336 111.48C138.549 115.434 143.74 113.457 143.905 108.843C147.365 107.91 147.53 102.582 144.646 101.016Z" fill="#EEEEEE"/>
<path d="M136.53 76.0518H126.13H115.73L115.538 91.0149C115.516 92.7169 116.324 94.3434 117.741 95.2879C119.375 96.3782 122.036 97.4732 126.131 97.4732C130.225 97.4732 132.886 96.3776 134.521 95.2879C135.937 94.3434 136.746 92.7169 136.723 91.0149L136.53 76.0518Z" fill="#FF7A7A"/>
<path d="M115.73 76.0518L115.653 82.032C115.612 85.1677 117.718 87.9519 120.763 88.7042C121.812 88.9637 122.881 89.0873 123.939 89.0873C129 89.0873 134.281 86.2516 136.573 79.3656L136.53 76.0518H126.13H115.73Z" fill="#1E2B4A"/>
<path d="M143.158 55.2897C138.715 55.2897 138.88 34.2801 128.252 39.7177C123.226 35.1864 117.541 38.0427 115.811 44.4143C114.485 49.2965 112.357 54.1366 109.1 55.2902L109.605 61.9911C108.239 76.9314 117.459 82.6439 126.129 82.6439C134.8 82.6439 144.02 76.9314 142.654 61.9911L143.158 55.2897Z" fill="#FF7A7A"/>
<path d="M126.13 72.6659C129.293 72.6659 130.691 71.0154 130.691 71.0154C130.691 71.0154 129.708 68.8757 128.211 68.4363C127.195 68.1381 126.132 68.915 126.13 68.9168C126.127 68.915 125.064 68.1381 124.048 68.4363C122.551 68.8757 121.568 71.0154 121.568 71.0154C121.568 71.0154 122.966 72.6653 126.129 72.6659C126.129 72.6659 126.13 72.6659 126.13 72.6659Z" fill="#D13F3F"/>
<path d="M118.001 61.1664C119.184 61.1664 120.143 60.2074 120.143 59.0244C120.143 57.8413 119.184 56.8823 118.001 56.8823C116.818 56.8823 115.859 57.8413 115.859 59.0244C115.859 60.2074 116.818 61.1664 118.001 61.1664Z" fill="#1E2B4A"/>
<path d="M134.261 61.1664C135.444 61.1664 136.403 60.2074 136.403 59.0244C136.403 57.8413 135.444 56.8823 134.261 56.8823C133.078 56.8823 132.119 57.8413 132.119 59.0244C132.119 60.2074 133.078 61.1664 134.261 61.1664Z" fill="#1E2B4A"/>
<path d="M114.199 53.6309C116.544 51.2417 119.886 51.6946 122.329 53.6309" stroke="#31419E" stroke-width="3" stroke-miterlimit="10"/>
<path d="M138.067 53.6309C135.722 51.2417 132.38 51.6946 129.938 53.6309" stroke="#31419E" stroke-width="3" stroke-miterlimit="10"/>
<path d="M126.131 57.2676L125.891 62.2887C123.914 63.0896 123.288 64.1155 123.475 65.2867C123.742 66.9688 126.496 66.4403 126.496 66.4403" stroke="#1E2B4A" stroke-width="1.5" stroke-miterlimit="10" stroke-linecap="round" stroke-linejoin="round"/>
<path d="M131.396 71.4548C130.071 70.5443 128.205 69.9736 126.13 69.9736C124.056 69.9736 122.189 70.5443 120.865 71.4548" stroke="#1E2B4A" stroke-miterlimit="10" stroke-linecap="round" stroke-linejoin="round"/>
<path d="M120.197 70.7847L121.378 72.1246" stroke="#1E2B4A" stroke-miterlimit="10" stroke-linecap="round" stroke-linejoin="round"/>
<path d="M132.065 70.7847L130.885 72.1246" stroke="#1E2B4A" stroke-miterlimit="10" stroke-linecap="round" stroke-linejoin="round"/>
<path d="M131.43 34.5279C135.491 33.1739 139.013 37.7696 141.459 45.5292" stroke="#445BDB" stroke-width="3" stroke-miterlimit="10"/>
<path d="M140.711 34.062C140.711 34.062 143.726 38.5394 144.949 43.7791" stroke="#445BDB" stroke-width="3" stroke-miterlimit="10"/>
<path d="M144.662 33.9473C144.662 33.9473 146.799 38.0104 148.083 42.4797" stroke="#445BDB" stroke-width="3" stroke-miterlimit="10"/>
<path d="M100.956 36.0645C94.4196 40.3485 92.3321 49.3567 96.1223 56.8819" stroke="#445BDB" stroke-width="3" stroke-miterlimit="10"/>
<path d="M104.422 38.3169C101.285 40.9534 97.6048 45.732 99.9665 52.8178" stroke="#445BDB" stroke-width="3" stroke-miterlimit="10"/>
<path d="M108.157 40.2939C105.57 42.7658 103.263 46.8853 104.965 50.5102" stroke="#445BDB" stroke-width="3" stroke-miterlimit="10"/>
<path d="M116.86 71.0156C118.962 71.0156 120.665 69.3118 120.665 67.2102C120.665 65.1085 118.962 63.4048 116.86 63.4048C114.758 63.4048 113.055 65.1085 113.055 67.2102C113.055 69.3118 114.758 71.0156 116.86 71.0156Z" fill="#FF6969"/>
<path d="M135.407 71.0156C137.509 71.0156 139.212 69.3118 139.212 67.2102C139.212 65.1085 137.509 63.4048 135.407 63.4048C133.305 63.4048 131.602 65.1085 131.602 67.2102C131.602 69.3118 133.305 71.0156 135.407 71.0156Z" fill="#FF6969"/>
<path d="M179.683 171.023C182.96 169.641 184.815 166.618 183.825 164.27C182.836 161.921 179.376 161.138 176.099 162.519C172.821 163.901 170.966 166.924 171.956 169.272C172.946 171.62 176.405 172.404 179.683 171.023Z" fill="#F55858"/>
<path d="M80.2609 169.248C81.2506 166.899 79.3959 163.876 76.1183 162.494C72.8407 161.113 69.3814 161.897 68.3917 164.245C67.4019 166.593 69.2566 169.616 72.5342 170.998C75.8118 172.379 79.2711 171.596 80.2609 169.248Z" fill="#F55858"/>
</svg>
