<svg xmlns="http://www.w3.org/2000/svg" width="36" height="36" viewBox="0 0 36 36" fill="none">
<path d="M11.572 8C11.1557 8.0021 10.7571 8.1684 10.4628 8.46275C10.1684 8.7571 10.0021 9.15573 10 9.572V10.462C9.99885 10.4746 9.99818 10.4873 9.998 10.5V12H3.572C3.15573 12.0021 2.7571 12.1684 2.46275 12.4628C2.1684 12.7571 2.0021 13.1557 2 13.572V26.43C2 27.292 2.71 28 3.572 28H25.428C26.29 28 27 27.292 27 26.43V24H33.428C34.29 24 35 23.292 35 22.43V9.572C34.9979 9.15573 34.8316 8.7571 34.5373 8.46275C34.2429 8.1684 33.8443 8.0021 33.428 8H11.572ZM11.572 9H33.428C33.5036 8.99836 33.5787 9.01204 33.6488 9.04021C33.719 9.06837 33.7827 9.11044 33.8361 9.16389C33.8896 9.21733 33.9316 9.28104 33.9598 9.35118C33.988 9.42132 34.0016 9.49643 34 9.572V10H11V9.572C10.9984 9.49643 11.012 9.42132 11.0402 9.35118C11.0684 9.28104 11.1104 9.21733 11.1639 9.16389C11.2173 9.11044 11.281 9.06837 11.3512 9.04021C11.4213 9.01204 11.4964 8.99836 11.572 9ZM11 11H34V13H27.037L27.029 12.543C27.0269 12.4121 26.9736 12.2873 26.8805 12.1953C26.7874 12.1033 26.6619 12.0515 26.531 12.051L25.797 12.049C25.6761 12.0177 25.5519 12.0012 25.427 12H11V11ZM3.572 13H10.496L25.662 13.047C25.7641 13.0911 25.8508 13.1645 25.911 13.258C25.9712 13.3515 26.0022 13.4608 26 13.572V26.43C26.0014 26.5054 25.9875 26.5803 25.9592 26.6502C25.9309 26.7201 25.8888 26.7836 25.8354 26.8368C25.782 26.89 25.7183 26.9319 25.6483 26.96C25.5783 26.988 25.5034 27.0016 25.428 27H3.572C3.49661 27.0016 3.42166 26.988 3.35166 26.96C3.28166 26.9319 3.21804 26.89 3.16462 26.8368C3.11121 26.7836 3.06909 26.7201 3.0408 26.6502C3.01251 26.5803 2.99864 26.5054 3 26.43V13.572C2.99836 13.4964 3.01204 13.4213 3.04021 13.3512C3.06837 13.281 3.11044 13.2173 3.16389 13.1639C3.21733 13.1104 3.28104 13.0684 3.35118 13.0402C3.42132 13.012 3.49644 12.9984 3.572 13ZM27 14H34V22.43C34.0014 22.5054 33.9875 22.5803 33.9592 22.6502C33.9309 22.7201 33.8888 22.7836 33.8354 22.8368C33.782 22.89 33.7183 22.9319 33.6483 22.96C33.5783 22.988 33.5034 23.0016 33.428 23H27V19.936C27.3469 20.0072 27.7049 20.0039 28.0503 19.9263C28.3958 19.8487 28.7209 19.6986 29.004 19.486C29.423 19.803 29.937 20 30.5 20C31.875 20 33 18.875 33 17.5C33 16.125 31.875 15 30.5 15C29.938 15 29.424 15.194 29.006 15.51C28.5648 15.1742 28.0244 14.9948 27.47 15C27.31 15 27.154 15.02 26.999 15.053L27 14ZM27.482 15.998V16C27.792 16 28.057 16.155 28.301 16.34C28.115 16.688 28 17.08 28 17.5C28 17.927 28.12 18.323 28.31 18.676C27.97 18.909 27.568 18.986 27.158 18.889L27.193 16.061C27.29 16.04 27.382 15.999 27.482 15.998ZM30.5 16C31.334 16 32 16.666 32 17.5C32 18.334 31.334 19 30.5 19C30.088 19 29.717 18.837 29.447 18.572L29.395 18.512L29.375 18.488L29.371 18.482C29.2549 18.3491 29.1631 18.1968 29.1 18.032L29.096 18.018C29.0338 17.8523 29.0013 17.677 29 17.5V17.496C29 17.319 29.035 17.146 29.096 16.982L29.1 16.967C29.162 16.803 29.254 16.65 29.371 16.516L29.375 16.51L29.395 16.486L29.447 16.426C29.717 16.161 30.087 16 30.5 16ZM14.5 16.002C12.297 16.002 10.5 17.797 10.5 20C10.5 22.203 12.297 24 14.5 24C16.703 24 18.5 22.203 18.5 20C18.4979 18.94 18.0757 17.924 17.326 17.1746C16.5762 16.4252 15.56 16.0036 14.5 16.002ZM7.5 17V18H9.5V17H7.5ZM19.5 17V18H21.5V17H19.5ZM14.5 17.002C16.163 17.002 17.5 18.339 17.5 20.002C17.5011 20.3962 17.4242 20.7867 17.2738 21.151C17.1233 21.5153 16.9024 21.8463 16.6236 22.125C16.3447 22.4036 16.0136 22.6243 15.6491 22.7745C15.2847 22.9247 14.8942 23.0013 14.5 23C14.1058 23.0013 13.7153 22.9247 13.3509 22.7745C12.9864 22.6243 12.6553 22.4036 12.3764 22.125C12.0976 21.8463 11.8767 21.5153 11.7262 21.151C11.5758 20.7867 11.4989 20.3962 11.5 20.002C11.5 18.339 12.837 17.002 14.5 17.002ZM5.5 19.5V20.5H8.5V19.5H5.5ZM20.5 19.5V20.5H23.5V19.5H20.5ZM7.5 22V23H9.5V22H7.5ZM19.5 22V23H21.5V22H19.5Z" fill="#FFFFFF"/>
</svg>