<svg width="22" height="22" viewBox="0 0 22 22" fill="none" xmlns="http://www.w3.org/2000/svg">
<g id="linkedin logo" clip-path="url(#clip0_2198_4705)">
<g id="Group">
<path id="Vector" d="M11 21.9995C17.0751 21.9995 22 17.0746 22 10.9995C22 4.92438 17.0751 -0.000488281 11 -0.000488281C4.92487 -0.000488281 0 4.92438 0 10.9995C0 17.0746 4.92487 21.9995 11 21.9995Z" fill="#007AB9"/>
<g id="Group_2">
<path id="Vector_2" d="M17.5724 11.8847V16.4197H14.9431V12.1886C14.9431 11.1262 14.5634 10.4007 13.6114 10.4007C12.8849 10.4007 12.4534 10.8891 12.2628 11.3621C12.1935 11.5311 12.1757 11.7658 12.1757 12.0029V16.4195H9.5462C9.5462 16.4195 9.58149 9.2534 9.5462 8.51161H12.1759V9.63224C12.1706 9.64106 12.1632 9.64969 12.1584 9.65812H12.1759V9.63224C12.5253 9.09457 13.1485 8.32592 14.5456 8.32592C16.2755 8.32592 17.5724 9.45615 17.5724 11.8847ZM6.79551 4.69971C5.89607 4.69971 5.30762 5.29012 5.30762 6.06583C5.30762 6.82508 5.87901 7.43255 6.761 7.43255H6.77806C7.69515 7.43255 8.26537 6.82508 8.26537 6.06583C8.24792 5.29012 7.69515 4.69971 6.79551 4.69971ZM5.4639 16.4197H8.09242V8.51161H5.4639V16.4197Z" fill="#F1F2F2"/>
</g>
</g>
</g>
<defs>
<clipPath id="clip0_2198_4705">
<rect width="22" height="22" fill="white"/>
</clipPath>
</defs>
</svg>
