<svg width="135" height="60" viewBox="0 0 135 60" fill="none" xmlns="http://www.w3.org/2000/svg">
<path fill-rule="evenodd" clip-rule="evenodd" d="M48.5431 44.8285H25.0181L28.0848 38.3493H38.4181L32.2098 25.091C32.0764 24.8452 31.8848 24.7202 31.6348 24.7202C31.3181 24.7202 31.1181 24.8452 31.0264 25.091L21.8139 44.8285H14.6973L27.1473 18.1035C28.0473 16.1452 29.5431 15.166 31.6348 15.166C33.7056 15.166 35.1889 16.1452 36.0889 18.1035L48.5431 44.8285Z" fill="white"/>
<path d="M43.6764 9.11657C32.1431 2.45823 17.3972 6.40823 10.7347 17.9416C4.0764 29.4749 8.0264 44.2249 19.5597 50.8832C31.0931 57.5416 45.8389 53.5916 52.5014 42.0582C59.1639 30.5207 55.2097 15.7749 43.6764 9.11657ZM25.0181 44.8291L28.0847 38.3499H38.4181L32.2097 25.0916C32.0764 24.8457 31.8847 24.7207 31.6347 24.7207C31.3181 24.7207 31.1181 24.8457 31.0264 25.0916L21.8139 44.8291H14.6972L27.1472 18.1041C28.0472 16.1457 29.5431 15.1666 31.6347 15.1666C33.7056 15.1666 35.1889 16.1457 36.0889 18.1041L48.5389 44.8291H25.0181Z" fill="#3B259C"/>
<path d="M67.5059 39.628C67.2559 39.878 67.1309 40.1821 67.1309 40.5446V43.778C67.1309 44.1363 67.2559 44.4405 67.5059 44.6905C67.7559 44.9405 68.06 45.0655 68.4184 45.0655H72.9434V43.7738H68.5434C68.5059 43.7738 68.4767 43.7613 68.4517 43.7363C68.4267 43.7113 68.4142 43.678 68.4142 43.6405V42.7988H72.9392V41.5071H68.4142V40.6655C68.4142 40.628 68.4267 40.5988 68.4517 40.5738C68.4767 40.5488 68.5059 40.5363 68.5434 40.5363H72.9434V39.2446H68.4184C68.06 39.2488 67.7559 39.3738 67.5059 39.628Z" fill="#3B259C"/>
<path d="M74.0384 39.6824C73.8176 39.9282 73.6634 40.2865 73.5676 40.7574C73.4926 41.1324 73.4551 41.599 73.4551 42.1574C73.4551 43.0074 73.5634 43.6782 73.7759 44.1615C74.0467 44.7657 74.4759 45.0699 75.0676 45.0699H78.6259V43.7782H75.2009C75.0467 43.7782 74.9384 43.6365 74.8717 43.3574C74.8051 43.0782 74.7717 42.6782 74.7717 42.1574C74.7717 41.6407 74.8051 41.2449 74.8717 40.9615C74.9384 40.6824 75.0467 40.5407 75.2009 40.5407H78.6259V39.249H75.0676C74.6384 39.249 74.2926 39.3949 74.0384 39.6824Z" fill="#3B259C"/>
<path d="M80.5514 39.249H79.2598V45.0699H80.5514V42.8032H82.9931V41.5115H80.5514V39.249Z" fill="#3B259C"/>
<path d="M84.4792 39.249H83.1875V45.0657H84.4792V39.249Z" fill="#3B259C"/>
<path d="M94.9242 15.3198H90.0742V37.174H94.9242V15.3198Z" fill="#3B259C"/>
<path d="M66.7893 39.249H60.9727V40.5407H66.7893V39.249Z" fill="#3B259C"/>
<path d="M73.2018 22.395C73.2685 22.2117 73.4227 22.1158 73.656 22.1158C73.8435 22.1158 73.9852 22.2075 74.0852 22.395L78.7352 32.3242H70.9935L68.6977 37.1742H86.3143L76.9893 17.1658C76.3143 15.6992 75.206 14.9658 73.656 14.9658C72.0893 14.9658 70.9685 15.6992 70.2977 17.1658L60.9727 37.1783H66.3018L73.2018 22.395Z" fill="#3B259C"/>
<path d="M64.5299 41.1865H63.2383V45.0657H64.5299V41.1865Z" fill="#3B259C"/>
<path d="M125.833 17.7825C125.928 17.6367 125.974 17.4783 125.974 17.3075C125.974 17.0408 125.878 16.8117 125.695 16.6242C125.508 16.4367 125.278 16.3408 125.012 16.3408H123.887V19.1533H124.528V18.2283H124.833L125.366 19.1533H126.058L125.458 18.12C125.612 18.0408 125.737 17.9283 125.833 17.7825ZM125.237 17.5617C125.174 17.6325 125.099 17.6658 125.008 17.6658H124.524V16.9408H125.008C125.095 16.9408 125.17 16.9742 125.237 17.045C125.299 17.1158 125.333 17.1992 125.333 17.3033C125.333 17.4075 125.303 17.4908 125.237 17.5617Z" fill="#3B259C"/>
<path d="M100.729 16.7365C99.7875 17.6782 99.3125 18.824 99.3125 20.174V23.8115C99.3125 25.1573 99.7833 26.3032 100.729 27.249C101.671 28.1907 102.817 28.6657 104.167 28.6657H115.838C115.971 28.6657 116.087 28.7115 116.179 28.8032C116.271 28.8948 116.317 29.0198 116.317 29.1698V31.824C116.317 32.1615 116.158 32.3282 115.838 32.3282H99.3125V37.1782H116.317C117.662 37.1782 118.808 36.699 119.754 35.7365C120.696 34.7782 121.171 33.6407 121.171 32.324V28.6615C121.171 27.3157 120.7 26.1698 119.754 25.224C118.812 24.2823 117.667 23.8073 116.317 23.8073H104.646C104.512 23.8073 104.396 23.7615 104.304 23.6698C104.212 23.5782 104.167 23.4615 104.167 23.3282V20.649C104.167 20.5157 104.212 20.399 104.304 20.3073C104.396 20.2157 104.512 20.1698 104.646 20.1698H121.171V15.3198H104.167C102.817 15.3198 101.671 15.7948 100.729 16.7365Z" fill="#3B259C"/>
<path d="M115.727 39.6282C115.477 39.8782 115.352 40.1824 115.352 40.5449V41.5157C115.352 41.874 115.477 42.1782 115.727 42.4324C115.977 42.6824 116.281 42.8074 116.643 42.8074H119.752C119.789 42.8074 119.818 42.8199 119.843 42.8449C119.868 42.8699 119.881 42.9032 119.881 42.9407V43.6449C119.881 43.7365 119.839 43.7782 119.752 43.7782H115.352V45.0699H119.877C120.235 45.0699 120.539 44.9407 120.793 44.6865C121.043 44.4324 121.168 44.1282 121.168 43.7782V42.8032C121.168 42.4449 121.043 42.1407 120.793 41.8865C120.543 41.6365 120.239 41.5115 119.877 41.5115H116.768C116.731 41.5115 116.702 41.499 116.677 41.474C116.652 41.449 116.639 41.4199 116.639 41.3824V40.6699C116.639 40.6324 116.652 40.6032 116.677 40.5782C116.702 40.5532 116.731 40.5407 116.768 40.5407H121.168V39.249H116.643C116.285 39.249 115.981 39.374 115.727 39.6282Z" fill="#3B259C"/>
<path d="M124.967 15.2158C123.567 15.2158 122.434 16.3492 122.434 17.7492C122.434 19.1492 123.567 20.2825 124.967 20.2825C126.367 20.2825 127.5 19.1492 127.5 17.7492C127.5 16.3492 126.367 15.2158 124.967 15.2158ZM124.967 19.8367C123.813 19.8367 122.879 18.9033 122.879 17.7492C122.879 16.595 123.813 15.6617 124.967 15.6617C126.121 15.6617 127.054 16.595 127.054 17.7492C127.059 18.8992 126.121 19.8367 124.967 19.8367Z" fill="#3B259C"/>
<path d="M113.679 39.249H109.154V40.5407H113.554C113.592 40.5407 113.621 40.5532 113.646 40.5782C113.671 40.6032 113.683 40.6324 113.683 40.6699V41.3824C113.683 41.4199 113.671 41.449 113.646 41.474C113.621 41.499 113.592 41.5115 113.554 41.5115H109.154V45.0699H113.679C114.038 45.0699 114.342 44.9407 114.596 44.6865C114.846 44.4324 114.971 44.1282 114.971 43.7782V42.8032C114.971 42.6782 114.95 42.5532 114.908 42.4282C114.867 42.3032 114.808 42.2157 114.738 42.1574C114.817 42.0949 114.879 42.0032 114.917 41.8865C114.954 41.7699 114.975 41.6449 114.975 41.5115V40.5407C114.975 40.1824 114.85 39.8782 114.6 39.624C114.342 39.374 114.038 39.249 113.679 39.249ZM113.679 43.6407C113.679 43.7324 113.638 43.774 113.55 43.774H110.442V42.799H113.55C113.588 42.799 113.617 42.8115 113.642 42.8365C113.667 42.8615 113.679 42.8949 113.679 42.9324V43.6407Z" fill="#3B259C"/>
<path d="M98.4424 43.7407C98.4174 43.7157 98.4049 43.6824 98.4049 43.6449V39.249H97.1133V43.774C97.1133 44.1324 97.2383 44.4365 97.4883 44.6865C97.7383 44.9365 98.0466 45.0615 98.4049 45.0615H101.647V43.7699H98.5341C98.4966 43.7782 98.4674 43.7657 98.4424 43.7407Z" fill="#3B259C"/>
<path d="M89.5383 39.4863C89.1133 39.2488 88.4966 39.1279 87.6966 39.1279C86.8799 39.1279 86.2674 39.2363 85.8591 39.4571C85.3591 39.7238 85.1133 40.1779 85.1133 40.8071V45.0654H86.4049V40.9404C86.4049 40.7654 86.5008 40.6404 86.6924 40.5613C86.8841 40.4821 87.2174 40.4446 87.6966 40.4446C88.1674 40.4446 88.5008 40.4863 88.6966 40.5696C88.8924 40.6529 88.9924 40.7779 88.9924 40.9404V45.0654H90.2841V40.8071C90.2841 40.2029 90.0341 39.7613 89.5383 39.4863Z" fill="#3B259C"/>
<path d="M94.993 39.249H92.4055C91.9763 39.249 91.6305 39.3907 91.3763 39.6782C91.1555 39.924 91.0013 40.2824 90.9055 40.7532C90.8305 41.1282 90.793 41.5949 90.793 42.1532C90.793 43.0032 90.9013 43.674 91.118 44.1574C91.3888 44.7615 91.818 45.0657 92.4096 45.0657H94.9971C95.5888 45.0657 96.018 44.7615 96.2888 44.1574C96.5055 43.674 96.6096 43.0032 96.6096 42.1532C96.6096 41.2824 96.5096 40.6157 96.3138 40.1574C96.0513 39.5532 95.6138 39.249 94.993 39.249ZM95.193 43.3532C95.1263 43.6365 95.018 43.7782 94.868 43.7782H92.543C92.3888 43.7782 92.2805 43.6365 92.2138 43.3574C92.1471 43.0782 92.1138 42.6782 92.1138 42.1574C92.1138 41.6115 92.143 41.2032 92.1971 40.9407C92.2513 40.6782 92.368 40.5449 92.543 40.5449H94.868C95.0263 40.5449 95.1346 40.6824 95.1971 40.9532C95.2596 41.2282 95.293 41.6282 95.293 42.1574C95.2888 42.6699 95.2555 43.0699 95.193 43.3532Z" fill="#3B259C"/>
<path d="M105.407 39.1572C104.99 39.1572 104.69 39.3531 104.511 39.7406L102.027 45.0656H103.448L105.286 41.1322C105.302 41.0822 105.344 41.0572 105.407 41.0572C105.457 41.0572 105.494 41.0822 105.519 41.1322L106.757 43.7739H104.698L104.086 45.0656H108.773L106.29 39.7406C106.115 39.3489 105.819 39.1572 105.407 39.1572Z" fill="#3B259C"/>
</svg>
