<svg width="300" height="63" viewBox="0 0 300 63" fill="none" xmlns="http://www.w3.org/2000/svg">
<path d="M19.4337 48.4996C8.71775 48.4996 0 39.6009 0 28.6629C0 17.725 8.71775 8.82628 19.4337 8.82628C23.8828 8.82628 28.2319 10.4004 31.6797 13.259C35.0757 16.075 37.4642 20.0153 38.4071 24.3543C38.8206 26.2571 38.0508 27.9725 35.7799 28.5631C33.9293 29.0443 32.3279 28.0256 31.6566 25.8815C29.8872 20.2295 25.2581 15.8838 19.4337 15.8838C12.5306 15.8838 6.91418 21.6167 6.91418 28.6629C6.91418 35.7092 12.5306 41.4421 19.4337 41.4421C21.0392 41.4421 22.5394 40.9458 24.0761 40.5355C25.9807 40.0273 27.8561 40.6953 28.569 42.5035C29.4145 44.6474 28.4143 46.3665 26.6412 47.0894C24.3467 48.0252 21.9216 48.4996 19.4337 48.4996Z" fill="#1E2120"/>
<path d="M20.2168 30.7589C26.1184 39.8886 38.1964 42.4155 47.1407 36.3915C56.0849 30.3676 58.5606 18.0394 52.6589 8.90949C50.2085 5.11893 46.5259 2.28052 42.2898 0.917358C38.1166 -0.425161 33.5791 -0.290191 29.5118 1.29631C27.7282 1.99204 26.7493 3.59248 27.5171 5.85249C28.1427 7.69416 29.8577 8.49753 31.9807 7.88858C37.5771 6.28342 43.68 7.83403 46.8874 12.7963C50.6893 18.6777 49.0944 26.6201 43.3328 30.5007C37.5707 34.3813 29.7897 32.7535 25.9879 26.8721C25.1038 25.5042 24.6835 23.9527 24.1725 22.4177C23.5392 20.515 21.9601 19.2851 20.0889 19.6734C17.8701 20.1339 17.0151 21.9328 17.4004 23.8417C17.8988 26.3119 18.8466 28.6392 20.2168 30.7589Z" fill="#1E2120"/>
<path d="M65.7061 26.3885C65.7061 18.4487 71.5216 12.8838 79.5178 12.8838C82.706 12.8838 85.0263 13.6657 86.3871 14.3026C87.2058 14.6857 87.5922 15.6479 87.2551 16.5002L86.965 17.2336C86.6178 18.111 85.6384 18.5385 84.7832 18.1734C83.6711 17.6988 81.9852 17.1874 79.8816 17.1874C74.9379 17.1874 70.7944 20.7491 70.7944 26.3885C70.7944 32.0278 74.9379 35.4412 79.8816 35.4412C81.9494 35.4412 83.6139 34.9471 84.7261 34.4794C85.6034 34.1104 86.6016 34.5627 86.9274 35.4726L87.1814 36.1824C87.4733 36.9985 87.1246 37.9191 86.357 38.2952C85.0474 38.9374 82.7572 39.7449 79.5178 39.7449C71.5216 39.7449 65.7061 34.254 65.7061 26.3885Z" fill="#1E2120"/>
<path d="M101.764 39.7449C94.2031 39.7449 88.0967 34.625 88.0967 26.4626C88.0967 18.2264 94.2031 12.8838 101.764 12.8838C109.324 12.8838 115.503 18.2264 115.503 26.4626C115.503 34.625 109.324 39.7449 101.764 39.7449ZM110.56 26.3885C110.56 20.675 106.561 17.0391 101.764 17.0391C97.0384 17.0391 93.0401 20.675 93.0401 26.3885C93.0401 32.1019 97.0384 35.5895 101.764 35.5895C106.561 35.5895 110.56 32.1019 110.56 26.3885Z" fill="#1E2120"/>
<path d="M123.53 17.1874C125.347 14.5161 128.11 12.8838 132.907 12.8838C139.958 12.8838 144.102 17.5583 144.102 24.5335V37.4448C144.102 38.3873 143.354 39.151 142.43 39.151H140.758C139.835 39.151 139.086 38.3873 139.086 37.4448V25.2012C139.086 20.6008 136.615 17.1874 131.817 17.1874C126.51 17.1874 124.257 21.2686 124.257 24.1625V37.4448C124.257 38.3873 123.508 39.151 122.585 39.151H120.912C119.989 39.151 119.241 38.3873 119.241 37.4448V15.1838C119.241 14.2414 119.989 13.4774 120.912 13.4774H121.276C122.11 13.4774 122.816 14.1044 122.931 14.9472L123.287 17.5338C123.424 17.3095 123.53 17.1874 123.53 17.1874Z" fill="#1E2120"/>
<path d="M159.202 31.2115L166.68 14.4757C166.952 13.8676 167.546 13.4775 168.201 13.4775H169.966C171.204 13.4775 172.013 14.8025 171.467 15.9363L160.752 38.1972C160.471 38.7811 159.888 39.1514 159.251 39.1514H157.844C157.207 39.1514 156.625 38.7811 156.344 38.1972L145.629 15.9363C145.083 14.8025 145.891 13.4775 147.129 13.4775H148.967C149.622 13.4775 150.217 13.8676 150.488 14.4757L157.938 31.1482L158.548 32.6446L159.202 31.2115Z" fill="#1E2120"/>
<path d="M177.274 29.6567C178.523 33.5967 181.986 35.5895 186.136 35.5895C188.97 35.5895 191.09 34.8359 192.368 34.2056C193.183 33.8032 194.161 34.1463 194.573 34.9699L194.849 35.5217C195.25 36.3244 194.978 37.3147 194.213 37.7659C192.736 38.6378 190.007 39.8191 186.063 39.8191C177.485 39.8191 171.887 34.254 171.887 26.3885C171.887 18.5973 177.267 12.8838 185.046 12.8838C192.896 12.8838 197.404 18.4487 197.404 25.7207C197.404 26.6631 196.655 27.4271 195.732 27.4271H177.022C177.057 28.5418 177.057 28.4193 177.274 29.6567ZM191.673 21.1837C190.451 18.7002 188.098 17.0391 184.973 17.0391C181.798 17.0391 179.363 18.5269 177.92 21.1267C177.699 21.5248 177.389 22.106 177.029 23.643H192.305C192.164 22.4992 191.994 22.0303 191.673 21.1837Z" fill="#1E2120"/>
<path d="M205.226 17.1874C206.171 15.7034 208.352 13.4775 212.641 13.4775C213.879 13.4775 214.889 13.652 215.657 13.8628C216.645 14.1338 217.153 15.2478 216.738 16.2016L216.33 17.1367C215.999 17.8969 215.184 18.2969 214.394 18.0967C213.866 17.9631 213.182 17.8551 212.35 17.8551C209.297 17.8551 206.026 20.1555 206.026 23.4204V37.4448C206.026 38.3873 205.277 39.151 204.354 39.151H202.682C201.758 39.151 201.01 38.3873 201.01 37.4448V15.1838C201.01 14.2414 201.758 13.4775 202.682 13.4775H203.045C203.879 13.4775 204.585 14.1046 204.701 14.9475L205.044 17.4604C205.096 17.3929 205.226 17.1874 205.226 17.1874Z" fill="#1E2120"/>
<path d="M218.697 34.477C219.132 33.7165 220.058 33.4167 220.84 33.7877C222.413 34.5332 225.254 35.5895 228.735 35.5895C232.879 35.5895 235.278 34.4023 235.278 32.176C235.278 26.8335 217.977 29.5051 217.977 20.3037C217.977 16.1484 221.248 12.8838 228.662 12.8838C232.871 12.8838 235.862 13.6391 237.575 14.2388C238.513 14.5673 238.962 15.6524 238.544 16.5706L238.124 17.4945C237.745 18.3278 236.788 18.7125 235.962 18.3488C234.617 17.757 232.334 17.0391 229.171 17.0391C225.246 17.0391 222.774 17.781 222.774 20.2296C222.774 25.3498 240.076 22.3817 240.076 32.0278C240.076 36.1831 236.805 39.7449 228.735 39.7449C223.848 39.7449 220.628 38.4915 218.926 37.5743C218.089 37.1236 217.8 36.0466 218.277 35.2125L218.697 34.477Z" fill="#1E2120"/>
<path d="M245.289 13.4775H246.961C247.884 13.4775 248.633 14.2414 248.633 15.1838V37.4448C248.633 38.3873 247.884 39.151 246.961 39.151H245.289C244.366 39.151 243.617 38.3873 243.617 37.4448V15.1838C243.617 14.2414 244.366 13.4775 245.289 13.4775Z" fill="#1E2120"/>
<path d="M252.245 26.3885C252.245 18.4487 258.061 12.8838 266.058 12.8838C269.246 12.8838 271.566 13.6657 272.927 14.3027C273.745 14.6857 274.132 15.6478 273.795 16.5001L273.505 17.2334C273.158 18.1109 272.178 18.5384 271.323 18.1733C270.211 17.6987 268.525 17.1874 266.421 17.1874C261.478 17.1874 257.334 20.7491 257.334 26.3885C257.334 32.0278 261.478 35.4413 266.421 35.4413C268.489 35.4413 270.153 34.9471 271.266 34.4794C272.143 34.1104 273.142 34.5628 273.467 35.4726L273.721 36.1824C274.013 36.9984 273.664 37.9191 272.897 38.2951C271.587 38.9374 269.297 39.7449 266.058 39.7449C258.061 39.7449 252.245 34.254 252.245 26.3885Z" fill="#1E2120"/>
<path d="M295.202 26.0834V24.3108C295.202 19.7846 292.803 17.1874 286.769 17.1874C284.141 17.1874 282.112 17.8715 280.859 18.4546C280.031 18.8403 279.057 18.4787 278.662 17.6411L278.281 16.8315C277.876 15.9722 278.237 14.9435 279.084 14.5429C280.63 13.8125 283.436 12.8838 287.714 12.8838C296.583 12.8838 300 18.0037 300 24.9785V37.4448C300 38.3873 299.251 39.1514 298.328 39.1514H297.921C297.106 39.1514 296.41 38.5518 296.273 37.732L295.942 35.7527C295.834 35.9496 295.711 36.109 295.711 36.109C295.057 37.0736 292.512 39.7449 286.115 39.7449C278.627 39.7449 275.284 35.9605 275.284 31.4342C275.284 27.0562 278.919 23.4945 286.769 23.4945C291.422 23.4945 293.821 24.9044 294.766 25.6463C294.766 25.6463 295.009 25.8709 295.202 26.0834ZM286.988 35.9605C291.713 35.9605 295.057 33.0668 295.057 31.2859C295.057 28.7629 291.713 26.9821 286.988 26.9821C282.772 26.9821 280.299 28.6888 280.299 31.4342C280.299 33.9569 282.481 35.9605 286.988 35.9605Z" fill="#1E2120"/>
<path d="M146.243 47.9607C146.707 47.9607 147.203 48.3832 147.729 49.2283C148.269 50.0735 148.538 50.9186 148.538 51.7637C148.538 52.2758 148.325 52.8843 147.899 53.5884C147.472 54.2925 146.933 54.9587 146.281 55.586C145.641 56.2006 144.895 56.7257 144.042 57.161C143.202 57.5962 142.399 57.814 141.634 57.814H141.409C140.619 61.1688 140.06 62.8463 139.734 62.8463C139.471 62.8463 139.195 62.6224 138.906 62.1741C138.605 61.7258 138.455 61.3547 138.455 61.0601C138.455 60.7654 138.637 59.8627 139.001 58.3518C140.079 53.87 140.619 50.4895 140.619 48.2104C140.619 47.8262 140.8 47.6341 141.164 47.6341C141.465 47.6341 141.847 47.807 142.312 48.1527C142.776 48.4985 143.064 48.9468 143.177 49.4972C144.243 48.4727 145.265 47.9607 146.243 47.9607ZM141.992 55.5284C142.97 55.3363 143.892 54.7858 144.757 53.8765C145.635 52.9672 146.074 52.1797 146.074 51.514C146.074 50.8483 145.892 50.5152 145.528 50.5152C145.002 50.5152 144.443 50.8226 143.854 51.4372C143.616 51.6934 143.352 52.071 143.064 52.5704C142.776 53.0698 142.525 53.6526 142.312 54.3183L141.992 55.5284ZM152.472 55.8933C153.149 55.586 153.738 54.9648 154.24 54.0302C154.741 53.0955 154.992 52.2182 154.992 51.3988C154.992 50.5794 154.879 50.0158 154.654 49.7085C154.114 50.0285 153.575 50.7008 153.036 51.7253C152.509 52.7498 152.246 53.6526 152.246 54.4335C152.246 55.2018 152.321 55.6885 152.472 55.8933ZM149.725 54.6256C149.725 53.0249 150.208 51.5075 151.174 50.0735C152.152 48.6394 153.117 47.9223 154.071 47.9223C155.024 47.9223 155.826 48.268 156.478 48.9594C157.13 49.6382 157.457 50.4641 157.457 51.4372C157.457 52.3976 157.231 53.3771 156.779 54.3759C156.328 55.3747 155.694 56.2071 154.879 56.8729C154.064 57.5259 153.192 57.8524 152.265 57.8524C151.575 57.8524 150.979 57.5386 150.477 56.9113C149.976 56.284 149.725 55.5218 149.725 54.6256ZM169.968 47.9415C170.319 47.9415 170.701 48.0632 171.115 48.3064C171.542 48.5496 171.755 48.8058 171.755 49.0747C171.755 49.3436 171.542 50.2529 171.115 51.8021C170.689 53.3514 170.018 54.7474 169.102 55.9893C168.199 57.2186 167.528 57.8332 167.089 57.8332C166.914 57.8332 166.65 57.7053 166.299 57.4491C165.948 57.1929 165.697 56.9047 165.547 56.5848C165.284 56.0596 165.152 54.523 165.152 51.975C164.612 53.7678 163.998 55.1953 163.308 56.2582C162.618 57.3081 162.06 57.8332 161.634 57.8332C161.446 57.8332 161.17 57.7053 160.806 57.4491C160.455 57.1928 160.229 56.937 160.129 56.6808C159.853 55.9893 159.59 54.6705 159.339 52.7241C159.088 50.7776 158.963 49.4461 158.963 48.7289C158.963 48.2038 159.138 47.9414 159.49 47.9414C159.966 47.9414 160.455 48.2361 160.957 48.825C161.458 49.4139 161.709 49.8749 161.709 50.2079C161.709 52.0645 161.728 53.5435 161.766 54.6448C162.267 53.8638 162.719 52.8904 163.12 51.7253C163.534 50.5602 163.866 49.6382 164.117 48.9594C164.368 48.2807 164.631 47.9414 164.907 47.9414C165.459 47.9414 166.004 48.2169 166.544 48.7674C167.083 49.3052 167.353 49.8557 167.353 50.4192C167.353 50.6754 167.309 51.2067 167.221 52.0134C167.146 52.8201 167.108 53.4282 167.108 53.8381C167.108 54.248 167.133 54.5872 167.184 54.8561C167.597 54.4335 167.955 53.8124 168.256 52.993C168.569 52.1736 168.795 51.3988 168.933 50.6689C169.284 48.8507 169.629 47.9415 169.968 47.9415ZM180.746 51.5332C180.746 52.1605 180.326 52.7241 179.486 53.2235C178.658 53.7229 177.805 53.9726 176.927 53.9726C176.049 53.9726 175.328 53.9084 174.764 53.7805C174.651 54.1262 174.595 54.472 174.595 54.8177C174.595 55.1634 174.651 55.4131 174.764 55.5668C174.877 55.7077 175.159 55.778 175.611 55.778C176.551 55.778 177.354 55.6885 178.018 55.5091C178.696 55.3297 179.047 55.2402 179.072 55.2402C179.586 55.2402 179.843 55.4131 179.843 55.7588C179.843 56.2582 179.435 56.7319 178.62 57.1802C177.818 57.6285 176.883 57.8524 175.817 57.8524C174.764 57.8524 173.917 57.5132 173.278 56.8345C172.638 56.1557 172.318 55.3555 172.318 54.4335C172.318 53.4989 172.582 52.5255 173.109 51.514C173.648 50.5026 174.319 49.6574 175.121 48.9787C175.924 48.2872 176.72 47.9415 177.511 47.9415C178.313 47.9415 179.053 48.3448 179.73 49.1515C180.408 49.9455 180.746 50.7392 180.746 51.5332ZM178.564 51.2259C178.564 51.098 178.432 50.9121 178.169 50.6689C177.906 50.4257 177.655 50.304 177.416 50.304C177.191 50.304 176.896 50.4768 176.532 50.8226C176.168 51.1556 175.823 51.5908 175.498 52.1287C175.611 52.1413 175.773 52.1479 175.987 52.1479C177.705 52.1479 178.564 51.8405 178.564 51.2259ZM183.197 51.1875L183.084 49.0171C183.084 48.2999 183.303 47.9415 183.743 47.9415C183.993 47.9415 184.238 48.0375 184.476 48.2296C184.727 48.4216 184.915 48.7224 185.041 49.1323C185.467 48.7482 185.931 48.4409 186.433 48.2104C186.947 47.9672 187.398 47.8454 187.787 47.8454C188.702 47.8454 189.16 48.0694 189.16 48.5177C189.16 48.7482 189.116 48.921 189.029 49.0363C188.953 49.1388 188.891 49.2157 188.841 49.2668C188.803 49.3179 188.728 49.3885 188.615 49.4781C188.514 49.5549 188.439 49.6125 188.389 49.6509C188.1 49.843 187.894 49.9774 187.768 50.0543C187.204 50.4127 186.721 50.8483 186.32 51.3604C185.918 51.8598 185.617 52.5578 185.417 53.454C185.078 54.9264 184.746 56.0277 184.42 56.7576C184.106 57.4748 183.749 57.8332 183.347 57.8332C182.958 57.8332 182.664 57.6412 182.463 57.257C182.275 56.8729 182.181 56.5145 182.181 56.1814C182.181 55.8357 182.3 55.3236 182.539 54.6448C182.789 53.966 182.958 53.3837 183.046 52.897C183.147 52.3976 183.197 51.8279 183.197 51.1875ZM196.916 46.4049C196.866 46.1102 196.785 45.8413 196.672 45.5982C196.559 45.355 196.421 45.2332 196.258 45.2332C196.108 45.2332 195.951 45.3485 195.788 45.579C195.637 45.8094 195.487 46.1871 195.336 46.7122C195.098 47.5316 194.86 48.4858 194.621 49.5741C195.574 49.523 196.289 49.4972 196.766 49.4972C197.255 49.4972 197.619 49.5741 197.857 49.7277C198.095 49.8687 198.214 50.0416 198.214 50.2463C198.214 50.6432 197.863 50.9505 197.161 51.1683C196.459 51.3861 195.443 51.5974 194.114 51.8021C193.486 54.4785 193.048 56.1557 192.797 56.8344C192.546 57.5002 192.27 57.8332 191.969 57.8332C191.731 57.8332 191.449 57.6346 191.122 57.2378C190.809 56.8279 190.652 56.5206 190.652 56.3158C190.652 56.1111 190.696 55.8676 190.784 55.586C191.172 54.4719 191.467 53.3963 191.668 52.3591C191.292 52.4617 190.953 52.5128 190.652 52.5128C190.364 52.5128 190.075 52.3783 189.787 52.1094C189.498 51.8279 189.354 51.4883 189.354 51.0915C189.354 50.6305 190.257 50.2337 192.063 49.9006C192.427 47.4421 192.935 45.6623 193.587 44.561C194.239 43.4469 195.179 42.8899 196.409 42.8899C196.998 42.8899 197.537 43.1846 198.026 43.7735C198.515 44.3624 198.76 45.0604 198.76 45.8671C198.76 46.3922 198.678 46.8082 198.515 47.1155C198.353 47.4102 198.139 47.5573 197.876 47.5573C197.613 47.5573 197.399 47.4355 197.236 47.1924C197.086 46.9492 196.979 46.6865 196.916 46.4049ZM205.073 48.4216C205.173 48.1016 205.374 47.9415 205.675 47.9415C205.975 47.9415 206.321 48.2038 206.709 48.729C207.111 49.2541 207.311 49.7085 207.311 50.0927C207.311 50.2337 207.023 51.1748 206.446 52.9162C205.869 54.6575 205.424 56.0343 205.11 57.0457C204.935 57.5835 204.64 57.8524 204.226 57.8524C203.975 57.8524 203.762 57.7629 203.586 57.5835C203.424 57.3915 203.342 57.0968 203.342 56.7C203.342 56.3032 203.417 55.7396 203.568 55.0098C202.276 56.9047 201.248 57.8524 200.482 57.8524C200.081 57.8524 199.598 57.5901 199.034 57.0649C198.47 56.5271 198.187 56.0085 198.187 55.5091C198.187 54.2799 198.526 52.7114 199.203 50.8033C199.893 48.8953 200.539 47.9415 201.141 47.9415C201.505 47.9415 201.824 48.1078 202.1 48.4408C202.389 48.7739 202.533 49.1388 202.533 49.5357C202.533 49.6893 202.376 50.1184 202.063 50.8226C201.11 52.9354 200.633 54.427 200.633 55.2979C200.633 55.3747 200.665 55.4131 200.727 55.4131C200.915 55.4131 201.267 55.1123 201.78 54.5104C202.307 53.8957 202.89 53.0249 203.53 51.8982C204.182 50.7584 204.696 49.5998 205.073 48.4216ZM210.741 42.5634C211.042 42.5634 211.431 42.845 211.908 43.4085C212.384 43.9721 212.622 44.5099 212.622 45.0219C212.622 45.534 212.547 46.4498 212.397 47.7686C212.246 49.0747 212.089 50.1184 211.926 50.8994C210.885 55.5349 210.158 57.8524 209.744 57.8524C209.468 57.8524 209.123 57.6285 208.71 57.1802C208.308 56.7192 208.108 56.3416 208.108 56.0469C208.108 56.0212 208.277 55.3555 208.616 54.0494C208.954 52.7433 209.293 51.0657 209.631 49.0171C209.982 46.9554 210.158 44.9901 210.158 43.1204C210.158 42.749 210.352 42.5634 210.741 42.5634ZM216.397 42.5634C216.698 42.5634 217.086 42.845 217.563 43.4085C218.04 43.9721 218.278 44.5099 218.278 45.0219C218.278 45.534 218.202 46.4498 218.052 47.7686C217.901 49.0747 217.745 50.1184 217.582 50.8994C216.541 55.5349 215.813 57.8524 215.399 57.8524C215.124 57.8524 214.779 57.6285 214.365 57.1802C213.963 56.7192 213.763 56.3416 213.763 56.0469C213.763 56.0212 213.932 55.3555 214.271 54.0494C214.609 52.7433 214.948 51.0657 215.287 49.0171C215.638 46.9554 215.813 44.9901 215.813 43.1204C215.813 42.749 216.008 42.5634 216.397 42.5634ZM225.852 48.4216C225.927 48.1016 226.134 47.9415 226.473 47.9415C226.811 47.9415 227.156 48.1593 227.507 48.5945C227.871 49.0297 228.053 49.523 228.053 50.0735C228.053 50.3935 227.94 50.8994 227.714 51.5908C227.488 52.2823 227.325 52.7752 227.225 53.0698C227.137 53.3645 227.006 53.7678 226.83 54.2799C226.655 54.7793 226.491 55.2468 226.341 55.682C226.203 56.1046 226.009 56.6742 225.758 57.3915C225.52 58.1087 225.3 58.7744 225.099 59.389C224.711 60.5415 224.234 61.4315 223.67 62.0588C223.118 62.6861 222.397 63 221.506 63C220.616 63 219.82 62.7568 219.117 62.2701C218.415 61.7965 218.064 61.3163 218.064 60.8296C218.064 60.5349 218.189 60.2084 218.44 59.85C218.703 59.4916 218.923 59.3122 219.098 59.3122C219.286 59.3122 219.525 59.4593 219.813 59.754C220.114 60.0613 220.422 60.3621 220.735 60.6567C221.049 60.964 221.324 61.1177 221.563 61.1177C221.726 61.1177 221.858 61.0408 221.958 60.8872C222.071 60.7335 222.159 60.5926 222.221 60.4646C222.296 60.3494 222.372 60.1831 222.447 59.9652C222.522 59.7605 222.591 59.5684 222.654 59.389C222.717 59.2096 222.792 58.973 222.879 58.6784C222.968 58.3837 223.043 58.1213 223.105 57.8909C223.319 57.1994 223.5 56.5848 223.651 56.047C223.237 56.5974 222.811 57.0392 222.372 57.3723C221.933 57.6923 221.525 57.8524 221.149 57.8524C220.785 57.8524 220.327 57.5709 219.776 57.0073C219.236 56.4311 218.967 55.8038 218.967 55.125C218.967 54.4335 219.111 53.5116 219.399 52.3591C219.7 51.2067 220.07 50.1822 220.509 49.286C220.948 48.3898 221.337 47.9415 221.676 47.9415C222.065 47.9415 222.428 48.1143 222.767 48.4601C223.118 48.7931 223.293 49.1196 223.293 49.4396C223.293 49.747 223.137 50.2463 222.823 50.9378C222.522 51.6293 222.215 52.3849 221.901 53.2043C221.588 54.0237 221.431 54.7217 221.431 55.2979C221.431 55.3747 221.463 55.4131 221.525 55.4131C221.688 55.4131 222.033 55.1058 222.56 54.4912C223.086 53.8638 223.676 52.9803 224.328 51.8405C224.993 50.6881 225.501 49.5483 225.852 48.4216ZM239.515 43.3701C239.515 42.8323 239.722 42.5634 240.136 42.5634C240.474 42.5634 240.863 42.8515 241.302 43.4277C241.741 44.004 241.96 44.4968 241.96 44.9067C241.96 45.3166 241.879 45.8928 241.716 46.6354C241.553 47.3779 241.384 48.0567 241.208 48.6713C241.045 49.286 240.794 50.163 240.455 51.3027C240.117 52.4294 239.885 53.2169 239.759 53.6652C240.575 51.975 241.434 50.5986 242.337 49.5357C243.252 48.4727 244.017 47.9415 244.632 47.9415C245.02 47.9415 245.466 48.2937 245.967 48.9979C246.469 49.6893 246.72 50.3166 246.72 50.8802C246.72 51.4307 246.619 52.2374 246.419 53.3003C246.218 54.3632 245.867 55.3874 245.365 56.3735C244.864 57.3596 244.349 57.8524 243.823 57.8524C243.409 57.8524 243.202 57.5516 243.202 56.9497C243.202 56.5145 243.327 55.8038 243.578 54.8177C243.942 53.3453 244.124 52.4486 244.124 52.1287C244.124 51.8087 244.074 51.6485 243.973 51.6485C243.246 51.6485 242.18 52.8843 240.775 55.3555C240.299 56.2006 239.897 56.8279 239.571 57.2378C239.258 57.6477 238.957 57.8524 238.668 57.8524C238.38 57.8524 238.029 57.6154 237.615 57.1418C237.213 56.6681 237.013 56.3032 237.013 56.047C237.013 55.778 237.063 55.3874 237.163 54.8753C237.276 54.3632 237.439 53.6334 237.652 52.6857C237.878 51.738 238.242 50.0224 238.744 47.5381C239.258 45.0412 239.515 43.6517 239.515 43.3701ZM255.025 48.4216C255.125 48.1016 255.326 47.9415 255.627 47.9415C255.928 47.9415 256.273 48.2038 256.661 48.729C257.063 49.2541 257.263 49.7085 257.263 50.0927C257.263 50.2337 256.975 51.1748 256.398 52.9162C255.821 54.6575 255.376 56.0343 255.062 57.0457C254.887 57.5835 254.592 57.8524 254.178 57.8524C253.927 57.8524 253.714 57.7629 253.539 57.5835C253.376 57.3915 253.294 57.0968 253.294 56.7C253.294 56.3032 253.369 55.7396 253.52 55.0098C252.228 56.9047 251.2 57.8524 250.435 57.8524C250.033 57.8524 249.551 57.5901 248.986 57.0649C248.422 56.5271 248.14 56.0085 248.14 55.5091C248.14 54.2799 248.478 52.7114 249.156 50.8033C249.845 48.8953 250.491 47.9415 251.093 47.9415C251.457 47.9415 251.777 48.1078 252.053 48.4408C252.341 48.7739 252.485 49.1388 252.485 49.5357C252.485 49.6893 252.328 50.1184 252.015 50.8226C251.062 52.9354 250.585 54.427 250.585 55.2979C250.585 55.3747 250.616 55.4131 250.679 55.4131C250.867 55.4131 251.218 55.1123 251.733 54.5104C252.259 53.8957 252.843 53.0249 253.482 51.8982C254.134 50.7584 254.649 49.5998 255.025 48.4216ZM270.889 47.9415C271.378 47.9415 271.786 48.2745 272.112 48.9402C272.438 49.606 272.601 50.2145 272.601 50.7649C272.601 51.3154 272.495 52.1352 272.281 53.2235C272.081 54.2991 271.755 55.3428 271.303 56.3543C270.864 57.353 270.388 57.8524 269.873 57.8524C269.46 57.8524 269.253 57.5643 269.253 56.9881C269.253 56.4119 269.416 55.4707 269.742 54.1646C270.068 52.8585 270.231 52.0007 270.231 51.5908C270.231 51.181 270.168 50.9762 270.043 50.9762C269.779 50.9762 269.466 51.2708 269.102 51.8597C268.739 52.4486 268.3 53.2361 267.785 54.2223C267.284 55.2084 266.97 55.8422 266.845 56.1238C266.719 56.4054 266.613 56.6297 266.525 56.796C266.45 56.9624 266.362 57.1352 266.262 57.3146C265.86 57.9934 265.327 57.9934 264.663 57.3146C264.324 56.9689 264.155 56.655 264.155 56.3735C264.155 56.3224 264.255 55.8357 264.456 54.9137C264.669 53.9791 264.775 52.9161 264.775 51.7253C264.775 51.2259 264.719 50.9762 264.606 50.9762C264.456 50.9762 264.28 51.1299 264.079 51.4372C263.879 51.7445 263.571 52.3015 263.158 53.1082C262.744 53.9149 262.386 54.5806 262.085 55.1058C261.032 56.937 260.229 57.8524 259.677 57.8524C259.402 57.8524 259.057 57.6154 258.643 57.1418C258.242 56.6681 258.041 56.3093 258.041 56.0662C258.041 55.8099 258.179 55.2083 258.455 54.2607C258.743 53.3003 258.925 52.2823 259 51.2067C259.088 50.1311 259.163 49.2925 259.226 48.6905C259.301 48.0886 259.452 47.7878 259.677 47.7878C260.154 47.7878 260.612 47.9925 261.051 48.4024C261.502 48.7992 261.728 49.1642 261.728 49.4972C261.728 50.2529 261.458 51.5716 260.919 53.4539C261.797 51.3154 262.537 49.8687 263.139 49.1131C263.778 48.3321 264.393 47.9414 264.982 47.9414C265.309 47.9414 265.71 48.2488 266.186 48.8634C266.675 49.478 266.92 50.0543 266.92 50.5921C266.92 51.1172 266.914 51.5782 266.901 51.975C267.29 50.9762 267.879 50.0543 268.669 49.2091C269.46 48.364 270.2 47.9415 270.889 47.9415ZM281.919 52.3976C282.145 52.6023 282.258 52.7882 282.258 52.9546C282.258 53.1209 282.183 53.4666 282.032 53.9918C281.882 54.5169 281.782 54.9264 281.731 55.221C281.681 55.5026 281.637 55.727 281.6 55.8933C281.575 56.0596 281.556 56.1941 281.543 56.2966C281.531 56.3861 281.506 56.5014 281.468 56.6424C281.443 56.7834 281.418 56.8986 281.393 56.9881C281.38 57.0649 281.355 57.161 281.317 57.2762C281.293 57.3788 281.261 57.4618 281.223 57.5259C281.186 57.577 281.142 57.6346 281.092 57.6988C281.016 57.8013 280.891 57.8524 280.715 57.8524C280.54 57.8524 280.32 57.673 280.057 57.3146C279.806 56.9562 279.618 56.5206 279.493 56.0085C278.314 57.2378 277.323 57.8524 276.52 57.8524C275.981 57.8524 275.398 57.5517 274.771 56.9497C274.144 56.3351 273.83 55.727 273.83 55.125C273.83 54.5104 274.1 53.6395 274.639 52.5128C275.179 51.3861 275.912 50.3424 276.84 49.382C277.781 48.4216 278.709 47.9415 279.624 47.9415C280.151 47.9415 280.759 48.2553 281.449 48.8826C282.139 49.5099 282.484 50.0861 282.484 50.6113C282.484 51.1233 282.296 51.7188 281.919 52.3976ZM276.445 55.4323C276.947 55.4323 277.611 55.0866 278.439 54.3951C279.28 53.691 279.8 52.8074 280.001 51.7445C280.013 51.5908 280.12 51.5013 280.32 51.4756C280.283 50.7457 280.164 50.3808 279.963 50.3808C279.461 50.3808 278.897 50.7138 278.27 51.3796C277.655 52.0453 277.148 52.756 276.746 53.5116C276.357 54.2672 276.163 54.8242 276.163 55.1826C276.163 55.2852 276.176 55.3555 276.201 55.3939C276.238 55.4196 276.32 55.4323 276.445 55.4323ZM290.907 47.9415C291.559 47.9415 292.13 48.2422 292.619 48.8442C293.121 49.4331 293.371 50.0669 293.371 50.7457C293.371 51.834 293.196 52.9738 292.845 54.1646C292.506 55.3428 292.13 56.2517 291.716 56.8921C291.315 57.5324 290.901 57.8524 290.474 57.8524C290.06 57.8524 289.853 57.5516 289.853 56.9497C289.853 56.4887 290.06 55.5602 290.474 54.1646C290.788 53.0122 290.945 52.1863 290.945 51.6869C290.945 51.1875 290.882 50.9378 290.756 50.9378C290.594 50.9378 290.431 51.0212 290.267 51.1875C290.117 51.3538 289.992 51.5013 289.891 51.6293C289.791 51.7572 289.672 51.9239 289.534 52.1287C289.408 52.3207 289.296 52.5001 289.195 52.6665C289.107 52.8201 288.988 53.0249 288.838 53.2811C288.7 53.5243 288.587 53.7294 288.499 53.8957C288.411 54.0494 288.298 54.2541 288.16 54.5104C286.994 56.7384 286.079 57.8524 285.414 57.8524C285.15 57.8524 284.818 57.622 284.417 57.161C284.016 56.6873 283.815 56.3416 283.815 56.1238C283.815 55.9828 283.903 55.682 284.078 55.221C284.266 54.7474 284.398 54.3886 284.473 54.1454C284.561 53.8892 284.63 53.6203 284.68 53.3387C284.743 53.0571 284.793 52.756 284.831 52.436C284.868 52.1029 284.894 51.8471 284.906 51.6677C284.931 51.4883 284.956 51.2067 284.981 50.8226C285.094 49.1581 285.188 48.2361 285.263 48.0567C285.351 47.8773 285.445 47.7878 285.546 47.7878C286.022 47.7878 286.48 47.9926 286.919 48.4024C287.358 48.7993 287.577 49.1642 287.577 49.4973C287.577 50.2913 287.377 51.4307 286.975 52.9162C287.791 51.4564 288.531 50.2655 289.195 49.3436C289.872 48.409 290.443 47.9415 290.907 47.9415Z" fill="#1E2120"/>
<path d="M294 48.5C294 47.598 294.359 46.7892 295.077 46.0735C295.794 45.3578 296.565 45 297.388 45C298.22 45 298.861 45.2402 299.311 45.7206C299.77 46.201 300 46.8137 300 47.5588C300 48.549 299.656 49.3725 298.967 50.0294C298.287 50.6765 297.44 51 296.426 51C295.651 51 295.053 50.7696 294.632 50.3088C294.211 49.8382 294 49.2353 294 48.5ZM296.325 50.4559C297.234 50.4559 297.952 50.1961 298.478 49.6765C299.014 49.1569 299.282 48.4216 299.282 47.4706C299.282 46.9118 299.129 46.4559 298.823 46.1029C298.526 45.7402 298.153 45.5588 297.703 45.5588C296.967 45.5588 296.278 45.848 295.636 46.4265C295.005 47.0049 294.689 47.7598 294.689 48.6912C294.689 49.25 294.837 49.6863 295.134 50C295.431 50.3039 295.828 50.4559 296.325 50.4559ZM296.096 49.5882C296.048 49.5882 295.986 49.549 295.909 49.4706C295.842 49.3922 295.809 49.3186 295.809 49.25C295.809 49.1716 295.885 48.848 296.038 48.2794C296.201 47.7108 296.297 47.2745 296.325 46.9706C296.201 46.8824 296.139 46.7843 296.139 46.6765C296.139 46.5882 296.249 46.5049 296.469 46.4265C296.689 46.3382 296.933 46.2941 297.201 46.2941C297.469 46.2941 297.699 46.3578 297.89 46.4853C298.091 46.6029 298.191 46.7794 298.191 47.0147C298.191 47.25 298.091 47.4608 297.89 47.6471C297.689 47.8333 297.488 47.9706 297.287 48.0588C297.096 48.1471 297 48.2059 297 48.2059C297 48.3235 297.187 48.5343 297.56 48.8382C297.636 48.9167 297.718 48.9902 297.804 49.0588C297.89 49.1275 297.952 49.1863 297.99 49.2353C298.077 49.3137 298.12 49.3824 298.12 49.4412C298.12 49.5392 298.043 49.5882 297.89 49.5882C297.746 49.5882 297.522 49.4559 297.215 49.1912C296.909 48.9265 296.684 48.6716 296.541 48.4265L296.526 48.4559C296.316 49.2108 296.172 49.5882 296.096 49.5882ZM297.66 47.0294C297.66 46.8922 297.517 46.8235 297.23 46.8235C297.115 46.8235 296.971 46.8529 296.799 46.9118C296.818 46.951 296.828 47.0245 296.828 47.1324C296.828 47.2304 296.775 47.4804 296.67 47.8824C297.187 47.6176 297.493 47.4069 297.589 47.25C297.636 47.1814 297.66 47.1078 297.66 47.0294Z" fill="#1E2120"/>
</svg>
