<svg width="251" height="61" viewBox="0 0 251 61" fill="none" xmlns="http://www.w3.org/2000/svg">
<g clip-path="url(#clip0_847_23524)">
<path d="M0 45.34V1.07001H18.59C30.6 1.07001 38.66 9.97001 38.66 23.2C38.66 36.43 30.59 45.33 18.59 45.33H0V45.34ZM18.48 38.62C26.41 38.62 31.73 32.37 31.73 23.07C31.73 13.77 26.4 7.77001 18.48 7.77001H6.88V38.61H18.48V38.62Z" fill="white"/>
<path d="M77.8701 19.04H84.7501V39.06H95.3101V45.33H87.8701C82.3501 45.33 77.8701 40.85 77.8701 35.33V19.03V19.04Z" fill="white"/>
<path d="M169.25 45.34V21.84C169.25 16.32 173.73 11.84 179.25 11.84H188.12V18.72H176.14V45.34H169.26H169.25Z" fill="white"/>
<path d="M199.16 11.84H192.28V45.34H199.16V11.84Z" fill="white"/>
<path d="M192.29 9.72003V1.84003H199.17V2.84003C199.17 6.64003 196.09 9.72003 192.29 9.72003Z" fill="white"/>
<path d="M77.8701 8.72003V1.84003H84.7501V11.84H95.0201V18.72H87.8701C82.3501 18.72 77.8701 14.24 77.8701 8.72003Z" fill="white"/>
<path d="M239.91 40.77H241.68V45.33H242.53V40.77H244.3V39.96H239.92V40.77H239.91ZM249.38 39.97L247.75 44.17L246.09 39.97H244.99V45.34H245.81V41.41L247.37 45.34H248.09L249.65 41.41V45.34H250.47V39.97H249.39H249.38Z" fill="white"/>
<path d="M227.96 0V15.7C225.28 13.2 221.83 11.69 218.06 11.69C209.54 11.69 202.64 19.38 202.64 28.87C202.64 38.36 209.54 46.05 218.06 46.05C221.83 46.05 225.28 44.54 227.96 42.04V45.35H234.8V0H227.96ZM218.96 39.82C213.54 39.82 209.29 34.94 209.29 28.71C209.29 22.48 213.45 17.59 218.96 17.59C224.47 17.59 228.63 22.37 228.63 28.71C228.63 35.05 224.38 39.82 218.96 39.82Z" fill="white"/>
<path d="M66.4799 11.84V15.51C63.7999 13.01 60.3499 11.5 56.5799 11.5C48.0599 11.5 41.1599 19.19 41.1599 28.68C41.1599 38.17 48.0599 45.86 56.5799 45.86C60.3499 45.86 63.7999 44.35 66.4799 41.85V45.16H73.3199V11.84H66.4799ZM57.4899 39.62C52.0699 39.62 47.8199 34.74 47.8199 28.51C47.8199 22.28 51.9799 17.39 57.4899 17.39C62.9999 17.39 67.1599 22.17 67.1599 28.51C67.1599 34.85 62.9099 39.62 57.4899 39.62Z" fill="white"/>
<path d="M121.74 11.84V15.51C119.06 13.01 115.61 11.5 111.84 11.5C103.32 11.5 96.4199 19.19 96.4199 28.68C96.4199 38.17 103.32 45.86 111.84 45.86C115.61 45.86 119.06 44.35 121.74 41.85V45.16H128.58V11.84H121.74ZM112.74 39.62C107.32 39.62 103.07 34.74 103.07 28.51C103.07 22.28 107.23 17.39 112.74 17.39C118.25 17.39 122.41 22.17 122.41 28.51C122.41 34.85 118.16 39.62 112.74 39.62Z" fill="white"/>
<path d="M157.69 11.84V15.49C155.01 13 151.56 11.5 147.79 11.5C139.28 11.5 132.37 19.15 132.37 28.58C132.37 37.58 139.27 44.87 147.79 44.87C151.56 44.87 155.01 43.44 157.69 41.06V44.47C157.62 50.55 154.17 54.32 148.73 54.32C144.5 54.32 141.53 52.69 139.66 49.33L139.57 49.18L133.53 51.58L133.63 51.78C135.72 55.78 140.01 60.55 148.61 60.55C157.99 60.55 164.53 53.91 164.53 44.41V11.84H157.69ZM148.7 38.82C143.28 38.82 139.03 34.22 139.03 28.35C139.03 22.08 143.19 17.36 148.7 17.36C154.21 17.36 158.37 22.08 158.37 28.35C158.37 34.23 154.12 38.82 148.7 38.82Z" fill="white"/>
</g>
<defs>
<clipPath id="clip0_847_23524">
<rect width="250.46" height="60.55" fill="white"/>
</clipPath>
</defs>
</svg>
