<svg width="28" height="28" viewBox="0 0 28 28" fill="none" xmlns="http://www.w3.org/2000/svg">
<path fill-rule="evenodd" clip-rule="evenodd" d="M11.7656 15.6318C7.74075 15.6318 4.46507 18.9075 4.46495 22.9324L4.46484 25.0408C4.46481 26.0513 5.29691 26.8835 6.30745 26.8835H21.6895C22.7 26.8835 23.5322 26.0515 23.5322 25.0409C23.5322 25.0409 23.5322 25.0408 23.5322 25.0408V22.9324C23.5324 18.9076 20.2568 15.6318 16.2319 15.6318L11.7656 15.6318ZM11.7656 16.835H16.232C19.6065 16.835 22.3292 19.5578 22.3291 22.9324V25.0408C22.3291 25.4011 22.0498 25.6804 21.6895 25.6804H6.30745C5.94715 25.6804 5.66796 25.4011 5.66797 25.0408L5.66808 22.9324C5.66819 19.5577 8.39096 16.835 11.7656 16.835Z" fill="url(#paint0_linear_12531_49018)"/>
<path fill-rule="evenodd" clip-rule="evenodd" d="M10.5704 18.9915C10.4125 19.0143 10.2701 19.0988 10.1746 19.2266C10.079 19.3543 10.0381 19.5148 10.0608 19.6727C10.0836 19.8306 10.1681 19.973 10.2958 20.0686C11.3651 20.8686 12.665 21.3011 14.0004 21.3011C15.3359 21.3011 16.6356 20.8686 17.7049 20.0686C17.8326 19.973 17.9172 19.8306 17.9399 19.6727C17.9627 19.5148 17.9218 19.3543 17.8262 19.2266C17.7789 19.1633 17.7196 19.11 17.6517 19.0697C17.5837 19.0293 17.5085 19.0028 17.4303 18.9915C17.3521 18.9802 17.2725 18.9845 17.1959 19.004C17.1194 19.0235 17.0474 19.0579 16.9841 19.1053C16.1227 19.7497 15.0762 20.098 14.0004 20.098C12.9246 20.098 11.878 19.7498 11.0166 19.1053C10.9533 19.0579 10.8814 19.0235 10.8048 19.004C10.7283 18.9845 10.6486 18.9802 10.5704 18.9915Z" fill="url(#paint1_linear_12531_49018)"/>
<path fill-rule="evenodd" clip-rule="evenodd" d="M14.0012 3.35059C11.169 3.35059 8.93359 5.9126 8.93359 8.97635C8.93359 12.0401 11.169 14.602 14.0012 14.602C16.8335 14.602 19.0688 12.0401 19.0688 8.97635C19.0688 5.9126 16.8335 3.35059 14.0012 3.35059ZM14.0012 4.55371C16.102 4.55371 17.8657 6.49059 17.8657 8.97635C17.8657 11.4621 16.102 13.3989 14.0012 13.3989C11.9004 13.3989 10.1367 11.4621 10.1367 8.97635C10.1367 6.49059 11.9004 4.55371 14.0012 4.55371Z" fill="url(#paint2_linear_12531_49018)"/>
<path fill-rule="evenodd" clip-rule="evenodd" d="M7.30028 13.3984C3.27545 13.3984 -0.000158041 16.6743 5.71904e-09 20.6991V22.8075C3.90088e-05 23.818 0.832184 24.6501 1.84272 24.6501H2.8349C2.99444 24.6501 3.14745 24.5867 3.26027 24.4739C3.37308 24.3611 3.43646 24.2081 3.43646 24.0486C3.43646 23.889 3.37308 23.736 3.26027 23.6232C3.14745 23.5104 2.99444 23.447 2.8349 23.447H1.84272C1.48242 23.447 1.2032 23.1678 1.20313 22.8075V20.699C1.203 17.3244 3.92569 14.6016 7.30028 14.6016H9.53339C9.61239 14.6016 9.69062 14.586 9.7636 14.5558C9.83659 14.5255 9.9029 14.4812 9.95877 14.4254C10.0146 14.3695 10.0589 14.3032 10.0892 14.2302C10.1194 14.1572 10.135 14.079 10.135 14C10.135 13.921 10.1194 13.8428 10.0892 13.7698C10.0589 13.6968 10.0146 13.6305 9.95877 13.5746C9.9029 13.5188 9.83659 13.4745 9.7636 13.4442C9.69062 13.414 9.61239 13.3984 9.53339 13.3984H7.30028Z" fill="url(#paint3_linear_12531_49018)"/>
<path fill-rule="evenodd" clip-rule="evenodd" d="M9.53243 1.11719C6.70014 1.11719 4.46484 3.67918 4.46484 6.74295C4.46484 8.73013 5.40262 10.5817 6.97632 11.6014C7.1102 11.6881 7.27306 11.7182 7.42908 11.6849C7.5851 11.6515 7.7215 11.5576 7.80827 11.4238C7.85125 11.3575 7.88074 11.2833 7.89506 11.2056C7.90939 11.1279 7.90827 11.0482 7.89176 10.9709C7.87526 10.8936 7.84369 10.8204 7.79887 10.7553C7.75405 10.6902 7.69685 10.6346 7.63054 10.5917C6.43614 9.81777 5.66798 8.34938 5.66797 6.74295C5.66797 4.25717 7.43162 2.32031 9.53243 2.32031C10.1986 2.32032 10.8542 2.5166 11.4403 2.89795C11.574 2.98495 11.7368 3.01528 11.8929 2.98224C12.049 2.94921 12.1856 2.85554 12.2726 2.72182C12.3596 2.58809 12.3899 2.42528 12.3569 2.2692C12.3239 2.11312 12.2302 1.97656 12.0965 1.88954C11.3234 1.38657 10.4365 1.11719 9.53254 1.11719C9.53251 1.11719 9.53247 1.11719 9.53243 1.11719Z" fill="url(#paint4_linear_12531_49018)"/>
<path fill-rule="evenodd" clip-rule="evenodd" d="M18.4648 13.3984C18.3858 13.3984 18.3076 13.414 18.2346 13.4442C18.1617 13.4745 18.0953 13.5188 18.0395 13.5746C17.9836 13.6305 17.9393 13.6968 17.9091 13.7698C17.8788 13.8428 17.8633 13.921 17.8633 14C17.8633 14.1595 17.9267 14.3126 18.0395 14.4254C18.1523 14.5382 18.3053 14.6016 18.4648 14.6016H20.698C24.0726 14.6016 26.7952 17.3244 26.7951 20.699V22.8075C26.7951 23.1678 26.5159 23.447 26.1555 23.447H25.1633C25.0038 23.447 24.8508 23.5104 24.738 23.6232C24.6252 23.736 24.5618 23.889 24.5618 24.0486C24.5618 24.2081 24.6252 24.3611 24.738 24.4739C24.8508 24.5867 25.0038 24.6501 25.1633 24.6501H26.1555C27.1661 24.6501 27.9982 23.818 27.9982 22.8075V20.699C27.9984 16.6742 24.7228 13.3984 20.698 13.3984H18.4648Z" fill="url(#paint5_linear_12531_49018)"/>
<path fill-rule="evenodd" clip-rule="evenodd" d="M18.4663 1.11719C17.5623 1.11719 16.6755 1.38657 15.9024 1.88954C15.7687 1.97653 15.675 2.11309 15.642 2.26917C15.6089 2.42525 15.6392 2.58807 15.7262 2.72181C15.8132 2.85552 15.9498 2.9492 16.1059 2.98223C16.2619 3.01526 16.4248 2.98494 16.5585 2.89794C17.1446 2.51659 17.8002 2.3203 18.4663 2.3203C20.5671 2.32031 22.3309 4.25715 22.3309 6.74291C22.3309 8.34933 21.5627 9.81782 20.3683 10.5917C20.2344 10.6785 20.1405 10.8149 20.1072 10.9709C20.0738 11.1269 20.1038 11.2898 20.1906 11.4237C20.2773 11.5576 20.4137 11.6515 20.5698 11.6849C20.7258 11.7182 20.8886 11.6882 21.0225 11.6014C22.5962 10.5817 23.534 8.73008 23.534 6.74291C23.534 3.67917 21.2986 1.1172 18.4663 1.11719Z" fill="url(#paint6_linear_12531_49018)"/>
<defs>
<linearGradient id="paint0_linear_12531_49018" x1="10.0607" y1="-3.99398" x2="10.0607" y2="26.8396" gradientUnits="userSpaceOnUse">
<stop stop-color="white"/>
<stop offset="1" stop-color="#FE7465"/>
</linearGradient>
<linearGradient id="paint1_linear_12531_49018" x1="12.3706" y1="14.9461" x2="12.3706" y2="21.292" gradientUnits="userSpaceOnUse">
<stop stop-color="white"/>
<stop offset="1" stop-color="#FE7465"/>
</linearGradient>
<linearGradient id="paint2_linear_12531_49018" x1="11.9081" y1="-16.2748" x2="11.9081" y2="14.5581" gradientUnits="userSpaceOnUse">
<stop stop-color="white"/>
<stop offset="1" stop-color="#FE7465"/>
</linearGradient>
<linearGradient id="paint3_linear_12531_49018" x1="2.97439" y1="-6.22737" x2="2.97439" y2="24.6062" gradientUnits="userSpaceOnUse">
<stop stop-color="white"/>
<stop offset="1" stop-color="#FE7465"/>
</linearGradient>
<linearGradient id="paint4_linear_12531_49018" x1="6.78481" y1="-17.3387" x2="6.78481" y2="11.6568" gradientUnits="userSpaceOnUse">
<stop stop-color="white"/>
<stop offset="1" stop-color="#FE7465"/>
</linearGradient>
<linearGradient id="paint5_linear_12531_49018" x1="20.8377" y1="-6.22737" x2="20.8377" y2="24.6062" gradientUnits="userSpaceOnUse">
<stop stop-color="white"/>
<stop offset="1" stop-color="#FE7465"/>
</linearGradient>
<linearGradient id="paint6_linear_12531_49018" x1="17.9489" y1="-17.3387" x2="17.9489" y2="11.6568" gradientUnits="userSpaceOnUse">
<stop stop-color="white"/>
<stop offset="1" stop-color="#FE7465"/>
</linearGradient>
</defs>
</svg>
