<svg width="22" height="22" viewBox="0 0 22 22" fill="none" xmlns="http://www.w3.org/2000/svg">
<g id="share (3)">
<path id="Vector" d="M18.6109 10.1778C18.3023 10.1778 18.0966 10.3835 18.0966 10.6921V14.7035C18.0966 16.6578 16.5023 18.2007 14.5994 18.2007H6.98799C5.03371 18.2007 3.49085 16.6578 3.49085 14.7035V7.09212C3.49085 5.13783 5.08514 3.59498 6.98799 3.59498H10.8451C11.1537 3.59498 11.3594 3.38926 11.3594 3.08069C11.3594 2.77212 11.1537 2.56641 10.8451 2.56641H6.98799C4.46799 2.56641 2.46228 4.62355 2.46228 7.09212V14.7035C2.46228 17.2235 4.51942 19.2293 6.98799 19.2293H14.5994C17.1194 19.2293 19.1251 17.2235 19.1251 14.7035V10.6921C19.1251 10.435 18.9194 10.1778 18.6109 10.1778Z" fill="black"/>
<path id="Vector_2" d="M8.78808 11.618C8.68522 11.8752 8.83951 12.1838 9.09665 12.2866H9.25093C9.45665 12.2866 9.66236 12.1323 9.76522 11.9266C11.0509 8.58376 14.0338 6.11519 17.5824 5.54948L16.3481 7.70948C16.1938 7.96662 16.2966 8.27519 16.5538 8.42948C16.6052 8.48091 16.7081 8.48091 16.8109 8.48091C17.0166 8.48091 17.1709 8.37805 17.2738 8.22376L19.0738 4.98376C19.2281 4.72662 19.1252 4.41805 18.8681 4.26376L15.5252 2.41233C15.2681 2.25805 14.9595 2.36091 14.8052 2.61805C14.6509 2.87519 14.7538 3.18376 15.0109 3.33805L17.2224 4.57233C13.3652 5.24091 10.1766 7.91519 8.78808 11.618Z" fill="black"/>
</g>
</svg>
