<?xml version="1.0" encoding="UTF-8"?>
<svg version="1.1" xmlns="http://www.w3.org/2000/svg" width="225" height="225">
<path d="M0 0 C74.25 0 148.5 0 225 0 C225 74.25 225 148.5 225 225 C150.75 225 76.5 225 0 225 C0 150.75 0 76.5 0 0 Z " fill="#FDFDFD" transform="translate(0,0)"/>
<path d="M0 0 C1.78038176 0.87767573 3.56213804 1.75256837 5.34521484 2.62475586 C8.8990706 4.36520384 12.44735372 6.11624803 15.99169922 7.87597656 C22.62844004 11.15995599 29.33618669 14.27914729 36.0625 17.375 C37.7185022 18.14263672 37.7185022 18.14263672 39.40795898 18.92578125 C44.74883229 21.39851928 50.10137274 23.84313708 55.46875 26.2578125 C56.4985498 26.72179443 57.52834961 27.18577637 58.58935547 27.66381836 C60.51343493 28.52853234 62.43942731 29.3890077 64.36767578 30.24438477 C65.2079834 30.62135498 66.04829102 30.9983252 66.9140625 31.38671875 C67.64705566 31.71244873 68.38004883 32.03817871 69.13525391 32.3737793 C70.9375 33.3125 70.9375 33.3125 72.9375 35.3125 C72.8762207 37.26391602 72.8762207 37.26391602 71.9375 39.3125 C69.78979492 40.75366211 69.78979492 40.75366211 66.91796875 42.08984375 C65.84764404 42.59636475 64.77731934 43.10288574 63.67456055 43.62475586 C62.50320557 44.16108643 61.33185059 44.69741699 60.125 45.25 C58.89891341 45.82370894 57.67341769 46.39868217 56.44848633 46.97485352 C53.24813667 48.47593415 50.04004544 49.9596452 46.82958984 51.43896484 C43.87179315 52.80451279 40.92056888 54.18408799 37.96875 55.5625 C33.37526784 57.70444325 28.77728229 59.83627875 24.17578125 61.9609375 C19.06103537 64.32440477 13.95549692 66.70652081 8.85546875 69.1015625 C7.49911809 69.73773989 6.14275425 70.37388918 4.78637695 71.01000977 C2.82700582 71.92901159 0.86803884 72.84881632 -1.08950806 73.771698 C-5.06790535 75.64700609 -9.05712035 77.49553103 -13.0625 79.3125 C-14.46773926 79.95034424 -14.46773926 79.95034424 -15.90136719 80.60107422 C-21.81569277 83.14358772 -26.38149594 84.75319132 -32.68115234 82.28759766 C-35.9154856 80.81292781 -39.0812287 79.23568771 -42.25 77.625 C-44.06095078 76.72513613 -45.87449979 75.8306586 -47.68821716 74.93638611 C-48.94007948 74.31882144 -50.19118107 73.69971249 -51.44154358 73.07911682 C-57.8656973 69.89497648 -64.36363676 66.87629171 -70.875 63.875 C-73.19147188 62.8035273 -75.50787727 61.73191082 -77.82421875 60.66015625 C-78.9951709 60.11891113 -80.16612305 59.57766602 -81.37255859 59.02001953 C-87.32648521 56.26631598 -93.2743025 53.49949201 -99.2203064 50.72872925 C-100.5097712 50.12815523 -101.79949601 49.52813911 -103.08950806 48.92874146 C-110.47102626 45.49894389 -117.80849888 42.00514291 -125.0625 38.3125 C-124.77131653 36.43699646 -124.77131653 36.43699646 -124.0625 34.3125 C-121.44714551 32.75322508 -118.95932204 31.47277661 -116.19921875 30.22265625 C-115.38862503 29.84177353 -114.57803131 29.46089081 -113.74287415 29.06846619 C-111.08477152 27.82352405 -108.4176902 26.5992449 -105.75 25.375 C-103.91151751 24.51884794 -102.07362943 23.66141834 -100.23632812 22.80273438 C-95.67953857 20.67673479 -91.1155645 18.566702 -86.54925537 16.46124268 C-83.03440123 14.83757555 -79.52647317 13.1992636 -76.01953125 11.55859375 C-71.49855884 9.4450933 -66.96979803 7.35011712 -62.43359375 5.26953125 C-58.08022396 3.26720785 -53.76902798 1.1959703 -49.47265625 -0.92578125 C-48.40337891 -1.44333984 -47.33410156 -1.96089844 -46.23242188 -2.49414062 C-44.24847352 -3.45556374 -42.27335435 -4.43557449 -40.31054688 -5.43945312 C-25.08179853 -12.73039456 -13.91200209 -7.04594863 0 0 Z " fill="#000000" transform="translate(138.0625,20.6875)"/>
<path d="M0 0 C0.83474854 0.38841064 1.66949707 0.77682129 2.52954102 1.17700195 C4.44050162 2.06864793 6.34842189 2.96682746 8.25390625 3.87011719 C12.00689561 5.64802389 15.76847638 7.40698876 19.53125 9.1640625 C24.37016569 11.42509377 29.20681666 13.69078802 34.03912354 15.96591187 C36.59267054 17.16742411 39.14800104 18.36512105 41.70321655 19.56307983 C43.5626007 20.43754736 45.41871571 21.31869525 47.2746582 22.20043945 C48.42667725 22.74273193 49.57869629 23.28502441 50.765625 23.84375 C51.78172852 24.32521484 52.79783203 24.80667969 53.84472656 25.30273438 C59.38003861 27.61392108 63.00896799 27.34854275 68.6171875 25.34765625 C72.05386396 23.8953833 75.42284774 22.35499321 78.79101562 20.75244141 C82.07552694 19.1940924 85.37327838 17.66493014 88.671875 16.13671875 C102.86016947 9.59124324 102.86016947 9.59124324 116.92578125 2.7890625 C117.68576416 2.41515381 118.44574707 2.04124512 119.22875977 1.65600586 C120.54721242 1.00365371 121.85982717 0.33924657 123.16381836 -0.34155273 C128.91546494 -3.17304657 134.94963422 -4.59937778 141.20214844 -2.80493164 C143.8900954 -1.70764313 146.46909191 -0.49196874 149.0625 0.8125 C149.95453125 1.23789063 150.8465625 1.66328125 151.765625 2.1015625 C154.04289282 3.19189073 156.30591198 4.30515571 158.5625 5.4375 C159.5525 5.9325 159.5525 5.9325 160.5625 6.4375 C160.49926758 8.703125 160.49926758 8.703125 159.5625 11.4375 C157.2052428 12.96088303 155.11730426 14.06970811 152.57421875 15.1875 C151.85281708 15.52239441 151.13141541 15.85728882 150.38815308 16.20233154 C148.01644567 17.29838543 145.63369611 18.3678027 143.25 19.4375 C141.5974241 20.19519374 139.94565531 20.9546502 138.29467773 21.71582031 C134.96007765 23.25025304 131.62124609 24.77480944 128.27832031 26.29101562 C122.99445535 28.69023063 117.74026203 31.14966412 112.48657227 33.61425781 C108.0227407 35.703366 103.54695381 37.76591832 99.06884766 39.82421875 C96.60324376 40.95865062 94.13938643 42.09639259 91.67724609 43.23828125 C88.3670645 44.77247553 85.05149941 46.29447112 81.73214722 47.80871582 C80.47124677 48.38593613 79.21200709 48.96680086 77.95462036 49.55163574 C76.20893168 50.36256754 74.45612581 51.15812343 72.703125 51.953125 C71.70829102 52.40977539 70.71345703 52.86642578 69.68847656 53.33691406 C64.52185333 55.15596573 60.46986895 56.03030129 55.16113281 54.38037109 C54.04061523 53.82945801 52.92009766 53.27854492 51.765625 52.7109375 C50.8318956 52.26265343 50.8318956 52.26265343 49.87930298 51.80531311 C47.84790818 50.82536278 45.83082722 49.81904974 43.8125 48.8125 C42.38269497 48.11776619 40.95185011 47.4251687 39.52001953 46.73461914 C36.59901357 45.32415901 33.68237117 43.90522965 30.76855469 42.47998047 C24.70007473 39.52110816 18.56938548 36.69981108 12.4375 33.875 C10.1715569 32.82490489 7.90593442 31.77411766 5.640625 30.72265625 C4.50173828 30.19430176 3.36285156 29.66594727 2.18945312 29.12158203 C-3.81267864 26.33464713 -9.81217594 23.54207805 -15.80999756 20.74588013 C-17.12906889 20.13105193 -18.44827934 19.51652212 -19.76763916 18.90231323 C-21.60328763 18.04767543 -23.43837308 17.19182865 -25.2734375 16.3359375 C-26.32063965 15.84786621 -27.3678418 15.35979492 -28.44677734 14.85693359 C-31.46511279 13.42439463 -34.45451349 11.94208386 -37.4375 10.4375 C-37.15136719 8.56689453 -37.15136719 8.56689453 -36.4375 6.4375 C-33.85555645 4.8753652 -31.40981155 3.57300693 -28.6875 2.3125 C-27.97078125 1.96574219 -27.2540625 1.61898437 -26.515625 1.26171875 C-24.50035528 0.29483383 -22.47189041 -0.63671419 -20.4375 -1.5625 C-19.16132812 -2.17738281 -19.16132812 -2.17738281 -17.859375 -2.8046875 C-11.0464865 -4.93646229 -6.08045404 -2.92616688 0 0 Z " fill="#020202" transform="translate(50.4375,103.5625)"/>
<path d="M0 0 C1.20955907 0.57720206 2.41978068 1.1530175 3.63061523 1.72753906 C6.2419533 2.96872397 8.84964333 4.21717541 11.45507812 5.47070312 C18.2716453 8.74575999 25.11931214 11.95518535 31.96298218 15.1730957 C34.22773104 16.23951406 36.49066497 17.30969804 38.75317383 18.38085938 C40.14924535 19.04037719 41.54532254 19.699883 42.94140625 20.359375 C43.58080139 20.66296936 44.22019653 20.96656372 44.87896729 21.27935791 C51.17929406 24.25036763 56.88930185 25.92439828 63.77682495 23.87976074 C65.88848651 22.9946735 67.92227071 22.01888618 69.96484375 20.984375 C70.72578339 20.61684113 71.48672302 20.24930725 72.27072144 19.87063599 C73.89237483 19.0848486 75.51021777 18.29115534 77.12442017 17.49017334 C79.65085405 16.23717757 82.18714059 15.00665493 84.72729492 13.78173828 C88.94244785 11.7464218 93.15001663 9.69603512 97.35510254 7.64001465 C103.05562534 4.85374875 108.76837458 2.09687552 114.5 -0.625 C115.51634521 -1.12676758 116.53269043 -1.62853516 117.57983398 -2.14550781 C124.45855905 -5.40246885 129.81902381 -6.98884201 137.24536133 -4.71777344 C139.95355811 -3.6890612 142.5612879 -2.53457952 145.1875 -1.3125 C146.09242188 -0.92513672 146.99734375 -0.53777344 147.9296875 -0.13867188 C149.21746094 0.44624023 149.21746094 0.44624023 150.53125 1.04296875 C151.30662109 1.39383545 152.08199219 1.74470215 152.88085938 2.10620117 C154.6875 3.5 154.6875 3.5 155.44726562 6.15356445 C155.56618164 7.31505005 155.56618164 7.31505005 155.6875 8.5 C143.09037815 14.97460766 130.25861041 20.92193559 117.4005127 26.85664368 C112.24964808 29.23572859 107.10910845 31.63648877 101.97093201 34.04283142 C96.35033679 36.6750267 90.72502667 39.29694557 85.09716797 41.91357422 C82.91021201 42.93110535 80.72424796 43.95077267 78.53955078 44.97314453 C75.78054446 46.26220724 73.01637244 47.53933996 70.25 48.8125 C69.47011719 49.17956055 68.69023438 49.54662109 67.88671875 49.92480469 C57.82929107 54.510598 57.82929107 54.510598 52.34448242 52.74633789 C49.50843109 51.55160975 46.75941832 50.23743723 44 48.875 C41.84253039 47.84748306 39.68497486 46.82014651 37.52734375 45.79296875 C36.40440918 45.25075684 35.28147461 44.70854492 34.12451172 44.14990234 C29.61043282 41.98296491 25.06688028 39.88284202 20.52075195 37.78417969 C17.01597999 36.16602165 13.51528529 34.53933749 10.015625 32.91015625 C5.59342132 30.85168867 1.17025701 28.79533696 -3.25442505 26.74220276 C-5.92143801 25.50416209 -8.58760791 24.26431329 -11.25360107 23.02407837 C-12.51439411 22.43792998 -13.77548832 21.85242886 -15.03692627 21.26766968 C-23.87848156 17.16802187 -32.61736963 12.89968633 -41.3125 8.5 C-41.3125 7.18 -41.3125 5.86 -41.3125 4.5 C-38.77330994 3.20326398 -36.23135762 1.91252163 -33.6875 0.625 C-32.97464844 0.26019531 -32.26179688 -0.10460937 -31.52734375 -0.48046875 C-19.18122 -6.71016422 -12.34501122 -6.01635526 0 0 Z " fill="#010101" transform="translate(55.3125,160.5)"/>
</svg>
