<?xml version="1.0" encoding="UTF-8"?>
<svg version="1.1" viewBox="0 0 1856 1458" width="1280" height="1280" xmlns="http://www.w3.org/2000/svg">
<path transform="translate(0)" d="m0 0h1856v1458h-1856z" fill="#FCFCFC"/>
<path transform="translate(857,283)" d="m0 0 32 1 32 3 38 7 27 7 19 6 25 9 25 11 22 11 14 8 21 13 17 12 13 10 16 13 12 11 13 12 11 11 7 8 9 10 9 11 12 16 14 20 12 20 9 16 14 29 13 33 8 25 8 32v2h-129l-10-28-11-25-11-21-11-18-13-18-9-11-11-12-9-10-8-8-8-7-13-11-19-14-21-13-27-14-21-9-27-9-24-6-33-5-11-1h-47l-20 2-25 4-28 7-31 11-24 11-23 13-21 14-13 10-13 11-12 11-12 12-7 8-10 12-14 19-12 19-9 16-12 26-9 25-7 25-5 25-3 29v46l3 29 6 29 7 24 8 22 12 26 10 18 14 21 9 12 8 10 10 11 7 8 15 15 11 9 15 12 24 16 18 10 16 8 18 8 30 10 24 6 32 5 13 1h47l33-4 23-5 22-6 25-9 29-14 18-10 18-12 12-9 10-8 10-9 12-11 7-7 7-8 9-10 12-16 12-18 14-25 10-21 11-29 3-9h129l-3 15-8 29-6 18-12 30-14 29-11 20-12 19-13 18-12 16-24 28-21 21-8 7-15 13-14 11-18 13-19 12-15 9-27 14-22 10-27 10-15 5-30 8-36 7-24 3-14 1-33 1-27-1-38-4-28-5-28-7-19-6-23-8-30-13-26-13-20-12-17-11-18-13-16-13-11-9-13-12-24-24-9-11-11-13-12-16-13-19-11-18-10-18-9-17-11-26-9-25-9-29-7-31-4-25-2-16-1-14-1-34 1-28 2-22 4-27 6-29 8-28 10-29 10-24 16-32 13-22 13-19 14-19 13-16 13-15 28-28 11-9 17-14 18-13 15-10 18-11 16-9 22-11 31-13 30-10 27-7 36-7 27-3 13-1z" fill="#465360"/>
<path transform="translate(1468,836)" d="m0 0h127l-2 17-5 30-6 29-8 32-11 35-11 31-12 29-13 28-14 28-12 21-16 26-14 21-11 16-13 17-11 14-11 13-9 11-9 9-7 8-16 16-7 8-12 11-16 15-11 9-14 12-26 20-16 11-10 7-22 14-15 9-19 11-28 15-37 17-30 12-31 11-14 4 780 1v4h-1856v-4l641-1-36-12-31-12-25-11-25-12-19-10-23-13-24-15-15-10-17-12-19-14-16-13-11-9-14-12-13-12-15-14-4-5 89-89 7 6 7 7 8 7 13 12 11 9 15 12 19 14 24 16 21 13 23 13 30 15 25 11 27 10 30 10 26 7 31 7 37 6 26 3 28 2h54l39-3 30-4 29-5 26-6 29-8 33-11 37-15 20-9 19-10 25-14 19-12 18-12 14-10 13-10 10-8 11-9 14-12 15-14 22-22 7-8 12-13 9-11 11-14 14-19 22-33 15-26 17-33 15-34 12-32 9-30 7-27 7-34 2-12z" fill="#E48E33"/>
<path transform="translate(828,1)" d="m0 0h55l38 2 43 5 36 6 33 7 37 10 37 12 29 11 26 11 33 16 23 12 24 14 18 11 22 15 17 12 4 4-14 18-13 18-16 21-28 38-4 5-5-2-18-13-20-13-22-13-22-12-35-17-36-14-20-7-22-7-31-8-36-7-27-4-34-3-19-1h-49l-39 3-31 4-36 7-36 9-43 14-32 13-20 9-16 8-21 11-25 15-20 13-17 12-13 10-14 11-15 13-8 7-12 11-29 29-9 11-10 11-9 11-16 21-26 39-15 26-14 27-12 25-9 22-29-11-41-16-47-18-1-2 15-35 11-24 13-25 13-23 15-24 17-25 10-14 16-21 11-13 8-10 10-11 7-8 9-9 7-8 14-14 8-7 7-7 8-7 10-9 11-9 16-13 13-10 17-12 30-20 23-14 25-14 21-11 28-13 27-11 27-10 37-12 38-10 34-7 37-6 37-4z" fill="#E48E33"/>
<path transform="translate(1325,836)" d="m0 0h127l-1 10-5 26-7 28-11 36-11 30-11 25-14 29-12 22-12 20-14 21-13 18-10 13-9 11-12 14-7 8-12 13-26 26-11 9-11 10-11 9-21 16-30 20-18 11-23 13-28 14-30 13-27 10-21 7-29 8-36 8-33 5-28 3-16 1-33 1v-126l28-1 33-3 30-5 31-7 30-9 29-11 26-12 22-11 27-16 19-13 16-12 16-13 12-11 8-7 24-24 7-8 11-13 15-20 14-20 12-20 10-18 14-28 13-33 7-21 8-30z" fill="#465360"/>
<path transform="translate(856,142)" d="m0 0h3v126l-42 2-33 4-31 6-27 7-33 11-29 12-29 14-24 14-19 12-19 14-16 13-11 9-13 12-24 24-7 8-12 14-13 17-14 20-12 19-10 18-12 23-10 23-3 6-5-1-111-43 1-6 13-30 12-25 13-23 12-20 15-22 10-14 14-18 14-17 11-12 7-8 30-30 8-7 15-13 14-11 17-13 17-12 17-11 20-12 22-12 32-16 27-11 28-10 29-9 32-8 31-6 29-4 36-3z" fill="#465360"/>
<path transform="translate(258,743)" d="m0 0h126l2 39 4 34 5 27 8 32 12 36 10 24 14 29 11 20 12 19 14 20 13 17 11 13 18 20 19 19 11 9 11 10 20 15 17 12 24 15 24 13 23 11 15 6-1 6-44 110-4 1-23-10-27-13-23-13-14-8-19-12-17-12-19-14-11-9-13-11-20-18-9-9-6-5-7-8-13-13-7-8-14-17-14-18-10-14-16-24-15-25-10-18-12-24-15-35-9-25-9-28-10-40-5-27-5-36-2-24-1-24z" fill="#E48E33"/>
<path transform="translate(1077,183)" d="m0 0 20 8 30 14 23 12 22 13 20 13 16 11 19 14 13 11 11 9 12 11 8 7 32 32 7 8 13 15 12 15 14 19 20 30 14 24 14 26 14 30 12 30 12 36 8 29 8 38 1 12h-127l-12-45-11-32-11-26-14-29-16-27-17-25-9-12-8-10-11-13-11-12-9-10-12-12-8-7-14-12-16-13-20-14-20-13-21-12-25-13-28-12-1-2 19-48 16-42 10-25z" fill="#E48E33"/>
<path transform="translate(848,424)" d="m0 0h11v134l-25 2-17 3-18 5-15 6-21 11-12 8-12 9-15 14-7 8-12 16-11 19-7 16-6 18-4 18-2 12v39l4 24 7 23 3 9-15 7-82 36-23 10-3-1-8-21-8-25-6-29-3-23-1-11v-35l3-30 7-34 8-26 9-22 9-19 14-24 14-20 11-13 9-11 20-20 8-7 16-13 24-16 21-12 21-10 30-11 27-7 23-4 18-2z" fill="#E48E33"/>
<path transform="translate(1487,351)" d="m0 0 3 1 15 26 12 22 17 34 12 28 10 26 12 35 10 36 8 34 6 33 3 24h-127l-8-41-8-32-11-35-10-27-9-21-13-28-12-23-15-25 5-5 20-12 22-14 48-30z" fill="#465360"/>
<path transform="translate(117,743)" d="m0 0h126l1 31 3 37 5 36 7 35 10 38 12 36 13 32-1 4-36 16-73 32-5 1-13-32-11-30-11-36-10-40-7-36-5-34-4-44-1-20z" fill="#465360"/>
<path transform="translate(1019,836)" d="m0 0h145l-7 21-9 21-8 16-11 19-13 19-11 14-9 10-7 8-15 15-8 7-15 12-17 12-20 12-23 12-15 6h-2l-10-25-19-49-16-41-3-10 18-8 14-8 14-10 11-9 16-16 10-13z" fill="#E48E33"/>
<path transform="translate(974,446)" d="m0 0 9 3 29 14 23 14 18 13 14 12 16 14 7 8 8 8 9 11 10 13 12 18 9 15 8 16 8 17 9 25v3h-144l-9-14-10-13-13-14-8-7-13-10-18-11-22-11 11-29 19-49 16-41z" fill="#465360"/>
<path transform="translate(727,875)" d="m0 0 4 2 11 10 17 12 18 10 19 8 20 6 15 3 28 3v133l-26-1-26-3-28-6-26-8-25-10-16-8-20-11-12-8-15-11-11-9-10-9-8-7-2-3z" fill="#465360"/>
<path transform="translate(1153,1424)" d="m0 0 4 1 699 1v28h-783l3-2 23-7 30-11z" fill="#E5E5E5"/>
<path transform="translate(563,1424)" d="m0 0 9 3 30 12 35 12 7 2v1h-644v-28l560-1z" fill="#E5E5E5"/>
<path transform="translate(0,1454)" d="m0 0h1856v4h-1856z" fill="#010100"/>
</svg>
