<svg width="54" height="54" viewBox="0 0 54 54" fill="none" xmlns="http://www.w3.org/2000/svg">
<g clip-path="url(#clip0_6001_5076)">
<path d="M15.7378 2.2792H51.7332C52.3386 2.27604 52.9155 2.52495 53.3279 2.9637C53.7498 3.4151 53.9849 4.00995 53.9849 4.62799V49.256C53.9839 49.8741 53.7487 50.4679 53.3279 50.9203C52.9155 51.3601 52.3365 51.608 51.7332 51.6048H15.7378C14.4785 51.5827 13.4776 50.5428 13.4997 49.2835V49.2687V4.6301C13.4691 3.36764 14.4616 2.31717 15.723 2.2792H15.7378Z" fill="#21A366"/>
<path d="M13.4999 26.9441V49.3267C13.4377 50.586 14.4048 51.6554 15.6641 51.7176L15.6831 51.7187H51.7365C53.0043 51.6966 54.0136 50.6503 53.9883 49.3836V49.3689V26.9852L13.4999 26.9441Z" fill="#185C37"/>
<path d="M13.5 14.618H53.9873V26.9579H13.5V14.618Z" fill="#107C41"/>
<path d="M51.736 2.27919H33.7451V39.2829H53.9888V4.63009C53.9877 4.01204 53.7525 3.41825 53.3317 2.96579C52.9162 2.52493 52.3382 2.27708 51.736 2.27919Z" fill="#33C481"/>
<path d="M54.0015 14.618H33.7441V26.9568H54.0015V14.618Z" fill="#21A366"/>
<path d="M54.0015 26.9441H33.7441V39.2829H54.0015V26.9441Z" fill="#107C41"/>
<path d="M29.5034 26.9579H28.86V26.9611H29.5034V26.9579ZM27.8243 12.3536H26.6758C26.7834 12.5224 26.8625 12.7112 26.9046 12.9126H27.1662V12.9116H27.1799C27.1947 12.9116 27.2084 12.9126 27.2232 12.9126C28.1439 12.9432 28.8685 13.7036 28.859 14.6181H29.5013V14.115C29.5287 13.1657 28.7778 12.3768 27.8243 12.3536Z" fill="#209D63"/>
<path d="M28.8593 26.9599V40.346V40.3608C28.8625 40.5359 28.8382 40.7025 28.7929 40.8628C28.7929 41.0031 28.7739 41.1412 28.7412 41.271C29.2116 40.9546 29.5164 40.4114 29.5027 39.8007V39.7997V26.9589L28.8593 26.9599Z" fill="#175935"/>
<path d="M29.5027 14.618H28.8604C28.8604 14.6318 28.8604 14.6465 28.8594 14.6592V26.9568H29.5027V14.618Z" fill="#0F783F"/>
<path d="M13.543 41.328V45.2989H24.7353C25.9693 45.2915 26.9691 44.3033 27.0008 43.0767C26.9227 43.1136 26.8394 43.1463 26.755 43.1716C26.3806 43.9088 25.617 44.413 24.7353 44.4193H13.543V43.6357V41.328Z" fill="#175633"/>
<path d="M28.8595 26.9578H28.7899V26.961H28.8595V26.9578ZM27.1815 12.9115H27.1678V12.9126H26.9062C26.9347 13.0423 26.9474 13.1783 26.9432 13.3176V13.6255H27.1552C27.8175 13.6519 28.3775 14.0527 28.638 14.618H28.8627C28.8711 13.7025 28.1466 12.9431 27.2269 12.9126C27.21 12.9126 27.1963 12.9115 27.1815 12.9115Z" fill="#1E935C"/>
<path d="M28.792 26.96V40.7542L28.793 40.7869C28.7941 40.8122 28.7941 40.8386 28.7941 40.8639C28.8395 40.7046 28.8627 40.537 28.8605 40.3619V40.3471V26.9621L28.792 26.96Z" fill="#165332"/>
<path d="M28.8623 14.618H28.6377C28.7453 14.8522 28.8022 15.1137 28.7927 15.3869V26.9568H28.8623V14.6602C28.8623 14.6465 28.8623 14.6328 28.8623 14.618Z" fill="#0E703B"/>
<path d="M28.7425 41.2731C28.6771 41.3163 28.6107 41.3564 28.54 41.3901C28.3861 41.6064 28.1825 41.7857 27.9462 41.9112C27.9009 42.101 27.825 42.2782 27.7227 42.4396C28.2268 42.236 28.6096 41.8004 28.7425 41.2731Z" fill="#175633"/>
<path d="M28.7942 40.8628C28.7394 41.0537 28.6539 41.2309 28.54 41.3891C28.6107 41.3553 28.6771 41.3153 28.7425 41.272C28.7752 41.1412 28.7932 41.0052 28.7942 40.8628Z" fill="#165332"/>
<path d="M28.5402 41.3901C28.3714 41.4735 28.1879 41.5294 27.9928 41.5526C27.9896 41.6749 27.9738 41.7951 27.9453 41.9101C28.1837 41.7846 28.3862 41.6053 28.5402 41.3901Z" fill="#155030"/>
<path d="M28.7923 26.9579H28.5529V26.9589H28.7923V26.9579ZM27.1544 13.6277H26.9424V13.7205C26.9424 13.75 26.9434 13.7796 26.9424 13.8091V14.1687C26.9424 14.1983 26.9434 14.2278 26.9424 14.2573V14.5263C27.108 14.5347 27.2662 14.5674 27.4159 14.6212H28.6352C28.3757 14.0548 27.8167 13.6519 27.1544 13.6277Z" fill="#1C8A56"/>
<path d="M28.5521 26.9599V40.2216V40.2226C28.5637 40.7405 28.3475 41.2098 27.9941 41.5336C27.9941 41.5399 27.9941 41.5452 27.9941 41.5515C28.1882 41.5283 28.3728 41.4714 28.5415 41.3891C28.6544 41.2309 28.7409 41.0537 28.7957 40.8628C28.7957 40.8375 28.7957 40.8122 28.7946 40.7858L28.7936 40.7531V26.9589L28.5521 26.9599Z" fill="#154E2E"/>
<path d="M28.6362 14.618H27.417C28.0751 14.8522 28.5476 15.4776 28.5518 16.2127V26.9579H28.7912V15.388C28.8007 15.1137 28.7448 14.8522 28.6362 14.618Z" fill="#0D6937"/>
<path d="M25.2661 11.5563H25.2513H13.5V13.1499V12.0467H25.2513H25.2661C25.6163 12.0551 25.939 12.168 26.2069 12.3547H26.6762C26.3788 11.8864 25.8609 11.571 25.2661 11.5563Z" fill="#21A265"/>
<path d="M26.6764 12.3536H26.207C26.4169 12.5002 26.592 12.6911 26.7186 12.9126H26.9063C26.862 12.7112 26.7839 12.5224 26.6764 12.3536Z" fill="#209C62"/>
<path d="M26.9055 12.9126H26.7178C26.8401 13.1267 26.9171 13.3682 26.9382 13.6256H26.9424V13.3176C26.9466 13.1794 26.934 13.0434 26.9055 12.9126Z" fill="#1E925B"/>
<path d="M26.9446 13.6277H26.9404C26.9436 13.6583 26.9446 13.6899 26.9446 13.7205V13.6277Z" fill="#1C8855"/>
<path d="M26.7541 43.1705C26.6148 43.2117 26.4672 43.2359 26.3143 43.2412H25.9989C25.6382 43.4869 25.2026 43.6304 24.7343 43.6335H13.542V44.4172H24.7343C25.6171 44.4119 26.3796 43.9067 26.7541 43.1705Z" fill="#144B2D"/>
<path d="M13.543 41.328V43.6335H24.7353C25.2046 43.6304 25.6392 43.4869 25.9999 43.2412H14.5513H14.5502C14.3445 43.2349 14.1568 43.1568 14.0134 43.0313H13.5461V42.4998V41.328H13.543Z" fill="#114227"/>
<path d="M13.7191 42.5007H13.543V43.0323H14.0102C13.8552 42.8984 13.7507 42.7106 13.7191 42.5007Z" fill="#0F3A23"/>
<path d="M13.543 41.328V42.5008H13.7191C13.7117 42.4502 13.7086 42.3985 13.7107 42.3468V41.3364C13.7001 41.3364 13.6917 41.3364 13.6811 41.3364C13.6347 41.3364 13.5894 41.3333 13.543 41.328Z" fill="#0D321E"/>
<path d="M28.5517 26.9579H27.9938V26.9589H28.5517V26.9579ZM26.9443 14.5242V14.598C26.9528 14.6054 26.9633 14.6117 26.9728 14.6191H27.4179C27.2681 14.5653 27.1078 14.5326 26.9443 14.5242Z" fill="#1A8050"/>
<path d="M27.9951 26.9589V41.4914C27.9951 41.5051 27.9951 41.5199 27.9951 41.5325C28.3484 41.2087 28.5657 40.7394 28.553 40.2216V40.2205V26.9589H27.9951Z" fill="#13492B"/>
<path d="M27.4168 14.618H26.9717C27.2839 14.8575 27.5054 15.1348 27.5054 15.4565V16.2243C27.8186 16.545 28.0074 16.9858 27.9947 17.4699V26.9547H28.5527V16.2117C28.5474 15.4776 28.0759 14.8522 27.4168 14.618Z" fill="#0D6233"/>
<path d="M13.5264 40.212V41.3258C13.5306 41.3258 13.5369 41.3268 13.5411 41.3268V40.2236C13.5369 40.2205 13.5316 40.2163 13.5264 40.212Z" fill="#155030"/>
<path d="M13.5567 41.2414H13.543V41.3268C13.5883 41.3332 13.6347 41.3353 13.6822 41.3353C13.6927 41.3353 13.7012 41.3353 13.7117 41.3353V41.3247H13.5577V41.2404" fill="#0C2E1C"/>
<path d="M13.7106 41.2415H13.5566V41.3258H13.7106V41.2415Z" fill="#0B2919"/>
<path d="M13.543 40.2258V41.2436H13.5567V40.2374C13.5525 40.2311 13.5482 40.2279 13.543 40.2258Z" fill="#0B2919"/>
<path d="M13.5566 40.2354V41.2415H13.7106V40.3303C13.6558 40.305 13.6041 40.2723 13.5566 40.2354Z" fill="#0A2617"/>
<path d="M13.4983 13.1477C13.3232 13.3059 13.2156 13.5369 13.2198 13.7911V13.8058V39.5476C13.2198 39.7986 13.3264 40.0264 13.4983 40.1857V39.6372C13.3875 39.4875 13.3232 39.3018 13.3306 39.1004V38.7502C13.3306 38.7323 13.3306 38.7133 13.3306 38.6954V38.2187C13.3306 38.2102 13.3306 38.2008 13.3306 38.1902V34.58H13.4983V13.1477Z" fill="#CBCBCB"/>
<path d="M13.498 39.6383V40.1867L13.4991 40.1878V39.6404C13.5002 39.6394 13.5002 39.6394 13.498 39.6383Z" fill="#1A8251"/>
<path d="M13.5 39.6405V40.1879C13.5084 40.1953 13.5179 40.2037 13.5264 40.2111V39.6743C13.5169 39.6627 13.5084 39.6532 13.5 39.6405Z" fill="#13492C"/>
<path d="M13.4988 34.5822H13.3311V38.1923C13.3311 38.2008 13.3311 38.2103 13.3311 38.2208V35.0873H13.4988V34.5822Z" fill="#CACACA"/>
<path d="M26.9443 14.5979V14.619H26.9728C26.9612 14.6106 26.9528 14.6053 26.9443 14.5979Z" fill="#156A42"/>
<path d="M26.9709 14.618H26.9424V15.1369C27.1322 15.3901 27.2514 15.698 27.2757 16.0292C27.3569 16.0883 27.4339 16.1537 27.5035 16.2264V15.4586C27.5045 15.1359 27.283 14.8585 26.9709 14.618Z" fill="#0A512A"/>
<path d="M26.9443 15.1379V15.4132C26.9781 15.5598 26.9971 15.7117 27.0002 15.8678C27.0983 15.9131 27.1911 15.9669 27.2766 16.0292C27.2512 15.698 27.1321 15.3911 26.9443 15.1379Z" fill="#094926"/>
<path d="M26.9443 15.4143C26.9781 15.5609 26.9971 15.7128 27.0002 15.8689C26.996 15.7117 26.976 15.5609 26.9443 15.4143Z" fill="#083F21"/>
<path d="M26.9443 15.4143V15.8436C26.9633 15.8509 26.9812 15.8594 27.0002 15.8689C26.996 15.7138 26.976 15.5609 26.9443 15.4143Z" fill="#07381E"/>
<path d="M13.5264 39.6753V40.2121C13.5306 40.2163 13.5369 40.2206 13.5411 40.2237V39.6911C13.5369 39.6869 13.5316 39.6806 13.5264 39.6753Z" fill="#114127"/>
<path d="M13.543 39.6932V40.2259C13.5472 40.229 13.5514 40.2332 13.5567 40.2364V39.708C13.5525 39.7027 13.5482 39.6975 13.543 39.6932Z" fill="#0A2617"/>
<path d="M13.5566 39.708V40.2364C13.6041 40.2733 13.6558 40.306 13.7106 40.3324V39.8409C13.6547 39.8019 13.602 39.7576 13.5566 39.708Z" fill="#092415"/>
<path d="M27.7235 42.4375C27.5474 42.5082 27.3554 42.5514 27.154 42.5588H27V43.0186C27 43.0376 27 43.0566 27 43.0766C27.2974 42.9353 27.5474 42.7128 27.7235 42.4375Z" fill="#175633"/>
<path d="M27.0007 42.5587H26.9627C26.9227 42.7749 26.852 42.9806 26.7539 43.1715C26.8383 43.1462 26.9216 43.1156 26.9996 43.0766C26.9996 43.0576 26.9996 43.0386 26.9996 43.0186V42.5587" fill="#155030"/>
<path d="M27.9471 41.9102C27.7151 42.0346 27.4504 42.1053 27.1688 42.1095H27V42.1506V42.5577H27.154C27.3554 42.5504 27.5463 42.5071 27.7235 42.4364C27.8258 42.2772 27.9007 42.1 27.9471 41.9102Z" fill="#155030"/>
<path d="M27.0009 42.1516C26.9998 42.2908 26.9861 42.4269 26.9629 42.5587H27.0009V42.1516Z" fill="#144B2D"/>
<path d="M27.9925 41.5505C27.9851 41.5516 27.9777 41.5516 27.9703 41.5537C27.7066 41.7857 27.3713 41.9397 27 41.9766V42.1095H27.1677C27.4493 42.1053 27.714 42.0325 27.9461 41.9102C27.9735 41.7952 27.9893 41.675 27.9925 41.5505Z" fill="#144B2D"/>
<path d="M27.9949 41.5336C27.9875 41.541 27.9801 41.5473 27.9717 41.5547C27.9791 41.5536 27.9864 41.5536 27.9938 41.5515C27.9949 41.5452 27.9949 41.5388 27.9949 41.5336Z" fill="#13492B"/>
<path d="M26.9609 42.5587H26.6561C26.4873 42.8298 26.2627 43.0618 25.999 43.2411H26.3144C26.4663 43.2369 26.6129 43.2116 26.7542 43.1704C26.8502 42.9795 26.9219 42.7739 26.9609 42.5587Z" fill="#12462A"/>
<path d="M26.6564 42.5587H26.1017C25.723 42.8498 25.2495 43.0259 24.7348 43.0323H14.0107C14.1552 43.1578 14.3419 43.2348 14.5476 43.2422H14.5486H25.9983C26.263 43.0629 26.4866 42.8287 26.6564 42.5587Z" fill="#113E25"/>
<path d="M27.0002 42.1105H26.8715C26.8156 42.2687 26.7428 42.4195 26.6553 42.5587H26.9601C26.9854 42.4269 26.998 42.2908 26.998 42.1516V42.1105" fill="#114227"/>
<path d="M26.8714 42.1105H26.5445C26.4189 42.2792 26.2692 42.4311 26.1025 42.5587H26.6573C26.7438 42.4174 26.8166 42.2687 26.8714 42.1105Z" fill="#103B23"/>
<path d="M27.0007 41.9766C26.9711 41.9797 26.9427 41.9808 26.9131 41.9829C26.9015 42.0261 26.8878 42.0683 26.873 42.1105H27.0007V41.9766Z" fill="#113E25"/>
<path d="M26.9131 41.9829C26.8994 41.9829 26.8867 41.984 26.873 41.984H26.6315C26.603 42.0272 26.5735 42.0683 26.5439 42.1095H26.8709C26.8867 42.0683 26.8994 42.0262 26.9131 41.9829Z" fill="#0F3821"/>
<path d="M15.113 42.5007H13.7197C13.7503 42.7106 13.8568 42.8984 14.0108 43.0323H24.7359C25.2506 43.026 25.7242 42.8498 26.1028 42.5587H15.3893C15.2912 42.5535 15.1984 42.5334 15.113 42.5007Z" fill="#0E3821"/>
<path d="M26.5451 42.1105H26.0167C25.656 42.3573 25.2183 42.5007 24.749 42.5007C24.7448 42.5007 24.7405 42.5007 24.7353 42.5007H15.1123C15.1977 42.5345 15.2916 42.5534 15.3886 42.5587H26.1011C26.2698 42.43 26.4196 42.2792 26.5451 42.1105Z" fill="#0E3520"/>
<path d="M26.6325 41.984H26.1843C26.1305 42.0283 26.0746 42.0694 26.0166 42.1095H26.545C26.5756 42.0684 26.6051 42.0273 26.6325 41.984Z" fill="#0D331E"/>
<path d="M14.2934 41.3258H13.8367C13.7956 41.3321 13.7523 41.3342 13.7112 41.3364V42.3467C13.7101 42.3984 13.7122 42.4501 13.7196 42.5007H15.1129C14.807 42.3826 14.5845 42.0978 14.5539 41.7614C14.4273 41.6454 14.3356 41.4967 14.2934 41.3258Z" fill="#0D301D"/>
<path d="M14.5527 41.7593C14.5833 42.0968 14.8059 42.3805 15.1117 42.4986H24.7347C24.7389 42.4986 24.7431 42.4986 24.7484 42.4986C25.2188 42.4986 25.6554 42.3552 26.0161 42.1084H15.4155H15.4007C15.2351 42.1021 15.0811 42.0504 14.9535 41.9639C14.8016 41.9322 14.6645 41.8605 14.5527 41.7593Z" fill="#0C2E1C"/>
<path d="M14.9531 41.965C15.0818 42.0504 15.2347 42.1042 15.4003 42.1095H15.4151H26.0157C26.0737 42.0694 26.1296 42.0282 26.1834 41.9839H15.1208C15.0639 41.9829 15.008 41.9766 14.9531 41.965Z" fill="#0C2D1B"/>
<path d="M27.9703 41.5537C27.9218 41.56 27.8743 41.5622 27.8237 41.5622H27V41.9745C27.3713 41.9397 27.7066 41.7879 27.9703 41.5537Z" fill="#13462A"/>
<path d="M27.9953 26.9579H27.5049V26.9589H27.9953V26.9579Z" fill="#18794C"/>
<path d="M27.5041 26.9589V38.6669C27.5084 38.9865 27.4271 39.2871 27.2795 39.5455V39.5613V39.5624C27.2879 39.9252 27.1846 40.2637 27 40.5443V40.7352V41.561H27.8237C27.8722 41.56 27.9218 41.5568 27.9703 41.5526C27.9777 41.5452 27.9851 41.5389 27.9935 41.5315C27.9935 41.5178 27.9935 41.503 27.9935 41.4903V26.9589H27.5041Z" fill="#124429"/>
<path d="M27.5049 16.2264V26.9579H27.9943V17.4731C28.0069 16.989 27.8192 16.5481 27.5049 16.2264Z" fill="#0C5C30"/>
<path d="M27.0005 41.5642H26.9921C26.9784 41.7076 26.952 41.8479 26.9141 41.9829C26.9436 41.9819 26.9731 41.9798 27.0016 41.9766V41.5642" fill="#103B23"/>
<path d="M27.0006 41.3669C27.0006 41.4334 26.9975 41.4988 26.9922 41.5642H27.0006V41.3669Z" fill="#103A23"/>
<path d="M26.9913 41.5642H26.8479C26.7899 41.7119 26.7192 41.8532 26.6338 41.984H26.8753C26.889 41.984 26.9017 41.9829 26.9154 41.9829C26.9523 41.8479 26.9787 41.7076 26.9913 41.5642Z" fill="#0E3520"/>
<path d="M27.0007 40.7373C27.0007 41.0284 26.9458 41.3068 26.8467 41.5631H26.9901C26.9964 41.4977 26.9986 41.4334 26.9986 41.3659V40.7373" fill="#0E341F"/>
<path d="M26.8471 41.5642H26.576C26.4632 41.7214 26.3303 41.8616 26.1826 41.984H26.6309C26.7173 41.8532 26.7901 41.7119 26.8471 41.5642Z" fill="#0D311D"/>
<path d="M27.0001 40.5475C26.9927 40.5591 26.9843 40.5728 26.9748 40.5844C26.9199 40.9472 26.7807 41.2794 26.5771 41.5642H26.8482C26.9473 41.3079 27.0022 41.0284 27.0022 40.7384V40.5475" fill="#0D301D"/>
<path d="M14.5483 41.3258H14.292C14.3331 41.4956 14.427 41.6454 14.5525 41.7603C14.5493 41.734 14.5483 41.7055 14.5483 41.677V41.3258Z" fill="#0C2E1C"/>
<path d="M14.5784 41.3258H14.5488V41.6781C14.5488 41.7066 14.5499 41.7329 14.553 41.7614C14.6638 41.8616 14.802 41.9344 14.9538 41.9671C14.7429 41.8236 14.6005 41.5905 14.5784 41.3258Z" fill="#0C2D1B"/>
<path d="M15.4883 41.3258H14.5781C14.5992 41.5905 14.7427 41.8247 14.9525 41.9649C15.0074 41.9766 15.0622 41.9829 15.1202 41.9839H26.1818C26.3295 41.8616 26.4634 41.7203 26.5752 41.5642H16.0579H16.0568C15.8364 41.5568 15.6381 41.4661 15.4883 41.3258Z" fill="#0B2B1A"/>
<path d="M26.9749 40.5844C26.6732 41.021 26.1733 41.3121 25.6006 41.3258H24.7474H15.4883C15.6359 41.4682 15.8363 41.5568 16.0578 41.5642H16.0589H26.5762C26.7808 41.2804 26.9221 40.9461 26.9749 40.5844Z" fill="#0B2B1A"/>
<path d="M13.8355 41.3258H13.71V41.3364C13.7511 41.3353 13.7922 41.3321 13.8355 41.3258Z" fill="#0C2D1B"/>
<path d="M14.2763 41.2415H13.71V41.3258H13.8355H14.2921C14.2869 41.2984 14.2805 41.2699 14.2763 41.2415Z" fill="#0A2818"/>
<path d="M13.71 40.3323V41.2435H14.2763C14.27 41.1982 14.2658 41.1518 14.2679 41.1043V40.4198H14.0591C13.9346 40.4135 13.8165 40.3818 13.71 40.3323Z" fill="#0A2516"/>
<path d="M27.2795 39.5466C27.2025 39.6816 27.1076 39.804 27 39.9137V40.5465C27.1846 40.2649 27.289 39.9253 27.2795 39.5646V39.5635V39.5466Z" fill="#103D24"/>
<path d="M26.9999 40.2627C26.9999 40.3724 26.9915 40.48 26.9746 40.5854C26.983 40.5738 26.9904 40.5601 26.9999 40.5485V40.2627Z" fill="#0C2C1B"/>
<path d="M27.0008 39.9137C26.9175 39.997 26.8278 40.0708 26.7297 40.1341C26.349 40.8386 25.6054 41.3196 24.749 41.3248H25.6023C26.175 41.3111 26.6749 41.02 26.9765 40.5834C26.9923 40.4779 26.9997 40.3703 27.0018 40.2606V39.9126" fill="#0A2818"/>
<path d="M14.5485 41.2415H14.2764C14.2806 41.2699 14.2848 41.2974 14.2922 41.3258H14.5485V41.2415Z" fill="#0A2718"/>
<path d="M14.5752 41.2415H14.5488V41.3258H14.5784C14.5773 41.2984 14.5752 41.2699 14.5752 41.2415Z" fill="#0A2617"/>
<path d="M15.4116 41.2415H14.5752C14.5752 41.2699 14.5752 41.2974 14.5784 41.3258H15.4886C15.4622 41.2995 15.4348 41.271 15.4116 41.2415Z" fill="#0A2616"/>
<path d="M26.729 40.1351C26.7037 40.151 26.6784 40.1678 26.652 40.1826C26.2512 40.8186 25.5425 41.2415 24.7346 41.2415H15.4111C15.4343 41.271 15.4618 41.2995 15.4881 41.3259H24.7472C25.6047 41.3206 26.3493 40.8397 26.729 40.1351Z" fill="#0A2516"/>
<path d="M14.5492 40.4177H14.2676V41.1022C14.2676 41.1497 14.2707 41.195 14.276 41.2414H14.5481V40.4177" fill="#0A2416"/>
<path d="M14.5752 40.4177H14.5488V41.2414H14.5752C14.5752 41.2372 14.5752 41.233 14.5752 41.2277V40.4177Z" fill="#092415"/>
<path d="M15.2195 40.4177H14.5762V41.2288C14.5762 41.233 14.5762 41.2372 14.5762 41.2425H15.4125C15.287 41.0853 15.2143 40.886 15.2206 40.6698L15.2195 40.4177Z" fill="#092315"/>
<path d="M26.6521 40.1826C26.4095 40.325 26.1268 40.4104 25.8252 40.4178H15.2193V40.6688C15.2119 40.885 15.2857 41.0865 15.4112 41.2415H24.7346C25.5425 41.2415 26.2513 40.8186 26.6521 40.1826Z" fill="#092315"/>
<path d="M27.5049 26.9579H27.2803V26.9589H27.5049V26.9579Z" fill="#14653F"/>
<path d="M27.2803 26.9589V39.5476C27.4279 39.2892 27.5091 38.9886 27.5049 38.6691V26.9599L27.2803 26.9589Z" fill="#0F3922"/>
<path d="M27.2764 16.0303C27.2806 16.0914 27.2827 16.1516 27.2795 16.2138V26.9579H27.5042V16.2264C27.4346 16.1547 27.3576 16.0893 27.2764 16.0303Z" fill="#0A4D28"/>
<path d="M13.71 39.8387V40.3302C13.8165 40.3819 13.9346 40.4114 14.0601 40.4157H14.2689V39.9632L14.1709 39.9822H14.1561C13.9895 39.978 13.8365 39.9252 13.71 39.8387Z" fill="#092315"/>
<path d="M27.2795 26.9579H27V26.9589H27.2795V26.9579Z" fill="#135C39"/>
<path d="M27 26.9589V39.9146C27.1097 39.805 27.2025 39.6826 27.2795 39.5476V26.9589H27Z" fill="#0E341F"/>
<path d="M27 15.8689C27 15.8868 27 15.9048 27 15.9206V16.4521V16.9552V26.9579H27.2795V16.2138C27.2805 16.1516 27.2805 16.0914 27.2763 16.0303C27.1888 15.968 27.097 15.9142 27 15.8689Z" fill="#094624"/>
<path d="M26.9443 15.8435V15.9838C26.9781 16.1346 26.9971 16.2917 27.0002 16.451V15.9194C27.0002 15.9015 27.0002 15.8836 27.0002 15.8678C26.9812 15.8593 26.9612 15.8509 26.9443 15.8435Z" fill="#07361D"/>
<path d="M26.9443 15.9838V16.5016C26.9781 16.6482 26.9971 16.799 27.0002 16.9541V16.451C26.9971 16.2917 26.9781 16.1346 26.9443 15.9838Z" fill="#07331B"/>
<path d="M27.0005 39.0593C27.0005 39.4485 26.9025 39.8134 26.7295 40.1351C26.8276 40.0697 26.9172 39.9959 27.0005 39.9147V39.0593Z" fill="#0A2516"/>
<path d="M27.0004 38.9771C27.0004 39.4211 26.8728 39.8335 26.6523 40.1847C26.6787 40.1699 26.704 40.1541 26.7293 40.1372C26.9023 39.8176 27.0004 39.4506 27.0004 39.0614V38.9771Z" fill="#092315"/>
<path d="M26.9443 16.5017V17.1176C26.9781 17.2685 26.9971 17.4256 27.0002 17.5849V18.3685V26.9568V16.9542C26.9971 16.7991 26.976 16.6483 26.9443 16.5017Z" fill="#063119"/>
<path d="M26.9443 17.1176V17.9012C26.9781 18.052 26.9971 18.2092 27.0002 18.3684V17.5848C26.9971 17.4234 26.9781 17.2684 26.9443 17.1176Z" fill="#062F19"/>
<path d="M14.5491 39.9104L14.2686 39.9652V40.4177H14.5491V39.9104Z" fill="#092315"/>
<path d="M14.5752 39.9062L14.5488 39.9105V40.4178H14.5752V39.9062Z" fill="#092214"/>
<path d="M26.9443 17.9012V18.7545C26.9802 18.9095 26.9992 19.0698 27.0002 19.2354V26.9568V18.3685C26.9971 18.2082 26.9781 18.0521 26.9443 17.9012Z" fill="#062E18"/>
<path d="M15.2196 39.7828L14.5752 39.9062V40.4178H15.2196V39.7828Z" fill="#092214"/>
<path d="M27.0002 26.9579H26.9443L27.0002 26.9589V26.9579Z" fill="#0C3B25"/>
<path d="M26.9446 26.9578V36.3867C26.9446 37.3517 24.4545 38.1913 23.5179 38.1913L15.2207 39.7817V40.4167H25.8266C26.1283 40.4093 26.4099 40.3249 26.6535 40.1815C26.8739 39.8324 27.0016 39.4179 27.0016 38.9739V26.9557L26.9446 26.9578Z" fill="#092214"/>
<path d="M26.9443 18.7555V26.9578H27.0002V19.2364C26.9981 19.0698 26.9791 18.9084 26.9443 18.7555Z" fill="#062D18"/>
<path d="M25.2661 12.0446H25.2513H13.5V13.1478V12.4907H15.6157C15.7444 12.4074 15.8973 12.3557 16.0597 12.3515H26.2079C25.939 12.1669 25.6163 12.053 25.2661 12.0446Z" fill="#1F975F"/>
<path d="M26.2075 12.3536H16.0593C15.8947 12.36 15.7429 12.4095 15.6152 12.4929H25.2509H25.2656C25.6812 12.5034 26.0598 12.6606 26.352 12.9126H26.719C26.5924 12.6911 26.4173 12.5002 26.2075 12.3536Z" fill="#1E925B"/>
<path d="M26.7186 12.9126H26.3516C26.5709 13.1035 26.7418 13.3492 26.843 13.6256H26.939C26.919 13.3682 26.8399 13.1267 26.7186 12.9126Z" fill="#1C8855"/>
<path d="M26.9378 13.6277H26.8418C26.903 13.7975 26.9378 13.9778 26.9441 14.1677V13.7205C26.942 13.6878 26.9409 13.6572 26.9378 13.6277Z" fill="#1A8050"/>
<path d="M13.4987 35.0874H13.332V38.2188V35.5061H13.4987V35.0874Z" fill="#BEBEBE"/>
<path d="M13.3315 38.7513V39.1015C13.3252 39.3029 13.3874 39.4896 13.4992 39.6383V39.2344C13.3979 39.0983 13.3368 38.9306 13.3315 38.7513Z" fill="#B9B9B9"/>
<path d="M13.498 39.2323V39.6373L13.4991 39.6384V39.2344C13.5002 39.2344 13.5002 39.2344 13.498 39.2323Z" fill="#18774A"/>
<path d="M13.5 39.2355V39.6405C13.5084 39.6521 13.5179 39.6637 13.5264 39.6742V39.2692C13.5169 39.2576 13.5084 39.2471 13.5 39.2355Z" fill="#114328"/>
<path d="M13.5264 39.2692V39.6742C13.5306 39.6805 13.5369 39.6858 13.5411 39.6921V39.2871C13.5369 39.2818 13.5316 39.2755 13.5264 39.2692Z" fill="#103C24"/>
<path d="M13.543 39.2871V39.6921C13.5472 39.6963 13.5514 39.7027 13.5567 39.7069V39.3019C13.5525 39.2966 13.5482 39.2913 13.543 39.2871Z" fill="#0A2516"/>
<path d="M13.5566 39.3019V39.7069C13.602 39.7575 13.6547 39.8018 13.7106 39.8387V39.4337C13.6547 39.3968 13.602 39.3525 13.5566 39.3019Z" fill="#092315"/>
<path d="M13.71 39.4337V39.8387C13.8376 39.9241 13.9916 39.9758 14.155 39.9822H14.1698L14.2679 39.9632V39.5582L14.1698 39.5772H14.155C13.9895 39.5719 13.8365 39.5191 13.71 39.4337Z" fill="#092214"/>
<path d="M14.5491 39.5044L14.2686 39.5592V39.9653L14.5491 39.9104V39.5044Z" fill="#092214"/>
<path d="M14.5752 39.4991L14.5488 39.5044V39.9105L14.5752 39.9063V39.4991Z" fill="#092214"/>
<path d="M15.2196 39.3746L14.5752 39.4991V39.9062L15.2196 39.7828V39.3746Z" fill="#092114"/>
<path d="M26.9446 26.9579V35.9681C26.9446 36.9331 24.4545 37.7727 23.5179 37.7727L15.2207 39.3747V39.7818L23.5179 38.1914C24.4545 38.1914 26.9446 37.3529 26.9446 36.3868V26.9579Z" fill="#092114"/>
<path d="M15.6157 12.4928H13.5V13.1499C13.6477 13.0149 13.8449 12.9305 14.0611 12.9284H15.2708C15.3352 12.747 15.4564 12.594 15.6157 12.4928Z" fill="#1C8855"/>
<path d="M25.2668 12.4928H25.252H15.6164C15.4582 12.5951 15.3369 12.747 15.2715 12.9263H15.2894C15.3305 12.9189 15.3738 12.9147 15.417 12.9126H26.352C26.0599 12.6594 25.6823 12.5023 25.2668 12.4928Z" fill="#1B8453"/>
<path d="M26.3507 12.9126H15.4157C15.3725 12.9137 15.3303 12.9189 15.2881 12.9263H22.6224C23.4419 12.9305 24.2508 13.1383 24.9733 13.5285C24.9965 13.5591 25.0397 13.5918 25.0956 13.6277H26.8411C26.7409 13.3492 26.5711 13.1035 26.3507 12.9126Z" fill="#197C4E"/>
<path d="M26.8422 13.6277H25.0967C25.141 13.6541 25.1927 13.6836 25.2538 13.7131C25.4004 13.7469 25.5407 13.7964 25.6757 13.8566C25.8234 13.9251 25.9626 14.0074 26.0913 14.1033C26.3454 14.2257 26.6091 14.3649 26.8369 14.521H26.8749C26.8981 14.521 26.9202 14.5221 26.9445 14.5242V14.1677C26.9382 13.9778 26.9044 13.7964 26.8422 13.6277Z" fill="#187549"/>
<path d="M25.6748 13.8566C25.8225 13.9251 25.9617 14.0074 26.0904 14.1034C26.0904 14.1034 26.0904 14.1034 26.0914 14.1034C25.9617 14.0074 25.8225 13.9251 25.6748 13.8566Z" fill="#14623D"/>
<path d="M25.2529 13.713C25.467 13.8227 25.7718 13.9514 26.0904 14.1032C25.9617 14.0073 25.8225 13.924 25.6748 13.8565C25.5398 13.7963 25.3995 13.7468 25.2529 13.713Z" fill="#115535"/>
<path d="M26.8749 14.521H26.8369C26.8738 14.5463 26.9097 14.5716 26.9434 14.598V14.5242C26.9202 14.5221 26.8981 14.5221 26.8749 14.521Z" fill="#166F45"/>
<path d="M13.332 38.2188V38.7514C13.3384 38.9307 13.3985 39.0973 13.4997 39.2323V38.7134C13.3964 38.5752 13.3352 38.4044 13.332 38.2188Z" fill="#AFAFAF"/>
<path d="M13.498 38.7134V39.2323L13.5002 39.2344V38.7155C13.5002 38.7144 13.5002 38.7144 13.498 38.7134Z" fill="#177046"/>
<path d="M13.5 38.7166V39.2355C13.5084 39.2471 13.5179 39.2587 13.5264 39.2692V38.7503C13.5169 38.7387 13.5084 38.7282 13.5 38.7166Z" fill="#103F26"/>
<path d="M13.4988 35.5061H13.3311V38.2198C13.3342 38.4044 13.3964 38.5752 13.4988 38.7145V35.5061Z" fill="#AEAEAE"/>
<path d="M15.2708 12.9263H14.0611C13.8449 12.9294 13.6487 13.0138 13.5 13.1478V35.5061V38.7134L13.5011 38.7144V26.942V14.6169H13.5274V14.5188C13.5316 14.5178 13.538 14.5157 13.5422 14.5146V13.6519H14.5853C14.638 13.2912 14.9133 13.0012 15.2687 12.9284C15.2687 12.9284 15.2708 12.9273 15.2708 12.9263Z" fill="#176F46"/>
<path d="M13.5 26.9441V38.7165C13.5084 38.7281 13.5179 38.7397 13.5264 38.7503V26.9578H13.5V26.9441Z" fill="#103F26"/>
<path d="M13.5264 14.618H13.5V26.9442V26.9579H13.5264V14.618Z" fill="#0B552C"/>
<path d="M15.2895 12.9263H15.2716C15.2716 12.9273 15.2705 12.9294 15.2705 12.9294C15.2758 12.9284 15.2832 12.9273 15.2895 12.9263Z" fill="#166D44"/>
<path d="M15.2694 12.9305C14.9129 13.0033 14.6376 13.2934 14.5859 13.6541H15.1998C15.2071 13.653 15.2135 13.6509 15.2209 13.6498V13.2353C15.2177 13.1267 15.2356 13.0255 15.2694 12.9305Z" fill="#156942"/>
<path d="M22.6217 12.9263H15.2874C15.2811 12.9273 15.2758 12.9294 15.2684 12.9294C15.2347 13.0244 15.2168 13.1277 15.2178 13.2342V13.6487C15.2727 13.635 15.3286 13.6276 15.3866 13.6266H25.0939C25.038 13.5907 24.9948 13.558 24.9716 13.5274C24.2502 13.1372 23.4423 12.9305 22.6217 12.9263Z" fill="#156640"/>
<path d="M15.2193 13.6477C15.212 13.6488 15.2056 13.6509 15.1982 13.6519H15.2193V13.6477Z" fill="#14643F"/>
<path d="M25.0968 13.6277H15.3895C15.3314 13.6287 15.2755 13.6361 15.2207 13.6498V13.6541H24.734H24.7487C24.9217 13.6551 25.0905 13.6762 25.2529 13.7131C25.1928 13.6825 25.139 13.6541 25.0968 13.6277Z" fill="#14623D"/>
<path d="M24.7482 13.6541H24.7334C24.9127 13.6541 25.0857 13.6751 25.2523 13.7131C25.0899 13.6741 24.9211 13.6541 24.7482 13.6541Z" fill="#115535"/>
<path d="M26.0898 14.1033C26.2491 14.2235 26.3936 14.3638 26.517 14.5209H26.8366C26.6077 14.3659 26.344 14.2267 26.0898 14.1033Z" fill="#14623D"/>
<path d="M14.5861 13.6541H13.543V14.5168V14.213H13.5567V13.6541H14.5861Z" fill="#135E3B"/>
<path d="M26.0889 14.1033C26.2481 14.2235 26.3937 14.3638 26.516 14.5209C26.3937 14.3638 26.2502 14.2235 26.0889 14.1033C26.0899 14.1033 26.0899 14.1033 26.0889 14.1033Z" fill="#115535"/>
<path d="M14.586 13.6541H13.5566V14.213H14.5776V13.7806C14.5755 13.7384 14.5807 13.6952 14.586 13.6541Z" fill="#115233"/>
<path d="M15.1994 13.6541H14.5856C14.5793 13.6952 14.5771 13.7384 14.5771 13.7817V14.2141H14.5961C14.6889 13.9399 14.9157 13.7268 15.1994 13.6541Z" fill="#104F32"/>
<path d="M15.2191 13.6541H15.198C14.9143 13.7268 14.6875 13.9409 14.5947 14.213H15.2191V13.6541Z" fill="#104D30"/>
<path d="M24.734 13.6541H15.2207V14.213H24.734C25.101 14.2141 25.4491 14.3048 25.7549 14.4598C25.8604 14.4704 25.9616 14.4904 26.0608 14.521H26.5175C26.3951 14.3639 26.2496 14.2236 26.0903 14.1033C25.7739 13.9515 25.467 13.8217 25.2529 13.7131C25.0862 13.6741 24.9133 13.6541 24.734 13.6541Z" fill="#0F4C2F"/>
<path d="M13.5567 14.213H13.543V14.5168C13.5472 14.5157 13.5514 14.5136 13.5567 14.5125V14.213Z" fill="#115233"/>
<path d="M14.5746 14.213H13.5537V14.5115C13.5948 14.4999 13.637 14.4936 13.6792 14.4936C13.7309 14.4936 13.7826 14.502 13.8332 14.5189H14.5462C14.543 14.4345 14.5536 14.3533 14.5725 14.2752V14.213" fill="#0F4A2E"/>
<path d="M14.5952 14.213H14.5762V14.2763C14.5814 14.2563 14.5888 14.2341 14.5952 14.213Z" fill="#0E472C"/>
<path d="M14.5749 14.2762C14.5538 14.3543 14.5453 14.4355 14.5485 14.5199H14.5749V14.2762Z" fill="#0E472C"/>
<path d="M15.2195 14.213H14.5952C14.5878 14.2341 14.5814 14.2563 14.5762 14.2763V14.5199H15.2195V14.213Z" fill="#0E462C"/>
<path d="M24.734 14.213H15.2207V14.521H25.5746L25.6041 14.4514H25.6326C25.6737 14.4524 25.7159 14.4556 25.7549 14.4598C25.447 14.3048 25.101 14.2162 24.734 14.213Z" fill="#0E442B"/>
<path d="M26.8362 14.521H26.5166C26.5419 14.5516 26.5651 14.5843 26.5894 14.6191H26.9427V14.598C26.9089 14.5727 26.8731 14.5463 26.8362 14.521Z" fill="#135D3A"/>
<path d="M26.9441 14.618H26.5908C26.6646 14.7235 26.73 14.8353 26.7859 14.9534C26.8439 15.0114 26.8967 15.0716 26.9441 15.1369V14.618Z" fill="#094725"/>
<path d="M26.5186 14.521C26.5439 14.5516 26.5671 14.5843 26.5913 14.6191C26.5671 14.5864 26.5428 14.5537 26.5186 14.521Z" fill="#105133"/>
<path d="M26.5898 14.618C26.6637 14.7235 26.7291 14.8353 26.7839 14.9524C26.7291 14.8364 26.6637 14.7235 26.5898 14.618Z" fill="#083E20"/>
<path d="M26.5182 14.521H26.0615C26.1491 14.5463 26.2334 14.5801 26.3146 14.6191H26.591C26.5667 14.5864 26.5414 14.5537 26.5182 14.521Z" fill="#0F492E"/>
<path d="M26.5888 14.618H26.3125C26.4886 14.7024 26.6468 14.8163 26.7829 14.9524C26.7291 14.8364 26.6627 14.7235 26.5888 14.618Z" fill="#07371D"/>
<path d="M13.5264 38.7502V39.2691C13.5306 39.2755 13.5369 39.2808 13.5411 39.2871V38.7682C13.5369 38.7618 13.5316 38.7566 13.5264 38.7502Z" fill="#0F3922"/>
<path d="M13.5421 14.5167C13.5379 14.5178 13.5316 14.5199 13.5273 14.5209V14.619H13.5421V14.5167Z" fill="#14643E"/>
<path d="M13.5421 26.9579H13.5273V38.7503C13.5316 38.7567 13.5379 38.7619 13.5421 38.7683V26.9579Z" fill="#0F3822"/>
<path d="M13.5422 14.618H13.5264V26.9579H13.5422V16.9827V15.3468V14.618Z" fill="#0A4C28"/>
<path d="M25.7549 14.4619C25.7918 14.4809 25.8287 14.502 25.8656 14.5231H26.0607C25.9616 14.4925 25.8593 14.4725 25.7549 14.4619Z" fill="#0E472C"/>
<path d="M13.5567 14.5115C13.5525 14.5125 13.5482 14.5146 13.543 14.5157V14.618H13.5567V14.5115Z" fill="#0F4C30"/>
<path d="M13.5567 14.618H13.543V15.3468V14.7446H13.5567V14.618Z" fill="#073A1E"/>
<path d="M13.6821 14.4956C13.6389 14.4956 13.5978 14.5019 13.5566 14.5135V14.6201H14.5512V14.5241V14.523H13.8382C13.7855 14.504 13.7338 14.4956 13.6821 14.4956Z" fill="#0E462C"/>
<path d="M14.5483 14.618H13.5537V14.7435H14.5451C14.5462 14.7435 14.5462 14.7425 14.5483 14.7425V14.618Z" fill="#07361C"/>
<path d="M14.5752 14.521H14.5488V14.5221V14.618H14.5752V14.521Z" fill="#0E442A"/>
<path d="M14.5752 14.618H14.5488V14.7425C14.5573 14.7351 14.5668 14.7267 14.5752 14.7193V14.618Z" fill="#07341B"/>
<path d="M15.2195 14.521H14.5762V14.6191H14.7259C14.8441 14.5569 14.9791 14.521 15.1225 14.521H15.2195Z" fill="#0D4229"/>
<path d="M14.7269 14.618H14.5771V14.7182C14.6225 14.6803 14.6731 14.6465 14.7269 14.618Z" fill="#06321A"/>
<path d="M25.6316 14.4524H25.6031L25.5736 14.522H15.2197H25.8647C25.8278 14.5009 25.7909 14.4809 25.7539 14.4608C25.7128 14.4577 25.6738 14.4545 25.6316 14.4524Z" fill="#0D4229"/>
<path d="M13.5567 14.7445H13.543V15.3467H13.5567V14.7445Z" fill="#07361C"/>
<path d="M13.5567 15.3468H13.543V16.1304H13.5567V15.3468Z" fill="#07341B"/>
<path d="M13.543 38.7682V39.2871C13.5472 39.2913 13.5514 39.2976 13.5567 39.3019V38.783C13.5525 38.7787 13.5482 38.7724 13.543 38.7682Z" fill="#0A2416"/>
<path d="M13.5567 16.1304H13.543V16.9826H13.5567V16.1304Z" fill="#06311A"/>
<path d="M13.5567 26.9579H13.543V38.7683C13.5472 38.7725 13.5514 38.7788 13.5567 38.783V26.9579Z" fill="#0A2416"/>
<path d="M13.5567 16.9825H13.543V26.9578H13.5567V16.9825Z" fill="#06311A"/>
<path d="M14.548 14.7445H13.5566V15.3467H14.2696C14.277 15.1084 14.3835 14.8953 14.548 14.7445Z" fill="#07321A"/>
<path d="M14.2686 15.3468H13.5557V16.1304H13.8394C13.9385 15.9691 14.0883 15.8404 14.2686 15.7697V15.4027V15.3742C14.2686 15.3658 14.2686 15.3552 14.2686 15.3468Z" fill="#063019"/>
<path d="M13.5566 38.783V39.3019C13.602 39.3525 13.6547 39.3968 13.7106 39.4337V38.9148C13.6547 38.8779 13.602 38.8336 13.5566 38.783Z" fill="#092214"/>
<path d="M13.8394 16.1304H13.5557V16.9836H13.7096V16.5913C13.7107 16.4215 13.7582 16.2654 13.8394 16.1304Z" fill="#062F19"/>
<path d="M13.7106 26.9579H13.5566V38.783C13.602 38.8337 13.6547 38.878 13.7106 38.9159V26.9579Z" fill="#092214"/>
<path d="M13.7106 16.9825H13.5566V26.9578H13.7106V16.9825Z" fill="#062E18"/>
<path d="M26.7842 14.9545C26.8527 15.099 26.9065 15.2529 26.9424 15.4143V15.139C26.8949 15.0726 26.8422 15.0125 26.7842 14.9545Z" fill="#084122"/>
<path d="M26.7842 14.9523C26.8538 15.0968 26.9065 15.2529 26.9434 15.4121C26.9065 15.2529 26.8538 15.0989 26.7842 14.9523C26.7842 14.9544 26.7842 14.9544 26.7842 14.9523Z" fill="#073A1E"/>
<path d="M26.0604 14.521H25.8652C25.9169 14.5516 25.9686 14.5843 26.0171 14.6191H26.3114C26.2323 14.5801 26.1479 14.5474 26.0604 14.521Z" fill="#0E462B"/>
<path d="M26.3138 14.618H26.0195C26.4351 14.907 26.7515 15.33 26.9023 15.8257C26.9171 15.832 26.9308 15.8373 26.9434 15.8436V15.4143C26.9065 15.253 26.8527 15.099 26.7842 14.9545C26.6481 14.8163 26.4899 14.7024 26.3138 14.618Z" fill="#07351C"/>
<path d="M14.5491 14.7424C14.548 14.7424 14.548 14.7435 14.5459 14.7435H14.5491V14.7424Z" fill="#07341B"/>
<path d="M14.5752 14.7192C14.5668 14.7266 14.5573 14.734 14.5488 14.7424V14.7435H14.5752V14.7192Z" fill="#06321A"/>
<path d="M15.2193 14.521H15.1212C14.9777 14.521 14.8427 14.5569 14.7246 14.6191H15.2193V14.521Z" fill="#0D4128"/>
<path d="M15.2196 14.618H14.725C14.6722 14.6465 14.6216 14.6803 14.5752 14.7182V14.7435H15.2186L15.2196 14.618Z" fill="#06311A"/>
<path d="M25.8657 14.521H15.2207V14.6191H26.0196C25.969 14.5843 25.9173 14.5516 25.8657 14.521Z" fill="#0D4128"/>
<path d="M26.0176 14.618H15.2197V14.7435H24.733C25.5124 14.7435 26.2032 15.1391 26.6125 15.7402C26.7116 15.7592 26.8097 15.7887 26.9014 15.8246C26.7506 15.33 26.4353 14.907 26.0176 14.618Z" fill="#06311A"/>
<path d="M14.5492 14.7445H14.546C14.3815 14.8943 14.2771 15.1084 14.2676 15.3467H14.5492V14.7445Z" fill="#06311A"/>
<path d="M14.5492 15.3468H14.2676C14.2676 15.3552 14.2676 15.3658 14.2676 15.3753V15.4038V15.7708C14.3551 15.737 14.45 15.7149 14.5492 15.7096V15.3468Z" fill="#062F19"/>
<path d="M14.5752 14.7445H14.5488V15.3467H14.5752V14.7445Z" fill="#063119"/>
<path d="M14.5752 15.3468H14.5488V15.7107H14.5752V15.3468Z" fill="#062F19"/>
<path d="M15.2196 14.7445H14.5752V15.3467H15.2196V14.7445Z" fill="#062F19"/>
<path d="M24.734 14.7445H15.2207V15.3467H24.734C25.1833 15.3499 25.6041 15.4828 25.9564 15.7106H26.316H26.3308C26.4268 15.7138 26.5217 15.7243 26.6134 15.7433C26.2042 15.139 25.5134 14.7445 24.734 14.7445Z" fill="#062F19"/>
<path d="M15.2196 15.3468H14.5752V15.7107H15.2196V15.3468Z" fill="#062E18"/>
<path d="M24.734 15.3468H15.2207V15.7107H25.9564C25.602 15.4829 25.1833 15.3489 24.734 15.3468Z" fill="#062E18"/>
<path d="M14.2681 15.7697C14.0888 15.8403 13.938 15.9679 13.8389 16.1304H14.2681V15.7697Z" fill="#062F19"/>
<path d="M13.71 38.9148V39.4337C13.8376 39.5191 13.9916 39.5708 14.155 39.5771H14.1698L14.2679 39.5582V39.0403L14.1698 39.0593C14 39.0561 13.8418 39.0034 13.71 38.9148Z" fill="#092214"/>
<path d="M14.268 16.1304H13.8387C13.7554 16.2654 13.709 16.4236 13.709 16.5923V16.9847H14.2669V16.1314" fill="#062E18"/>
<path d="M14.2679 26.9579H13.71V38.9149C13.8418 39.0035 14 39.0573 14.1719 39.0594L14.27 39.0404V26.9579" fill="#092214"/>
<path d="M14.2679 16.9825H13.71V26.9578H14.2679V16.9825Z" fill="#062E18"/>
<path d="M26.9014 15.8278C26.9172 15.8794 26.9309 15.9311 26.9425 15.9849V15.8446C26.9298 15.8372 26.9161 15.832 26.9014 15.8278Z" fill="#07331B"/>
<path d="M26.6123 15.7412C26.7663 15.968 26.8802 16.2253 26.9435 16.5006V15.9827C26.9319 15.9289 26.9171 15.8773 26.9023 15.8256C26.8095 15.7897 26.7114 15.7623 26.6123 15.7412Z" fill="#063019"/>
<path d="M14.5492 15.7107C14.45 15.7149 14.3551 15.736 14.2676 15.7719V16.1326H14.5492V15.7107Z" fill="#062F19"/>
<path d="M14.5752 15.7107H14.5488V16.1305H14.5752V15.7107Z" fill="#062E18"/>
<path d="M26.3295 15.7107H26.3147H25.9551C26.4466 16.0292 26.8083 16.5291 26.9433 17.1176V16.5017C26.88 16.2264 26.7661 15.9691 26.6121 15.7423C26.5204 15.7233 26.4265 15.7139 26.3295 15.7107Z" fill="#062F19"/>
<path d="M15.2196 15.7107H14.5752V16.1305H15.2196V15.7107Z" fill="#062E18"/>
<path d="M25.9564 15.7107H15.2207V16.1305H24.734C25.8108 16.1368 26.7136 16.8909 26.9446 17.9013V17.1176C26.8096 16.5281 26.4468 16.0271 25.9564 15.7107Z" fill="#062D18"/>
<path d="M14.5491 38.9866L14.2686 39.0414V39.5593L14.5491 39.5044V38.9866Z" fill="#092214"/>
<path d="M14.5752 38.9823L14.5488 38.9865V39.5044L14.5752 39.4991V38.9823Z" fill="#092114"/>
<path d="M15.2196 38.8579L14.5752 38.9824V39.4992L15.2196 39.3747V38.8579Z" fill="#092114"/>
<path d="M26.9446 26.9579V35.4639C26.9446 36.429 24.4545 37.2685 23.5179 37.2685L15.2207 38.859V39.3758L23.5179 37.7737C24.4545 37.7737 26.9446 36.9331 26.9446 35.9691V26.9579Z" fill="#092114"/>
<path d="M14.5491 16.1304H14.2686V16.9826H14.5491V16.1304Z" fill="#062E18"/>
<path d="M14.5491 26.9579H14.2686V39.0414L14.5491 38.9866V26.9579Z" fill="#092214"/>
<path d="M14.5491 16.9825H14.2686V26.9578H14.5491V16.9825Z" fill="#062D18"/>
<path d="M14.5752 16.1304H14.5488V16.9826H14.5752V16.1304Z" fill="#062D18"/>
<path d="M14.5752 26.9579H14.5488V38.9866L14.5752 38.9824V26.9579Z" fill="#092114"/>
<path d="M14.5752 16.9825H14.5488V26.9578H14.5752V16.9825Z" fill="#062D17"/>
<path d="M15.2196 16.1304H14.5752V16.9826H15.2196V16.1304Z" fill="#062D17"/>
<path d="M24.734 16.1304H15.2207V16.9836H24.734C25.8129 16.9899 26.7136 17.744 26.9446 18.7544V17.9012C26.7136 16.8897 25.8108 16.1367 24.734 16.1304Z" fill="#062C17"/>
<path d="M15.2196 26.9579H14.5752V38.9824L15.2196 38.8579V26.9579Z" fill="#092114"/>
<path d="M15.2196 16.9825H14.5752V26.9578H15.2196V16.9825Z" fill="#062C17"/>
<path d="M26.4721 26.9579H15.2207V38.859L23.5179 37.2685C24.4545 37.2685 26.9446 36.4279 26.9446 35.4639V26.9579H26.4721Z" fill="#092114"/>
<path d="M24.734 16.9825H15.2207V26.9567H26.4721H26.9436V18.7544C26.7136 17.7451 25.8119 16.9899 24.734 16.9825Z" fill="#062C17"/>
<path d="M2.2532 12.8419H24.7486C26.0206 12.8788 27.0257 13.9335 27.0004 15.2065V38.6965C27.0479 39.9685 26.0628 41.0432 24.7898 41.1033H2.2532C0.985468 41.0801 -0.0238677 40.0349 0.00144481 38.7682V38.7535V15.2076C-0.0238677 13.9346 0.980195 12.8799 2.2532 12.8419Z" fill="#107C41"/>
<path d="M6.12598 35.7592L11.4289 27.1129L6.55945 18.5773H10.4776L13.1217 24.0332C13.3095 24.4255 13.4782 24.8273 13.6259 25.2355C13.7936 24.8305 13.9897 24.4097 14.1848 24.0332L16.984 18.6184H20.5805L15.6424 27.1086L20.7482 35.7402H16.9165L13.8379 29.7939C13.6976 29.5355 13.5721 29.2686 13.4603 28.9965C13.3675 29.2655 13.2462 29.5228 13.0964 29.7654L9.94922 35.7666L6.12598 35.7592Z" fill="white"/>
</g>
<defs>
<clipPath id="clip0_6001_5076">
<rect width="54" height="54" fill="white"/>
</clipPath>
</defs>
</svg>
