<?xml version="1.0" encoding="UTF-8"?>
<svg version="1.1" xmlns="http://www.w3.org/2000/svg" width="813" height="801">
<path d="M0 0 C268.29 0 536.58 0 813 0 C813 264.33 813 528.66 813 801 C544.71 801 276.42 801 0 801 C0 536.67 0 272.34 0 0 Z " fill="#FEFEFE" transform="translate(0,0)"/>
<path d="M0 0 C2.75 2.4375 2.75 2.4375 5 5 C5.928125 5.86625 6.85625 6.7325 7.8125 7.625 C10 10 10 10 10 13 C11.65 13.66 13.3 14.32 15 15 C15 15.99 15 16.98 15 18 C15.721875 18.226875 16.44375 18.45375 17.1875 18.6875 C20.58568303 20.27331875 22.45230999 22.26123324 25 25 C25.825 25.825 26.65 26.65 27.5 27.5 C31.66666667 31.66666667 35.83333333 35.83333333 40 40 C41.2065625 41.175625 41.2065625 41.175625 42.4375 42.375 C51 51.14634146 51 51.14634146 51 54 C51.70125 54.185625 52.4025 54.37125 53.125 54.5625 C56.53499575 56.26749788 58.15789173 58.27440234 60.52734375 61.1953125 C63.17133252 64.43542606 66.05270726 67.27706607 69.375 69.8125 C71.66232698 71.71860581 73.39803315 73.55507877 75.3125 75.8125 C77.71545217 78.63245037 80.17085961 81.10863762 83 83.5 C86.44896133 86.4183519 89.30234657 89.58409538 92.21484375 93.02734375 C94.63717395 95.70409813 97.34623998 97.95622232 100.09765625 100.28515625 C101.91715567 101.92532102 103.44664555 103.60987494 105 105.5 C107.74827763 108.83986872 110.83491619 111.57278531 114.11328125 114.3828125 C117.80493119 117.54708388 120.81053597 120.46911165 123.125 124.75 C124.67012048 128.25876776 124.67012048 128.25876776 128 129 C131.93100611 133.04332058 132.27493801 136.07198298 132.3125 141.6875 C132.13489294 149.79199071 132.13489294 149.79199071 129.60546875 152.484375 C129.07566406 152.98453125 128.54585937 153.4846875 128 154 C127.0963965 155.0768608 126.20086978 156.16053792 125.3125 157.25 C122.43480985 160.64309734 119.26480705 163.49451795 115.8828125 166.375 C113.46133317 168.46490747 111.23070989 170.70900065 109 173 C79 203 79 203 76.6875 205.25 C74.42399754 207.56614205 72.30845357 209.93093241 70.1875 212.375 C66.95161149 216.05048092 63.54409001 219.28220691 59.8125 222.4453125 C57.40979066 224.50625715 55.2074622 226.73287666 53 229 C36.33333333 245.66666667 19.66666667 262.33333333 3 279 C2.175 279.86625 1.35 280.7325 0.5 281.625 C-4.23292661 286.12128028 -7.49539227 287.40380738 -14.0625 287.3125 C-15.87427734 287.30669922 -15.87427734 287.30669922 -17.72265625 287.30078125 C-21.66155952 286.93928476 -23.76059215 286.2584269 -26.52734375 283.44921875 C-26.99269531 282.86785156 -27.45804688 282.28648437 -27.9375 281.6875 C-31.75700477 277.06988975 -35.921997 273.05907536 -40.4375 269.125 C-43.7793191 266.18574327 -46.65323294 263.15602289 -49.46875 259.72265625 C-51.79895132 257.10117976 -54.45092494 254.89588522 -57.1171875 252.625 C-59.53866683 250.53509253 -61.76929011 248.29099935 -64 246 C-65.175625 244.8553125 -65.175625 244.8553125 -66.375 243.6875 C-68.46020887 241.5526433 -70.38338831 239.39531511 -72.3125 237.125 C-74.69999012 234.36026577 -77.14818443 231.91974512 -79.9375 229.5625 C-83.72739024 226.3528449 -86.94012039 222.80924387 -90.1953125 219.06640625 C-93.38738015 215.4114197 -96.80727407 212.1368317 -100.5 209 C-105.01536863 205.16290563 -109.01094749 200.99523792 -112.9375 196.5625 C-116.94534684 192.08909519 -121.0875942 187.76882944 -125.3125 183.5 C-126.21053345 182.58263062 -126.21053345 182.58263062 -127.12670898 181.64672852 C-127.69977783 181.07237061 -128.27284668 180.4980127 -128.86328125 179.90625 C-129.37157471 179.39384766 -129.87986816 178.88144531 -130.40356445 178.35351562 C-131.98303545 176.89363634 -131.98303545 176.89363634 -134.13354492 176.00585938 C-136 175 -136 175 -137 172 C-138.39779556 170.61742541 -138.39779556 170.61742541 -140.125 169.3125 C-143.61937795 166.44109517 -146.45417058 163.26733769 -149.359375 159.8125 C-151.07219362 157.80043737 -151.07219362 157.80043737 -153.875 155.875 C-156.64206599 153.43347119 -156.75454294 151.6000369 -157 148 C-157.66 148 -158.32 148 -159 148 C-159.83796731 143.34462607 -160.0161692 139.62921525 -159 135 C-158.34 135 -157.68 135 -157 135 C-156.90203125 134.2575 -156.8040625 133.515 -156.703125 132.75 C-155.91177919 129.65495863 -154.90374465 128.32229858 -152.75 126 C-151.80253906 124.96939453 -151.80253906 124.96939453 -150.8359375 123.91796875 C-148.59205 121.57382245 -146.32505442 119.26386878 -144 117 C-143.175 116.175 -142.35 115.35 -141.5 114.5 C-122.75 95.75 -122.75 95.75 -104 77 C-103.2575 76.236875 -102.515 75.47375 -101.75 74.6875 C-99.43385795 72.42399754 -97.06906759 70.30845357 -94.625 68.1875 C-90.94951908 64.95161149 -87.71779309 61.54409001 -84.5546875 57.8125 C-82.49374285 55.40979066 -80.26712334 53.2074622 -78 51 C-77.175 50.175 -76.35 49.35 -75.5 48.5 C-74.675 47.675 -73.85 46.85 -73 46 C-72.13375 45.0925 -71.2675 44.185 -70.375 43.25 C-68 41 -68 41 -65 40 C-64.71125 39.4225 -64.4225 38.845 -64.125 38.25 C-62.28043039 34.56086078 -59.5302022 31.74324107 -55.8125 29.9375 C-53.46198896 28.72171843 -53.12751731 27.33020244 -52 25 C-51.01 24.67 -50.02 24.34 -49 24 C-48.31516746 22.67590536 -47.65192657 21.34060209 -47 20 C-43.93795407 16.50708456 -40.60217848 13.27797144 -37.3125 10 C-36.42626953 9.09765625 -35.54003906 8.1953125 -34.62695312 7.265625 C-23.52253017 -3.84701737 -14.54673973 -8.06952723 0 0 Z " fill="#4EC3F7" transform="translate(420,186)"/>
<path d="M0 0 C1.70991516 0.93032837 1.70991516 0.93032837 2.64741516 2.86782837 C3.52880824 5.1534294 3.52880824 5.1534294 5.95991516 5.74282837 C9.41147198 7.23327336 10.90397932 9.24932179 13.23725891 12.12564087 C15.88124768 15.36575443 18.76262242 18.20739444 22.08491516 20.74282837 C24.37224214 22.64893418 26.10794831 24.48540714 28.02241516 26.74282837 C30.42536733 29.56277874 32.88077477 32.03896599 35.70991516 34.43032837 C39.15887649 37.34868027 42.01226174 40.51442375 44.92475891 43.95767212 C47.34708911 46.6344265 50.05615514 48.88655069 52.80757141 51.21548462 C54.62707083 52.85564939 56.15656072 54.54020331 57.70991516 56.43032837 C60.45819279 59.77019709 63.54483135 62.50311368 66.82319641 65.31314087 C70.51484635 68.47741225 73.52045113 71.39944002 75.83491516 75.68032837 C77.38003565 79.18909613 77.38003565 79.18909613 80.70991516 79.93032837 C84.64092128 83.97364894 84.98485317 87.00231135 85.02241516 92.61782837 C84.8448081 100.72231908 84.8448081 100.72231908 82.31538391 103.41470337 C81.78557922 103.91485962 81.25577454 104.41501587 80.70991516 104.93032837 C79.80631166 106.00718917 78.91078494 107.09086629 78.02241516 108.18032837 C75.14472501 111.57342571 71.97472221 114.42484632 68.59272766 117.30532837 C66.17124833 119.39523584 63.94062505 121.63932902 61.70991516 123.93032837 C31.70991516 153.93032837 31.70991516 153.93032837 29.39741516 156.18032837 C27.1339127 158.49647042 25.01836873 160.86126078 22.89741516 163.30532837 C19.66152665 166.98080928 16.25400517 170.21253528 12.52241516 173.37564087 C10.11970582 175.43658552 7.91737736 177.66320503 5.70991516 179.93032837 C-10.95675151 196.59699504 -27.62341817 213.2636617 -44.29008484 229.93032837 C-45.11508484 230.79657837 -45.94008484 231.66282837 -46.79008484 232.55532837 C-51.52301145 237.05160865 -54.78547711 238.33413575 -61.35258484 238.24282837 C-62.5604364 238.23896118 -63.76828796 238.23509399 -65.01274109 238.23110962 C-68.95164436 237.86961313 -71.05067699 237.18875527 -73.81742859 234.37954712 C-74.28278015 233.79817993 -74.74813171 233.21681274 -75.22758484 232.61782837 C-79.04708961 228.00021812 -83.21208183 223.98940373 -87.72758484 220.05532837 C-91.06940394 217.11607164 -93.94331778 214.08635125 -96.75883484 210.65298462 C-99.08903616 208.03150813 -101.74100978 205.82621359 -104.40727234 203.55532837 C-106.82875167 201.4654209 -109.05937495 199.22132772 -111.29008484 196.93032837 C-112.13570984 196.08470337 -112.98133484 195.23907837 -113.85258484 194.36782837 C-114.65695984 193.56345337 -115.46133484 192.75907837 -116.29008484 191.93032837 C-117.07383484 191.27032837 -117.85758484 190.61032837 -118.66508484 189.93032837 C-120.29008484 187.93032837 -120.29008484 187.93032837 -120.04008484 185.18032837 C-119.79258484 184.43782837 -119.54508484 183.69532837 -119.29008484 182.93032837 C-118.63008484 182.93032837 -117.97008484 182.93032837 -117.29008484 182.93032837 C-117.02195984 182.29095337 -116.75383484 181.65157837 -116.47758484 180.99282837 C-115.29008484 178.93032837 -115.29008484 178.93032837 -112.29008484 177.93032837 C-112.00133484 177.35282837 -111.71258484 176.77532837 -111.41508484 176.18032837 C-109.89625415 173.142667 -107.74164751 171.26786487 -105.29008484 168.93032837 C-104.14539734 167.75470337 -104.14539734 167.75470337 -102.97758484 166.55532837 C-100.84272814 164.4701195 -98.68539995 162.54694006 -96.41508484 160.61782837 C-92.90169912 157.58083394 -89.88345789 154.31275039 -86.87992859 150.77798462 C-84.80444275 148.36593351 -82.56915116 146.14941926 -80.29008484 143.93032837 C-79.46508484 143.10532837 -78.64008484 142.28032837 -77.79008484 141.43032837 C-75.29008484 138.93032837 -72.79008484 136.43032837 -70.29008484 133.93032837 C-68.99070984 132.56907837 -68.99070984 132.56907837 -67.66508484 131.18032837 C-65.29008484 128.93032837 -65.29008484 128.93032837 -62.29008484 127.93032837 C-62.29008484 127.27032837 -62.29008484 126.61032837 -62.29008484 125.93032837 C-61.42383484 125.62095337 -61.42383484 125.62095337 -60.54008484 125.30532837 C-57.49629765 123.4452362 -56.23522651 120.87941413 -54.29008484 117.93032837 C-53.30008484 117.60032837 -52.31008484 117.27032837 -51.29008484 116.93032837 C-50.96008484 116.27032837 -50.63008484 115.61032837 -50.29008484 114.93032837 C-49.29008484 112.93032837 -49.29008484 112.93032837 -46.29008484 111.93032837 C-45.96008484 111.27032837 -45.63008484 110.61032837 -45.29008484 109.93032837 C-44.29008484 107.93032837 -44.29008484 107.93032837 -41.29008484 106.93032837 C-40.96008484 106.27032837 -40.63008484 105.61032837 -40.29008484 104.93032837 C-39.29008484 102.93032837 -39.29008484 102.93032837 -36.29008484 101.93032837 C-36.00133484 101.33220337 -35.71258484 100.73407837 -35.41508484 100.11782837 C-33.94095968 97.2514739 -31.79089658 95.91815308 -29.29008484 93.93032837 C-28.79508484 92.44532837 -28.79508484 92.44532837 -28.29008484 90.93032837 C-28.95008484 90.93032837 -29.61008484 90.93032837 -30.29008484 90.93032837 C-31.84086609 89.35610962 -31.84086609 89.35610962 -33.60258484 87.24282837 C-36.37293265 83.98494523 -39.22369184 80.91602682 -42.29008484 77.93032837 C-47.95675151 72.2636617 -53.62341817 66.59699504 -59.29008484 60.93032837 C-59.18108773 56.04482476 -56.3887833 53.45379748 -53.09941101 50.20620728 C-52.2895298 49.38340271 -52.2895298 49.38340271 -51.46328735 48.54397583 C-49.67994294 46.73797062 -47.88228913 44.94705513 -46.08305359 43.15689087 C-44.83801676 41.90661996 -43.59350172 40.65582923 -42.3494873 39.40454102 C-39.74247166 36.78712199 -37.12810941 34.17732198 -34.5085907 31.57241821 C-31.14713645 28.22818443 -27.80650439 24.86398267 -24.47127819 21.4936161 C-21.90735906 18.90777855 -19.33189792 16.33368935 -16.75284767 13.7629509 C-15.5158247 12.52674985 -14.28265985 11.28667588 -13.05341148 10.04274368 C-11.33696055 8.30894276 -9.6054317 6.59178078 -7.86894226 4.87808228 C-7.36125305 4.35870087 -6.85356384 3.83931946 -6.33049011 3.30419922 C-2.84692459 -0.08661246 -2.84692459 -0.08661246 0 0 Z " fill="#4080ED" transform="translate(467.2900848388672,235.06967163085938)"/>
<path d="M0 0 C2.84280798 1.59907949 4.78894758 3.74386662 7 6.125 C7.598125 6.681875 8.19625 7.23875 8.8125 7.8125 C10 9.125 10 9.125 10 11.125 C10.556875 11.351875 11.11375 11.57875 11.6875 11.8125 C15.68438886 14.08100449 18.53966649 16.74399946 20 21.125 C20.66 21.455 21.32 21.785 22 22.125 C22.66 22.455 23.32 22.785 24 23.125 C24.495 24.61 24.495 24.61 25 26.125 C25.66 26.455 26.32 26.785 27 27.125 C27.66 27.455 28.32 27.785 29 28.125 C29.495 29.61 29.495 29.61 30 31.125 C30.66 31.125 31.32 31.125 32 31.125 C31.875 32.8125 31.875 32.8125 31 35.125 C29.57844108 36.34820186 28.14906203 37.56444588 26.66796875 38.71484375 C24.92689577 40.18680474 23.56568698 41.73565183 22.125 43.5 C19.32778878 46.8772104 16.21593532 49.66114254 12.8828125 52.5 C9.4821495 55.43501205 6.42364206 58.64969428 3.4375 62 C2.633125 62.70125 1.82875 63.4025 1 64.125 C-2.49978624 63.82378889 -4.3989187 62.18737108 -6.9375 59.875 C-7.63359375 59.24335938 -8.3296875 58.61171875 -9.046875 57.9609375 C-11.41839465 55.73170903 -13.72938526 53.45698271 -16 51.125 C-16.825 50.3 -17.65 49.475 -18.5 48.625 C-23.33333333 43.79166667 -28.16666667 38.95833333 -33 34.125 C-32.30050181 26.9365399 -24.31728613 21.40483804 -19.1796875 17.046875 C-13.95566267 12.44074558 -9.13674262 7.35844192 -4.32421875 2.328125 C-2 0.125 -2 0.125 0 0 Z " fill="#FBFDFE" transform="translate(407,294.875)"/>
<path d="M0 0 C0.66 0 1.32 0 2 0 C5 0 8 0 11 0 C11.05087933 6.28048223 11.08580874 12.56091091 11.10986328 18.84155273 C11.11989563 20.97633857 11.13352464 23.11111074 11.15087891 25.24584961 C11.1752489 28.32148619 11.186511 31.39694043 11.1953125 34.47265625 C11.20563507 35.42084732 11.21595764 36.36903839 11.22659302 37.34596252 C11.22748035 42.63491053 10.73922983 46.99595293 9 52 C8.34 52 7.68 52 7 52 C5.79371992 54.33214148 4.8345262 56.49642139 4 59 C-2.68196094 61.95872862 -11.27032329 62.42051724 -18.2890625 60.3125 C-22.49679807 58.08814639 -25.3512882 54.85267171 -28 51 C-28 49.68 -28 48.36 -28 47 C-24.62902617 45.50178941 -22.79557881 45 -19 45 C-18.896875 45.639375 -18.79375 46.27875 -18.6875 46.9375 C-18.460625 47.618125 -18.23375 48.29875 -18 49 C-17.01 49.33 -16.02 49.66 -15 50 C-15 50.66 -15 51.32 -15 52 C-6.65565734 51.72511288 -6.65565734 51.72511288 0 47 C1.4783226 44.04335481 1.06032783 41.25770263 1 38 C0.38125 38.495 -0.2375 38.99 -0.875 39.5 C-6.0125094 41.96600451 -11.4588314 41.77339914 -16.875 40.125 C-17.57625 39.75375 -18.2775 39.3825 -19 39 C-19.66 38.7525 -20.32 38.505 -21 38.25 C-25.43640216 35.47724865 -28.73664235 31.05343061 -30 26 C-30.6577998 17.92445778 -30.28857604 10.50662738 -25.125 4 C-23.6328125 2.25 -23.6328125 2.25 -22 1 C-20.68 1 -19.36 1 -18 1 C-17.67 0.01 -17.34 -0.98 -17 -2 C-11.01225213 -4.53327795 -5.40823268 -3.01854847 0 0 Z " fill="#7E7F7E" transform="translate(226,558)"/>
<path d="M0 0 C0.33 -0.66 0.66 -1.32 1 -2 C7.15234375 -2.09765625 7.15234375 -2.09765625 9 -2 C10.52367831 -0.47632169 10.15667715 0.89992766 10.19287109 3.02563477 C10.20893402 3.88065079 10.22499695 4.73566681 10.24154663 5.61659241 C10.28602068 9.55599272 10.3271154 13.49522126 10.35009766 17.43481445 C10.36660035 19.50752027 10.39381448 21.58017052 10.43212891 23.65258789 C10.48717596 26.64499369 10.50882016 29.63606076 10.5234375 32.62890625 C10.54610687 33.5469252 10.56877625 34.46494415 10.59213257 35.41078186 C10.57127779 41.82871124 9.11169514 46.03382053 5 51 C3.08777334 52.88213911 1.16730601 54.38604871 -1 56 C-1.60328125 56.52851562 -2.2065625 57.05703125 -2.828125 57.6015625 C-7.11271125 60.36034285 -12.12433608 59.76469008 -17 59 C-20.4228261 57.43773521 -23.15175794 55.4396335 -26 53 C-27.299375 51.948125 -27.299375 51.948125 -28.625 50.875 C-30 49 -30 49 -29.75 46.75 C-29.5025 46.1725 -29.255 45.595 -29 45 C-25.6875 44.3125 -25.6875 44.3125 -22 44 C-20.0625 45.3125 -20.0625 45.3125 -19 47 C-19 47.66 -19 48.32 -19 49 C-14.66337243 50.19970196 -10.46829327 50.75003494 -6 50 C-3.06026719 47.64581624 -3.06026719 47.64581624 -1 45 C-0.34 45 0.32 45 1 45 C1 41.7 1 38.4 1 35 C0.01 36.32 -0.98 37.64 -2 39 C-5.47386432 40.15795477 -8.27769304 40.16829849 -11.9375 40.1875 C-13.16339844 40.20167969 -14.38929688 40.21585938 -15.65234375 40.23046875 C-19.82293109 39.94334547 -21.8089271 39.29080388 -24.6328125 36.23046875 C-25.37144531 35.21919922 -25.37144531 35.21919922 -26.125 34.1875 C-26.62257813 33.52105469 -27.12015625 32.85460937 -27.6328125 32.16796875 C-32.0216356 25.20854927 -31.90929924 17.59545815 -30.3125 9.6875 C-28.58503238 4.8341386 -26.6790866 1.33200366 -21.91796875 -1.03515625 C-13.82383686 -3.99978718 -7.80794182 -3.28755445 0 0 Z " fill="#808080" transform="translate(693,560)"/>
<path d="M0 0 C0 0.66 0 1.32 0 2 C0.99 2 1.98 2 3 2 C4.6875 3.5 4.6875 3.5 6 5 C6 3.68 6 2.36 6 1 C8.64 1 11.28 1 14 1 C14.1273144 7.40440521 14.21456565 13.80848125 14.2746582 20.21386719 C14.29972256 22.39042354 14.33378331 24.56689639 14.37719727 26.74316406 C14.43820412 29.88106954 14.46629122 33.01785737 14.48828125 36.15625 C14.51408768 37.12115356 14.5398941 38.08605713 14.56648254 39.0802002 C14.56954429 46.54172224 12.50493388 51.10218127 7.54878235 56.6138916 C2.17776323 61.42077406 -4.66626523 61.3265838 -11.4609375 61.30078125 C-14 61 -14 61 -16 59 C-16.598125 58.9175 -17.19625 58.835 -17.8125 58.75 C-21.39445126 57.52190243 -22.91118107 55.04370759 -25 52 C-24.8125 49.625 -24.8125 49.625 -24 48 C-21.03 47.505 -21.03 47.505 -18 47 C-17.38125 47.804375 -16.7625 48.60875 -16.125 49.4375 C-14.25835959 52.03874519 -14.25835959 52.03874519 -12 53 C-9.7927077 53.07092842 -7.58332548 53.08415025 -5.375 53.0625 C-3.59222656 53.04896484 -3.59222656 53.04896484 -1.7734375 53.03515625 C-0.85820312 53.02355469 0.05703125 53.01195312 1 53 C3.51445769 48.0131676 5.22207351 43.57513987 6 38 C3.04853202 39.3084768 3.04853202 39.3084768 0.8046875 41.55859375 C-2.00459668 43.80237267 -4.54147402 43.3228237 -8.0625 43.25 C-9.31160156 43.23453125 -10.56070312 43.2190625 -11.84765625 43.203125 C-15 43 -15 43 -17 42 C-17 41.34 -17 40.68 -17 40 C-17.5775 39.773125 -18.155 39.54625 -18.75 39.3125 C-22.56083774 37.08951132 -24.61929664 34.14211008 -26 30 C-26.14877911 27.4020878 -26.23103235 24.84856851 -26.25 22.25 C-26.270625 21.5590625 -26.29125 20.868125 -26.3125 20.15625 C-26.36056933 13.76302911 -24.820328 9.21391244 -20.6875 4.1875 C-14.40429762 -0.9267345 -7.73568294 -0.22531115 0 0 Z " fill="#818181" transform="translate(425,557)"/>
<path d="M0 0 C2.5625 2.0625 2.5625 2.0625 3.4375 4.3125 C3.47875 4.89 3.52 5.4675 3.5625 6.0625 C1.9375 7.625 1.9375 7.625 -0.4375 9.0625 C-3.51518767 8.86605185 -5.86994215 8.32490853 -8.66796875 7.03125 C-14.92161508 4.84379684 -24.37968044 4.82253599 -30.625 7.3125 C-34.95224458 10.00500774 -37.24451604 12.51989036 -39.4375 17.0625 C-40.0975 17.3925 -40.7575 17.7225 -41.4375 18.0625 C-43.78024893 24.67293171 -43.28373045 33.80079301 -40.4375 40.0625 C-34.69441965 47.73461058 -34.69441965 47.73461058 -26.4375 52.0625 C-15.85829522 53.09363768 -9.30352689 51.48078117 -0.91796875 45.1484375 C1.35936606 42.22560206 1.35936606 42.22560206 2.5625 34.0625 C-4.3675 34.0625 -11.2975 34.0625 -18.4375 34.0625 C-18.4375 31.4225 -18.4375 28.7825 -18.4375 26.0625 C-8.2075 26.0625 2.0225 26.0625 12.5625 26.0625 C12.5625 40.54354669 12.3478866 44.79995138 3.0703125 54.7421875 C-0.17382103 57.74376899 -2.00502388 59.0625 -6.4375 59.0625 C-6.4375 59.7225 -6.4375 60.3825 -6.4375 61.0625 C-15.93116713 64.22705571 -27.04368663 62.6562079 -35.921875 58.546875 C-41.59121072 55.20161479 -47.39952275 50.73534257 -49.25 44.1875 C-49.3428125 43.135625 -49.3428125 43.135625 -49.4375 42.0625 C-50.0975 42.0625 -50.7575 42.0625 -51.4375 42.0625 C-54.47867731 30.46801151 -54.51940841 20.62158964 -48.75 9.9375 C-36.34912143 -5.4798085 -17.50385655 -9.86581005 0 0 Z " fill="#7C7C7C" transform="translate(84.4375,536.9375)"/>
<path d="M0 0 C2.97 0 5.94 0 9 0 C9.33 0.99 9.66 1.98 10 3 C10.99 3.66 11.98 4.32 13 5 C13.68753301 6.65816784 14.35561283 8.32459336 15 10 C15.66 10.33 16.32 10.66 17 11 C18.0703125 13.1796875 18.0703125 13.1796875 19.125 15.875 C19.47820312 16.75929688 19.83140625 17.64359375 20.1953125 18.5546875 C21 21 21 21 21 24 C21.99 24.33 22.98 24.66 24 25 C25.1875 28.5625 25.1875 28.5625 26 32 C26.66 32 27.32 32 28 32 C28.33 32.99 28.66 33.98 29 35 C29.61875 34.01 30.2375 33.02 30.875 32 C31.57625 31.01 32.2775 30.02 33 29 C33.66 29 34.32 29 35 29 C35.0928125 27.7625 35.0928125 27.7625 35.1875 26.5 C36.06475581 22.72105191 37.41807712 20.46997963 39.53515625 17.28515625 C41.76184522 13.81152145 43.64317477 10.16156125 45.5703125 6.515625 C46.04210937 5.68546875 46.51390625 4.8553125 47 4 C47.38929688 3.23171875 47.77859375 2.4634375 48.1796875 1.671875 C50 0 50 0 58 0 C58 19.8 58 39.6 58 60 C55.36 60 52.72 60 50 60 C50 45.81 50 31.62 50 17 C47.019705 19.980295 45.79894278 22.25220255 44 26 C43.505 26.804375 43.01 27.60875 42.5 28.4375 C40.86658503 31.09989106 40.86658503 31.09989106 39.5 34.5625 C38.20936036 37.52021584 36.98608089 39.51739888 35 42 C34.54625 42.9075 34.0925 43.815 33.625 44.75 C32 47 32 47 29.5 47.625 C27 47 27 47 25.5 45.0625 C25.005 44.051875 24.51 43.04125 24 42 C23.21608663 40.55825724 22.42366292 39.12112474 21.625 37.6875 C21.19960938 36.91277344 20.77421875 36.13804687 20.3359375 35.33984375 C19.04871213 33.08531744 17.6707116 30.92212843 16.25 28.75 C14.4059705 25.85967163 13.32587528 23.47600303 13 20 C12.34 20 11.68 20 11 20 C10.67 19.34 10.34 18.68 10 18 C9.67 31.86 9.34 45.72 9 60 C6.03 60 3.06 60 0 60 C0 40.2 0 20.4 0 0 Z " fill="#848484" transform="translate(467,539)"/>
<path d="M0 0 C4.42887965 3.56235972 5.97711825 6.42064499 7 12 C7.62161591 18.1606577 6.97296013 23.50377119 4 29 C1.875 31.3125 1.875 31.3125 0 33 C-0.33 33.99 -0.66 34.98 -1 36 C-7.51687955 39.60729324 -15.55978613 40.13586866 -22.6875 38.3125 C-33.62936514 32.10225222 -33.62936514 32.10225222 -35.5546875 26.33984375 C-36.17384601 23.08654597 -36.21035784 19.93512042 -36.25 16.625 C-36.27578125 15.33851563 -36.3015625 14.05203125 -36.328125 12.7265625 C-35.86663172 7.48531739 -34.04196748 4.27351581 -30.75 0.25 C-22.49057661 -6.50771004 -8.51879911 -6.17713869 0 0 Z " fill="#7F7F7F" transform="translate(137,561)"/>
<path d="M0 0 C5.01035347 3.0167602 8.87668226 6.64991183 10.9921875 12.23046875 C12.65252497 19.03785239 12.23615239 25.50197264 8.7109375 31.58984375 C6.11624152 35.28100803 3.80616214 37.87711262 -0.5 39.3125 C-0.83 39.9725 -1.16 40.6325 -1.5 41.3125 C-7.0906406 43.17604687 -14.17674298 43.60810545 -19.734375 41.44140625 C-25.42317508 37.60272478 -29.34208251 31.7579828 -31.5 25.3125 C-32.38376215 18.7522656 -32.48044262 12.93578251 -28.8125 7.25 C-21.76730644 -1.80573229 -10.83633381 -5.13845275 0 0 Z " fill="#7B7B7B" transform="translate(179.5,557.6875)"/>
<path d="M0 0 C4.17890485 3.13417864 7.57667206 6.95515946 9.5 11.875 C9.72705078 14.99121094 9.72705078 14.99121094 9.6953125 18.609375 C9.68886719 19.90488281 9.68242187 21.20039062 9.67578125 22.53515625 C9.65907193 23.89844019 9.64214206 25.26172144 9.625 26.625 C9.6149634 28.00389985 9.60583873 29.38280665 9.59765625 30.76171875 C9.57408093 34.13298882 9.5411727 37.50390636 9.5 40.875 C6.53 40.875 3.56 40.875 0.5 40.875 C0.17 40.215 -0.16 39.555 -0.5 38.875 C-1.16 39.535 -1.82 40.195 -2.5 40.875 C-5.8002619 42.031565 -9.02562201 42.04078514 -12.5 42.0625 C-13.53125 42.07667969 -14.5625 42.09085938 -15.625 42.10546875 C-18.49485407 41.87541251 -20.11459554 41.44870433 -22.5 39.875 C-22.83 39.215 -23.16 38.555 -23.5 37.875 C-24.49 37.545 -25.48 37.215 -26.5 36.875 C-28.97375634 31.92748732 -28.98027055 27.11883423 -27.5 21.875 C-24.18603512 17.2939309 -20.99663558 15.86619658 -15.5 14.875 C-9.41951835 14.41480252 -4.25670473 14.87266792 1.5 16.875 C1.31870185 13.43706661 1.31870185 13.43706661 0.5 9.875 C-1.35146564 8.40695637 -1.35146564 8.40695637 -3.5 7.875 C-4.16 7.545 -4.82 7.215 -5.5 6.875 C-11.73705161 6.36376626 -13.64937336 6.81096146 -18.5 10.875 C-21.1875 10.9375 -21.1875 10.9375 -23.5 9.875 C-24.8125 7.3125 -24.8125 7.3125 -25.5 4.875 C-18.8859877 -2.47390256 -9.1286155 -2.93419784 0 0 Z " fill="#828282" transform="translate(383.5,558.125)"/>
<path d="M0 0 C0.86625 0.5775 1.7325 1.155 2.625 1.75 C3.5325 2.3275 4.44 2.905 5.375 3.5 C9.90981644 8.03481644 9.7541755 13.43844112 9.8203125 19.55859375 C9.80710189 22.10163619 9.78337421 24.64464225 9.75 27.1875 C9.74097656 28.49138672 9.73195313 29.79527344 9.72265625 31.13867188 C9.69918397 34.34263832 9.66634727 37.54622264 9.625 40.75 C6.985 40.75 4.345 40.75 1.625 40.75 C1.295 39.76 0.965 38.77 0.625 37.75 C-0.05820312 38.39710938 -0.74140625 39.04421875 -1.4453125 39.7109375 C-6.60090014 43.2992265 -12.34253838 42.67913777 -18.375 41.75 C-22.80183954 39.51495072 -25.51622174 36.32413637 -27.375 31.75 C-27.67578125 29.4609375 -27.67578125 29.4609375 -27.6875 27.125 C-27.70425781 26.34898437 -27.72101562 25.57296875 -27.73828125 24.7734375 C-27.55845703 23.77183594 -27.55845703 23.77183594 -27.375 22.75 C-26.385 22.09 -25.395 21.43 -24.375 20.75 C-24.106875 20.09 -23.83875 19.43 -23.5625 18.75 C-21.78081731 15.74927126 -19.68694185 15.63034051 -16.375 14.75 C-13.12109375 14.51953125 -13.12109375 14.51953125 -9.8125 14.5625 C-8.17087891 14.57216797 -8.17087891 14.57216797 -6.49609375 14.58203125 C-3.68146735 14.73350676 -1.1151677 15.11215836 1.625 15.75 C1.625 14.1 1.625 12.45 1.625 10.75 C0.635 10.42 -0.355 10.09 -1.375 9.75 C-2.035 8.76 -2.695 7.77 -3.375 6.75 C-6.0306728 6.16651248 -6.0306728 6.16651248 -9 6.0625 C-10.00289062 5.99675781 -11.00578125 5.93101562 -12.0390625 5.86328125 C-12.80992187 5.82589844 -13.58078125 5.78851562 -14.375 5.75 C-14.643125 6.389375 -14.91125 7.02875 -15.1875 7.6875 C-16.375 9.75 -16.375 9.75 -19.375 10.75 C-22.0625 9.8125 -22.0625 9.8125 -24.375 8.75 C-24.375 4.75 -24.375 4.75 -22.75 2.625 C-16.40734148 -2.38236199 -7.42772789 -2.75101033 0 0 Z " fill="#848484" transform="translate(646.375,558.25)"/>
<path d="M0 0 C3.91689852 2.7704892 7.02064235 5.18692704 8.5625 9.8125 C8.64647157 12.16930213 8.66978187 14.52844081 8.66015625 16.88671875 C8.6587413 17.5705513 8.65732635 18.25438385 8.65586853 18.9589386 C8.65027876 21.13933722 8.63772822 23.31963251 8.625 25.5 C8.61998367 26.97981622 8.615421 28.45963406 8.61132812 29.93945312 C8.60031271 33.56383557 8.58305512 37.1881577 8.5625 40.8125 C6.2525 40.8125 3.9425 40.8125 1.5625 40.8125 C1.5625 39.4925 1.5625 38.1725 1.5625 36.8125 C-1.71523504 37.56400023 -1.71523504 37.56400023 -3.4375 40.8125 C-9.2383561 42.7461187 -15.3356746 42.80609019 -20.875 40.1875 C-25.07377011 36.29595697 -27.63846529 33.12636904 -28 27.3125 C-27.84037479 24.04843966 -27.28815308 21.99002301 -25.3125 19.375 C-20.40899719 15.00448663 -15.73529043 14.54870335 -9.3125 14.625 C-7.51425781 14.63466797 -7.51425781 14.63466797 -5.6796875 14.64453125 C-3.06696722 14.77988905 -0.91795882 15.04121305 1.5625 15.8125 C1.5625 14.1625 1.5625 12.5125 1.5625 10.8125 C0.5725 10.4825 -0.4175 10.1525 -1.4375 9.8125 C-2.0975 8.8225 -2.7575 7.8325 -3.4375 6.8125 C-7.12668456 6.16250082 -10.73485616 6.28433684 -14.4375 6.8125 C-16.857613 8.72871575 -16.857613 8.72871575 -18.4375 10.8125 C-21.15214802 10.73023794 -22.16915881 10.05209034 -24.1875 8.25 C-24.6 7.775625 -25.0125 7.30125 -25.4375 6.8125 C-23.82996073 3.367773 -22.60106799 1.36366379 -19.0625 -0.3125 C-12.70768054 -1.84642194 -6.22133707 -2.14918917 0 0 Z " fill="#7F7F7F" transform="translate(559.4375,558.1875)"/>
<path d="M0 0 C0.92039062 0.59167969 0.92039062 0.59167969 1.859375 1.1953125 C2.45234375 1.56914063 3.0453125 1.94296875 3.65625 2.328125 C6.83401848 4.61309186 7.82816143 6.08021246 8.859375 9.8828125 C8.859375 10.9759375 8.859375 12.0690625 8.859375 13.1953125 C5.90998947 16.14469803 2.47813488 16.38668004 -1.51171875 17.31640625 C-4.30060856 18.24879883 -5.14284431 19.14971259 -7.140625 21.1953125 C-9.55078125 22.109375 -9.55078125 22.109375 -12.203125 22.8203125 C-15.76124655 23.77436516 -15.76124655 23.77436516 -19.140625 25.1953125 C-17.8316678 28.31728728 -17.8316678 28.31728728 -15.140625 30.1953125 C-13.35202989 30.31739121 -11.55834119 30.37079698 -9.765625 30.3828125 C-8.80914062 30.39699219 -7.85265625 30.41117188 -6.8671875 30.42578125 C-4.11052483 30.19276822 -2.49115105 29.60451414 -0.140625 28.1953125 C-0.140625 27.5353125 -0.140625 26.8753125 -0.140625 26.1953125 C2.234375 26.5078125 2.234375 26.5078125 4.859375 27.1953125 C6.859375 30.1953125 6.859375 30.1953125 6.546875 32.2578125 C5.859375 34.1953125 5.859375 34.1953125 4.859375 36.1953125 C2.296875 36.8203125 2.296875 36.8203125 -0.140625 37.1953125 C-0.140625 37.8553125 -0.140625 38.5153125 -0.140625 39.1953125 C-4.74279264 41.57062483 -9.08173606 41.97052929 -14.140625 41.1953125 C-21.82132061 38.53617123 -26.85825531 34.86873616 -30.453125 27.5078125 C-32.04051553 19.8594763 -32.05769601 12.12915997 -28.140625 5.1953125 C-21.24973896 -3.66439812 -9.60068726 -5.49159312 0 0 Z " fill="#7E7E7E" transform="translate(289.140625,558.8046875)"/>
<path d="M0 0 C1.31613281 -0.01417969 2.63226562 -0.02835938 3.98828125 -0.04296875 C8.58484889 0.24340664 11.30582082 0.88197636 14.671875 4.0625 C15.54585937 5.114375 15.54585937 5.114375 16.4375 6.1875 C17.03046875 6.88875 17.6234375 7.59 18.234375 8.3125 C22.07508841 13.26825924 20.6875 13.98541796 20.6875 22.1875 C10.4575 22.1875 0.2275 22.1875 -10.3125 22.1875 C-9.568927 31.55589075 -9.568927 31.55589075 -6.3125 33.75 C-1.98824727 34.38062019 2.32926539 34.86592152 6.6875 35.1875 C6.6875 34.5275 6.6875 33.8675 6.6875 33.1875 C7.30625 32.919375 7.925 32.65125 8.5625 32.375 C10.9870233 31.23193152 10.9870233 31.23193152 12.6875 28.1875 C14.0075 28.5175 15.3275 28.8475 16.6875 29.1875 C16.6875 29.8475 16.6875 30.5075 16.6875 31.1875 C17.3475 31.1875 18.0075 31.1875 18.6875 31.1875 C17.92481839 35.28691367 16.6897271 37.62704788 13.375 40.0625 C7.86685417 43.19992373 1.83765884 42.93559871 -4.3125 42.1875 C-8.33910832 40.84722291 -11.17249788 39.06583528 -14.3125 36.1875 C-14.8075 34.7025 -14.8075 34.7025 -15.3125 33.1875 C-16.3025 32.5275 -17.2925 31.8675 -18.3125 31.1875 C-20.61964195 25.2452681 -20.42508378 16.20145623 -18.25 10.25 C-13.58445832 2.87543413 -8.55495979 0.00815535 0 0 Z " fill="#808080" transform="translate(728.3125,557.8125)"/>
<path d="M0 0 C6.85212954 -0.75822745 10.96218261 -0.11810518 16.40625 4.19921875 C20.2042019 8.49053204 20.23945478 12.94842493 20.1953125 18.48828125 C20.1924826 19.19147995 20.18965271 19.89467865 20.18673706 20.6191864 C20.17560151 22.85046892 20.15050997 25.08134017 20.125 27.3125 C20.1149616 28.83137438 20.10583726 30.3502551 20.09765625 31.86914062 C20.07568413 35.57955921 20.04120047 39.28973942 20 43 C17.36 43 14.72 43 12 43 C11.98541748 42.1121582 11.97083496 41.22431641 11.95581055 40.30957031 C11.89465466 37.00672038 11.82048622 33.70469085 11.73754883 30.40234375 C11.70435206 28.97472086 11.67630369 27.54696837 11.65356445 26.11914062 C11.61991987 24.06324185 11.56760438 22.00852488 11.51171875 19.953125 C11.48553467 18.71723633 11.45935059 17.48134766 11.43237305 16.20800781 C10.9754232 12.8176515 10.41963678 11.37615073 8 9 C4.28743006 8.18927313 0.73079576 8.30442791 -3 9 C-5.15602694 11.33749166 -5.15602694 11.33749166 -6 14 C-6.66 14 -7.32 14 -8 14 C-8 23.57 -8 33.14 -8 43 C-10.64 43 -13.28 43 -16 43 C-16 29.47 -16 15.94 -16 2 C-13.69 2 -11.38 2 -9 2 C-9 3.32 -9 4.64 -9 6 C-7.88625 5.34 -6.7725 4.68 -5.625 4 C-2.25 2 -2.25 2 0 2 C0 1.34 0 0.68 0 0 Z " fill="#838383" transform="translate(593,556)"/>
<path d="M0 0 C13.53 0 27.06 0 41 0 C41 2.64 41 5.28 41 8 C35.39 8 29.78 8 24 8 C24 25.16 24 42.32 24 60 C21.36 60 18.72 60 16 60 C16 42.84 16 25.68 16 8 C10.72 8 5.44 8 0 8 C0 5.36 0 2.72 0 0 Z " fill="#838383" transform="translate(317,539)"/>
<path d="M0 0 C3.3 0 6.6 0 10 0 C10 21.12 10 42.24 10 64 C6.7 64 3.4 64 0 64 C0 42.88 0 21.76 0 0 Z " fill="#808080" transform="translate(244,534)"/>
<path d="M0 0 C4.39740235 0.89204448 7.05627521 3.01486474 9.734375 6.5546875 C10.671875 8.9296875 10.671875 8.9296875 10.734375 11.5546875 C10.8375 12.8334375 10.940625 14.1121875 11.046875 15.4296875 C11.02065386 20.02712793 9.24914937 22.78252594 6.734375 26.5546875 C6.074375 26.5546875 5.414375 26.5546875 4.734375 26.5546875 C4.734375 27.2146875 4.734375 27.8746875 4.734375 28.5546875 C0.97750504 29.80697749 -2.38078976 30.32311645 -6.265625 29.5546875 C-10.12521637 27.18186479 -12.76547751 24.30490874 -15.265625 20.5546875 C-16.06518476 13.61733078 -15.29321865 8.49796861 -11.328125 2.7421875 C-7.40316669 -0.06135415 -4.74473145 -0.21800117 0 0 Z " fill="#FBFBFB" transform="translate(684.265625,563.4453125)"/>
<path d="M0 0 C3.50540339 1.64465844 5.31675635 3.51761723 7 7 C7.96528954 12.44473772 8.36816248 18.08813722 5.96484375 23.203125 C3.90349893 25.80029339 2.13860342 26.95379886 -1 28 C-5.40691838 28.42913812 -8.98690337 28.45485971 -13.0625 26.625 C-13.701875 26.08875 -14.34125 25.5525 -15 25 C-15 24.34 -15 23.68 -15 23 C-15.66 23 -16.32 23 -17 23 C-19.33274924 18.33450152 -18.52866637 12.06255514 -18 7 C-14.41901068 -0.60292136 -7.56501235 -1.18463106 0 0 Z " fill="#F9F9F9" transform="translate(424,564)"/>
<path d="M0 0 C3.67644439 0.70620966 6.22429944 1.87010928 9.38671875 3.8359375 C12.16982789 8.06214026 11.79019818 12.500004 11.07421875 17.3984375 C9.08453422 21.30919675 7.70888229 22.97532848 4.07421875 25.3984375 C-1.23894733 26.17978545 -5.54489138 26.3847874 -9.98828125 23.2109375 C-13.37427368 18.2957872 -14.84662906 14.43510647 -13.92578125 8.3984375 C-10.54235275 2.37170548 -7.03708488 -0.69295573 0 0 Z " fill="#F7F7F7" transform="translate(170.92578125,564.6015625)"/>
<path d="M0 0 C3.68001752 0.07706843 5.45134282 0.24969211 8.75 2 C12.58230049 6.69765866 13.22858324 11.42308438 12.6875 17.375 C10.99763742 21.09269767 9.12948033 23.21923337 5.6875 25.375 C1.26877419 26.2360508 -3.22768719 26.35188372 -7.36328125 24.4140625 C-10.12004577 22.13759347 -11.14610846 20.25936449 -11.80859375 16.73828125 C-12.08196003 10.6662362 -11.30336583 6.95275787 -7.3125 2.375 C-4.73850489 -0.19899511 -3.57680716 0.04840064 0 0 Z " fill="#F9F9F9" transform="translate(121.3125,564.625)"/>
<path d="M0 0 C1.03769531 -0.03996094 2.07539063 -0.07992187 3.14453125 -0.12109375 C7.31232156 0.64398201 8.70188227 2.04063947 11.1875 5.4375 C11.8515625 9.03125 11.8515625 9.03125 11.8125 12.9375 C11.82539063 14.2265625 11.83828125 15.515625 11.8515625 16.84375 C11.0270584 21.30577219 9.8174495 22.76886126 6.1875 25.4375 C2.055422 26.53308461 -1.65703256 26.41327778 -5.8125 25.4375 C-9.94309269 22.39872756 -11.55042587 18.90511515 -12.4375 13.9375 C-11.05376848 6.18860351 -8.39195518 0.17591028 0 0 Z " fill="#F9F9F9" transform="translate(216.8125,564.5625)"/>
<path d="M0 0 C1 2 1 2 0.0625 5.125 C-0.4634375 6.548125 -0.4634375 6.548125 -1 8 C-1.60328125 8.03738281 -2.2065625 8.07476563 -2.828125 8.11328125 C-9.06649389 8.49037194 -9.06649389 8.49037194 -14 12 C-15.10761112 15.32990022 -15.19665298 18.5881726 -15.31640625 22.078125 C-15.35830078 23.23828125 -15.40019531 24.3984375 -15.44335938 25.59375 C-15.50233398 27.40359375 -15.50233398 27.40359375 -15.5625 29.25 C-15.60568359 30.47203125 -15.64886719 31.6940625 -15.69335938 32.953125 C-15.79937355 35.9686392 -15.90143936 38.98423448 -16 42 C-18.64 42 -21.28 42 -24 42 C-24 28.47 -24 14.94 -24 1 C-21.36 1 -18.72 1 -16 1 C-15.67 1.99 -15.34 2.98 -15 4 C-14.21625 3.525625 -13.4325 3.05125 -12.625 2.5625 C-7.97745887 -0.20389353 -5.38147805 -0.08679803 0 0 Z " fill="#838383" transform="translate(780,557)"/>
<path d="M0 0 C-0.23869167 4.05775837 -0.65714713 6.507149 -3 9.875 C-6.93016917 12.65886983 -10.21583043 13.32067803 -15 13 C-18.05147152 11.66498121 -19.51186717 10.97626566 -21 8 C-21.25860135 3.94857881 -21.30441554 2.45662331 -19 -1 C-13.02321274 -2.99226242 -5.60868038 -2.89480278 0 0 Z " fill="#F3F3F3" transform="translate(385,581)"/>
<path d="M0 0 C1.28583984 -0.02126953 1.28583984 -0.02126953 2.59765625 -0.04296875 C4.9375 0.1875 4.9375 0.1875 7.9375 2.1875 C8.58652775 5.61807526 8.10319379 6.93304169 6.1875 9.875 C2.82906823 13.32672154 0.63458307 14.29117003 -4.125 14.5 C-8.0625 14.1875 -8.0625 14.1875 -10.0625 13.125 C-11.62896819 10.08996787 -11.3614878 7.53616332 -11.0625 4.1875 C-9.0625 1.1875 -9.0625 1.1875 -7.25390625 0.51171875 C-4.81210855 0.15045456 -2.46880462 0.01861844 0 0 Z " fill="#F9F9F9" transform="translate(552.0625,578.8125)"/>
<path d="M0 0 C-0.18962964 4.07703716 -0.78449875 5.75217356 -3.5 8.875 C-6.83730746 11.38201116 -9.77428004 11.49269691 -13.8515625 11.37109375 C-16.2035341 10.96484411 -17.92936855 10.16648695 -20 9 C-20.1953125 2.9453125 -20.1953125 2.9453125 -20 1 C-15.37558329 -3.62441671 -5.19672264 -3.46448176 0 0 Z " fill="#FAFAFA" transform="translate(648,581)"/>
<path d="M0 0 C3.625 1.625 3.625 1.625 6 4 C6.33 5.98 6.66 7.96 7 10 C-0.59 10 -8.18 10 -16 10 C-15 4 -15 4 -13.625 1.625 C-9.31349564 -1.04402651 -4.92107564 -0.69691534 0 0 Z " fill="#F7F7F7" transform="translate(734,564)"/>
<path d="M0 0 C0.66 0 1.32 0 2 0 C1.41510766 3.44485889 0.27753476 5.1007383 -2.17114258 7.55932617 C-2.83886185 8.23650192 -3.50658112 8.91367767 -4.1945343 9.6113739 C-4.92053329 10.3313002 -5.64653229 11.0512265 -6.39453125 11.79296875 C-7.13829514 12.53960281 -7.88205902 13.28623688 -8.64836121 14.05549622 C-10.22257859 15.6317547 -11.80058935 17.20423247 -13.38208008 18.77319336 C-15.80317292 21.17823476 -18.20787115 23.59883321 -20.61132812 26.02148438 C-22.14226818 27.55044201 -23.67413858 29.07846876 -25.20703125 30.60546875 C-25.92695755 31.33146774 -26.64688385 32.05746674 -27.3886261 32.8054657 C-28.40438972 33.8070446 -28.40438972 33.8070446 -29.44067383 34.82885742 C-30.03278152 35.41857834 -30.62488922 36.00829926 -31.23493958 36.6158905 C-33.16167118 38.12677788 -34.606794 38.59366467 -37 39 C-35.68226796 35.99171418 -34.39598781 34.26003628 -31.8125 32.25 C-28.35651133 29.41192199 -25.51971329 26.28151605 -22.625 22.8828125 C-20.53509253 20.46133317 -18.29099935 18.23070989 -16 16 C-14.7625 14.7625 -14.7625 14.7625 -13.5 13.5 C-9 9 -4.5 4.5 0 0 Z " fill="#7CD4FC" transform="translate(317,262)"/>
<path d="M0 0 C2.4375 1.3125 2.4375 1.3125 4 3 C4 3.99 4 4.98 4 6 C3.26394531 6.18175781 2.52789062 6.36351562 1.76953125 6.55078125 C-3.28697774 7.85331659 -7.63018657 9.03980381 -12 12 C-12.66 12 -13.32 12 -14 12 C-13.82303398 7.48736659 -13.42983984 5.48101125 -10.375 2.0625 C-6.4542721 -0.33350038 -4.51374541 -0.66870302 0 0 Z " fill="#EDEDED" transform="translate(282,564)"/>
<path d="M0 0 C6.15234375 -0.09765625 6.15234375 -0.09765625 8 0 C9.54156555 1.54156555 9.13468494 2.97445764 9.14526367 5.12084961 C9.15483345 6.43242287 9.15483345 6.43242287 9.16459656 7.77049255 C9.16570938 8.72150345 9.1668222 9.67251434 9.16796875 10.65234375 C9.17129715 11.62281143 9.17462555 12.59327911 9.17805481 13.59315491 C9.1831283 15.6502332 9.18546301 17.70731975 9.18530273 19.7644043 C9.18748826 22.92054744 9.20563691 26.07634071 9.22460938 29.23242188 C9.22754333 31.2265613 9.22952811 33.22070239 9.23046875 35.21484375 C9.23765427 36.16383041 9.24483978 37.11281708 9.25224304 38.09056091 C9.24916641 38.96809525 9.24608978 39.84562958 9.24291992 40.74975586 C9.24434494 41.5239537 9.24576996 42.29815155 9.24723816 43.09580994 C9 45 9 45 7 47 C7 31.82 7 16.64 7 1 C5.35 1 3.7 1 2 1 C1.67 2.65 1.34 4.3 1 6 C-0.65 4.35 -2.3 2.7 -4 1 C-3.01 1.33 -2.02 1.66 -1 2 C-0.67 1.34 -0.34 0.68 0 0 Z " fill="#9B9B9B" transform="translate(694,558)"/>
<path d="M0 0 C0 4.09826298 -1.62497953 6.78479123 -4 10 C-5.93889265 11.90246252 -7.9566549 13.64089147 -10.046875 15.375 C-12.52415463 17.43609665 -14.75299379 19.69226389 -17 22 C-17.886875 22.86625 -18.77375 23.7325 -19.6875 24.625 C-22.11275676 26.97085755 -22.11275676 26.97085755 -24 30 C-25.32 30 -26.64 30 -28 30 C-26.68226796 26.99171418 -25.39598781 25.26003628 -22.8125 23.25 C-19.28493548 20.37050579 -16.45060716 17.16020738 -13.578125 13.63671875 C-12 12 -12 12 -9 11 C-8.71125 10.4225 -8.4225 9.845 -8.125 9.25 C-6.61498046 6.22996092 -4.43423067 4.31251914 -2 2 C-1.34 1.34 -0.68 0.68 0 0 Z " fill="#78D4FC" transform="translate(364,215)"/>
<path d="M0 0 C0.66 0.33 1.32 0.66 2 1 C-1.38597488 5.33828032 -4.99896924 8.86721151 -9.23046875 12.38671875 C-11.22269441 14.07279422 -11.22269441 14.07279422 -13 17 C-15.625 17.1875 -15.625 17.1875 -18 17 C-6.11425873 2.79508971 -6.11425873 2.79508971 0 0 Z " fill="#7FD4FC" transform="translate(398,183)"/>
<path d="M0 0 C0.33 0.66 0.66 1.32 1 2 C-3.16802064 6.98988386 -7.57733232 11.73206387 -12.125 16.375 C-12.62741211 16.89868164 -13.12982422 17.42236328 -13.64746094 17.96191406 C-16.55796784 20.89921064 -19.02630756 22.79188105 -23 24 C-21.625 22 -21.625 22 -20 20 C-19.34 20 -18.68 20 -18 20 C-17.731875 19.360625 -17.46375 18.72125 -17.1875 18.0625 C-16 16 -16 16 -13 15 C-12.67 14.34 -12.34 13.68 -12 13 C-11 11 -11 11 -8 10 C-7.71125 9.4225 -7.4225 8.845 -7.125 8.25 C-5.61750467 5.23500934 -3.42990324 3.30529282 -1 1 C-0.67 0.67 -0.34 0.34 0 0 Z " fill="#D1DEF6" transform="translate(484,403)"/>
<path d="M0 0 C0.66 0.33 1.32 0.66 2 1 C-0.82378304 5.53149945 -3.91706367 9.17284627 -7.75 12.875 C-8.25660156 13.37257813 -8.76320313 13.87015625 -9.28515625 14.3828125 C-10.51885307 15.59323202 -11.75877784 16.79729853 -13 18 C-13.33 17.34 -13.66 16.68 -14 16 C-11.37065029 11.58269248 -8.59319302 8.63286126 -4.6171875 5.390625 C-2.75363827 3.78815271 -1.34362498 2.05495586 0 0 Z " fill="#73D1FB" transform="translate(277,302)"/>
<path d="M0 0 C1.76923828 0.01353516 1.76923828 0.01353516 3.57421875 0.02734375 C4.47785156 0.03894531 5.38148438 0.05054688 6.3125 0.0625 C6.3125 0.3925 6.3125 0.7225 6.3125 1.0625 C5.25289062 1.08828125 4.19328125 1.1140625 3.1015625 1.140625 C1.71349999 1.1968978 0.32548075 1.25424533 -1.0625 1.3125 C-1.76117188 1.32667969 -2.45984375 1.34085938 -3.1796875 1.35546875 C-5.46467646 1.42285782 -5.46467646 1.42285782 -8.6875 2.0625 C-10.02905193 3.87053779 -10.02905193 3.87053779 -10.6875 6.0625 C-12.4140625 7.765625 -12.4140625 7.765625 -14.3125 9.3125 C-14.94414062 9.83328125 -15.57578125 10.3540625 -16.2265625 10.890625 C-16.70867187 11.27734375 -17.19078125 11.6640625 -17.6875 12.0625 C-17.6875 9.0625 -17.6875 9.0625 -15.375 6.5625 C-14.488125 5.7375 -13.60125 4.9125 -12.6875 4.0625 C-12.15125 3.485 -11.615 2.9075 -11.0625 2.3125 C-7.8725509 -0.58745372 -4.05060554 -0.04010501 0 0 Z " fill="#A4A5A4" transform="translate(168.6875,555.9375)"/>
<path d="M0 0 C0.66 0.33 1.32 0.66 2 1 C-0.97 4.96 -0.97 4.96 -4 9 C2.93 9 9.86 9 17 9 C17.33 8.01 17.66 7.02 18 6 C18 7.32 18 8.64 18 10 C10.41 10 2.82 10 -5 10 C-3.875 3.25 -3.875 3.25 0 0 Z " fill="#BFBFBF" transform="translate(723,564)"/>
<path d="M0 0 C0 4.0827939 -1.50889339 6.87242934 -4 10 C-6.53315182 11.93853794 -9.18037828 13.51490798 -12 15 C-12 14.01 -12 13.02 -12 12 C-11.38125 11.7525 -10.7625 11.505 -10.125 11.25 C-7.90268805 10.20218211 -7.90268805 10.20218211 -7.125 8.25 C-5.41301863 4.82603725 -2.75842221 2.63849081 0 0 Z " fill="#88D7FC" transform="translate(379,200)"/>
<path d="M0 0 C2.83877346 0.52732634 3.75832738 1.24163119 5.5234375 3.46875 C4.76417969 3.3965625 4.00492188 3.324375 3.22265625 3.25 C2.22878906 3.1571875 1.23492188 3.064375 0.2109375 2.96875 C-1.26826172 2.82953125 -1.26826172 2.82953125 -2.77734375 2.6875 C-5.52358389 2.42836143 -5.52358389 2.42836143 -8.4765625 2.46875 C-8.7240625 3.04625 -8.9715625 3.62375 -9.2265625 4.21875 C-10.64339567 6.7690497 -12.35283787 8.48660701 -14.4765625 10.46875 C-14.19612485 7.19697744 -13.43847108 5.41161287 -11.6015625 2.65625 C-7.57744282 -0.16063377 -4.80219259 -0.05262677 0 0 Z " fill="#DBDBDB" transform="translate(684.4765625,563.53125)"/>
<path d="M0 0 C6.6 0.66 13.2 1.32 20 2 C16.46763908 4.35490728 14.75279632 4.32743705 10.5625 4.375 C9.42941406 4.40335938 8.29632813 4.43171875 7.12890625 4.4609375 C4 4 4 4 0 0 Z " fill="#AFAFAF" transform="translate(158,596)"/>
<path d="M0 0 C0.66 0.33 1.32 0.66 2 1 C-1.625 6.875 -1.625 6.875 -5 8 C-5.268125 8.61875 -5.53625 9.2375 -5.8125 9.875 C-7.51576924 12.92295549 -9.8737675 13.64076848 -13 15 C-11.57621053 11.63602074 -9.87389574 9.80356448 -7.0625 7.5 C-4.26759113 5.20138336 -2.07773528 2.97005419 0 0 Z " fill="#82D6FC" transform="translate(333,246)"/>
<path d="M0 0 C0.66 0.33 1.32 0.66 2 1 C0.71937515 2.7074998 -0.61767557 4.37373596 -2 6 C-2.66 6 -3.32 6 -4 6 C-3.34 10.62 -2.68 15.24 -2 20 C-2.66 20 -3.32 20 -4 20 C-6.23505173 14.87252839 -6.57217586 10.34539793 -5 5 C-2.4375 1.9375 -2.4375 1.9375 0 0 Z " fill="#AAAAAA" transform="translate(361,575)"/>
<path d="M0 0 C2 2 2 2 2.125 4.625 C2.08375 5.40875 2.0425 6.1925 2 7 C1.05125 6.835 0.1025 6.67 -0.875 6.5 C-7.17061062 5.60428304 -13.81694209 5.35118456 -20 7 C-19 5 -19 5 -16 4 C-13.8350098 3.90514218 -11.66706177 3.87011923 -9.5 3.875 C-8.3553125 3.87242187 -7.210625 3.86984375 -6.03125 3.8671875 C-3 4 -3 4 0 5 C0 3.35 0 1.7 0 0 Z " fill="#BFBFBF" transform="translate(383,568)"/>
<path d="M0 0 C3.39135719 1.4310782 5.23764957 3.17065183 7.5625 6 C9.67356316 8.55772463 11.19970251 10.133135 14 12 C14 12.66 14 13.32 14 14 C10.04322598 12.32598022 7.15535787 9.86850715 4 7 C4 6.34 4 5.68 4 5 C3.34 5 2.68 5 2 5 C1.34 3.35 0.68 1.7 0 0 Z " fill="#70A4F9" transform="translate(488,256)"/>
<path d="M0 0 C0 4.24645065 -1.81750806 6.38524772 -4 10 C-5.65 10 -7.3 10 -9 10 C-8.06409496 8.8944811 -7.12620142 7.79064547 -6.1875 6.6875 C-5.66542969 6.07261719 -5.14335937 5.45773438 -4.60546875 4.82421875 C-3.12827531 3.14575321 -1.59960869 1.56117966 0 0 Z " fill="#88D8FC" transform="translate(364,215)"/>
<path d="M0 0 C0.66 0.33 1.32 0.66 2 1 C0.515 3.475 0.515 3.475 -1 6 C1.475 6.99 1.475 6.99 4 8 C3.67 8.66 3.34 9.32 3 10 C-0.26954202 9.43628586 -1.82575883 8.50037734 -4 6 C-2.84826645 3.53199953 -1.95216435 1.95216435 0 0 Z " fill="#9F9F9F" transform="translate(538,559)"/>
<path d="M0 0 C3.98021881 2.16069021 6.97250324 4.62650361 10 8 C10 8.66 10 9.32 10 10 C6.17377257 8.4411666 3.74852621 6.04566418 1 3 C0.67 2.01 0.34 1.02 0 0 Z " fill="#76A8F9" transform="translate(517,285)"/>
<path d="M0 0 C0.66 0.33 1.32 0.66 2 1 C1.57847656 1.55429687 1.15695312 2.10859375 0.72265625 2.6796875 C0.17480469 3.40414062 -0.37304688 4.12859375 -0.9375 4.875 C-1.48277344 5.59429688 -2.02804687 6.31359375 -2.58984375 7.0546875 C-4.03964624 8.94357079 -4.03964624 8.94357079 -5 11 C-5.66 11 -6.32 11 -7 11 C-5.72278474 6.00724943 -3.82669043 3.42388092 0 0 Z " fill="#9B9B9B" transform="translate(266,559)"/>
<path d="M0 0 C0.66 0.33 1.32 0.66 2 1 C0.38405168 3.04119788 -1.2856382 5.04072937 -3 7 C-3.66 7 -4.32 7 -5 7 C-5.33 8.32 -5.66 9.64 -6 11 C-6.33 10.01 -6.66 9.02 -7 8 C-5.56640625 5.95703125 -5.56640625 5.95703125 -3.5625 3.8125 C-2.90378906 3.09707031 -2.24507813 2.38164063 -1.56640625 1.64453125 C-1.04949219 1.10183594 -0.53257813 0.55914063 0 0 Z " fill="#969696" transform="translate(109,559)"/>
<path d="M0 0 C2.64 0 5.28 0 8 0 C8 0.33 8 0.66 8 1 C6.02 1 4.04 1 2 1 C1.67 2.65 1.34 4.3 1 6 C-0.65 4.35 -2.3 2.7 -4 1 C-3.01 1.33 -2.02 1.66 -1 2 C-0.67 1.34 -0.34 0.68 0 0 Z " fill="#BDBDBD" transform="translate(694,558)"/>
<path d="M0 0 C0.66 0.33 1.32 0.66 2 1 C0.38405168 3.04119788 -1.2856382 5.04072937 -3 7 C-3.66 7 -4.32 7 -5 7 C-5 7.99 -5 8.98 -5 10 C-5.66 10 -6.32 10 -7 10 C-5.6062718 5.56541027 -3.39417765 3.12621626 0 0 Z " fill="#9C9C9C" transform="translate(407,559)"/>
<path d="M0 0 C0.66 0.33 1.32 0.66 2 1 C-0.51407619 5.28324091 -2.12314139 7.64531705 -7 9 C-5.44499019 5.18315774 -2.96404505 2.80804268 0 0 Z " fill="#8AD8FC" transform="translate(277,302)"/>
<path d="M0 0 C0.66 0.33 1.32 0.66 2 1 C-0.31 3.64 -2.62 6.28 -5 9 C-5.33 8.01 -5.66 7.02 -6 6 C-4.02 4.02 -2.04 2.04 0 0 Z " fill="#E1E1E1" transform="translate(52,544)"/>
<path d="M0 0 C0.33 0.66 0.66 1.32 1 2 C-3.43076923 7.78461538 -3.43076923 7.78461538 -6.3125 8.875 C-6.869375 8.91625 -7.42625 8.9575 -8 9 C-6.625 7 -6.625 7 -5 5 C-4.34 5 -3.68 5 -3 5 C-2.690625 4.360625 -2.38125 3.72125 -2.0625 3.0625 C-1 1 -1 1 0 0 Z " fill="#D0DCF4" transform="translate(454,433)"/>
<path d="M0 0 C1.32 0.33 2.64 0.66 4 1 C3.38125 1.5775 2.7625 2.155 2.125 2.75 C0.18652947 4.80249821 -0.90014249 6.43366582 -2 9 C-2.25 3.375 -2.25 3.375 0 0 Z " fill="#DDDDDD" transform="translate(366,580)"/>
<path d="M0 0 C-0.639375 0.61875 -1.27875 1.2375 -1.9375 1.875 C-4.03883584 3.82597612 -4.03883584 3.82597612 -5 6 C-5.66 5.34 -6.32 4.68 -7 4 C-6.8125 1.9375 -6.8125 1.9375 -6 0 C-3 -1 -3 -1 0 0 Z " fill="#929292" transform="translate(407,605)"/>
<path d="M0 0 C0.78375 0.185625 1.5675 0.37125 2.375 0.5625 C4.97089775 1.25962266 4.97089775 1.25962266 7 0 C6.3125 1.9375 6.3125 1.9375 5 4 C2.375 4.75 2.375 4.75 0 5 C0 3.35 0 1.7 0 0 Z " fill="#86CAF8" transform="translate(403,357)"/>
<path d="M0 0 C2.0625 0.4375 2.0625 0.4375 4 1 C1.03 3.475 1.03 3.475 -2 6 C-1.125 1.125 -1.125 1.125 0 0 Z " fill="#E2E2E2" transform="translate(630,580)"/>
<path d="M0 0 C0.66 0.33 1.32 0.66 2 1 C-1.625 5.875 -1.625 5.875 -5 7 C-3.70700306 4.11562221 -2.34058637 2.12780579 0 0 Z " fill="#979797" transform="translate(361,575)"/>
<path d="M0 0 C3.53647504 1.67517239 4.7911563 2.49280817 6.3125 6.1875 C6.539375 7.115625 6.76625 8.04375 7 9 C5.5 7.625 5.5 7.625 4 6 C4 5.34 4 4.68 4 4 C2.68 3.67 1.36 3.34 0 3 C0 2.01 0 1.02 0 0 Z " fill="#9EC4F8" transform="translate(544,311)"/>
<path d="M0 0 C3.57104439 1.87949705 5.54744301 3.17053157 7 7 C6.01 7 5.02 7 4 7 C0 2.65714286 0 2.65714286 0 0 Z " fill="#72A5F9" transform="translate(481,249)"/>
</svg>
