<?xml version="1.0" encoding="UTF-8"?>
<svg version="1.1" xmlns="http://www.w3.org/2000/svg" width="360" height="360">
<path d="M0 0 C14.8543523 0.18193794 29.13716237 3.57048388 42.11328125 10.8828125 C45.43959211 12.31927603 46.63068393 12.28571307 50.0078125 11.1328125 C51.63135807 10.42574073 53.23493586 9.67175584 54.8203125 8.8828125 C59.54481316 6.67761816 64.29241249 4.9410815 69.2578125 3.3828125 C69.91885986 3.17237305 70.57990723 2.96193359 71.26098633 2.74511719 C93.62412683 -4.09794221 121.73128926 -1.31647585 142.41796875 9.37890625 C143.10761719 9.75144531 143.79726562 10.12398437 144.5078125 10.5078125 C148.40668735 12.3180044 149.05753558 12.2804112 153.0078125 11.1328125 C155.12798166 10.23208704 157.23085558 9.29015443 159.3203125 8.3203125 C170.71547492 3.22598656 183.36446322 -0.02686437 195.8828125 0.0078125 C197.30207031 0.00394531 197.30207031 0.00394531 198.75 0 C201.0078125 0.1328125 201.0078125 0.1328125 202.0078125 1.1328125 C202.10494425 2.76442633 202.13152829 4.40027342 202.13086033 6.03477573 C202.13285138 7.10268583 202.13484243 8.17059592 202.13689381 9.27086693 C202.13398097 10.45858427 202.13106813 11.6463016 202.12806702 12.87001038 C202.12934865 14.74564255 202.12934865 14.74564255 202.13065618 16.65916628 C202.13290349 20.14579995 202.12887667 23.63240319 202.12387812 27.11903298 C202.11957716 30.87297005 202.12101979 34.62690528 202.1217804 38.38084412 C202.12230586 44.89006523 202.11915675 51.39927635 202.11354256 57.90849495 C202.10543054 67.31984103 202.10281264 76.73118225 202.10155457 86.14253145 C202.09936357 101.41020925 202.09270222 116.67788173 202.08325195 131.94555664 C202.07407905 146.78051731 202.06699762 161.61547653 202.06274414 176.45043945 C202.06248142 177.36419738 202.06221869 178.2779553 202.06194801 179.21940286 C202.06064301 183.80325802 202.05937929 188.38711319 202.05813611 192.97096837 C202.04776203 231.02492014 202.03014244 269.07886597 202.0078125 307.1328125 C185.12442618 315.57450566 148.76003981 302.11389543 131.96484375 296.62036133 C122.21051158 293.28101486 113.04597565 289.07459324 104.0078125 284.1328125 C103.39711914 283.8013623 102.78642578 283.46991211 102.15722656 283.12841797 C93.81159688 278.56795242 85.83536985 273.532324 78.0078125 268.1328125 C77.24855469 267.62363281 76.48929687 267.11445313 75.70703125 266.58984375 C74.10149588 265.49267429 72.54655661 264.32184204 71.0078125 263.1328125 C71.0078125 262.4728125 71.0078125 261.8128125 71.0078125 261.1328125 C70.41871094 260.86082031 69.82960938 260.58882813 69.22265625 260.30859375 C62.69443489 256.84299476 57.52126152 250.74040407 52.3203125 245.5703125 C51.77383057 245.02850342 51.22734863 244.48669434 50.66430664 243.9284668 C41.0078125 234.23379889 41.0078125 234.23379889 41.0078125 231.1328125 C40.3478125 231.1328125 39.6878125 231.1328125 39.0078125 231.1328125 C25.10594484 215.05025972 14.04810091 194.04603703 7.0078125 174.1328125 C6.53214844 172.92238281 6.05648437 171.71195313 5.56640625 170.46484375 C3.6527692 165.37208051 2.30019367 160.14695102 0.9453125 154.8828125 C0.68145752 153.86155273 0.41760254 152.84029297 0.14575195 151.78808594 C-3.56075474 137.21311134 -5.14996824 123.00360499 -5.12158203 107.97607422 C-5.12333435 106.81539932 -5.12508667 105.65472443 -5.12689209 104.45887756 C-5.13125899 100.66006941 -5.12839286 96.86130855 -5.125 93.0625 C-5.12567406 90.41260725 -5.12664347 87.76271589 -5.12789917 85.11282349 C-5.12971018 79.58041883 -5.12734004 74.04802761 -5.12255859 68.515625 C-5.11709105 62.11532905 -5.11890087 55.71506484 -5.124385 49.31476963 C-5.12945897 43.14618372 -5.12893681 36.97761193 -5.12600327 30.80902481 C-5.12533439 28.18622966 -5.12616104 25.5634337 -5.12848282 22.9406395 C-5.13100616 19.29227249 -5.12717455 15.6439678 -5.12158203 11.99560547 C-5.12461838 10.3578138 -5.12461838 10.3578138 -5.12771606 8.68693542 C-5.12489624 7.70017319 -5.12207642 6.71341095 -5.11917114 5.69674683 C-5.11879412 4.8344087 -5.11841709 3.97207058 -5.11802864 3.083601 C-4.88098057 -0.59111658 -3.87751939 0.12899771 0 0 Z " fill="#242021" transform="translate(79.9921875,22.8671875)"/>
<path d="M0 0 C7.28747769 6.38113593 13.02346029 15.43536531 15 25 C15.41958984 23.85724609 15.41958984 23.85724609 15.84765625 22.69140625 C20.70092182 10.19151646 28.12267421 0.07869281 40.4375 -5.8125 C53.59096874 -11.33550345 64.68478835 -10.85848128 77.9375 -5.9375 C88.31318389 -1.43035579 96.64088119 6.90637516 100.9921875 17.390625 C105.31415051 29.82141385 104.88552917 40.73047887 100 53 C98.5690659 55.88579686 96.93682517 58.43085838 95 61 C94.58234375 61.59167969 94.1646875 62.18335938 93.734375 62.79296875 C87.60199493 70.77563591 77.94760947 76.51051837 68 78 C56.70543482 78.88584825 47.62594453 77.76306407 37.13305664 73.18554688 C34.83215744 72.74786834 34.83215744 72.74786834 32.80175781 74.63061523 C32.02670898 75.43184814 31.25166016 76.23308105 30.453125 77.05859375 C29.60878906 77.91904297 28.76445312 78.77949219 27.89453125 79.66601562 C27.02183594 80.58060547 26.14914063 81.49519531 25.25 82.4375 C24.36183594 83.34822266 23.47367187 84.25894531 22.55859375 85.19726562 C20.36083417 87.45410477 18.17553163 89.72175951 16 92 C12.36526316 89.00841611 8.8803419 85.96290441 5.6484375 82.53515625 C5.10703125 81.96345703 4.565625 81.39175781 4.0078125 80.80273438 C2.90193312 79.62409978 1.80580578 78.43625212 0.71875 77.24023438 C-1.07040409 75.30417615 -1.07040409 75.30417615 -4 73 C-6.60742272 72.82766215 -6.60742272 72.82766215 -9 74 C-9.85335937 74.32097656 -10.70671875 74.64195312 -11.5859375 74.97265625 C-12.50632813 75.33230469 -13.42671875 75.69195312 -14.375 76.0625 C-25.98482163 79.95143412 -37.85754113 78.91195521 -49 74 C-60.62499824 67.55978359 -67.96174722 58.17872157 -72.11328125 45.63671875 C-74.99563562 33.81525656 -73.2481877 21.60675492 -67.33984375 11.02734375 C-60.23332646 0.41864135 -49.97416995 -6.61834724 -37.5625 -9.58203125 C-23.59799156 -11.85977882 -11.37538866 -8.16164249 0 0 Z " fill="#FAFAFA" transform="translate(163,70)"/>
<path d="M0 0 C8.87117136 0.19713714 15.79599761 3.32027913 22.2421875 9.375 C28.33857119 16.31132989 30.38610174 23.36652127 30.27734375 32.4296875 C29.62961094 39.30842753 26.67971252 45.71931806 21.9609375 50.7734375 C14.76200553 56.65304329 6.64393276 59.77705342 -2.58203125 59.21875 C-10.97247976 58.18607941 -17.43701489 54.62402572 -22.88671875 48.125 C-28.15963558 40.56672697 -29.98358769 33.58890237 -29 24.375 C-28.01 22.89 -28.01 22.89 -27 21.375 C-25.79557292 22.90494792 -24.59114583 24.43489583 -23.38671875 25.96484375 C-20.90317759 28.49036025 -18.04659299 28.55538149 -14.6875 28.625 C-10.38346698 28.5411552 -7.54073912 28.00996865 -4 25.375 C-1.10763902 21.56234235 0.37602313 17.99732205 -0.125 13.1875 C-1.13093989 8.6109312 -1.13093989 8.6109312 -3 4.375 C-5.01735205 3.03089738 -5.01735205 3.03089738 -7 2.375 C-4.47583796 -0.14916204 -3.50215204 0.04974648 0 0 Z " fill="#231F20" transform="translate(222,74.625)"/>
<path d="M0 0 C1.15242188 0.01804687 2.30484375 0.03609375 3.4921875 0.0546875 C4.36101562 0.07789062 5.22984375 0.10109375 6.125 0.125 C6.62 1.115 6.62 1.115 7.125 2.125 C6.34125 2.681875 5.5575 3.23875 4.75 3.8125 C0.94847977 7.1614583 0.26557094 9.57871971 -0.1875 14.5625 C0.28376135 19.9348794 1.75126864 22.8821002 5.75 26.5 C10.07453061 28.58218141 13.40916971 28.82771798 18.125 28.125 C22.43597479 26.49821706 24.95891599 24.39234469 28.125 21.125 C28.51029141 32.08440019 28.66779177 40.09637462 21.4375 48.875 C16.44924846 54.21298135 10.46354292 57.8415776 3.015625 58.328125 C-9.2727591 58.48634454 -9.2727591 58.48634454 -14.875 55.125 C-15.52855469 54.73441406 -16.18210937 54.34382813 -16.85546875 53.94140625 C-23.28560949 49.68279522 -26.48767604 43.89964792 -29.875 37.125 C-30.68457431 26.38818662 -29.80451278 18.8009629 -23.625 9.875 C-16.90237855 3.15237855 -9.58684592 -0.19564992 0 0 Z " fill="#221E1F" transform="translate(134.875,74.875)"/>
<path d="M0 0 C1.23556641 0.01740234 1.23556641 0.01740234 2.49609375 0.03515625 C3.32238281 0.04417969 4.14867188 0.05320312 5 0.0625 C5.63808594 0.07410156 6.27617188 0.08570312 6.93359375 0.09765625 C7.26359375 0.75765625 7.59359375 1.41765625 7.93359375 2.09765625 C4.96359375 2.09765625 1.99359375 2.09765625 -1.06640625 2.09765625 C-1.39640625 41.03765625 -1.72640625 79.97765625 -2.06640625 120.09765625 C-2.39640625 120.09765625 -2.72640625 120.09765625 -3.06640625 120.09765625 C-3.08973571 104.59925769 -3.10738566 89.10086043 -3.11821842 73.60244846 C-3.12338128 66.4067533 -3.13042378 59.21106903 -3.1418457 52.01538086 C-3.15179285 45.74580931 -3.15825975 39.47624564 -3.16049474 33.20666641 C-3.1618018 29.88500004 -3.16540622 26.56336159 -3.17213631 23.24170113 C-3.17934253 19.53945678 -3.18039737 15.83725994 -3.17993164 12.13500977 C-3.18352692 11.02586716 -3.18712219 9.91672455 -3.19082642 8.77397156 C-3.18945175 7.77131256 -3.18807709 6.76865356 -3.18666077 5.73561096 C-3.18758256 4.85898583 -3.18850435 3.98236071 -3.18945408 3.07917118 C-3.01906419 0.33527797 -2.74733063 0.12983604 0 0 Z " fill="#595758" transform="translate(78.06640625,22.90234375)"/>
<path d="M0 0 C1.23556641 0.01740234 1.23556641 0.01740234 2.49609375 0.03515625 C3.32238281 0.04417969 4.14867188 0.05320312 5 0.0625 C5.63808594 0.07410156 6.27617188 0.08570312 6.93359375 0.09765625 C7.26359375 0.75765625 7.59359375 1.41765625 7.93359375 2.09765625 C4.96359375 2.09765625 1.99359375 2.09765625 -1.06640625 2.09765625 C-1.39640625 13.64765625 -1.72640625 25.19765625 -2.06640625 37.09765625 C-2.39640625 37.09765625 -2.72640625 37.09765625 -3.06640625 37.09765625 C-3.09105635 31.98901729 -3.10924232 26.88041266 -3.12133789 21.77172852 C-3.12637829 20.03246457 -3.13321055 18.29320489 -3.1418457 16.55395508 C-3.15392417 14.05939688 -3.15963733 11.56489452 -3.1640625 9.0703125 C-3.16922379 8.28801773 -3.17438507 7.50572296 -3.17970276 6.69972229 C-3.17989851 4.83198511 -3.12840319 2.96436421 -3.06640625 1.09765625 C-2.06640625 0.09765625 -2.06640625 0.09765625 0 0 Z " fill="#4B494A" transform="translate(78.06640625,22.90234375)"/>
<path d="M0 0 C-1.32 0.33 -2.64 0.66 -4 1 C-4 1.66 -4 2.32 -4 3 C-9.24385089 4.7479503 -13.47322267 5.19392201 -19 5 C-16.07382565 3.0492171 -13.97955419 2.28486538 -10.625 1.375 C-9.68914062 1.11460938 -8.75328125 0.85421875 -7.7890625 0.5859375 C-5.09876365 0.02074867 -2.73855429 -0.10954217 0 0 Z " fill="#656364" transform="translate(263,25)"/>
<path d="M0 0 C3.71888239 0.50712033 6.73454239 1.11608215 10 3 C10 3.33 10 3.66 10 4 C8.8553125 3.9071875 8.8553125 3.9071875 7.6875 3.8125 C4.95474688 3.74101915 4.95474688 3.74101915 3.1875 5.5 C2.5996875 6.2425 2.5996875 6.2425 2 7 C1.01 6.01 0.02 5.02 -1 4 C-0.34 3.67 0.32 3.34 1 3 C0.67 2.01 0.34 1.02 0 0 Z " fill="#302D2E" transform="translate(218,32)"/>
<path d="M0 0 C2.64 0 5.28 0 8 0 C7.814375 0.7425 7.62875 1.485 7.4375 2.25 C7.00796892 4.94990963 7.14877026 6.44631077 8 9 C6.62437146 7.71034824 5.29233607 6.37310707 4 5 C4 4.34 4 3.68 4 3 C2.68 2.34 1.36 1.68 0 1 C0 0.67 0 0.34 0 0 Z " fill="#181516" transform="translate(215,76)"/>
<path d="M0 0 C0.33 0.99 0.66 1.98 1 3 C0.01 3.66 -0.98 4.32 -2 5 C-8.64583333 2.70833333 -8.64583333 2.70833333 -10 0 C-6.30458414 -0.95024979 -3.69541586 -0.95024979 0 0 Z " fill="#282526" transform="translate(167,66)"/>
<path d="M0 0 C1.32 0 2.64 0 4 0 C4 0.66 4 1.32 4 2 C4.66 1.67 5.32 1.34 6 1 C9 0.8125 9 0.8125 12 1 C12.66 1.66 13.32 2.32 14 3 C12.989375 2.95875 11.97875 2.9175 10.9375 2.875 C6.81923948 3.00573843 3.88169467 3.73250786 0 5 C0 3.33333333 0 1.66666667 0 0 Z " fill="#1A1718" transform="translate(88,25)"/>
<path d="M0 0 C0 0.33 0 0.66 0 1 C-6.73742646 1.11044961 -13.29980211 0.70132913 -20 0 C-20 -0.33 -20 -0.66 -20 -1 C-12.88319978 -2.77920006 -6.83658271 -2.2788609 0 0 Z " fill="#515151" transform="translate(280,330)"/>
<path d="M0 0 C0.99 0.99 1.98 1.98 3 3 C2.67 3.66 2.34 4.32 2 5 C1.77532169 6.53668865 1.59203195 8.07968054 1.4375 9.625 C1.35371094 10.44226563 1.26992187 11.25953125 1.18359375 12.1015625 C1.12300781 12.72804688 1.06242188 13.35453125 1 14 C0.34 14 -0.32 14 -1 14 C-1.02705729 12.22925083 -1.04642195 10.45838289 -1.0625 8.6875 C-1.07410156 7.70136719 -1.08570313 6.71523437 -1.09765625 5.69921875 C-1 3 -1 3 0 0 Z " fill="#2D2B2C" transform="translate(194,96)"/>
<path d="M0 0 C0.66 0.53625 1.32 1.0725 2 1.625 C4.14733927 2.33014846 4.14733927 2.33014846 6 2.625 C6 3.285 6 3.945 6 4.625 C4.56206608 4.31450274 3.1246682 4.0015224 1.6875 3.6875 C0.88699219 3.51347656 0.08648437 3.33945312 -0.73828125 3.16015625 C-3 2.625 -3 2.625 -6 1.625 C-6 0.965 -6 0.305 -6 -0.375 C-3.28623312 -1.4411227 -2.47344316 -1.70049217 0 0 Z " fill="#333031" transform="translate(214,316.375)"/>
<path d="M0 0 C3.63 0 7.26 0 11 0 C10.67 0.66 10.34 1.32 10 2 C7.49609375 2.4140625 7.49609375 2.4140625 4.4375 2.625 C3.42558594 2.69976563 2.41367187 2.77453125 1.37109375 2.8515625 C0.58863281 2.90054687 -0.19382812 2.94953125 -1 3 C-0.67 2.01 -0.34 1.02 0 0 Z " fill="#575555" transform="translate(270,23)"/>
<path d="M0 0 C0.99 0 1.98 0 3 0 C3.66 1.65 4.32 3.3 5 5 C5.66 5 6.32 5 7 5 C7.66 6.32 8.32 7.64 9 9 C8.01 9 7.02 9 6 9 C4.39453125 7.03125 4.39453125 7.03125 2.8125 4.5 C2.28269531 3.6646875 1.75289063 2.829375 1.20703125 1.96875 C0.80871094 1.3190625 0.41039063 0.669375 0 0 Z " fill="#434041" transform="translate(111,242)"/>
<path d="M0 0 C0.433125 0.474375 0.86625 0.94875 1.3125 1.4375 C3.02309613 3.23686957 3.02309613 3.23686957 6 4 C6.33 4.99 6.66 5.98 7 7 C-0.57142857 5.14285714 -0.57142857 5.14285714 -3 2 C-2.01 2 -1.02 2 0 2 C0 1.34 0 0.68 0 0 Z " fill="#555354" transform="translate(195,308)"/>
<path d="M0 0 C2.125 0.9375 2.125 0.9375 4 2 C3.34 2 2.68 2 2 2 C1.67 2.99 1.34 3.98 1 5 C0.34 5 -0.32 5 -1 5 C-1 5.66 -1 6.32 -1 7 C-1.66 6.67 -2.32 6.34 -3 6 C-2.625 3.5625 -2.625 3.5625 -2 1 C-1.34 0.67 -0.68 0.34 0 0 Z " fill="#3B3739" transform="translate(115,31)"/>
<path d="M0 0 C0 3 0 3 -2.5 5.6875 C-3.325 6.450625 -4.15 7.21375 -5 8 C-5.66 7.67 -6.32 7.34 -7 7 C-4.69 4.69 -2.38 2.38 0 0 Z " fill="#151213" transform="translate(192,148)"/>
<path d="M0 0 C1.65 0 3.3 0 5 0 C5.33 1.98 5.66 3.96 6 6 C3.97945196 4.35830472 1.97956942 2.69088222 0 1 C0 0.67 0 0.34 0 0 Z " fill="#3F3E3F" transform="translate(133,268)"/>
<path d="M0 0 C0.33 1.32 0.66 2.64 1 4 C1.66 4 2.32 4 3 4 C2.67 6.64 2.34 9.28 2 12 C1.67 12 1.34 12 1 12 C0.67 8.04 0.34 4.08 0 0 Z " fill="#7D7A7C" transform="translate(76,148)"/>
</svg>
