<?xml version="1.0" encoding="UTF-8"?>
<svg version="1.1" xmlns="http://www.w3.org/2000/svg" width="400" height="400">
<path d="M0 0 C132 0 264 0 400 0 C400 132 400 264 400 400 C268 400 136 400 0 400 C0 268 0 136 0 0 Z " fill="#060606" transform="translate(0,0)"/>
<path d="M0 0 C0.29296875 2.1640625 0.29296875 2.1640625 0.1875 4.625 C0.14689453 5.85089844 0.14689453 5.85089844 0.10546875 7.1015625 C0.07066406 7.72804688 0.03585938 8.35453125 0 9 C0.8559375 9.24234375 1.711875 9.4846875 2.59375 9.734375 C6.30303359 11.11259505 9.31670982 12.95298228 12.5 15.25 C13.10021973 15.68256104 13.70043945 16.11512207 14.31884766 16.56079102 C34.9781226 31.93294732 50.06879045 53.87432338 56 79 C56 80.32 56 81.64 56 83 C56.72832031 83.27070313 57.45664062 83.54140625 58.20703125 83.8203125 C60.91949961 84.96599844 63.2281844 86.26329232 65.6875 87.875 C66.45449219 88.36742187 67.22148437 88.85984375 68.01171875 89.3671875 C70.22429208 91.18419271 70.95863908 92.35438037 72 95 C72.50059214 105.16876121 69.57245176 115.98267464 67.72631836 125.94726562 C67.18530733 128.88691415 66.66569288 131.82987012 66.14648438 134.7734375 C65.80078114 136.65909333 65.45382026 138.54451911 65.10546875 140.4296875 C64.95426071 141.30164764 64.80305267 142.17360779 64.64726257 143.07199097 C63.65295829 148.288069 62.35590972 151.84916223 59 156 C54.42777828 158.69562289 48.99020186 158.62048867 43.79492188 158.94726562 C40.14006149 159.2938768 38.37132394 159.60267672 35.82421875 162.328125 C35.22222656 163.20984375 34.62023437 164.0915625 34 165 C30.49891239 167.9026589 26.75840645 170.44226568 23 173 C22.21496094 173.54011719 21.42992187 174.08023438 20.62109375 174.63671875 C-10.63543755 194.78686837 -56.18872879 194.79203257 -91.23828125 187.30859375 C-93.87258024 186.64144133 -96.4227648 185.8603761 -99 185 C-100.08023438 184.66355469 -101.16046875 184.32710937 -102.2734375 183.98046875 C-115.79017835 179.51964589 -127.58540851 172.74724874 -138 163 C-138.33 162.34 -138.66 161.68 -139 161 C-140.84987444 160.50438992 -140.84987444 160.50438992 -143.078125 160.2890625 C-143.90957031 160.17820312 -144.74101562 160.06734375 -145.59765625 159.953125 C-147.34955359 159.73639543 -149.10216415 159.52534662 -150.85546875 159.3203125 C-155.97115166 158.62666058 -159.32226264 157.92006889 -163 154 C-165.5126007 150.43449995 -165.72515991 146.16102934 -166.3125 141.9375 C-167.18561952 135.97404049 -168.15908681 130.04674738 -169.3046875 124.12890625 C-169.64632935 122.35882202 -169.64632935 122.35882202 -169.99487305 120.55297852 C-170.44665174 118.2354828 -170.90609388 115.91946396 -171.37426758 113.60522461 C-174.7036714 96.40734281 -174.7036714 96.40734281 -171.5625 90.125 C-167.35629203 86.6369251 -162.60283847 83 -157 83 C-156.99742187 82.46375 -156.99484375 81.9275 -156.9921875 81.375 C-155.86563656 58.54356767 -139.23870391 37.05008037 -123.234375 21.80859375 C-117.2277644 16.38958636 -109.88555728 10.97138932 -102 9 C-102 6.03 -102 3.06 -102 0 C-79.08400592 -14.76808508 -23.03702727 -15.35801818 0 0 Z " fill="#FDFDFD" transform="translate(251,109)"/>
<path d="M0 0 C0.29296875 2.1640625 0.29296875 2.1640625 0.1875 4.625 C0.14689453 5.85089844 0.14689453 5.85089844 0.10546875 7.1015625 C0.07066406 7.72804688 0.03585938 8.35453125 0 9 C0.8559375 9.24234375 1.711875 9.4846875 2.59375 9.734375 C6.30303359 11.11259505 9.31670982 12.95298228 12.5 15.25 C13.10021973 15.68256104 13.70043945 16.11512207 14.31884766 16.56079102 C34.9781226 31.93294732 50.06879045 53.87432338 56 79 C56 80.32 56 81.64 56 83 C56.72832031 83.27070313 57.45664062 83.54140625 58.20703125 83.8203125 C60.91949961 84.96599844 63.2281844 86.26329232 65.6875 87.875 C66.45449219 88.36742187 67.22148437 88.85984375 68.01171875 89.3671875 C70.22429208 91.18419271 70.95863908 92.35438037 72 95 C72.50059214 105.16876121 69.57245176 115.98267464 67.72631836 125.94726562 C67.18530733 128.88691415 66.66569288 131.82987012 66.14648438 134.7734375 C65.80078114 136.65909333 65.45382026 138.54451911 65.10546875 140.4296875 C64.95426071 141.30164764 64.80305267 142.17360779 64.64726257 143.07199097 C63.65295829 148.288069 62.35590972 151.84916223 59 156 C54.42777828 158.69562289 48.99020186 158.62048867 43.79492188 158.94726562 C40.14006149 159.2938768 38.37132394 159.60267672 35.82421875 162.328125 C35.22222656 163.20984375 34.62023437 164.0915625 34 165 C30.49891239 167.9026589 26.75840645 170.44226568 23 173 C22.21496094 173.54011719 21.42992187 174.08023438 20.62109375 174.63671875 C-10.63543755 194.78686837 -56.18872879 194.79203257 -91.23828125 187.30859375 C-93.87258024 186.64144133 -96.4227648 185.8603761 -99 185 C-100.08023438 184.66355469 -101.16046875 184.32710937 -102.2734375 183.98046875 C-115.79017835 179.51964589 -127.58540851 172.74724874 -138 163 C-138.33 162.34 -138.66 161.68 -139 161 C-140.84987444 160.50438992 -140.84987444 160.50438992 -143.078125 160.2890625 C-143.90957031 160.17820312 -144.74101562 160.06734375 -145.59765625 159.953125 C-147.34955359 159.73639543 -149.10216415 159.52534662 -150.85546875 159.3203125 C-155.97115166 158.62666058 -159.32226264 157.92006889 -163 154 C-165.5126007 150.43449995 -165.72515991 146.16102934 -166.3125 141.9375 C-167.18561952 135.97404049 -168.15908681 130.04674738 -169.3046875 124.12890625 C-169.64632935 122.35882202 -169.64632935 122.35882202 -169.99487305 120.55297852 C-170.44665174 118.2354828 -170.90609388 115.91946396 -171.37426758 113.60522461 C-174.7036714 96.40734281 -174.7036714 96.40734281 -171.5625 90.125 C-167.35629203 86.6369251 -162.60283847 83 -157 83 C-156.99742187 82.46375 -156.99484375 81.9275 -156.9921875 81.375 C-155.86563656 58.54356767 -139.23870391 37.05008037 -123.234375 21.80859375 C-117.2277644 16.38958636 -109.88555728 10.97138932 -102 9 C-102 6.03 -102 3.06 -102 0 C-79.08400592 -14.76808508 -23.03702727 -15.35801818 0 0 Z M-110 47 C-110.93972656 47.82757813 -110.93972656 47.82757813 -111.8984375 48.671875 C-123.5029713 59.27873394 -131.92715882 78.11811546 -133.23535156 93.82592773 C-134.05710319 112.68630995 -133.04069785 128.25398012 -120 143 C-117.81832979 145.28083704 -115.57655343 147.18030914 -113 149 C-112.319375 149.48855469 -111.63875 149.97710937 -110.9375 150.48046875 C-105.86341727 153.81462109 -100.55363209 156.11782729 -94.875 158.1875 C-94.23771973 158.42533203 -93.60043945 158.66316406 -92.94384766 158.90820312 C-79.48845383 163.56621582 -65.86531069 164.54725486 -51.75 164.4375 C-50.94217072 164.43512329 -50.13434143 164.43274658 -49.30203247 164.43029785 C-36.82008416 164.37292306 -25.04041641 163.51453385 -13 160 C-11.89011719 159.71125 -10.78023438 159.4225 -9.63671875 159.125 C4.69626757 154.96081202 17.145505 146.73246189 25.375 134.1875 C30.61245889 124.58207652 31.53599211 114.46392197 31.4375 103.6875 C31.42847656 102.50051514 31.41945313 101.31353027 31.41015625 100.09057617 C31.08843232 83.76867241 26.05463259 69.58194889 17 56 C16.34 56 15.68 56 15 56 C14.72800781 55.41476563 14.45601562 54.82953125 14.17578125 54.2265625 C6.57947624 39.84153308 -9.72695744 32.019816 -24 26 C-25.32837891 25.43152344 -25.32837891 25.43152344 -26.68359375 24.8515625 C-55.92556009 14.10156476 -88.69738817 26.64905124 -110 47 Z " fill="#956EEF" transform="translate(251,109)"/>
<path d="M0 0 C2.5316553 2.5316553 5.0614892 5.06298894 7.5625 7.625 C13.13166506 13.05136596 18.13616353 15.07073321 26 15.25 C34.24582292 15.02579333 39.98572738 12.57389701 46 7 C47.87281577 4.74266891 49.41392504 2.47824212 51 0 C55.8274799 1.41292095 59.7162359 3.42974154 64 6 C60.95208643 14.90562246 53.56486465 21.44299204 45.4375 25.81640625 C44.2309375 26.40228516 44.2309375 26.40228516 43 27 C42.34 27.33902344 41.68 27.67804688 41 28.02734375 C32.24127503 31.73953773 19.32371401 31.66885055 10.4375 28.4375 C0.74265038 23.69002209 -7.9688612 16.077847 -12 6 C-8.04 4.02 -4.08 2.04 0 0 Z " fill="#161B29" transform="translate(174,224)"/>
<path d="M0 0 C-1 3 -1 3 -3.0625 5 C-5.34789761 6.89502283 -5.34789761 6.89502283 -5 10 C-6.0828125 9.5978125 -6.0828125 9.5978125 -7.1875 9.1875 C-8.115625 9.125625 -9.04375 9.06375 -10 9 C-12.50041345 11.16540517 -12.50041345 11.16540517 -15 14 C-16.23443314 14.85622384 -17.48511372 15.68944022 -18.75 16.5 C-21.59482352 18.43251006 -21.59482352 18.43251006 -22.8125 21.6875 C-22.9053125 22.8321875 -22.9053125 22.8321875 -23 24 C-25 26 -25 26 -27 26.25 C-27.99 26.62125 -27.99 26.62125 -29 27 C-29.309375 27.969375 -29.61875 28.93875 -29.9375 29.9375 C-31 33 -31 33 -33.625 34.375 C-34.40875 34.58125 -35.1925 34.7875 -36 35 C-36.144375 36.27875 -36.28875 37.5575 -36.4375 38.875 C-36.70642746 41.25692894 -36.92226346 42.84452691 -38 45 C-38.039992 46.99960012 -38.04346799 49.00047242 -38 51 C-38.33 51 -38.66 51 -39 51 C-39.99 47.535 -39.99 47.535 -41 44 C-43.71409444 48.22136927 -43.71409444 48.22136927 -45 53 C-44.814375 53.61875 -44.62875 54.2375 -44.4375 54.875 C-43.78010775 58.06804805 -44.64375701 60.09376501 -46 63 C-48.125 63.875 -48.125 63.875 -50 64 C-50 64.66 -50 65.32 -50 66 C-50.66 66 -51.32 66 -52 66 C-52.16986545 67.56215548 -52.33573964 69.1247452 -52.5 70.6875 C-52.63921875 71.99267578 -52.63921875 71.99267578 -52.78125 73.32421875 C-52.99159864 75.89723339 -53.03719144 78.41984364 -53 81 C-56.08084955 81.85659135 -59.06792001 82.26941369 -62.25 82.5625 C-63.14203125 82.64628906 -64.0340625 82.73007813 -64.953125 82.81640625 C-65.62859375 82.87699219 -66.3040625 82.93757813 -67 83 C-67.75282282 90.49348257 -68.34229823 97.55634618 -67 105 C-66.34 105.66 -65.68 106.32 -65 107 C-64.835 108.175625 -64.67 109.35125 -64.5 110.5625 C-64.335 111.696875 -64.17 112.83125 -64 114 C-63.34 114.33 -62.68 114.66 -62 115 C-62.20625 115.969375 -62.4125 116.93875 -62.625 117.9375 C-63.20516276 121.86353292 -62.45154585 125.03764915 -61.48046875 128.84375 C-60.86808513 131.59200818 -60.85623341 134.19655146 -61 137 C-60.34 137 -59.68 137 -59 137 C-57.3125 139.3125 -57.3125 139.3125 -56 142 C-56.33 142.99 -56.66 143.98 -57 145 C-49.87049629 146.90120099 -43.36259293 147.22424141 -36 147 C-36 147.66 -36 148.32 -36 149 C-35.01 148.67 -34.02 148.34 -33 148 C-33 149.65 -33 151.3 -33 153 C-30.69 153.33 -28.38 153.66 -26 154 C-25.67 154.99 -25.34 155.98 -25 157 C-25.33 157.66 -25.66 158.32 -26 159 C-22.535 158.01 -22.535 158.01 -19 157 C-19.66 158.65 -20.32 160.3 -21 162 C-19.35 162.66 -17.7 163.32 -16 164 C-16 163.34 -16 162.68 -16 162 C-15.01 162 -14.02 162 -13 162 C-12.731875 162.639375 -12.46375 163.27875 -12.1875 163.9375 C-11.11332248 166.33131686 -11.11332248 166.33131686 -8 167 C-8 166.34 -8 165.68 -8 165 C-7.01 165.33 -6.02 165.66 -5 166 C-5 167.32 -5 168.64 -5 170 C-4.37351562 170.06058594 -3.74703125 170.12117187 -3.1015625 170.18359375 C-2.28429687 170.26738281 -1.46703125 170.35117187 -0.625 170.4375 C0.59316406 170.55931641 0.59316406 170.55931641 1.8359375 170.68359375 C4 171 4 171 6 172 C6 172.66 6 173.32 6 174 C7.65 173.34 9.3 172.68 11 172 C11.33 172.66 11.66 173.32 12 174 C13.65 174 15.3 174 17 174 C16.67 174.99 16.34 175.98 16 177 C29.08059309 178.53415411 29.08059309 178.53415411 42 177 C41.67 177.99 41.34 178.98 41 180 C41.66 180 42.32 180 43 180 C43.33 179.34 43.66 178.68 44 178 C45.485 178.99 45.485 178.99 47 180 C50.00705405 180.27691055 50.00705405 180.27691055 53.41796875 180.1953125 C55.29838867 180.18564453 55.29838867 180.18564453 57.21679688 180.17578125 C58.52712891 180.15902344 59.83746094 180.14226562 61.1875 180.125 C62.52277987 180.11496639 63.85806689 180.1058412 65.19335938 180.09765625 C68.46242015 180.07405292 71.73112028 180.04112594 75 180 C75 180.33 75 180.66 75 181 C51.31370149 183.59229024 25.83286688 183.62245254 3 176 C1.91976562 175.66355469 0.83953125 175.32710937 -0.2734375 174.98046875 C-13.79017835 170.51964589 -25.58540851 163.74724874 -36 154 C-36.33 153.34 -36.66 152.68 -37 152 C-38.84987444 151.50438992 -38.84987444 151.50438992 -41.078125 151.2890625 C-41.90957031 151.17820312 -42.74101563 151.06734375 -43.59765625 150.953125 C-45.34955359 150.73639543 -47.10216415 150.52534662 -48.85546875 150.3203125 C-53.97115166 149.62666058 -57.32226264 148.92006889 -61 145 C-63.5126007 141.43449995 -63.72515991 137.16102934 -64.3125 132.9375 C-65.18561952 126.97404049 -66.15908681 121.04674738 -67.3046875 115.12890625 C-67.64632935 113.35882202 -67.64632935 113.35882202 -67.99487305 111.55297852 C-68.44665174 109.2354828 -68.90609388 106.91946396 -69.37426758 104.60522461 C-72.7036714 87.40734281 -72.7036714 87.40734281 -69.5625 81.125 C-65.35629203 77.6369251 -60.60283847 74 -55 74 C-54.99742188 73.46375 -54.99484375 72.9275 -54.9921875 72.375 C-53.86512095 49.53311794 -37.23311979 28.07150027 -21.2421875 12.80859375 C-16.33052332 8.37466446 -6.80691509 0 0 0 Z " fill="#E662C1" transform="translate(149,118)"/>
<path d="M0 0 C-0.50570189 4.091588 -2.48171077 5.60528124 -5.5625 8.1875 C-20.22700228 20.99017532 -31.58143809 38.93596832 -33.23486328 58.82519531 C-34.04962489 77.46250217 -33.20234591 93.57006754 -20 108 C-13.76326253 114.03989692 -7.06904342 117.90593921 1 121 C1.92425781 121.35835938 2.84851563 121.71671875 3.80078125 122.0859375 C18.08563816 127.22771279 32.21664012 128.54578467 47.25 128.4375 C48.05517059 128.43678497 48.86034119 128.43606995 49.68991089 128.43533325 C60.96169495 128.4105853 71.58434434 127.66398585 82.53515625 124.77734375 C85.64277379 124.08014432 87.1124279 123.80747022 90 125 C84.60043159 128.09975223 80.5238538 129.46875765 74.296875 129.7265625 C71.81023352 130.02259125 70.15871335 130.76220565 68 132 C68 132.66 68 133.32 68 134 C66.68 134.33 65.36 134.66 64 135 C64 134.34 64 133.68 64 133 C62.02 132.67 60.04 132.34 58 132 C58 132.66 58 133.32 58 134 C57.34 134 56.68 134 56 134 C56 133.01 56 132.02 56 131 C55.41992188 131.0721875 54.83984375 131.144375 54.2421875 131.21875 C50.66083852 131.64425681 47.23788906 132.00440535 43.625 131.9375 C40.76337022 131.77155358 40.76337022 131.77155358 38 134 C35.3125 133.625 35.3125 133.625 33 133 C32.67 133.66 32.34 134.32 32 135 C31.01 134.67 30.02 134.34 29 134 C28.72285156 133.33355469 28.44570312 132.66710937 28.16015625 131.98046875 C27.58587891 131.00013672 27.58587891 131.00013672 27 130 C24.38394233 129.33323318 24.38394233 129.33323318 21.4375 129.3125 C16.06811989 129.06811989 16.06811989 129.06811989 15 128 C10.68895139 127.17095219 7.25499941 126.83954561 3 128 C3 127.34 3 126.68 3 126 C2.09507812 126.12568359 2.09507812 126.12568359 1.171875 126.25390625 C-0.02695313 126.40666016 -0.02695313 126.40666016 -1.25 126.5625 C-2.43335938 126.71912109 -2.43335938 126.71912109 -3.640625 126.87890625 C-6.00532874 127.00027349 -7.7511037 126.69633257 -10 126 C-9.67 124.68 -9.34 123.36 -9 122 C-8.34 122 -7.68 122 -7 122 C-7 121.34 -7 120.68 -7 120 C-9.97 119.34 -12.94 118.68 -16 118 C-16.33 116.68 -16.66 115.36 -17 114 C-19.44316271 112.74709605 -21.24525395 112 -24 112 C-24.0825 111.05125 -24.165 110.1025 -24.25 109.125 C-24.65850791 105.93992632 -24.65850791 105.93992632 -26.875 104.625 C-29.11051514 103.85891684 -29.11051514 103.85891684 -32 104 C-32.125 98.25 -32.125 98.25 -31 96 C-32.485 96.495 -32.485 96.495 -34 97 C-34 94.36 -34 91.72 -34 89 C-34.639375 88.79375 -35.27875 88.5875 -35.9375 88.375 C-38 87 -38 87 -38.62890625 84.4609375 C-39.06827111 80.36328209 -39.07059292 76.36556702 -39 72.25 C-38.66615195 66.96919114 -38.66615195 66.96919114 -40 62 C-39.34 61.34 -38.68 60.68 -38 60 C-37.67 60.66 -37.34 61.32 -37 62 C-36.34 57.38 -35.68 52.76 -35 48 C-34.34 48 -33.68 48 -33 48 C-33 45.69 -33 43.38 -33 41 C-32.34 41 -31.68 41 -31 41 C-30.92572162 37.65747276 -30.93453047 35.1964086 -32 32 C-31.5625 29.8125 -31.5625 29.8125 -31 28 C-30.34 28 -29.68 28 -29 28 C-28.67 27.01 -28.34 26.02 -28 25 C-25.9375 24.3125 -25.9375 24.3125 -24 24 C-24.0825 22.989375 -24.165 21.97875 -24.25 20.9375 C-23.93352574 15.95303047 -22.88238378 14.05091775 -20 10 C-17.3125 8.25 -17.3125 8.25 -15 7 C-14.67 6.01 -14.34 5.02 -14 4 C-13.01 4 -12.02 4 -11 4 C-10.01 5.485 -10.01 5.485 -9 7 C-8.7525 6.05125 -8.505 5.1025 -8.25 4.125 C-7 1 -7 1 -5.0625 -0.4375 C-3 -1 -3 -1 0 0 Z " fill="#E169D0" transform="translate(152,144)"/>
<path d="M0 0 C0.29296875 2.1640625 0.29296875 2.1640625 0.1875 4.625 C0.14689453 5.85089844 0.14689453 5.85089844 0.10546875 7.1015625 C0.07066406 7.72804688 0.03585938 8.35453125 0 9 C0.8559375 9.24234375 1.711875 9.4846875 2.59375 9.734375 C6.30303359 11.11259505 9.31670982 12.95298228 12.5 15.25 C13.10021973 15.68256104 13.70043945 16.11512207 14.31884766 16.56079102 C34.9781226 31.93294732 50.06879045 53.87432338 56 79 C56 80.32 56 81.64 56 83 C56.72832031 83.27070313 57.45664062 83.54140625 58.20703125 83.8203125 C60.91949961 84.96599844 63.2281844 86.26329232 65.6875 87.875 C66.45449219 88.36742187 67.22148437 88.85984375 68.01171875 89.3671875 C70.20285501 91.1665882 71.08488827 92.32886304 72 95 C72.40706262 102.78846471 70.43189616 110.98021384 69.125 118.625 C68.96370605 119.60968262 68.80241211 120.59436523 68.63623047 121.60888672 C68.47010254 122.53459473 68.30397461 123.46030273 68.1328125 124.4140625 C67.91455811 125.66630615 67.91455811 125.66630615 67.69189453 126.94384766 C67 129 67 129 64 131 C63.34 130.67 62.68 130.34 62 130 C62.185625 129.21625 62.37125 128.4325 62.5625 127.625 C63.25962266 125.02910225 63.25962266 125.02910225 62 123 C62.66 122.67 63.32 122.34 64 122 C63.938125 121.236875 63.87625 120.47375 63.8125 119.6875 C64 117 64 117 65.47265625 115.6171875 C67.43626968 113.53806739 67.44863852 112.25464258 67.625 109.4375 C67.92 105.16 67.92 105.16 69 103 C69.06996014 101.29297265 69.08440154 99.58331997 69.0625 97.875 C69.05347656 96.96492188 69.04445313 96.05484375 69.03515625 95.1171875 C69.02355469 94.41851562 69.01195312 93.71984375 69 93 C67.68 92.67 66.36 92.34 65 92 C64.67 92.99 64.34 93.98 64 95 C63.67 93.68 63.34 92.36 63 91 C59.7 90.67 56.4 90.34 53 90 C53.226875 89.071875 53.45375 88.14375 53.6875 87.1875 C54.44676771 81.96887123 53.01044385 76.81070492 51 72 C50.01 71.34 49.02 70.68 48 70 C47.34 69.01 46.68 68.02 46 67 C45.34 66.67 44.68 66.34 44 66 C44.99 64.515 44.99 64.515 46 63 C45.7406091 60.93616912 45.7406091 60.93616912 44.875 58.875 C44.62492188 58.17117187 44.37484375 57.46734375 44.1171875 56.7421875 C43.12367295 54.79934967 43.12367295 54.79934967 40.8828125 54.2578125 C40.26148438 54.17273438 39.64015625 54.08765625 39 54 C39.04125 53.0925 39.0825 52.185 39.125 51.25 C39.04073523 47.2368035 39.04073523 47.2368035 37 44 C33.43793339 43.18129815 33.43793339 43.18129815 30 43 C29.505 39.04 29.505 39.04 29 35 C26.23735711 34.40267181 23.83967231 34 21 34 C21.33 31.69 21.66 29.38 22 27 C19.03 26.67 16.06 26.34 13 26 C13.061875 25.05125 13.12375 24.1025 13.1875 23.125 C13.125625 22.09375 13.06375 21.0625 13 20 C10.28450846 17.69328085 10.28450846 17.69328085 7.8125 18.375 C7.214375 18.58125 6.61625 18.7875 6 19 C5.67 17.35 5.34 15.7 5 14 C4.34 14 3.68 14 3 14 C3 13.34 3 12.68 3 12 C2.38125 11.87625 1.7625 11.7525 1.125 11.625 C-1 11 -1 11 -3 9 C-3.39764263 7.01178687 -3.73775349 5.01055661 -4 3 C-5.0725 3.04125 -6.145 3.0825 -7.25 3.125 C-10.65747485 3.0114175 -12.20739631 2.78726636 -15 1 C-14.67 0.01 -14.34 -0.98 -14 -2 C-13.34 -2.33 -12.68 -2.66 -12 -3 C-21.08522397 -4.52555485 -29.7922973 -5.24481337 -39 -5 C-39.99 -5 -40.98 -5 -42 -5 C-42.495 -5.495 -42.495 -5.495 -43 -6 C-44.2375 -5.814375 -45.475 -5.62875 -46.75 -5.4375 C-50.40377836 -4.9117765 -52.67230463 -5.23216183 -56 -7 C-56.33 -6.34 -56.66 -5.68 -57 -5 C-67 -5 -67 -5 -70.75 -5.125 C-73.65441224 -5.13571739 -76.08696911 -4.80141779 -78.875 -4 C-83.57099357 -2.67165122 -88.15671961 -2.82135441 -93 -3 C-89.19522228 -6.73160892 -84.81328292 -7.02068883 -79.75 -7.6875 C-78.32796265 -7.87530029 -78.32796265 -7.87530029 -76.87719727 -8.06689453 C-53.67697492 -10.77337234 -20.23354944 -13.48903296 0 0 Z " fill="#11E2EF" transform="translate(251,109)"/>
<path d="M0 0 C-0.33 1.32 -0.66 2.64 -1 4 C-0.39671875 3.83242187 0.2065625 3.66484375 0.828125 3.4921875 C1.62734375 3.28851563 2.4265625 3.08484375 3.25 2.875 C4.03890625 2.66617188 4.8278125 2.45734375 5.640625 2.2421875 C8.4203071 1.95685589 9.65887549 2.55022106 12 4 C11.67 5.32 11.34 6.64 11 8 C12.98 7.67 14.96 7.34 17 7 C16.34 7.33 15.68 7.66 15 8 C15 8.66 15 9.32 15 10 C15.99 10.33 16.98 10.66 18 11 C18.433125 11.515625 18.86625 12.03125 19.3125 12.5625 C21.78583126 14.66941181 23.8637368 14.20908421 27 14 C27.12375 14.94875 27.2475 15.8975 27.375 16.875 C27.71687177 20.08667191 27.71687177 20.08667191 30 22 C32.475 20.515 32.475 20.515 35 19 C36.28317892 22.84953676 36.06643637 25.94738135 36 30 C38.31 30 40.62 30 43 30 C42.67 30.66 42.34 31.32 42 32 C42.73371492 33.91738781 42.73371492 33.91738781 43.875 35.9375 C45.14935537 38.32134658 46.13961648 40.41884944 47 43 C47.99 43 48.98 43 50 43 C52.39743482 46.59615224 51.81246379 47.97292883 51.16015625 52.07421875 C50.95285837 54.56684941 51.72122716 55.89378591 53 58 C53 59.32 53 60.64 53 62 C54.65 62 56.3 62 58 62 C57.979375 62.94875 57.95875 63.8975 57.9375 64.875 C57.77448174 67.90666283 57.77448174 67.90666283 59 70 C58.34 70 57.68 70 57 70 C56.06619039 74.53140653 56.06619039 74.53140653 57 79 C56.91255992 81.5808926 56.77131505 84.11691478 56.5625 86.6875 C56.51029297 87.38939453 56.45808594 88.09128906 56.40429688 88.81445312 C56.27492135 90.54338054 56.13817469 92.27175355 56 94 C55.67 94 55.34 94 55 94 C54.97421875 93.05382812 54.9484375 92.10765625 54.921875 91.1328125 C54.21407218 72.70398653 50.29928806 54.56641058 40.13671875 38.92578125 C39 37 39 37 39 35 C38.34 35 37.68 35 37 35 C35.5546875 33.27734375 35.5546875 33.27734375 33.875 30.9375 C22.86830376 16.46573272 3.83810755 5.49739428 -14.125 2.5 C-15.74703394 2.30658674 -17.37147659 2.12772733 -19 2 C-12.77080578 -1.38393034 -6.76586503 -1.26859969 0 0 Z " fill="#39BAEF" transform="translate(229,130)"/>
<path d="M0 0 C-1 3 -1 3 -3.0625 5 C-5.34789761 6.89502283 -5.34789761 6.89502283 -5 10 C-5.721875 9.731875 -6.44375 9.46375 -7.1875 9.1875 C-8.115625 9.125625 -9.04375 9.06375 -10 9 C-12.50041345 11.16540517 -12.50041345 11.16540517 -15 14 C-16.23443314 14.85622384 -17.48511372 15.68944022 -18.75 16.5 C-21.59482352 18.43251006 -21.59482352 18.43251006 -22.8125 21.6875 C-22.9053125 22.8321875 -22.9053125 22.8321875 -23 24 C-25 26 -25 26 -27 26.25 C-27.99 26.62125 -27.99 26.62125 -29 27 C-29.309375 27.969375 -29.61875 28.93875 -29.9375 29.9375 C-31 33 -31 33 -33.625 34.375 C-34.40875 34.58125 -35.1925 34.7875 -36 35 C-36.144375 36.27875 -36.28875 37.5575 -36.4375 38.875 C-36.70642746 41.25692894 -36.92226346 42.84452691 -38 45 C-38.039992 46.99960012 -38.04346799 49.00047242 -38 51 C-38.33 51 -38.66 51 -39 51 C-39.99 47.535 -39.99 47.535 -41 44 C-43.71409444 48.22136927 -43.71409444 48.22136927 -45 53 C-44.814375 53.61875 -44.62875 54.2375 -44.4375 54.875 C-43.78010775 58.06804805 -44.64375701 60.09376501 -46 63 C-48.125 63.875 -48.125 63.875 -50 64 C-50 64.66 -50 65.32 -50 66 C-50.66 66 -51.32 66 -52 66 C-52.16986545 67.56215548 -52.33573964 69.1247452 -52.5 70.6875 C-52.5928125 71.55761719 -52.685625 72.42773438 -52.78125 73.32421875 C-52.99159864 75.89723339 -53.03719144 78.41984364 -53 81 C-56.15506142 81.93619813 -58.96586502 82.1057123 -62.25 82.0625 C-63.58804688 82.04896484 -63.58804688 82.04896484 -64.953125 82.03515625 C-65.62859375 82.02355469 -66.3040625 82.01195312 -67 82 C-66.505 81.01 -66.505 81.01 -66 80 C-65.01 80 -64.02 80 -63 80 C-62.9175 79.38125 -62.835 78.7625 -62.75 78.125 C-62 76 -62 76 -60.125 74.75 C-58 74 -58 74 -55 74 C-54.99742188 73.46375 -54.99484375 72.9275 -54.9921875 72.375 C-53.86512095 49.53311794 -37.23311979 28.07150027 -21.2421875 12.80859375 C-16.33052332 8.37466446 -6.80691509 0 0 0 Z " fill="#B63CC7" transform="translate(149,118)"/>
<path d="M0 0 C1.65 0.33 3.3 0.66 5 1 C4.34 1.99 3.68 2.98 3 4 C2.21625 4.12375 1.4325 4.2475 0.625 4.375 C-2.96318231 5.22932912 -3.72595213 7.1450812 -6 10 C-9.50108761 12.9026589 -13.24159355 15.44226568 -17 18 C-17.78503906 18.54011719 -18.57007813 19.08023437 -19.37890625 19.63671875 C-39.30009348 32.47931153 -61.91416652 34.76423691 -85 34 C-83 32 -83 32 -80.97216797 31.8046875 C-80.15377441 31.82789063 -79.33538086 31.85109375 -78.4921875 31.875 C-77.13480469 31.89820313 -77.13480469 31.89820313 -75.75 31.921875 C-73.85675343 31.97332192 -71.96352361 32.02538931 -70.0703125 32.078125 C-64.31548863 32.17566439 -59.51887821 31.66215626 -54 30 C-54.66 29.67 -55.32 29.34 -56 29 C-55.34 27.35 -54.68 25.7 -54 24 C-52.68 24 -51.36 24 -50 24 C-50 25.32 -50 26.64 -50 28 C-49.01 27.34 -48.02 26.68 -47 26 C-45.68 26 -44.36 26 -43 26 C-42.67 25.34 -42.34 24.68 -42 24 C-41.67 24.33 -41.34 24.66 -41 25 C-39.33382885 25.04063832 -37.66611905 25.042721 -36 25 C-35.95875 24.443125 -35.9175 23.88625 -35.875 23.3125 C-34.55460617 19.82288772 -32.29688326 17.62362638 -29 16 C-26.96484375 16.01171875 -26.96484375 16.01171875 -24.875 16.375 C-21.14820771 17.36302729 -21.14820771 17.36302729 -18.625 15.8125 C-16.90918735 14.09546818 -16.90918735 14.09546818 -16.125 11.9375 C-15 10 -15 10 -12.125 9.1875 C-7.67511546 7.49654387 -7.0270943 5.21011893 -5 1 C-3.68 1.33 -2.36 1.66 -1 2 C-0.67 1.34 -0.34 0.68 0 0 Z " fill="#962DE1" transform="translate(291,264)"/>
<path d="M0 0 C0.29296875 2.1640625 0.29296875 2.1640625 0.1875 4.625 C0.14689453 5.85089844 0.14689453 5.85089844 0.10546875 7.1015625 C0.07066406 7.72804688 0.03585938 8.35453125 0 9 C-0.33 9 -0.66 9 -1 9 C-1.2165625 7.4221875 -1.2165625 7.4221875 -1.4375 5.8125 C-2.44222071 2.43609163 -3.76665093 1.03618013 -6.75 -0.8125 C-16.66307497 -5.64194678 -28.22000644 -5.28661726 -39 -5 C-39.99 -5 -40.98 -5 -42 -5 C-42.495 -5.495 -42.495 -5.495 -43 -6 C-44.2375 -5.814375 -45.475 -5.62875 -46.75 -5.4375 C-50.40377836 -4.9117765 -52.67230463 -5.23216183 -56 -7 C-56.33 -6.34 -56.66 -5.68 -57 -5 C-67 -5 -67 -5 -70.75 -5.125 C-73.65441224 -5.13571739 -76.08696911 -4.80141779 -78.875 -4 C-83.57099357 -2.67165122 -88.15671961 -2.82135441 -93 -3 C-89.19522228 -6.73160892 -84.81328292 -7.02068883 -79.75 -7.6875 C-78.32796265 -7.87530029 -78.32796265 -7.87530029 -76.87719727 -8.06689453 C-53.67697492 -10.77337234 -20.23354944 -13.48903296 0 0 Z " fill="#27D0E0" transform="translate(251,109)"/>
<path d="M0 0 C-0.50570189 4.091588 -2.48171077 5.60528124 -5.5625 8.1875 C-14.60436379 16.03137929 -14.60436379 16.03137929 -21 26 C-22.98 26 -24.96 26 -27 26 C-26.79503906 26.55171875 -26.59007813 27.1034375 -26.37890625 27.671875 C-25.87886008 30.74432361 -26.70701436 32.41615428 -27.9375 35.25 C-28.31777344 36.14203125 -28.69804688 37.0340625 -29.08984375 37.953125 C-29.39019531 38.62859375 -29.69054687 39.3040625 -30 40 C-31.43537323 35.69388031 -32.47006623 32.41019868 -31 28 C-30.34 28 -29.68 28 -29 28 C-28.67 27.01 -28.34 26.02 -28 25 C-25.9375 24.3125 -25.9375 24.3125 -24 24 C-24.12375 22.4840625 -24.12375 22.4840625 -24.25 20.9375 C-23.93352574 15.95303047 -22.88238378 14.05091775 -20 10 C-17.3125 8.25 -17.3125 8.25 -15 7 C-14.67 6.01 -14.34 5.02 -14 4 C-13.01 4 -12.02 4 -11 4 C-10.01 5.485 -10.01 5.485 -9 7 C-8.7525 6.05125 -8.505 5.1025 -8.25 4.125 C-7 1 -7 1 -5.0625 -0.4375 C-3 -1 -3 -1 0 0 Z " fill="#C432E8" transform="translate(152,144)"/>
<path d="M0 0 C2.81008386 2.81008386 3.49488334 6.16269817 4.625 9.875 C4.85445313 10.59558594 5.08390625 11.31617188 5.3203125 12.05859375 C6.40173891 15.5539184 7 18.31028128 7 22 C8.09248047 22.40605469 8.09248047 22.40605469 9.20703125 22.8203125 C11.91949961 23.96599844 14.2281844 25.26329232 16.6875 26.875 C17.45449219 27.36742187 18.22148437 27.85984375 19.01171875 28.3671875 C21.20285501 30.1665882 22.08488827 31.32886304 23 34 C23.40706262 41.78846471 21.43189616 49.98021384 20.125 57.625 C19.88305908 59.10202393 19.88305908 59.10202393 19.63623047 60.60888672 C19.47010254 61.53459473 19.30397461 62.46030273 19.1328125 63.4140625 C18.98730957 64.2488916 18.84180664 65.0837207 18.69189453 65.94384766 C18 68 18 68 15 70 C14.34 69.67 13.68 69.34 13 69 C13.185625 68.21625 13.37125 67.4325 13.5625 66.625 C14.25962266 64.02910225 14.25962266 64.02910225 13 62 C13.99 61.505 13.99 61.505 15 61 C14.938125 60.236875 14.87625 59.47375 14.8125 58.6875 C15 56 15 56 16.47265625 54.6171875 C18.43626968 52.53806739 18.44863852 51.25464258 18.625 48.4375 C18.92 44.16 18.92 44.16 20 42 C20.06996014 40.29297265 20.08440154 38.58331997 20.0625 36.875 C20.05347656 35.96492188 20.04445313 35.05484375 20.03515625 34.1171875 C20.02355469 33.41851562 20.01195312 32.71984375 20 32 C18.68 31.67 17.36 31.34 16 31 C15.505 32.485 15.505 32.485 15 34 C14.67 32.68 14.34 31.36 14 30 C10.7 29.67 7.4 29.34 4 29 C4.21527344 28.03449219 4.43054688 27.06898438 4.65234375 26.07421875 C5.33286579 21.30576361 3.99005789 17.3337212 2.5625 12.8125 C2.08002055 11.23708302 1.60198804 9.66029571 1.12890625 8.08203125 C0.80515015 7.04912964 0.80515015 7.04912964 0.47485352 5.99536133 C0 4 0 4 0 0 Z " fill="#27C0F0" transform="translate(300,170)"/>
<path d="M0 0 C-1 3 -1 3 -3.0625 5 C-5.34789761 6.89502283 -5.34789761 6.89502283 -5 10 C-5.721875 9.731875 -6.44375 9.46375 -7.1875 9.1875 C-8.115625 9.125625 -9.04375 9.06375 -10 9 C-12.50041345 11.16540517 -12.50041345 11.16540517 -15 14 C-16.23443314 14.85622384 -17.48511372 15.68944022 -18.75 16.5 C-21.59482352 18.43251006 -21.59482352 18.43251006 -22.8125 21.6875 C-22.9053125 22.8321875 -22.9053125 22.8321875 -23 24 C-25 26 -25 26 -27 26.25 C-27.66 26.4975 -28.32 26.745 -29 27 C-29.309375 27.969375 -29.61875 28.93875 -29.9375 29.9375 C-31 33 -31 33 -33.625 34.375 C-34.40875 34.58125 -35.1925 34.7875 -36 35 C-36.144375 36.27875 -36.28875 37.5575 -36.4375 38.875 C-36.70642746 41.25692894 -36.92226346 42.84452691 -38 45 C-38.039992 46.99960012 -38.04346799 49.00047242 -38 51 C-38.33 51 -38.66 51 -39 51 C-40.45685623 42.81310142 -40.2533298 36.29564208 -36 29 C-32.42382798 24.27780152 -28.24341379 20.11697285 -24 16 C-23.20851563 15.22269531 -22.41703125 14.44539062 -21.6015625 13.64453125 C-6.98053675 0 -6.98053675 0 0 0 Z " fill="#BA28F0" transform="translate(149,118)"/>
<path d="M0 0 C0.66 0.33 1.32 0.66 2 1 C0.63016497 4.16115776 0.0109362 4.9927092 -3 7 C-3.25030977 9.58380177 -3.25030977 9.58380177 -3 12 C-3.99 12.33 -4.98 12.66 -6 13 C-6.33 13.99 -6.66 14.98 -7 16 C-8.32 15.67 -9.64 15.34 -11 15 C-11.33 16.32 -11.66 17.64 -12 19 C-13.423125 18.938125 -13.423125 18.938125 -14.875 18.875 C-18.10244856 18.65026182 -18.10244856 18.65026182 -20 21 C-20.39764263 22.98821313 -20.73775349 24.98944339 -21 27 C-24 26 -27 25 -30 24 C-32.67676547 25.37249963 -32.67676547 25.37249963 -35 27 C-35.99 26.34 -36.98 25.68 -38 25 C-36.68 24.67 -35.36 24.34 -34 24 C-34 23.34 -34 22.68 -34 22 C-33.24976563 21.70867187 -32.49953125 21.41734375 -31.7265625 21.1171875 C-21.71055666 17.10573932 -13.46642029 12.83063592 -6 5 C-5.01 4.67 -4.02 4.34 -3 4 C-1.31461399 2.00334686 -1.31461399 2.00334686 0 0 Z " fill="#A52EED" transform="translate(276,245)"/>
<path d="M0 0 C1.65 0 3.3 0 5 0 C4.54109375 0.99257812 4.0821875 1.98515625 3.609375 3.0078125 C-3.55412761 18.76361443 -7.19767067 33.11497279 -7.0625 50.5 C-7.05798828 51.60859375 -7.05347656 52.7171875 -7.04882812 53.859375 C-7.03713158 56.57297399 -7.02074086 59.28645761 -7 62 C-8.32 61.67 -9.64 61.34 -11 61 C-12.01629566 56.01379942 -12.08672478 51.30605441 -12 46.25 C-11.66615195 40.96919114 -11.66615195 40.96919114 -13 36 C-12.34 35.34 -11.68 34.68 -11 34 C-10.67 34.66 -10.34 35.32 -10 36 C-9.34 31.38 -8.68 26.76 -8 22 C-7.34 22 -6.68 22 -6 22 C-6.061875 20.906875 -6.12375 19.81375 -6.1875 18.6875 C-5.97563122 14.52074726 -5.75411967 14.6191138 -3 12 C-2.01051711 10.1078904 -2.01051711 10.1078904 -1.3125 8.0625 C-1.06113281 7.39347656 -0.80976562 6.72445312 -0.55078125 6.03515625 C0.17415711 3.70787818 0.17415711 3.70787818 0 0 Z " fill="#E24AD9" transform="translate(125,170)"/>
<path d="M0 0 C3 1 3 1 4.6875 4.0625 C5.120625 5.031875 5.55375 6.00125 6 7 C6.66 6.67 7.32 6.34 8 6 C11 7 11 7 13 10 C12.74251197 12.02771821 12.48121781 14.05559033 12.16015625 16.07421875 C11.95285837 18.56684941 12.72122716 19.89378591 14 22 C14 23.32 14 24.64 14 26 C15.65 26 17.3 26 19 26 C18.979375 26.94875 18.95875 27.8975 18.9375 28.875 C18.77448174 31.90666283 18.77448174 31.90666283 20 34 C19.34 34 18.68 34 18 34 C17.06619039 38.53140653 17.06619039 38.53140653 18 43 C17.91255992 45.5808926 17.77131505 48.11691478 17.5625 50.6875 C17.48418945 51.7403418 17.48418945 51.7403418 17.40429688 52.81445312 C17.27492135 54.54338054 17.13817469 56.27175355 17 58 C16.67 58 16.34 58 16 58 C15.97421875 57.05382812 15.9484375 56.10765625 15.921875 55.1328125 C15.157861 35.24043465 10.06431841 17.25805802 0 0 Z " fill="#55A3ED" transform="translate(268,166)"/>
<path d="M0 0 C0.495 0.99 0.495 0.99 1 2 C2.32 1.67 3.64 1.34 5 1 C5.495 1.99 5.495 1.99 6 3 C-8.34559845 8.47741032 -23.17064671 9.54918828 -38.375 9.4375 C-39.57943253 9.43592896 -39.57943253 9.43592896 -40.80819702 9.43432617 C-52.91345954 9.40178717 -64.35473952 8.56845191 -76 5 C-76 4.67 -76 4.34 -76 4 C-74.25034642 3.94570041 -72.50020213 3.90707177 -70.75 3.875 C-69.77546875 3.85179687 -68.8009375 3.82859375 -67.796875 3.8046875 C-65 4 -65 4 -63.10856628 4.99504089 C-60.70875459 6.13880983 -59.11227049 6.25905044 -56.46606445 6.2746582 C-55.57446121 6.28419022 -54.68285797 6.29372223 -53.76423645 6.30354309 C-52.80692123 6.30263168 -51.84960602 6.30172028 -50.86328125 6.30078125 C-49.37226143 6.30720894 -49.37226143 6.30720894 -47.85112 6.31376648 C-45.74718995 6.31950735 -43.64324005 6.32001184 -41.53930664 6.31567383 C-38.34160828 6.31252863 -35.14484864 6.33592504 -31.94726562 6.36132812 C-29.89843866 6.36360281 -27.84960922 6.36430383 -25.80078125 6.36328125 C-24.37999016 6.37709587 -24.37999016 6.37709587 -22.93049622 6.39118958 C-16.75524554 6.34879828 -11.72502531 5.29165328 -6 3 C-5.01 2.62875 -4.02 2.2575 -3 1.875 C-1.04133233 1.16279878 -1.04133233 1.16279878 0 0 Z " fill="#FCE0FD" transform="translate(238,264)"/>
<path d="M0 0 C-5.39956841 3.09975223 -9.4761462 4.46875765 -15.703125 4.7265625 C-18.18976648 5.02259125 -19.84128665 5.76220565 -22 7 C-22 7.66 -22 8.32 -22 9 C-23.32 9.33 -24.64 9.66 -26 10 C-26 9.34 -26 8.68 -26 8 C-27.98 7.67 -29.96 7.34 -32 7 C-32 7.66 -32 8.32 -32 9 C-32.66 9 -33.32 9 -34 9 C-34 8.01 -34 7.02 -34 6 C-34.87011719 6.10828125 -34.87011719 6.10828125 -35.7578125 6.21875 C-39.33916148 6.64425681 -42.76211094 7.00440535 -46.375 6.9375 C-49.23662978 6.77155358 -49.23662978 6.77155358 -52 9 C-54.6875 8.625 -54.6875 8.625 -57 8 C-57.33 8.66 -57.66 9.32 -58 10 C-58.99 9.67 -59.98 9.34 -61 9 C-61.6875 6.9375 -61.6875 6.9375 -62 5 C-60.9181543 5.01305176 -60.9181543 5.01305176 -59.81445312 5.02636719 C-52.34333186 5.07688024 -44.94952245 4.80976126 -37.5 4.25 C-35.82236572 4.12564575 -35.82236572 4.12564575 -34.11083984 3.9987793 C-25.97340974 3.32538872 -18.09284098 2.08804276 -10.14257812 0.23339844 C-6.36878593 -0.63364078 -3.70680518 -1.1466096 0 0 Z " fill="#C546DE" transform="translate(242,269)"/>
<path d="M0 0 C-1.5184244 17.91740788 -1.5184244 17.91740788 -5.9375 25.1875 C-10.61121685 27.95357732 -15.61345141 28.66582712 -21 29 C-21.66 28.67 -22.32 28.34 -23 28 C-20.60236815 25.60236815 -19.66726502 25.65719414 -16.375 25.375 C-15.55773437 25.30023438 -14.74046875 25.22546875 -13.8984375 25.1484375 C-13.27195312 25.09945313 -12.64546875 25.05046875 -12 25 C-12.020625 24.05125 -12.04125 23.1025 -12.0625 22.125 C-12 19 -12 19 -11 17 C-9.68 17 -8.36 17 -7 17 C-4.331622 12.99743299 -5.00636117 10.26534574 -5.3203125 5.59375 C-5 3 -5 3 -3.0546875 1.15625 C-1 0 -1 0 0 0 Z " fill="#6D63E3" transform="translate(317,239)"/>
<path d="M0 0 C2.60452271 0.14086602 5.20850197 0.28748464 7.8125 0.4375 C8.91948242 0.49647461 8.91948242 0.49647461 10.04882812 0.55664062 C13.23071342 0.74381035 15.96162378 0.98720793 19 2 C21.31090417 2.0954687 23.62462975 2.12985387 25.9375 2.125 C27.77634766 2.12886719 27.77634766 2.12886719 29.65234375 2.1328125 C32.32762431 2.02667535 34.46927428 1.79917654 37 1 C36.67 1.99 36.34 2.98 36 4 C36.66 4 37.32 4 38 4 C38.33 3.34 38.66 2.68 39 2 C39.99 2.66 40.98 3.32 42 4 C45.00705405 4.27691055 45.00705405 4.27691055 48.41796875 4.1953125 C50.29838867 4.18564453 50.29838867 4.18564453 52.21679688 4.17578125 C53.52712891 4.15902344 54.83746094 4.14226562 56.1875 4.125 C57.52277987 4.11496639 58.85806689 4.1058412 60.19335938 4.09765625 C63.46242015 4.07405292 66.73112028 4.04112594 70 4 C70 4.33 70 4.66 70 5 C46.38374492 7.58462451 23.10939364 6.34825242 0 1 C0 0.67 0 0.34 0 0 Z " fill="#BA50AC" transform="translate(154,294)"/>
<path d="M0 0 C0 0.33 0 0.66 0 1 C-10.395 1.495 -10.395 1.495 -21 2 C-21.33 2.66 -21.66 3.32 -22 4 C-32 4 -32 4 -35.75 3.875 C-38.65441224 3.86428261 -41.08696911 4.19858221 -43.875 5 C-48.57099357 6.32834878 -53.15671961 6.17864559 -58 6 C-54.19400733 2.2671995 -49.81400722 1.98204883 -44.75 1.3125 C-43.81720215 1.18512451 -42.8844043 1.05774902 -41.92333984 0.92651367 C-28.03219997 -0.73654154 -13.96231532 -0.25680546 0 0 Z " fill="#3E90C1" transform="translate(216,100)"/>
<path d="M0 0 C-1 3 -1 3 -3.0625 5 C-5.34789761 6.89502283 -5.34789761 6.89502283 -5 10 C-5.721875 9.731875 -6.44375 9.46375 -7.1875 9.1875 C-8.115625 9.125625 -9.04375 9.06375 -10 9 C-12.50041345 11.16540517 -12.50041345 11.16540517 -15 14 C-18.75409949 17.13129957 -21.99439642 19.54494513 -27 20 C-21.29657443 12.79567297 -10.02400836 0 0 0 Z " fill="#8341DC" transform="translate(149,118)"/>
<path d="M0 0 C3.57336182 3.20480881 5.87991631 6.80750856 8.125 11 C8.47755859 11.65556885 8.83011719 12.3111377 9.19335938 12.98657227 C12.17433894 18.80694896 13.51334802 24.46669711 14 31 C11 30 11 30 9 27 C8.34 26.67 7.68 26.34 7 26 C7.66 25.01 8.32 24.02 9 23 C8.7406091 20.93616912 8.7406091 20.93616912 7.875 18.875 C7.62492187 18.17117187 7.37484375 17.46734375 7.1171875 16.7421875 C6.12367295 14.79934967 6.12367295 14.79934967 3.8828125 14.2578125 C3.26148438 14.17273438 2.64015625 14.08765625 2 14 C2.04125 13.0925 2.0825 12.185 2.125 11.25 C2.00096751 8.02515524 1.46866102 6.75373941 0 4 C0 2.68 0 1.36 0 0 Z " fill="#1DC7D0" transform="translate(288,149)"/>
<path d="M0 0 C-0.0625 3.3125 -0.0625 3.3125 -1 7 C-4.375 8.6875 -4.375 8.6875 -8 10 C-9.92336969 12.02946853 -9.92336969 12.02946853 -11 14 C-12 13 -12 13 -12.09765625 10.71484375 C-12.08605469 9.79832031 -12.07445312 8.88179687 -12.0625 7.9375 C-12.05347656 7.01839844 -12.04445312 6.09929687 -12.03515625 5.15234375 C-12.02355469 4.44207031 -12.01195312 3.73179688 -12 3 C-4.71428571 -1.71428571 -4.71428571 -1.71428571 0 0 Z " fill="#7562EB" transform="translate(161,106)"/>
<path d="M0 0 C1.32 0 2.64 0 4 0 C4 1.32 4 2.64 4 4 C4.99 3.34 5.98 2.68 7 2 C8.32 2 9.64 2 11 2 C11.33 1.34 11.66 0.68 12 0 C12.495 1.485 12.495 1.485 13 3 C9.3558226 5.4294516 7.28758728 5.16179575 3 5 C3 5.99 3 6.98 3 8 C-4.61447795 9.89135871 -11.80209671 10.24856955 -19.625 10.125 C-21.27435547 10.11146484 -21.27435547 10.11146484 -22.95703125 10.09765625 C-25.63825758 10.07434124 -28.31900607 10.0416204 -31 10 C-29 8 -29 8 -26.97216797 7.8046875 C-26.15377441 7.82789063 -25.33538086 7.85109375 -24.4921875 7.875 C-23.13480469 7.89820313 -23.13480469 7.89820313 -21.75 7.921875 C-19.85675343 7.97332192 -17.96352361 8.02538931 -16.0703125 8.078125 C-10.31548863 8.17566439 -5.51887821 7.66215626 0 6 C-0.66 5.67 -1.32 5.34 -2 5 C-1.34 3.35 -0.68 1.7 0 0 Z " fill="#CB44D5" transform="translate(237,288)"/>
<path d="M0 0 C0.495 0.99 0.495 0.99 1 2 C-5.88404159 5.86177943 -13.29888354 5.71257094 -21 6 C-21.268125 6.969375 -21.53625 7.93875 -21.8125 8.9375 C-22.204375 9.948125 -22.59625 10.95875 -23 12 C-23.99 12.33 -24.98 12.66 -26 13 C-26.5775 13.598125 -27.155 14.19625 -27.75 14.8125 C-30.66730047 17.64876434 -33.32228525 19.2268161 -37 21 C-39.21875 20.60546875 -39.21875 20.60546875 -41 20 C-40.45472656 19.64808594 -39.90945313 19.29617188 -39.34765625 18.93359375 C-29.11020081 12.60572686 -29.11020081 12.60572686 -21 4 C-18.34992433 3.50292698 -15.86116263 3.16367805 -13.1875 2.9375 C-8.51120867 2.51007428 -4.29832538 2.03515995 0 0 Z " fill="#240941" transform="translate(310,264)"/>
<path d="M0 0 C-0.53976508 3.92878186 -2.29668418 5.63519172 -5.1875 8.25 C-5.94417969 8.95640625 -6.70085937 9.6628125 -7.48046875 10.390625 C-10.54030019 12.34512198 -12.43607632 12.30945792 -16 12 C-16 11.34 -16 10.68 -16 10 C-16.66 9.67 -17.32 9.34 -18 9 C-17.01 8.34 -16.02 7.68 -15 7 C-14.67 6.01 -14.34 5.02 -14 4 C-13.01 4 -12.02 4 -11 4 C-10.01 5.485 -10.01 5.485 -9 7 C-8.7525 6.05125 -8.505 5.1025 -8.25 4.125 C-7 1 -7 1 -5.0625 -0.4375 C-3 -1 -3 -1 0 0 Z " fill="#A731EC" transform="translate(152,144)"/>
<path d="M0 0 C0.33 0 0.66 0 1 0 C0.66341679 7.97702214 -0.51626055 15.76699932 -1.875 23.625 C-2.03645508 24.60936035 -2.19791016 25.5937207 -2.36425781 26.60791016 C-2.53022461 27.53394043 -2.69619141 28.4599707 -2.8671875 29.4140625 C-3.01269043 30.2488916 -3.15819336 31.0837207 -3.30810547 31.94384766 C-4 34 -4 34 -7 36 C-7.66 35.67 -8.32 35.34 -9 35 C-8.7215625 33.824375 -8.7215625 33.824375 -8.4375 32.625 C-7.74037734 30.02910225 -7.74037734 30.02910225 -9 28 C-8.34 27.67 -7.68 27.34 -7 27 C-7.061875 26.236875 -7.12375 25.47375 -7.1875 24.6875 C-7 22 -7 22 -5.51953125 20.5859375 C-3.62570591 18.60934858 -3.61737669 17.63227308 -3.5 14.9375 C-3.09494439 9.69763172 -1.64958096 4.96949231 0 0 Z " fill="#4A89D8" transform="translate(322,204)"/>
<path d="M0 0 C-0.33 1.32 -0.66 2.64 -1 4 C2.465 3.505 2.465 3.505 6 3 C6.12375 3.639375 6.2475 4.27875 6.375 4.9375 C6.58125 5.618125 6.7875 6.29875 7 7 C7.66 7.33 8.32 7.66 9 8 C9 8.66 9 9.32 9 10 C4.79039326 8.65407131 0.69059121 7.32575057 -3.3125 5.4375 C-8.41679996 3.44768815 -13.59295168 2.75467834 -19 2 C-12.77080578 -1.38393034 -6.76586503 -1.26859969 0 0 Z " fill="#4DA7ED" transform="translate(229,130)"/>
<path d="M0 0 C0 0.66 0 1.32 0 2 C-0.99 2.33 -1.98 2.66 -3 3 C-5.60574765 10.95438757 -5.42614369 18.79527211 -4 27 C-3.67 27.33 -3.34 27.66 -3 28 C-1.99418038 33.36437132 -1.88883662 38.55299453 -2 44 C-4.6329544 39.24456195 -5.21474521 34.24057698 -6.125 28.9375 C-6.30675781 27.95072266 -6.48851563 26.96394531 -6.67578125 25.94726562 C-9.66666755 8.77777925 -9.66666755 8.77777925 -6.125 2.875 C-2.86666667 0 -2.86666667 0 0 0 Z " fill="#DB61BB" transform="translate(86,196)"/>
<path d="M0 0 C0.53625 0.10957031 1.0725 0.21914063 1.625 0.33203125 C3.35400132 0.68181277 5.08472236 1.0231257 6.81640625 1.359375 C8.97716165 1.79417731 11.1310634 2.26422935 13.27734375 2.765625 C26.39345953 5.62121477 39.61762682 5.73417367 53 6 C53 6.33 53 6.66 53 7 C48.79208145 7.19770851 44.58366185 7.38136206 40.375 7.5625 C39.18519531 7.61857422 37.99539062 7.67464844 36.76953125 7.73242188 C35.61582031 7.78076172 34.46210938 7.82910156 33.2734375 7.87890625 C31.68668213 7.94960327 31.68668213 7.94960327 30.06787109 8.02172852 C26.93335493 7.99952798 24.07444483 7.58673861 21 7 C19.56356288 6.82440837 18.12614934 6.65643566 16.6875 6.5 C13 6 13 6 12 5 C9.67182036 4.63239269 7.3381615 4.29758419 5 4 C5 3.34 5 2.68 5 2 C3.35 1.67 1.7 1.34 0 1 C0 0.67 0 0.34 0 0 Z " fill="#D269D0" transform="translate(155,267)"/>
<path d="M0 0 C0.125 7.75 0.125 7.75 -1 10 C-4 9 -7 8 -10 7 C-12.67676547 8.37249963 -12.67676547 8.37249963 -15 10 C-15.99 9.34 -16.98 8.68 -18 8 C-16.68 7.67 -15.36 7.34 -14 7 C-14 6.34 -14 5.68 -14 5 C-12.04350603 4.16235732 -10.08474444 3.33000941 -8.125 2.5 C-7.03445312 2.0359375 -5.94390625 1.571875 -4.8203125 1.09375 C-2 0 -2 0 0 0 Z " fill="#B72AED" transform="translate(256,262)"/>
<path d="M0 0 C0.33 0 0.66 0 1 0 C1.12375 1.134375 1.2475 2.26875 1.375 3.4375 C1.58125 4.613125 1.7875 5.78875 2 7 C2.66 7.33 3.32 7.66 4 8 C3.79375 8.969375 3.5875 9.93875 3.375 10.9375 C2.79483724 14.86353292 3.54845415 18.03764915 4.51953125 21.84375 C5.13191487 24.59200818 5.14376659 27.19655146 5 30 C5.66 30 6.32 30 7 30 C8.6875 32.3125 8.6875 32.3125 10 35 C9.67 35.99 9.34 36.98 9 38 C8.34 38 7.68 38 7 38 C7 37.01 7 36.02 7 35 C6.34 35 5.68 35 5 35 C1.18658263 23.29369553 0.24896969 12.26175713 0 0 Z " fill="#F166CA" transform="translate(83,225)"/>
<path d="M0 0 C1.65 0 3.3 0 5 0 C4.54109375 0.99257812 4.0821875 1.98515625 3.609375 3.0078125 C-1.51057591 14.26891435 -6.00295595 25.5369494 -7 38 C-7.33 38 -7.66 38 -8 38 C-8 32.72 -8 27.44 -8 22 C-7.34 22 -6.68 22 -6 22 C-6.061875 20.906875 -6.12375 19.81375 -6.1875 18.6875 C-5.97563122 14.52074726 -5.75411967 14.6191138 -3 12 C-2.01051711 10.1078904 -2.01051711 10.1078904 -1.3125 8.0625 C-1.06113281 7.39347656 -0.80976562 6.72445312 -0.55078125 6.03515625 C0.17415711 3.70787818 0.17415711 3.70787818 0 0 Z " fill="#C751D4" transform="translate(125,170)"/>
<path d="M0 0 C0.66 0.33 1.32 0.66 2 1 C2 3.64 2 6.28 2 9 C-1.15506142 9.93619813 -3.96586502 10.1057123 -7.25 10.0625 C-8.14203125 10.05347656 -9.0340625 10.04445312 -9.953125 10.03515625 C-10.62859375 10.02355469 -11.3040625 10.01195312 -12 10 C-11.67 9.34 -11.34 8.68 -11 8 C-10.01 8 -9.02 8 -8 8 C-7.9175 7.38125 -7.835 6.7625 -7.75 6.125 C-7 4 -7 4 -5.125 2.75 C-3 2 -3 2 0 2 C0 1.34 0 0.68 0 0 Z " fill="#E649DD" transform="translate(94,190)"/>
<path d="M0 0 C0 0.66 0 1.32 0 2 C-1.11242065 2.029729 -1.11242065 2.029729 -2.24731445 2.06005859 C-5.60273834 2.15522928 -8.95753286 2.26494094 -12.3125 2.375 C-14.06336914 2.42140625 -14.06336914 2.42140625 -15.84960938 2.46875 C-17.52700195 2.52675781 -17.52700195 2.52675781 -19.23828125 2.5859375 C-20.26993408 2.6173584 -21.30158691 2.6487793 -22.36450195 2.68115234 C-25.22843236 2.82674629 -25.22843236 2.82674629 -28 5 C-30.6875 4.625 -30.6875 4.625 -33 4 C-33.33 4.66 -33.66 5.32 -34 6 C-34.99 5.67 -35.98 5.34 -37 5 C-37.6875 2.9375 -37.6875 2.9375 -38 1 C-37.319375 1.01160156 -36.63875 1.02320313 -35.9375 1.03515625 C-29.19633385 1.09790647 -22.54003501 0.8226058 -15.8203125 0.35791016 C-10.53728974 0.003405 -5.29240052 -0.11449905 0 0 Z " fill="#C44DD0" transform="translate(218,273)"/>
<path d="M0 0 C1.06541016 0.00902344 2.13082031 0.01804688 3.22851562 0.02734375 C5.84008034 0.05076586 8.45116937 0.08356548 11.0625 0.125 C11.5575 1.115 11.5575 1.115 12.0625 2.125 C11.15709473 2.154729 11.15709473 2.154729 10.23339844 2.18505859 C-5.95515696 2.68682672 -5.95515696 2.68682672 -21.9375 5.125 C-16.87622335 -1.42488743 -7.35992948 -0.11878223 0 0 Z " fill="#5D8CE5" transform="translate(199.9375,128.875)"/>
<path d="M0 0 C10.55808656 3.07517084 10.55808656 3.07517084 15 5 C14.67 5.99 14.34 6.98 14 8 C10 7 10 7 8.0625 6.375 C5.92453647 5.85546815 5.92453647 5.85546815 3.5 6.5 C0.90177093 7.01964581 -0.5200301 6.82665663 -3 6 C-2.67 4.68 -2.34 3.36 -2 2 C-1.34 2 -0.68 2 0 2 C0 1.34 0 0.68 0 0 Z " fill="#ED57D7" transform="translate(145,264)"/>
<path d="M0 0 C2.31 0 4.62 0 7 0 C7.33 2.31 7.66 4.62 8 7 C11.465 6.505 11.465 6.505 15 6 C15 9.57575896 13.91159393 11.05295935 12 14 C7.76014063 9.88862122 3.72154258 5.59026002 0 1 C0 0.67 0 0.34 0 0 Z " fill="#051119" transform="translate(279,138)"/>
<path d="M0 0 C1.67542976 0.28604898 3.34385343 0.61781233 5 1 C4.85396072 5.53385571 4.48017057 9.69499685 3 14 C-0.06122769 16.56453843 -3.19634817 17.85609733 -7 19 C-7 18.01 -7 17.02 -7 16 C-5.35 15.67 -3.7 15.34 -2 15 C-2 14.34 -2 13.68 -2 13 C-1.34 13 -0.68 13 0 13 C-0.08378906 12.14535156 -0.16757813 11.29070312 -0.25390625 10.41015625 C-0.40666016 8.75306641 -0.40666016 8.75306641 -0.5625 7.0625 C-0.66691406 5.96035156 -0.77132812 4.85820313 -0.87890625 3.72265625 C-0.91886719 2.82417969 -0.95882812 1.92570312 -1 1 C-0.67 0.67 -0.34 0.34 0 0 Z " fill="#060419" transform="translate(146,104)"/>
<path d="M0 0 C0.99 0.33 1.98 0.66 3 1 C2.29875 1.66644531 1.5975 2.33289063 0.875 3.01953125 C-4.90035424 8.59988944 -9.89733326 14.21313364 -14.44140625 20.8828125 C-16 23 -16 23 -18 24 C-18 22.68 -18 21.36 -18 20 C-17.01 20 -16.02 20 -15 20 C-14.67 18.35 -14.34 16.7 -14 15 C-13.01 14.67 -12.02 14.34 -11 14 C-11 12.68 -11 11.36 -11 10 C-10.01 10 -9.02 10 -8 10 C-8 9.01 -8 8.02 -8 7 C-7.34 7 -6.68 7 -6 7 C-5.67 6.01 -5.34 5.02 -5 4 C-4.01 4 -3.02 4 -2 4 C-1.34 2.68 -0.68 1.36 0 0 Z " fill="#210331" transform="translate(126,130)"/>
<path d="M0 0 C4.38577735 0.4475283 7.80467221 1.33292564 11.7890625 3.171875 C19.42147419 6.03065818 27.91313251 7.19131325 36 8 C36 8.33 36 8.66 36 9 C29.07706385 9.3580829 23.05621243 8.28504652 16.3125 6.72265625 C13.65455452 6.14279786 11.13900855 5.74047519 8.4375 5.5 C4.88204193 4.98284246 2.82063144 4.20361832 0 2 C0 1.34 0 0.68 0 0 Z " fill="#280623" transform="translate(140,290)"/>
<path d="M0 0 C3.93846154 3.32307692 3.93846154 3.32307692 4.25 6.75 C4.1675 7.4925 4.085 8.235 4 9 C0.33552568 10.64800856 -2.81203466 11.33580973 -6.8125 11.625 C-7.78832031 11.69976562 -8.76414062 11.77453125 -9.76953125 11.8515625 C-10.87361328 11.92503906 -10.87361328 11.92503906 -12 12 C-10 9 -10 9 -7.8359375 8.48828125 C-7.02382813 8.43027344 -6.21171875 8.37226563 -5.375 8.3125 C-4.55773437 8.24675781 -3.74046875 8.18101562 -2.8984375 8.11328125 C-2.27195312 8.07589844 -1.64546875 8.03851563 -1 8 C-1.020625 7.05125 -1.04125 6.1025 -1.0625 5.125 C-1 2 -1 2 0 0 Z " fill="#7D53DE" transform="translate(306,256)"/>
<path d="M0 0 C1.546875 0.433125 1.546875 0.433125 3.125 0.875 C8.25601669 2.20594351 13.46217733 2.65081044 18.73046875 3.14453125 C22.75492198 4.19752439 24.35921821 5.84747622 27 9 C27.33 9.66 27.66 10.32 28 11 C25.525 10.505 25.525 10.505 23 10 C22.67 8.68 22.34 7.36 22 6 C20.081875 6.309375 20.081875 6.309375 18.125 6.625 C15.9453125 6.9765625 15.9453125 6.9765625 14 7 C13.34 6.34 12.68 5.68 12 5 C9.63409531 4.57511737 9.63409531 4.57511737 7 4.4375 C2.18983051 4.09491525 2.18983051 4.09491525 0 3 C0 2.01 0 1.02 0 0 Z " fill="#20031C" transform="translate(90,265)"/>
<path d="M0 0 C0.92232422 0.10828125 0.92232422 0.10828125 1.86328125 0.21875 C3.07564453 0.35796875 3.07564453 0.35796875 4.3125 0.5 C5.51326172 0.63921875 5.51326172 0.63921875 6.73828125 0.78125 C9.11896555 1.04813463 9.11896555 1.04813463 12 1 C12.04125 1.845625 12.0825 2.69125 12.125 3.5625 C13.28909223 8.13571949 15.77399123 10.66547105 19 14 C18.67 14.66 18.34 15.32 18 16 C17.62230469 15.5875 17.24460937 15.175 16.85546875 14.75 C12.37008762 10.04402635 7.48868703 6.31647359 2.16015625 2.6015625 C1.44730469 2.07304687 0.73445312 1.54453125 0 1 C0 0.67 0 0.34 0 0 Z " fill="#5BBCE5" transform="translate(244,143)"/>
<path d="M0 0 C-0.65234375 1.875 -0.65234375 1.875 -2 4 C-4.8056749 5.22988489 -7.62727777 6.01886895 -10.56640625 6.875 C-13.18143608 7.74423572 -13.18143608 7.74423572 -13.83984375 10.125 C-13.89269531 10.74375 -13.94554687 11.3625 -14 12 C-14.99 12 -15.98 12 -17 12 C-17 11.01 -17 10.02 -17 9 C-19.64 9.33 -22.28 9.66 -25 10 C-20.47503468 7.54257758 -15.58517051 5.95761762 -10.75585938 4.2109375 C-7.28992824 2.93655613 -3.53037762 0 0 0 Z " fill="#2F053A" transform="translate(269,285)"/>
<path d="M0 0 C3.77450884 -0.35947703 5.84678896 -0.07226936 9.3125 1.5625 C12 4 12 4 12.875 7.75 C12.91625 8.8225 12.9575 9.895 13 11 C13.66 11 14.32 11 15 11 C15 11.66 15 12.32 15 13 C15.66 13.33 16.32 13.66 17 14 C14.13275314 13.42655063 13.1385485 13.1385485 11 11 C10.60235737 9.01178687 10.26224651 7.01055661 10 5 C8.9275 5.04125 7.855 5.0825 6.75 5.125 C3.34252515 5.0114175 1.79260369 4.78726636 -1 3 C-0.67 2.01 -0.34 1.02 0 0 Z " fill="#08E9F8" transform="translate(237,107)"/>
<path d="M0 0 C0.86625 0.268125 1.7325 0.53625 2.625 0.8125 C2.625 1.4725 2.625 2.1325 2.625 2.8125 C1.965 2.8125 1.305 2.8125 0.625 2.8125 C0.625 3.4725 0.625 4.1325 0.625 4.8125 C-0.64191507 5.48658308 -1.91370749 6.15150497 -3.1875 6.8125 C-3.89519531 7.18375 -4.60289062 7.555 -5.33203125 7.9375 C-7.375 8.8125 -7.375 8.8125 -10.375 8.8125 C-10.12706292 5.46534942 -9.071823 4.49522175 -6.6875 2 C-3.375 -0.1875 -3.375 -0.1875 0 0 Z " fill="#BD28F1" transform="translate(265.375,280.1875)"/>
<path d="M0 0 C0.99 0.33 1.98 0.66 3 1 C1.7625 1.8971875 1.7625 1.8971875 0.5 2.8125 C-2.17658039 5.48151943 -2.36455632 7.52682923 -2.375 11.25 C-2.14692802 16.19379566 -1.64338709 21.09417342 -1 26 C-1.33 25.34 -1.66 24.68 -2 24 C-2.66 24 -3.32 24 -4 24 C-5.47791129 17.16466027 -6.12793595 9.97364932 -3.625 3.375 C-2 1 -2 1 0 0 Z " fill="#230722" transform="translate(81,196)"/>
<path d="M0 0 C0.66 0 1.32 0 2 0 C1 3 1 3 -2.125 4.875 C-6.22390733 6.79776016 -10.46780482 8.2936189 -14.75 9.75 C-15.39984863 9.97284668 -16.04969727 10.19569336 -16.71923828 10.42529297 C-20.0319905 11.51471006 -22.46513422 12 -26 12 C-26 11.34 -26 10.68 -26 10 C-25.04287109 9.81824219 -25.04287109 9.81824219 -24.06640625 9.6328125 C-23.24011719 9.46523438 -22.41382813 9.29765625 -21.5625 9.125 C-20.32693359 8.88136719 -20.32693359 8.88136719 -19.06640625 8.6328125 C-18.38449219 8.42398437 -17.70257813 8.21515625 -17 8 C-16.67 7.34 -16.34 6.68 -16 6 C-14.04735225 5.76832993 -12.09388551 5.54130578 -10.13671875 5.3515625 C-7.09865097 4.8516976 -4.67977655 3.46749668 -2 2 C-1.34 2 -0.68 2 0 2 C0 1.34 0 0.68 0 0 Z " fill="#A835CB" transform="translate(266,283)"/>
<path d="M0 0 C0.85127868 3.12423387 1.0198876 5.45902706 0.625 8.6875 C0.53476563 9.47511719 0.44453125 10.26273438 0.3515625 11.07421875 C0 13 0 13 -1 14 C-1.08758003 15.99964982 -1.10696576 18.0023611 -1.09765625 20.00390625 C-1.09443359 21.21884766 -1.09121094 22.43378906 -1.08789062 23.68554688 C-1.07951172 24.96494141 -1.07113281 26.24433594 -1.0625 27.5625 C-1.05573242 29.48739258 -1.05573242 29.48739258 -1.04882812 31.45117188 C-1.03699545 34.63416022 -1.02051068 37.81705762 -1 41 C-4.07267569 35.85084082 -3.32871933 30.26024035 -3.3125 24.4375 C-3.32861328 23.30763672 -3.34472656 22.17777344 -3.36132812 21.01367188 C-3.36562325 13.5530387 -2.36186662 7.07845082 0 0 Z " fill="#F8D1F9" transform="translate(121,189)"/>
<path d="M0 0 C4.36548422 2.18274211 5.49136688 9.59898748 7 14 C8.33932685 18.53160589 9.42153702 22.37485419 8 27 C6.50047669 24.50079449 5.97005855 22.74549764 5.625 19.8125 C4.8825532 15.28357453 3.37162024 9.37162024 0 6 C-0.04080783 4.00041636 -0.04254356 1.99954746 0 0 Z " fill="#D5F3FE" transform="translate(273,176)"/>
<path d="M0 0 C21.53191489 -0.38297872 21.53191489 -0.38297872 32 2 C32 2.33 32 2.66 32 3 C21.14140199 3.25991325 10.74295385 2.6000144 0 1 C0 0.67 0 0.34 0 0 Z " fill="#CDE8FD" transform="translate(190,131)"/>
<path d="M0 0 C1.1446875 0.0928125 1.1446875 0.0928125 2.3125 0.1875 C0.81357178 4.68428466 -2.72949083 6.92820721 -6.6875 9.1875 C-9.625 10 -9.625 10 -11.6875 10.1875 C-10.75159496 9.0819811 -9.81370142 7.97814547 -8.875 6.875 C-8.35292969 6.26011719 -7.83085938 5.64523438 -7.29296875 5.01171875 C-3.07077674 0.21424024 -3.07077674 0.21424024 0 0 Z " fill="#9F2AF1" transform="translate(133.6875,127.8125)"/>
<path d="M0 0 C2 1 2 1 3 3 C3 7 3 7 1 10 C0.34 10 -0.32 10 -1 10 C-1.33 10.66 -1.66 11.32 -2 12 C-2.66 12 -3.32 12 -4 12 C-3.5317879 7.22423661 -2.75668002 3.95523655 0 0 Z " fill="#BB23F4" transform="translate(132,154)"/>
<path d="M0 0 C-0.66 0 -1.32 0 -2 0 C-2 0.66 -2 1.32 -2 2 C-4.31 2.33 -6.62 2.66 -9 3 C-9.33 4.65 -9.66 6.3 -10 8 C-10.99 8.33 -11.98 8.66 -13 9 C-13 6.03 -13 3.06 -13 0 C-11.88625 0.020625 -10.7725 0.04125 -9.625 0.0625 C-0.32608696 -0.09782609 -0.32608696 -0.09782609 0 0 Z " fill="#9141F4" transform="translate(165,137)"/>
<path d="M0 0 C1.32 0 2.64 0 4 0 C4 1.32 4 2.64 4 4 C4.99 3.34 5.98 2.68 7 2 C8.32 2 9.64 2 11 2 C11.33 1.34 11.66 0.68 12 0 C12.33 0.99 12.66 1.98 13 3 C9.3558226 5.4294516 7.28758728 5.16179575 3 5 C3 5.66 3 6.32 3 7 C0 6 0 6 -2 5 C-1.34 3.35 -0.68 1.7 0 0 Z " fill="#CE32EE" transform="translate(237,288)"/>
<path d="M0 0 C8.91 0 17.82 0 27 0 C27 0.33 27 0.66 27 1 C25.22978678 1.336611 23.45880326 1.66917293 21.6875 2 C20.70136719 2.185625 19.71523437 2.37125 18.69921875 2.5625 C16 3 16 3 13 3 C12.67 2.67 12.34 2.34 12 2 C10.03114348 2.32276336 8.06228413 2.64990222 6.10546875 3.0390625 C4 3 4 3 0 0 Z " fill="#33BCF2" transform="translate(196,101)"/>
<path d="M0 0 C5.75 -0.125 5.75 -0.125 8 1 C8 1.66 8 2.32 8 3 C9.65 2.34 11.3 1.68 13 1 C13.33 1.66 13.66 2.32 14 3 C15.65 3 17.3 3 19 3 C18.67 3.99 18.34 4.98 18 6 C10.89945397 5.74319906 5.90244471 5.06612857 0 1 C0 0.67 0 0.34 0 0 Z " fill="#F55FCE" transform="translate(147,289)"/>
<path d="M0 0 C2 3 2 3 2 6 C2.66 6 3.32 6 4 6 C4 6.99 4 7.98 4 9 C5.051875 9.0825 6.10375 9.165 7.1875 9.25 C11.27047209 10.05320762 13.0122727 11.19334709 16 14 C10.20234568 13.7473789 6.17856612 13.43181255 2 9 C-0.05556739 5.965591 -0.20129748 3.62335457 0 0 Z " fill="#CC5EAC" transform="translate(86,254)"/>
<path d="M0 0 C0.33 1.32 0.66 2.64 1 4 C-2.83606631 7.37939175 -6.29729554 9.87258608 -11 12 C-11 11.01 -11 10.02 -11 9 C-9.00669158 7.65668346 -7.00615134 6.32405988 -5 5 C-3.82425289 2.90010348 -3.82425289 2.90010348 -3 1 C-2.01 0.67 -1.02 0.34 0 0 Z " fill="#A823E1" transform="translate(279,273)"/>
<path d="M0 0 C1.98 0.66 3.96 1.32 6 2 C4.7627778 4.47444439 3.64002562 4.71309196 1.1875 5.8125 C-1.47372371 7.2571643 -3.67821063 9.06517552 -6 11 C-6.66 10.67 -7.32 10.34 -8 10 C-7.50628906 9.44570312 -7.01257813 8.89140625 -6.50390625 8.3203125 C-5.86324219 7.59585938 -5.22257813 6.87140625 -4.5625 6.125 C-3.92441406 5.40570313 -3.28632813 4.68640625 -2.62890625 3.9453125 C-0.94985535 2.09249509 -0.94985535 2.09249509 0 0 Z " fill="#2F323C" transform="translate(225,224)"/>
<path d="M0 0 C-2.41601303 2.41601303 -4.58063324 3.1721185 -7.75 4.4375 C-11.93747594 6.1386621 -16.00425232 7.89113317 -20 10 C-20 8.68 -20 7.36 -20 6 C-16.535 5.505 -16.535 5.505 -13 5 C-13 4.34 -13 3.68 -13 3 C-4.57142857 -0.42857143 -4.57142857 -0.42857143 0 0 Z " fill="#8A60DB" transform="translate(176,134)"/>
<path d="M0 0 C0.97582031 0.00902344 1.95164063 0.01804687 2.95703125 0.02734375 C4.06111328 0.04474609 4.06111328 0.04474609 5.1875 0.0625 C1.76451818 3.48548182 -2.87644189 3.97449736 -7.5625 4.1875 C-9.98257854 4.1875 -12.39418642 4.15170009 -14.8125 4.0625 C-10.15972974 0.09902904 -5.94806668 -0.07166345 0 0 Z " fill="#5976CC" transform="translate(172.8125,101.9375)"/>
<path d="M0 0 C2.81008386 2.81008386 3.49488334 6.16269817 4.625 9.875 C4.85445313 10.59558594 5.08390625 11.31617188 5.3203125 12.05859375 C6.40173891 15.5539184 7 18.31028128 7 22 C6.34 22 5.68 22 5 22 C4.1602972 19.08503169 3.32803997 16.1682814 2.5 13.25 C2.26152344 12.425 2.02304687 11.6 1.77734375 10.75 C1.55175781 9.95078125 1.32617188 9.1515625 1.09375 8.328125 C0.88427734 7.5949707 0.67480469 6.86181641 0.45898438 6.10644531 C0 4 0 4 0 0 Z " fill="#2FADCE" transform="translate(300,170)"/>
<path d="M0 0 C0.66 0 1.32 0 2 0 C2 0.66 2 1.32 2 2 C3.65 2 5.3 2 7 2 C6.61328125 2.42410156 6.2265625 2.84820312 5.828125 3.28515625 C2.2605903 7.30304806 -0.48173429 11.25403771 -3 16 C-4.125 12.25 -4.125 12.25 -3 10 C-2.34 10 -1.68 10 -1 10 C-0.34 8.02 0.32 6.04 1 4 C0.34 4 -0.32 4 -1 4 C-0.67 2.68 -0.34 1.36 0 0 Z " fill="#B235DE" transform="translate(134,154)"/>
<path d="M0 0 C0.66 0.33 1.32 0.66 2 1 C2.6328125 3.50390625 2.6328125 3.50390625 3.125 6.5625 C3.29257813 7.57441406 3.46015625 8.58632812 3.6328125 9.62890625 C3.75398437 10.41136719 3.87515625 11.19382812 4 12 C4.66 12 5.32 12 6 12 C6 12.66 6 13.32 6 14 C4.02 13.34 2.04 12.68 0 12 C0 9.03 0 6.06 0 3 C-0.99 2.67 -1.98 2.34 -3 2 C-2.01 1.34 -1.02 0.68 0 0 Z " fill="#04343E" transform="translate(251,106)"/>
<path d="M0 0 C0.99 0.33 1.98 0.66 3 1 C2.67 1.66 2.34 2.32 2 3 C2.66 3 3.32 3 4 3 C4.33 2.34 4.66 1.68 5 1 C5.99 1.99 6.98 2.98 8 4 C0.06603268 4.24923458 -7.2441657 3.70994772 -15 2 C-15 1.67 -15 1.34 -15 1 C-14.00097656 1.01160156 -13.00195312 1.02320313 -11.97265625 1.03515625 C-10.68230469 1.04417969 -9.39195312 1.05320312 -8.0625 1.0625 C-6.13083984 1.07990234 -6.13083984 1.07990234 -4.16015625 1.09765625 C-1.13701597 1.36532549 -1.13701597 1.36532549 0 0 Z " fill="#E755D6" transform="translate(188,295)"/>
<path d="M0 0 C0.66 0.33 1.32 0.66 2 1 C0.67890085 5.11008624 -1.78634217 6.10220006 -5.37890625 7.984375 C-7.47071109 9.29490334 -8.25134589 10.67085389 -9 13 C-10.32 12.67 -11.64 12.34 -13 12 C-11.90220176 10.84806377 -10.79650554 9.70365063 -9.6875 8.5625 C-8.76517578 7.60537109 -8.76517578 7.60537109 -7.82421875 6.62890625 C-6 5 -6 5 -3 4 C-1.31461399 2.00334686 -1.31461399 2.00334686 0 0 Z " fill="#9743F0" transform="translate(276,245)"/>
<path d="M0 0 C0.99 0 1.98 0 3 0 C5.48614181 3.72921271 5.33170055 6.68371682 5.3125 11 C5.32861328 11.72445312 5.34472656 12.44890625 5.36132812 13.1953125 C5.36623832 18.51795882 5.36623832 18.51795882 3.48046875 21 C2.99191406 21.33 2.50335938 21.66 2 22 C2.16048828 20.37191406 2.16048828 20.37191406 2.32421875 18.7109375 C2.44621921 17.26570125 2.56726228 15.82038397 2.6875 14.375 C2.79674805 13.30572266 2.79674805 13.30572266 2.90820312 12.21484375 C3.29192279 7.29420337 2.65864697 4.33311615 0 0 Z " fill="#011A2B" transform="translate(319,198)"/>
<path d="M0 0 C0.33 1.32 0.66 2.64 1 4 C2.65 4 4.3 4 6 4 C5.979375 4.94875 5.95875 5.8975 5.9375 6.875 C5.77448174 9.90666283 5.77448174 9.90666283 7 12 C6.34 12 5.68 12 5 12 C4.67 13.65 4.34 15.3 4 17 C3.67 17 3.34 17 3 17 C3 14.36 3 11.72 3 9 C2.34 8.67 1.68 8.34 1 8 C0.40644386 5.35139573 0.25790731 2.70802678 0 0 Z " fill="#429FF5" transform="translate(281,188)"/>
<path d="M0 0 C0.66 0.33 1.32 0.66 2 1 C1.65066406 2.01320312 1.30132812 3.02640625 0.94140625 4.0703125 C0.48152771 5.42179229 0.02190591 6.77335947 -0.4375 8.125 C-0.66759766 8.79015625 -0.89769531 9.4553125 -1.13476562 10.140625 C-2.46674519 14.07865153 -3.43925034 17.86205422 -4 22 C-4.33 22 -4.66 22 -5 22 C-6.44763544 15.060791 -5.8579663 11.90041905 -2 6 C-1.30092586 3.26427415 -1.30092586 3.26427415 -1 1 C-0.67 0.67 -0.34 0.34 0 0 Z " fill="#2F0632" transform="translate(98,170)"/>
<path d="M0 0 C2.65517241 3.98275862 2.65517241 3.98275862 3 7 C2.25 10.1875 2.25 10.1875 1 13 C0.01 13.33 -0.98 13.66 -2 14 C-2.3690205 4.58997722 -2.3690205 4.58997722 0 0 Z " fill="#DB3AEC" transform="translate(102,168)"/>
<path d="M0 0 C-0.33 2.31 -0.66 4.62 -1 7 C-6.75 5.25 -6.75 5.25 -9 3 C-5.55930376 0.70620251 -4.27709699 0 0 0 Z " fill="#686FF9" transform="translate(161,106)"/>
<path d="M0 0 C0 0.66 0 1.32 0 2 C-0.99 2.33 -1.98 2.66 -3 3 C-4.22969878 6.51190809 -4.22969878 6.51190809 -5 10 C-5.66 10 -6.32 10 -7 10 C-7 12.31 -7 14.62 -7 17 C-7.33 17 -7.66 17 -8 17 C-8.62757528 7.0459588 -8.62757528 7.0459588 -6.125 2.875 C-2.86666667 0 -2.86666667 0 0 0 Z " fill="#C453B2" transform="translate(86,196)"/>
<path d="M0 0 C0.99 0 1.98 0 3 0 C3.98120464 3.05263664 3.98120464 4.94736336 3 8 C1.35 8 -0.3 8 -2 8 C-2 7.34 -2 6.68 -2 6 C-2.66 5.67 -3.32 5.34 -4 5 C-3.01 4.34 -2.02 3.68 -1 3 C-0.67 2.01 -0.34 1.02 0 0 Z " fill="#B41DF3" transform="translate(138,148)"/>
<path d="M0 0 C1.32 0.33 2.64 0.66 4 1 C3.40975852 2.65087847 2.80233994 4.29562407 2.1875 5.9375 C1.85105469 6.85402344 1.51460938 7.77054688 1.16796875 8.71484375 C0 11 0 11 -3 12 C-2.40075776 7.80530429 -1.42500059 3.99000166 0 0 Z " fill="#7666E8" transform="translate(283,224)"/>
<path d="M0 0 C3.79049707 1.42749981 7.27122456 3.16236542 10.8125 5.125 C12.27623047 5.93324219 12.27623047 5.93324219 13.76953125 6.7578125 C14.87361328 7.37269531 14.87361328 7.37269531 16 8 C12.68604014 9.08784335 12.16419665 9.07262544 8.75 7.5625 C7.8425 7.046875 6.935 6.53125 6 6 C6 5.34 6 4.68 6 4 C4.824375 4.0928125 4.824375 4.0928125 3.625 4.1875 C2.75875 4.125625 1.8925 4.06375 1 4 C0.34 3.01 -0.32 2.02 -1 1 C-0.67 0.67 -0.34 0.34 0 0 Z " fill="#27061F" transform="translate(124,281)"/>
<path d="M0 0 C0.66 0 1.32 0 2 0 C2 1.65 2 3.3 2 5 C2.66 5 3.32 5 4 5 C4.33 3.68 4.66 2.36 5 1 C5 2.65 5 4.3 5 6 C-1.4 10.06153846 -1.4 10.06153846 -4.4375 9.75 C-4.953125 9.5025 -5.46875 9.255 -6 9 C-3 7 -3 7 0 7 C-0.185625 6.030625 -0.37125 5.06125 -0.5625 4.0625 C-0.706875 3.051875 -0.85125 2.04125 -1 1 C-0.67 0.67 -0.34 0.34 0 0 Z " fill="#160218" transform="translate(88,186)"/>
<path d="M0 0 C0.66 0.33 1.32 0.66 2 1 C2.625 3.0625 2.625 3.0625 3 5 C2.34 4.67 1.68 4.34 1 4 C1.309375 4.928125 1.61875 5.85625 1.9375 6.8125 C2.625 8.875 3.3125 10.9375 4 13 C3.01 14.485 3.01 14.485 2 16 C1.35089846 14.41800369 0.70585306 12.83434276 0.0625 11.25 C-0.29714844 10.36828125 -0.65679687 9.4865625 -1.02734375 8.578125 C-1.85356576 6.38813896 -2.49369943 4.28101729 -3 2 C-2.01 2 -1.02 2 0 2 C0 1.34 0 0.68 0 0 Z " fill="#021C20" transform="translate(300,160)"/>
<path d="M0 0 C-0.14107747 1.45880109 -0.28802415 2.91703551 -0.4375 4.375 C-0.51871094 5.18710938 -0.59992188 5.99921875 -0.68359375 6.8359375 C-1 9 -1 9 -2 11 C-2.66 11 -3.32 11 -4 11 C-4.82638376 8.10765685 -5 6.11257569 -5 3 C-1.67857143 0 -1.67857143 0 0 0 Z " fill="#5F77E4" transform="translate(317,239)"/>
<path d="M0 0 C0.33 0 0.66 0 1 0 C0.63419196 7.45491562 -0.20919651 14.04931961 -3 21 C-6.00489262 14.99021476 -1.96716649 5.92624369 0 0 Z " fill="#3C95CA" transform="translate(322,204)"/>
<path d="M0 0 C1.32 0 2.64 0 4 0 C4 0.99 4 1.98 4 3 C5.32 3.33 6.64 3.66 8 4 C8 4.99 8 5.98 8 7 C5.69 7 3.38 7 1 7 C0.67 4.69 0.34 2.38 0 0 Z " fill="#0AE7F9" transform="translate(280,145)"/>
<path d="M0 0 C0.66 0.33 1.32 0.66 2 1 C1.835 1.78375 1.67 2.5675 1.5 3.375 C0.9376293 5.88208039 0.9376293 5.88208039 1 8 C-0.32 7.67 -1.64 7.34 -3 7 C-3.99 8.32 -4.98 9.64 -6 11 C-6.66 10.67 -7.32 10.34 -8 10 C-7.04737966 8.51714758 -6.08771595 7.03881799 -5.125 5.5625 C-4.32449219 4.32693359 -4.32449219 4.32693359 -3.5078125 3.06640625 C-2 1 -2 1 0 0 Z " fill="#8D5AE7" transform="translate(279,239)"/>
<path d="M0 0 C0.66 0.99 1.32 1.98 2 3 C4.56282742 3.72965366 4.56282742 3.72965366 7 4 C6.34 5.32 5.68 6.64 5 8 C2.69 7.67 0.38 7.34 -2 7 C-1.125 2.25 -1.125 2.25 0 0 Z " fill="#2ABEF7" transform="translate(306,192)"/>
<path d="M0 0 C0.99 0.495 0.99 0.495 2 1 C2 1.66 2 2.32 2 3 C2.66 3 3.32 3 4 3 C4.33 5.31 4.66 7.62 5 10 C6.32 10.33 7.64 10.66 9 11 C9 11.66 9 12.32 9 13 C4.25 11.125 4.25 11.125 2 10 C1.3671875 7.71484375 1.3671875 7.71484375 0.875 4.9375 C0.70742188 4.01839844 0.53984375 3.09929687 0.3671875 2.15234375 C0.24601562 1.44207031 0.12484375 0.73179687 0 0 Z " fill="#03202D" transform="translate(305,182)"/>
<path d="M0 0 C2.31 0 4.62 0 7 0 C7.144375 0.763125 7.28875 1.52625 7.4375 2.3125 C7.9632594 5.08172908 7.9632594 5.08172908 9 8 C8.01 8 7.02 8 6 8 C4.39453125 6.25 4.39453125 6.25 2.8125 4 C2.28269531 3.2575 1.75289063 2.515 1.20703125 1.75 C0.80871094 1.1725 0.41039062 0.595 0 0 Z " fill="#022327" transform="translate(279,138)"/>
<path d="M0 0 C-0.33 0.99 -0.66 1.98 -1 3 C-6.45860738 3 -11.61526763 2.97904225 -17 2 C-17 1.67 -17 1.34 -17 1 C-11.27959989 0.1679418 -5.77759884 -0.12036664 0 0 Z " fill="#40A5F6" transform="translate(195,101)"/>
<path d="M0 0 C0.99 0.33 1.98 0.66 3 1 C3.66 4.3 4.32 7.6 5 11 C2 10 2 10 0 7 C-0.66 6.67 -1.32 6.34 -2 6 C-1.34 5.01 -0.68 4.02 0 3 C0 2.01 0 1.02 0 0 Z " fill="#1DD2F7" transform="translate(297,169)"/>
<path d="M0 0 C0.66 0.33 1.32 0.66 2 1 C2 3.97 2 6.94 2 10 C1.34 10 0.68 10 0 10 C-1.38938077 8.03852126 -2.7260411 6.03833424 -4 4 C-2.68 2.68 -1.36 1.36 0 0 Z " fill="#2AC1FA" transform="translate(263,149)"/>
<path d="M0 0 C1.65 0 3.3 0 5 0 C5.66 1.32 6.32 2.64 7 4 C6.01 4.99 5.02 5.98 4 7 C2 5.1875 2 5.1875 0 3 C0 2.01 0 1.02 0 0 Z " fill="#2FBBF4" transform="translate(234,132)"/>
<path d="M0 0 C0.12375 0.639375 0.2475 1.27875 0.375 1.9375 C0.684375 2.9584375 0.684375 2.9584375 1 4 C1.66 4.33 2.32 4.66 3 5 C3 5.66 3 6.32 3 7 C1.5164999 6.57742724 0.03823576 6.13643678 -1.4375 5.6875 C-2.26121094 5.44386719 -3.08492187 5.20023438 -3.93359375 4.94921875 C-4.61550781 4.63597656 -5.29742187 4.32273438 -6 4 C-6.33 3.01 -6.66 2.02 -7 1 C-4.50935112 0.31292445 -2.62113708 0 0 0 Z " fill="#47B7EF" transform="translate(235,133)"/>
<path d="M0 0 C2.9375 1.625 2.9375 1.625 6 4 C6.875 7.25 6.875 7.25 7 10 C5.68 10 4.36 10 3 10 C2.87625 9.21625 2.7525 8.4325 2.625 7.625 C2.20882007 4.85942178 2.20882007 4.85942178 0 3 C0 2.01 0 1.02 0 0 Z " fill="#150612" transform="translate(118,276)"/>
<path d="M0 0 C0.6875 1.8125 0.6875 1.8125 1 4 C-0.1875 5.75 -0.1875 5.75 -2 7 C-3.32 7 -4.64 7 -6 7 C-6 6.34 -6 5.68 -6 5 C-5.34 5 -4.68 5 -4 5 C-4 3.68 -4 2.36 -4 1 C-2 0 -2 0 0 0 Z " fill="#B81BF7" transform="translate(126,137)"/>
<path d="M0 0 C4.77609498 1.64178265 8.79382904 4.26546702 13 7 C12.01 7.33 11.02 7.66 10 8 C9.34 7.67 8.68 7.34 8 7 C8 6.34 8 5.68 8 5 C5.36 4.67 2.72 4.34 0 4 C0 2.68 0 1.36 0 0 Z " fill="#36B5DA" transform="translate(307,192)"/>
<path d="M0 0 C0.99 0 1.98 0 3 0 C5 3 5 3 4.625 5.1875 C4.41875 5.785625 4.2125 6.38375 4 7 C3.01 7 2.02 7 1 7 C0.67 4.69 0.34 2.38 0 0 Z " fill="#31B4F6" transform="translate(276,173)"/>
<path d="M0 0 C2.97246802 2.54782974 4.41535288 5.45340883 6 9 C6 9.66 6 10.32 6 11 C3.17621961 9.96461386 2.1756855 9.33380245 0.75 6.625 C0 4 0 4 0 0 Z " fill="#23C5D8" transform="translate(294,159)"/>
<path d="M0 0 C0.33 0 0.66 0 1 0 C1.125 7.75 1.125 7.75 0 10 C-0.039992 11.99960012 -0.04346799 14.00047242 0 16 C-0.33 16 -0.66 16 -1 16 C-1.22384382 14.27277272 -1.42839969 12.54303993 -1.625 10.8125 C-1.74101563 9.84957031 -1.85703125 8.88664063 -1.9765625 7.89453125 C-2.00194942 4.75924677 -1.34359283 2.80513465 0 0 Z " fill="#C72DF2" transform="translate(111,153)"/>
<path d="M0 0 C0.33 0.99 0.66 1.98 1 3 C-2.99000166 4.42500059 -6.80530429 5.40075776 -11 6 C-8.24029211 2.78034079 -4.3526723 0 0 0 Z " fill="#F4E1FC" transform="translate(168,138)"/>
<path d="M0 0 C-0.33 1.65 -0.66 3.3 -1 5 C-1.99 5 -2.98 5 -4 5 C-4 4.01 -4 3.02 -4 2 C-6.64 2.33 -9.28 2.66 -12 3 C-7.85930434 0.85826087 -4.68855996 -0.12671784 0 0 Z " fill="#210527" transform="translate(256,292)"/>
<path d="M0 0 C6.41923331 0.29112169 10.62100206 1.45215029 16 5 C14 6 14 6 10.7421875 5.00390625 C9.4502948 4.53110016 8.16131362 4.05028031 6.875 3.5625 C6.21628906 3.31951172 5.55757812 3.07652344 4.87890625 2.82617188 C3.25008662 2.22421679 1.62470425 1.61297588 0 1 C0 0.67 0 0.34 0 0 Z " fill="#C85CA9" transform="translate(138,288)"/>
<path d="M0 0 C4.29 0.33 8.58 0.66 13 1 C11.515 2.485 11.515 2.485 10 4 C7.3125 3.6875 7.3125 3.6875 5 3 C4.67 3.66 4.34 4.32 4 5 C3.01 4.67 2.02 4.34 1 4 C0.67 2.68 0.34 1.36 0 0 Z " fill="#DF49D9" transform="translate(180,274)"/>
<path d="M0 0 C3.7726764 0.53895377 5.68212991 1.99535358 8 5 C7.60546875 7.13671875 7.60546875 7.13671875 7 9 C5.83037314 7.69013727 4.66437056 6.3770374 3.5 5.0625 C2.8503125 4.33160156 2.200625 3.60070312 1.53125 2.84765625 C0 1 0 1 0 0 Z " fill="#FADEFA" transform="translate(128,247)"/>
<path d="M0 0 C1.65 0.33 3.3 0.66 5 1 C5 2.98 5 4.96 5 7 C4.01 7 3.02 7 2 7 C0.25 5.1875 0.25 5.1875 -1 3 C-0.67 2.01 -0.34 1.02 0 0 Z " fill="#252933" transform="translate(163,229)"/>
<path d="M0 0 C0.33 1.32 0.66 2.64 1 4 C0.01 4.33 -0.98 4.66 -2 5 C-2.474375 5.99 -2.94875 6.98 -3.4375 8 C-5 11 -5 11 -7.1875 11.875 C-8.0846875 11.936875 -8.0846875 11.936875 -9 12 C-6.53974941 7.48954059 -3.39717963 3.81495577 0 0 Z " fill="#952DC1" transform="translate(121,138)"/>
<path d="M0 0 C7.23842593 0.36805556 7.23842593 0.36805556 10.9375 3.4375 C13 6 13 6 14 8 C11.625 7.75 11.625 7.75 9 7 C8.71125 6.360625 8.4225 5.72125 8.125 5.0625 C7.06414789 2.56660199 7.06414789 2.56660199 3.375 1.75 C1.704375 1.37875 1.704375 1.37875 0 1 C0 0.67 0 0.34 0 0 Z " fill="#411034" transform="translate(104,268)"/>
<path d="M0 0 C0 1.65 0 3.3 0 5 C-0.78375 5.268125 -1.5675 5.53625 -2.375 5.8125 C-5.28114923 6.84814432 -5.28114923 6.84814432 -7 10 C-7.99 9.67 -8.98 9.34 -10 9 C-8.52386015 7.49702124 -7.04400843 5.99768715 -5.5625 4.5 C-4.73878906 3.6646875 -3.91507813 2.829375 -3.06640625 1.96875 C-1 0 -1 0 0 0 Z " fill="#FBD8FE" transform="translate(148,150)"/>
<path d="M0 0 C0.33 0 0.66 0 1 0 C1 2.31 1 4.62 1 7 C-3.95 9.475 -3.95 9.475 -9 12 C-9 11.01 -9 10.02 -9 9 C-7.35 8.67 -5.7 8.34 -4 8 C-4 7.34 -4 6.68 -4 6 C-3.34 6 -2.68 6 -2 6 C-1.34 4.02 -0.68 2.04 0 0 Z " fill="#190841" transform="translate(148,111)"/>
<path d="M0 0 C0.99 0.33 1.98 0.66 3 1 C2.67 2.32 2.34 3.64 2 5 C-0.64 5 -3.28 5 -6 5 C-6 4.34 -6 3.68 -6 3 C-4.68 3 -3.36 3 -2 3 C-2 2.34 -2 1.68 -2 1 C-1.34 0.67 -0.68 0.34 0 0 Z " fill="#AE1DF4" transform="translate(262,259)"/>
<path d="M0 0 C0.33 2.64 0.66 5.28 1 8 C-0.32 7.67 -1.64 7.34 -3 7 C-3.33 5.02 -3.66 3.04 -4 1 C-1 0 -1 0 0 0 Z " fill="#EF4EDF" transform="translate(117,224)"/>
<path d="M0 0 C4.12751449 0.60698743 7.3321148 2.03810791 11 4 C10.01 4.33 9.02 4.66 8 5 C7.67 5.66 7.34 6.32 7 7 C5.83040013 6.02433888 4.66438823 5.044375 3.5 4.0625 C2.8503125 3.51722656 2.200625 2.97195312 1.53125 2.41015625 C1.0259375 1.94480469 0.520625 1.47945312 0 1 C0 0.67 0 0.34 0 0 Z " fill="#E0F8FE" transform="translate(229,137)"/>
<path d="M0 0 C3.11954738 0.33724836 4.6209965 0.6209965 6.875 2.875 C7.24625 3.57625 7.6175 4.2775 8 5 C7.67 5.99 7.34 6.98 7 8 C5.83035398 6.8572081 4.66435444 5.71068285 3.5 4.5625 C2.8503125 3.92441406 2.200625 3.28632813 1.53125 2.62890625 C0 1 0 1 0 0 Z " fill="#022A34" transform="translate(271,130)"/>
<path d="M0 0 C0.99 0.33 1.98 0.66 3 1 C1.7934375 1.9590625 1.7934375 1.9590625 0.5625 2.9375 C-2.75412763 6.90127449 -2.87952582 9.97294083 -3 15 C-3.33 15 -3.66 15 -4 15 C-4.63019694 4.84682713 -4.63019694 4.84682713 -2 1.3125 C-1.34 0.879375 -0.68 0.44625 0 0 Z " fill="#2F0B2F" transform="translate(81,196)"/>
<path d="M0 0 C4 6 4 6 5 9 C4.0625 11.6875 4.0625 11.6875 3 14 C2.67 14 2.34 14 2 14 C1.66179834 12.4176994 1.32964061 10.83410625 1 9.25 C0.814375 8.36828125 0.62875 7.4865625 0.4375 6.578125 C0 4 0 4 0 0 Z " fill="#5DA0E7" transform="translate(280,190)"/>
<path d="M0 0 C0 4.1041911 -1.45843064 5.84021107 -4 9 C-6.75 9.875 -6.75 9.875 -9 10 C-8.06409496 8.8944811 -7.12620142 7.79064547 -6.1875 6.6875 C-5.66542969 6.07261719 -5.14335938 5.45773438 -4.60546875 4.82421875 C-3.12827531 3.14575321 -1.59960869 1.56117966 0 0 Z " fill="#8824BC" transform="translate(131,128)"/>
<path d="M0 0 C3.3 1.65 6.6 3.3 10 5 C10 5.33 10 5.66 10 6 C8.02 6.33 6.04 6.66 4 7 C4 6.34 4 5.68 4 5 C3.34 5 2.68 5 2 5 C2 4.01 2 3.02 2 2 C1.34 2 0.68 2 0 2 C0 1.34 0 0.68 0 0 Z " fill="#1ED6DF" transform="translate(252,118)"/>
<path d="M0 0 C1.61949011 2.57213134 2.04408751 3.67669159 1.625 6.75 C1.41875 7.4925 1.2125 8.235 1 9 C0.01 8.67 -0.98 8.34 -2 8 C-1.814375 7.21625 -1.62875 6.4325 -1.4375 5.625 C-0.74037734 3.02910225 -0.74037734 3.02910225 -2 1 C-1.34 0.67 -0.68 0.34 0 0 Z " fill="#538DF4" transform="translate(315,231)"/>
<path d="M0 0 C1.65 0 3.3 0 5 0 C3.35 3.3 1.7 6.6 0 10 C-1.6415049 6.7169902 -0.51888624 3.57454967 0 0 Z " fill="#B943D7" transform="translate(125,170)"/>
<path d="M0 0 C1.60031344 3.20062687 0.03173691 5.72271806 -1 9 C-2.32 9 -3.64 9 -5 9 C-3.7508258 5.54074837 -2.32472205 2.85306797 0 0 Z " fill="#A833C5" transform="translate(110,152)"/>
<path d="M0 0 C0 1.98 0 3.96 0 6 C-2 5 -4 4 -6 3 C-6 2.34 -6 1.68 -6 1 C-3 0 -3 0 0 0 Z " fill="#2ABFF6" transform="translate(256,144)"/>
<path d="M0 0 C2.64 0.66 5.28 1.32 8 2 C8 4.97 8 7.94 8 11 C7.67 11 7.34 11 7 11 C6.773125 9.906875 6.54625 8.81375 6.3125 7.6875 C5.35055561 3.87265531 5.35055561 3.87265531 2.375 2.125 C1.59125 1.75375 0.8075 1.3825 0 1 C0 0.67 0 0.34 0 0 Z " fill="#1DE0E8" transform="translate(243,107)"/>
<path d="M0 0 C0.99 0.66 1.98 1.32 3 2 C4.65549531 2.38499891 6.3222433 2.72793135 8 3 C8 4.32 8 5.64 8 7 C4.00499382 5.6302836 1.19990508 3.74277578 -2 1 C-1.34 0.67 -0.68 0.34 0 0 Z " fill="#D260B1" transform="translate(126,279)"/>
<path d="M0 0 C-0.66 0 -1.32 0 -2 0 C-2 0.66 -2 1.32 -2 2 C-4.5 3.625 -4.5 3.625 -7 5 C-7.99 4.34 -8.98 3.68 -10 3 C-8.68 2.67 -7.36 2.34 -6 2 C-6 1.34 -6 0.68 -6 0 C-3.50907189 -1.24546405 -2.58919267 -0.7767578 0 0 Z " fill="#BB3AE5" transform="translate(248,267)"/>
<path d="M0 0 C1.1446875 0.3403125 1.1446875 0.3403125 2.3125 0.6875 C0.3125 3.6875 0.3125 3.6875 -2.1875 4.25 C-3.0125 4.394375 -3.8375 4.53875 -4.6875 4.6875 C-5.3475 5.3475 -6.0075 6.0075 -6.6875 6.6875 C-6.28750283 4.36751641 -5.78182121 2.82426576 -4.4375 0.875 C-2.6875 -0.3125 -2.6875 -0.3125 0 0 Z " fill="#8F3FE6" transform="translate(293.6875,264.3125)"/>
<path d="M0 0 C1.37562854 1.28965176 2.70766393 2.62689293 4 4 C4 4.66 4 5.32 4 6 C3.34 6 2.68 6 2 6 C1.67 5.67 1.34 5.34 1 5 C1 5.99 1 6.98 1 8 C0.34 8 -0.32 8 -1 8 C-1.125 2.25 -1.125 2.25 0 0 Z " fill="#7859F7" transform="translate(306,256)"/>
<path d="M0 0 C1.32 0.33 2.64 0.66 4 1 C-0.455 3.97 -0.455 3.97 -5 7 C-5.33 6.01 -5.66 5.02 -6 4 C-4.02 3.01 -2.04 2.02 0 1 C0 0.67 0 0.34 0 0 Z " fill="#F6D3FC" transform="translate(261,255)"/>
<path d="M0 0 C0.66 0 1.32 0 2 0 C3.6875 2.3125 3.6875 2.3125 5 5 C4.67 5.99 4.34 6.98 4 8 C3.34 8 2.68 8 2 8 C2 7.01 2 6.02 2 5 C1.34 5 0.68 5 0 5 C0 3.35 0 1.7 0 0 Z " fill="#FC60D3" transform="translate(88,255)"/>
<path d="M0 0 C1.32 0 2.64 0 4 0 C4 1.32 4 2.64 4 4 C1.36 4 -1.28 4 -4 4 C-3.67 3.34 -3.34 2.68 -3 2 C-2.01 2 -1.02 2 0 2 C0 1.34 0 0.68 0 0 Z " fill="#EA4FD9" transform="translate(86,196)"/>
<path d="M0 0 C1.11375 0.598125 2.2275 1.19625 3.375 1.8125 C4.00148437 2.14894531 4.62796875 2.48539063 5.2734375 2.83203125 C7 4 7 4 9 7 C8.01 7.495 8.01 7.495 7 8 C7 7.34 7 6.68 7 6 C6.030625 5.7525 5.06125 5.505 4.0625 5.25 C3.051875 4.8375 2.04125 4.425 1 4 C0.125 1.875 0.125 1.875 0 0 Z " fill="#D1F7FE" transform="translate(248,147)"/>
<path d="M0 0 C0.66 0 1.32 0 2 0 C0.6062718 4.43458973 -1.60582235 6.87378374 -5 10 C-5 8.68 -5 7.36 -5 6 C-4.01 6 -3.02 6 -2 6 C-1.855625 5.195625 -1.71125 4.39125 -1.5625 3.5625 C-1 1 -1 1 0 0 Z " fill="#2E053B" transform="translate(113,144)"/>
<path d="M0 0 C3.63094642 2.64960955 5.89851796 5.01824456 8 9 C7.01 9.495 7.01 9.495 6 10 C6 9.34 6 8.68 6 8 C5.34 8 4.68 8 4 8 C4 7.01 4 6.02 4 5 C2.68 4.67 1.36 4.34 0 4 C0 2.68 0 1.36 0 0 Z " fill="#23CDD3" transform="translate(280,140)"/>
<path d="M0 0 C0.99 0.33 1.98 0.66 3 1 C0.19195732 3.96404505 -2.18315774 6.44499019 -6 8 C-6 7.01 -6 6.02 -6 5 C-5.01 5 -4.02 5 -3 5 C-2.67 4.01 -2.34 3.02 -2 2 C-1.34 2 -0.68 2 0 2 C0 1.34 0 0.68 0 0 Z " fill="#180426" transform="translate(135,122)"/>
<path d="M0 0 C2 1 2 1 4 4 C3.67 4.99 3.34 5.98 3 7 C1.68 7 0.36 7 -1 7 C-1.04254356 5.00045254 -1.04080783 2.99958364 -1 1 C-0.67 0.67 -0.34 0.34 0 0 Z " fill="#EF59D9" transform="translate(121,241)"/>
<path d="M0 0 C2.6875 0.3125 2.6875 0.3125 5 1 C4.01 1.33 3.02 1.66 2 2 C2 2.66 2 3.32 2 4 C0.02 4.99 0.02 4.99 -2 6 C-2.33 5.01 -2.66 4.02 -3 3 C-1.8125 1.4375 -1.8125 1.4375 0 0 Z " fill="#F6FCF4" transform="translate(152,148)"/>
<path d="M0 0 C0.99 0.33 1.98 0.66 3 1 C3 2.32 3 3.64 3 5 C0.50907189 6.24546405 -0.41080733 5.7767578 -3 5 C-3 3 -3 3 -1.5 1.375 C-1.005 0.92125 -0.51 0.4675 0 0 Z " fill="#F564CF" transform="translate(141,283)"/>
<path d="M0 0 C0.33 0 0.66 0 1 0 C1.08096803 1.45742463 1.13917774 2.91612807 1.1875 4.375 C1.22230469 5.18710938 1.25710937 5.99921875 1.29296875 6.8359375 C1.19628906 7.55007812 1.09960938 8.26421875 1 9 C0.01 9.66 -0.98 10.32 -2 11 C-1.125 3.375 -1.125 3.375 0 0 Z " fill="#B843BF" transform="translate(96,179)"/>
<path d="M0 0 C0.33 0.66 0.66 1.32 1 2 C1.66 2 2.32 2 3 2 C3 3.65 3 5.3 3 7 C1.68 6.67 0.36 6.34 -1 6 C-1.042721 4.33388095 -1.04063832 2.66617115 -1 1 C-0.67 0.67 -0.34 0.34 0 0 Z " fill="#10E1FA" transform="translate(291,157)"/>
<path d="M0 0 C-2.55068845 2.35448165 -3.71017358 2.98327924 -7.25 3.1875 C-8.1575 3.125625 -9.065 3.06375 -10 3 C-8 0 -8 0 -5.5625 -0.75 C-3 -1 -3 -1 0 0 Z " fill="#6F67F1" transform="translate(182,131)"/>
<path d="M0 0 C2.31 0.33 4.62 0.66 7 1 C6.34 2.32 5.68 3.64 5 5 C4.01 4.67 3.02 4.34 2 4 C2 3.34 2 2.68 2 2 C1.34 2 0.68 2 0 2 C0 1.34 0 0.68 0 0 Z " fill="#36B1F9" transform="translate(222,129)"/>
<path d="M0 0 C-3.82517513 2.39073445 -7.59665524 2.55966552 -12 3 C-8.16772312 -1.19725563 -5.42060446 -1.08412089 0 0 Z " fill="#797EE5" transform="translate(190,131)"/>
<path d="M0 0 C2.9375 0.8125 2.9375 0.8125 6 2 C6.33 2.99 6.66 3.98 7 5 C6.34 5.66 5.68 6.32 5 7 C3.29115995 5.37660195 1.62553283 3.70680947 0 2 C0 1.34 0 0.68 0 0 Z " fill="#292D35" transform="translate(231,227)"/>
<path d="M0 0 C0 0.99 0 1.98 0 3 C-2.64 3.33 -5.28 3.66 -8 4 C-5.29881977 1.17603885 -4.05589853 0 0 0 Z " fill="#B549B3" transform="translate(94,192)"/>
<path d="M0 0 C1 2 1 2 0.25 5.5625 C-0.1625 6.696875 -0.575 7.83125 -1 9 C-1.99 9.33 -2.98 9.66 -4 10 C-3.52449439 8.51965236 -3.04448784 7.04074979 -2.5625 5.5625 C-2.29566406 4.73878906 -2.02882813 3.91507813 -1.75390625 3.06640625 C-1 1 -1 1 0 0 Z " fill="#F7D2FC" transform="translate(128,173)"/>
<path d="M0 0 C1.74627478 2.61941217 2.38722388 4.03824877 3 7 C1.68 7 0.36 7 -1 7 C-1 4.37886292 -0.68707555 2.49064888 0 0 Z " fill="#CE3CE2" transform="translate(102,168)"/>
<path d="M0 0 C0.66 0.33 1.32 0.66 2 1 C1.195625 1.45375 0.39125 1.9075 -0.4375 2.375 C-3.08856572 3.74725665 -3.08856572 3.74725665 -4 6 C-4.66 6 -5.32 6 -6 6 C-6.33 6.66 -6.66 7.32 -7 8 C-6.875 5.6875 -6.875 5.6875 -6 3 C-3.0625 1.125 -3.0625 1.125 0 0 Z " fill="#625EBF" transform="translate(156,105)"/>
<path d="M0 0 C0.33 0.99 0.66 1.98 1 3 C-1.35438733 4.42944945 -2.48032433 5.08661261 -5.25 4.625 C-5.8275 4.41875 -6.405 4.2125 -7 4 C-4.69 2.68 -2.38 1.36 0 0 Z " fill="#300442" transform="translate(276,280)"/>
<path d="M0 0 C0.66 0.99 1.32 1.98 2 3 C1.34 3 0.68 3 0 3 C0 3.99 0 4.98 0 6 C-4.875 4.25 -4.875 4.25 -6 2 C-4.02 2 -2.04 2 0 2 C0 1.34 0 0.68 0 0 Z " fill="#2A3039" transform="translate(182,244)"/>
<path d="M0 0 C-0.33 1.32 -0.66 2.64 -1 4 C-3.31 4 -5.62 4 -8 4 C-2.7826087 0 -2.7826087 0 0 0 Z " fill="#30353E" transform="translate(173,225)"/>
<path d="M0 0 C1.32 0.33 2.64 0.66 4 1 C2.515 4.465 2.515 4.465 1 8 C0.67 8 0.34 8 0 8 C0 5.36 0 2.72 0 0 Z " fill="#6C6EF4" transform="translate(283,224)"/>
<path d="M0 0 C0.66 1.32 1.32 2.64 2 4 C0.68 4 -0.64 4 -2 4 C-2.33 5.32 -2.66 6.64 -3 8 C-3.66 8 -4.32 8 -5 8 C-3.8141763 4.62496331 -2.72426311 2.35277269 0 0 Z " fill="#F2C5FA" transform="translate(137,160)"/>
<path d="M0 0 C1.65 0 3.3 0 5 0 C4.34 1.32 3.68 2.64 3 4 C1.68 3.67 0.36 3.34 -1 3 C-0.67 2.01 -0.34 1.02 0 0 Z " fill="#07E8F6" transform="translate(257,124)"/>
<path d="M0 0 C-2.95183101 2.95183101 -5.95511947 3.08663988 -10 4 C-10 3.34 -10 2.68 -10 2 C-6.3558226 -0.4294516 -4.28758728 -0.16179575 0 0 Z " fill="#578CEA" transform="translate(178,102)"/>
<path d="M0 0 C-1.28965176 1.37562854 -2.62689293 2.70766393 -4 4 C-4.66 4 -5.32 4 -6 4 C-6 3.34 -6 2.68 -6 2 C-6.66 1.67 -7.32 1.34 -8 1 C-2.25 -1.125 -2.25 -1.125 0 0 Z " fill="#F866D0" transform="translate(130,276)"/>
<path d="M0 0 C1.65 0 3.3 0 5 0 C2.63707344 2.52588702 1.33537489 3.88820837 -2 5 C-2 4.01 -2 3.02 -2 2 C-1.34 2 -0.68 2 0 2 C0 1.34 0 0.68 0 0 Z " fill="#20252D" transform="translate(222,244)"/>
<path d="M0 0 C3.875 1.875 3.875 1.875 5 3 C5.04063832 4.66617115 5.042721 6.33388095 5 8 C2.74754119 5.31158141 1.11786042 3.35358125 0 0 Z " fill="#00252C" transform="translate(292,154)"/>
<path d="M0 0 C3.00765886 2.84936103 5.27845212 5.23511958 7 9 C5.82460004 8.07347299 4.65989423 7.13336613 3.5 6.1875 C2.52546875 5.40439453 2.52546875 5.40439453 1.53125 4.60546875 C0 3 0 3 0 0 Z " fill="#41B9E0" transform="translate(256,150)"/>
</svg>
