<svg width="54" height="54" viewBox="0 0 54 54" fill="none" xmlns="http://www.w3.org/2000/svg">
<g clip-path="url(#clip0_6026_38443)">
<path d="M26.8884 4.19967e-06C25.1454 0.000768721 23.5448 0.962337 22.7255 2.50082C21.9063 4.0393 22.002 5.90409 22.9743 7.3507L24.9896 5.33822C24.923 5.13746 24.8894 4.92723 24.8901 4.71571C24.8901 3.6168 25.7809 2.72596 26.8798 2.72596C27.9787 2.72596 28.8696 3.6168 28.8696 4.71571C28.8696 5.81462 27.9787 6.70546 26.8798 6.70546C26.6693 6.70592 26.46 6.67232 26.2602 6.60597L24.2477 8.61846C25.9236 9.75511 28.1381 9.69489 29.7498 8.46885C31.3614 7.24281 32.0104 5.12469 31.3622 3.20623C30.714 1.28776 28.9134 -0.00268647 26.8884 4.19967e-06Z" fill="#34A853"/>
<path d="M25.0119 13.7434C25.015 12.1504 24.4991 10.5998 23.5423 9.32617L20.9272 11.9384C21.7451 13.4343 21.4508 15.2935 20.2109 16.4637L21.6322 19.9372C23.738 18.581 25.0109 16.2482 25.0119 13.7434Z" fill="#FBBC04"/>
<path d="M17.701 17.4928H17.6328C16.0287 17.493 14.602 16.4734 14.0826 14.9559C13.5631 13.4383 14.0658 11.7583 15.3334 10.7755C16.601 9.79265 18.3532 9.72432 19.6936 10.6055L22.2831 8.01594C19.7651 5.97457 16.2092 5.8171 13.5206 7.6279C10.832 9.4387 9.64141 12.793 10.5866 15.8937C11.5319 18.9943 14.3912 21.114 17.6328 21.117C18.1329 21.1172 18.6319 21.0677 19.1222 20.9692L17.701 17.4928Z" fill="#EA4335"/>
<path d="M26.9872 20.497C25.3505 20.4953 23.7225 20.7338 22.155 21.2048L24.2272 26.2673C25.1292 26.0437 26.0551 25.9311 26.9844 25.9318C32.3691 25.9334 37.003 29.7383 38.0523 35.0198C39.1016 40.3013 36.2742 45.5886 31.299 47.6484C26.3238 49.7083 20.5864 47.967 17.5953 43.4895C14.6041 39.012 15.1921 33.0451 18.9998 29.2377C19.7944 28.4456 20.7014 27.7751 21.6917 27.2479L19.6422 22.1996C12.0029 25.941 8.38586 34.8182 11.2352 42.8332C14.0845 50.8481 22.4935 55.4501 30.7802 53.5296C39.0669 51.6092 44.5943 43.7775 43.6276 35.3262C42.6609 26.875 35.5078 20.4937 27.0014 20.4941L26.9872 20.497Z" fill="#4285F4"/>
</g>
<defs>
<clipPath id="clip0_6026_38443">
<rect width="54" height="54" fill="white"/>
</clipPath>
</defs>
</svg>
