<?xml version="1.0" encoding="UTF-8"?>
<svg version="1.1" xmlns="http://www.w3.org/2000/svg" width="225" height="225">
<path d="M0 0 C74.25 0 148.5 0 225 0 C225 74.25 225 148.5 225 225 C150.75 225 76.5 225 0 225 C0 150.75 0 76.5 0 0 Z " fill="#010101" transform="translate(0,0)"/>
<path d="M0 0 C2.17132903 1.83356673 3.9680018 3.6110984 5.875 5.6875 C8.43364155 8.61732874 8.43364155 8.61732874 11.125 8.4375 C12.011875 8.086875 12.89875 7.73625 13.8125 7.375 C15.31029504 6.86843312 16.81052575 6.36903781 18.3125 5.875 C19.0446875 5.6171875 19.776875 5.359375 20.53125 5.09375 C27.74075551 2.82226196 36.61398309 1.80462664 43.8125 4.5625 C47.22572187 6.62465488 48.93089093 7.83757495 50.8125 11.375 C51.97279218 19.02238026 50.47790611 25.59012332 46.0546875 31.87109375 C44.35160577 34.08096296 42.6129476 36.24405928 40.8125 38.375 C41.09867187 38.93574219 41.38484375 39.49648437 41.6796875 40.07421875 C46.47482382 49.81330597 47.33255787 57.67047549 46.8125 68.375 C47.54855469 68.54515625 48.28460938 68.7153125 49.04296875 68.890625 C55.33669874 70.45366494 60.24237106 71.70338722 64.125 77.25 C65.42176208 81.2581737 64.89394877 84.90259714 64.1875 89 C63.79729594 92.51183657 63.79056312 93.58280145 65.8125 96.375 C66.49054688 96.95507812 67.16859375 97.53515625 67.8671875 98.1328125 C70.93124671 101.66447914 70.29647417 104.78600954 70.1328125 109.28125 C68.85228222 121.64929857 61.67744464 132.02255997 52.8125 140.375 C38.81697876 151.63702099 21.30053826 154.40047248 3.8125 153.375 C-11.23881458 151.65710127 -23.70592381 145.22401152 -34.1875 134.375 C-34.78304687 133.76527344 -35.37859375 133.15554687 -35.9921875 132.52734375 C-38.74749554 129.51843771 -40.41132917 126.93331888 -41.875 123.125 C-43.13473513 120.3745783 -43.68655751 119.56285343 -46.5625 118.484375 C-48.47109373 118.07084636 -50.38133039 117.66484265 -52.29296875 117.265625 C-58.57958834 115.33128051 -62.80930428 110.54670235 -66.25 105.125 C-67.85377175 98.70991298 -68.07929114 91.76742327 -66.1875 85.375 C-67.05375 85.00375 -67.05375 85.00375 -67.9375 84.625 C-71.67347363 82.54945909 -73.83141315 80.44326056 -75.1875 76.375 C-76.82089203 59.02355675 -67.65843843 44.89712064 -57.11328125 31.80859375 C-45.76155337 18.22205613 -20.09519053 -10.24460693 0 0 Z " fill="#030303" transform="translate(115.1875,36.625)"/>
<path d="M0 0 C3 0.9375 3 0.9375 4.8125 3.25 C6.97881804 8.15271977 7.2763335 12.87700033 7.5625 18.1875 C7.60568359 18.93257812 7.64886719 19.67765625 7.69335938 20.4453125 C7.79896725 22.275849 7.89994201 24.10665176 8 25.9375 C8.89203125 26.24042969 9.7840625 26.54335937 10.703125 26.85546875 C11.87359375 27.27441406 13.0440625 27.69335938 14.25 28.125 C15.41015625 28.53105469 16.5703125 28.93710938 17.765625 29.35546875 C21.31775354 31.09292293 22.92469673 32.59829023 25 35.9375 C24.5838656 39.84916334 23.04109469 42.230112 20.3125 44.9375 C12.55481786 51.15348633 0.73306601 55.24357447 -9.16015625 54.89453125 C-10.11857422 54.87326172 -11.07699219 54.85199219 -12.06445312 54.83007812 C-14.06740092 54.77657919 -16.07007043 54.71142333 -18.07226562 54.63476562 C-23.68507463 54.43426969 -23.68507463 54.43426969 -28.65234375 56.69921875 C-30.75710034 60.19494492 -30.77423992 62.98480148 -30 66.9375 C-27.55960243 70.86335696 -23.82332324 72.12759816 -19.54296875 73.3984375 C-7.19760255 76.01542757 6.45357159 72.61554733 17 65.9375 C18.72239713 64.37298395 18.72239713 64.37298395 20 62.9375 C19.31035156 63.26363281 18.62070313 63.58976562 17.91015625 63.92578125 C4.4954093 70.1639146 -8.23988145 74.66941717 -22.890625 69.9375 C-25.78058751 68.5674437 -26.88224109 66.89157713 -28 63.9375 C-27.40574219 64.0096875 -26.81148437 64.081875 -26.19921875 64.15625 C-19.77437359 64.87567279 -13.46152127 65.04805835 -7 64.9375 C-8.53720703 64.75574219 -8.53720703 64.75574219 -10.10546875 64.5703125 C-11.46618979 64.40139541 -12.8268645 64.2321048 -14.1875 64.0625 C-14.86103516 63.98386719 -15.53457031 63.90523437 -16.22851562 63.82421875 C-20.10327484 63.33278587 -23.45084723 62.57769099 -27 60.9375 C-26.67 59.9475 -26.34 58.9575 -26 57.9375 C-25.33581055 57.92291748 -24.67162109 57.90833496 -23.98730469 57.89331055 C-6.77057966 57.47080507 6.65915868 56.28251791 22 47.9375 C22.66 47.6075 23.32 47.2775 24 46.9375 C25.85776765 50.07248292 26.20140476 52.31221432 26 55.9375 C27.98 56.4325 27.98 56.4325 30 56.9375 C30.47163284 65.74131305 28.6233597 71.36109637 22.875 78.0625 C13.58994699 87.79538515 2.9423095 93.00575899 -10.6875 93.375 C-20.40308004 93.01212894 -27.7819624 90.53589168 -35 83.9375 C-40.37156825 78.13039919 -42.56528293 72.58055853 -42.5 64.6875 C-42.49790527 63.93895752 -42.49581055 63.19041504 -42.49365234 62.41918945 C-42.31108836 55.97161481 -40.51722307 51.34123362 -37 45.9375 C-36.31781207 44.61204089 -35.64605868 43.28093977 -35 41.9375 C-35.56589844 41.17824219 -36.13179688 40.41898438 -36.71484375 39.63671875 C-37.44832031 38.64285156 -38.18179688 37.64898437 -38.9375 36.625 C-39.66839844 35.63886719 -40.39929688 34.65273437 -41.15234375 33.63671875 C-44.56131739 28.65659024 -44.63209528 23.79550976 -44 17.9375 C-42.23077945 12.5792892 -38.92780308 9.51951499 -34 6.9375 C-29.6151938 6.28745888 -25.2100308 6.4305435 -20.78710938 6.44921875 C-14.60701246 6.35161492 -11.10416512 5.46760646 -6 1.9375 C-3 -0.0625 -3 -0.0625 0 0 Z " fill="#F6F6F6" transform="translate(150,82.0625)"/>
<path d="M0 0 C0.763125 0.928125 1.52625 1.85625 2.3125 2.8125 C4.67625627 5.22249456 4.67625627 5.22249456 6.9609375 4.9453125 C9.34771336 4.40096011 11.66078231 3.72119651 14 3 C24.38552124 0.39510697 34.21506644 -0.96229359 43.8671875 4.5 C47.86894379 7.314422 50.42963843 10.2889153 52 15 C52.91839945 24.18399453 50.99688501 30.81694998 45.75 38.3125 C43.63621789 41.02415741 43.63621789 41.02415741 44 45 C44.62379196 47.05517172 45.29593581 49.09592611 46 51.125 C47.86546932 56.93817025 48.49300853 61.93325619 48 68 C48.72960937 68.10828125 49.45921875 68.2165625 50.2109375 68.328125 C55.65717842 69.6401046 60.25590268 73.15019981 64.0625 77.1875 C66.08502743 83.25508228 65.38337287 89.84175946 64 96 C64.598125 96.226875 65.19625 96.45375 65.8125 96.6875 C68.67735223 98.40641134 69.52320795 100.00918584 71 103 C73.0224956 116.34847098 68.14471514 127.68445496 60.80859375 138.5703125 C50.06932669 152.9975784 34.49451776 159.94024894 17.09765625 162.49609375 C-1.63996404 164.93788431 -20.33007153 160.73651074 -35.39453125 149.171875 C-41.97609249 143.68559607 -48.25668546 137.84403097 -52 130 C-52 129.34 -52 128.68 -52 128 C-52.8353125 127.88785156 -52.8353125 127.88785156 -53.6875 127.7734375 C-63.09584006 126.15240594 -69.53402194 120.66945047 -75 113 C-77.98008025 108.06745338 -78.15541374 104.19741658 -78.375 98.4375 C-78.67556838 91.94650197 -79.29594595 89.35985497 -84 85 C-87.30501994 78.36716688 -86.9658145 70.85388115 -85.1953125 63.7890625 C-75.74719597 37.39949564 -53.43103467 13.18998161 -28.6875 0.5625 C-28.0174292 0.21985107 -27.3473584 -0.12279785 -26.65698242 -0.47583008 C-17.85072022 -4.78396908 -8.51289014 -5.41729373 0 0 Z M-52 25 C-53.18916016 26.09441406 -53.18916016 26.09441406 -54.40234375 27.2109375 C-65.43876176 37.64607438 -79.07717876 55.09824918 -80.203125 70.83984375 C-80.21859375 71.86207031 -80.2340625 72.88429688 -80.25 73.9375 C-80.27578125 74.95714844 -80.3015625 75.97679688 -80.328125 77.02734375 C-79.75452115 82.22392148 -76.86217082 85.6361738 -73 89 C-72.34 89 -71.68 89 -71 89 C-71.15855469 89.54140625 -71.31710938 90.0828125 -71.48046875 90.640625 C-72.9945814 97.51674562 -73.05855497 105.03338367 -69.37890625 111.1875 C-65.15786293 116.73584023 -61.30671958 119.95796519 -54.375 121.25 C-50.94399976 122.02080005 -49.46347412 122.37178389 -47.3515625 125.234375 C-46.42480746 127.1307408 -45.51956967 129.03772952 -44.6328125 130.953125 C-38.22471354 142.91082162 -25.67314357 150.36814961 -13.125 154.375 C5.1961224 159.655524 24.4277561 157.85462374 41.25 148.7578125 C51.81554415 142.00426865 61.50375441 131.11900896 64.58203125 118.640625 C65.35626814 113.74918443 65.6392306 108.92138828 65 104 C62.64573501 101.22877725 62.64573501 101.22877725 60 99 C58.99800914 95.60915677 58.37005057 92.25989886 60 89 C60.43752262 85.14980098 60.14486622 83.2736362 58.3125 79.8125 C53.76773474 74.28508279 48.76939853 73.25359232 42 72 C42.04640625 71.04480469 42.0928125 70.08960937 42.140625 69.10546875 C42.42822524 58.80321729 40.72304337 51.254612 36 42 C36.47050781 41.443125 36.94101563 40.88625 37.42578125 40.3125 C43.38599505 33.0072276 46.73935495 26.94685086 46.4140625 17.3359375 C45.69411934 13.27437135 44.10998677 11.70433632 41 9 C32.78870472 4.59393912 22.13823221 6.87450272 13.59375 9.1484375 C11.01832338 9.90345275 11.01832338 9.90345275 8.90625 11.1640625 C7 12 7 12 4.96875 11.83984375 C2.54388783 10.80542834 1.27502973 9.50293022 -0.5 7.5625 C-3.3477014 4.4623887 -5.73341938 2.38599195 -9.97265625 1.6640625 C-27.225431 1.34158073 -40.33617141 13.74172874 -52 25 Z " fill="#F2F2F2" transform="translate(120,33)"/>
<path d="M0 0 C0.33 0 0.66 0 1 0 C1 35.31 1 70.62 1 107 C-33.98 107 -68.96 107 -105 107 C-105 106.67 -105 106.34 -105 106 C-103.93523437 105.90203125 -102.87046875 105.8040625 -101.7734375 105.703125 C-76.5751826 103.19586503 -54.14634544 93.98344195 -35.70703125 76.43359375 C-34 75 -34 75 -32 75 C-31.74605469 74.42378906 -31.49210937 73.84757812 -31.23046875 73.25390625 C-29.86303842 70.74912118 -28.2779126 69.00330695 -26.3125 66.9375 C-9.63037014 48.44864128 -1.6933491 24.43677932 0 0 Z " fill="#FCFCFC" transform="translate(224,118)"/>
<path d="M0 0 C0.33 0 0.66 0 1 0 C1.07476562 1.00675781 1.14953125 2.01351562 1.2265625 3.05078125 C3.89331035 33.3896044 18.17966947 60.0187442 41 80 C59.04777485 94.9474115 81.82859059 103.32601985 105 105 C105 105.33 105 105.66 105 106 C70.35 106 35.7 106 0 106 C0 71.02 0 36.04 0 0 Z " fill="#FCFCFC" transform="translate(0,119)"/>
<path d="M0 0 C34.98 0 69.96 0 106 0 C106 34.65 106 69.3 106 105 C105.67 105 105.34 105 105 105 C104.91363281 104.04222656 104.82726562 103.08445312 104.73828125 102.09765625 C102.22166429 77.14701555 92.42234238 54.37313359 74.94140625 36.21484375 C73 34 73 34 73 32 C72.40960938 31.73316406 71.81921875 31.46632813 71.2109375 31.19140625 C68.9614096 29.97920482 67.46483983 28.69825169 65.625 26.9375 C48.0306461 11.32332246 23.52927917 1.51661092 0 1 C0 0.67 0 0.34 0 0 Z " fill="#FCFCFC" transform="translate(119,0)"/>
<path d="M0 0 C34.65 0 69.3 0 105 0 C105 0.33 105 0.66 105 1 C103.70449219 1.13535156 102.40898438 1.27070313 101.07421875 1.41015625 C76.95580862 4.21318695 56.29013338 12.97698533 38 29 C37.16597656 29.64066406 36.33195312 30.28132813 35.47265625 30.94140625 C30.97330255 34.68731368 27.57924372 39.39458278 24 44 C23.38769531 44.78503906 22.77539062 45.57007813 22.14453125 46.37890625 C9.13608738 63.97156147 3.46432326 83.56069454 1 105 C0.67 105 0.34 105 0 105 C0 70.35 0 35.7 0 0 Z " fill="#FCFCFC" transform="translate(0,0)"/>
<path d="M0 0 C1.73817767 1.48586156 3.41925743 3.00398573 5.0625 4.59375 C3.56530984 9.10597137 -0.04944909 10.89762666 -3.875 13.28125 C-23.52372203 25.96012127 -38.58189127 41.71980746 -47.4375 63.65625 C-48.9542111 67.13869851 -49.85042722 69.09332858 -53.4375 70.53125 C-54.5925 70.881875 -55.7475 71.2325 -56.9375 71.59375 C-59.78350677 73.65162515 -59.78350677 73.65162515 -61.9375 75.59375 C-65.33277689 74.18880784 -67.24397023 72.89613306 -68.9375 69.59375 C-71.09243032 57.13150235 -63.08249762 44.91319234 -56.24609375 35.1875 C-44.49995933 19.70767553 -29.42790035 3.69792154 -10.3125 -2.21875 C-6.31204751 -2.5345752 -3.34187003 -2.42555083 0 0 Z " fill="#FBFBFB" transform="translate(113.9375,42.40625)"/>
<path d="M0 0 C4.9911095 2.35943358 6.98582915 4.91156838 9 10 C10.6760976 15.75499246 10.59157485 21.10073337 8.8125 26.8125 C6.8216808 30.31359583 5.52231559 32.043158 2 34 C-3.60776208 34.62308468 -7.23066624 34.24720597 -12 31 C-20.12396621 22.79210851 -20.12396621 22.79210851 -20.3125 16.3125 C-20.24321325 10.97742049 -19.22925643 8.24902161 -16 4 C-11.13656203 -0.51604954 -6.35600493 -1.0128268 0 0 Z " fill="#F4F4F4" transform="translate(73,116)"/>
<path d="M0 0 C-0.33 0.99 -0.66 1.98 -1 3 C0.01320313 3.18175781 0.01320313 3.18175781 1.046875 3.3671875 C1.93890625 3.53476563 2.8309375 3.70234375 3.75 3.875 C4.63171875 4.03742188 5.5134375 4.19984375 6.421875 4.3671875 C8.86947744 4.96796264 10.80599857 5.77997117 13 7 C10.44791901 8.2760405 8.83465085 7.69103966 6.09765625 7.26953125 C-6.59402588 5.63875645 -18.48160355 8.6237335 -29.57421875 14.79296875 C-32 16 -32 16 -35 16 C-29.45946696 10.10581592 -23.93860929 5.18284957 -17 1 C-16.34 1.33 -15.68 1.66 -15 2 C-15 2.66 -15 3.32 -15 4 C-14.33613281 3.71125 -13.67226562 3.4225 -12.98828125 3.125 C-12.10527344 2.75375 -11.22226563 2.3825 -10.3125 2 C-9.44238281 1.62875 -8.57226562 1.2575 -7.67578125 0.875 C-4.9427998 -0.01870488 -2.85299066 -0.16449676 0 0 Z " fill="#EDEDED" transform="translate(129,62)"/>
<path d="M0 0 C2.5 1.5 2.5 1.5 4 4 C3.86276037 6.88203233 3.60354915 9.22916073 3 12 C2.814375 12.99 2.62875 13.98 2.4375 15 C2.293125 15.66 2.14875 16.32 2 17 C3.32 17 4.64 17 6 17 C6 17.66 6 18.32 6 19 C3.625 19.1875 3.625 19.1875 1 19 C-1.20914 15.68629 -1.22481553 14.6553979 -1.125 10.8125 C-1.10695313 9.91144531 -1.08890625 9.01039063 -1.0703125 8.08203125 C-1.04710938 7.39496094 -1.02390625 6.70789063 -1 6 C-3.239835 5.04979584 -3.239835 5.04979584 -6 5 C-8.83411155 7.333492 -8.83411155 7.333492 -11 10 C-10.40550688 3.69837297 -10.40550688 3.69837297 -8.875 1.0625 C-5.81547541 -0.6712306 -3.43182475 -0.42145216 0 0 Z " fill="#0B0B0B" transform="translate(71,122)"/>
<path d="M0 0 C2.475 0.495 2.475 0.495 5 1 C5.33 4.3 5.66 7.6 6 11 C4.35 10.67 2.7 10.34 1 10 C-0.1577506 6.52674819 -0.06866652 3.63932552 0 0 Z " fill="#0C0C0C" transform="translate(147,97)"/>
<path d="M0 0 C3.28151257 0.78626341 4.93049074 2.91994937 6.97265625 5.47265625 C6.451875 5.30894531 5.93109375 5.14523438 5.39453125 4.9765625 C2.29696875 4.33206966 -0.61575469 4.37854036 -3.77734375 4.41015625 C-5.53304687 4.42369141 -5.53304687 4.42369141 -7.32421875 4.4375 C-8.21625 4.44910156 -9.10828125 4.46070312 -10.02734375 4.47265625 C-6.83395185 0.89520385 -4.96840505 -0.21359498 0 0 Z " fill="#0C0C0C" transform="translate(127.02734375,106.52734375)"/>
<path d="M0 0 C0.74362793 0.05236816 1.48725586 0.10473633 2.25341797 0.15869141 C3.05908203 0.21025391 3.86474609 0.26181641 4.69482422 0.31494141 C5.95746094 0.41162109 5.95746094 0.41162109 7.24560547 0.51025391 C8.09509766 0.56697266 8.94458984 0.62369141 9.81982422 0.68212891 C11.92073997 0.82376368 14.02077881 0.97829717 16.12060547 1.13525391 C14.12060547 3.13525391 14.12060547 3.13525391 11.76513672 3.36572266 C6.45575071 3.28516645 1.35219674 3.06531458 -3.87939453 2.13525391 C-1.87939453 0.13525391 -1.87939453 0.13525391 0 0 Z " fill="#101010" transform="translate(128.87939453125,144.86474609375)"/>
<path d="M0 0 C0.66 0.33 1.32 0.66 2 1 C-0.25368025 4.321213 -2.70870673 6.69609471 -6 9 C-6.99 9 -7.98 9 -9 9 C-6.03 6.03 -3.06 3.06 0 0 Z " fill="#E4E4E4" transform="translate(103,69)"/>
<path d="M0 0 C0 0.99 0 1.98 0 3 C-1.75 4.38671875 -1.75 4.38671875 -4 5.6875 C-4.7425 6.12449219 -5.485 6.56148437 -6.25 7.01171875 C-6.8275 7.33785156 -7.405 7.66398438 -8 8 C-7.62545523 5.48896743 -7.41636484 4.32350649 -5.37109375 2.734375 C-3.58072917 1.82291667 -1.79036458 0.91145833 0 0 Z " fill="#262626" transform="translate(171,143)"/>
</svg>
