<?xml version="1.0" encoding="UTF-8"?>
<svg version="1.1" xmlns="http://www.w3.org/2000/svg" width="400" height="400">
<path d="M0 0 C132 0 264 0 400 0 C400 132 400 264 400 400 C268 400 136 400 0 400 C0 268 0 136 0 0 Z " fill="#359FF1" transform="translate(0,0)"/>
<path d="M0 0 C0.66 0 1.32 0 2 0 C3.890408 4.87526274 5.60938793 9.78484731 7.25 14.75 C7.47147705 15.37664551 7.6929541 16.00329102 7.92114258 16.64892578 C9.24879419 20.45538818 10.27233293 24.1828255 11.0703125 28.13671875 C13.13579828 37.6527006 13.13579828 37.6527006 19.43798828 44.63427734 C26.00496404 47.73925971 32.92829079 49.46076463 40 51 C45.1594913 52.19700198 50.06780625 53.67267331 55 55.625 C56.134375 56.07101563 57.26875 56.51703125 58.4375 56.9765625 C59.283125 57.31429687 60.12875 57.65203125 61 58 C58.79721784 60.49905268 57.08759471 61.52615875 53.89453125 62.4296875 C53.08322754 62.66534424 52.27192383 62.90100098 51.43603516 63.14379883 C50.57026855 63.38509521 49.70450195 63.6263916 48.8125 63.875 C47.00362335 64.39615451 45.19503311 64.91830405 43.38671875 65.44140625 C42.48228027 65.70066895 41.5778418 65.95993164 40.64599609 66.22705078 C35.5264241 67.72258178 30.45847997 69.38239007 25.3828125 71.01953125 C22.25414778 71.92633823 19.2215974 72.54188294 16 73 C15.93683594 73.58523437 15.87367188 74.17046875 15.80859375 74.7734375 C14.78012631 81.98353555 12.46762865 88.28799923 9.75537109 94.99121094 C6.72259046 102.53277825 4.30320536 110.2094344 2 118 C-1.36528292 116.31735854 -1.79165016 112.45669498 -2.9375 109.0625 C-3.20546387 108.28704834 -3.47342773 107.51159668 -3.74951172 106.71264648 C-5.38847189 101.93109754 -6.89257838 97.12597568 -8.28125 92.265625 C-9.09111714 89.71278292 -10.08983262 87.28211361 -11.125 84.8125 C-12.77965005 80.81481496 -13.62590005 77.30214946 -14 73 C-15.63582031 72.87044922 -15.63582031 72.87044922 -17.3046875 72.73828125 C-22.85651028 72.041558 -27.89499695 70.10560037 -33.125 68.1875 C-40.90974452 65.39115909 -48.63017902 62.83668459 -56.6484375 60.7890625 C-59 60 -59 60 -60 58 C-59.29399658 57.76490723 -58.58799316 57.52981445 -57.8605957 57.28759766 C-52.29480917 55.4333933 -46.73033664 53.57537403 -41.16796875 51.7109375 C-38.84114891 50.93228246 -36.51432598 50.15363669 -34.1875 49.375 C-32.4250293 48.78332031 -32.4250293 48.78332031 -30.62695312 48.1796875 C-25.11226102 46.33626699 -19.61210119 44.52386981 -14 43 C-13.80531128 41.91235352 -13.80531128 41.91235352 -13.60668945 40.80273438 C-13.02765971 38.12778006 -12.25198524 35.71633424 -11.29296875 33.15625 C-10.95531494 32.24528564 -10.61766113 31.33432129 -10.26977539 30.39575195 C-9.91262451 29.44015381 -9.55547363 28.48455566 -9.1875 27.5 C-6.19413352 19.39343812 -3.42683773 11.2951233 -1 3 C-0.67 2.01 -0.34 1.02 0 0 Z " fill="#F9FDFC" transform="translate(248,134)"/>
<path d="M0 0 C132 0 264 0 400 0 C400 132 400 264 400 400 C268 400 136 400 0 400 C0 268 0 136 0 0 Z M5 2 C2.53459047 9.65447197 2.70691645 17.25547995 2.71479797 25.20953369 C2.70907458 26.76451562 2.70248511 28.31949456 2.69510716 29.87446952 C2.67740183 34.13567342 2.67200631 38.39681683 2.66866672 42.65805292 C2.66290728 47.25791749 2.64572135 51.85774132 2.62997437 56.45758057 C2.60095793 65.46290226 2.58250033 74.46821612 2.56763426 83.47357109 C2.5499464 93.95743211 2.52192466 104.44125785 2.49350204 114.92509434 C2.44316628 133.62615556 2.40240171 152.32722549 2.36694336 171.02832031 C2.33251356 189.1832907 2.29107833 207.33822743 2.24194336 225.49316406 C2.23891641 226.611911 2.23588946 227.73065794 2.23277078 228.88330629 C2.22974874 230.00010349 2.2267267 231.11690068 2.22361308 232.26754022 C2.16776396 252.92905457 2.1185623 273.59058016 2.07241303 294.2521183 C2.0559257 301.56406149 2.03744402 308.87599812 2.01833534 316.18793488 C1.99519316 325.09259794 1.97585394 333.99726018 1.96130244 342.90194157 C1.95380254 347.44720138 1.94469754 351.99244275 1.93125343 356.53768921 C1.91901299 360.69486369 1.91141463 364.85201933 1.90759435 369.00920984 C1.90539312 370.51643794 1.90147769 372.02366466 1.89571408 373.53088334 C1.8881619 375.57325162 1.88738578 377.61564164 1.88698292 379.65802383 C1.88464958 380.79436713 1.88231624 381.93071042 1.8799122 383.10148835 C1.8950151 385.91167558 1.8950151 385.91167558 2.56956357 388.20887351 C3 390 3 390 2 393 C2.91884689 395.76011185 2.91884689 395.76011185 5 398 C7.94730444 398.75134665 7.94730444 398.75134665 11.41471672 398.62361908 C12.07176926 398.63028709 12.7288218 398.6369551 13.40578502 398.64382517 C15.62348378 398.66016176 17.8394425 398.64063337 20.05709839 398.62145996 C21.6565538 398.62578589 23.25600455 398.63229908 24.85544312 398.64082003 C29.26302063 398.6578784 33.67003356 398.64358412 38.07758164 398.62430525 C42.82615805 398.60892637 47.57466309 398.62226771 52.32324219 398.63204956 C61.63113443 398.6466042 70.93880917 398.63431345 80.24668084 398.61293632 C91.07943434 398.58896723 101.91213756 398.59063821 112.74491169 398.59324223 C132.07103458 398.59693571 151.39705477 398.57607939 170.72314453 398.54199219 C189.48749386 398.50890792 208.25173537 398.49473197 227.01611328 398.50097656 C247.43302013 398.50773765 267.84988176 398.50528764 288.26678193 398.48561716 C289.34606488 398.48457768 290.42534783 398.48353819 291.53733633 398.4824672 C293.70519776 398.48037626 295.87305918 398.47826528 298.04092058 398.47613403 C305.59629334 398.46923205 313.15165218 398.4685702 320.70702744 398.47001648 C329.91302795 398.4714549 339.11894041 398.46178911 348.3249117 398.43807012 C353.02420649 398.42619383 357.72337842 398.41909576 362.42268753 398.42490768 C366.72208014 398.43006795 371.02121285 398.42143234 375.32056095 398.40163308 C376.87841624 398.39688138 378.43629674 398.39720845 379.99414836 398.40304345 C382.1076105 398.41019633 384.2202047 398.39899196 386.333601 398.38311005 C387.50872808 398.38153884 388.68385517 398.37996764 389.89459217 398.37834883 C393.45500613 397.94456411 395.30745736 397.38584785 398 395 C398.75039242 392.02810423 398.75039242 392.02810423 398.62082577 388.53005123 C398.62719418 387.86703478 398.6335626 387.20401833 398.64012399 386.52091047 C398.65545298 384.28294829 398.634911 382.04672636 398.61473083 379.80882263 C398.61834108 378.19485574 398.62414161 376.58089249 398.63195282 374.96694046 C398.6470644 370.51935861 398.63083869 366.0723492 398.6096462 361.62481225 C398.59221633 356.83335569 398.60352445 352.04195815 398.61131287 347.25048828 C398.62200502 337.85937411 398.6060051 328.46848346 398.5811746 319.07740336 C398.55330115 308.15094581 398.55190181 297.22453405 398.55173159 286.29804683 C398.55054322 266.80875731 398.52554051 247.31957076 398.48706055 227.83032227 C398.44970804 208.89997116 398.42846484 189.96969496 398.42553711 171.03930664 C398.4253543 169.87331035 398.42517149 168.70731405 398.42498314 167.50598454 C398.42471468 165.7600741 398.42471468 165.7600741 398.4244408 163.97889274 C398.4240754 161.63560672 398.42370302 159.29232071 398.42332363 156.94903469 C398.42313812 155.79353039 398.4229526 154.63802609 398.42276147 153.44750651 C398.41919457 135.43319195 398.40074546 117.41888902 398.38083039 99.40458624 C398.37379818 92.86549246 398.36902101 86.32640144 398.36586904 79.78730469 C398.36082827 69.41686832 398.34944913 59.04648422 398.32456874 48.6760748 C398.31331641 43.93464497 398.30523406 39.19326672 398.30570221 34.45182228 C398.306009 30.1174787 398.29715167 25.78325739 398.28073419 21.44894577 C398.27639165 19.87499179 398.27546266 18.30102422 398.27816027 16.72706657 C398.28129429 14.599267 398.27230224 12.47186586 398.26006222 10.34410763 C398.2581113 9.15872809 398.25616037 7.97334856 398.25415033 6.75204843 C398.28236259 3.85630499 398.28236259 3.85630499 396 2 C393.10853488 1.69748397 393.10853488 1.69748397 389.64751244 1.75390434 C388.98505064 1.75159665 388.32258884 1.74928897 387.64005244 1.74691135 C385.39847591 1.74157636 383.15718109 1.75062412 380.9156189 1.75949097 C379.30109516 1.75861961 377.68657169 1.75686993 376.07204974 1.75431263 C371.61851722 1.74982129 367.16508012 1.75786719 362.71155977 1.76786876 C357.91536738 1.77647534 353.11918073 1.77358508 348.32298279 1.77206421 C340.00762015 1.77101358 331.69228881 1.77730869 323.37693405 1.78853989 C311.3542101 1.80476793 299.33150135 1.81000012 287.30876763 1.81251587 C267.80446931 1.81689722 248.30018769 1.83021822 228.79589844 1.84912109 C209.84505294 1.86746853 190.89421196 1.88163059 171.94335938 1.89013672 C170.19227464 1.89092489 170.19227464 1.89092489 168.40581445 1.89172898 C162.54958389 1.89433899 156.6933533 1.89686642 150.83712268 1.89935279 C102.22473691 1.92009898 53.61236927 1.95533645 5 2 Z " fill="#5FB9EA" transform="translate(0,0)"/>
<path d="M0 0 C0.66 0 1.32 0 2 0 C3.57058493 4.37682832 5.13705846 8.75509751 6.69970703 13.13476562 C7.23210143 14.62508016 7.76562555 16.11499161 8.30029297 17.60449219 C9.06774099 19.74309502 9.83114081 21.88310517 10.59375 24.0234375 C10.83436157 24.69120209 11.07497314 25.35896667 11.32287598 26.04696655 C13 30.77225659 13 30.77225659 13 33 C17.71609227 34.42525639 22.43477388 35.83952084 27.16796875 37.20703125 C27.90217041 37.42012939 28.63637207 37.63322754 29.39282227 37.8527832 C30.84700629 38.27442182 32.30189143 38.69365217 33.75756836 39.11010742 C38.60350641 40.51863296 43.29247266 42.18046134 48 44 C47 46 47 46 43.74609375 47.11328125 C42.31156244 47.51896108 40.87521714 47.91825945 39.4375 48.3125 C38.68186768 48.53268799 37.92623535 48.75287598 37.14770508 48.97973633 C33.26759404 50.10923589 29.3864568 51.15832961 25.453125 52.0859375 C24.03124511 52.45310608 22.60936992 52.82029284 21.1875 53.1875 C20.52484131 53.32260986 19.86218262 53.45771973 19.17944336 53.59692383 C16.27560088 54.3797249 14.38233761 55.36681739 12.81591797 57.9609375 C11.72534709 60.60771626 10.84746363 63.26567881 10 66 C9.28733082 68.07582058 8.57376171 70.15133238 7.859375 72.2265625 C7.15313962 74.35834708 6.45004042 76.49117308 5.75 78.625 C5.38648438 79.72457031 5.02296875 80.82414062 4.6484375 81.95703125 C3.76284378 84.63711752 2.88008793 87.31810177 2 90 C1.34 90 0.68 90 0 90 C-0.32613281 89.02160156 -0.65226562 88.04320312 -0.98828125 87.03515625 C-1.19855957 86.40440186 -1.40883789 85.77364746 -1.62548828 85.1237793 C-2.08629528 83.74119454 -2.54690491 82.35854399 -3.00732422 80.97583008 C-3.96529768 78.0995435 -4.92441603 75.22378137 -5.89453125 72.3515625 C-7.72210079 66.93726558 -9.38638336 61.48171892 -11 56 C-11.556875 55.89042969 -12.11375 55.78085937 -12.6875 55.66796875 C-17.12846368 54.74526853 -21.25584464 53.60828299 -25.48046875 51.921875 C-29.76914503 50.35268492 -34.16031534 49.08770326 -38.54125977 47.80151367 C-43.78240837 46.21759163 -43.78240837 46.21759163 -46 44 C-40.21412564 41.82015154 -34.40607717 39.76944489 -28.5 37.9375 C-27.41976562 37.5971875 -26.33953125 37.256875 -25.2265625 36.90625 C-22 36 -22 36 -18.8359375 35.46875 C-15.88123445 34.93861858 -13.65366553 34.40226957 -11 33 C-9.90623691 30.78681966 -9.90623691 30.78681966 -9.45703125 28.109375 C-8.02789119 21.97598224 -6.00821846 16.20877832 -3.8125 10.3125 C-3.44447266 9.31283203 -3.07644531 8.31316406 -2.69726562 7.28320312 C-1.80226758 4.8539227 -0.90314552 2.42626047 0 0 Z " fill="#F6FCFC" transform="translate(136,214)"/>
<path d="M0 0 C49.77704076 -0.04573362 99.5540794 -0.0809969 149.33113702 -0.10213066 C155.20187784 -0.1046322 161.07261862 -0.10722084 166.94335938 -0.10986328 C168.11216513 -0.1103879 169.28097088 -0.11091252 170.485195 -0.11145304 C189.43400606 -0.12016615 208.38280505 -0.13594108 227.33160894 -0.15430559 C246.76105105 -0.17297949 266.19048682 -0.18411139 285.61993754 -0.18817699 C297.61813472 -0.19092727 309.61629777 -0.1996275 321.61448444 -0.21583293 C329.83145533 -0.22636887 338.04840845 -0.22960836 346.26538561 -0.22700275 C351.01288152 -0.22571615 355.76031758 -0.22774921 360.50780296 -0.23841095 C364.84779813 -0.24808691 369.18769276 -0.24867206 373.52769239 -0.24179779 C375.10376263 -0.24094719 376.67983895 -0.24353202 378.25589709 -0.24976636 C380.38656117 -0.25770934 382.51685492 -0.25351781 384.64751244 -0.24609566 C385.83451819 -0.2468551 387.02152394 -0.24761454 388.24449956 -0.24839699 C391 0 391 0 393 2 C393.25415033 4.75204843 393.25415033 4.75204843 393.26006222 8.34410763 C393.26386789 9.00567064 393.26767356 9.66723365 393.27159455 10.34884402 C393.28198121 12.58737145 393.27799131 14.82564863 393.27415466 17.06419373 C393.27860324 18.67658124 393.28391601 20.28896657 393.29002339 21.90134865 C393.30425939 26.34907018 393.30586563 30.79672203 393.30542648 35.24446309 C393.30706975 40.03459261 393.32012696 44.82469299 393.33161926 49.61480713 C393.35450544 60.09596039 393.36239357 70.57709345 393.36744571 81.05826831 C393.37069816 87.59754982 393.37721783 94.13682542 393.3844471 100.67610359 C393.40401678 118.7670787 393.42041915 136.85804831 393.42332363 154.94903469 C393.4235112 156.10754576 393.42369877 157.26605683 393.42389202 158.4596743 C393.42425828 160.80844438 393.42462198 163.15721446 393.42498314 165.50598454 C393.42516595 166.67198083 393.42534876 167.83797713 393.42553711 169.03930664 C393.42580793 170.7904253 393.42580793 170.7904253 393.42608423 172.5769201 C393.42962807 191.50557346 393.45666196 210.43411322 393.494035 229.36272716 C393.53206261 248.77755413 393.5514807 268.19232465 393.55178314 287.60718971 C393.55236892 298.51562808 393.56093844 309.42393091 393.58978081 320.33233452 C393.61422052 329.61858041 393.62162789 338.90464132 393.60653328 348.19091063 C393.59933417 352.93258048 393.60035004 357.67388451 393.62294388 362.41551399 C393.64340701 366.75135135 393.6410536 371.08653873 393.62006903 375.42236806 C393.61654967 376.9957073 393.62158652 378.56909225 393.63577347 380.14237147 C393.65375172 382.27240021 393.64128443 384.40009692 393.62082577 386.53005123 C393.62164022 387.71559312 393.62245468 388.901135 393.62329382 390.1226024 C393 393 393 393 390.8764199 394.88130033 C387.50513599 396.19246293 384.97447665 396.3726641 381.3564558 396.36914349 C380.69897434 396.37260502 380.04149288 396.37606655 379.36408773 396.37963298 C377.15738734 396.387584 374.95134151 396.37410725 372.74467468 396.36076355 C371.1481849 396.36207164 369.55169575 396.36469813 367.95521003 396.36853105 C363.56541697 396.37524729 359.175843 396.36322772 354.78607786 396.34819686 C350.05333355 396.33525717 345.32060187 396.3396245 340.58784485 396.34190369 C332.38710789 396.34347773 324.18644246 396.33405483 315.9857235 396.31719017 C304.12883069 396.2928225 292.27197253 396.28499718 280.4150574 396.2812262 C261.17862217 396.27465821 241.94222507 396.25468761 222.70581055 396.22631836 C204.01798697 396.19878679 185.33017374 396.17754879 166.64233398 396.16479492 C165.49066731 396.16400675 164.33900063 396.16321858 163.15243497 396.16240653 C157.3749367 396.15849145 151.59743836 396.15470032 145.81993997 396.15097082 C97.87993362 396.11986409 49.93996867 396.06701883 2 396 C2 395.34 2 394.68 2 394 C2.81312944 394.00151888 3.62625887 394.00303776 4.4640286 394.00460267 C52.62130411 394.09405069 100.77857083 394.16271368 148.93591274 394.20426132 C154.71394848 394.20926434 160.49198405 394.21444161 166.27001953 394.21972656 C167.9955257 394.22130043 167.9955257 394.22130043 169.75589058 394.22290608 C188.39944347 394.24032703 207.0429472 394.271874 225.6864709 394.30861118 C244.80629696 394.34597363 263.92609721 394.3682259 283.04595828 394.37635398 C294.85072572 394.38185151 306.65535419 394.39923547 318.46007887 394.43166587 C326.5471895 394.45275581 334.63422795 394.4592126 342.72136411 394.45400551 C347.39221967 394.45143511 352.06283184 394.4554664 356.73364449 394.4768219 C361.00599342 394.49621366 365.27793412 394.49731839 369.5503014 394.48359558 C371.09949567 394.48189827 372.64871489 394.48703499 374.19785967 394.49953273 C376.29745188 394.51549233 378.39555365 394.50699381 380.495121 394.49219131 C382.24715061 394.49446964 382.24715061 394.49446964 384.03457475 394.49679399 C387.06004847 394.20399505 387.06004847 394.20399505 389.3756184 392.37181723 C391.50651259 389.26042299 391.49816312 387.31917984 391.49498463 383.55873299 C391.50235709 382.58706817 391.50235709 382.58706817 391.50987849 381.59577376 C391.52150847 379.41583399 391.50451356 377.23705239 391.48774719 375.05715942 C391.49020673 373.48230603 391.49442054 371.90745456 391.50024194 370.33261001 C391.51115088 365.99768981 391.49703549 361.66315262 391.47892153 357.32826972 C391.46373387 352.65605544 391.4715756 347.98387382 391.47660828 343.31164551 C391.48284247 334.15530776 391.46782338 324.99912072 391.44588266 315.84281196 C391.42122275 305.18449882 391.41827911 294.52621349 391.41647889 283.86787604 C391.41259973 264.85182581 391.39011462 245.83584359 391.35668945 226.81982422 C391.32426864 208.36018592 391.30301303 189.9005835 391.29516602 171.44091797 C391.29468052 170.30432897 391.29419503 169.16773997 391.29369483 167.99670888 C391.29176618 163.42836273 391.28985406 158.86001657 391.28797873 154.29167039 C391.2804463 136.71227686 391.26481751 119.13288924 391.24748212 101.55350295 C391.24224526 96.2401858 391.23731226 90.92686876 391.2331202 85.61355066 C391.22419886 74.4377214 391.21241591 63.26190934 391.19155417 52.08609523 C391.18295749 47.46366442 391.17587104 42.84124549 391.17303848 38.21880722 C391.17037027 33.98857008 391.16307749 29.75836725 391.15204801 25.52814387 C391.14884401 23.99654091 391.14730918 22.46493338 391.1475983 20.93332709 C391.14772371 18.85316155 391.14174085 16.77309925 391.13422108 14.6929493 C391.13243251 13.53697058 391.13064394 12.38099186 391.12880117 11.18998349 C391.04657586 7.51188899 391.04657586 7.51188899 390 2 C196.95 1.505 196.95 1.505 0 1 C0 0.67 0 0.34 0 0 Z " fill="#40A0E2" transform="translate(5,2)"/>
<path d="M0 0 C0.66 0 1.32 0 2 0 C3.17958694 3.22459272 4.34134131 6.45533436 5.5 9.6875 C5.83386719 10.59951172 6.16773438 11.51152344 6.51171875 12.45117188 C6.82753906 13.33740234 7.14335937 14.22363281 7.46875 15.13671875 C7.76201172 15.94842529 8.05527344 16.76013184 8.35742188 17.59643555 C9.04326336 20.16182665 9.11519796 22.35661819 9 25 C9.91265625 25.23783203 9.91265625 25.23783203 10.84375 25.48046875 C19.31075679 27.73418673 27.65093056 30.34966804 36 33 C36 33.66 36 34.32 36 35 C33.1697092 35.98878749 30.33627247 36.96614336 27.5 37.9375 C26.70851562 38.21529297 25.91703125 38.49308594 25.1015625 38.77929688 C20.03479919 40.50282702 15.33251581 41.51689364 10 42 C9.896875 42.82242188 9.79375 43.64484375 9.6875 44.4921875 C8.8840013 48.59185702 7.52471626 52.24848083 6 56.125 C3.71743229 61.97081144 3.71743229 61.97081144 2 68 C1.34 68 0.68 68 0 68 C-1.14877422 64.751032 -2.29350301 61.50065288 -3.4375 58.25 C-3.76298828 57.32960937 -4.08847656 56.40921875 -4.42382812 55.4609375 C-4.73642578 54.57148438 -5.04902344 53.68203125 -5.37109375 52.765625 C-5.65911865 51.94868164 -5.94714355 51.13173828 -6.24389648 50.29003906 C-7 48 -7 48 -7.44873047 45.78613281 C-7.86417528 43.7049589 -7.86417528 43.7049589 -10.44921875 42.65625 C-11.51785156 42.2746875 -12.58648437 41.893125 -13.6875 41.5 C-15.43160156 40.87544922 -15.43160156 40.87544922 -17.2109375 40.23828125 C-23.093588 38.31580681 -29.0221522 36.60425001 -35 35 C-35 34.34 -35 33.68 -35 33 C-34.46632813 32.83395264 -33.93265625 32.66790527 -33.3828125 32.49682617 C-30.92113123 31.72941407 -28.46056681 30.9584776 -26 30.1875 C-25.16082031 29.92646484 -24.32164063 29.66542969 -23.45703125 29.39648438 C-21.77910828 28.86969461 -20.10423936 28.33307536 -18.43261719 27.78662109 C-16.85383476 27.27609952 -15.2658693 26.79286258 -13.66894531 26.34228516 C-10.09131174 25.23492238 -8.32729223 24.59384983 -6.484375 21.25 C-6.24203125 20.1775 -5.9996875 19.105 -5.75 18 C-5.46125 16.85144531 -5.1725 15.70289062 -4.875 14.51953125 C-4.58625 13.35808594 -4.2975 12.19664063 -4 11 C-3.27935264 8.88560062 -2.53167411 6.78010673 -1.75 4.6875 C-1.41484375 3.78386719 -1.0796875 2.88023438 -0.734375 1.94921875 C-0.49203125 1.30597656 -0.2496875 0.66273437 0 0 Z " fill="#F5FCFC" transform="translate(136,98)"/>
<path d="M0 0 C131.34 0 262.68 0 398 0 C398 0.33 398 0.66 398 1 C396.75174025 1.00260437 396.75174025 1.00260437 395.47826314 1.00526136 C346.19364447 1.10821447 296.90903938 1.21631071 247.62444682 1.33111694 C241.71121984 1.34488707 235.79799277 1.35861409 229.88476562 1.37231445 C228.11888616 1.37640691 228.11888616 1.37640691 226.31733236 1.38058204 C207.23732049 1.4246974 188.15730269 1.46531713 169.07728043 1.50465261 C149.50995729 1.54507024 129.94264519 1.58922676 110.37533832 1.63687855 C98.29425077 1.66618075 86.21316407 1.69254134 74.13206217 1.71517897 C65.85573453 1.73096613 57.57942041 1.75037395 49.30310777 1.77266841 C44.52298393 1.7854368 39.74287052 1.79657106 34.96273422 1.80341911 C30.59057388 1.80971781 26.21844944 1.82054046 21.8463088 1.8350333 C20.26078769 1.83947753 18.67526081 1.84223029 17.08973375 1.84316199 C14.94159247 1.8446664 12.7935558 1.85221997 10.64543533 1.8613348 C9.45007573 1.86399284 8.25471613 1.86665089 7.02313352 1.86938947 C4.48894519 1.97887576 2.40876581 2.25314772 0 3 C0 2.01 0 1.02 0 0 Z " fill="#4A9DC9" transform="translate(1,1)"/>
<path d="M0 0 C1.65 0 3.3 0 5 0 C5.33 1.65 5.66 3.3 6 5 C6.66 5 7.32 5 8 5 C8 6.65 8 8.3 8 10 C8.969375 10.12375 9.93875 10.2475 10.9375 10.375 C11.948125 10.58125 12.95875 10.7875 14 11 C14.33 11.66 14.66 12.32 15 13 C17.57951874 13.69093896 17.57951874 13.69093896 20.5625 14.125 C21.57441406 14.29257813 22.58632812 14.46015625 23.62890625 14.6328125 C24.80259766 14.81457031 24.80259766 14.81457031 26 15 C26 15.66 26 16.32 26 17 C27.65 17.33 29.3 17.66 31 18 C31 19.32 31 20.64 31 22 C30.34 22 29.68 22 29 22 C28.67 22.66 28.34 23.32 28 24 C26.35 24 24.7 24 23 24 C23 24.66 23 25.32 23 26 C20.03 26.66 17.06 27.32 14 28 C14 29.32 14 30.64 14 32 C12.576875 32.0928125 12.576875 32.0928125 11.125 32.1875 C10.09375 32.455625 9.0625 32.72375 8 33 C7.28272222 34.64551962 6.61674772 36.31422289 6 38 C3.375 39.3125 3.375 39.3125 1 40 C1 41.98 1 43.96 1 46 C-0.32 46.66 -1.64 47.32 -3 48 C-2.6790644 45.99797316 -2.34252596 43.99844617 -2 42 C-1.81566406 40.85402344 -1.63132813 39.70804688 -1.44140625 38.52734375 C-0.4323819 34.40603983 0.56957497 31.50167508 3 28 C7.77766594 25.20200921 13.33719989 24.32967606 18.73291016 23.40820312 C22.20371974 22.78326304 25.58778561 21.88709793 29 21 C29 20.34 29 19.68 29 19 C27.700625 18.79375 26.40125 18.5875 25.0625 18.375 C17.11350672 16.81502441 9.5797309 13.79623483 2 11 C1.34 7.37 0.68 3.74 0 0 Z " fill="#449BDD" transform="translate(143,112)"/>
<path d="M0 0 C-2.22825644 2.22825644 -3.65761628 2.69239369 -6.625 3.625 C-7.44226563 3.88539063 -8.25953125 4.14578125 -9.1015625 4.4140625 C-9.72804687 4.60742188 -10.35453125 4.80078125 -11 5 C-10.19820312 5.21914062 -9.39640625 5.43828125 -8.5703125 5.6640625 C2.21802025 8.67305327 12.80055045 12.21688397 23.40380859 15.81591797 C24.19223145 16.08162598 24.9806543 16.34733398 25.79296875 16.62109375 C26.50348389 16.86142334 27.21399902 17.10175293 27.94604492 17.34936523 C29.99880075 18.04542256 29.99880075 18.04542256 32.17626953 18.40698242 C32.77810059 18.60267822 33.37993164 18.79837402 34 19 C35.12535052 21.32678108 35.92328962 23.42550612 36.6875 25.875 C36.92879639 26.60227295 37.17009277 27.3295459 37.41870117 28.07885742 C37.97039728 29.74584674 38.51486043 31.41523994 39.05371094 33.08642578 C40.12922984 36.39789186 41.23863158 39.69701664 42.3515625 42.99609375 C43.95601899 47.7620769 45.55788807 52.5288343 47.14453125 57.30078125 C47.47815674 58.30278564 47.81178223 59.30479004 48.15551758 60.3371582 C48.85680984 62.54848943 49.47250508 64.74213394 50 67 C48.09375 66.3359375 48.09375 66.3359375 46 65 C45.09375 62.6015625 45.09375 62.6015625 44.5 59.625 C43.0984577 53.24105182 41.14301537 47.16840911 39 41 C38.67 40.01 38.34 39.02 38 38 C37.34 38 36.68 38 36 38 C36 37.01 36 36.02 36 35 C35.34 35 34.68 35 34 35 C34.04125 33.9275 34.0825 32.855 34.125 31.75 C34.00780624 28.23418706 33.67021593 26.92287789 32 24 C32 23.01 32 22.02 32 21 C31.32195312 20.82984375 30.64390625 20.6596875 29.9453125 20.484375 C25.11849436 19.22753039 20.47780367 17.86980909 15.875 15.9375 C12.16947619 14.40318155 8.64133783 13.35135111 4.71484375 12.5703125 C0.92942887 11.77510304 -2.81243796 10.82134643 -6.5625 9.875 C-7.29033691 9.69195312 -8.01817383 9.50890625 -8.76806641 9.3203125 C-10.51230395 8.88123864 -12.2561895 8.44076683 -14 8 C-14.33 6.68 -14.66 5.36 -15 4 C-10.44224642 -0.86160382 -6.22129884 -0.43488691 0 0 Z " fill="#5BA3D5" transform="translate(200,188)"/>
<path d="M0 0 C-1.65 0.33 -3.3 0.66 -5 1 C-5 1.66 -5 2.32 -5 3 C-6.134375 3.28875 -7.26875 3.5775 -8.4375 3.875 C-9.613125 4.24625 -10.78875 4.6175 -12 5 C-12.33 5.66 -12.66 6.32 -13 7 C-13.639375 7.144375 -14.27875 7.28875 -14.9375 7.4375 C-17.38210855 7.86165035 -17.38210855 7.86165035 -19 11 C-19 12.32 -19 13.64 -19 15 C-19.66 15 -20.32 15 -21 15 C-21.2475 15.969375 -21.495 16.93875 -21.75 17.9375 C-22.81372138 21.68692924 -24.35594007 25.10950816 -25.98046875 28.64453125 C-27.58142614 32.34329487 -28.80030511 36.1555232 -30 40 C-31.32 39.67 -32.64 39.34 -34 39 C-33.34 39 -32.68 39 -32 39 C-31.81425415 37.71367676 -31.81425415 37.71367676 -31.62475586 36.40136719 C-30.54227784 30.50801673 -28.4640644 24.92195892 -26.5625 19.25 C-26.15451172 18.00605469 -25.74652344 16.76210938 -25.32617188 15.48046875 C-24.93107422 14.29582031 -24.53597656 13.11117188 -24.12890625 11.890625 C-23.58858765 10.26688965 -23.58858765 10.26688965 -23.03735352 8.61035156 C-22 6 -22 6 -20 4 C-17.37956122 3.02381456 -14.7912229 2.14068074 -12.125 1.3125 C-11.40441406 1.07466797 -10.68382812 0.83683594 -9.94140625 0.59179688 C-6.19696498 -0.58394389 -3.74176921 -1.1851875 0 0 Z " fill="#489FDC" transform="translate(170,265)"/>
<path d="M0 0 C0.33 0 0.66 0 1 0 C1.495 3.465 1.495 3.465 2 7 C1.34 7.33 0.68 7.66 0 8 C-0.65213292 10.02463255 -0.65213292 10.02463255 -1 12 C-1.66 12 -2.32 12 -3 12 C-2.505 12.99 -2.505 12.99 -2 14 C-1.42028986 21.07246377 -1.42028986 21.07246377 -3.875 25 C-6 27 -6 27 -8 27 C-8 27.99 -8 28.98 -8 30 C-8.61746094 29.96519531 -9.23492187 29.93039063 -9.87109375 29.89453125 C-17.42600028 29.65305022 -23.64870227 30.76580151 -30 35 C-33.1875 34.625 -33.1875 34.625 -36 34 C-31.14922109 31.46247419 -26.01295851 29.73676986 -20.875 27.875 C-19.86050781 27.50246094 -18.84601563 27.12992188 -17.80078125 26.74609375 C-16.83269531 26.39417969 -15.86460937 26.04226562 -14.8671875 25.6796875 C-13.53856689 25.19604736 -13.53856689 25.19604736 -12.18310547 24.70263672 C-10 24 -10 24 -8 24 C-7.86859619 23.27079346 -7.73719238 22.54158691 -7.60180664 21.7902832 C-7.04075484 19.18896028 -6.3022648 16.84423501 -5.37109375 14.35546875 C-5.05849609 13.51435547 -4.74589844 12.67324219 -4.42382812 11.80664062 C-3.9355957 10.51016602 -3.9355957 10.51016602 -3.4375 9.1875 C-3.10814453 8.30384766 -2.77878906 7.42019531 -2.43945312 6.50976562 C-1.62965399 4.33856505 -0.81641107 2.16872111 0 0 Z " fill="#E0F6FA" transform="translate(242,153)"/>
<path d="M0 0 C0.99 0.33 1.98 0.66 3 1 C4.09765625 3.43359375 4.09765625 3.43359375 5.0625 6.4375 C6.3495608 10.62684584 6.3495608 10.62684584 9 14 C9.61350042 16.1894648 10.14559812 18.40231857 10.625 20.625 C10.88539063 21.81351563 11.14578125 23.00203125 11.4140625 24.2265625 C11.60742188 25.14179688 11.80078125 26.05703125 12 27 C12.99 27 13.98 27 15 27 C15.66 27 16.32 27 17 27 C17 24.69 17 22.38 17 20 C18.32 20.33 19.64 20.66 21 21 C19.02 27.27 17.04 33.54 15 40 C11.63471708 38.31735854 11.20834984 34.45669498 10.0625 31.0625 C9.79453613 30.28704834 9.52657227 29.51159668 9.25048828 28.71264648 C7.6136791 23.9373729 6.11279004 19.13813828 4.72265625 14.28515625 C3.6146645 10.78150666 2.19879221 7.41436958 0.76953125 4.03125 C0 2 0 2 0 0 Z " fill="#DCF7FC" transform="translate(235,212)"/>
<path d="M0 0 C1.85473633 0.09960938 1.85473633 0.09960938 4 1 C5.2644043 3.75976562 5.2644043 3.75976562 6.32421875 7.40625 C6.51595169 8.04614868 6.70768463 8.68604736 6.90522766 9.34533691 C7.5153344 11.39255728 8.10200851 13.44561862 8.6875 15.5 C9.28835566 17.55274362 9.89387874 19.6040335 10.50190735 21.65466309 C11.05071745 23.51412366 11.58752128 25.37711509 12.1237793 27.24023438 C12.73008535 29.88341011 12.73008535 29.88341011 14 31 C14.04080783 32.99958364 14.04254356 35.00045254 14 37 C11.47850335 33.21775502 10.1189428 29.31485799 8.5625 25.0625 C8.25046631 24.21453857 7.93843262 23.36657715 7.61694336 22.49291992 C5.29627685 16.07344552 3.40156868 9.68748485 2 3 C1.34 3 0.68 3 0 3 C-0.16822266 4.24136719 -0.16822266 4.24136719 -0.33984375 5.5078125 C-1.08518012 9.4505978 -2.25343082 13.0908 -3.5625 16.875 C-3.79646484 17.56335938 -4.03042969 18.25171875 -4.27148438 18.9609375 C-4.84352499 20.64203645 -5.42118456 22.32122163 -6 24 C-6.33 24 -6.66 24 -7 24 C-7.98248524 19.9472484 -8.08159574 16.16138263 -8 12 C-7.34 12 -6.68 12 -6 12 C-6 11.01 -6 10.02 -6 9 C-5.34 8.67 -4.68 8.34 -4 8 C-3.67 7.01 -3.34 6.02 -3 5 C-2.34 5 -1.68 5 -1 5 C-0.67 3.35 -0.34 1.7 0 0 Z " fill="#49A2DE" transform="translate(248,131)"/>
<path d="M0 0 C1.5 1.375 1.5 1.375 3 3 C3 3.66 3 4.32 3 5 C3.73605469 5.10957031 4.47210938 5.21914062 5.23046875 5.33203125 C6.20628906 5.49058594 7.18210937 5.64914063 8.1875 5.8125 C9.63189453 6.03873047 9.63189453 6.03873047 11.10546875 6.26953125 C14 7 14 7 16.375 8.5 C19.74773816 10.42727895 23.01874457 10.79178771 26.8125 11.1875 C27.85180664 11.3102832 27.85180664 11.3102832 28.91210938 11.43554688 C30.60686984 11.63424293 32.30330194 11.81859203 34 12 C34 12.99 34 13.98 34 15 C35.32 15 36.64 15 38 15 C38.66 16.32 39.32 17.64 40 19 C31.89849922 17.90305944 24.15442089 15.1633591 16.37402344 12.73583984 C14.37180063 12.11524137 12.36240935 11.51784001 10.3515625 10.92578125 C3.53132003 8.75902862 3.53132003 8.75902862 0.8125 4.875 C0 2 0 2 0 0 Z " fill="#4DA2DA" transform="translate(262,170)"/>
<path d="M0 0 C1.92742303 5.78226908 -0.79781954 11.90090241 -3.05859375 17.35546875 C-6.54022727 23.96860541 -12.18434069 25.72919445 -18.99536133 27.89135742 C-21.65211419 28.6527311 -24.31703908 29.33784899 -27 30 C-28.34743108 30.37111189 -29.69393517 30.74562286 -31.0390625 31.125 C-33.68525236 31.83233476 -36.31449231 32.4662345 -39 33 C-39 32.34 -39 31.68 -39 31 C-34.45250961 28.36724241 -30.29140443 27.34181434 -25.171875 26.52734375 C-22.80530035 26.15216686 -22.80530035 26.15216686 -21 24 C-19.1953125 23.3671875 -19.1953125 23.3671875 -17.125 22.875 C-16.44695312 22.70742187 -15.76890625 22.53984375 -15.0703125 22.3671875 C-13 22 -13 22 -9 22 C-9 21.34 -9 20.68 -9 20 C-8.34 20 -7.68 20 -7 20 C-6.67 17.69 -6.34 15.38 -6 13 C-5.34 13 -4.68 13 -4 13 C-3.67 10.03 -3.34 7.06 -3 4 C-2.34 4 -1.68 4 -1 4 C-0.67 2.68 -0.34 1.36 0 0 Z " fill="#56A1D5" transform="translate(240,155)"/>
<path d="M0 0 C1.28826661 3.86479984 0.43958402 5.37491237 -0.87109375 9.19921875 C-1.28037109 10.40771484 -1.68964844 11.61621094 -2.11132812 12.86132812 C-2.55319189 14.13678581 -2.99525171 15.41217559 -3.4375 16.6875 C-3.87647475 17.97432868 -4.31463577 19.26143525 -4.75195312 20.54882812 C-5.82664643 23.70204915 -6.90962616 26.85217387 -8 30 C-8.66 30 -9.32 30 -10 30 C-10.67031719 28.0429132 -11.33614683 26.08428887 -12 24.125 C-12.556875 22.48917969 -12.556875 22.48917969 -13.125 20.8203125 C-14 18 -14 18 -14 16 C-11 17 -11 17 -9 20 C-6.80235949 17.15450649 -6.80235949 17.15450649 -6.5 13.875 C-6.335 12.92625 -6.17 11.9775 -6 11 C-5.34 10.67 -4.68 10.34 -4 10 C-3.31060191 7.67328146 -2.64533078 5.33932406 -2 3 C-1.34 2.01 -0.68 1.02 0 0 Z " fill="#D5F5FD" transform="translate(146,274)"/>
<path d="M0 0 C0.66 0 1.32 0 2 0 C3.03004293 2.78858 4.04930997 5.58030288 5.0625 8.375 C5.35705078 9.1690625 5.65160156 9.963125 5.95507812 10.78125 C6.22900391 11.54179687 6.50292969 12.30234375 6.78515625 13.0859375 C7.04176025 13.7876709 7.29836426 14.4894043 7.56274414 15.21240234 C8 17 8 17 7 19 C6.01 19 5.02 19 4 19 C3.75585938 15.97265625 3.75585938 15.97265625 3.51171875 12.9453125 C3.12606964 10.60480784 3.12606964 10.60480784 0 9 C-0.66 11.31 -1.32 13.62 -2 16 C-2.99 16 -3.98 16 -5 16 C-3.71291613 10.45563871 -2.08135307 5.29798964 0 0 Z " fill="#D5F6FC" transform="translate(136,214)"/>
<path d="M0 0 C0.66 0 1.32 0 2 0 C4.41862058 5.93661416 5.9007105 11.68878497 7 18 C6.34 18 5.68 18 5 18 C4.67 15.36 4.34 12.72 4 10 C2.06890419 9.95710245 2.06890419 9.95710245 0 11 C-1.79271391 14.48797488 -1.79271391 14.48797488 -3 18 C-3.66 18 -4.32 18 -5 18 C-3.9007105 11.68878497 -2.41862058 5.93661416 0 0 Z " fill="#D6F6FD" transform="translate(248,134)"/>
<path d="M0 0 C-1.32 0.33 -2.64 0.66 -4 1 C-4 1.66 -4 2.32 -4 3 C-5.65 3.33 -7.3 3.66 -9 4 C-8.67 4.99 -8.34 5.98 -8 7 C-7.40832031 7.02578125 -6.81664062 7.0515625 -6.20703125 7.078125 C-0.9279987 7.45704414 2.10636661 8.10636661 6 12 C1.8144263 11.39583237 -2.00447371 10.44116467 -6 9.0625 C-6.99 8.72347656 -7.98 8.38445312 -9 8.03515625 C-9.99 7.69355469 -10.98 7.35195312 -12 7 C-13.99930471 6.33125109 -15.99910854 5.6639863 -18 5 C-15.66828982 2.66828982 -14.1450503 2.31061716 -11 1.4375 C-2.83925889 -0.85177767 -2.83925889 -0.85177767 0 0 Z " fill="#CBF2FD" transform="translate(206,188)"/>
<path d="M0 0 C-0.7425 0.37125 -1.485 0.7425 -2.25 1.125 C-5.46756298 3.31879294 -6.90994765 5.75681532 -9 9 C-9.66 9 -10.32 9 -11 9 C-11.02578125 9.69867188 -11.0515625 10.39734375 -11.078125 11.1171875 C-11.13484375 12.02726563 -11.1915625 12.93734375 -11.25 13.875 C-11.29640625 14.77992188 -11.3428125 15.68484375 -11.390625 16.6171875 C-12 19 -12 19 -14.046875 20.3203125 C-14.69140625 20.54460937 -15.3359375 20.76890625 -16 21 C-14.98275463 14.0184844 -13.3001302 7.27024738 -10 1 C-6.78983033 -1.18316137 -3.6205407 -1.81027035 0 0 Z " fill="#57A0D3" transform="translate(156,139)"/>
<path d="M0 0 C7.40676456 0.43569203 14.42194386 2.54325945 21 6 C23.12632449 8.94922408 23 10.2052964 23 14 C22.01 14 21.02 14 20 14 C19.79375 12.906875 19.5875 11.81375 19.375 10.6875 C18.671611 8.64381255 18.671611 8.64381255 17 7 C13.43046642 5.81884047 9.96317367 5.18178425 6.25 4.60546875 C3 4 3 4 0 2 C0 1.34 0 0.68 0 0 Z " fill="#57A3D6" transform="translate(104,264)"/>
<path d="M0 0 C-0.1875 3.3125 -0.1875 3.3125 -1 7 C-3.3125 9 -3.3125 9 -6 10 C-8.3125 9.6875 -8.3125 9.6875 -10 9 C-10 5.48882191 -9.51303599 3.51303599 -7 1 C-4.60938484 0.40234621 -2.46474039 0 0 0 Z " fill="#449BE6" transform="translate(130,115)"/>
<path d="M0 0 C1.46141508 4.38424525 0.04220505 7.23196847 -1.5546875 11.453125 C-3.51526756 14.907985 -5.37202906 15.76978944 -9.09765625 16.828125 C-11 17 -11 17 -14 16 C-13.34 16 -12.68 16 -12 16 C-12 15.34 -12 14.68 -12 14 C-9.36 12.68 -6.72 11.36 -4 10 C-4.66 8.35 -5.32 6.7 -6 5 C-4.02 3.35 -2.04 1.7 0 0 Z " fill="#4D9FDD" transform="translate(128,233)"/>
<path d="M0 0 C2.3125 0.375 2.3125 0.375 5 2 C6.0245284 4.30984584 6.62104998 6.60583497 7.2421875 9.0546875 C8.06894662 12.26796779 9.1067594 15.36358497 10.1875 18.5 C12 23.76779026 12 23.76779026 12 26 C12.66 26 13.32 26 14 26 C14 26.66 14 27.32 14 28 C12.68 28 11.36 28 10 28 C9.01 23.38 8.02 18.76 7 14 C6.34 14 5.68 14 5 14 C4.34 10.04 3.68 6.08 3 2 C2.01 2 1.02 2 0 2 C0 1.34 0 0.68 0 0 Z " fill="#5FA4D4" transform="translate(124,140)"/>
<path d="M0 0 C4.17576168 0.68416434 7.88080407 2.01365009 11.8125 3.5625 C13.55466797 4.24505859 13.55466797 4.24505859 15.33203125 4.94140625 C16.21246094 5.29074219 17.09289062 5.64007813 18 6 C15.47047712 9.15111212 13.23243734 9.58798017 9.3125 10.1875 C8.31863281 10.34605469 7.32476562 10.50460938 6.30078125 10.66796875 C5.54152344 10.77753906 4.78226562 10.88710937 4 11 C6.6640625 8.0234375 6.6640625 8.0234375 9.6875 7.8125 C10.8321875 7.9053125 10.8321875 7.9053125 12 8 C12 7.34 12 6.68 12 6 C9.69 5.67 7.38 5.34 5 5 C5 4.34 5 3.68 5 3 C3.35 2.67 1.7 2.34 0 2 C0 1.34 0 0.68 0 0 Z " fill="#CBF2FB" transform="translate(291,186)"/>
<path d="M0 0 C-1.134375 0.474375 -2.26875 0.94875 -3.4375 1.4375 C-6.75740166 2.63622083 -6.75740166 2.63622083 -8 4 C-10.65463121 4.45459858 -13.32189138 4.70243238 -16 5 C-16 5.99 -16 6.98 -16 8 C-14.700625 8.12375 -13.40125 8.2475 -12.0625 8.375 C-9.84765625 8.5859375 -9.84765625 8.5859375 -8 9 C-7.67 9.66 -7.34 10.32 -7 11 C-12.46864457 9.98408579 -17.76390013 8.92908943 -23 7 C-23 6.34 -23 5.68 -23 5 C-19.92209798 3.96225878 -16.83699754 2.94783083 -13.75 1.9375 C-12.87730469 1.64294922 -12.00460938 1.34839844 -11.10546875 1.04492188 C-10.26113281 0.77099609 -9.41679688 0.49707031 -8.546875 0.21484375 C-7.77182617 -0.04176025 -6.99677734 -0.29836426 -6.19824219 -0.56274414 C-3.77358397 -1.04503677 -2.32152179 -0.7792359 0 0 Z " fill="#B8E8F9" transform="translate(124,126)"/>
<path d="M0 0 C0.33 0 0.66 0 1 0 C0.67 3.96 0.34 7.92 0 12 C-0.66 12 -1.32 12 -2 12 C-2.10957031 12.556875 -2.21914063 13.11375 -2.33203125 13.6875 C-3.85755238 21.02984562 -5.85318959 27.6810508 -10 34 C-11 32 -11 32 -10.42675781 29.91210938 C-10.10545898 29.06455078 -9.78416016 28.21699219 -9.453125 27.34375 C-9.1025 26.40273437 -8.751875 25.46171875 -8.390625 24.4921875 C-7.82601562 23.01105469 -7.82601562 23.01105469 -7.25 21.5 C-4.56896689 14.39526226 -2.07682394 7.30689887 0 0 Z " fill="#5DA4D5" transform="translate(263,210)"/>
<path d="M0 0 C0.66 1.32 1.32 2.64 2 4 C1.34 3.67 0.68 3.34 0 3 C0 2.01 0 1.02 0 0 Z M-4 5 C-2.68 5.33 -1.36 5.66 0 6 C-0.66 6 -1.32 6 -2 6 C-2 6.99 -2 7.98 -2 9 C-2.61746094 8.96519531 -3.23492187 8.93039063 -3.87109375 8.89453125 C-11.42600028 8.65305022 -17.64870227 9.76580151 -24 14 C-27.1875 13.625 -27.1875 13.625 -30 13 C-21.66205971 8.61369018 -13.42971113 6.24896106 -4 7 C-4 6.34 -4 5.68 -4 5 Z " fill="#ECFCFB" transform="translate(236,174)"/>
<path d="M0 0 C2.19730187 2.19730187 2.71894434 3.59714109 3.7265625 6.5 C4.0359375 7.386875 4.3453125 8.27375 4.6640625 9.1875 C4.98117187 10.115625 5.29828125 11.04375 5.625 12 C5.94984375 12.928125 6.2746875 13.85625 6.609375 14.8125 C9 21.72321429 9 21.72321429 9 24 C7.68 24.33 6.36 24.66 5 25 C5 21.7 5 18.4 5 15 C4.34 15 3.68 15 3 15 C2.49564306 13.0636296 1.99666126 11.12585854 1.5 9.1875 C1.2215625 8.10855469 0.943125 7.02960938 0.65625 5.91796875 C0 3 0 3 0 0 Z " fill="#CEF1FA" transform="translate(255,152)"/>
<path d="M0 0 C-2.42130331 2.42130331 -3.80111377 2.52840504 -7.125 3.125 C-8.49011719 3.37636719 -8.49011719 3.37636719 -9.8828125 3.6328125 C-10.58148438 3.75398437 -11.28015625 3.87515625 -12 4 C-12 4.99 -12 5.98 -12 7 C-10.35 7 -8.7 7 -7 7 C-7 7.66 -7 8.32 -7 9 C-5.88625 8.95875 -4.7725 8.9175 -3.625 8.875 C0 9 0 9 2 11 C-0.10464793 10.69075786 -2.2087053 10.3774944 -4.3125 10.0625 C-6.07013672 9.80146484 -6.07013672 9.80146484 -7.86328125 9.53515625 C-11 9 -11 9 -14 8 C-14.6875 5.9375 -14.6875 5.9375 -15 4 C-10.44224642 -0.86160382 -6.22129884 -0.43488691 0 0 Z " fill="#47A0DD" transform="translate(200,188)"/>
<path d="M0 0 C1.1875 1.6875 1.1875 1.6875 2 4 C1.3503125 5.051875 1.3503125 5.051875 0.6875 6.125 C-1.43786889 9.74599885 -1.44493216 12.65707284 -1.59375 16.79296875 C-1.7278125 17.52128906 -1.861875 18.24960938 -2 19 C-5.22791555 21.1519437 -6.28400809 21.20086443 -10 21 C-9.38382812 20.63648437 -8.76765625 20.27296875 -8.1328125 19.8984375 C-5.31654884 17.39165337 -4.85895301 15.23834003 -3.875 11.625 C-2.76656843 7.64014269 -1.61312657 3.81154685 0 0 Z " fill="#D5F5FC" transform="translate(134,104)"/>
<path d="M0 0 C1.32 0.33 2.64 0.66 4 1 C3.67 1.99 3.34 2.98 3 4 C3 3.34 3 2.68 3 2 C2.34 2 1.68 2 1 2 C0.7525 3.093125 0.505 4.18625 0.25 5.3125 C-1.08209321 10.68913709 -3.04066721 15.82583961 -5 21 C-5.33 21 -5.66 21 -6 21 C-6.33 18.03 -6.66 15.06 -7 12 C-6.01 12 -5.02 12 -4 12 C-3.896875 11.13375 -3.79375 10.2675 -3.6875 9.375 C-2.96601586 5.83316877 -1.72876739 3.15687958 0 0 Z " fill="#53A6DD" transform="translate(135,212)"/>
<path d="M0 0 C8.03293285 1.61710432 15.49577355 3.80019311 23.09765625 6.859375 C26.36625933 8.14394041 29.60139507 9.13058944 33 10 C33 10.33 33 10.66 33 11 C31.52031676 10.85950482 30.04125484 10.71245174 28.5625 10.5625 C27.73878906 10.48128906 26.91507813 10.40007812 26.06640625 10.31640625 C24 10 24 10 23 9 C21.48834346 8.60851239 19.96530368 8.26027543 18.4375 7.9375 C17.19806641 7.67259766 17.19806641 7.67259766 15.93359375 7.40234375 C15.29550781 7.26957031 14.65742188 7.13679687 14 7 C14 6.34 14 5.68 14 5 C11.03 4.67 8.06 4.34 5 4 C5 3.34 5 2.68 5 2 C3.35 2 1.7 2 0 2 C0 1.34 0 0.68 0 0 Z " fill="#5FA5D7" transform="translate(188,193)"/>
<path d="M0 0 C1.46373047 0.02707031 1.46373047 0.02707031 2.95703125 0.0546875 C3.69308594 0.07789063 4.42914063 0.10109375 5.1875 0.125 C2.56298383 2.74951617 0.6997172 2.7082868 -2.9375 3.25 C-4.03320312 3.41757813 -5.12890625 3.58515625 -6.2578125 3.7578125 C-7.52238281 3.93957031 -7.52238281 3.93957031 -8.8125 4.125 C-8.94527344 5.02476562 -9.07804688 5.92453125 -9.21484375 6.8515625 C-9.95289698 10.89397168 -11.30016359 14.3112821 -12.8125 18.125 C-14.03131834 14.14238233 -13.27449417 12.02365112 -11.8125 8.125 C-11.21933522 5.98960679 -10.8125 4.33674384 -10.8125 2.125 C-7.04027911 0.37336544 -4.145861 -0.09990027 0 0 Z " fill="#D1F0F9" transform="translate(154.8125,135.875)"/>
<path d="M0 0 C0.66 1.32 1.32 2.64 2 4 C3.175625 3.938125 4.35125 3.87625 5.5625 3.8125 C10.08117282 3.8125 13.04599993 4.82126527 17 7 C17.33 7.99 17.66 8.98 18 10 C12.13145562 9.48969179 5.99283842 8.25204035 1 5 C0.2109375 2.359375 0.2109375 2.359375 0 0 Z " fill="#52A5DD" transform="translate(148,242)"/>
<path d="M0 0 C0.33 0.66 0.66 1.32 1 2 C3.57951874 2.69093896 3.57951874 2.69093896 6.5625 3.125 C7.57441406 3.29257813 8.58632812 3.46015625 9.62890625 3.6328125 C10.80259766 3.81457031 10.80259766 3.81457031 12 4 C12 4.66 12 5.32 12 6 C14.475 6.495 14.475 6.495 17 7 C16.67 7.99 16.34 8.98 16 10 C15.67 9.34 15.34 8.68 15 8 C13.05460643 7.45189638 13.05460643 7.45189638 10.6875 7.125 C4.57421389 6.02797037 -1.15568822 4.0686052 -7 2 C-7 1.67 -7 1.34 -7 1 C-2.25 0 -2.25 0 0 0 Z " fill="#56A6DD" transform="translate(157,123)"/>
<path d="M0 0 C-0.33 0.99 -0.66 1.98 -1 3 C-2.64024794 3.53559116 -4.28868174 4.05526823 -5.96484375 4.46484375 C-8.09271816 5.02438078 -10.07790999 5.7584248 -12.125 6.5625 C-15.0611761 7.69355616 -17.87858698 8.51227922 -21 9 C-21 8.01 -21 7.02 -21 6 C-17.87647773 4.99534271 -14.75095147 3.99707073 -11.625 3 C-10.73554688 2.71382812 -9.84609375 2.42765625 -8.9296875 2.1328125 C-7.65351563 1.72675781 -7.65351563 1.72675781 -6.3515625 1.3125 C-5.56604004 1.06113281 -4.78051758 0.80976563 -3.97119141 0.55078125 C-2 0 -2 0 0 0 Z " fill="#5DA8DB" transform="translate(285,201)"/>
<path d="M0 0 C-2.64738916 1.4606285 -3.89448334 2 -7 2 C-7 2.66 -7 3.32 -7 4 C-5.68 4.33 -4.36 4.66 -3 5 C-3 5.66 -3 6.32 -3 7 C-11.03571429 6.33035714 -11.03571429 6.33035714 -15 3 C-13.25531628 2.29911844 -11.50398839 1.61475991 -9.75 0.9375 C-8.77546875 0.55464844 -7.8009375 0.17179688 -6.796875 -0.22265625 C-3.95992605 -1.01113787 -2.70590448 -1.02437812 0 0 Z " fill="#CBF2FD" transform="translate(105,255)"/>
<path d="M0 0 C2.12311589 2.12311589 2.51469779 3.13898752 3.375 5.9375 C4.84739926 10.58877151 6.51548925 15.14798821 8.23046875 19.71484375 C9 22 9 22 9 24 C8.34 24 7.68 24 7 24 C2.77073493 15.94425702 0.54112812 9.10588011 0 0 Z " fill="#57A4D7" transform="translate(127,278)"/>
<path d="M0 0 C3.75526223 3.18843019 4.89548117 5.97822321 6.1875 10.6875 C7.00948309 14.64960356 7.00948309 14.64960356 9 18 C9.04080783 19.99958364 9.04254356 22.00045254 9 24 C7.29487259 21.44230888 6.31936855 19.46000689 5.2734375 16.62109375 C4.9640625 15.78255859 4.6546875 14.94402344 4.3359375 14.08007812 C4.01882813 13.20802734 3.70171875 12.33597656 3.375 11.4375 C3.05015625 10.56158203 2.7253125 9.68566406 2.390625 8.78320312 C0 2.25920759 0 2.25920759 0 0 Z " fill="#60A5D3" transform="translate(253,144)"/>
<path d="M0 0 C1.32 0 2.64 0 4 0 C4 0.66 4 1.32 4 2 C3.34 2 2.68 2 2 2 C1.9175 2.78375 1.835 3.5675 1.75 4.375 C0.75634931 9.177645 -1.08713518 13.49809489 -3 18 C-4.32435978 14.02692066 -3.18129186 11.19025432 -2.0625 7.3125 C-1.76956055 6.2596582 -1.76956055 6.2596582 -1.47070312 5.18554688 C-0.98800864 3.45491056 -0.49499154 1.72715934 0 0 Z " fill="#53A5D8" transform="translate(134,96)"/>
<path d="M0 0 C0.66 0.33 1.32 0.66 2 1 C-0.03807293 8.1178153 -2.40344742 15.06707281 -5 22 C-5.33 22 -5.66 22 -6 22 C-6.17835515 17.45194365 -5.99785435 14.1205746 -4 10 C-3.34 10 -2.68 10 -2 10 C-1.34 6.7 -0.68 3.4 0 0 Z " fill="#D1F0FC" transform="translate(262,209)"/>
<path d="M0 0 C2.97 0.495 2.97 0.495 6 1 C6 1.66 6 2.32 6 3 C4.576875 3.0928125 4.576875 3.0928125 3.125 3.1875 C1.578125 3.5896875 1.578125 3.5896875 0 4 C-1.16953416 6.42383077 -1.16953416 6.42383077 -2 9 C-4.125 10.3125 -4.125 10.3125 -6 11 C-6 9.68 -6 8.36 -6 7 C-5.34 7 -4.68 7 -4 7 C-3.71125 6.401875 -3.4225 5.80375 -3.125 5.1875 C-2 3 -2 3 0 0 Z " fill="#419DE5" transform="translate(151,141)"/>
<path d="M0 0 C3.46941546 0.45822468 6.67395049 0.89131683 10 2 C10 2.66 10 3.32 10 4 C8.75336669 4.50833591 7.50250613 5.00631145 6.25 5.5 C5.55390625 5.7784375 4.8578125 6.056875 4.140625 6.34375 C2 7 2 7 -2 7 C-1.67 6.01 -1.34 5.02 -1 4 C0.98 3.67 2.96 3.34 5 3 C2.525 2.01 2.525 2.01 0 1 C0 0.67 0 0.34 0 0 Z " fill="#C1EEFB" transform="translate(162,129)"/>
<path d="M0 0 C6.14154225 0.58490879 12.00679849 1.54066252 18 3 C17.34 4.32 16.68 5.64 16 7 C16 6.34 16 5.68 16 5 C14.845 4.896875 13.69 4.79375 12.5 4.6875 C7.98828481 4.13964887 4.19394251 2.7225121 0 1 C0 0.67 0 0.34 0 0 Z " fill="#C7ECFB" transform="translate(218,202)"/>
<path d="M0 0 C0.66 0 1.32 0 2 0 C2.17015625 0.53367188 2.3403125 1.06734375 2.515625 1.6171875 C4.20006806 6.79595394 6.10530504 11.82150626 8.23046875 16.8359375 C9 19 9 19 9 22 C8.34 22 7.68 22 7 22 C5.82828244 18.71010914 4.66348912 15.41780898 3.5 12.125 C3.16613281 11.18785156 2.83226562 10.25070313 2.48828125 9.28515625 C2.17246094 8.38925781 1.85664063 7.49335938 1.53125 6.5703125 C1.23798828 5.74289551 0.94472656 4.91547852 0.64257812 4.06298828 C0 2 0 2 0 0 Z " fill="#C7EEFD" transform="translate(129,144)"/>
<path d="M0 0 C-0.33 0.99 -0.66 1.98 -1 3 C-6.13691161 4.99186369 -10.52450293 5.1921227 -16 5 C-13.39680887 3.26453924 -11.47732763 2.34824767 -8.5625 1.375 C-7.80066406 1.11460937 -7.03882813 0.85421875 -6.25390625 0.5859375 C-4 0 -4 0 0 0 Z " fill="#5AA7DB" transform="translate(302,196)"/>
<path d="M0 0 C5.28 1.32 10.56 2.64 16 4 C16 4.33 16 4.66 16 5 C13.03 5 10.06 5 7 5 C7 4.34 7 3.68 7 3 C6.1028125 3.309375 6.1028125 3.309375 5.1875 3.625 C3 4 3 4 0 2 C0 1.34 0 0.68 0 0 Z " fill="#D5F3FC" transform="translate(157,250)"/>
<path d="M0 0 C2.10494301 0.08708038 4.20902142 0.19525693 6.3125 0.3125 C8.07013672 0.39951172 8.07013672 0.39951172 9.86328125 0.48828125 C13.0983686 1.01604768 14.08684881 1.42380724 16 4 C12.10481722 5.94759139 6.50006753 3.16073599 2.5 1.875 C1.675 1.58625 0.85 1.2975 0 1 C0 0.67 0 0.34 0 0 Z " fill="#59A4D7" transform="translate(280,182)"/>
<path d="M0 0 C6.68183363 1.0440365 12.7465965 2.4042476 19 5 C14.96927678 6.59401397 11.8478037 5.37091031 7.8125 4.1875 C6.56082031 3.83042969 5.30914062 3.47335938 4.01953125 3.10546875 C1 2 1 2 0 0 Z " fill="#5DA7DA" transform="translate(104,134)"/>
<path d="M0 0 C1.10740461 3.32221382 0.97233311 5.64103108 0 9 C-0.66 9.66 -1.32 10.32 -2 11 C-5 10 -5 10 -7 8 C-5.35 7.67 -3.7 7.34 -2 7 C-1.34 4.69 -0.68 2.38 0 0 Z " fill="#D6F1FA" transform="translate(127,240)"/>
<path d="M0 0 C-1.65 0.33 -3.3 0.66 -5 1 C-5 1.66 -5 2.32 -5 3 C-8.63 3.33 -12.26 3.66 -16 4 C-13.41588269 2.27725513 -11.45097344 1.31104478 -8.5625 0.3125 C-7.41974609 -0.09548828 -7.41974609 -0.09548828 -6.25390625 -0.51171875 C-3.78170279 -1.04729142 -2.37016716 -0.80445309 0 0 Z " fill="#5BA1D7" transform="translate(170,265)"/>
<path d="M0 0 C4.95 1.65 9.9 3.3 15 5 C15 5.33 15 5.66 15 6 C9.1977825 6.36263859 5.36000789 5.25684543 0 3 C0 2.01 0 1.02 0 0 Z " fill="#58A7DD" transform="translate(89,258)"/>
<path d="M0 0 C2.64 0 5.28 0 8 0 C5.68994131 2.31005869 4.16916343 2.72174103 1.0625 3.625 C-0.25041016 4.01558594 -0.25041016 4.01558594 -1.58984375 4.4140625 C-4 5 -4 5 -7 5 C-7 4.34 -7 3.68 -7 3 C-5.02 3 -3.04 3 -1 3 C-0.67 2.01 -0.34 1.02 0 0 Z " fill="#D3F3FC" transform="translate(170,260)"/>
<path d="M0 0 C2.46301423 2.46301423 2.76766521 4.27360036 3.625 7.625 C3.88539063 8.62789062 4.14578125 9.63078125 4.4140625 10.6640625 C4.60742188 11.43492187 4.80078125 12.20578125 5 13 C2.5 12.125 2.5 12.125 0 10 C-0.46087248 6.63291991 -0.28526928 3.37885612 0 0 Z " fill="#C7EBF9" transform="translate(144,234)"/>
<path d="M0 0 C1.65 0 3.3 0 5 0 C5 3.3 5 6.6 5 10 C3.0549 7.08235 2.54723683 5.37462715 2 2 C1.34 2 0.68 2 0 2 C0 1.34 0 0.68 0 0 Z " fill="#439EE9" transform="translate(139,216)"/>
<path d="M0 0 C3.09423168 3.09423168 3.93706005 6.5523812 4.125 10.875 C4.08375 11.57625 4.0425 12.2775 4 13 C1.7522025 10.94766315 0.9977758 9.99332739 0 7 C-0.03954234 4.66700175 -0.04401732 2.33291811 0 0 Z " fill="#D3F4FB" transform="translate(141,110)"/>
<path d="M0 0 C1.13583456 3.71727674 0.66670026 5.47051709 -1 9 C-1.66 9 -2.32 9 -3 9 C-3.33 9.99 -3.66 10.98 -4 12 C-4.33 11.34 -4.66 10.68 -5 10 C-4.00390625 7.6171875 -4.00390625 7.6171875 -2.5625 4.875 C-1.85287109 3.50988281 -1.85287109 3.50988281 -1.12890625 2.1171875 C-0.75636719 1.41851562 -0.38382813 0.71984375 0 0 Z " fill="#499EDF" transform="translate(255,239)"/>
<path d="M0 0 C0 0.66 0 1.32 0 2 C-6.89715536 6.07877462 -6.89715536 6.07877462 -11.5 5.75 C-12.325 5.5025 -13.15 5.255 -14 5 C-9.89892226 2.77858289 -4.73442329 0 0 0 Z " fill="#D0F3FC" transform="translate(220,182)"/>
<path d="M0 0 C0.33 0 0.66 0 1 0 C1 1.65 1 3.3 1 5 C0.01 5 -0.98 5 -2 5 C-2 5.66 -2 6.32 -2 7 C-4.64 7 -7.28 7 -10 7 C-6.71536341 4.81024227 -3.79303725 4.00193437 0 3 C0 2.01 0 1.02 0 0 Z " fill="#BBE4F4" transform="translate(234,174)"/>
<path d="M0 0 C-1.7015625 0.7115625 -1.7015625 0.7115625 -3.4375 1.4375 C-6.75740166 2.63622083 -6.75740166 2.63622083 -8 4 C-9.99958364 4.04080783 -12.00045254 4.04254356 -14 4 C-14 3.34 -14 2.68 -14 2 C-12.42085985 1.46658816 -10.83645613 0.94874237 -9.25 0.4375 C-8.36828125 0.14746094 -7.4865625 -0.14257812 -6.578125 -0.44140625 C-3.92165684 -1.01697435 -2.52968894 -0.89248371 0 0 Z " fill="#CDEFFB" transform="translate(124,126)"/>
<path d="M0 0 C2.9512645 1.47563225 3.06923915 3.50079352 4.125 6.5625 C4.47820312 7.57441406 4.83140625 8.58632812 5.1953125 9.62890625 C5.46085938 10.41136719 5.72640625 11.19382812 6 12 C4.68 11.67 3.36 11.34 2 11 C1.34 7.37 0.68 3.74 0 0 Z " fill="#62A5CE" transform="translate(143,112)"/>
<path d="M0 0 C1.32 0 2.64 0 4 0 C4 0.66 4 1.32 4 2 C2.35 2.33 0.7 2.66 -1 3 C-0.938125 3.78375 -0.87625 4.5675 -0.8125 5.375 C-0.874375 6.24125 -0.93625 7.1075 -1 8 C-1.99 8.66 -2.98 9.32 -4 10 C-3.52449439 8.51965236 -3.04448784 7.04074979 -2.5625 5.5625 C-2.29566406 4.73878906 -2.02882812 3.91507812 -1.75390625 3.06640625 C-1 1 -1 1 0 0 Z " fill="#65A9D6" transform="translate(150,269)"/>
<path d="M0 0 C0.66 0 1.32 0 2 0 C2.99 3.3 3.98 6.6 5 10 C4.01 10.495 4.01 10.495 3 11 C2.49384702 9.73160474 1.99530901 8.46016898 1.5 7.1875 C1.2215625 6.47980469 0.943125 5.77210938 0.65625 5.04296875 C0 3 0 3 0 0 Z " fill="#C8EEFB" transform="translate(244,237)"/>
<path d="M0 0 C5.49418605 -0.36627907 5.49418605 -0.36627907 7.8125 1.3125 C9 3 9 3 10 6 C6.66666667 4.33333333 3.33333333 2.66666667 0 1 C0 0.67 0 0.34 0 0 Z " fill="#56AADE" transform="translate(302,189)"/>
<path d="M0 0 C1.258125 -0.020625 2.51625 -0.04125 3.8125 -0.0625 C4.52019531 -0.07410156 5.22789063 -0.08570313 5.95703125 -0.09765625 C8 0 8 0 11 1 C11 1.99 11 2.98 11 4 C7.37 3.01 3.74 2.02 0 1 C0 0.67 0 0.34 0 0 Z " fill="#CBEEFB" transform="translate(117,137)"/>
<path d="M0 0 C0.33 0 0.66 0 1 0 C1.3125 2.3125 1.3125 2.3125 1 5 C-1.25 6.875 -1.25 6.875 -4 8 C-6.3125 7.6875 -6.3125 7.6875 -8 7 C-6.68 6.67 -5.36 6.34 -4 6 C-4 5.34 -4 4.68 -4 4 C-2.68 4 -1.36 4 0 4 C0 2.68 0 1.36 0 0 Z " fill="#62A4D1" transform="translate(128,117)"/>
<path d="M0 0 C2.00047023 2.54605302 3.82572785 4.9664636 5 8 C4.67 8.99 4.34 9.98 4 11 C1 9 1 9 0.48828125 6.8359375 C0.43027344 6.02382812 0.37226563 5.21171875 0.3125 4.375 C0.24675781 3.55773437 0.18101562 2.74046875 0.11328125 1.8984375 C0.07589844 1.27195313 0.03851563 0.64546875 0 0 Z " fill="#499CD6" transform="translate(245,244)"/>
<path d="M0 0 C2.68092691 2.68092691 2.38670257 4.39167363 2.625 8.125 C2.69976562 9.22070312 2.77453125 10.31640625 2.8515625 11.4453125 C2.90054688 12.28835937 2.94953125 13.13140625 3 14 C2.67 13.01 2.34 12.02 2 11 C1.34 11 0.68 11 0 11 C0 7.37 0 3.74 0 0 Z " fill="#459CDB" transform="translate(234,212)"/>
<path d="M0 0 C0.66 0 1.32 0 2 0 C2.33 1.98 2.66 3.96 3 6 C3.66 6 4.32 6 5 6 C5 6.66 5 7.32 5 8 C3.68 8 2.36 8 1 8 C0.67 5.36 0.34 2.72 0 0 Z " fill="#4FA4E1" transform="translate(133,160)"/>
<path d="M0 0 C-0.78375 0.45375 -1.5675 0.9075 -2.375 1.375 C-5.03698031 2.88428742 -5.03698031 2.88428742 -7 5 C-7 4.01 -7 3.02 -7 2 C-7.99 1.67 -8.98 1.34 -10 1 C-8.71073008 0.63720544 -7.41846728 0.28503302 -6.125 -0.0625 C-5.40570313 -0.25972656 -4.68640625 -0.45695313 -3.9453125 -0.66015625 C-2 -1 -2 -1 0 0 Z " fill="#6AAFDF" transform="translate(156,139)"/>
<path d="M0 0 C1.32 0 2.64 0 4 0 C4 0.66 4 1.32 4 2 C4.99 2 5.98 2 7 2 C7.33 3.65 7.66 5.3 8 7 C7.67 6.34 7.34 5.68 7 5 C4.47266765 4.34444881 4.47266765 4.34444881 2 4 C2 3.01 2 2.02 2 1 C1.34 0.67 0.68 0.34 0 0 Z " fill="#429CDD" transform="translate(120,140)"/>
<path d="M0 0 C7.57142857 1.85714286 7.57142857 1.85714286 10 5 C6.87709365 4.51421457 4.00419641 4.0013988 1 3 C0.67 2.01 0.34 1.02 0 0 Z " fill="#D6F3FA" transform="translate(202,195)"/>
<path d="M0 0 C2.50037734 2.17424117 3.43628586 3.73045798 4 7 C2.68 7.33 1.36 7.66 0 8 C0 5.36 0 2.72 0 0 Z " fill="#DEF5FC" transform="translate(260,169)"/>
<path d="M0 0 C2 1.5625 2 1.5625 4 4 C4.25 7.75 4.25 7.75 4 11 C1.6870518 8.6870518 1.50419025 7.52095125 0.875 4.375 C0.70742187 3.55773437 0.53984375 2.74046875 0.3671875 1.8984375 C0.24601563 1.27195312 0.12484375 0.64546875 0 0 Z " fill="#58A4D4" transform="translate(139,101)"/>
<path d="M0 0 C0.20625 0.639375 0.4125 1.27875 0.625 1.9375 C1.88417172 4.3508355 1.88417172 4.3508355 5.0625 4.625 C6.5165625 4.810625 6.5165625 4.810625 8 5 C8.33 5.66 8.66 6.32 9 7 C3.53571429 6.39285714 3.53571429 6.39285714 1.125 4.625 C0 3 0 3 0 0 Z " fill="#5EA2D3" transform="translate(148,242)"/>
<path d="M0 0 C0.66 0.66 1.32 1.32 2 2 C1.63910592 5.48864279 -0.1410422 8.09032693 -2 11 C-3 9 -3 9 -2.44140625 6.8359375 C-2.15136719 6.02382812 -1.86132812 5.21171875 -1.5625 4.375 C-1.27503906 3.55773437 -0.98757812 2.74046875 -0.69140625 1.8984375 C-0.46324219 1.27195313 -0.23507813 0.64546875 0 0 Z " fill="#70ACDA" transform="translate(255,233)"/>
<path d="M0 0 C0.66 0 1.32 0 2 0 C2.33 1.98 2.66 3.96 3 6 C2.67 5.34 2.34 4.68 2 4 C1.34 4 0.68 4 0 4 C-0.33 5.32 -0.66 6.64 -1 8 C-2 6 -2 6 -1.0625 2.875 C-0.5365625 1.451875 -0.5365625 1.451875 0 0 Z " fill="#BEF1FD" transform="translate(136,214)"/>
<path d="M0 0 C0.99 0.33 1.98 0.66 3 1 C3.66 4.63 4.32 8.26 5 12 C2.65085508 9.65085508 2.26859643 8.04320554 1.375 4.875 C1.11460937 3.96492187 0.85421875 3.05484375 0.5859375 2.1171875 C0.39257812 1.41851562 0.19921875 0.71984375 0 0 Z " fill="#C7F0FB" transform="translate(235,212)"/>
<path d="M0 0 C0.99 0.495 0.99 0.495 2 1 C2 1.66 2 2.32 2 3 C2.99 3 3.98 3 5 3 C5 4.32 5 5.64 5 7 C4.01 7 3.02 7 2 7 C1.34 4.69 0.68 2.38 0 0 Z " fill="#4E9FDC" transform="translate(122,271)"/>
<path d="M0 0 C0.99 0 1.98 0 3 0 C2.67 2.97 2.34 5.94 2 9 C1.67 9 1.34 9 1 9 C0.67 6.03 0.34 3.06 0 0 Z " fill="#499FD9" transform="translate(128,224)"/>
<path d="M0 0 C1.65 0 3.3 0 5 0 C4.34 1.65 3.68 3.3 3 5 C1.68 4.67 0.36 4.34 -1 4 C-0.67 2.68 -0.34 1.36 0 0 Z " fill="#3E9DDF" transform="translate(285,201)"/>
<path d="M0 0 C0.66 0 1.32 0 2 0 C3.42944945 2.35438733 4.08661261 3.48032433 3.625 6.25 C3.41875 6.8275 3.2125 7.405 3 8 C2.67 6.68 2.34 5.36 2 4 C1.01 4.33 0.02 4.66 -1 5 C-0.67 3.35 -0.34 1.7 0 0 Z " fill="#B3EAFC" transform="translate(248,134)"/>
<path d="M0 0 C1.65 1.32 3.3 2.64 5 4 C1.625 4.125 1.625 4.125 -2 4 C-2.66 3.34 -3.32 2.68 -4 2 C-2.68 1.34 -1.36 0.68 0 0 Z " fill="#DDF4FA" transform="translate(118,264)"/>
<path d="M0 0 C0.33 0.99 0.66 1.98 1 3 C1.66 3 2.32 3 3 3 C3.33 4.65 3.66 6.3 4 8 C3.01 8 2.02 8 1 8 C-0.35439668 5.29120665 -0.06501451 2.99066732 0 0 Z " fill="#3C9AE3" transform="translate(128,151)"/>
<path d="M0 0 C2.31 0 4.62 0 7 0 C3.93882432 2.62386487 3.26826873 3 -1 3 C-0.67 2.01 -0.34 1.02 0 0 Z " fill="#CFF5FB" transform="translate(161,133)"/>
</svg>
