<?xml version="1.0" encoding="UTF-8"?>
<svg version="1.1" xmlns="http://www.w3.org/2000/svg" width="1567" height="1041">
<path d="M0 0 C1.03431152 -0.00974854 2.06862305 -0.01949707 3.13427734 -0.02954102 C26.0865671 -0.20127532 48.33294724 0.07354747 70.95703125 4.23828125 C72.01728516 4.42551758 73.07753906 4.61275391 74.16992188 4.80566406 C96.82422913 8.87668948 118.66794706 15.53675536 139.95703125 24.23828125 C140.66762695 24.52670898 141.37822266 24.81513672 142.11035156 25.11230469 C153.43732283 29.75468363 164.22162163 35.37192409 174.95703125 41.23828125 C175.58319336 41.57972168 176.20935547 41.92116211 176.85449219 42.27294922 C193.0559 51.16881424 208.34408093 61.15993885 222.85546875 72.59716797 C224.9760778 74.25315473 227.1177807 75.87691808 229.26953125 77.4921875 C243.02083094 87.82508501 255.82490011 99.05302982 268.390625 110.78515625 C269.91319797 112.19761796 271.44795596 113.5952222 272.98828125 114.98828125 C279.77851515 121.14719175 286.33939878 127.51627818 292.83203125 133.98828125 C293.62883301 134.78049072 294.42563477 135.5727002 295.24658203 136.38891602 C299.41304522 140.56630448 303.4112799 144.8236531 307.25927734 149.29541016 C310.18297719 152.641226 313.26947064 155.8326116 316.33203125 159.05078125 C321.41310648 164.42594201 326.23927889 169.87369746 330.84765625 175.66015625 C333.14537429 178.4684783 335.56038273 181.1329777 338.01953125 183.80078125 C341.74816123 187.86109917 345.26423178 192.01247454 348.671875 196.34375 C351.69193638 200.16916109 354.76053242 203.95412402 357.83203125 207.73828125 C358.4041333 208.44557373 358.97623535 209.15286621 359.56567383 209.8815918 C360.10474365 210.54586182 360.64381348 211.21013184 361.19921875 211.89453125 C361.68245605 212.49072266 362.16569336 213.08691406 362.66357422 213.70117188 C364.02379637 215.36222095 364.02379637 215.36222095 365.95703125 217.23828125 C366.97283474 215.91773671 367.98863061 214.59718631 369.00439453 213.27661133 C369.901079 212.11098748 370.7978921 210.94546259 371.69482422 209.7800293 C373.98830843 206.79961743 376.28002621 203.81789742 378.56640625 200.83203125 C382.99890773 195.04753125 387.46744269 189.29683731 392.0390625 183.62109375 C393.31362303 182.03762752 394.58191321 180.44909285 395.84375 178.85546875 C400.92668549 172.44251566 406.17969634 166.18287125 411.49072266 159.95898438 C412.9664554 158.22722208 414.43663245 156.49085931 415.90625 154.75390625 C421.49923133 148.1640744 427.19930775 141.70608116 433.12475586 135.41210938 C435.29521122 133.09715409 437.19110237 130.88717458 438.95703125 128.23828125 C439.61703125 128.23828125 440.27703125 128.23828125 440.95703125 128.23828125 C441.16247559 127.70759033 441.36791992 127.17689941 441.57958984 126.63012695 C443.53068673 123.24216236 446.23559824 120.6948712 448.99609375 117.96875 C449.59577972 117.36952225 450.1954657 116.77029449 450.81332397 116.15290833 C452.08363416 114.88561588 453.35637055 113.62075142 454.63134766 112.3581543 C456.55941715 110.44818307 458.47952157 108.53049089 460.3984375 106.61132812 C466.41754912 100.60985263 472.46862407 94.73588289 478.95703125 89.23828125 C480.50184385 87.82504575 482.0439845 86.40887716 483.58203125 84.98828125 C489.23962775 79.88518119 495.20283296 75.22419498 501.23388672 70.57617188 C502.80102238 69.35941026 504.35076638 68.12033169 505.8984375 66.87890625 C543.73256959 36.8534166 587.99066265 14.47880658 635.33203125 4.42578125 C636.24500977 4.23089111 637.15798828 4.03600098 638.09863281 3.83520508 C653.89445048 0.66121373 669.44881786 -0.13709996 685.51953125 -0.07421875 C686.48814087 -0.07239594 687.45675049 -0.07057312 688.45471191 -0.06869507 C703.14371026 -0.02220706 717.4865132 0.51881275 731.95703125 3.23828125 C733.41447754 3.50366699 733.41447754 3.50366699 734.90136719 3.77441406 C741.96321035 5.08450929 748.96541538 6.59618547 755.95703125 8.23828125 C756.86098633 8.44791504 757.76494141 8.65754883 758.69628906 8.87353516 C799.38187506 18.52132198 838.50970146 38.34724513 871.95703125 63.23828125 C873.02195801 64.0271875 873.02195801 64.0271875 874.10839844 64.83203125 C887.69411316 74.937811 900.42707188 85.86050206 912.95703125 97.23828125 C914.72772778 98.82176757 916.4985607 100.40510139 918.26953125 101.98828125 C925.38482009 108.40884898 925.38482009 108.40884898 927.95703125 111.23828125 C927.95703125 111.89828125 927.95703125 112.55828125 927.95703125 113.23828125 C928.61703125 113.23828125 929.27703125 113.23828125 929.95703125 113.23828125 C931.4375 114.7421875 931.4375 114.7421875 933.14453125 116.80078125 C935.44431827 119.51310738 937.7675759 122.08794768 940.33203125 124.55078125 C944.02167967 128.1831624 947.21720422 132.14632175 950.45703125 136.1796875 C952.17933031 138.28681276 953.91131811 140.34918928 955.70703125 142.390625 C963.41883449 151.16195617 970.38253269 160.3600842 977.21337891 169.83007812 C978.89947761 172.15879244 980.60294952 174.47362309 982.3125 176.78515625 C989.47722998 186.51381398 996.09179422 196.49027138 1002.43017578 206.77441406 C1003.98357884 209.28112075 1005.55946689 211.77244034 1007.140625 214.26171875 C1014.83640651 226.43715156 1021.8270957 238.90773702 1028.56884766 251.63378906 C1029.7247938 253.80256034 1030.8989552 255.95798077 1032.09375 258.10546875 C1039.08472532 270.79767971 1044.96906676 284.05251698 1050.95703125 297.23828125 C1051.45170898 298.32560547 1051.94638672 299.41292969 1052.45605469 300.53320312 C1089.900346 383.19179568 1111.79947425 472.6842515 1126.95703125 627.23828125 C1127.01487793 628.40214355 1127.07272461 629.56600586 1127.13232422 630.76513672 C1131.51719057 723.21165141 1125.32122585 821.59012651 1059.95703125 942.23828125 C1059.47153809 942.91165527 1058.98604492 943.5850293 1058.48583984 944.27880859 C1050.70127989 954.97490689 1042.21674143 964.79751529 1032.95703125 974.23828125 C1032.36647949 974.842771 1031.77592773 975.44726074 1031.16748047 976.07006836 C1026.08133634 981.22434893 1020.63038527 985.7407519 1014.95703125 990.23828125 C1014.18649414 990.85606445 1014.18649414 990.85606445 1013.40039062 991.48632812 C1005.60458531 997.72489489 997.5980482 1003.2018028 988.95703125 1008.23828125 C988.36615723 1008.59245117 987.7752832 1008.94662109 987.16650391 1009.31152344 C964.27676137 1023.02962885 939.17601454 1031.76087818 913.08203125 1037.11328125 C912.1580957 1037.30438477 911.23416016 1037.49548828 910.28222656 1037.69238281 C892.82165413 1041.02714032 875.24742059 1041.61508167 857.51953125 1041.55078125 C856.47176514 1041.54895844 855.42399902 1041.54713562 854.34448242 1041.54525757 C814.36360301 1041.42855671 774.28116087 1035.9240429 737.95703125 1018.23828125 C737.30621582 1017.92922852 736.65540039 1017.62017578 735.98486328 1017.30175781 C714.67612783 1007.17432504 694.58048744 994.33409337 676.8359375 978.75 C674.06021691 976.32830618 671.21557 974.02970093 668.33203125 971.73828125 C663.39396903 967.72745342 658.95564797 963.33766445 654.515625 958.796875 C652.35645795 956.63770795 650.16587808 954.63990977 647.83203125 952.67578125 C643.99990689 949.39554498 640.70498962 945.75543276 637.375 941.97265625 C635.23748783 939.55543732 633.06119641 937.18074429 630.86450195 934.81738281 C626.12878125 929.71446919 621.62000055 924.48915267 617.25390625 919.0625 C615.23184753 916.5761931 613.16568863 914.13578894 611.07543945 911.70678711 C604.66231467 904.23872905 598.69145893 896.47092484 592.76074219 888.6171875 C590.84995911 886.09706429 588.9245961 883.58861735 586.99609375 881.08203125 C579.80071634 871.7174655 572.74291028 862.29081093 565.9987793 852.59570312 C564.06865513 849.82400961 562.12619673 847.06203777 560.16601562 844.31152344 C553.12505998 834.42654762 546.34347241 824.39840864 539.70703125 814.23828125 C538.70563621 812.70926418 537.70417028 811.18029353 536.70263672 809.65136719 C514.49419913 775.71460655 514.49419913 775.71460655 504.828125 759.37109375 C503.08797577 756.45752448 501.29205878 753.59276851 499.45703125 750.73828125 C495.57964417 744.69594578 491.90637871 738.53609409 488.22998047 732.37060547 C485.93762029 728.53066035 483.63388014 724.69754291 481.33203125 720.86328125 C480.29945775 719.14193993 479.2669063 717.42058539 478.234375 715.69921875 C475.99940758 711.97404818 473.7621086 708.25028963 471.5234375 704.52734375 C463.98638446 691.9875037 456.49433133 679.42190432 449.03131104 666.83792114 C443.84156586 658.08735618 438.63396433 649.34828319 433.38867188 640.63085938 C428.49557701 632.48935007 423.65953686 624.31407531 418.82543945 616.13745117 C415.41263633 610.36807458 411.98416885 604.60870379 408.53125 598.86328125 C405.51103997 593.83768989 402.50616063 588.80343498 399.51953125 583.7578125 C399.15095505 583.13522552 398.78237885 582.51263855 398.40263367 581.8711853 C397.64486878 580.59108558 396.88712264 579.31097476 396.12939453 578.03085327 C389.12226215 566.1961029 382.04709457 554.40644432 374.88320923 542.66595459 C370.09822655 534.82077819 365.42836943 526.92328428 360.86987305 518.94482422 C355.84347036 510.20418266 350.40674114 501.71927564 344.95703125 493.23828125 C340.5821726 500.41989566 336.41719442 507.70117619 332.33203125 515.05078125 C327.91453785 522.97051571 323.47082127 530.87302118 318.95703125 538.73828125 C313.96520123 547.44016493 309.05711951 556.1871078 304.16577148 564.94580078 C300.48830809 571.52386279 296.77274129 578.07818358 293.01953125 584.61328125 C288.4855525 592.50963863 284.0507905 600.45752153 279.64453125 608.42578125 C274.0434068 618.54995347 268.32051831 628.59579732 262.51464844 638.60375977 C258.23830182 645.98576125 254.04435905 653.40950963 249.89453125 660.86328125 C244.72491028 670.14283459 239.4350607 679.34409987 234.06176758 688.50708008 C230.35547573 694.82939495 226.70018744 701.17768379 223.08203125 707.55078125 C216.88540081 718.444287 210.48820147 729.21695328 204.07778931 739.98558044 C201.64088316 744.08146861 199.21784982 748.18534831 196.80078125 752.29296875 C189.49705296 764.69607491 182.06627391 776.99295624 174.30664062 789.11669922 C172.54278238 791.88947927 170.81115411 794.68162642 169.08032227 797.47509766 C163.88520462 805.85353303 158.48647081 814.07726705 152.95703125 822.23828125 C152.46332031 822.96917969 151.96960938 823.70007813 151.4609375 824.453125 C144.02860256 835.44408415 136.39856865 846.27181332 128.58642578 856.99560547 C126.94108657 859.26022729 125.30503177 861.53126731 123.671875 863.8046875 C112.98061771 878.68494485 102.07484562 893.30117703 90.42626953 907.44873047 C89.0940474 909.07139384 87.77293452 910.70316223 86.453125 912.3359375 C82.14471256 917.66338314 77.70026648 922.82237283 73.08984375 927.890625 C68.98671303 932.40707475 64.96060771 936.97652986 61.14453125 941.73828125 C60.42265625 942.56328125 59.70078125 943.38828125 58.95703125 944.23828125 C58.29703125 944.23828125 57.63703125 944.23828125 56.95703125 944.23828125 C56.75078125 944.769375 56.54453125 945.30046875 56.33203125 945.84765625 C54.37741933 949.24601561 51.73579408 951.74884053 48.95703125 954.48828125 C48.1371875 955.31972656 48.1371875 955.31972656 47.30078125 956.16796875 C43.21041795 960.23828125 43.21041795 960.23828125 40.95703125 960.23828125 C40.95703125 960.89828125 40.95703125 961.55828125 40.95703125 962.23828125 C39.55859375 963.6484375 39.55859375 963.6484375 37.58203125 965.30078125 C34.41218958 967.9876523 31.3229228 970.73226597 28.26953125 973.55078125 C23.01359239 978.28032866 17.49830042 982.61712387 11.83203125 986.83886719 C10.53653682 987.80576485 9.24511179 988.77813033 7.95703125 989.75488281 C-3.81398293 998.66549663 -16.04875672 1006.24119754 -29.04296875 1013.23828125 C-29.75163086 1013.6235498 -30.46029297 1014.00881836 -31.19042969 1014.40576172 C-68.19663244 1034.3537124 -109.45312105 1041.69494478 -151.10546875 1041.61328125 C-152.20113159 1041.61240509 -153.29679443 1041.61152893 -154.42565918 1041.61062622 C-189.96013985 1041.51731156 -224.58132335 1036.64008734 -258.04296875 1024.23828125 C-259.16832031 1023.84125 -260.29367187 1023.44421875 -261.453125 1023.03515625 C-282.1101979 1015.50523903 -301.91487143 1003.96139537 -319.04296875 990.23828125 C-320.326875 989.24054688 -320.326875 989.24054688 -321.63671875 988.22265625 C-336.82286287 976.31746919 -351.4050263 962.67636817 -363.04296875 947.23828125 C-363.52443359 946.60083984 -364.00589844 945.96339844 -364.50195312 945.30664062 C-372.72312483 934.35519049 -380.14472186 923.06273675 -387.04296875 911.23828125 C-387.6786377 910.16441162 -387.6786377 910.16441162 -388.32714844 909.06884766 C-399.07941296 890.83297396 -407.25407457 871.26515759 -414.04296875 851.23828125 C-414.55875488 849.72911133 -414.55875488 849.72911133 -415.08496094 848.18945312 C-425.81286572 816.39395069 -432.26357324 783.54420422 -436.04296875 750.23828125 C-436.12546875 749.52800781 -436.20796875 748.81773437 -436.29296875 748.0859375 C-442.02310658 698.24283386 -440.93454958 646.09633989 -436.04296875 596.23828125 C-435.87488372 594.46990037 -435.70691692 592.70150825 -435.5390625 590.93310547 C-428.96171104 522.69240882 -415.12493362 455.46050076 -394.04296875 390.23828125 C-393.79760376 389.47684814 -393.55223877 388.71541504 -393.29943848 387.9309082 C-382.47080661 354.39855557 -369.50077704 321.77801653 -354.33642578 289.96484375 C-353.11370146 287.38738334 -351.91559974 284.80017174 -350.7265625 282.20703125 C-345.51250215 270.89313317 -339.69954393 259.96051644 -333.62988281 249.08398438 C-332.03759993 246.22865371 -330.45809719 243.36649389 -328.87890625 240.50390625 C-321.43029355 227.0818451 -313.43906045 214.08628836 -305.04296875 201.23828125 C-304.52879395 200.44583008 -304.01461914 199.65337891 -303.48486328 198.83691406 C-286.95146339 173.38849834 -268.38281501 149.39082406 -247.734375 127.15234375 C-245.974388 125.2467555 -244.23133518 123.32534981 -242.5078125 121.38671875 C-234.52958194 112.4578393 -225.84941529 104.34245574 -217.04296875 96.23828125 C-216.07746094 95.34625 -215.11195313 94.45421875 -214.1171875 93.53515625 C-208.27647572 88.20678761 -202.22723977 83.16161271 -196.04296875 78.23828125 C-195.38232422 77.71041016 -194.72167969 77.18253906 -194.04101562 76.63867188 C-184.01500295 68.65215413 -173.86153015 61.11217782 -163.04296875 54.23828125 C-161.89368896 53.49843994 -161.89368896 53.49843994 -160.72119141 52.74365234 C-113.1398245 22.1791347 -57.18775215 0.44853139 0 0 Z M641.95703125 138.23828125 C641.24015137 138.40457031 640.52327148 138.57085937 639.78466797 138.7421875 C608.53375923 146.10657359 581.16943516 162.79737352 557.37451172 183.97949219 C555.58722872 185.56668322 553.77077102 187.11895599 551.95703125 188.67578125 C539.78797908 199.30398577 539.78797908 199.30398577 528.78515625 211.09375 C526.80691232 213.41438231 524.74378155 215.63612274 522.66088867 217.86254883 C516.81359299 224.11491463 511.31268991 230.55679179 505.95703125 237.23828125 C504.95066693 238.46603222 503.94275404 239.69251491 502.93359375 240.91796875 C495.33442027 250.16292502 488.03580105 259.58969807 480.95703125 269.23828125 C480.42045898 269.96837402 479.88388672 270.6984668 479.33105469 271.45068359 C472.90094822 280.21986873 466.60805383 289.05610785 460.66015625 298.16015625 C458.56301091 301.35935633 456.38695167 304.49647804 454.19140625 307.62890625 C453.54292725 308.56694092 452.89444824 309.50497559 452.22631836 310.47143555 C450.94368668 312.32601054 449.64801922 314.17165229 448.33813477 316.00708008 C444.91270304 320.86113463 444.91270304 320.86113463 443.84765625 326.5546875 C445.05954279 329.48625811 446.42141509 331.6280283 448.39453125 334.11328125 C451.77716449 338.56728231 454.83841614 343.10079892 457.76953125 347.86328125 C461.2528525 353.50687986 464.78317444 359.11310099 468.39453125 364.67578125 C469.08494507 365.74034546 469.08494507 365.74034546 469.78930664 366.82641602 C471.61410959 369.63770228 473.44132846 372.44739654 475.27197266 375.25488281 C488.50129906 395.5441619 501.18676854 416.16509396 513.71829224 436.89031982 C516.20765895 441.00561762 518.70835084 445.11386469 521.21484375 449.21875 C528.83711297 461.70995311 536.34646065 474.25791242 543.72167969 486.89666748 C550.06216903 497.75880137 556.55531309 508.52096822 563.12646484 519.24511719 C566.16083335 524.2066213 569.17662474 529.17940394 572.19320679 534.1517334 C573.62998737 536.51990174 575.06739719 538.88768789 576.504776 541.25549316 C578.68693997 544.85025932 580.86876316 548.44523233 583.05065918 552.04016113 C587.68488703 559.6755342 592.31987855 567.31044221 596.95654297 574.94433594 C598.25530983 577.08284735 599.55382705 579.2215104 600.85205078 581.36035156 C612.22162244 600.08992112 623.74354696 618.72027678 635.36865234 637.29223633 C638.90359523 642.94223062 642.42255914 648.60155688 645.921875 654.27368164 C653.15626975 665.9997246 660.51472238 677.6431295 667.95703125 689.23828125 C668.46105469 690.02396484 668.96507812 690.80964844 669.484375 691.61914062 C679.19047318 706.71894589 689.1823612 721.63078377 699.15872192 736.55267334 C701.17423946 739.56746528 703.18784695 742.58344131 705.19287109 745.60522461 C709.0370194 751.3942583 712.93196537 757.1360256 716.95703125 762.80078125 C717.47338135 763.52910156 717.98973145 764.25742187 718.52172852 765.0078125 C719.99757997 767.0864895 721.47656664 769.16288821 722.95703125 771.23828125 C723.64667969 772.20636719 724.33632812 773.17445313 725.046875 774.171875 C735.93350357 789.29347114 747.28716686 804.13692996 759.84765625 817.91015625 C761.71378692 819.96981158 763.52772913 822.0621702 765.33203125 824.17578125 C787.64064745 849.67134262 815.50048124 869.51373745 850.01953125 872.05078125 C880.54447519 873.70323836 908.70856927 865.45082236 931.76953125 845.30078125 C934.16306855 843.20584329 934.16306855 843.20584329 935.95703125 841.23828125 C935.95703125 840.57828125 935.95703125 839.91828125 935.95703125 839.23828125 C936.61703125 839.23828125 937.27703125 839.23828125 937.95703125 839.23828125 C966.29895282 807.13311698 973.44162368 761.27984332 976.95703125 720.23828125 C977.0650708 719.00319824 977.0650708 719.00319824 977.17529297 717.74316406 C982.73892068 650.77302465 974.86522447 580.1063384 962.95703125 514.23828125 C962.82939392 513.52833008 962.70175659 512.81837891 962.57025146 512.08691406 C951.94632633 453.23531803 935.60366331 394.81695853 910.95703125 340.23828125 C910.67966125 339.62122314 910.40229126 339.00416504 910.11651611 338.3684082 C902.28706318 320.96095161 894.01265302 304.01333652 884.30859375 287.55517578 C883.12550754 285.52708906 881.9821226 283.4858487 880.86328125 281.421875 C875.05180857 270.79623746 868.00712292 261.06733685 860.95703125 251.23828125 C860.20035156 250.17222656 859.44367188 249.10617188 858.6640625 248.0078125 C853.7459368 241.14271746 848.53175816 234.51774491 843.27783203 227.90869141 C842.02358315 226.32244911 840.78477299 224.72403516 839.546875 223.125 C838.48146484 221.75794922 838.48146484 221.75794922 837.39453125 220.36328125 C836.77449219 219.56148438 836.15445312 218.7596875 835.515625 217.93359375 C835.00128906 217.37414062 834.48695313 216.8146875 833.95703125 216.23828125 C833.29703125 216.23828125 832.63703125 216.23828125 831.95703125 216.23828125 C831.61526855 215.41082397 831.61526855 215.41082397 831.26660156 214.56665039 C829.57305841 211.55559128 827.43574645 209.43935704 825.00390625 206.984375 C824.51185699 206.4867717 824.01980774 205.9891684 823.5128479 205.47648621 C821.91758204 203.86942803 820.31350695 202.2716295 818.70703125 200.67578125 C818.16169739 200.13193787 817.61636353 199.58809448 817.05450439 199.027771 C809.11165009 191.12410889 801.10213465 183.74273605 791.95703125 177.23828125 C790.87196747 176.42678786 789.78866771 175.61293108 788.70703125 174.796875 C747.4197387 144.00624956 693.39031112 125.60685453 641.95703125 138.23828125 Z M-22.04296875 174.23828125 C-22.71569824 174.40457031 -23.38842773 174.57085937 -24.08154297 174.7421875 C-35.640258 177.62585861 -46.33554982 182.06351904 -57.04296875 187.23828125 C-57.70039063 187.5513623 -58.3578125 187.86444336 -59.03515625 188.18701172 C-69.00897657 192.9932736 -77.65447774 199.08011703 -86.34521484 205.91064453 C-87.74658458 207.00651002 -89.16769109 208.07708643 -90.59375 209.140625 C-105.3791084 220.19585642 -119.49037545 234.08113643 -130.91796875 248.5546875 C-133.14326879 251.36494693 -135.46208004 254.07767569 -137.79296875 256.80078125 C-149.12605644 270.41452126 -158.80587549 285.15036103 -168.04296875 300.23828125 C-168.44999023 300.89924805 -168.85701172 301.56021484 -169.27636719 302.24121094 C-171.91986378 306.54215552 -174.50553541 310.87394088 -177.04296875 315.23828125 C-177.41566895 315.87926758 -177.78836914 316.52025391 -178.17236328 317.18066406 C-219.00753881 387.94783349 -243.9265002 468.19359973 -258.65161133 773.80395508 C-252.10539136 798.08099434 -241.01445258 825.90706561 -221.29296875 842.61328125 C-219.23244351 844.36057646 -217.19274352 846.09531442 -215.23828125 847.9609375 C-196.18713327 865.9082636 -168.78556423 872.53605945 -143.26171875 872.23828125 C-114.05812728 871.31885121 -88.4412739 860.74063043 -66.04296875 842.23828125 C-65.5212207 841.81804688 -64.99947266 841.3978125 -64.46191406 840.96484375 C-56.25467746 834.3469132 -48.70720108 827.10335905 -41.23046875 819.67578125 C-40.3590625 818.81364014 -39.48765625 817.95149902 -38.58984375 817.06323242 C-33.41444478 811.86272449 -28.64845628 806.47292562 -24.05932617 800.74926758 C-21.48850242 797.54779981 -18.8037705 794.45695421 -16.10546875 791.36328125 C-10.47870839 784.85016891 -5.21407606 778.11593973 -0.04296875 771.23828125 C0.68277344 770.28695312 1.40851563 769.335625 2.15625 768.35546875 C7.60274073 761.17822603 12.80437355 753.84215884 17.98046875 746.46875 C20.21071572 743.29262015 22.45952234 740.13079476 24.7244873 736.97935486 C28.56703805 731.6279356 32.35879464 726.24601361 36.08984375 720.81640625 C36.56447556 720.12572556 37.03910736 719.43504486 37.52812195 718.72343445 C42.67779845 711.21189342 47.72895916 703.63577162 52.76953125 696.05078125 C53.73467423 694.60018878 54.69992634 693.1496689 55.6652832 691.69921875 C57.10310726 689.53878966 58.54081926 687.37828681 59.97801208 685.21743774 C62.68210185 681.15197535 65.39082434 677.08967724 68.10546875 673.03125 C74.70605623 663.16217884 81.22956896 653.24937646 87.65234375 643.26367188 C88.93764797 641.26837176 90.22762573 639.27618748 91.51953125 637.28515625 C99.01720918 625.72905055 106.43922903 614.1248585 113.85888672 602.51855469 C115.9431936 599.25991526 118.02979633 596.00275819 120.1171875 592.74609375 C126.61555062 582.60586724 133.0995307 572.45749887 139.52050781 562.26806641 C143.31549748 556.24714467 147.13302742 550.24081163 150.95703125 544.23828125 C155.30432194 537.41368726 159.64040423 530.58231213 163.95703125 523.73828125 C170.59355573 513.21905922 177.26891282 502.72476263 183.95703125 492.23828125 C184.59688965 491.23458496 185.23674805 490.23088867 185.89599609 489.19677734 C195.49202306 474.1504533 205.18345664 459.1697936 214.95703125 444.23828125 C217.83237095 439.84267006 220.70718582 435.44671571 223.58203125 431.05078125 C224.30124756 429.9512915 225.02046387 428.85180176 225.76147461 427.71899414 C230.51467131 420.45070647 235.25748206 413.17581284 239.98022461 405.88769531 C242.7341941 401.64179465 245.50219372 397.40574197 248.29086304 393.18252563 C249.85811196 390.80868986 251.42220097 388.43277825 252.98632812 386.05688477 C253.75112705 384.89727291 254.51753567 383.73872089 255.28564453 382.58129883 C256.3611326 380.96051612 257.43067582 379.33579348 258.5 377.7109375 C259.1189917 376.77515869 259.7379834 375.83937988 260.37573242 374.87524414 C261.90357999 372.32741621 263.16206086 370.10381753 263.95703125 367.23828125 C263.36216911 365.31697965 263.36216911 365.31697965 261.984375 363.6640625 C261.50339355 363.00567383 261.02241211 362.34728516 260.52685547 361.66894531 C259.71885498 360.6204541 259.71885498 360.6204541 258.89453125 359.55078125 C258.34812988 358.81182617 257.80172852 358.07287109 257.23876953 357.31152344 C256.07886184 355.74318824 254.91198628 354.17998622 253.73876953 352.62158203 C251.43424496 349.53898832 249.20139305 346.40800587 246.96630859 343.27490234 C241.13871819 335.12115096 235.11299147 327.14593746 228.95703125 319.23828125 C227.67316291 317.56762226 226.39247581 315.89455509 225.11181641 314.22143555 C220.4713404 308.16367566 215.75844966 302.16944516 210.95703125 296.23828125 C209.87808594 294.89636719 209.87808594 294.89636719 208.77734375 293.52734375 C204.35774646 288.06784121 199.80994698 282.76918794 195.078125 277.578125 C193.1491679 275.4502331 191.26666772 273.29107266 189.39453125 271.11328125 C186.38107481 267.64745837 183.16941277 264.4322585 179.8984375 261.2109375 C178.13913886 259.42332017 176.51193589 257.59101999 174.89453125 255.67578125 C171.16584644 251.3459767 167.16407957 247.29574536 163.14453125 243.23828125 C162.47349365 242.55435303 161.80245605 241.8704248 161.11108398 241.16577148 C160.47630127 240.52969971 159.84151855 239.89362793 159.1875 239.23828125 C158.61410889 238.66078125 158.04071777 238.08328125 157.44995117 237.48828125 C156.02597637 236.02429094 156.02597637 236.02429094 153.95703125 236.23828125 C153.95703125 235.57828125 153.95703125 234.91828125 153.95703125 234.23828125 C152.64816314 232.83526688 152.64816314 232.83526688 150.83203125 231.36328125 C148.16744601 229.10935013 145.5123815 226.85239912 142.90625 224.53125 C115.43507364 200.23621319 82.84442436 182.24919587 46.95703125 174.23828125 C46.24627441 174.07312012 45.53551758 173.90795898 44.80322266 173.73779297 C23.95958432 169.06885661 -1.34926318 168.79603418 -22.04296875 174.23828125 Z " fill="#0075F0" transform="translate(439.04296875,-0.23828125)"/>
</svg>
