<svg xmlns="http://www.w3.org/2000/svg" xmlns:xlink="http://www.w3.org/1999/xlink" viewBox="0 0 61 81" fill="#fff" fill-rule="evenodd" stroke="#000" stroke-linecap="round" stroke-linejoin="round"><use xlink:href="#A" x=".5" y=".5"/><symbol id="A" overflow="visible"><g stroke="none"><path d="M51.148 9.619h0C33.115 7.696 30 0 30 0S25.902 9.94 0 9.94v41.042c0 4.97 2.787 9.619 6.722 13.627h0C15.573 73.748 30 80 30 80s30-12.826 30-29.018V9.94c-3.278 0-6.23-.16-8.852-.321z" fill="#0072c6"/><path d="M21.703 46.734h-2.962l-7.805-11.551a5.06 5.06 0 0 1-.49-.909h-.068c.061.335.092 1.056.092 2.159v10.302H7.85V31.019h3.157l7.542 11.277.615.965h.045c-.075-.417-.113-1.122-.113-2.115V31.021h2.608v15.713zm3.293-.626v-2.685c.25.22.548.417.895.591a7.26 7.26 0 0 0 1.1.444c.386.119.775.213 1.162.279a6.44 6.44 0 0 0 1.071.099c1.14 0 1.989-.183 2.547-.548s.837-.895.837-1.589c0-.372-.093-.696-.278-.97s-.447-.524-.782-.75-.728-.444-1.18-.653l-1.453-.652-1.55-.866c-.478-.292-.895-.616-1.248-.97s-.63-.755-.832-1.201-.302-.968-.302-1.568c0-.737.173-1.379.518-1.924s.802-.994 1.367-1.348 1.21-.617 1.931-.789a9.52 9.52 0 0 1 2.21-.258c1.709 0 2.953.186 3.736.559v2.575c-.926-.643-2.118-.965-3.576-.965a6.72 6.72 0 0 0-1.202.109 3.64 3.64 0 0 0-1.072.362 2.29 2.29 0 0 0-.768.646c-.197.263-.295.585-.295.959 0 .351.075.654.228.909a2.44 2.44 0 0 0 .667.702c.292.213.65.419 1.071.619l1.464.653 1.612.899c.507.314.95.662 1.333 1.041s.688.802.912 1.267.337.992.337 1.584c0 .797-.168 1.468-.502 2.017s-.785.994-1.351 1.337-1.215.592-1.954.746a11.39 11.39 0 0 1-2.335.231c-.273 0-.61-.021-1.008-.059l-1.225-.175-1.185-.281c-.372-.111-.672-.237-.9-.377zm26.205-.449c-1.702.893-3.596 1.337-5.685 1.337-2.415 0-4.372-.723-5.868-2.171s-2.245-3.36-2.245-5.743c0-2.434.819-4.43 2.457-5.99s3.715-2.339 6.237-2.339c1.815 0 3.342.257 4.58.768v2.685C49.424 33.403 47.932 33 46.199 33c-1.74 0-3.165.551-4.278 1.654s-1.669 2.532-1.669 4.285c0 1.804.478 3.224 1.435 4.257s2.257 1.552 3.897 1.552c1.125 0 2.096-.208 2.917-.625v-3.737h-3.44v-2.191h6.141v7.463z"/></g></symbol></svg>