<svg width="44" height="48" viewBox="0 0 44 48" fill="none" xmlns="http://www.w3.org/2000/svg">
<g clip-path="url(#clip0_5673_4986)">
<path d="M32.9225 32.6352L32.9327 43.2372L23.7023 47.9319V37.3346L32.9225 32.6352ZM44.0004 26.9688V37.6079L36.1277 41.6124L36.122 31.022L44.0004 26.9688ZM32.9089 18.4444L32.9191 28.9352L23.7023 33.6033V23.109L32.9089 18.4444ZM44.0004 12.8243V23.2491L36.1198 27.3324L36.1129 16.8208L44.0004 12.8243ZM22.2991 11.591L30.5377 15.8295L21.9901 20.2046L13.9072 16.0669L22.2991 11.591ZM10.8395 5.69532L18.6974 9.73809L10.2862 14.2128L2.21582 10.082L10.8395 5.69532ZM33.302 5.75669L41.7655 10.082L34.1962 13.9569L25.9406 9.71261L33.302 5.75669ZM22.0401 0L29.6594 3.89338L22.3537 7.86899L14.5026 3.83316L22.0401 0Z" fill="#4DABCF"/>
<path d="M20.4435 23.109L14.2262 19.9232V33.6937C14.2262 33.6937 6.62286 17.2041 5.91842 15.723C5.82752 15.5319 5.45372 15.3223 5.35828 15.2713C3.99485 14.5417 0 12.4792 0 12.4792V36.8077L5.52643 39.8186V27.102C5.52643 27.102 13.0492 41.836 13.1253 41.9969C13.2014 42.1579 13.957 43.7108 14.7637 44.2563C15.8385 44.9812 20.4446 47.8046 20.4446 47.8046L20.4435 23.109Z" fill="#4D77CF"/>
</g>
<defs>
<clipPath id="clip0_5673_4986">
<rect width="44" height="48" fill="white"/>
</clipPath>
</defs>
</svg>
