<svg width="54" height="54" viewBox="0 0 54 54" fill="none" xmlns="http://www.w3.org/2000/svg">
<g clip-path="url(#clip0_5673_8455)">
<path d="M20.2504 20.25C20.6969 20.2472 21.1395 20.3344 21.5516 20.5065C21.9637 20.6785 22.3369 20.9318 22.6489 21.2513C22.9481 21.5505 23.1866 21.9038 23.3621 22.3088C23.5376 22.7115 23.6254 23.1503 23.6254 23.625V43.875C23.6254 44.3475 23.5354 44.7885 23.3621 45.1935C23.1866 45.5985 22.9481 45.9585 22.6489 46.2735C22.3339 46.5728 21.9739 46.8113 21.5689 46.9868C21.1639 47.16 20.7229 47.25 20.2504 47.25C19.7779 47.25 19.3369 47.16 18.9319 46.9868C18.5381 46.818 18.18 46.576 17.8766 46.2735C17.5616 45.9585 17.3141 45.5985 17.1386 45.1935C16.9605 44.777 16.8708 44.328 16.8754 43.875V23.625C16.8672 23.1814 16.9521 22.741 17.1246 22.3321C17.297 21.9233 17.5532 21.5551 17.8766 21.2513C18.1804 20.9279 18.5486 20.6717 18.9575 20.4993C19.3663 20.3268 19.8067 20.2419 20.2504 20.25ZM30.3754 27C30.8219 26.9972 31.2645 27.0844 31.6766 27.2565C32.0887 27.4285 32.4619 27.6818 32.7739 28.0013C33.0731 28.3005 33.3116 28.6538 33.4871 29.0588C33.6626 29.4615 33.7504 29.9003 33.7504 30.375V43.875C33.7504 44.3475 33.6604 44.7885 33.4871 45.1935C33.3116 45.5985 33.0731 45.9585 32.7739 46.2735C32.4589 46.5728 32.0989 46.8113 31.6939 46.9868C31.2889 47.1623 30.8501 47.25 30.3754 47.25C29.9029 47.25 29.4619 47.16 29.0569 46.9868C28.6631 46.818 28.305 46.576 28.0016 46.2735C27.6866 45.9585 27.4391 45.5985 27.2636 45.1935C27.0855 44.777 26.9959 44.328 27.0004 43.875V30.375C26.9922 29.9314 27.0771 29.491 27.2496 29.0821C27.422 28.6733 27.6782 28.3051 28.0016 28.0013C28.3054 27.6779 28.6736 27.4217 29.0825 27.2493C29.4913 27.0768 29.9317 26.9919 30.3754 27ZM10.1254 30.375C10.5719 30.3722 11.0145 30.4594 11.4266 30.6315C11.8387 30.8035 12.2119 31.0568 12.5239 31.3763C12.8231 31.6755 13.0616 32.0288 13.2371 32.4338C13.4126 32.8365 13.5004 33.2753 13.5004 33.75V43.875C13.5004 44.3475 13.4104 44.7885 13.2371 45.1935C13.0616 45.5985 12.8231 45.9585 12.5239 46.2735C12.2089 46.5728 11.8489 46.8113 11.4439 46.9868C11.0389 47.1623 10.6001 47.25 10.1254 47.25C9.65287 47.25 9.21187 47.16 8.80687 46.9868C8.41312 46.818 8.05502 46.576 7.75162 46.2735C7.43662 45.9585 7.18912 45.5985 7.01362 45.1935C6.83547 44.777 6.74582 44.328 6.75037 43.875V33.75C6.74224 33.3064 6.82714 32.866 6.99958 32.4571C7.17203 32.0483 7.42821 31.6801 7.75162 31.3763C8.05543 31.0529 8.42361 30.7967 8.83245 30.6243C9.24129 30.4518 9.68172 30.3669 10.1254 30.375ZM40.5004 16.875C40.9469 16.8722 41.3895 16.9594 41.8016 17.1315C42.2137 17.3035 42.5869 17.5568 42.8989 17.8763C43.1981 18.1755 43.4366 18.5288 43.6121 18.9338C43.7876 19.3365 43.8754 19.7753 43.8754 20.25V43.875C43.8754 44.3475 43.7854 44.7885 43.6121 45.1935C43.4366 45.5985 43.1981 45.9585 42.8989 46.2735C42.5839 46.5728 42.2239 46.8113 41.8189 46.9868C41.4139 47.1623 40.9751 47.25 40.5004 47.25C40.0279 47.25 39.5869 47.16 39.1819 46.9868C38.7881 46.818 38.43 46.576 38.1266 46.2735C37.8116 45.9585 37.5641 45.5985 37.3886 45.1935C37.2105 44.777 37.1209 44.328 37.1254 43.875V20.25C37.1172 19.8064 37.2021 19.366 37.3746 18.9571C37.547 18.5483 37.8032 18.1801 38.1266 17.8763C38.4304 17.5529 38.7986 17.2967 39.2075 17.1243C39.6163 16.9518 40.0567 16.8669 40.5004 16.875ZM47.2504 6.75004C48.1374 6.74539 49.0165 6.91793 49.836 7.25755C50.6555 7.59717 51.3989 8.09702 52.0226 8.72779C52.6391 9.34204 53.1206 10.0643 53.4739 10.8878C53.8249 11.6978 54.0004 12.5685 54.0004 13.5V33.75C54.0051 34.6371 53.8327 35.5162 53.493 36.3357C53.1534 37.1552 52.6535 37.8986 52.0226 38.5223C51.399 39.1532 50.6556 39.6531 49.8361 39.9927C49.0165 40.3323 48.1375 40.5048 47.2504 40.5V37.125C47.7229 37.125 48.1639 37.035 48.5689 36.8618C48.9739 36.6863 49.3339 36.4478 49.6489 36.1485C49.9481 35.8335 50.1866 35.4735 50.3621 35.0685C50.5376 34.6635 50.6254 34.2248 50.6254 33.75V13.5C50.6254 13.0275 50.5354 12.5865 50.3621 12.1815C50.1934 11.7878 49.9513 11.4297 49.6489 11.1263C49.3339 10.8113 48.9739 10.5638 48.5689 10.3883C48.1524 10.2101 47.7034 10.1205 47.2504 10.125H6.75037C6.30672 10.1169 5.86629 10.2018 5.45745 10.3743C5.04861 10.5467 4.68043 10.8029 4.37662 11.1263C4.05321 11.4301 3.79703 11.7983 3.62458 12.2071C3.45213 12.616 3.36724 13.0564 3.37537 13.5V39.6045C2.34059 39.0198 1.48161 38.1681 0.887992 37.1384C0.294373 36.1087 -0.0121529 34.9386 0.000368822 33.75V13.5C0.00370282 11.7106 0.714664 9.99504 1.97812 8.72779C2.5979 8.10941 3.33135 7.61662 4.13812 7.27654C4.96328 6.9229 5.85264 6.74365 6.75037 6.75004H47.2504Z" fill="white"/>
</g>
<defs>
<clipPath id="clip0_5673_8455">
<rect width="54" height="54" fill="white"/>
</clipPath>
</defs>
</svg>
