<svg width="54" height="54" viewBox="0 0 54 54" fill="none" xmlns="http://www.w3.org/2000/svg">
<g id="python logo" clip-path="url(#clip0_5673_2328)">
<g id="Group">
<path id="p" d="M26.7891 6.75C25.1016 6.75 23.5195 6.85547 22.1484 7.17188C18.0352 7.91016 17.2969 9.38672 17.2969 12.1289V15.8203H27V17.0859H13.7109C10.8633 17.0859 8.4375 18.7734 7.59375 21.9375C6.75 25.6289 6.75 27.9492 7.59375 31.7461C8.33203 34.6992 10.0195 36.7031 12.7617 36.7031H16.1367V32.2734C16.1367 29.1094 18.8789 26.2617 22.1484 26.2617H31.7461C34.4883 26.2617 36.5977 24.0469 36.5977 21.4102V12.1289C36.5977 9.59766 34.3828 7.59375 31.7461 7.17188C30.1641 6.85547 28.3711 6.75 26.7891 6.75ZM21.5156 9.70312C22.5703 9.70312 23.3086 10.5469 23.3086 11.6016C23.3086 12.5508 22.5703 13.3945 21.5156 13.3945C20.5664 13.3945 19.7227 12.5508 19.7227 11.6016C19.7227 10.5469 20.5664 9.70312 21.5156 9.70312Z" fill="#5A9FD4"/>
</g>
<path id="p_2" d="M27.2109 47.0391C28.8984 47.0391 30.4805 46.9336 31.8516 46.6172C35.9648 45.8789 36.7031 44.4023 36.7031 41.6602V37.9688H27V36.7031H40.2891C43.1367 36.7031 45.5625 35.0156 46.4062 31.8516C47.25 28.1602 47.25 25.8398 46.4062 22.043C45.668 19.0898 43.9805 17.0859 41.2383 17.0859H37.8633V21.5156C37.8633 24.6797 35.1211 27.5273 31.8516 27.5273H22.2539C19.5117 27.5273 17.4023 29.7422 17.4023 32.3789L17.4023 41.6602C17.4023 44.1914 19.6172 46.1953 22.2539 46.6172C23.8359 46.9336 25.6289 47.0391 27.2109 47.0391ZM32.4844 44.0859C31.4297 44.0859 30.6914 43.2422 30.6914 42.1875C30.6914 41.2383 31.4297 40.3945 32.4844 40.3945C33.4336 40.3945 34.2773 41.2383 34.2773 42.1875C34.2773 43.2422 33.4336 44.0859 32.4844 44.0859Z" fill="#FFD43B"/>
</g>
<defs>
<clipPath id="clip0_5673_2328">
<rect width="54" height="54" fill="white"/>
</clipPath>
</defs>
</svg>
