<svg width="80" height="80" viewBox="0 0 80 80" fill="none" xmlns="http://www.w3.org/2000/svg">
<g id="-yL5MrO-amazon-sagemaker 1">
<g clip-path="url(#clip0_587_187)">
<g id="Group">
<path id="Vector" fill-rule="evenodd" clip-rule="evenodd" d="M0 0H80V80H0V0Z" fill="url(#paint0_linear_587_187)"/>
<path id="Vector_2" fill-rule="evenodd" clip-rule="evenodd" d="M54.034 26.0336C54.034 26.5936 53.578 27.0496 53.017 27.0496C52.458 27.0496 52.002 26.5936 52.002 26.0336C52.002 25.4736 52.458 25.0176 53.017 25.0176C53.578 25.0176 54.034 25.4736 54.034 26.0336ZM48.002 36.0004C48.002 35.4494 48.45 35.0005 49.002 35.0005C49.554 35.0005 50.002 35.4494 50.002 36.0004C50.002 36.5514 49.554 37.0004 49.002 37.0004C48.45 37.0004 48.002 36.5514 48.002 36.0004ZM48.002 55.0002C48.002 54.4492 48.45 54.0002 49.002 54.0002C49.554 54.0002 50.002 54.4492 50.002 55.0002C50.002 55.5512 49.554 56.0002 49.002 56.0002C48.45 56.0002 48.002 55.5512 48.002 55.0002ZM58.002 42.0004C58.002 42.5513 57.554 43.0003 57.002 43.0003C56.45 43.0003 56.002 42.5513 56.002 42.0004C56.002 41.4494 56.45 41.0004 57.002 41.0004C57.554 41.0004 58.002 41.4494 58.002 42.0004ZM65 45.2723L59.963 42.3824C59.979 42.2564 60.002 42.1314 60.002 42.0004C60.002 40.3464 58.656 39.0004 57.002 39.0004C55.347 39.0004 54.002 40.3464 54.002 42.0004C54.002 43.6543 55.347 45.0003 57.002 45.0003C57.801 45.0003 58.523 44.6813 59.061 44.1713L63.886 46.9393L59.555 49.1053C59.216 49.2753 59.002 49.6213 59.002 50.0002V58.4411L46.983 65.837L41.003 62.4201V56.0002H46.186C46.6 57.1611 47.7 58.0001 49.002 58.0001C50.656 58.0001 52.002 56.6542 52.002 55.0002C52.002 53.3452 50.656 52.0002 49.002 52.0002C47.7 52.0002 46.6 52.8382 46.186 54.0002H41.003V40.0004C41.003 39.6494 40.818 39.3234 40.517 39.1424L35.516 36.1424L34.487 37.8574L39.003 40.5664V43.5073L33.002 48.1233V44.0003C33.002 43.6963 32.864 43.4083 32.627 43.2193L28.002 39.5194V34.5355L33.556 30.8325C33.835 30.6465 34.002 30.3345 34.002 30.0005V24.0006H32.002V29.4655L27.013 32.7905L22.002 29.4635V21.5746L27.002 18.6587V27.0006H29.002V17.4917L33.005 15.1567L39.001 18.6157L39.002 31.0005C39.002 31.3595 39.194 31.6905 39.506 31.8685L46.042 35.6034C46.024 35.7344 46.002 35.8644 46.002 36.0004C46.002 37.6544 47.347 39.0004 49.002 39.0004C50.656 39.0004 52.002 37.6544 52.002 36.0004C52.002 34.3465 50.656 33.0005 49.002 33.0005C48.208 33.0005 47.49 33.3155 46.953 33.8205L41.002 30.4195L41.001 18.6177L46.964 15.1767L58.002 22.5356V25.0006H55.851C55.429 23.8446 54.318 23.0176 53.017 23.0176C51.354 23.0176 50.002 24.3706 50.002 26.0336C50.002 27.6966 51.354 29.0495 53.017 29.0495C54.343 29.0495 55.471 28.1905 55.875 27.0006H58.002V30.0005C58.002 30.3595 58.194 30.6905 58.506 30.8685L65 34.5805V45.2723ZM33.02 65.837L29.867 63.8971L35.583 59.8141L34.421 58.1861L28.018 62.7591L21.002 58.4411V50.5662L25.516 47.8573L24.487 46.1423L19.958 48.8603L15.002 46.3823L15.001 40.6174L20.449 37.8944L19.555 36.1054L15.001 38.3814L15.002 34.5805L20.963 31.1745L26.002 34.5195V39.4804L20.449 43.1673L21.555 44.8333L26.958 41.2454L31.002 44.4803V49.6623L26.392 53.2072L27.611 54.7922L39.003 46.0303V62.4191L33.02 65.837ZM66.496 33.1325L60.002 29.4205V22.0006C60.002 21.6656 59.835 21.3536 59.556 21.1686L47.556 13.1687C47.24 12.9588 46.832 12.9448 46.502 13.1347L40.004 16.8847L33.502 13.1347C33.19 12.9548 32.807 12.9548 32.498 13.1367L20.498 20.1367C20.19 20.3157 20.002 20.6446 20.002 21.0006V29.4205L13.506 33.1325C13.194 33.3095 13.002 33.6415 13.002 34.0005V34.4175C13.001 34.4385 13 34.4585 13 34.4795V45.3633C13 45.3833 13.001 45.4033 13.002 45.4223V47.0003C13.002 47.3793 13.216 47.7253 13.555 47.8943L19.002 50.6182V59.0001C19.002 59.3471 19.181 59.6691 19.477 59.8511L32.477 67.851C32.638 67.95 32.82 68 33.002 68C33.173 68 33.344 67.956 33.498 67.868L40.003 64.1521L46.506 67.868C46.821 68.049 47.213 68.042 47.526 67.851L60.526 59.8511C60.822 59.6691 61.002 59.3471 61.002 59.0001V50.6182L66.447 47.8943C66.786 47.7253 67 47.3793 67 47.0003V34.0005C67 33.6415 66.807 33.3105 66.496 33.1325Z" fill="white"/>
</g>
</g>
</g>
<defs>
<linearGradient id="paint0_linear_587_187" x1="0" y1="8000" x2="8000" y2="0" gradientUnits="userSpaceOnUse">
<stop stop-color="#055F4E"/>
<stop offset="1" stop-color="#56C0A7"/>
</linearGradient>
<clipPath id="clip0_587_187">
<rect width="80" height="80" rx="8" fill="white"/>
</clipPath>
</defs>
</svg>
