<svg width="54" height="29" viewBox="0 0 54 29" fill="none" xmlns="http://www.w3.org/2000/svg">
<g clip-path="url(#clip0_5673_7034)">
<path d="M41.608 24.6692C48.1357 18.1419 49.2206 8.64413 44.031 3.45496C38.8422 -1.73363 29.3449 -0.648922 22.8176 5.87801C16.2902 12.4051 18.1784 24.8754 20.3949 27.0922C22.186 28.8833 35.081 31.1961 41.608 24.6692Z" fill="#F89939"/>
<path d="M14.8258 15.2374C11.0389 11.4505 5.52788 10.8201 2.51641 13.8314C-0.494286 16.8423 0.135183 22.3541 3.92279 26.1403C7.7104 29.9283 14.9462 28.8326 16.2314 27.5463C17.2714 26.5081 18.6137 19.0246 14.8258 15.2374Z" fill="#3499CD"/>
<path d="M27.8879 23.0693C27.219 23.6851 26.6321 24.1395 26.1277 24.4315C25.6233 24.7245 25.1422 24.8708 24.6845 24.8708C24.158 24.8708 23.7332 24.6666 23.4111 24.2582C23.0885 23.8495 22.9277 23.3013 22.9277 22.6117C22.9277 21.5785 23.1517 20.338 23.5996 18.8918C24.0467 17.4443 24.5912 16.1106 25.2307 14.8904L27.1058 14.1962C27.1646 14.1765 27.2093 14.1665 27.239 14.1665C27.3812 14.1665 27.4988 14.2713 27.589 14.4801C27.6802 14.6898 27.726 14.9716 27.726 15.3258C27.726 16.3297 27.4949 17.3017 27.0318 18.2417C26.5689 19.182 25.8457 20.1856 24.8616 21.2535C24.8221 21.7654 24.8025 22.117 24.8025 22.3091C24.8025 22.7376 24.8811 23.0766 25.0386 23.3277C25.1962 23.5792 25.4051 23.7041 25.6661 23.7041C25.9323 23.7041 26.215 23.6089 26.5153 23.417C26.815 23.2246 27.2727 22.8264 27.8877 22.2207V23.0693H27.8879ZM25.0609 20.1835C25.6858 19.4887 26.1932 18.7094 26.5818 17.8473C26.9703 16.9849 27.1644 16.243 27.1644 15.6214C27.1644 15.4403 27.1376 15.293 27.0839 15.1824C27.0297 15.0716 26.9603 15.0159 26.8769 15.0159C26.6955 15.0159 26.4305 15.4692 26.0834 16.376C25.7363 17.2826 25.3955 18.552 25.0609 20.1835Z" fill="white"/>
<path d="M33.4095 23.0692C32.7847 23.685 32.2238 24.1395 31.7266 24.4315C31.2293 24.7244 30.6812 24.8707 30.0804 24.8707C29.4111 24.8707 28.871 24.6566 28.4595 24.2289C28.0488 23.8001 27.8438 23.2371 27.8438 22.5381C27.8438 21.495 28.2051 20.5512 28.9294 19.7072C29.6522 18.8628 30.4547 18.4409 31.3355 18.4409C31.7933 18.4409 32.1594 18.5594 32.4354 18.7955C32.7111 19.032 32.8489 19.3418 32.8489 19.7257C32.8489 20.7447 31.7663 21.5709 29.6009 22.206C29.7975 23.1652 30.3117 23.6455 31.1435 23.6455C31.4685 23.6455 31.7782 23.5582 32.0733 23.384C32.3691 23.209 32.8142 22.8208 33.4097 22.2208L33.4095 23.0692ZM29.5414 21.7039C30.8009 21.3493 31.4311 20.6951 31.4311 19.7403C31.4311 19.2679 31.2586 19.0318 30.9146 19.0318C30.5896 19.0318 30.2799 19.2787 29.9848 19.7739C29.6888 20.2682 29.5414 20.9112 29.5414 21.7039Z" fill="white"/>
<path d="M41.2947 23.0693C40.5072 23.8173 39.9436 24.3052 39.6044 24.5318C39.2648 24.7581 38.9401 24.871 38.6298 24.871C37.8521 24.871 37.4857 24.1847 37.5298 22.8115C37.0378 23.515 36.5835 24.0342 36.1676 24.3695C35.7521 24.7041 35.3228 24.871 34.8794 24.871C34.4469 24.871 34.0791 24.6685 33.776 24.2624C33.4728 23.8563 33.3223 23.3583 33.3223 22.7671C33.3223 22.0294 33.5248 21.3255 33.9305 20.6557C34.337 19.9864 34.8574 19.4456 35.4921 19.0322C36.1267 18.6187 36.6884 18.4117 37.175 18.4117C37.7904 18.4117 38.2212 18.6949 38.4673 19.2605L39.976 18.4268H40.39L39.7384 20.5894C39.4038 21.6774 39.2359 22.4231 39.2359 22.8265C39.2359 23.2496 39.3857 23.4612 39.6862 23.4612C39.8773 23.4612 40.089 23.3592 40.3204 23.1547C40.5519 22.9502 40.8761 22.639 41.2943 22.2207V23.0693H41.2947ZM35.891 23.4758C36.3831 23.4758 36.8468 23.0564 37.2831 22.2175C37.7187 21.3781 37.9363 20.6037 37.9363 19.8952C37.9363 19.62 37.8743 19.4043 37.7519 19.2496C37.6283 19.094 37.4635 19.0169 37.2573 19.0169C36.7649 19.0169 36.2981 19.4352 35.8585 20.272C35.4181 21.1089 35.1974 21.879 35.1974 22.5821C35.1974 22.8483 35.2629 23.0636 35.3932 23.2285C35.5235 23.3935 35.6888 23.4758 35.891 23.4758Z" fill="white"/>
<path d="M46.8109 23.0693C45.5754 24.2798 44.623 24.8856 43.9538 24.8856C43.6533 24.8856 43.3997 24.7588 43.1934 24.5061C42.9872 24.2525 42.8833 23.9385 42.8833 23.5642C42.8833 22.8704 43.2553 21.9406 43.9983 20.774C43.6338 20.9612 43.2357 21.0911 42.8024 21.1651C42.4824 21.7556 41.9802 22.3907 41.2964 23.0691H41.127V22.4055C41.5105 22.0069 41.8576 21.5785 42.1677 21.1207C41.7439 20.9336 41.5327 20.6555 41.5327 20.287C41.5327 19.9075 41.6614 19.5029 41.9204 19.0718C42.1787 18.6416 42.5341 18.4265 42.9872 18.4265C43.3711 18.4265 43.5627 18.6227 43.5627 19.0167C43.5627 19.3268 43.4521 19.7695 43.2303 20.3456C44.0471 20.2567 44.7608 19.6323 45.3713 18.4705L46.0428 18.4408L45.3563 20.3305C45.0711 21.1279 44.8864 21.671 44.803 21.9586C44.7195 22.2461 44.6773 22.5013 44.6773 22.7224C44.6773 22.9294 44.7255 23.0947 44.8211 23.2169C44.9171 23.3408 45.0466 23.4017 45.2089 23.4017C45.3858 23.4017 45.556 23.3412 45.7183 23.2213C45.8805 23.0997 46.2448 22.7667 46.8111 22.2205V23.0693H46.8109Z" fill="white"/>
<path d="M54.06 23.0693C52.9233 24.2708 51.9482 24.871 51.1366 24.871C50.8069 24.871 50.5411 24.7553 50.3393 24.5238C50.1371 24.2928 50.0363 23.9828 50.0363 23.5941C50.0363 23.0675 50.2531 22.2627 50.6864 21.1805C50.9175 20.5996 51.0335 20.2299 51.0335 20.073C51.0335 19.9154 50.9715 19.8366 50.8491 19.8366C50.7803 19.8366 50.6887 19.8712 50.5758 19.9397C50.4719 20.0085 50.3514 20.1052 50.2136 20.228C50.0909 20.3409 49.9527 20.4787 49.8002 20.6406C49.667 20.7796 49.5242 20.9369 49.3725 21.1134L48.9586 21.5937C48.7768 21.815 48.6635 22.0484 48.6193 22.2947C48.5451 22.7129 48.4962 23.0972 48.4713 23.447C48.4563 23.7072 48.4492 24.0588 48.4492 24.5026L46.8177 24.8858C46.7639 24.2214 46.7363 23.7267 46.7363 23.4023C46.7363 22.61 46.8287 21.8593 47.0135 21.1508C47.1979 20.4415 47.4942 19.6448 47.9029 18.7586L49.7039 18.4119C49.3251 19.4308 49.0767 20.2326 48.9586 20.818C49.7657 19.9175 50.4056 19.2942 50.8799 18.9467C51.3535 18.5996 51.7752 18.4269 52.1437 18.4269C52.394 18.4269 52.6033 18.5213 52.7701 18.7104C52.9375 18.8997 53.0208 19.1373 53.0208 19.4214C53.0208 19.8934 52.8092 20.6711 52.3865 21.7543C52.0959 22.4971 51.9506 22.9791 51.9506 23.2017C51.9506 23.4979 52.0714 23.6459 52.3131 23.6459C52.6729 23.6459 53.2558 23.1709 54.06 22.2211V23.0693Z" fill="white"/>
<path d="M30.6832 14.7908C30.6947 14.9212 30.7273 15.0211 30.7809 15.0906C30.8794 15.2166 31.0502 15.2795 31.2935 15.2795C31.4383 15.2795 31.5657 15.2484 31.6758 15.1861C31.7858 15.1224 31.8408 15.0247 31.8408 14.8929C31.8408 14.793 31.7967 14.717 31.7083 14.6649C31.6519 14.633 31.5404 14.5961 31.3739 14.5541L31.0633 14.4759C30.8649 14.4267 30.7186 14.3717 30.6245 14.3108C30.4566 14.2051 30.3726 14.0589 30.3726 13.8721C30.3726 13.652 30.4515 13.4739 30.6093 13.3378C30.7686 13.2017 30.9822 13.1336 31.25 13.1336C31.6005 13.1336 31.8531 13.2364 32.0081 13.4421C32.1051 13.5724 32.1521 13.7128 32.1492 13.8634H31.78C31.7728 13.7751 31.7416 13.6947 31.6866 13.6223C31.5968 13.5195 31.4412 13.4681 31.2196 13.4681C31.0719 13.4681 30.9597 13.4963 30.883 13.5528C30.8077 13.6093 30.77 13.6839 30.77 13.7765C30.77 13.8779 30.82 13.959 30.9199 14.0198C30.9778 14.056 31.0633 14.0879 31.1762 14.1154L31.4347 14.1783C31.7156 14.2464 31.9038 14.3123 31.9994 14.376C32.1514 14.4759 32.2274 14.633 32.2274 14.8473C32.2274 15.0544 32.1485 15.2332 31.9907 15.3838C31.8343 15.5344 31.5954 15.6097 31.2739 15.6097C30.9279 15.6097 30.6824 15.5315 30.5376 15.3751C30.3943 15.2173 30.3175 15.0225 30.3074 14.7908H30.6832ZM33.5719 13.1271C33.834 13.1271 34.0468 13.1908 34.2105 13.3182C34.3755 13.4457 34.4747 13.665 34.508 13.9764H34.1279C34.1047 13.833 34.0519 13.7143 33.9694 13.6202C33.8868 13.5246 33.7543 13.4768 33.5719 13.4768C33.3228 13.4768 33.1447 13.5984 33.0376 13.8417C32.9681 13.9995 32.9333 14.1943 32.9333 14.426C32.9333 14.6591 32.9826 14.8553 33.081 15.0146C33.1795 15.1738 33.3344 15.2535 33.5458 15.2535C33.708 15.2535 33.8361 15.2042 33.9303 15.1058C34.0258 15.0059 34.0917 14.8698 34.1279 14.6975H34.508C34.4646 15.0059 34.356 15.2318 34.1822 15.3751C34.0085 15.517 33.7862 15.588 33.5154 15.588C33.2113 15.588 32.9688 15.4772 32.7878 15.2556C32.6068 15.0327 32.5163 14.7546 32.5163 14.4216C32.5163 14.0133 32.6155 13.6954 32.8139 13.4681C33.0122 13.2408 33.2649 13.1271 33.5719 13.1271ZM34.899 13.2053H35.2964V15.5206H34.899V13.2053ZM34.899 12.33H35.2964V12.7731H34.899V12.33ZM35.8807 12.33H36.2565V14.1827L37.2599 13.1944H37.7595L36.8689 14.0654L37.8094 15.5206H37.3099L36.5844 14.3478L36.2565 14.6475V15.5206H35.8807V12.33ZM38.1135 13.2053H38.511V15.5206H38.1135V13.2053ZM38.1135 12.33H38.511V12.7731H38.1135V12.33ZM39.1821 12.545H39.5774V13.1944H39.9488V13.5137H39.5774V15.0319C39.5774 15.113 39.6049 15.1673 39.6599 15.1948C39.6903 15.2108 39.741 15.2187 39.812 15.2187C39.8308 15.2187 39.8511 15.2187 39.8728 15.2187C39.8945 15.2173 39.9198 15.2151 39.9488 15.2122V15.5206C39.9039 15.5337 39.8569 15.5431 39.8076 15.5489C39.7598 15.5547 39.7077 15.5576 39.6512 15.5576C39.4688 15.5576 39.345 15.5112 39.2798 15.4185C39.2147 15.3244 39.1821 15.2028 39.1821 15.0537V13.5137H38.8672V13.1944H39.1821V12.545Z" fill="white"/>
</g>
<defs>
<clipPath id="clip0_5673_7034">
<rect width="53.4489" height="28.8251" fill="white" transform="translate(0.615234 0.174927)"/>
</clipPath>
</defs>
</svg>
