<svg width="44" height="44" viewBox="0 0 44 44" fill="none" xmlns="http://www.w3.org/2000/svg">
<g clip-path="url(#clip0_5673_8262)">
<path d="M22.1552 0.411377C19.3407 0.411377 16.5536 0.965773 13.9533 2.04284C11.3531 3.1199 8.99027 4.69868 7.00012 6.68884C5.00996 8.67899 3.43118 11.0418 2.35412 13.6421C1.27705 16.2423 0.722656 19.0295 0.722656 21.844C0.722656 24.6585 1.27705 27.4456 2.35412 30.0459C3.43118 32.6461 5.00996 35.0089 7.00012 36.9991C8.99027 38.9893 11.3531 40.568 13.9533 41.6451C16.5536 42.7222 19.3407 43.2766 22.1552 43.2766C24.9697 43.2766 27.7569 42.7222 30.3571 41.6451C32.9574 40.568 35.3202 38.9893 37.3104 36.9991C39.3005 35.0089 40.8793 32.6461 41.9564 30.0459C42.9987 27.5295 43.5515 24.8381 43.5861 22.1162L43.5878 21.844L43.5861 21.5717C43.5515 18.8498 42.9987 16.1585 41.9564 13.6421C40.8793 11.0418 39.3005 8.67899 37.3104 6.68884C35.3202 4.69868 32.9574 3.1199 30.3571 2.04284C27.7569 0.965773 24.9697 0.411377 22.1552 0.411377Z" fill="white"/>
<path d="M17.2611 12.7154C17.48 12.7154 17.69 12.6284 17.8448 12.4736C17.9996 12.3188 18.0866 12.1088 18.0866 11.8899C18.0866 11.6709 17.9996 11.4609 17.8448 11.3061C17.69 11.1513 17.48 11.0643 17.2611 11.0643C17.0421 11.0643 16.8321 11.1513 16.6773 11.3061C16.5225 11.4609 16.4355 11.6709 16.4355 11.8899C16.4355 12.1088 16.5225 12.3188 16.6773 12.4736C16.8321 12.6284 17.0421 12.7154 17.2611 12.7154Z" fill="#AFDAD2" stroke="white" stroke-width="0.25"/>
<path d="M15.4831 13.96C15.6952 13.96 15.8985 13.8758 16.0485 13.7258C16.1984 13.5759 16.2826 13.3725 16.2826 13.1605C16.2826 12.9484 16.1984 12.7451 16.0485 12.5951C15.8985 12.4452 15.6952 12.361 15.4831 12.361C15.2711 12.361 15.0677 12.4452 14.9178 12.5951C14.7678 12.7451 14.6836 12.9484 14.6836 13.1605C14.6836 13.3725 14.7678 13.5759 14.9178 13.7258C15.0677 13.8758 15.2711 13.96 15.4831 13.96Z" fill="#AFDAD2" stroke="white" stroke-width="0.25"/>
<path d="M13.7733 14.7521C13.9729 14.7521 14.1644 14.6728 14.3056 14.5316C14.4467 14.3905 14.526 14.199 14.526 13.9994C14.526 13.7997 14.4467 13.6082 14.3056 13.4671C14.1644 13.3259 13.9729 13.2466 13.7733 13.2466C13.5736 13.2466 13.3822 13.3259 13.241 13.4671C13.0998 13.6082 13.0205 13.7997 13.0205 13.9994C13.0205 14.199 13.0998 14.3905 13.241 14.5316C13.3822 14.6728 13.5736 14.7521 13.7733 14.7521Z" fill="#AFDAD2" stroke="white" stroke-width="0.25"/>
<path d="M18.7601 11.7319C18.9855 11.7319 19.2018 11.6424 19.3611 11.483C19.5205 11.3236 19.6101 11.1074 19.6101 10.882C19.6101 10.6565 19.5205 10.4403 19.3611 10.2809C19.2018 10.1215 18.9855 10.032 18.7601 10.032C18.5347 10.032 18.3185 10.1215 18.1591 10.2809C17.9997 10.4403 17.9102 10.6565 17.9102 10.882C17.9102 11.1074 17.9997 11.3236 18.1591 11.483C18.3185 11.6424 18.5347 11.7319 18.7601 11.7319Z" fill="#AFDAD2" stroke="white" stroke-width="0.25"/>
<path d="M12.4901 12.967C12.6415 12.967 12.7868 12.9068 12.8939 12.7997C13.001 12.6926 13.0612 12.5473 13.0612 12.3958C13.0612 12.2444 13.001 12.0991 12.8939 11.992C12.7868 11.8849 12.6415 11.8247 12.4901 11.8247C12.3386 11.8247 12.1933 11.8849 12.0862 11.992C11.9791 12.0991 11.9189 12.2444 11.9189 12.3958C11.9189 12.5473 11.9791 12.6926 12.0862 12.7997C12.1933 12.9068 12.3386 12.967 12.4901 12.967Z" fill="#AFDAD2" stroke="white" stroke-width="0.25"/>
<path d="M11.0799 16.0958C11.2599 16.0958 11.4325 16.0243 11.5597 15.8971C11.6869 15.7699 11.7584 15.5973 11.7584 15.4173C11.7584 15.2374 11.6869 15.0648 11.5597 14.9375C11.4325 14.8103 11.2599 14.7388 11.0799 14.7388C10.9 14.7388 10.7274 14.8103 10.6001 14.9375C10.4729 15.0648 10.4014 15.2374 10.4014 15.4173C10.4014 15.5973 10.4729 15.7699 10.6001 15.8971C10.7274 16.0243 10.9 16.0958 11.0799 16.0958Z" fill="#AFDAD2" stroke="white" stroke-width="0.25"/>
<path d="M11.9436 10.7229C12.1604 10.7229 12.3684 10.6367 12.5217 10.4834C12.6751 10.3301 12.7612 10.1221 12.7612 9.90527C12.7612 9.68843 12.6751 9.48045 12.5217 9.32712C12.3684 9.1738 12.1604 9.08765 11.9436 9.08765C11.7268 9.08765 11.5188 9.1738 11.3655 9.32712C11.2121 9.48045 11.126 9.68843 11.126 9.90527C11.126 10.1221 11.2121 10.3301 11.3655 10.4834C11.5188 10.6367 11.7268 10.7229 11.9436 10.7229Z" fill="#AFDAD2" stroke="white" stroke-width="0.25"/>
<path d="M14.1499 12.2531C14.3176 12.2531 14.4784 12.1864 14.597 12.0679C14.7156 11.9493 14.7822 11.7884 14.7822 11.6207C14.7822 11.453 14.7156 11.2922 14.597 11.1736C14.4784 11.055 14.3176 10.9884 14.1499 10.9884C13.9822 10.9884 13.8214 11.055 13.7028 11.1736C13.5842 11.2922 13.5176 11.453 13.5176 11.6207C13.5176 11.7884 13.5842 11.9493 13.7028 12.0679C13.8214 12.1864 13.9822 12.2531 14.1499 12.2531Z" fill="#AFDAD2" stroke="white" stroke-width="0.25"/>
<path d="M25.0539 10.3657C25.25 10.3657 25.4381 10.2878 25.5767 10.1491C25.7154 10.0105 25.7933 9.82236 25.7933 9.62627C25.7933 9.43017 25.7154 9.24208 25.5767 9.10341C25.4381 8.96475 25.25 8.88684 25.0539 8.88684C24.8578 8.88684 24.6697 8.96475 24.531 9.10341C24.3924 9.24208 24.3145 9.43017 24.3145 9.62627C24.3145 9.82236 24.3924 10.0105 24.531 10.1491C24.6697 10.2878 24.8578 10.3657 25.0539 10.3657Z" fill="#AFDAD2" stroke="white" stroke-width="0.25"/>
<path d="M9.5449 14.2856C9.66376 14.2856 9.77778 14.2384 9.86183 14.1543C9.94588 14.0703 9.99311 13.9562 9.99311 13.8374C9.99311 13.7185 9.94588 13.6045 9.86183 13.5204C9.77778 13.4364 9.66376 13.3892 9.5449 13.3892C9.42603 13.3892 9.31201 13.4364 9.22796 13.5204C9.14391 13.6045 9.09668 13.7185 9.09668 13.8374C9.09668 13.9562 9.14391 14.0703 9.22796 14.1543C9.31201 14.2384 9.42603 14.2856 9.5449 14.2856Z" fill="#AFDAD2" stroke="white" stroke-width="0.25"/>
<path d="M11.0348 13.8635C11.1758 13.8635 11.3111 13.8075 11.4108 13.7077C11.5106 13.608 11.5666 13.4727 11.5666 13.3316C11.5666 13.1906 11.5106 13.0553 11.4108 12.9556C11.3111 12.8558 11.1758 12.7998 11.0348 12.7998C10.8937 12.7998 10.7584 12.8558 10.6587 12.9556C10.559 13.0553 10.5029 13.1906 10.5029 13.3316C10.5029 13.4727 10.559 13.608 10.6587 13.7077C10.7584 13.8075 10.8937 13.8635 11.0348 13.8635Z" fill="#AFDAD2" stroke="white" stroke-width="0.25"/>
<path d="M8.31837 12.1781C8.50536 12.1781 8.68471 12.1038 8.81694 11.9716C8.94916 11.8394 9.02345 11.66 9.02345 11.473C9.02345 11.286 8.94916 11.1067 8.81694 10.9745C8.68471 10.8422 8.50536 10.7679 8.31837 10.7679C8.13138 10.7679 7.95202 10.8422 7.8198 10.9745C7.68757 11.1067 7.61328 11.286 7.61328 11.473C7.61328 11.66 7.68757 11.8394 7.8198 11.9716C7.95202 12.1038 8.13138 12.1781 8.31837 12.1781Z" fill="#AFDAD2" stroke="white" stroke-width="0.25"/>
<path d="M11.0931 11.8673C11.1906 11.8673 11.2841 11.8286 11.353 11.7597C11.422 11.6907 11.4607 11.5972 11.4607 11.4998C11.4607 11.4023 11.422 11.3088 11.353 11.2399C11.2841 11.1709 11.1906 11.1322 11.0931 11.1322C10.9957 11.1322 10.9022 11.1709 10.8332 11.2399C10.7643 11.3088 10.7256 11.4023 10.7256 11.4998C10.7256 11.5972 10.7643 11.6907 10.8332 11.7597C10.9022 11.8286 10.9957 11.8673 11.0931 11.8673Z" fill="#AFDAD2" stroke="white" stroke-width="0.25"/>
<path d="M16.0143 11.2942C16.1963 11.2942 16.3708 11.2219 16.4995 11.0933C16.6282 10.9646 16.7005 10.79 16.7005 10.6081C16.7005 10.4261 16.6282 10.2515 16.4995 10.1229C16.3708 9.99418 16.1963 9.92188 16.0143 9.92188C15.8323 9.92188 15.6578 9.99418 15.5291 10.1229C15.4004 10.2515 15.3281 10.4261 15.3281 10.6081C15.3281 10.79 15.4004 10.9646 15.5291 11.0933C15.6578 11.2219 15.8323 11.2942 16.0143 11.2942Z" fill="#AFDAD2" stroke="white" stroke-width="0.25"/>
<path d="M21.2279 11.6914C21.385 11.6914 21.5356 11.629 21.6467 11.518C21.7577 11.4069 21.8201 11.2563 21.8201 11.0993C21.8201 10.9422 21.7577 10.7916 21.6467 10.6805C21.5356 10.5695 21.385 10.5071 21.2279 10.5071C21.0709 10.5071 20.9202 10.5695 20.8092 10.6805C20.6981 10.7916 20.6357 10.9422 20.6357 11.0993C20.6357 11.2563 20.6981 11.4069 20.8092 11.518C20.9202 11.629 21.0709 11.6914 21.2279 11.6914Z" fill="#AFDAD2" stroke="white" stroke-width="0.25"/>
<path d="M22.3114 7.9967C22.4142 7.9967 22.5128 7.95587 22.5855 7.88318C22.6581 7.8105 22.699 7.71192 22.699 7.60913C22.699 7.50634 22.6581 7.40776 22.5855 7.33508C22.5128 7.26239 22.4142 7.22156 22.3114 7.22156C22.2086 7.22156 22.11 7.26239 22.0373 7.33508C21.9647 7.40776 21.9238 7.50634 21.9238 7.60913C21.9238 7.71192 21.9647 7.8105 22.0373 7.88318C22.11 7.95587 22.2086 7.9967 22.3114 7.9967Z" fill="#AFDAD2" stroke="white" stroke-width="0.25"/>
<path d="M23.5715 10.228C23.7432 10.228 23.9079 10.1597 24.0294 10.0383C24.1508 9.91685 24.2191 9.75211 24.2191 9.58036C24.2191 9.40861 24.1508 9.24387 24.0294 9.12242C23.9079 9.00098 23.7432 8.93274 23.5715 8.93274C23.3997 8.93274 23.235 9.00098 23.1135 9.12242C22.9921 9.24387 22.9238 9.40861 22.9238 9.58036C22.9238 9.75211 22.9921 9.91685 23.1135 10.0383C23.235 10.1597 23.3997 10.228 23.5715 10.228Z" fill="#AFDAD2" stroke="white" stroke-width="0.25"/>
<path d="M17.102 9.8502C17.2785 9.8502 17.4477 9.78008 17.5725 9.65529C17.6973 9.5305 17.7674 9.36122 17.7674 9.18474C17.7674 9.00826 17.6973 8.83898 17.5725 8.71419C17.4477 8.5894 17.2785 8.51929 17.102 8.51929C16.9255 8.51929 16.7562 8.5894 16.6314 8.71419C16.5066 8.83898 16.4365 9.00826 16.4365 9.18474C16.4365 9.36122 16.5066 9.5305 16.6314 9.65529C16.7562 9.78008 16.9255 9.8502 17.102 9.8502Z" fill="#AFDAD2" stroke="white" stroke-width="0.25"/>
<path d="M8.76559 16.2458C8.90879 16.2458 9.04616 16.1889 9.14742 16.0876C9.24869 15.9863 9.30558 15.849 9.30558 15.7058C9.30558 15.5626 9.24869 15.4252 9.14742 15.3239C9.04616 15.2227 8.90879 15.1658 8.76559 15.1658C8.62238 15.1658 8.48501 15.2227 8.38375 15.3239C8.28248 15.4252 8.22559 15.5626 8.22559 15.7058C8.22559 15.849 8.28248 15.9863 8.38375 16.0876C8.48501 16.1889 8.62238 16.2458 8.76559 16.2458Z" fill="#AFDAD2" stroke="white" stroke-width="0.25"/>
<path d="M26.5509 10.507C26.769 10.507 26.9782 10.4204 27.1325 10.2661C27.2867 10.1119 27.3733 9.9027 27.3733 9.68459C27.3733 9.46649 27.2867 9.25729 27.1325 9.10306C26.9782 8.94884 26.769 8.86218 26.5509 8.86218C26.3328 8.86218 26.1236 8.94884 25.9694 9.10306C25.8152 9.25729 25.7285 9.46649 25.7285 9.68459C25.7285 9.9027 25.8152 10.1119 25.9694 10.2661C26.1236 10.4204 26.3328 10.507 26.5509 10.507Z" fill="#AFDAD2" stroke="white" stroke-width="0.25"/>
<path d="M18.6152 9.95007C18.8154 9.95007 19.0074 9.87053 19.149 9.72897C19.2906 9.58741 19.3701 9.39538 19.3701 9.19519C19.3701 8.99499 19.2906 8.80297 19.149 8.66141C19.0074 8.51985 18.8154 8.44031 18.6152 8.44031C18.415 8.44031 18.223 8.51985 18.0815 8.66141C17.9399 8.80297 17.8604 8.99499 17.8604 9.19519C17.8604 9.39538 17.9399 9.58741 18.0815 9.72897C18.223 9.87053 18.415 9.95007 18.6152 9.95007Z" fill="#AFDAD2" stroke="white" stroke-width="0.25"/>
<path d="M9.84537 10.5585C10.031 10.5585 10.209 10.4848 10.3403 10.3536C10.4715 10.2223 10.5452 10.0443 10.5452 9.85868C10.5452 9.67307 10.4715 9.49504 10.3403 9.3638C10.209 9.23256 10.031 9.15881 9.84537 9.15881C9.65977 9.15881 9.48174 9.23256 9.35049 9.3638C9.21925 9.49504 9.14551 9.67307 9.14551 9.85868C9.14551 10.0443 9.21925 10.2223 9.35049 10.3536C9.48174 10.4848 9.65977 10.5585 9.84537 10.5585Z" fill="#AFDAD2" stroke="white" stroke-width="0.25"/>
<path d="M13.7398 8.75154C13.9544 8.75154 14.1602 8.66629 14.3119 8.51456C14.4637 8.36282 14.5489 8.157 14.5489 7.94242C14.5489 7.72784 14.4637 7.52202 14.3119 7.37029C14.1602 7.21855 13.9544 7.1333 13.7398 7.1333C13.5252 7.1333 13.3194 7.21855 13.1677 7.37029C13.0159 7.52202 12.9307 7.72784 12.9307 7.94242C12.9307 8.157 13.0159 8.36282 13.1677 8.51456C13.3194 8.66629 13.5252 8.75154 13.7398 8.75154Z" fill="#AFDAD2" stroke="white" stroke-width="0.25"/>
<path d="M28.9207 9.84111C29.0532 9.84111 29.1803 9.78845 29.2741 9.69473C29.3678 9.601 29.4205 9.47387 29.4205 9.34133C29.4205 9.20879 29.3678 9.08166 29.2741 8.98793C29.1803 8.89421 29.0532 8.84155 28.9207 8.84155C28.7881 8.84155 28.661 8.89421 28.5673 8.98793C28.4736 9.08166 28.4209 9.20879 28.4209 9.34133C28.4209 9.47387 28.4736 9.601 28.5673 9.69473C28.661 9.78845 28.7881 9.84111 28.9207 9.84111Z" fill="#AFDAD2" stroke="white" stroke-width="0.25"/>
<path d="M11.5118 7.80011C11.6804 7.80011 11.8421 7.73312 11.9613 7.6139C12.0805 7.49467 12.1475 7.33295 12.1475 7.16434C12.1475 6.99573 12.0805 6.834 11.9613 6.71478C11.8421 6.59555 11.6804 6.52856 11.5118 6.52856C11.3431 6.52856 11.1814 6.59555 11.0622 6.71478C10.943 6.834 10.876 6.99573 10.876 7.16434C10.876 7.33295 10.943 7.49467 11.0622 7.6139C11.1814 7.73312 11.3431 7.80011 11.5118 7.80011Z" fill="#AFDAD2" stroke="white" stroke-width="0.25"/>
<path d="M14.379 10.6478C14.5225 10.6478 14.6601 10.5908 14.7616 10.4893C14.8631 10.3878 14.9201 10.2502 14.9201 10.1067C14.9201 9.96316 14.8631 9.82551 14.7616 9.72404C14.6601 9.62257 14.5225 9.56555 14.379 9.56555C14.2355 9.56555 14.0979 9.62257 13.9964 9.72404C13.8949 9.82551 13.8379 9.96316 13.8379 10.1067C13.8379 10.2502 13.8949 10.3878 13.9964 10.4893C14.0979 10.5908 14.2355 10.6478 14.379 10.6478Z" fill="#AFDAD2" stroke="white" stroke-width="0.25"/>
<path d="M15.6747 9.47339C15.8205 9.47339 15.9604 9.41546 16.0635 9.31237C16.1666 9.20928 16.2245 9.06944 16.2245 8.92364C16.2245 8.77785 16.1666 8.63801 16.0635 8.53492C15.9604 8.43183 15.8205 8.3739 15.6747 8.3739C15.5289 8.3739 15.3891 8.43183 15.286 8.53492C15.1829 8.63801 15.125 8.77785 15.125 8.92364C15.125 9.06944 15.1829 9.20928 15.286 9.31237C15.3891 9.41546 15.5289 9.47339 15.6747 9.47339Z" fill="#AFDAD2" stroke="white" stroke-width="0.25"/>
<path d="M7.1853 10.8699C7.33208 10.8699 7.47286 10.8115 7.57665 10.7078C7.68044 10.604 7.73876 10.4632 7.73876 10.3164C7.73876 10.1696 7.68044 10.0288 7.57665 9.92504C7.47286 9.82126 7.33208 9.76294 7.1853 9.76294C7.03852 9.76294 6.89773 9.82126 6.79394 9.92504C6.69015 10.0288 6.63184 10.1696 6.63184 10.3164C6.63184 10.4632 6.69015 10.604 6.79394 10.7078C6.89773 10.8115 7.03852 10.8699 7.1853 10.8699Z" fill="#AFDAD2" stroke="white" stroke-width="0.25"/>
<path d="M8.70893 8.7179C8.84358 8.7179 8.97274 8.6644 9.06796 8.56918C9.16318 8.47397 9.21668 8.3448 9.21668 8.21015C9.21668 8.07549 9.16318 7.94633 9.06796 7.85111C8.97274 7.75589 8.84358 7.70239 8.70893 7.70239C8.57427 7.70239 8.44511 7.75589 8.34989 7.85111C8.25467 7.94633 8.20117 8.07549 8.20117 8.21015C8.20117 8.3448 8.25467 8.47397 8.34989 8.56918C8.44511 8.6644 8.57427 8.7179 8.70893 8.7179Z" fill="#AFDAD2" stroke="white" stroke-width="0.25"/>
<path d="M20.4226 10.294C20.5355 10.294 20.6438 10.2492 20.7236 10.1694C20.8034 10.0896 20.8482 9.9813 20.8482 9.86844C20.8482 9.75558 20.8034 9.64732 20.7236 9.56752C20.6438 9.48771 20.5355 9.44287 20.4226 9.44287C20.3098 9.44287 20.2015 9.48771 20.1217 9.56752C20.0419 9.64732 19.9971 9.75558 19.9971 9.86844C19.9971 9.9813 20.0419 10.0896 20.1217 10.1694C20.2015 10.2492 20.3098 10.294 20.4226 10.294Z" fill="#AFDAD2" stroke="white" stroke-width="0.25"/>
<path d="M6.79418 13.6716C6.98072 13.6716 7.15963 13.5975 7.29153 13.4656C7.42343 13.3337 7.49754 13.1548 7.49754 12.9683C7.49754 12.7817 7.42343 12.6028 7.29153 12.4709C7.15963 12.339 6.98072 12.2649 6.79418 12.2649C6.60765 12.2649 6.42873 12.339 6.29683 12.4709C6.16493 12.6028 6.09082 12.7817 6.09082 12.9683C6.09082 13.1548 6.16493 13.3337 6.29683 13.4656C6.42873 13.5975 6.60765 13.6716 6.79418 13.6716Z" fill="#AFDAD2" stroke="white" stroke-width="0.25"/>
<path d="M5.2231 12.4856C5.36333 12.4856 5.49783 12.4299 5.59699 12.3308C5.69615 12.2316 5.75186 12.0971 5.75186 11.9569C5.75186 11.8166 5.69615 11.6821 5.59699 11.583C5.49783 11.4838 5.36333 11.4281 5.2231 11.4281C5.08287 11.4281 4.94836 11.4838 4.84921 11.583C4.75005 11.6821 4.69434 11.8166 4.69434 11.9569C4.69434 12.0971 4.75005 12.2316 4.84921 12.3308C4.94836 12.4299 5.08287 12.4856 5.2231 12.4856Z" fill="#AFDAD2" stroke="white" stroke-width="0.25"/>
<path d="M21.8746 10.1705C22.0157 10.1705 22.151 10.1145 22.2507 10.0148C22.3505 9.91502 22.4065 9.77973 22.4065 9.63868C22.4065 9.49763 22.3505 9.36233 22.2507 9.26259C22.151 9.16285 22.0157 9.10681 21.8746 9.10681C21.7336 9.10681 21.5983 9.16285 21.4986 9.26259C21.3988 9.36233 21.3428 9.49763 21.3428 9.63868C21.3428 9.77973 21.3988 9.91502 21.4986 10.0148C21.5983 10.1145 21.7336 10.1705 21.8746 10.1705Z" fill="#AFDAD2" stroke="white" stroke-width="0.25"/>
<path d="M9.78188 12.9323C9.99933 12.9323 10.2079 12.8459 10.3617 12.6921C10.5154 12.5384 10.6018 12.3298 10.6018 12.1123C10.6018 11.8949 10.5154 11.6863 10.3617 11.5325C10.2079 11.3788 9.99933 11.2924 9.78188 11.2924C9.56442 11.2924 9.35584 11.3788 9.20208 11.5325C9.04831 11.6863 8.96191 11.8949 8.96191 12.1123C8.96191 12.3298 9.04831 12.5384 9.20208 12.6921C9.35584 12.8459 9.56442 12.9323 9.78188 12.9323Z" fill="#AFDAD2" stroke="white" stroke-width="0.25"/>
<path d="M27.8454 9.2043C28.0634 9.2043 28.2725 9.11769 28.4267 8.96355C28.5808 8.8094 28.6674 8.6003 28.6674 8.3823C28.6674 8.16431 28.5808 7.95521 28.4267 7.80106C28.2725 7.64691 28.0634 7.5603 27.8454 7.5603C27.6274 7.5603 27.4183 7.64691 27.2642 7.80106C27.11 7.95521 27.0234 8.16431 27.0234 8.3823C27.0234 8.6003 27.11 8.8094 27.2642 8.96355C27.4183 9.11769 27.6274 9.2043 27.8454 9.2043Z" fill="#AFDAD2" stroke="white" stroke-width="0.25"/>
<path d="M7.23002 16.9498C7.35654 16.9498 7.4779 16.8995 7.56737 16.81C7.65684 16.7206 7.7071 16.5992 7.7071 16.4727C7.7071 16.3462 7.65684 16.2248 7.56737 16.1353C7.4779 16.0459 7.35654 15.9956 7.23002 15.9956C7.10349 15.9956 6.98213 16.0459 6.89267 16.1353C6.8032 16.2248 6.75293 16.3462 6.75293 16.4727C6.75293 16.5992 6.8032 16.7206 6.89267 16.81C6.98213 16.8995 7.10349 16.9498 7.23002 16.9498Z" fill="#AFDAD2" stroke="white" stroke-width="0.25"/>
<path d="M19.1481 7.64332C19.3221 7.64332 19.489 7.5742 19.612 7.4512C19.735 7.32819 19.8041 7.16133 19.8041 6.98737C19.8041 6.81341 19.735 6.64655 19.612 6.52354C19.489 6.40054 19.3221 6.33142 19.1481 6.33142C18.9742 6.33142 18.8073 6.40054 18.6843 6.52354C18.5613 6.64655 18.4922 6.81341 18.4922 6.98737C18.4922 7.16133 18.5613 7.32819 18.6843 7.4512C18.8073 7.5742 18.9742 7.64332 19.1481 7.64332Z" fill="#AFDAD2" stroke="white" stroke-width="0.25"/>
<path d="M32.7765 8.54655C32.9542 8.54655 33.1247 8.47595 33.2503 8.35029C33.376 8.22464 33.4466 8.05419 33.4466 7.87649C33.4466 7.69878 33.376 7.52833 33.2503 7.40268C33.1247 7.27702 32.9542 7.20642 32.7765 7.20642C32.5988 7.20642 32.4284 7.27702 32.3027 7.40268C32.177 7.52833 32.1064 7.69878 32.1064 7.87649C32.1064 8.05419 32.177 8.22464 32.3027 8.35029C32.4284 8.47595 32.5988 8.54655 32.7765 8.54655Z" fill="#AFDAD2" stroke="white" stroke-width="0.25"/>
<path d="M23.8626 8.20526C24.0041 8.20526 24.1399 8.14904 24.2399 8.04899C24.34 7.94894 24.3962 7.81322 24.3962 7.67172C24.3962 7.53023 24.34 7.39451 24.2399 7.29445C24.1399 7.1944 24.0041 7.13818 23.8626 7.13818C23.7211 7.13818 23.5854 7.1944 23.4854 7.29445C23.3853 7.39451 23.3291 7.53023 23.3291 7.67172C23.3291 7.81322 23.3853 7.94894 23.4854 8.04899C23.5854 8.14904 23.7211 8.20526 23.8626 8.20526Z" fill="#AFDAD2" stroke="white" stroke-width="0.25"/>
<path d="M12.2308 15.2441C12.4152 15.2441 12.5922 15.1708 12.7226 15.0404C12.8531 14.9099 12.9264 14.733 12.9264 14.5485C12.9264 14.364 12.8531 14.1871 12.7226 14.0566C12.5922 13.9262 12.4152 13.8529 12.2308 13.8529C12.0463 13.8529 11.8693 13.9262 11.7389 14.0566C11.6084 14.1871 11.5352 14.364 11.5352 14.5485C11.5352 14.733 11.6084 14.9099 11.7389 15.0404C11.8693 15.1708 12.0463 15.2441 12.2308 15.2441Z" fill="#AFDAD2" stroke="white" stroke-width="0.25"/>
<path d="M25.6728 8.43499C25.8494 8.43499 26.0188 8.36482 26.1437 8.23993C26.2686 8.11504 26.3388 7.94563 26.3388 7.76901C26.3388 7.59239 26.2686 7.42298 26.1437 7.29809C26.0188 7.1732 25.8494 7.10303 25.6728 7.10303C25.4962 7.10303 25.3268 7.1732 25.2019 7.29809C25.077 7.42298 25.0068 7.59239 25.0068 7.76901C25.0068 7.94563 25.077 8.11504 25.2019 8.23993C25.3268 8.36482 25.4962 8.43499 25.6728 8.43499Z" fill="#AFDAD2" stroke="white" stroke-width="0.25"/>
<path d="M30.3879 9.08405C30.5342 9.08405 30.6746 9.0259 30.7781 8.9224C30.8816 8.8189 30.9398 8.67851 30.9398 8.53214C30.9398 8.38577 30.8816 8.24537 30.7781 8.14188C30.6746 8.03838 30.5342 7.98022 30.3879 7.98022C30.2415 7.98022 30.1011 8.03838 29.9976 8.14188C29.8941 8.24537 29.8359 8.38577 29.8359 8.53214C29.8359 8.67851 29.8941 8.8189 29.9976 8.9224C30.1011 9.0259 30.2415 9.08405 30.3879 9.08405Z" fill="#AFDAD2" stroke="white" stroke-width="0.25"/>
<path d="M35.5981 10.2803C35.73 10.2803 35.8565 10.2279 35.9498 10.1346C36.0431 10.0413 36.0955 9.9148 36.0955 9.78287C36.0955 9.65094 36.0431 9.52439 35.9498 9.43111C35.8565 9.33782 35.73 9.2854 35.5981 9.2854C35.4661 9.2854 35.3396 9.33782 35.2463 9.43111C35.153 9.52439 35.1006 9.65094 35.1006 9.78287C35.1006 9.9148 35.153 10.0413 35.2463 10.1346C35.3396 10.2279 35.4661 10.2803 35.5981 10.2803Z" fill="#AFDAD2" stroke="white" stroke-width="0.25"/>
<path d="M16.9815 6.62474C17.0952 6.62474 17.2043 6.57956 17.2847 6.49915C17.3651 6.41875 17.4103 6.30968 17.4103 6.19597C17.4103 6.08226 17.3651 5.9732 17.2847 5.89279C17.2043 5.81239 17.0952 5.76721 16.9815 5.76721C16.8678 5.76721 16.7587 5.81239 16.6783 5.89279C16.5979 5.9732 16.5527 6.08226 16.5527 6.19597C16.5527 6.30968 16.5979 6.41875 16.6783 6.49915C16.7587 6.57956 16.8678 6.62474 16.9815 6.62474Z" fill="#AFDAD2" stroke="white" stroke-width="0.25"/>
<path d="M20.8806 5.44766C21.0471 5.44766 21.2068 5.38152 21.3245 5.26381C21.4422 5.1461 21.5083 4.98643 21.5083 4.81996C21.5083 4.65349 21.4422 4.49382 21.3245 4.37611C21.2068 4.2584 21.0471 4.19226 20.8806 4.19226C20.7142 4.19226 20.5545 4.2584 20.4368 4.37611C20.3191 4.49382 20.2529 4.65349 20.2529 4.81996C20.2529 4.98643 20.3191 5.1461 20.4368 5.26381C20.5545 5.38152 20.7142 5.44766 20.8806 5.44766Z" fill="#AFDAD2" stroke="white" stroke-width="0.25"/>
<path d="M35.4871 8.81267C35.7065 8.81267 35.9168 8.72554 36.0719 8.57045C36.227 8.41537 36.3141 8.205 36.3141 7.98568C36.3141 7.76636 36.227 7.55599 36.0719 7.40091C35.9168 7.24583 35.7065 7.15869 35.4871 7.15869C35.2678 7.15869 35.0575 7.24583 34.9024 7.40091C34.7473 7.55599 34.6602 7.76636 34.6602 7.98568C34.6602 8.205 34.7473 8.41537 34.9024 8.57045C35.0575 8.72554 35.2678 8.81267 35.4871 8.81267Z" fill="#AFDAD2" stroke="white" stroke-width="0.25"/>
<path d="M19.9329 9.15057C20.1402 9.15057 20.339 9.06822 20.4855 8.92167C20.6321 8.77511 20.7144 8.57631 20.7144 8.36905C20.7144 8.16178 20.6321 7.96298 20.4855 7.81643C20.339 7.66987 20.1402 7.58752 19.9329 7.58752C19.7256 7.58752 19.5268 7.66987 19.3803 7.81643C19.2337 7.96298 19.1514 8.16178 19.1514 8.36905C19.1514 8.57631 19.2337 8.77511 19.3803 8.92167C19.5268 9.06822 19.7256 9.15057 19.9329 9.15057Z" fill="#AFDAD2" stroke="white" stroke-width="0.25"/>
<path d="M22.8245 6.22172C23.0313 6.22172 23.2296 6.13958 23.3758 5.99338C23.522 5.84718 23.6042 5.64886 23.6042 5.4421C23.6042 5.23534 23.522 5.03702 23.3758 4.89082C23.2296 4.74462 23.0313 4.66248 22.8245 4.66248C22.6178 4.66248 22.4195 4.74462 22.2733 4.89082C22.1271 5.03702 22.0449 5.23534 22.0449 5.4421C22.0449 5.64886 22.1271 5.84718 22.2733 5.99338C22.4195 6.13958 22.6178 6.22172 22.8245 6.22172Z" fill="#AFDAD2" stroke="white" stroke-width="0.25"/>
<path d="M29.583 7.17144C29.7972 7.17144 30.0027 7.08634 30.1541 6.93489C30.3056 6.78343 30.3907 6.57799 30.3907 6.3638C30.3907 6.14961 30.3056 5.94416 30.1541 5.79271C30.0027 5.64125 29.7972 5.55615 29.583 5.55615C29.3688 5.55615 29.1634 5.64125 29.0119 5.79271C28.8605 5.94416 28.7754 6.14961 28.7754 6.3638C28.7754 6.57799 28.8605 6.78343 29.0119 6.93489C29.1634 7.08634 29.3688 7.17144 29.583 7.17144Z" fill="#AFDAD2" stroke="white" stroke-width="0.25"/>
<path d="M37.9443 12.2488C38.1471 12.2488 38.3416 12.1682 38.485 12.0248C38.6284 11.8814 38.709 11.6869 38.709 11.4841C38.709 11.2813 38.6284 11.0868 38.485 10.9434C38.3416 10.8001 38.1471 10.7195 37.9443 10.7195C37.7416 10.7195 37.547 10.8001 37.4037 10.9434C37.2603 11.0868 37.1797 11.2813 37.1797 11.4841C37.1797 11.6869 37.2603 11.8814 37.4037 12.0248C37.547 12.1682 37.7416 12.2488 37.9443 12.2488Z" fill="#AFDAD2" stroke="white" stroke-width="0.25"/>
<path d="M20.7041 2.99155C20.8199 2.99155 20.931 2.94555 21.0129 2.86368C21.0947 2.78181 21.1407 2.67076 21.1407 2.55498C21.1407 2.4392 21.0947 2.32815 21.0129 2.24628C20.931 2.16441 20.8199 2.11841 20.7041 2.11841C20.5884 2.11841 20.4773 2.16441 20.3954 2.24628C20.3136 2.32815 20.2676 2.4392 20.2676 2.55498C20.2676 2.67076 20.3136 2.78181 20.3954 2.86368C20.4773 2.94555 20.5884 2.99155 20.7041 2.99155Z" fill="#AFDAD2" stroke="white" stroke-width="0.25"/>
<path d="M27.6755 7.62588C27.8699 7.62588 28.0564 7.54863 28.1939 7.41116C28.3313 7.27368 28.4086 7.08719 28.4086 6.89277C28.4086 6.69835 28.3313 6.51187 28.1939 6.37439C28.0564 6.23691 27.8699 6.15967 27.6755 6.15967C27.4811 6.15967 27.2946 6.23691 27.1571 6.37439C27.0196 6.51187 26.9424 6.69835 26.9424 6.89277C26.9424 7.08719 27.0196 7.27368 27.1571 7.41116C27.2946 7.54863 27.4811 7.62588 27.6755 7.62588Z" fill="#AFDAD2" stroke="white" stroke-width="0.25"/>
<path d="M26.6953 6.21782C26.8522 6.21782 27.0027 6.15547 27.1137 6.0445C27.2247 5.93353 27.287 5.783 27.287 5.62606C27.287 5.46912 27.2247 5.31859 27.1137 5.20762C27.0027 5.09665 26.8522 5.0343 26.6953 5.0343C26.5383 5.0343 26.3878 5.09665 26.2768 5.20762C26.1659 5.31859 26.1035 5.46912 26.1035 5.62606C26.1035 5.783 26.1659 5.93353 26.2768 6.0445C26.3878 6.15547 26.5383 6.21782 26.6953 6.21782Z" fill="#AFDAD2" stroke="white" stroke-width="0.25"/>
<path d="M23.7212 4.92923C23.9226 4.92923 24.1157 4.84923 24.2581 4.70684C24.4005 4.56445 24.4805 4.37131 24.4805 4.16994C24.4805 3.96857 24.4005 3.77543 24.2581 3.63304C24.1157 3.49065 23.9226 3.41064 23.7212 3.41064C23.5198 3.41064 23.3267 3.49065 23.1843 3.63304C23.0419 3.77543 22.9619 3.96857 22.9619 4.16994C22.9619 4.37131 23.0419 4.56445 23.1843 4.70684C23.3267 4.84923 23.5198 4.92923 23.7212 4.92923Z" fill="#AFDAD2" stroke="white" stroke-width="0.25"/>
<path d="M15.3453 8.02578C15.571 8.02578 15.7875 7.9361 15.9471 7.77649C16.1068 7.61687 16.1964 7.40036 16.1964 7.17463C16.1964 6.94891 16.1068 6.7324 15.9471 6.57278C15.7875 6.41317 15.571 6.32349 15.3453 6.32349C15.1196 6.32349 14.903 6.41317 14.7434 6.57278C14.5838 6.7324 14.4941 6.94891 14.4941 7.17463C14.4941 7.40036 14.5838 7.61687 14.7434 7.77649C14.903 7.9361 15.1196 8.02578 15.3453 8.02578Z" fill="#AFDAD2" stroke="white" stroke-width="0.25"/>
<path d="M10.0944 6.77244C10.2173 6.77244 10.3352 6.72361 10.4221 6.63669C10.509 6.54977 10.5578 6.43187 10.5578 6.30895C10.5578 6.18603 10.509 6.06813 10.4221 5.98121C10.3352 5.8943 10.2173 5.84546 10.0944 5.84546C9.97143 5.84546 9.85353 5.8943 9.76661 5.98121C9.6797 6.06813 9.63086 6.18603 9.63086 6.30895C9.63086 6.43187 9.6797 6.54977 9.76661 6.63669C9.85353 6.72361 9.97143 6.77244 10.0944 6.77244Z" fill="#AFDAD2" stroke="white" stroke-width="0.25"/>
<path d="M12.2982 6.46155C12.4575 6.46155 12.6104 6.39824 12.7231 6.28555C12.8357 6.17287 12.8991 6.02002 12.8991 5.86066C12.8991 5.7013 12.8357 5.54845 12.7231 5.43576C12.6104 5.32308 12.4575 5.25977 12.2982 5.25977C12.1388 5.25977 11.9859 5.32308 11.8733 5.43576C11.7606 5.54845 11.6973 5.7013 11.6973 5.86066C11.6973 6.02002 11.7606 6.17287 11.8733 6.28555C11.9859 6.39824 12.1388 6.46155 12.2982 6.46155Z" fill="#AFDAD2" stroke="white" stroke-width="0.25"/>
<path d="M32.4877 10.1019C32.6841 10.1019 32.8725 10.0239 33.0114 9.88497C33.1503 9.74608 33.2284 9.55767 33.2284 9.36125C33.2284 9.16483 33.1503 8.97643 33.0114 8.83754C32.8725 8.69864 32.6841 8.62061 32.4877 8.62061C32.2913 8.62061 32.1029 8.69864 31.964 8.83754C31.8251 8.97643 31.7471 9.16483 31.7471 9.36125C31.7471 9.55767 31.8251 9.74608 31.964 9.88497C32.1029 10.0239 32.2913 10.1019 32.4877 10.1019Z" fill="#AFDAD2" stroke="white" stroke-width="0.25"/>
<path d="M24.3615 6.1978C24.4705 6.1978 24.5752 6.15446 24.6523 6.07734C24.7294 6.00021 24.7727 5.89559 24.7727 5.78652C24.7727 5.67745 24.7294 5.57283 24.6523 5.4957C24.5752 5.41858 24.4705 5.37524 24.3615 5.37524C24.2524 5.37524 24.1478 5.41858 24.0707 5.4957C23.9935 5.57283 23.9502 5.67745 23.9502 5.78652C23.9502 5.89559 23.9935 6.00021 24.0707 6.07734C24.1478 6.15446 24.2524 6.1978 24.3615 6.1978Z" fill="#AFDAD2" stroke="white" stroke-width="0.25"/>
<path d="M15.6277 6.28058C15.8346 6.28058 16.033 6.19839 16.1793 6.05211C16.3256 5.90582 16.4078 5.70739 16.4078 5.50052C16.4078 5.29365 16.3256 5.09522 16.1793 4.94893C16.033 4.80265 15.8346 4.72046 15.6277 4.72046C15.4208 4.72046 15.2224 4.80265 15.0761 4.94893C14.9298 5.09522 14.8477 5.29365 14.8477 5.50052C14.8477 5.70739 14.9298 5.90582 15.0761 6.05211C15.2224 6.19839 15.4208 6.28058 15.6277 6.28058Z" fill="#AFDAD2" stroke="white" stroke-width="0.25"/>
<path d="M4.18118 15.8432C4.36105 15.8432 4.53358 15.7717 4.66077 15.6445C4.78796 15.5173 4.85942 15.3448 4.85942 15.1649C4.85942 14.9851 4.78796 14.8125 4.66077 14.6853C4.53358 14.5582 4.36105 14.4867 4.18118 14.4867C4.0013 14.4867 3.82877 14.5582 3.70158 14.6853C3.57439 14.8125 3.50293 14.9851 3.50293 15.1649C3.50293 15.3448 3.57439 15.5173 3.70158 15.6445C3.82877 15.7717 4.0013 15.8432 4.18118 15.8432Z" fill="#AFDAD2" stroke="white" stroke-width="0.25"/>
<path d="M5.98816 16.077C6.19713 16.077 6.39757 15.994 6.54533 15.8462C6.6931 15.6985 6.77612 15.498 6.77612 15.2891C6.77612 15.0801 6.6931 14.8797 6.54533 14.7319C6.39757 14.5841 6.19713 14.5011 5.98816 14.5011C5.77919 14.5011 5.57875 14.5841 5.43098 14.7319C5.28322 14.8797 5.2002 15.0801 5.2002 15.2891C5.2002 15.498 5.28322 15.6985 5.43098 15.8462C5.57875 15.994 5.77919 16.077 5.98816 16.077Z" fill="#AFDAD2" stroke="white" stroke-width="0.25"/>
<path d="M12.356 9.13011C12.5571 9.13011 12.75 9.05021 12.8922 8.908C13.0345 8.76578 13.1144 8.57288 13.1144 8.37176C13.1144 8.17064 13.0345 7.97773 12.8922 7.83552C12.75 7.69331 12.5571 7.6134 12.356 7.6134C12.1549 7.6134 11.962 7.69331 11.8198 7.83552C11.6776 7.97773 11.5977 8.17064 11.5977 8.37176C11.5977 8.57288 11.6776 8.76578 11.8198 8.908C11.962 9.05021 12.1549 9.13011 12.356 9.13011Z" fill="#AFDAD2" stroke="white" stroke-width="0.25"/>
<path d="M4.40417 14.1549C4.56005 14.1549 4.70956 14.093 4.81978 13.9827C4.93 13.8725 4.99194 13.723 4.99194 13.5671C4.99194 13.4113 4.93 13.2617 4.81978 13.1515C4.70956 13.0413 4.56005 12.9794 4.40417 12.9794C4.24829 12.9794 4.09878 13.0413 3.98856 13.1515C3.87834 13.2617 3.81641 13.4113 3.81641 13.5671C3.81641 13.723 3.87834 13.8725 3.98856 13.9827C4.09878 14.093 4.24829 14.1549 4.40417 14.1549Z" fill="#AFDAD2" stroke="white" stroke-width="0.25"/>
<path d="M28.1041 5.62246C28.2747 5.62246 28.4383 5.55469 28.5589 5.43407C28.6796 5.31345 28.7473 5.14984 28.7473 4.97926C28.7473 4.80868 28.6796 4.64507 28.5589 4.52445C28.4383 4.40383 28.2747 4.33606 28.1041 4.33606C27.9336 4.33606 27.7699 4.40383 27.6493 4.52445C27.5287 4.64507 27.4609 4.80868 27.4609 4.97926C27.4609 5.14984 27.5287 5.31345 27.6493 5.43407C27.7699 5.55469 27.9336 5.62246 28.1041 5.62246Z" fill="#AFDAD2" stroke="white" stroke-width="0.25"/>
<path d="M10.1986 8.32328C10.3538 8.32328 10.5027 8.26161 10.6124 8.15185C10.7222 8.0421 10.7838 7.89321 10.7838 7.73799C10.7838 7.58277 10.7222 7.43389 10.6124 7.32414C10.5027 7.21438 10.3538 7.15271 10.1986 7.15271C10.0433 7.15271 9.89446 7.21438 9.78471 7.32414C9.67495 7.43389 9.61328 7.58277 9.61328 7.73799C9.61328 7.89321 9.67495 8.0421 9.78471 8.15185C9.89446 8.26161 10.0433 8.32328 10.1986 8.32328Z" fill="#AFDAD2" stroke="white" stroke-width="0.25"/>
<path d="M7.36095 15.3734C7.57866 15.3734 7.78748 15.2869 7.94142 15.1329C8.09536 14.979 8.18186 14.7702 8.18186 14.5525C8.18186 14.3348 8.09536 14.126 7.94142 13.972C7.78748 13.8181 7.57866 13.7316 7.36095 13.7316C7.14324 13.7316 6.93442 13.8181 6.78048 13.972C6.62654 14.126 6.54004 14.3348 6.54004 14.5525C6.54004 14.7702 6.62654 14.979 6.78048 15.1329C6.93442 15.2869 7.14324 15.3734 7.36095 15.3734Z" fill="#AFDAD2" stroke="white" stroke-width="0.25"/>
<path d="M34.0455 9.78715C34.2588 9.78715 34.4634 9.70241 34.6142 9.55159C34.765 9.40076 34.8498 9.19617 34.8498 8.98287C34.8498 8.76957 34.765 8.56498 34.6142 8.41416C34.4634 8.26333 34.2588 8.17859 34.0455 8.17859C33.8322 8.17859 33.6276 8.26333 33.4768 8.41416C33.326 8.56498 33.2412 8.76957 33.2412 8.98287C33.2412 9.19617 33.326 9.40076 33.4768 9.55159C33.6276 9.70241 33.8322 9.78715 34.0455 9.78715Z" fill="#AFDAD2" stroke="white" stroke-width="0.25"/>
<path d="M36.9457 9.6913C37.0924 9.6913 37.2332 9.63301 37.3369 9.52928C37.4406 9.42554 37.4989 9.28483 37.4989 9.13813C37.4989 8.99143 37.4406 8.85071 37.3369 8.74698C37.2332 8.64325 37.0924 8.58496 36.9457 8.58496C36.799 8.58496 36.6583 8.64325 36.5546 8.74698C36.4509 8.85071 36.3926 8.99143 36.3926 9.13813C36.3926 9.28483 36.4509 9.42554 36.5546 9.52928C36.6583 9.63301 36.799 9.6913 36.9457 9.6913Z" fill="#AFDAD2" stroke="white" stroke-width="0.25"/>
<path d="M17.8212 8.32223C17.9846 8.32223 18.1413 8.25731 18.2569 8.14177C18.3724 8.02623 18.4373 7.8695 18.4373 7.7061C18.4373 7.5427 18.3724 7.38597 18.2569 7.27043C18.1413 7.15489 17.9846 7.08997 17.8212 7.08997C17.6578 7.08997 17.5011 7.15489 17.3855 7.27043C17.27 7.38597 17.2051 7.5427 17.2051 7.7061C17.2051 7.8695 17.27 8.02623 17.3855 8.14177C17.5011 8.25731 17.6578 8.32223 17.8212 8.32223Z" fill="#AFDAD2" stroke="white" stroke-width="0.25"/>
<path d="M31.3471 7.62961C31.4839 7.62961 31.6152 7.57524 31.712 7.47847C31.8088 7.3817 31.8631 7.25043 31.8631 7.11357C31.8631 6.97672 31.8088 6.84545 31.712 6.74868C31.6152 6.65191 31.4839 6.59753 31.3471 6.59753C31.2102 6.59753 31.079 6.65191 30.9822 6.74868C30.8854 6.84545 30.8311 6.97672 30.8311 7.11357C30.8311 7.25043 30.8854 7.3817 30.9822 7.47847C31.079 7.57524 31.2102 7.62961 31.3471 7.62961Z" fill="#AFDAD2" stroke="white" stroke-width="0.25"/>
<path d="M31.1248 6.33649C31.3481 6.33649 31.5622 6.24781 31.72 6.08998C31.8778 5.93215 31.9665 5.71805 31.9665 5.49485C31.9665 5.27164 31.8778 5.05754 31.72 4.89971C31.5622 4.74188 31.3481 4.6532 31.1248 4.6532C30.9016 4.6532 30.6875 4.74188 30.5297 4.89971C30.3719 5.05754 30.2832 5.27164 30.2832 5.49485C30.2832 5.71805 30.3719 5.93215 30.5297 6.08998C30.6875 6.24781 30.9016 6.33649 31.1248 6.33649Z" fill="#AFDAD2" stroke="white" stroke-width="0.25"/>
<path d="M20.7485 7.7709C20.9481 7.7709 21.1395 7.69161 21.2806 7.55051C21.4217 7.4094 21.501 7.218 21.501 7.01844C21.501 6.81889 21.4217 6.62748 21.2806 6.48638C21.1395 6.34527 20.9481 6.26599 20.7485 6.26599C20.549 6.26599 20.3576 6.34527 20.2165 6.48638C20.0754 6.62748 19.9961 6.81889 19.9961 7.01844C19.9961 7.218 20.0754 7.4094 20.2165 7.55051C20.3576 7.69161 20.549 7.7709 20.7485 7.7709Z" fill="#AFDAD2" stroke="white" stroke-width="0.25"/>
<path d="M36.6494 11.4083C36.8206 11.4083 36.9848 11.3402 37.1059 11.2192C37.227 11.0981 37.295 10.9339 37.295 10.7627C37.295 10.5915 37.227 10.4273 37.1059 10.3063C36.9848 10.1852 36.8206 10.1172 36.6494 10.1172C36.4782 10.1172 36.314 10.1852 36.193 10.3063C36.0719 10.4273 36.0039 10.5915 36.0039 10.7627C36.0039 10.9339 36.0719 11.0981 36.193 11.2192C36.314 11.3402 36.4782 11.4083 36.6494 11.4083Z" fill="#AFDAD2" stroke="white" stroke-width="0.25"/>
<path d="M5.83269 17.2369C5.93309 17.2369 6.0294 17.197 6.10039 17.126C6.17139 17.055 6.21128 16.9587 6.21128 16.8583C6.21128 16.7579 6.17139 16.6616 6.10039 16.5906C6.0294 16.5196 5.93309 16.4797 5.83269 16.4797C5.73229 16.4797 5.63598 16.5196 5.56499 16.5906C5.49399 16.6616 5.4541 16.7579 5.4541 16.8583C5.4541 16.9587 5.49399 17.055 5.56499 17.126C5.63598 17.197 5.73229 17.2369 5.83269 17.2369Z" fill="#AFDAD2" stroke="white" stroke-width="0.25"/>
<path d="M13.7899 6.73842C13.9773 6.73842 14.1571 6.66394 14.2897 6.53138C14.4222 6.39883 14.4967 6.21902 14.4967 6.03156C14.4967 5.8441 14.4222 5.66429 14.2897 5.53174C14.1571 5.39919 13.9773 5.32471 13.7899 5.32471C13.6024 5.32471 13.4226 5.39919 13.29 5.53174C13.1575 5.66429 13.083 5.8441 13.083 6.03156C13.083 6.21902 13.1575 6.39883 13.29 6.53138C13.4226 6.66394 13.6024 6.73842 13.7899 6.73842Z" fill="#AFDAD2" stroke="white" stroke-width="0.25"/>
<path d="M18.9502 5.58595C19.0841 5.58595 19.2125 5.53275 19.3072 5.43807C19.4019 5.34339 19.4551 5.21496 19.4551 5.08106C19.4551 4.94716 19.4019 4.81873 19.3072 4.72405C19.2125 4.62937 19.0841 4.57617 18.9502 4.57617C18.8163 4.57617 18.6879 4.62937 18.5932 4.72405C18.4985 4.81873 18.4453 4.94716 18.4453 5.08106C18.4453 5.21496 18.4985 5.34339 18.5932 5.43807C18.6879 5.53275 18.8163 5.58595 18.9502 5.58595Z" fill="#AFDAD2" stroke="white" stroke-width="0.25"/>
<path d="M33.603 7.14066C33.7715 7.14066 33.9331 7.07373 34.0523 6.95459C34.1714 6.83546 34.2383 6.67387 34.2383 6.50539C34.2383 6.33691 34.1714 6.17531 34.0523 6.05618C33.9331 5.93705 33.7715 5.87012 33.603 5.87012C33.4346 5.87012 33.273 5.93705 33.1538 6.05618C33.0347 6.17531 32.9678 6.33691 32.9678 6.50539C32.9678 6.67387 33.0347 6.83546 33.1538 6.95459C33.273 7.07373 33.4346 7.14066 33.603 7.14066Z" fill="#AFDAD2" stroke="white" stroke-width="0.25"/>
<path d="M17.539 4.56629C17.7485 4.56629 17.9495 4.48305 18.0976 4.33491C18.2457 4.18677 18.329 3.98582 18.329 3.77631C18.329 3.5668 18.2457 3.36585 18.0976 3.21771C17.9495 3.06957 17.7485 2.98633 17.539 2.98633C17.3295 2.98633 17.1285 3.06957 16.9804 3.21771C16.8323 3.36585 16.749 3.5668 16.749 3.77631C16.749 3.98582 16.8323 4.18677 16.9804 4.33491C17.1285 4.48305 17.3295 4.56629 17.539 4.56629Z" fill="#AFDAD2" stroke="white" stroke-width="0.25"/>
<path d="M29.9326 5.32085C30.1264 5.32085 30.3122 5.24388 30.4492 5.1069C30.5862 4.96991 30.6631 4.78409 30.6631 4.59036C30.6631 4.39663 30.5862 4.21081 30.4492 4.07382C30.3122 3.93683 30.1264 3.85986 29.9326 3.85986C29.7389 3.85986 29.5531 3.93683 29.4161 4.07382C29.2791 4.21081 29.2021 4.39663 29.2021 4.59036C29.2021 4.78409 29.2791 4.96991 29.4161 5.1069C29.5531 5.24388 29.7389 5.32085 29.9326 5.32085Z" fill="#AFDAD2" stroke="white" stroke-width="0.25"/>
<path d="M13.9778 4.54198C14.133 4.54198 14.2818 4.48032 14.3916 4.37058C14.5013 4.26084 14.563 4.11198 14.563 3.95678C14.563 3.80158 14.5013 3.65272 14.3916 3.54298C14.2818 3.43324 14.133 3.37158 13.9778 3.37158C13.8226 3.37158 13.6737 3.43324 13.564 3.54298C13.4542 3.65272 13.3926 3.80158 13.3926 3.95678C13.3926 4.11198 13.4542 4.26084 13.564 4.37058C13.6737 4.48032 13.8226 4.54198 13.9778 4.54198Z" fill="#AFDAD2" stroke="white" stroke-width="0.25"/>
<path d="M15.3839 4.08957C15.5551 4.08957 15.7193 4.02154 15.8404 3.90047C15.9615 3.7794 16.0295 3.61517 16.0295 3.44395C16.0295 3.27273 15.9615 3.1085 15.8404 2.98744C15.7193 2.86637 15.5551 2.79834 15.3839 2.79834C15.2127 2.79834 15.0484 2.86637 14.9274 2.98744C14.8063 3.1085 14.7383 3.27273 14.7383 3.44395C14.7383 3.61517 14.8063 3.7794 14.9274 3.90047C15.0484 4.02154 15.2127 4.08957 15.3839 4.08957Z" fill="#AFDAD2" stroke="white" stroke-width="0.25"/>
<path d="M25.3346 3.28036C25.5355 3.28036 25.7281 3.20055 25.8702 3.05852C26.0122 2.91648 26.092 2.72381 26.092 2.52293C26.092 2.32206 26.0122 2.12939 25.8702 1.98735C25.7281 1.84531 25.5355 1.7655 25.3346 1.7655C25.1337 1.7655 24.941 1.84531 24.799 1.98735C24.657 2.12939 24.5771 2.32206 24.5771 2.52293C24.5771 2.72381 24.657 2.91648 24.799 3.05852C24.941 3.20055 25.1337 3.28036 25.3346 3.28036Z" fill="#AFDAD2" stroke="white" stroke-width="0.25"/>
<path d="M22.2907 3.44112C22.447 3.44112 22.597 3.379 22.7075 3.26845C22.8181 3.1579 22.8802 3.00794 22.8802 2.8516C22.8802 2.69526 22.8181 2.5453 22.7075 2.43475C22.597 2.3242 22.447 2.26208 22.2907 2.26208C22.1343 2.26208 21.9844 2.3242 21.8738 2.43475C21.7633 2.5453 21.7012 2.69526 21.7012 2.8516C21.7012 3.00794 21.7633 3.1579 21.8738 3.26845C21.9844 3.379 22.1343 3.44112 22.2907 3.44112Z" fill="#AFDAD2" stroke="white" stroke-width="0.25"/>
<path d="M26.8473 4.16048C26.9668 4.16048 27.0815 4.11298 27.166 4.02844C27.2506 3.94391 27.298 3.82924 27.298 3.70969C27.298 3.59014 27.2506 3.47548 27.166 3.39094C27.0815 3.30641 26.9668 3.25891 26.8473 3.25891C26.7277 3.25891 26.6131 3.30641 26.5285 3.39094C26.444 3.47548 26.3965 3.59014 26.3965 3.70969C26.3965 3.82924 26.444 3.94391 26.5285 4.02844C26.6131 4.11298 26.7277 4.16048 26.8473 4.16048Z" fill="#AFDAD2" stroke="white" stroke-width="0.25"/>
<path d="M25.3418 4.85251C25.5635 4.85251 25.7761 4.76443 25.9329 4.60767C26.0896 4.45091 26.1777 4.23827 26.1777 4.01658C26.1777 3.7949 26.0896 3.58226 25.9329 3.4255C25.7761 3.26874 25.5635 3.18066 25.3418 3.18066C25.1201 3.18066 24.9075 3.26874 24.7507 3.4255C24.5939 3.58226 24.5059 3.7949 24.5059 4.01658C24.5059 4.23827 24.5939 4.45091 24.7507 4.60767C24.9075 4.76443 25.1201 4.85251 25.3418 4.85251Z" fill="#AFDAD2" stroke="white" stroke-width="0.25"/>
<path d="M28.6597 4.04119C28.8129 4.04119 28.9598 3.98032 29.0682 3.87199C29.1765 3.76367 29.2374 3.61672 29.2374 3.46352C29.2374 3.31033 29.1765 3.16338 29.0682 3.05506C28.9598 2.94673 28.8129 2.88586 28.6597 2.88586C28.5065 2.88586 28.3596 2.94673 28.2512 3.05506C28.1429 3.16338 28.082 3.31033 28.082 3.46352C28.082 3.61672 28.1429 3.76367 28.2512 3.87199C28.3596 3.98032 28.5065 4.04119 28.6597 4.04119Z" fill="#AFDAD2" stroke="white" stroke-width="0.25"/>
<path d="M2.73736 18.133C2.9298 18.133 3.11439 18.0566 3.25047 17.9205C3.38654 17.7844 3.463 17.5998 3.463 17.4074C3.463 17.215 3.38654 17.0304 3.25047 16.8943C3.11439 16.7582 2.9298 16.6818 2.73736 16.6818C2.54492 16.6818 2.36033 16.7582 2.22425 16.8943C2.08818 17.0304 2.01172 17.215 2.01172 17.4074C2.01172 17.5998 2.08818 17.7844 2.22425 17.9205C2.36033 18.0566 2.54492 18.133 2.73736 18.133Z" fill="#AFDAD2" stroke="white" stroke-width="0.25"/>
<path d="M19.2022 3.99156C19.3058 3.99156 19.4052 3.9504 19.4785 3.87713C19.5517 3.80387 19.5929 3.70449 19.5929 3.60088C19.5929 3.49727 19.5517 3.39789 19.4785 3.32463C19.4052 3.25137 19.3058 3.21021 19.2022 3.21021C19.0986 3.21021 18.9992 3.25137 18.926 3.32463C18.8527 3.39789 18.8115 3.49727 18.8115 3.60088C18.8115 3.70449 18.8527 3.80387 18.926 3.87713C18.9992 3.9504 19.0986 3.99156 19.2022 3.99156Z" fill="#AFDAD2" stroke="white" stroke-width="0.25"/>
<path d="M32.6238 5.77995C32.7488 5.77995 32.8688 5.73027 32.9572 5.64186C33.0456 5.55345 33.0953 5.43352 33.0953 5.30849C33.0953 5.18346 33.0456 5.06353 32.9572 4.97512C32.8688 4.88671 32.7488 4.83704 32.6238 4.83704C32.4988 4.83704 32.3788 4.88671 32.2904 4.97512C32.202 5.06353 32.1523 5.18346 32.1523 5.30849C32.1523 5.43352 32.202 5.55345 32.2904 5.64186C32.3788 5.73027 32.4988 5.77995 32.6238 5.77995Z" fill="#AFDAD2" stroke="white" stroke-width="0.25"/>
<path d="M23.8117 3.42159C23.9926 3.42159 24.166 3.34974 24.2939 3.22188C24.4218 3.09401 24.4936 2.92056 24.4936 2.73972C24.4936 2.55889 24.4218 2.38544 24.2939 2.25757C24.166 2.12971 23.9926 2.05786 23.8117 2.05786C23.6309 2.05786 23.4575 2.12971 23.3296 2.25757C23.2017 2.38544 23.1299 2.55889 23.1299 2.73972C23.1299 2.92056 23.2017 3.09401 23.3296 3.22188C23.4575 3.34974 23.6309 3.42159 23.8117 3.42159Z" fill="#AFDAD2" stroke="white" stroke-width="0.25"/>
<path d="M8.2416 13.7752C8.44993 13.7752 8.64975 13.6924 8.79706 13.5451C8.94437 13.3978 9.02714 13.198 9.02714 12.9896C9.02714 12.7813 8.94437 12.5815 8.79706 12.4342C8.64975 12.2869 8.44993 12.2041 8.2416 12.2041C8.03327 12.2041 7.83344 12.2869 7.68613 12.4342C7.53882 12.5815 7.45605 12.7813 7.45605 12.9896C7.45605 13.198 7.53882 13.3978 7.68613 13.5451C7.83344 13.6924 8.03327 13.7752 8.2416 13.7752Z" fill="#AFDAD2" stroke="white" stroke-width="0.25"/>
<path d="M29.9653 10.0651L29.1545 10.0458L28.3436 10.0644L27.5328 10.1207L26.7225 10.2141L25.9129 10.3434L25.1042 10.507L24.2966 10.7028L23.4903 10.9287L22.6853 11.182L21.8817 11.4598L21.0794 11.759L20.2785 12.0767L19.4788 12.4094L18.6804 12.754L17.8832 13.1073L17.0871 13.466L15.4979 14.188L14.7048 14.5456L13.9125 14.8976L13.1211 15.2418L12.3304 15.576L11.5404 15.8987L10.751 16.2084L9.96212 16.5038L9.17373 16.7841L8.38572 17.0485L7.59802 17.2967L6.81052 17.5284L6.02316 17.7436L5.23585 17.9425L4.4485 18.1254L3.66106 18.2928L2.87345 18.4452L2.08561 18.5834L1.22138 18.7199L1.18328 18.9828C1.03858 19.9813 0.96582 20.9894 0.96582 21.9995C0.96582 22.7864 1.00998 23.5722 1.09795 24.3534L1.15298 24.842L2.29414 24.3354L3.09012 23.9765L4.67918 23.2546L5.47224 22.8972L6.26425 22.5463L7.05514 22.2049L7.84485 21.8763L8.63332 21.5635L9.42051 21.2699L10.2064 20.9982L10.9909 20.7513L11.774 20.5319L12.5558 20.3422L13.3364 20.1843L14.1159 20.0598L14.8944 19.9701L15.6722 19.916L16.4495 19.8982L17.2267 19.9168L18.004 19.9716L18.7818 20.062L19.5603 20.187L20.3398 20.3452L21.1204 20.5351L21.9022 20.7546L22.6853 21.0013L23.4698 21.2728L24.2557 21.5662L25.0429 21.8785L25.8314 22.2067L26.6211 22.5477L27.412 22.8981L28.204 23.255L29.7911 23.9761L30.5861 24.3345L31.382 24.6882L32.1786 25.0346L32.9761 25.3718L33.7742 25.6978L34.5729 26.0112L35.3722 26.3107L36.1719 26.5951L36.9721 26.8637L37.7725 27.116L38.5731 27.3517L39.3739 27.5707L40.1747 27.7731L40.9755 27.9593L42.1016 28.199L42.1952 27.8775C42.7258 26.0543 43.0074 24.1669 43.0315 22.2667L43.0332 22.0018L43.0316 21.7345L43.026 21.4486C42.9582 18.8715 42.4181 16.3305 41.4321 13.9502L41.3594 13.7768L41.2295 13.4763L40.4109 13.1081L39.615 12.7554L38.8177 12.4113L38.0193 12.0789L37.2197 11.7617L36.4187 11.4627L35.6164 11.1851L34.8128 10.932L34.0078 10.706L33.2015 10.51L32.394 10.346L31.5853 10.2162L30.7757 10.1222L29.9653 10.0651ZM29.1461 10.4061L29.9402 10.4247L30.7342 10.4803L31.5283 10.5722L32.3224 10.6993L33.1164 10.8602L33.9105 11.0531L34.7046 11.2758L35.4986 11.5258L36.2927 11.8004L37.0868 12.0967L37.8808 12.4117L38.6749 12.7422L39.469 13.085L40.263 13.4368L40.9546 13.7479C41.0038 13.8608 41.0519 13.9743 41.0991 14.0882C42.0686 16.4287 42.5991 18.9262 42.6656 21.4557L42.6711 21.7368L42.6728 21.9995L42.6711 22.2621C42.6474 24.132 42.37 25.987 41.8491 27.7768L41.0571 27.6082L40.263 27.4237L39.469 27.223L38.6749 27.0059L37.8808 26.7722L37.0868 26.522L36.2927 26.2554L35.4986 25.9731L34.7046 25.6757L33.9105 25.3642L33.1164 25.0398L32.3224 24.7041L31.5283 24.3588L30.7342 24.006L29.9402 23.6479L28.352 22.9264L27.558 22.5686L26.7639 22.2167L25.9699 21.874L25.1758 21.5435L24.3817 21.2285L23.5877 20.9322L22.7936 20.6575L21.9995 20.4075L21.2055 20.1849L20.4114 19.992L19.6173 19.831L18.8233 19.7039L18.0292 19.612L17.2351 19.5565L16.4411 19.5379L15.647 19.5565L14.8529 19.612L14.0589 19.7039L13.2648 19.831L12.4707 19.992L11.6767 20.1849L10.8826 20.4075L10.0885 20.6575L9.29448 20.9322L8.50042 21.2285L7.70635 21.5435L6.91229 21.874L6.11822 22.2167L5.32416 22.5686L4.53009 22.9264L2.94196 23.6479L2.1479 24.006L1.45613 24.313C1.36979 23.5464 1.32627 22.774 1.32627 21.9995C1.32627 21.0051 1.39801 20.0142 1.54 19.0345L2.1479 18.9384L2.94196 18.7991L3.73603 18.6453L4.53009 18.4765L5.32416 18.2919L6.11822 18.0913L6.91229 17.8742L7.70635 17.6405L8.50042 17.3902L9.29448 17.1237L10.0885 16.8414L10.8826 16.5439L11.6767 16.2324L12.4707 15.908L13.2648 15.5723L14.0589 15.227L14.8529 14.8742L15.647 14.5162L17.2351 13.7947L18.0292 13.4368L18.8233 13.085L19.6173 12.7422L20.4114 12.4117L21.2055 12.0967L21.9995 11.8004L22.7936 11.5258L23.5877 11.2758L24.3817 11.0531L25.1758 10.8602L25.9699 10.6993L26.7639 10.5722L27.558 10.4803L28.352 10.4247L29.1461 10.4061Z" fill="white"/>
<path d="M29.146 10.3202L29.9441 10.3389L30.7421 10.3947L31.54 10.487L32.3376 10.6147L33.135 10.7763L33.9322 10.97L34.729 11.1934L35.5255 11.4442L36.3217 11.7196L37.1184 12.0169L37.9138 12.3324L38.7089 12.6633L39.5037 13.0064L40.2982 13.3585L41.0204 13.6839C41.0742 13.8071 41.1269 13.9309 41.1784 14.0553C42.1656 16.4385 42.6994 18.9837 42.754 21.5604L42.757 21.7363L42.7586 22L42.757 22.2632C42.7328 24.1675 42.4467 26.0564 41.9091 27.8772L41.0375 27.692L40.2419 27.507L39.4462 27.3059L38.6505 27.0884L37.8549 26.8542L37.0593 26.6035L36.2638 26.3364L35.4684 26.0536L34.6731 25.7557L33.8779 25.4438L33.0829 25.119L32.288 24.7829L31.4933 24.4373L30.6988 24.0843L29.9045 23.7262L28.3166 23.0048L27.5231 22.6472L26.7298 22.2956L25.9367 21.9533L25.144 21.6234L24.3516 21.309L23.5585 21.0131L22.7665 20.7392L21.9749 20.4899L21.1836 20.268L20.3926 20.0759L19.6019 19.9156L18.8114 19.7891L18.0212 19.6976L17.231 19.6424L16.441 19.6239L15.6509 19.6424L14.8608 19.6976L14.0705 19.7891L13.2801 19.9156L12.4893 20.0759L11.6983 20.268L10.907 20.4899L10.1154 20.7392L9.32346 21.0131L8.53201 21.3084L7.73928 21.6228L6.94625 21.9529L6.15295 22.2953L5.35937 22.647L4.56555 23.0047L2.97719 23.7263L2.1827 24.0845L1.38412 24.4394C1.28847 23.6312 1.24023 22.8166 1.24023 21.9995C1.24023 20.9798 1.31536 19.9639 1.46401 18.9597L2.13295 18.8538L2.92553 18.7147L3.71806 18.5613L4.51055 18.3928L5.30301 18.2086L6.09547 18.0084L6.88793 17.7917L7.68043 17.5585L8.47298 17.3088L9.2656 17.0428L10.0583 16.7609L10.8511 16.464L11.6441 16.1529L12.4372 15.8289L13.2304 15.4935L14.0239 15.1485L14.8175 14.7959L15.6114 14.4379L17.1997 13.7163L17.9943 13.3583L18.7891 13.0061L19.5842 12.6629L20.3796 12.3319L21.1753 12.0163L21.9704 11.7196L22.7665 11.4442L23.5631 11.1934L24.3599 10.97L25.157 10.7763L25.9544 10.6147L26.7521 10.487L27.5499 10.3947L28.3479 10.3389L29.146 10.3202Z" fill="#7DB0BC" stroke="white"/>
<path d="M16.4409 19.9349L17.235 19.9535L18.0291 20.0091L18.8231 20.101L19.6172 20.2281L20.4113 20.389L21.2053 20.5819L21.9994 20.8046L22.7935 21.0546L23.5875 21.3292L24.3816 21.6256L25.1757 21.9405L25.9697 22.271L26.7638 22.6138L27.5578 22.9657L28.3519 23.3235L29.146 23.6842L29.94 24.045L30.7341 24.403L31.5282 24.7558L32.3222 25.1011L33.1163 25.4369L33.9104 25.7612L34.7044 26.0728L35.4985 26.3702L36.2926 26.6525L37.0866 26.919L37.8807 27.1693L38.6748 27.403L39.4688 27.6201L40.2629 27.8208L41.057 28.0053L41.7366 28.1498C41.5511 28.7451 41.3384 29.3327 41.099 29.9108C40.0601 32.419 38.5372 34.6981 36.6176 36.6177C34.698 38.5374 32.4188 40.0602 29.9107 41.0991C27.4026 42.138 24.7142 42.6728 21.9994 42.6728C19.2846 42.6728 16.5962 42.138 14.0881 41.0991C11.5799 40.0602 9.30083 38.5374 7.38119 36.6177C5.46155 34.6981 3.93869 32.419 2.89979 29.9108C2.20591 28.2357 1.73693 26.4801 1.50195 24.6899L2.14776 24.403L2.94183 24.045L3.7359 23.6842L4.52996 23.3235L5.32403 22.9657L6.11809 22.6138L6.91216 22.271L7.70622 21.9405L8.50029 21.6256L9.29435 21.3292L10.0884 21.0546L10.8825 20.8046L11.6765 20.5819L12.4706 20.389L13.2647 20.2281L14.0587 20.101L14.8528 20.0091L15.6469 19.9535L16.4409 19.9349Z" fill="#5C7DA2"/>
<path d="M18.0287 25.288V27.9508H22.7931V31.6282H27.5575V34.1435H32.3219V35.2052H37.0862L37.0862 36.1331C36.9326 36.297 36.7763 36.4586 36.6172 36.6176C34.6976 38.5373 32.4185 40.0601 29.9103 41.099C27.4022 42.1379 24.7138 42.6727 21.999 42.6727C19.2842 42.6727 16.5958 42.1379 14.0877 41.099C11.5796 40.0601 9.30045 38.5373 7.3808 36.6176C5.92466 35.1615 4.69683 33.4985 3.73535 31.6856L3.73551 29.2046H8.4999V25.8863H13.2643V25.288H18.0287Z" fill="#444876"/>
<path d="M18.1921 25.1254L18.192 27.7882L22.9565 27.7882L22.9564 31.4655L27.7209 31.4656L27.7208 33.9809L32.4853 33.9809L32.4852 35.0426L37.2497 35.0426L37.2498 35.9573C37.1427 36.0744 37.0341 36.1903 36.9242 36.305L36.924 35.3677L32.4852 35.3676L32.4852 39.8163C32.3773 39.8798 32.2688 39.9424 32.1597 40.004L32.1597 34.3061L27.7208 34.3059L27.7208 41.8654C27.6125 41.8966 27.504 41.9269 27.3953 41.9563L27.3953 31.7908L22.9564 31.7907L22.9564 42.6506C22.8479 42.6557 22.7394 42.6598 22.6309 42.6631L22.6309 28.1134L18.192 28.1134L18.1921 42.3191C18.0833 42.2987 17.9748 42.2775 17.8664 42.2554L17.8666 25.4505H13.4275L13.4275 25.7237L13.4277 25.7237L13.4275 40.8118C13.3186 40.7621 13.2101 40.7115 13.102 40.66L13.1022 26.0488H8.66317L8.66312 29.0419L8.66332 29.042L8.66313 37.7957C8.55376 37.7033 8.44532 37.6098 8.33783 37.5152L8.33782 29.3673H3.8988L3.89859 31.9861C3.78676 31.7834 3.67829 31.5787 3.57324 31.3722L3.57359 29.042L8.33793 29.0419L8.33798 25.7237L13.1023 25.7237L13.1024 25.1254H18.1921Z" fill="white"/>
<path d="M21.9995 0C24.8884 0 27.7493 0.569059 30.4183 1.67461C33.0873 2.78016 35.5126 4.4007 37.5554 6.44349C39.5982 8.48629 41.2188 10.9116 42.3243 13.5806C43.3942 16.1636 43.9617 18.9261 43.9972 21.72L43.9989 21.9995L43.9972 22.2789C43.9617 25.0728 43.3942 27.8354 42.3243 30.4183C41.2188 33.0873 39.5982 35.5126 37.5554 37.5554C35.5126 39.5982 33.0873 41.2188 30.4183 42.3243C27.7493 43.4299 24.8884 43.9989 21.9995 43.9989C19.1105 43.9989 16.2497 43.4299 13.5806 42.3243C10.9116 41.2188 8.48629 39.5982 6.44349 37.5554C4.4007 35.5126 2.78016 33.0873 1.67461 30.4183C0.569059 27.7493 0 24.8884 0 21.9995C0 19.1105 0.569059 16.2497 1.67461 13.5806C2.78016 10.9116 4.4007 8.48629 6.44349 6.44349C8.48629 4.4007 10.9116 2.78016 13.5806 1.67461C16.2497 0.569059 19.1105 0 21.9995 0ZM21.9995 0.722379C19.2054 0.722379 16.4385 1.27275 13.8571 2.342C11.2757 3.41125 8.93001 4.97858 6.95429 6.95429C4.97858 8.93001 3.41125 11.2757 2.342 13.8571C1.27275 16.4385 0.722379 19.2054 0.722379 21.9995C0.722379 24.7935 1.27275 27.5605 2.342 30.1418C3.41125 32.7232 4.97858 35.0689 6.95429 37.0446C8.93001 39.0203 11.2757 40.5877 13.8571 41.6569C16.4385 42.7262 19.2054 43.2765 21.9995 43.2765C24.7935 43.2765 27.5605 42.7262 30.1418 41.6569C32.7232 40.5877 35.0689 39.0203 37.0446 37.0446C39.0203 35.0689 40.5877 32.7232 41.6569 30.1418C42.6917 27.6437 43.2405 24.9719 43.2748 22.2698L43.2765 21.9995L43.2748 21.7292C43.2405 19.0271 42.6917 16.3552 41.6569 13.8571C40.5877 11.2757 39.0203 8.93001 37.0446 6.95429C35.0689 4.97858 32.7232 3.41125 30.1418 2.342C27.5605 1.27275 24.7935 0.722379 21.9995 0.722379Z" fill="#444876"/>
</g>
<defs>
<clipPath id="clip0_5673_8262">
<rect width="44" height="44" fill="white"/>
</clipPath>
</defs>
</svg>
