<?xml version="1.0" encoding="UTF-8"?>
<svg version="1.1" xmlns="http://www.w3.org/2000/svg" width="300" height="168">
<path d="M0 0 C99 0 198 0 300 0 C300 55.44 300 110.88 300 168 C201 168 102 168 0 168 C0 112.56 0 57.12 0 0 Z " fill="#FEFEFD" transform="translate(0,0)"/>
<path d="M0 0 C7.08000721 -0.07647781 14.15990666 -0.1287786 21.24023438 -0.16479492 C23.64554831 -0.17982006 26.05083513 -0.20024596 28.45605469 -0.22631836 C31.92650064 -0.262978 35.39658227 -0.27978971 38.8671875 -0.29296875 C39.93113739 -0.30845261 40.99508728 -0.32393646 42.09127808 -0.33988953 C52.54685119 -0.34221154 61.2686877 1.64750478 69 9 C74.8456172 15.47033965 76.51765126 22.47262414 76.3046875 31.09765625 C75.42806526 39.44804501 72.35743948 45.70485481 66.15234375 51.34375 C56.10379514 59.07620846 44.34265553 59.01487974 32.2109375 57.5390625 C19.08549585 55.19029926 5.45780564 50.53571883 -5 42 C-5.495 40.515 -5.495 40.515 -6 39 C0.27 39 6.54 39 13 39 C13 38.01 13 37.02 13 36 C12.17113281 35.75636719 11.34226563 35.51273438 10.48828125 35.26171875 C6.46096198 33.8050288 2.90187213 31.92451595 -0.8125 29.8125 C-1.51592529 29.41466309 -2.21935059 29.01682617 -2.9440918 28.60693359 C-9.46717016 24.84960437 -15.96170536 20.67389489 -21 15 C-21 14.34 -21 13.68 -21 13 C-8.79 12.67 3.42 12.34 16 12 C11.94219868 8.95664901 7.86602882 6.79013916 3.36328125 4.5 C1 3 1 3 0 0 Z " fill="#FF612B" transform="translate(108,33)"/>
<path d="M0 0 C4.0285497 2.86748298 6.89109083 6.71164593 8.7890625 11.2734375 C9.73233882 18.33704155 9.06746061 24.46326723 4.7890625 30.2734375 C0.27609831 35.24276885 -4.50749836 37.01181436 -11.0859375 37.6484375 C-16.59550576 37.46969196 -20.93224913 35.35551338 -24.9765625 31.66015625 C-29.13268265 27.11061696 -30.90078792 23.06478373 -31.5859375 16.8984375 C-30.93375867 10.59404217 -28.48632213 6.1276855 -23.7734375 1.8984375 C-16.37408558 -3.85835216 -8.26117147 -4.64073776 0 0 Z " fill="#FEFAF9" transform="translate(166.2109375,44.7265625)"/>
<path d="M0 0 C3.96 0 7.92 0 12 0 C13.98 6.6 15.96 13.2 18 20 C20.34880326 16.4767951 21.37398842 12.88843081 22.5625 8.875 C24.87360595 1.12639405 24.87360595 1.12639405 26 0 C29.63 0 33.26 0 37 0 C37 8.58 37 17.16 37 26 C35.02 26 33.04 26 31 26 C30.505 16.1 30.505 16.1 30 6 C28.06702402 12.20682726 28.06702402 12.20682726 26.14086914 18.41577148 C25.89973389 19.18477783 25.65859863 19.95378418 25.41015625 20.74609375 C25.16402588 21.53685303 24.91789551 22.3276123 24.66430664 23.14233398 C24 25 24 25 23 26 C19.66381769 26.14257189 16.34024394 26.04228157 13 26 C11.02 19.73 9.04 13.46 7 7 C6.67 13.27 6.34 19.54 6 26 C4.02 26 2.04 26 0 26 C0 17.42 0 8.84 0 0 Z " fill="#020202" transform="translate(97,108)"/>
<path d="M0 0 C3.691875 -0.0825 7.38375 -0.165 11.1875 -0.25 C12.92036255 -0.30462402 12.92036255 -0.30462402 14.68823242 -0.36035156 C22.20296096 -0.44182628 22.20296096 -0.44182628 26.19921875 1.7734375 C28.36967763 4.45708514 28.70067154 6.52804652 28.5078125 9.9609375 C27.6231264 13.51329245 25.55665701 15.44334299 23 18 C24.2375 19.423125 24.2375 19.423125 25.5 20.875 C28 23.75 28 23.75 28 26 C24.9375 26.5 24.9375 26.5 21 26 C19.2578125 24.25390625 19.2578125 24.25390625 17.5625 22.0625 C15.1898845 18.94734403 15.1898845 18.94734403 11.78125 17.24609375 C9.34442822 16.93454532 9.34442822 16.93454532 6 17 C6 19.97 6 22.94 6 26 C4.02 26 2.04 26 0 26 C0 17.42 0 8.84 0 0 Z " fill="#020202" transform="translate(140,108)"/>
<path d="M0 0 C0 1.65 0 3.3 0 5 C-0.67417969 4.83628906 -1.34835938 4.67257813 -2.04296875 4.50390625 C-5.51367906 3.9124642 -8.79322124 3.90460954 -12.3125 3.9375 C-13.56675781 3.94652344 -14.82101563 3.95554687 -16.11328125 3.96484375 C-17.06589844 3.97644531 -18.01851562 3.98804687 -19 4 C-19.33 4.99 -19.66 5.98 -20 7 C-18.35451172 7.16435547 -18.35451172 7.16435547 -16.67578125 7.33203125 C-15.22128484 7.49155666 -13.76686137 7.65174813 -12.3125 7.8125 C-11.2306543 7.91788086 -11.2306543 7.91788086 -10.12695312 8.02539062 C-5.80092473 8.51922948 -2.46079285 9.13497226 1 12 C1.51533691 15.24662252 1.78252759 16.94382927 1 20 C-1.93412765 23.09272914 -4.64268469 24.75385463 -8.9453125 25.203125 C-14.76960564 25.32837862 -19.64094202 24.30870132 -25 22 C-26 21 -26 21 -26.0625 17.9375 C-26.041875 16.968125 -26.02125 15.99875 -26 15 C-24.9275 15.495 -23.855 15.99 -22.75 16.5 C-17.25670047 18.60444748 -11.79628371 18.26083277 -6 18 C-5.67 16.68 -5.34 15.36 -5 14 C-6.02480469 13.96261719 -7.04960937 13.92523438 -8.10546875 13.88671875 C-9.46618062 13.82102921 -10.82685611 13.75458291 -12.1875 13.6875 C-12.86103516 13.66494141 -13.53457031 13.64238281 -14.22851562 13.61914062 C-18.58646946 13.3852992 -21.56833039 12.74919873 -25 10 C-26.125 6.625 -26.125 6.625 -26 3 C-23.94884956 0.30420228 -22.29495967 -1.41950084 -19.1875 -2.8125 C-11.94458634 -3.43332117 -6.76051125 -2.62908771 0 0 Z " fill="#080808" transform="translate(231,110)"/>
<path d="M0 0 C0 1.65 0 3.3 0 5 C-0.67417969 4.83628906 -1.34835938 4.67257813 -2.04296875 4.50390625 C-5.51367906 3.9124642 -8.79322124 3.90460954 -12.3125 3.9375 C-13.56675781 3.94652344 -14.82101563 3.95554687 -16.11328125 3.96484375 C-17.06589844 3.97644531 -18.01851562 3.98804687 -19 4 C-19.33 4.99 -19.66 5.98 -20 7 C-18.35451172 7.16435547 -18.35451172 7.16435547 -16.67578125 7.33203125 C-15.22128484 7.49155666 -13.76686137 7.65174813 -12.3125 7.8125 C-11.2306543 7.91788086 -11.2306543 7.91788086 -10.12695312 8.02539062 C-5.80092473 8.51922948 -2.46079285 9.13497226 1 12 C1.51551412 15.24773896 1.77678379 16.94218443 1 20 C-2.9387285 24.26695588 -6.11225187 24.87201708 -11.6875 25.25 C-16.17172773 25.207855 -22.69449779 24.30550221 -26 21 C-26.04080783 19.00041636 -26.04254356 16.99954746 -26 15 C-24.9275 15.495 -23.855 15.99 -22.75 16.5 C-17.25670047 18.60444748 -11.79628371 18.26083277 -6 18 C-5.67 17.01 -5.34 16.02 -5 15 C-8.97857214 13.67380929 -12.81985275 13.67524511 -16.9921875 13.4765625 C-20.35640591 12.94353049 -22.30169432 12.06227648 -25 10 C-26.125 6.625 -26.125 6.625 -26 3 C-23.94884956 0.30420228 -22.29495967 -1.41950084 -19.1875 -2.8125 C-11.94458634 -3.43332117 -6.76051125 -2.62908771 0 0 Z " fill="#070707" transform="translate(61,110)"/>
<path d="M0 0 C7.92 0 15.84 0 24 0 C24 1.65 24 3.3 24 5 C18.06 5 12.12 5 6 5 C6 6.65 6 8.3 6 10 C11.94 10 17.88 10 24 10 C24 11.65 24 13.3 24 15 C18.06 15 12.12 15 6 15 C6 16.98 6 18.96 6 21 C11.94 21 17.88 21 24 21 C24 22.65 24 24.3 24 26 C16.08 26 8.16 26 0 26 C0 17.42 0 8.84 0 0 Z " fill="#000000" transform="translate(67,108)"/>
<path d="M0 0 C1.98 0 3.96 0 6 0 C6 3.3 6 6.6 6 10 C11.28 10 16.56 10 22 10 C22 6.7 22 3.4 22 0 C23.98 0 25.96 0 28 0 C28 8.58 28 17.16 28 26 C26.02 26 24.04 26 22 26 C22 22.7 22 19.4 22 16 C16.72 16 11.44 16 6 16 C6 19.3 6 22.6 6 26 C4.02 26 2.04 26 0 26 C0 17.42 0 8.84 0 0 Z " fill="#040404" transform="translate(237,108)"/>
<path d="M0 0 C1.98 0 3.96 0 6 0 C6.03738281 1.10859375 6.07476562 2.2171875 6.11328125 3.359375 C6.17895448 4.82294974 6.24540135 6.28648991 6.3125 7.75 C6.33505859 8.47960937 6.35761719 9.20921875 6.38085938 9.9609375 C6.5401988 13.14772604 6.81188048 15.63796939 8.29296875 18.48828125 C10.3485499 20.30867005 11.28371341 20.51466723 14 20.4375 C14.680625 20.43621094 15.36125 20.43492187 16.0625 20.43359375 C18.5713876 19.87212898 19.38230583 18.97627978 21 17 C21.49823096 15.08034352 21.49823096 15.08034352 21.51171875 12.98828125 C21.54716797 12.23095703 21.58261719 11.47363281 21.61914062 10.69335938 C21.64169922 9.90767578 21.66425781 9.12199219 21.6875 8.3125 C21.72166016 7.51521484 21.75582031 6.71792969 21.79101562 5.89648438 C21.87338104 3.93148096 21.93837067 1.96576304 22 0 C23.98 0 25.96 0 28 0 C28.08120751 2.89640118 28.14059421 5.79050912 28.1875 8.6875 C28.21263672 9.50412109 28.23777344 10.32074219 28.26367188 11.16210938 C28.32200401 15.96478823 28.12386554 19.10070685 25 23 C20.84363761 26.66155734 17.57182624 27.654882 12.17578125 27.3828125 C7.46124261 26.55332455 4.81262124 23.97927496 1.84765625 20.40625 C-0.5028627 16.07294656 -0.46260383 12.94947152 -0.25 8.125 C-0.23195312 7.34125 -0.21390625 6.5575 -0.1953125 5.75 C-0.14855148 3.83279811 -0.07682003 1.91623285 0 0 Z " fill="#0A0A0A" transform="translate(172,108)"/>
<path d="M0 0 C5.31901517 -0.50657287 7.86484812 0.67389957 12 4 C15.7649084 7.7649084 16.69414153 10.69845314 17 16 C16 17 16 17 13.4375 17.0625 C12.633125 17.041875 11.82875 17.02125 11 17 C10.79246094 16.38511719 10.58492187 15.77023438 10.37109375 15.13671875 C8.64580419 10.30951849 8.64580419 10.30951849 5.17578125 6.734375 C3.06283185 5.81822188 3.06283185 5.81822188 0 5 C0 3.35 0 1.7 0 0 Z " fill="#FF622B" transform="translate(154,47)"/>
<path d="M0 0 C2.47923801 -0.02685095 4.9581884 -0.04676547 7.4375 -0.0625 C8.14455078 -0.07087891 8.85160156 -0.07925781 9.58007812 -0.08789062 C11.38693559 -0.09653588 13.19387603 -0.05220011 15 0 C16 1 16 1 16.125 3.5 C16 6 16 6 15 7 C12.46950598 7.07313567 9.96695163 7.09247527 7.4375 7.0625 C6.72658203 7.05798828 6.01566406 7.05347656 5.28320312 7.04882812 C3.52209987 7.03700864 1.76103964 7.01907263 0 7 C0 4.69 0 2.38 0 0 Z " fill="#EFEFEF" transform="translate(146,113)"/>
<path d="M0 0 C0.33 0 0.66 0 1 0 C1 6.93 1 13.86 1 21 C0.67 21 0.34 21 0 21 C-0.06058594 20.02417969 -0.12117188 19.04835937 -0.18359375 18.04296875 C-0.26738281 16.77066406 -0.35117188 15.49835938 -0.4375 14.1875 C-0.51871094 12.92292969 -0.59992188 11.65835938 -0.68359375 10.35546875 C-0.87184547 7.00818107 -0.87184547 7.00818107 -2 4 C-1.0625 1.8125 -1.0625 1.8125 0 0 Z " fill="#D3D3D3" transform="translate(127,113)"/>
<path d="M0 0 C0.66 0.33 1.32 0.66 2 1 C2.042721 2.66611905 2.04063832 4.33382885 2 6 C1 7 1 7 -1.5625 7.0625 C-2.7690625 7.0315625 -2.7690625 7.0315625 -4 7 C-3.67 5.68 -3.34 4.36 -3 3 C-3 3.66 -3 4.32 -3 5 C-2.01 5 -1.02 5 0 5 C0 3.35 0 1.7 0 0 Z " fill="#FF6C3A" transform="translate(169,57)"/>
</svg>
