<svg xmlns="http://www.w3.org/2000/svg" height="800" width="1200" version="1.0" viewBox="-9.750015 -3.7069 84.50013 22.2414"><path d="M7.4988 3.9326c-1.0662 0-1.6275-.11-2.1375-.25-.5125-.14-.88-.6088-.6437-.99C5 2.2363 6.7313.015 7.4988 0c.7688-.0137 2.4975 2.2362 2.7813 2.6925.2362.3812-.13.85-.6438.99-.51.14-1.0725.2487-2.1375.25" fill="#a81f23"/><path d="M10.895 7.4976c-.002-1.0638.1088-1.625.2476-2.1375.1425-.51.61-.8788.9912-.6413.4563.2825 2.6775 2.0113 2.6925 2.7788.015.7712-2.2362 2.4987-2.6925 2.7812-.3812.2375-.8487-.13-.9912-.6425-.1388-.51-.2475-1.0737-.2475-2.1387" fill="#015f91"/><path d="M7.3288 10.8938c1.0638 0 1.6263.11 2.1375.2513.5125.14.8788.6087.6425.99-.2812.455-2.0125 2.6762-2.78 2.6925-.7712.0125-2.5-2.2375-2.7812-2.6925-.2375-.3813.13-.85.6425-.99.51-.1413 1.0725-.2488 2.1387-.2513" fill="#da8a27"/><path d="M3.9326 7.3288c.001 1.065-.1088 1.6263-.2513 2.1388-.1412.51-.6075.8787-.9887.6412C2.2376 9.8263.015 8.0976 0 7.3288c-.015-.77 2.2375-2.4987 2.6925-2.7812.3812-.2375.8475.1312.9887.6437.1425.51.25 1.0738.2513 2.1375" fill="#0d7c42"/><path d="M53.795 8.4313h-2.7262v-1.125c0-1.3437-.6162-2.0125-1.8475-2.0125h-.9362v8.2013H44.21V3.8288h6.3325c2.1687 0 3.2525 1.1613 3.2525 3.4775zm-17.1412-5.115c-4.0137 0-6.0312 2.1063-6.0312 5.3013 0 3.1962 2.0175 5.3 6.0312 5.3 4.0138 0 6.0313-2.1038 6.0313-5.3 0-3.195-2.0175-5.3013-6.0313-5.3013m-.6762 9.0638c-1.4913 0-2.6975-1.2038-2.6975-3.7625 0-2.56 1.2062-3.76 2.6975-3.76 1.5937 0 2.6962 1.2 2.6962 3.76 0 2.5612-1.1025 3.7625-2.6962 3.7625M25.5338 13.74c2.165 0 3.92-1.755 3.92-3.9212 0-2.1637-1.755-3.8937-3.92-3.8937h-2.7787c-1.0163 0-1.8413-.795-1.8413-1.81 0-1.0188.825-1.865 1.8413-1.865h5.5662V.6876l-6.88-.0125c-1.4348 0-2.67.8533-3.2264 2.08a3.5312 3.5312 0 00-.3148 1.4625c0 1.9562 1.585 3.525 3.5412 3.525h1.5475c1.155 0 2.0925.92 2.0925 2.0762 0 1.1563-.9375 2.01-2.0925 2.01h-4.8362v1.8925zm38.265-8.8224c-.7875-.7225-1.9275-1.0888-3.4187-1.0888h-5.1063v1.465h3.7513c1.2325 0 1.8475.6688 1.8475 2.0125l-.0162.25h-3.0575c-.7275 0-1.3988.1925-2.015.5713-.8613.535-1.2925 1.33-1.2925 2.3887 0 1.0725.4312 1.8725 1.2925 2.4075.6162.3813 1.2875.5713 2.015.5713H65V7.95c0-1.31-.4-2.3188-1.2012-3.0325m-2.925 7.1362h-1.8525c-.4563 0-.8513-.1162-1.1825-.3425-.4075-.2725-.61-.6712-.61-1.195 0-.51.2025-.9025.61-1.1775.3312-.225.7262-.3362 1.1825-.3362h1.8525z" fill="#1c1312"/></svg>