<svg width="54" height="54" viewBox="0 0 54 54" fill="none" xmlns="http://www.w3.org/2000/svg">
<path d="M26.9947 18.6329C36.3807 18.6329 43.9895 15.3572 43.9895 11.3164C43.9895 7.27568 36.3807 4 26.9947 4C17.6088 4 10 7.27568 10 11.3164C10 15.3572 17.6088 18.6329 26.9947 18.6329Z" stroke="#DF6C20" stroke-width="2"/>
<path d="M10 11.3164V42.6726C10.0785 43.6348 10.5959 44.5877 11.5225 45.4767C12.4492 46.3657 13.7669 47.1734 15.4006 47.8538C17.0342 48.5342 18.9517 49.074 21.0437 49.4422C23.1357 49.8104 25.361 50 27.5928 50C29.8246 50 32.0191 49.8104 34.0509 49.4422C36.0827 49.074 37.9122 48.5342 39.4347 47.8538C40.9573 47.1734 42.1432 46.3657 42.9247 45.4767C43.7062 44.5877 44.068 43.6348 43.9895 42.6726V11.3164M10 21.7685C10.0785 22.7307 10.5959 23.6835 11.5225 24.5725C12.4492 25.4615 13.7669 26.2693 15.4006 26.9497C17.0342 27.6301 18.9517 28.1698 21.0437 28.5381C23.1357 28.9063 25.361 29.0958 27.5928 29.0958C29.8246 29.0958 32.0191 28.9063 34.0509 28.5381C36.0827 28.1698 37.9122 27.6301 39.4347 26.9497C40.9573 26.2693 42.1432 25.4615 42.9247 24.5725C43.7062 23.6835 44.068 22.7307 43.9895 21.7685M10 32.2205C10.0785 33.1828 10.5959 34.1356 11.5225 35.0246C12.4492 35.9136 13.7669 36.7214 15.4006 37.4018C17.0342 38.0822 18.9517 38.6219 21.0437 38.9901C23.1357 39.3584 25.361 39.5479 27.5928 39.5479C29.8246 39.5479 32.0191 39.3584 34.0509 38.9901C36.0827 38.6219 37.9122 38.0822 39.4347 37.4018C40.9573 36.7214 42.1432 35.9136 42.9247 35.0246C43.7062 34.1356 44.068 33.1828 43.9895 32.2205" stroke="#DF6C20" stroke-width="2"/>
</svg>
