<?xml version="1.0" encoding="UTF-8"?>
<svg version="1.1" xmlns="http://www.w3.org/2000/svg" width="800" height="175">
<path d="M0 0 C264 0 528 0 800 0 C800 57.75 800 115.5 800 175 C536 175 272 175 0 175 C0 117.25 0 59.5 0 0 Z " fill="#FEFEFE" transform="translate(0,0)"/>
<path d="M0 0 C4.13539405 3.85224995 7.22275174 7.96819563 10.3125 12.6875 C10.76689453 13.36361328 11.22128906 14.03972656 11.68945312 14.73632812 C15 19.73948543 15 19.73948543 15 22 C12.69 22 10.38 22 8 22 C8.00888245 22.70664291 8.01776489 23.41328583 8.0269165 24.14134216 C8.10740689 30.83430605 8.16813798 37.52713284 8.20724869 44.22047329 C8.22803277 47.66078449 8.25617889 51.10069235 8.30175781 54.54077148 C8.35394646 58.50499472 8.37302121 62.46906048 8.390625 66.43359375 C8.41127014 67.65582138 8.43191528 68.87804901 8.45318604 70.13731384 C8.45506743 77.36417785 7.60720864 82.7040144 4 89 C3.443125 90.010625 2.88625 91.02125 2.3125 92.0625 C-4.33017968 100.50049851 -12.29364343 106.29050442 -23 108 C-26.00698687 108.15785892 -29.01129544 108.16740694 -32.02197266 108.17700195 C-32.9218692 108.18357315 -33.82176575 108.19014435 -34.74893188 108.19691467 C-37.72064304 108.2165886 -40.69230374 108.22829832 -43.6640625 108.23828125 C-44.68280834 108.24235678 -45.70155418 108.2464323 -46.75117111 108.25063133 C-52.14547267 108.27146885 -57.53974897 108.28577951 -62.93408203 108.29516602 C-68.48536336 108.30621385 -74.03624204 108.3406019 -79.58738136 108.38033772 C-83.87357288 108.40657497 -88.15966955 108.41486426 -92.4459343 108.41844749 C-94.49111011 108.42329657 -96.53628217 108.43486223 -98.58137894 108.45348549 C-112.41634314 108.5716213 -123.90778961 108.28609622 -135 98.9765625 C-140.77632345 93.26793035 -144.8816657 85.8378369 -147 78 C-147 76.02 -147 74.04 -147 72 C-141.72 72 -136.44 72 -131 72 C-130.443125 74.0109375 -130.443125 74.0109375 -129.875 76.0625 C-127.8714041 82.0356615 -124.84305023 86.24362538 -119.46188354 89.56799316 C-115.08877954 91.376926 -111.49844155 91.43616155 -106.81689453 91.41992188 C-105.91203308 91.42839142 -105.00717163 91.43686096 -104.07489014 91.44558716 C-101.09405323 91.4689191 -98.11373369 91.46998017 -95.1328125 91.46875 C-93.05304764 91.47585415 -90.97328473 91.48355352 -88.89352417 91.49182129 C-84.53752188 91.50525759 -80.18170079 91.50683878 -75.82568359 91.50097656 C-70.25491286 91.49508307 -64.68501441 91.525662 -59.11441231 91.56609344 C-54.81972604 91.59199587 -50.52524906 91.59484549 -46.23049545 91.59120178 C-44.17726322 91.59289081 -42.1240211 91.60251236 -40.07086563 91.62034607 C-37.19395534 91.64258466 -34.31880095 91.63280877 -31.44189453 91.61523438 C-30.60111359 91.62849762 -29.76033264 91.64176086 -28.89407349 91.65542603 C-22.83017135 91.56974246 -18.67878668 89.891126 -14 86 C-10.28674443 81.23941593 -8.89210269 77.67315039 -8.79467773 71.70239258 C-8.77473251 70.62149857 -8.75478729 69.54060455 -8.73423767 68.42695618 C-8.71752518 67.26125595 -8.70081268 66.09555573 -8.68359375 64.89453125 C-8.6524221 63.10301888 -8.6524221 63.10301888 -8.62062073 61.27531433 C-8.55515724 57.45443557 -8.4962549 53.63348724 -8.4375 49.8125 C-8.39431176 47.22460214 -8.35069737 44.63671135 -8.30664062 42.04882812 C-8.19947908 35.69929261 -8.0977066 29.34968766 -8 23 C-10.31 23 -12.62 23 -15 23 C-13.4441739 18.3676816 -10.92381299 14.83103269 -8.0625 10.9375 C-7.61970703 10.32583984 -7.17691406 9.71417969 -6.72070312 9.08398438 C-4.50871761 6.03467498 -2.2710867 3.00562959 0 0 Z " fill="#F4B28B" transform="translate(186,56)"/>
<path d="M0 0 C0.69456299 -0.00241196 1.38912598 -0.00482391 2.10473633 -0.00730896 C3.57395128 -0.0063322 5.04320381 0.00702128 6.51220703 0.03198242 C8.7165069 0.06589103 10.91669613 0.05273952 13.12109375 0.03320312 C24.66405672 0.04409893 36.57591957 1.15656806 45.16015625 9.72265625 C50.02011558 15.54983107 51.32738434 20.50766703 51.00390625 28.09375 C50.37937867 34.32941768 47.78730562 39.85486603 43.75 44.62890625 C38.14456002 49.04795213 32.76970796 50.29463444 25.75 50.62890625 C25.75 51.28890625 25.75 51.94890625 25.75 52.62890625 C26.41 52.62890625 27.07 52.62890625 27.75 52.62890625 C29.10382149 54.1162886 30.38139886 55.67321176 31.625 57.25390625 C34.34948214 60.67503936 37.09100342 64.04927373 39.9765625 67.3359375 C40.51941895 67.95581543 41.06227539 68.57569336 41.62158203 69.21435547 C42.69289867 70.43279745 43.76927637 71.64681122 44.85107422 72.85595703 C47.34589003 75.70822437 49.20322235 77.83962121 49.75 81.62890625 C48.28077433 83.77397572 47.2456415 84.49635097 44.734375 85.16796875 C41.34440045 85.29835239 38.7859105 85.30648293 35.88671875 83.41015625 C34.01210619 81.58294768 32.38238552 79.67580765 30.75 77.62890625 C30.12480469 76.86835937 29.49960937 76.1078125 28.85546875 75.32421875 C27.51418819 73.66812085 26.18638947 72.0010285 24.87109375 70.32421875 C21.88228918 66.52629029 18.80286805 62.80460091 15.73046875 59.07421875 C13.75 56.62890625 13.75 56.62890625 12.55078125 54.37109375 C9.57638113 51.49347454 5.74517075 51.79641865 1.75 51.62890625 C1.77356567 52.91522949 1.77356567 52.91522949 1.79760742 54.22753906 C1.84882423 57.41810872 1.88639312 60.6084684 1.91479492 63.79931641 C1.92985422 65.17861843 1.95030613 66.55787278 1.97631836 67.93701172 C2.01282415 69.92264028 2.02814853 71.90862243 2.04296875 73.89453125 C2.0586792 75.08852539 2.07438965 76.28251953 2.09057617 77.51269531 C1.72185099 80.88646465 1.11829162 82.24654557 -1.25 84.62890625 C-3.1875 85.16015625 -3.1875 85.16015625 -5.25 85.12890625 C-6.2709375 85.144375 -6.2709375 85.144375 -7.3125 85.16015625 C-10.15820762 84.37988158 -10.77681227 83.16662282 -12.25 80.62890625 C-12.64440918 77.33424377 -12.64440918 77.33424377 -12.66992188 73.36938477 C-12.67839142 72.64531433 -12.68686096 71.9212439 -12.69558716 71.17523193 C-12.7189525 68.78591259 -12.71997949 66.39723737 -12.71875 64.0078125 C-12.72585182 62.34398644 -12.73355085 60.68016283 -12.74182129 59.01634216 C-12.75526494 55.53027538 -12.75683541 52.04443506 -12.75097656 48.55834961 C-12.74508005 44.09469097 -12.77566949 39.63211988 -12.81609344 35.16867161 C-12.84196434 31.73278466 -12.84484847 28.29715981 -12.84120178 24.86118889 C-12.84289358 23.21576135 -12.85254195 21.57032178 -12.87034607 19.9249897 C-12.89252603 17.62186374 -12.88284203 15.32094178 -12.86523438 13.01782227 C-12.86728882 11.7086232 -12.86934326 10.39942413 -12.87145996 9.05055237 C-11.53122389 1.67145502 -6.90126597 -0.00392911 0 0 Z " fill="#252525" transform="translate(714.25,43.37109375)"/>
<path d="M0 0 C0.90150284 -0.0049649 1.80300568 -0.00992981 2.73182678 -0.01504517 C5.70835134 -0.02962528 8.68482258 -0.03646255 11.66137695 -0.04199219 C13.73777772 -0.04774788 15.81417847 -0.05350556 17.89057922 -0.05926514 C22.24411262 -0.0697639 26.59762761 -0.07561365 30.95117188 -0.07910156 C36.51144584 -0.08457817 42.07147394 -0.10859326 47.63167095 -0.13707352 C51.92211095 -0.15576106 56.2124925 -0.16090879 60.50296974 -0.16243744 C62.5517492 -0.16545164 64.60052794 -0.1734382 66.6492672 -0.18662262 C69.52547907 -0.20380817 72.40110041 -0.20177229 75.27734375 -0.1953125 C76.11250519 -0.20452728 76.94766663 -0.21374207 77.80813599 -0.22323608 C88.8148327 -0.14636873 97.85900179 3.55250093 105.9387207 10.97753906 C111.67945817 17.02363491 115.17243294 23.85113493 115.2121582 32.28613281 C115.1296582 33.56488281 115.0471582 34.84363281 114.9621582 36.16113281 C110.0121582 36.16113281 105.0621582 36.16113281 99.9621582 36.16113281 C99.7352832 34.98550781 99.5084082 33.80988281 99.2746582 32.59863281 C97.73028783 26.53912407 95.10323409 22.62886887 89.94224548 19.09094238 C85.52451251 16.62575292 81.54431712 16.59623847 76.57373047 16.64355469 C75.65896942 16.63654541 74.74420837 16.62953613 73.80172729 16.62231445 C70.7936927 16.60478528 67.78660775 16.61634029 64.77856445 16.62988281 C62.67780884 16.62718621 60.57705445 16.62330239 58.4763031 16.61828613 C54.07913295 16.61239775 49.68228846 16.6209321 45.28515625 16.63964844 C39.66180995 16.66242325 34.03922797 16.64931967 28.41590977 16.62535858 C24.07918083 16.61087089 19.74263163 16.6155205 15.40589714 16.62586975 C13.33314866 16.62852955 11.26038363 16.62529369 9.1876545 16.61595154 C6.28466002 16.60573868 3.38288467 16.62135396 0.47998047 16.64355469 C-0.79286049 16.6314093 -0.79286049 16.6314093 -2.09141541 16.61901855 C-8.5957264 16.71069774 -14.15334731 18.31338348 -18.87768555 22.97753906 C-19.23991211 23.55375 -19.60213867 24.12996094 -19.9753418 24.72363281 C-20.35561523 25.30242188 -20.73588867 25.88121094 -21.12768555 26.47753906 C-22.9527108 29.85344415 -23.18178323 32.69697198 -23.24316406 36.45874023 C-23.26310928 37.53963425 -23.2830545 38.62052826 -23.30360413 39.73417664 C-23.32867287 41.48272697 -23.32867287 41.48272697 -23.35424805 43.26660156 C-23.37502914 44.46094315 -23.39581024 45.65528473 -23.41722107 46.88581848 C-23.48268456 50.70669724 -23.54158689 54.52764557 -23.6003418 58.34863281 C-23.64353004 60.93653068 -23.68714443 63.52442146 -23.73120117 66.11230469 C-23.83836271 72.4618402 -23.9401352 78.81144515 -24.0378418 85.16113281 C-21.3978418 85.16113281 -18.7578418 85.16113281 -16.0378418 85.16113281 C-18.36913875 90.0725102 -21.48477361 94.42755979 -24.5378418 98.91113281 C-25.13209961 99.79929687 -25.72635742 100.68746094 -26.33862305 101.60253906 C-26.90967773 102.44171875 -27.48073242 103.28089844 -28.0690918 104.14550781 C-28.59051758 104.91604492 -29.11194336 105.68658203 -29.64916992 106.48046875 C-30.10743164 107.03508789 -30.56569336 107.58970703 -31.0378418 108.16113281 C-31.6978418 108.16113281 -32.3578418 108.16113281 -33.0378418 108.16113281 C-33.0378418 107.17113281 -33.0378418 106.18113281 -33.0378418 105.16113281 C-33.6978418 105.16113281 -34.3578418 105.16113281 -35.0378418 105.16113281 C-36.36645508 103.54052734 -36.36645508 103.54052734 -37.8581543 101.29394531 C-38.39311523 100.49085937 -38.92807617 99.68777344 -39.47924805 98.86035156 C-40.03483398 98.01085937 -40.59041992 97.16136719 -41.1628418 96.28613281 C-41.72616211 95.444375 -42.28948242 94.60261719 -42.86987305 93.73535156 C-47.0378418 87.4278928 -47.0378418 87.4278928 -47.0378418 85.16113281 C-44.3978418 85.16113281 -41.7578418 85.16113281 -39.0378418 85.16113281 C-39.05116547 84.46115173 -39.06448914 83.76117065 -39.07821655 83.03997803 C-39.19922852 76.39219899 -39.29018407 69.74473427 -39.34871483 63.09609604 C-39.37982025 59.67913986 -39.42189875 56.26310548 -39.49047852 52.84667969 C-39.56909769 48.90474088 -39.59743164 44.96315457 -39.6237793 41.02050781 C-39.67023087 39.21039215 -39.67023087 39.21039215 -39.71762085 37.3637085 C-39.72188844 26.43735835 -36.05718684 18.45431555 -29.0378418 10.16113281 C-20.25843422 2.30492067 -11.5417172 0.01526355 0 0 Z " fill="#EC658C" transform="translate(79.037841796875,8.8388671875)"/>
<path d="M0 0 C1.2707563 -0.00074776 1.2707563 -0.00074776 2.56718445 -0.00151062 C4.36016177 0.00082983 6.15314239 0.01055666 7.94604492 0.02709961 C10.67852504 0.05060325 13.41002319 0.04767137 16.14257812 0.04101562 C17.88672453 0.04659572 19.63086683 0.05370768 21.375 0.0625 C22.18769852 0.06158859 23.00039703 0.06067719 23.83772278 0.05973816 C32.27275205 0.1640662 39.03418396 2.73474858 45.38671875 8.36328125 C49.8738168 14.20066344 51.15103065 20.12523142 50.8046875 27.3984375 C49.9525931 33.44273331 48.21776808 39.11785209 43.57421875 43.30078125 C37.98277829 46.91877214 33.01307647 48.6871223 26.38671875 49.36328125 C31.07942721 55.88093188 36.23273128 61.9295398 41.484375 67.99609375 C41.96656494 68.55619141 42.44875488 69.11628906 42.94555664 69.69335938 C43.91531325 70.81704821 44.8911992 71.9354733 45.87280273 73.04882812 C49.39365213 77.11367939 49.39365213 77.11367939 49.32421875 79.61328125 C48.38671875 81.36328125 48.38671875 81.36328125 46.38671875 83.36328125 C42.63061101 83.87258399 39.95124317 84.22529688 36.5859375 82.37109375 C32.26631984 78.85581869 28.90433874 74.4693891 25.50390625 70.08984375 C23.26197559 67.20263416 20.95806064 64.3744463 18.63671875 61.55078125 C14.41788705 56.41382251 14.41788705 56.41382251 12.68359375 53.6015625 C9.32527521 50.32891535 5.92926919 50.4700506 1.38671875 50.36328125 C1.41028442 51.70289917 1.41028442 51.70289917 1.43432617 53.06958008 C1.48547314 56.38506881 1.52307687 59.700138 1.55151367 63.01586914 C1.56659464 64.45050677 1.58706255 65.88509833 1.61303711 67.31958008 C1.64945312 69.38243984 1.66645118 71.44468983 1.6796875 73.5078125 C1.70325317 75.36950073 1.70325317 75.36950073 1.72729492 77.26879883 C1.38671875 80.36328125 1.38671875 80.36328125 -0.00830078 82.26904297 C-3.07422189 84.35931653 -6.0109953 83.64917696 -9.61328125 83.36328125 C-12.06643803 80.91012447 -11.85920855 79.54661386 -11.89544678 76.19778442 C-11.89296936 75.48033051 -11.89049194 74.76287659 -11.88793945 74.02368164 C-11.89305038 73.26742996 -11.89816132 72.51117828 -11.90342712 71.73200989 C-11.91736006 69.2249059 -11.91636358 66.71807567 -11.9140625 64.2109375 C-11.91794749 62.47220253 -11.92228175 60.7334685 -11.92704773 58.99473572 C-11.93451796 55.34712653 -11.93421294 51.69961411 -11.92895508 48.05200195 C-11.92316025 43.37313503 -11.94008773 38.69466393 -11.96329975 34.01586246 C-11.97801823 30.42396216 -11.97891136 26.83215758 -11.97579002 23.24023247 C-11.97630422 21.5150213 -11.98156029 19.7898049 -11.99160194 18.06462288 C-12.00391238 15.6535774 -11.99720761 13.24330806 -11.9855957 10.83227539 C-11.99323944 10.1168457 -12.00088318 9.40141602 -12.00875854 8.66430664 C-11.97842104 5.82039994 -11.92059281 3.82838211 -10.32910156 1.41973877 C-7.21305916 -0.49885749 -3.55136936 -0.03994671 0 0 Z " fill="#212121" transform="translate(451.61328125,44.63671875)"/>
<path d="M0 0 C1.60186157 -0.01407143 1.60186157 -0.01407143 3.23608398 -0.02842712 C4.95807007 -0.01157616 4.95807007 -0.01157616 6.71484375 0.00561523 C7.89828369 0.00416 9.08172363 0.00270477 10.30102539 0.00120544 C12.80259666 0.0028651 15.30417807 0.01443369 17.80566406 0.03515625 C21.63781037 0.06409922 25.46857278 0.0557677 29.30078125 0.04272461 C31.73047548 0.04896224 34.16016534 0.05735338 36.58984375 0.06811523 C38.31182983 0.06371178 38.31182983 0.06371178 40.06860352 0.05921936 C41.13651123 0.07190353 42.20441895 0.08458771 43.3046875 0.09765625 C44.24304443 0.10305923 45.18140137 0.10846222 46.14819336 0.11402893 C49.13998681 0.57720345 50.52405395 1.36309533 52.65234375 3.50170898 C53.02734375 7.06420898 53.02734375 7.06420898 52.65234375 10.50170898 C50.65234375 12.50170898 50.65234375 12.50170898 48.62753296 12.74221802 C47.79702423 12.73777679 46.9665155 12.73333557 46.11083984 12.72875977 C45.17001556 12.7286087 44.22919128 12.72845764 43.25985718 12.728302 C42.24211212 12.71797943 41.22436707 12.70765686 40.17578125 12.69702148 C39.13539703 12.69419159 38.09501282 12.69136169 37.02310181 12.68844604 C33.69106681 12.67722602 30.35929789 12.65211813 27.02734375 12.62670898 C24.77213929 12.61668154 22.51693063 12.60755528 20.26171875 12.59936523 C14.72507474 12.57897995 9.18900805 12.53983445 3.65234375 12.50170898 C3.65234375 20.42170898 3.65234375 28.34170898 3.65234375 36.50170898 C7.49826172 36.44950195 7.49826172 36.44950195 11.421875 36.39624023 C13.90404141 36.37284663 16.38619555 36.35462897 18.8684082 36.33691406 C20.59405002 36.32182382 22.31965347 36.30134923 24.04516602 36.27539062 C26.52499863 36.23901689 29.00432439 36.2219854 31.484375 36.20874023 C32.2563472 36.19325638 33.0283194 36.17777252 33.82368469 36.16181946 C39.14084961 36.16014729 39.14084961 36.16014729 41.6394043 37.82861328 C43.22926846 40.45462897 43.03347159 42.51620759 42.65234375 45.50170898 C38.86391902 48.02732547 35.86701046 47.75562472 31.484375 47.69702148 C30.29215584 47.69277664 30.29215584 47.69277664 29.07585144 47.68844604 C26.53869537 47.67725603 24.00189303 47.65215389 21.46484375 47.62670898 C19.74414573 47.61667765 18.02344216 47.60755206 16.30273438 47.59936523 C12.08569176 47.57902253 7.86941345 47.53987251 3.65234375 47.50170898 C3.65234375 56.08170898 3.65234375 64.66170898 3.65234375 73.50170898 C7.02195312 73.49010742 10.3915625 73.47850586 13.86328125 73.46655273 C17.1165355 73.45876037 20.36978872 73.45268463 23.62304688 73.44677734 C25.88900211 73.44173972 28.15495408 73.43490946 30.42089844 73.42626953 C33.67253422 73.41417902 36.92412714 73.40847506 40.17578125 73.40405273 C41.70239883 73.39631081 41.70239883 73.39631081 43.25985718 73.38841248 C44.6710936 73.38829918 44.6710936 73.38829918 46.11083984 73.38818359 C47.35660294 73.38485268 47.35660294 73.38485268 48.62753296 73.38145447 C50.65234375 73.50170898 50.65234375 73.50170898 52.65234375 74.50170898 C52.73331178 75.95913361 52.79152149 77.41783705 52.83984375 78.87670898 C52.89205078 80.09487305 52.89205078 80.09487305 52.9453125 81.33764648 C52.84863281 82.05178711 52.75195312 82.76592773 52.65234375 83.50170898 C49.32268545 85.72148118 48.21439345 85.76493999 44.32641602 85.80810547 C42.69441002 85.83208656 42.69441002 85.83208656 41.0294342 85.85655212 C39.85440842 85.86191483 38.67938263 85.86727753 37.46875 85.87280273 C36.26169907 85.88183121 35.05464813 85.89085968 33.8110199 85.90016174 C31.25644416 85.91467925 28.70183112 85.92355469 26.1472168 85.92724609 C22.23357772 85.93915199 18.32150975 85.9883352 14.40820312 86.03881836 C11.92839313 86.04828103 9.44857343 86.05551681 6.96875 86.06030273 C5.79574844 86.07983505 4.62274689 86.09936737 3.41419983 86.11949158 C2.32304367 86.11341385 1.23188751 86.10733612 0.10766602 86.10107422 C-0.85147202 86.10614487 -1.81061005 86.11121552 -2.79881287 86.11643982 C-5.34765625 85.50170898 -5.34765625 85.50170898 -7.65626526 83.43179321 C-9.70859413 79.87643761 -9.91234416 77.01460481 -9.86523438 73.02099609 C-9.87224365 72.28541977 -9.87925293 71.54984344 -9.88647461 70.79197693 C-9.90402072 68.37061351 -9.89244608 65.95042716 -9.87890625 63.52905273 C-9.88160187 61.84184038 -9.88548488 60.15462953 -9.89050293 58.46742249 C-9.89639311 54.93597585 -9.8878497 51.40493459 -9.86914062 47.87353516 C-9.84633351 43.34825662 -9.85948781 38.82392611 -9.88343048 34.29868221 C-9.89788671 30.81650145 -9.89328366 27.3345454 -9.88291931 23.85235786 C-9.88025243 22.18380178 -9.88352046 20.51522524 -9.89283752 18.84669304 C-9.90300263 16.51492144 -9.8875057 14.18468465 -9.86523438 11.85302734 C-9.8733313 11.16460754 -9.88142822 10.47618774 -9.88977051 9.76690674 C-9.83289368 6.55100466 -9.50921704 4.73272082 -7.64953613 2.0736084 C-4.8644871 0.17176418 -3.3538864 0.00059392 0 0 Z " fill="#222222" transform="translate(622.34765625,43.498291015625)"/>
<path d="M0 0 C0.99 0.66 1.98 1.32 3 2 C3.37181091 4.12715149 3.37181091 4.12715149 3.36889648 6.79418945 C3.37922157 8.29264153 3.37922157 8.29264153 3.38975525 9.82136536 C3.38359695 10.9076976 3.37743866 11.99402985 3.37109375 13.11328125 C3.38849846 15.41731902 3.40608255 17.72135545 3.42382812 20.02539062 C3.43384021 23.65440622 3.43751385 27.28332478 3.43579102 30.91235352 C2.66435349 49.54062933 2.66435349 49.54062933 8 67 C14.0066414 72.40803937 18.99569073 73.46868097 26.921875 73.3125 C33.10674696 72.68459422 37.46154212 70.80768801 41.5 66.0625 C43.72735266 61.51498831 44.12362287 57.45345554 44.15771484 52.43115234 C44.17310806 50.7945314 44.17310806 50.7945314 44.18881226 49.12484741 C44.19611359 47.95700714 44.20341492 46.78916687 44.2109375 45.5859375 C44.23898755 43.10936818 44.26765186 40.63280576 44.296875 38.15625 C44.33826004 34.25423237 44.37515219 30.35234614 44.40136719 26.45019531 C44.42886734 22.68267375 44.47471686 18.91573621 44.5234375 15.1484375 C44.52669037 13.97654877 44.52994324 12.80466003 44.53329468 11.59725952 C44.54986115 10.51248322 44.56642761 9.42770691 44.58349609 8.31005859 C44.59158295 7.35473236 44.5996698 6.39940613 44.60800171 5.41513062 C45.0664678 2.59048694 45.73486219 1.69420538 48 0 C49.9375 -0.3984375 49.9375 -0.3984375 52 -0.375 C53.0209375 -0.38660156 53.0209375 -0.38660156 54.0625 -0.3984375 C56.61591776 0.12666051 57.39274363 0.96271789 59 3 C59.38768005 5.23394775 59.38768005 5.23394775 59.40405273 7.87597656 C59.41673691 8.8684137 59.42942108 9.86085083 59.44248962 10.88336182 C59.43955399 11.95825867 59.43661835 13.03315552 59.43359375 14.140625 C59.4388356 15.25499939 59.44407745 16.36937378 59.44947815 17.51751709 C59.45591109 19.88471647 59.454545 22.25194776 59.44604492 24.61914062 C59.43763035 28.19461428 59.46612445 31.76843824 59.49804688 35.34375 C59.5935146 66.02205375 59.5935146 66.02205375 50.640625 76.421875 C41.46252614 85.250332 31.33977027 86.50077538 18.98828125 86.28125 C13.65679512 85.9052784 9.62608771 84.61288288 5 82 C4.01773437 81.45666016 4.01773437 81.45666016 3.015625 80.90234375 C-4.03306131 76.45926157 -7.13804406 69.67068114 -9.38458252 61.88644409 C-10.51588933 56.58036493 -10.42663906 51.2840876 -10.3984375 45.87890625 C-10.40130768 44.65719223 -10.40417786 43.43547821 -10.40713501 42.17674255 C-10.40916535 39.61269666 -10.40370811 37.04863491 -10.39111328 34.48461914 C-10.37494842 30.5499455 -10.39104771 26.616284 -10.41015625 22.68164062 C-10.40817554 20.18489356 -10.40433544 17.68814713 -10.3984375 15.19140625 C-10.40451019 14.01332901 -10.41058289 12.83525177 -10.4168396 11.62147522 C-10.40265488 9.98848732 -10.40265488 9.98848732 -10.38818359 8.32250977 C-10.38579681 7.36449966 -10.38341003 6.40648956 -10.38095093 5.41944885 C-10 3 -10 3 -8.69448853 1.18687439 C-5.88838825 -0.7786087 -3.30657259 -0.2952297 0 0 Z " fill="#252525" transform="translate(351,44)"/>
<path d="M0 0 C0.90363281 -0.01611328 1.80726563 -0.03222656 2.73828125 -0.04882812 C10.68274206 -0.05454356 17.91194973 1.2967671 24.25 6.375 C25.22453125 7.13490234 25.22453125 7.13490234 26.21875 7.91015625 C28.46027288 9.9629795 28.73124831 11.13998446 29.0625 14.1875 C28.75 17.3125 28.75 17.3125 27 19.75 C24.75 21.3125 24.75 21.3125 22.80859375 21.08984375 C20.48081285 20.21085248 19.32014333 19.18212375 17.5625 17.4375 C11.67980301 12.23068735 4.93843331 10.7032405 -2.8203125 10.95703125 C-7.75610353 11.67914859 -11.58590299 13.80441208 -15.25 17.125 C-16.72670499 20.35529216 -16.61936103 22.80357022 -16.25 26.3125 C-14.69329598 30.00121171 -13.67119179 31.11705489 -9.9921875 32.82421875 C-8.70919133 33.23556993 -7.41958801 33.62672951 -6.125 34 C-5.44848389 34.21148682 -4.77196777 34.42297363 -4.07495117 34.64086914 C-0.59869107 35.70559082 2.86388594 36.59187586 6.4375 37.25 C16.14182872 39.24956868 24.10278975 44.19806197 29.75 52.3125 C32.33111719 57.47473438 31.68466635 66.45172214 29.9140625 71.87109375 C25.71300935 79.10310806 19.02528639 83.23747383 11.22949219 85.71264648 C7.06462387 86.72023623 3.01588799 86.74656614 -1.25 86.6875 C-2.08789062 86.69910156 -2.92578125 86.71070313 -3.7890625 86.72265625 C-11.40876905 86.68727062 -18.58142016 85.20856468 -24.625 80.3125 C-25.25148438 79.8175 -25.87796875 79.3225 -26.5234375 78.8125 C-31.18096803 74.76613863 -31.18096803 74.76613863 -31.6875 71.4375 C-31.15452101 67.63050725 -29.94227123 66.00477123 -27.25 63.3125 C-26.59 63.3125 -25.93 63.3125 -25.25 63.3125 C-24.528125 64.22 -23.80625 65.1275 -23.0625 66.0625 C-19.04687389 71.07022197 -13.48551756 73.9006847 -7.25 75.3125 C2.0183222 75.94203898 2.0183222 75.94203898 10.75 73.3125 C13.54245093 70.85432045 13.54245093 70.85432045 15.75 68.3125 C16.08 67.9825 16.41 67.6525 16.75 67.3125 C17.23527013 61.64506681 17.23527013 61.64506681 15.1875 56.5 C9.97825284 51.8250346 3.66771087 50.75725453 -3 49.5 C-11.7682133 47.68638079 -20.08719903 45.14602003 -26.3125 38.3125 C-30.3864483 32.00445101 -31.36479882 25.71436242 -30.25 18.3125 C-27.35868386 10.64996254 -22.43498144 6.01120349 -15.25 2.3125 C-14.54488281 1.93738281 -13.83976562 1.56226563 -13.11328125 1.17578125 C-8.76184803 -0.13617883 -4.51959576 -0.01584711 0 0 Z " fill="#222222" transform="translate(283.25,42.6875)"/>
<path d="M0 0 C1.48162376 -0.01395813 1.48162376 -0.01395813 2.99317932 -0.02819824 C4.5761808 -0.00360535 4.5761808 -0.00360535 6.19116211 0.02148438 C7.28440292 0.02144409 8.37764374 0.02140381 9.50401306 0.0213623 C11.81132772 0.02671606 14.118642 0.04429237 16.42578125 0.07324219 C19.95946885 0.11512726 23.4912523 0.1143072 27.02514648 0.10742188 C29.26799828 0.11791339 31.51084025 0.13085128 33.75366211 0.14648438 C34.81102066 0.14668579 35.86837921 0.14688721 36.95777893 0.14709473 C37.94237595 0.16300659 38.92697296 0.17891846 39.94140625 0.1953125 C40.80568741 0.20373169 41.66996857 0.21215088 42.56044006 0.2208252 C45.44718181 0.70623364 46.83328375 1.56276448 48.90600586 3.61523438 C49.28100586 7.17773438 49.28100586 7.17773438 48.90600586 10.61523438 C46.90600586 12.61523438 46.90600586 12.61523438 44.99508667 12.85574341 C43.82926559 12.84908157 43.82926559 12.84908157 42.63989258 12.84228516 C41.75913055 12.84213409 40.87836853 12.84198303 39.97091675 12.84182739 C39.01879303 12.83150482 38.06666931 12.82118225 37.08569336 12.81054688 C35.62499924 12.80630203 35.62499924 12.80630203 34.13479614 12.80197144 C31.01674237 12.7907535 27.89897318 12.76564607 24.78100586 12.74023438 C22.67033292 12.73020666 20.55965548 12.72108045 18.44897461 12.71289062 C13.2677865 12.6925083 8.08721568 12.65336266 2.90600586 12.61523438 C2.90600586 21.85523438 2.90600586 31.09523438 2.90600586 40.61523438 C6.55276367 40.58042969 6.55276367 40.58042969 10.27319336 40.54492188 C12.62296018 40.52933277 14.97272129 40.51718382 17.32250977 40.50537109 C18.95795258 40.49530183 20.59337735 40.48164557 22.22875977 40.46435547 C24.57694956 40.44014733 26.92490173 40.4287608 29.27319336 40.41992188 C30.00657928 40.4095993 30.73996521 40.39927673 31.49557495 40.38864136 C33.30063283 40.38824069 35.10508416 40.49310683 36.90600586 40.61523438 C37.56600586 41.27523437 38.22600586 41.93523437 38.90600586 42.61523438 C38.32908278 49.19215745 38.32908278 49.19215745 36.90600586 50.61523438 C34.45770159 50.70367231 32.03779987 50.73052189 29.58959961 50.71289062 C28.85854507 50.71147568 28.12749054 50.71006073 27.37428284 50.70860291 C25.03064954 50.70298846 22.68711047 50.69043359 20.34350586 50.67773438 C18.75822078 50.67272123 17.1729342 50.668158 15.58764648 50.6640625 C11.69372976 50.65301434 7.7998838 50.63574009 3.90600586 50.61523438 C3.92695312 51.53336914 3.94790039 52.45150391 3.96948242 53.39746094 C4.03775169 56.81178866 4.08784971 60.2253888 4.12573242 63.64013672 C4.14581886 65.11649028 4.17309387 66.59276456 4.20776367 68.06884766 C4.2564177 70.193884 4.27900259 72.31786672 4.29663086 74.44335938 C4.31757812 75.72114258 4.33852539 76.99892578 4.36010742 78.31542969 C3.90600586 81.61523438 3.90600586 81.61523438 2.10424805 84.02832031 C-0.09399414 85.61523438 -0.09399414 85.61523438 -3.65649414 86.17773438 C-7.09399414 85.61523438 -7.09399414 85.61523438 -8.78259277 83.54089355 C-10.40568514 79.91987013 -10.48834584 77.20923572 -10.51391602 73.2421875 C-10.52238556 72.51797104 -10.5308551 71.79375458 -10.5395813 71.04759216 C-10.56290027 68.66370891 -10.56397487 66.28047284 -10.56274414 63.89648438 C-10.56984783 62.23408756 -10.57754714 60.57169319 -10.58581543 58.90930176 C-10.59924774 55.4292112 -10.60083423 51.94934748 -10.5949707 48.46923828 C-10.58906968 44.0134553 -10.6196876 39.55876007 -10.66008759 35.10318756 C-10.68595546 31.67159174 -10.68884299 28.24025837 -10.68519592 24.80857849 C-10.68688743 23.16594199 -10.69653303 21.52329341 -10.71434021 19.88075256 C-10.73651848 17.58252366 -10.7268377 15.28650363 -10.70922852 12.98828125 C-10.71128296 11.68209839 -10.7133374 10.37591553 -10.7154541 9.03015137 C-9.61590731 2.98815149 -6.09602826 -0.01447726 0 0 Z " fill="#232323" transform="translate(539.093994140625,43.384765625)"/>
<path d="M0 0 C12.08333346 -0.0696684 24.16661873 -0.1228967 36.25011253 -0.15543652 C41.86163835 -0.17105804 47.47302621 -0.19223205 53.08447266 -0.22631836 C58.50503511 -0.25903718 63.9254653 -0.27687942 69.34611893 -0.28463173 C71.40886134 -0.2901528 73.47159694 -0.30093388 75.53428268 -0.31719017 C78.43495794 -0.33913093 81.33509429 -0.34195999 84.23583984 -0.34057617 C85.07885651 -0.351362 85.92187317 -0.36214783 86.79043579 -0.3732605 C97.8238935 -0.31671372 106.87631717 3.37250491 114.9765625 10.81640625 C120.71729997 16.86250209 124.21027474 23.69000212 124.25 32.125 C124.1675 33.40375 124.085 34.6825 124 36 C119.05 36 114.1 36 109 36 C108.773125 34.824375 108.54625 33.64875 108.3125 32.4375 C106.79771156 26.49405923 104.15930879 22.65780962 99.31103516 18.93554688 C93.49914368 15.69637747 86.78282643 16.3945181 80.31640625 16.390625 C78.89149612 16.3756272 77.46660328 16.3588967 76.04173279 16.34051514 C72.31160642 16.29700796 68.58171448 16.27687993 64.85137939 16.26177979 C61.03684726 16.24214818 57.22256609 16.20018525 53.40820312 16.16015625 C45.93886983 16.08503475 38.46964247 16.03463461 31 16 C31.99 15.34 32.98 14.68 34 14 C33.505 13.1028125 33.505 13.1028125 33 12.1875 C31.84625615 9.66368532 32 7.73104914 32 5 C32.66 5 33.32 5 34 5 C34 4.34 34 3.68 34 3 C34.66 2.67 35.32 2.34 36 2 C24.12 1.67 12.24 1.34 0 1 C0 0.67 0 0.34 0 0 Z " fill="#F7C78B" transform="translate(70,9)"/>
<path d="M0 0 C1.56125851 0.00399299 3.12251789 0.01875614 4.68359375 0.04296875 C5.47701172 0.04361328 6.27042969 0.04425781 7.08789062 0.04492188 C12.98083853 0.09021353 12.98083853 0.09021353 14.12109375 1.23046875 C14.22061668 3.37247199 14.24909054 5.5177958 14.25048828 7.66210938 C14.2522406 8.33364548 14.25399292 9.00518158 14.25579834 9.69706726 C14.26021605 11.92697703 14.25727917 14.15680811 14.25390625 16.38671875 C14.25457931 17.92989111 14.25554936 19.47306336 14.25680542 21.01623535 C14.25828228 24.25448615 14.25612822 27.49270942 14.25146484 30.73095703 C14.24576755 34.89089398 14.24904662 39.05076641 14.25503731 43.21070099 C14.25864324 46.39846283 14.25750419 49.58620926 14.25490952 52.77397156 C14.25424033 54.30824287 14.25506836 55.84251557 14.25738907 57.37678528 C14.25991613 59.51750416 14.25607429 61.65811717 14.25048828 63.79882812 C14.24969269 65.0193689 14.24889709 66.23990967 14.24807739 67.49743652 C14.12109375 70.23046875 14.12109375 70.23046875 13.12109375 71.23046875 C10.29692993 71.35709966 7.50814582 71.41567423 4.68359375 71.41796875 C3.89404297 71.43021484 3.10449219 71.44246094 2.29101562 71.45507812 C0.2330194 71.46034154 -1.82452634 71.3525316 -3.87890625 71.23046875 C-6.6598251 68.4495499 -6.13244224 66.7796165 -6.13769531 62.88476562 C-6.14119995 62.23419693 -6.14470459 61.58362823 -6.14831543 60.91334534 C-6.15713254 58.75852858 -6.15128388 56.60403897 -6.14453125 54.44921875 C-6.14587791 52.95471127 -6.14781845 51.46020422 -6.15032959 49.96569824 C-6.15328082 46.83174473 -6.14898332 43.69790513 -6.13964844 40.56396484 C-6.12825382 36.54196862 -6.13481331 32.5202393 -6.14679337 28.49825287 C-6.15401205 25.41166158 -6.15172402 22.32513382 -6.14653778 19.23854065 C-6.1452013 17.75533517 -6.14684894 16.27212397 -6.15149689 14.78892517 C-6.15656237 12.71785144 -6.14885209 10.64721309 -6.13769531 8.57617188 C-6.13610413 7.39639771 -6.13451294 6.21662354 -6.13287354 5.00109863 C-5.71579631 0.45103764 -4.46086818 0.26504655 0 0 Z " fill="#F3A48D" transform="translate(132.87890625,50.76953125)"/>
<path d="M0 0 C4.13539405 3.85224995 7.22275174 7.96819563 10.3125 12.6875 C10.9940918 13.70166992 10.9940918 13.70166992 11.68945312 14.73632812 C15 19.73948543 15 19.73948543 15 22 C12.69 22 10.38 22 8 22 C8.00888245 22.70664291 8.01776489 23.41328583 8.0269165 24.14134216 C8.10740689 30.83430605 8.16813798 37.52713284 8.20724869 44.22047329 C8.22803277 47.66078449 8.25617889 51.10069235 8.30175781 54.54077148 C8.35394646 58.50499472 8.37302121 62.46906048 8.390625 66.43359375 C8.41127014 67.65582138 8.43191528 68.87804901 8.45318604 70.13731384 C8.45507183 77.38107951 7.57834728 82.67919022 4 89 C3.484375 90.010625 2.96875 91.02125 2.4375 92.0625 C1.963125 92.701875 1.48875 93.34125 1 94 C0.01 94 -0.98 94 -2 94 C-2.99 94.99 -2.99 94.99 -4 96 C-4.34274406 94.33524314 -4.67364302 92.66804677 -5 91 C-5.226875 90.01 -5.45375 89.02 -5.6875 88 C-6.03424631 84.67123545 -5.47895661 82.95791322 -4 80 C-5.65 79.67 -7.3 79.34 -9 79 C-8.67 60.52 -8.34 42.04 -8 23 C-10.31 23 -12.62 23 -15 23 C-13.4441739 18.3676816 -10.92381299 14.83103269 -8.0625 10.9375 C-7.61970703 10.32583984 -7.17691406 9.71417969 -6.72070312 9.08398438 C-4.50871761 6.03467498 -2.2710867 3.00562959 0 0 Z " fill="#F6C18A" transform="translate(186,56)"/>
<path d="M0 0 C5.28 0 10.56 0 16 0 C16.37125 1.340625 16.7425 2.68125 17.125 4.0625 C19.13363319 10.05067876 22.16173975 14.3015031 27.6105957 17.56225586 C31.4977444 19.21113713 34.87286503 19.47450769 39.0234375 19.51171875 C40.14270126 19.53864555 40.14270126 19.53864555 41.28457642 19.56611633 C43.6479949 19.61993105 46.01121486 19.65402067 48.375 19.6875 C49.98570454 19.72069872 51.59638298 19.75519072 53.20703125 19.79101562 C57.13787687 19.87564018 61.06866659 19.94258743 65 20 C64.67 20.66 64.34 21.32 64 22 C62.02 22 60.04 22 58 22 C56.64147632 25.66801395 57.52357195 27.49348338 59 31 C58.67 31.66 58.34 32.32 58 33 C64.6 33.33 71.2 33.66 78 34 C78 34.33 78 34.66 78 35 C70.77769954 35.12743604 63.55569214 35.2146172 56.33251953 35.2746582 C53.87863327 35.29970445 51.42482087 35.33375133 48.97119141 35.37719727 C45.431129 35.43828239 41.8920583 35.46631012 38.3515625 35.48828125 C36.722827 35.52699089 36.722827 35.52699089 35.06118774 35.56648254 C24.94014522 35.57015665 17.23023975 31.94477645 9.8203125 25.08984375 C3.5892018 17.93610078 0 9.41115038 0 0 Z " fill="#ED6E8B" transform="translate(39,128)"/>
<path d="M0 0 C6.001875 -0.0928125 6.001875 -0.0928125 12.125 -0.1875 C13.37555176 -0.21481201 14.62610352 -0.24212402 15.91455078 -0.27026367 C23.5241334 -0.32727118 28.05284803 0.37319063 33.875 5.5625 C36.55862575 9.03389976 36.58820758 12.324056 36.36328125 16.59765625 C35.66683173 21.2032095 33.71487898 25.14240079 30 28 C26.20778761 29.81325148 23.22906713 30.23824684 19.04296875 30.1953125 C18.04031982 30.19031738 17.0376709 30.18532227 16.00463867 30.18017578 C14.11515503 30.15286377 14.11515503 30.15286377 12.1875 30.125 C6.1546875 30.063125 6.1546875 30.063125 0 30 C0 20.1 0 10.2 0 0 Z " fill="#FBFBFB" transform="translate(452,55)"/>
<path d="M0 0 C3.815625 -0.061875 7.63125 -0.12375 11.5625 -0.1875 C13.34636108 -0.22846802 13.34636108 -0.22846802 15.16625977 -0.27026367 C22.93307779 -0.33106964 27.87603322 0.34130487 33.9375 5.5 C36.69983612 9.15872333 36.63947937 12.92619955 36.421875 17.375 C35.63315521 22.28258983 33.43866908 24.95696492 29.5 27.8125 C25.44065392 29.74068939 22.0596923 30.12255385 17.578125 30.09765625 C16.65418945 30.09515869 15.73025391 30.09266113 14.77832031 30.09008789 C13.61397461 30.08098389 12.44962891 30.07187988 11.25 30.0625 C7.5375 30.041875 3.825 30.02125 0 30 C0 20.1 0 10.2 0 0 Z " fill="#FAFAFA" transform="translate(715,55)"/>
<path d="M0 0 C0.804375 -0.00128906 1.60875 -0.00257812 2.4375 -0.00390625 C3.283125 -0.00003906 4.12875 0.00382812 5 0.0078125 C6.2684375 0.00201172 6.2684375 0.00201172 7.5625 -0.00390625 C8.366875 -0.00261719 9.17125 -0.00132813 10 0 C10.7425 0.00112793 11.485 0.00225586 12.25 0.00341797 C14 0.1328125 14 0.1328125 15 1.1328125 C15.09804851 2.5395647 15.12798186 3.95116386 15.12939453 5.36132812 C15.13254669 6.25895874 15.13569885 7.15658936 15.13894653 8.0814209 C15.1369223 9.05744263 15.13489807 10.03346436 15.1328125 11.0390625 C15.13424759 12.5316156 15.13424759 12.5316156 15.13571167 14.05432129 C15.1363936 16.16267968 15.13453844 18.27104015 15.13037109 20.37939453 C15.12502303 23.61886277 15.13031567 26.85819235 15.13671875 30.09765625 C15.13605797 32.14062531 15.13477681 34.18359428 15.1328125 36.2265625 C15.13483673 37.20258423 15.13686096 38.17860596 15.13894653 39.1842041 C15.13579437 40.08183472 15.13264221 40.97946533 15.12939453 41.90429688 C15.12859894 42.69848022 15.12780334 43.49266357 15.12698364 44.31091309 C15 46.1328125 15 46.1328125 14 47.1328125 C11.17583618 47.25944341 8.38705207 47.31801798 5.5625 47.3203125 C4.77294922 47.33255859 3.98339844 47.34480469 3.16992188 47.35742188 C1.11192565 47.36268529 -0.94562009 47.25487535 -3 47.1328125 C-5 45.1328125 -5 45.1328125 -5.24723816 43.22862244 C-5.24581314 42.45442459 -5.24438812 41.68022675 -5.24291992 40.88256836 C-5.24599655 40.00503403 -5.24907318 39.12749969 -5.25224304 38.22337341 C-5.24505753 37.27438675 -5.23787201 36.32540009 -5.23046875 35.34765625 C-5.23001053 34.37623184 -5.22955231 33.40480743 -5.2290802 32.40394592 C-5.22605624 30.34863057 -5.21816566 28.29331755 -5.20581055 26.23803711 C-5.18755503 23.07983345 -5.18530081 19.92192277 -5.18554688 16.76367188 C-5.18063182 14.77083078 -5.17480355 12.77799168 -5.16796875 10.78515625 C-5.16685593 9.83414536 -5.1657431 8.88313446 -5.16459656 7.90330505 C-5.15821671 7.02892288 -5.15183685 6.15454071 -5.14526367 5.25366211 C-5.14145187 4.48025986 -5.13764008 3.7068576 -5.13371277 2.91001892 C-4.87530931 -0.52447948 -2.97548295 0.00452005 0 0 Z " fill="#EF858C" transform="translate(91,74.8671875)"/>
<path d="M0 0 C1.44371475 0.01061211 1.44371475 0.01061211 2.91659546 0.0214386 C5.95304267 0.0491482 8.98755959 0.11184009 12.0234375 0.17578125 C14.09762938 0.20089449 16.17185053 0.22370231 18.24609375 0.24414062 C23.29760454 0.29889766 28.34769523 0.38500383 33.3984375 0.48828125 C30.3984375 2.48828125 30.3984375 2.48828125 28.3984375 2.48828125 C28.3984375 3.14828125 28.3984375 3.80828125 28.3984375 4.48828125 C27.7384375 4.48828125 27.0784375 4.48828125 26.3984375 4.48828125 C26.7284375 5.25140625 27.0584375 6.01453125 27.3984375 6.80078125 C28.3984375 9.48828125 28.3984375 9.48828125 28.3984375 12.48828125 C30.3784375 12.81828125 32.3584375 13.14828125 34.3984375 13.48828125 C34.3984375 13.81828125 34.3984375 14.14828125 34.3984375 14.48828125 C28.89866354 15.23297872 23.49965895 15.58099111 17.94921875 15.69921875 C17.28356903 15.71349915 16.61791931 15.72777954 15.93209839 15.74249268 C13.15523705 15.80024842 10.37857431 15.85493676 7.60131836 15.88964844 C5.55014356 15.91737025 3.49999291 15.96318027 1.44921875 16.01171875 C-0.36582153 16.04144775 -0.36582153 16.04144775 -2.2175293 16.07177734 C-5.92596228 16.5282081 -8.33907592 17.72388409 -11.6015625 19.48828125 C-15.71256909 19.89938191 -18.020568 19.41710018 -21.6015625 17.48828125 C-21.49328125 16.44027344 -21.49328125 16.44027344 -21.3828125 15.37109375 C-21.29 14.46101563 -21.1971875 13.5509375 -21.1015625 12.61328125 C-21.00875 11.70835938 -20.9159375 10.8034375 -20.8203125 9.87109375 C-20.57108955 7.55514914 -20.57108955 7.55514914 -20.6015625 5.48828125 C-13.56832507 1.31596663 -8.13974431 -0.23062144 0 0 Z " fill="#EF898B" transform="translate(75.6015625,9.51171875)"/>
<path d="M0 0 C44.69492764 -0.18994248 44.69492764 -0.18994248 60 0.4375 C60.97445068 0.47673584 61.94890137 0.51597168 62.95288086 0.55639648 C71.52497385 0.96444221 71.52497385 0.96444221 75 2 C76.51112942 4.26669413 77.13439847 6.4031954 78 9 C77.34 9 76.68 9 76 9 C77.39759905 12.54518884 77.39759905 12.54518884 79 16 C63.16 16 47.32 16 31 16 C31.99 15.34 32.98 14.68 34 14 C33.505 13.1028125 33.505 13.1028125 33 12.1875 C31.84625615 9.66368532 32 7.73104914 32 5 C32.66 5 33.32 5 34 5 C34 4.34 34 3.68 34 3 C34.66 2.67 35.32 2.34 36 2 C24.12 1.67 12.24 1.34 0 1 C0 0.67 0 0.34 0 0 Z " fill="#F3A68B" transform="translate(70,9)"/>
<path d="M0 0 C0.81134903 0.0028299 1.62269806 0.00565979 2.45863342 0.00857544 C5.02596378 0.01968587 7.59293303 0.04477279 10.16015625 0.0703125 C11.91080222 0.08035414 13.66145371 0.08947791 15.41210938 0.09765625 C19.68242879 0.11959516 23.9524815 0.1540609 28.22265625 0.1953125 C28.37347656 0.80503906 28.52429688 1.41476563 28.6796875 2.04296875 C29.06713567 3.57882444 29.48017082 5.10831871 29.91015625 6.6328125 C30.22265625 9.1953125 30.22265625 9.1953125 28.22265625 14.1953125 C32.51265625 14.1953125 36.80265625 14.1953125 41.22265625 14.1953125 C41.22265625 14.5253125 41.22265625 14.8553125 41.22265625 15.1953125 C1.17673763 15.40170203 1.17673763 15.40170203 -15.77734375 14.1953125 C-15.77734375 13.2053125 -15.77734375 12.2153125 -15.77734375 11.1953125 C-16.14859375 10.2053125 -16.51984375 9.2153125 -16.90234375 8.1953125 C-17.19109375 7.2053125 -17.47984375 6.2153125 -17.77734375 5.1953125 C-15.596316 1.92377088 -14.50992245 1.47091878 -10.80880737 0.54840088 C-7.20579788 -0.07783764 -3.64752218 -0.04869602 0 0 Z " fill="#EF868B" transform="translate(112.77734375,147.8046875)"/>
<path d="M0 0 C5.28 0 10.56 0 16 0 C16.37125 1.32 16.7425 2.64 17.125 4 C18.80662788 9.1261217 21.55255509 12.90546187 25 17 C23.35 17 21.7 17 20 17 C20 18.65 20 20.3 20 22 C20.66 21.67 21.32 21.34 22 21 C22.12375 21.78375 22.2475 22.5675 22.375 23.375 C22.79117993 26.14057822 22.79117993 26.14057822 25 28 C24.01 28.99 23.02 29.98 22 31 C21.67 29.68 21.34 28.36 21 27 C20.34 27 19.68 27 19 27 C19.33 28.32 19.66 29.64 20 31 C12.66928108 28.77857003 8.33461743 24.03812515 4.6875 17.5 C1.53900725 11.29537029 0 7.07797939 0 0 Z " fill="#EB5F8B" transform="translate(39,128)"/>
<path d="M0 0 C6.88679212 -0.02537091 13.77357217 -0.04287571 20.66040039 -0.05493164 C23.00285289 -0.05995801 25.34530225 -0.06678008 27.68774414 -0.07543945 C31.05616022 -0.08757918 34.42453478 -0.09324531 37.79296875 -0.09765625 C38.83897751 -0.10281754 39.88498627 -0.10797882 40.96269226 -0.11329651 C42.43365105 -0.11340981 42.43365105 -0.11340981 43.93432617 -0.11352539 C44.79370285 -0.115746 45.65307953 -0.11796661 46.53849792 -0.12025452 C49.11099661 0.00542264 51.49067271 0.43351574 54 1 C53.67 2.32 53.34 3.64 53 5 C53.99 5.66 54.98 6.32 56 7 C55.34 7 54.68 7 54 7 C54.5198972 9.33953739 55.15709185 11.35782032 56.125 13.5625 C57 16 57 16 56 19 C55.17886719 18.67773438 54.35773438 18.35546875 53.51171875 18.0234375 C48.899984 16.67941692 44.41998423 16.64391194 39.65820312 16.609375 C34.45522419 16.43316875 34.45522419 16.43316875 31.984375 14.08203125 C30.76027777 11.49296846 31.26617735 10.69068304 32 8 C31.50845917 5.27102833 31.50845917 5.27102833 30 3 C26.37768673 1.9776663 22.79072954 1.81812875 19.04296875 1.68359375 C17.93115234 1.64169922 16.81933594 1.59980469 15.67382812 1.55664062 C14.52333984 1.51732422 13.37285156 1.47800781 12.1875 1.4375 C11.01767578 1.39431641 9.84785156 1.35113281 8.64257812 1.30664062 C5.76182969 1.20081721 2.88099877 1.09873175 0 1 C0 0.67 0 0.34 0 0 Z " fill="#F5BA8D" transform="translate(115,9)"/>
<path d="M0 0 C0.9583374 0.00523682 1.9166748 0.01047363 2.90405273 0.01586914 C4.45576172 0.02070313 4.45576172 0.02070313 6.03881836 0.02563477 C7.12743164 0.03401367 8.21604492 0.04239258 9.33764648 0.05102539 C10.97636719 0.05779297 10.97636719 0.05779297 12.64819336 0.06469727 C15.35723144 0.07652713 18.06616248 0.09300996 20.77514648 0.11352539 C20.11514648 0.44352539 19.45514648 0.77352539 18.77514648 1.11352539 C18.44514648 2.10352539 18.11514648 3.09352539 17.77514648 4.11352539 C17.44514648 4.77352539 17.11514648 5.43352539 16.77514648 6.11352539 C17.76514648 7.10352539 17.76514648 7.10352539 18.77514648 8.11352539 C18.77514648 9.78019206 18.77514648 11.44685872 18.77514648 13.11352539 C19.76514648 14.10352539 19.76514648 14.10352539 20.77514648 15.11352539 C18.89725976 16.99141212 16.18348739 16.23361127 13.68536377 16.23794556 C12.80998962 16.23435028 11.93461548 16.230755 11.03271484 16.22705078 C9.65724236 16.22726982 9.65724236 16.22726982 8.25398254 16.22749329 C5.20762813 16.22679379 2.16133403 16.21899967 -0.88500977 16.21118164 C-2.99108344 16.20931759 -5.09715755 16.20789363 -7.20323181 16.20689392 C-12.75828235 16.2030677 -18.31330692 16.19323653 -23.86834717 16.18218994 C-29.53210092 16.17197806 -35.19585885 16.16739678 -40.85961914 16.16235352 C-51.98137537 16.15161435 -63.10311229 16.13453669 -74.22485352 16.11352539 C-74.22485352 15.78352539 -74.22485352 15.45352539 -74.22485352 15.11352539 C-38.58485352 14.61852539 -38.58485352 14.61852539 -2.22485352 14.11352539 C-0.97399285 6.88366689 -0.97399285 6.88366689 -3.22485352 1.11352539 C-2.22485352 0.11352539 -2.22485352 0.11352539 0 0 Z " fill="#F3A694" transform="translate(143.224853515625,147.886474609375)"/>
<path d="M0 0 C0 0.33 0 0.66 0 1 C-2.31 1 -4.62 1 -7 1 C-8.25664978 3.90600261 -9 5.79604584 -9 9 C-7.0624994 11.18777466 -7.0624994 11.18777466 -5 13 C-7.83584778 14.49904082 -10.63061686 15.59743441 -13.6875 16.5625 C-16.60083039 17.3454921 -16.60083039 17.3454921 -19 19 C-23.0379986 19.26919991 -25.48077851 18.93137318 -29 17 C-28.89171875 15.95199219 -28.89171875 15.95199219 -28.78125 14.8828125 C-28.6884375 13.97273438 -28.595625 13.06265625 -28.5 12.125 C-28.4071875 11.22007813 -28.314375 10.31515625 -28.21875 9.3828125 C-27.96952705 7.06686789 -27.96952705 7.06686789 -28 5 C-19.14988515 -1.22621145 -10.32828357 -0.50628841 0 0 Z " fill="#EE798C" transform="translate(83,10)"/>
<path d="M0 0 C1.58206057 0.00667536 3.16410534 0.0186375 4.74609375 0.03515625 C5.55240234 0.03966797 6.35871094 0.04417969 7.18945312 0.04882812 C9.18753131 0.06065107 11.18557158 0.07858711 13.18359375 0.09765625 C13.33441406 0.70738281 13.48523438 1.31710938 13.640625 1.9453125 C14.02807317 3.48116819 14.44110832 5.01066246 14.87109375 6.53515625 C15.18359375 9.09765625 15.18359375 9.09765625 13.18359375 14.09765625 C17.47359375 14.09765625 21.76359375 14.09765625 26.18359375 14.09765625 C26.18359375 14.42765625 26.18359375 14.75765625 26.18359375 15.09765625 C22.2511429 15.22134216 18.31944577 15.31202961 14.38549805 15.37231445 C12.3900582 15.40979999 10.39516323 15.4733316 8.40039062 15.53710938 C7.14677734 15.55322266 5.89316406 15.56933594 4.6015625 15.5859375 C3.44422607 15.61212158 2.28688965 15.63830566 1.09448242 15.6652832 C-1.81640625 15.09765625 -1.81640625 15.09765625 -3.7409668 12.72729492 C-5.0159828 9.60965648 -4.63663633 8.29655356 -3.81640625 5.09765625 C-4.11454865 3.75601546 -4.43883817 2.41914452 -4.81640625 1.09765625 C-3.81640625 0.09765625 -3.81640625 0.09765625 0 0 Z M-2.81640625 1.09765625 C-1.81640625 3.09765625 -1.81640625 3.09765625 -1.81640625 3.09765625 Z " fill="#F1958A" transform="translate(127.81640625,147.90234375)"/>
<path d="M0 0 C6.20727249 -0.02489804 12.41451528 -0.04295304 18.62182617 -0.05493164 C20.72925321 -0.05993051 22.83667682 -0.06673181 24.9440918 -0.07543945 C27.99008024 -0.08770131 31.03602245 -0.09327292 34.08203125 -0.09765625 C35.47335014 -0.10539818 35.47335014 -0.10539818 36.89277649 -0.11329651 C43.3109638 -0.11383508 49.61874248 0.32061834 56 1 C56 1.33 56 1.66 56 2 C51.545 2.495 51.545 2.495 47 3 C47 3.68707031 47 4.37414062 47 5.08203125 C47 8.72135417 47 12.36067708 47 16 C41.72 16 36.44 16 31 16 C31.99 15.34 32.98 14.68 34 14 C33.505 13.1028125 33.505 13.1028125 33 12.1875 C31.84625615 9.66368532 32 7.73104914 32 5 C32.66 5 33.32 5 34 5 C34 4.34 34 3.68 34 3 C34.66 2.67 35.32 2.34 36 2 C24.12 1.67 12.24 1.34 0 1 C0 0.67 0 0.34 0 0 Z " fill="#F19A90" transform="translate(70,9)"/>
<path d="M0 0 C0.33 0 0.66 0 1 0 C1.04898438 0.96421875 1.09796875 1.9284375 1.1484375 2.921875 C1.22320312 4.18515625 1.29796875 5.4484375 1.375 6.75 C1.47941406 8.62945312 1.47941406 8.62945312 1.5859375 10.546875 C1.95919473 13.65969947 2.44082612 15.36093137 4 18 C5.04071254 21.68979899 4.9531641 24.2932507 4 28 C3.67 27.34 3.34 26.68 3 26 C2.34 26 1.68 26 1 26 C1.77479736 28.99152582 1.77479736 28.99152582 3 32 C3.99 32.33 4.98 32.66 6 33 C6 36.20395416 5.25664978 38.09399739 4 41 C4.99 41.33 5.98 41.66 7 42 C7 42.66 7 43.32 7 44 C6.34 44.66 5.68 45.32 5 46 C5.309375 46.53625 5.61875 47.0725 5.9375 47.625 C7.17827439 50.3984957 7.5909675 53.00042837 8 56 C5.36 56 2.72 56 0 56 C0 37.52 0 19.04 0 0 Z " fill="#F19889" transform="translate(128,65)"/>
<path d="M0 0 C0.33 0 0.66 0 1 0 C1.02505615 0.60996826 1.0501123 1.21993652 1.07592773 1.84838867 C1.1924058 4.62827898 1.31489632 7.4078734 1.4375 10.1875 C1.47681641 11.14720703 1.51613281 12.10691406 1.55664062 13.09570312 C1.59853516 14.02705078 1.64042969 14.95839844 1.68359375 15.91796875 C1.72025146 16.77156982 1.75690918 17.6251709 1.79467773 18.50463867 C2.18547943 23.25420367 3.4338901 27.51048496 5 32 C4.34 32.66 3.68 33.32 3 34 C3.96776098 37.79547921 3.96776098 37.79547921 6 41 C8.32548007 41.69356423 10.65880445 42.36149212 13 43 C13 43.33 13 43.66 13 44 C8.71 44 4.42 44 0 44 C0 29.48 0 14.96 0 0 Z " fill="#ED7789" transform="translate(87,77)"/>
<path d="M0 0 C2.4375 0.375 2.4375 0.375 5 1 C6 3 6 3 6 6 C5.67 6.99 5.34 7.98 5 9 C4.88486168 10.67150987 4.82363216 12.3469963 4.79467773 14.0222168 C4.77473251 15.04304855 4.75478729 16.06388031 4.73423767 17.11564636 C4.70916893 18.76576469 4.70916893 18.76576469 4.68359375 20.44921875 C4.66281265 21.5769722 4.64203156 22.70472565 4.62062073 23.86665344 C4.55517153 27.4735396 4.49626156 31.08049929 4.4375 34.6875 C4.39431039 37.13086702 4.35069596 39.57422656 4.30664062 42.01757812 C4.19949484 48.01164074 4.09771971 54.00577671 4 60 C3.67 60 3.34 60 3 60 C3 42.84 3 25.68 3 8 C0.69 8 -1.62 8 -4 8 C-2.87548273 5.0280615 -1.77706209 2.66559313 0 0 Z " fill="#F8CBA3" transform="translate(175,71)"/>
</svg>
