<svg width="52" height="51" viewBox="0 0 52 51" fill="none" xmlns="http://www.w3.org/2000/svg">
<g clip-path="url(#clip0_5673_8368)">
<path d="M25.1735 2.3556V4.72081H20.9443V6.25916H25.1735V10.9704H26.8267V6.25916H31.1616V4.72081H26.8267V0H25.1735V2.3556Z" fill="#7099A6"/>
<path d="M11.3516 8.35517V11.7876H4.9502V13.9413H11.3516V20.912H13.7257V13.9413H20.2233V11.7876H13.7257V4.92273H11.3516V8.35517Z" fill="#EB912C"/>
<path d="M38.1778 8.35517V11.7876H31.7764V14.0471H38.1778V20.912H40.648V14.0471H47.0494V11.7876H40.648V4.92273H38.1778V8.35517Z" fill="#59879B"/>
<path d="M24.5579 20.0467V23.8926H17.4355V26.7577H24.5579V34.4495H27.4414V26.7577H34.5637V23.8926H27.4414V16.2008H24.5579V20.0467Z" fill="#E8762C"/>
<path d="M45.5019 21.9888V24.402H41.167V26.3538H45.5019V31.1708H47.6645V26.3538H51.9994V24.402H47.6645V19.5851H45.5019V21.9888Z" fill="#5B6591"/>
<path d="M4.22917 22.2003V24.5079H0V26.1424H4.22917V30.7574H5.88239V26.1424L10.2173 25.9885V24.5079H5.88239V19.8928H4.22917V22.2003Z" fill="#7099A6"/>
<path d="M11.3516 33.0649V36.4973H4.9502V38.7568H11.3516V45.6217H13.8218V38.7568H20.2233V36.4973H13.8218V29.6324H11.3516V33.0649Z" fill="#C72035"/>
<path d="M38.1778 33.0649V36.4973H31.7764V38.651H38.1778V45.6217H40.648V38.651H47.0494V36.4973H40.648V29.6324H38.1778V33.0649Z" fill="#1F447E"/>
<path d="M24.9716 41.7855V44.1892H20.6367V46.1409H24.9716V50.9579H27.1343V46.1409H31.4692V44.1892H27.1343V39.3722H24.9716V41.7855Z" fill="#5B6591"/>
</g>
<defs>
<clipPath id="clip0_5673_8368">
<rect width="52" height="51" fill="white"/>
</clipPath>
</defs>
</svg>
