<svg width="42" height="46" viewBox="0 0 42 46" fill="none" xmlns="http://www.w3.org/2000/svg">
<g clip-path="url(#clip0_5673_7050)">
<path d="M23.9082 7.06201V14.1248L35.8619 21.1876V14.1248L23.9082 7.06201ZM0 14.1248V21.1876L5.97687 24.7182V17.6562L0 14.1248ZM17.9306 17.6562L11.9537 21.1876V42.3744L17.9306 45.9058V31.781L23.9082 35.3124V28.2496L17.9306 24.7182V17.6562Z" fill="#E55B2D"/>
<path d="M23.9079 7.06201L5.97656 17.6562V24.7182L17.9303 17.6562V24.7182L23.9079 21.1876V7.06201ZM41.8392 10.5934L35.8616 14.1248V21.1876L41.8392 17.6562V10.5934ZM29.8847 24.7182L23.9079 28.2496V35.3124L29.8847 31.781V24.7182ZM23.9079 35.3124L17.9303 31.781V45.9058L23.9079 42.3744V35.3124Z" fill="#ED8E24"/>
<path d="M23.9082 0L0 14.1248L5.97687 17.6562L23.9082 7.06205L35.8619 14.1248L41.8395 10.5934L23.9082 0ZM23.9082 21.1876L17.9306 24.7182L23.9082 28.2496L29.8851 24.7182L23.9082 21.1876Z" fill="#F8BF3C"/>
</g>
<defs>
<clipPath id="clip0_5673_7050">
<rect width="42" height="46" fill="white"/>
</clipPath>
</defs>
</svg>
