<svg clip-rule="evenodd" fill-rule="evenodd" height="512" stroke-linejoin="round" stroke-miterlimit="2" viewBox="0 0 267 267" width="512" xmlns="http://www.w3.org/2000/svg"><path d="m198.012 25.184.071.209-.658-.107c-.569-.189-1.04-.618-1.273-1.193.109.268.168.562.168.869l.826 39.151c.013.598.282 1.162.739 1.548.456.386 1.057.557 1.649.469l19.648-2.903c6.257-.925 12.633-.658 18.792.786l.008.002c3.413.8 7.005-.003 9.752-2.18 2.748-2.178 4.349-5.492 4.349-8.997v-19.175c0-3.464-1.522-6.754-4.163-8.995-2.641-2.242-6.134-3.21-9.552-2.647-3.921.645-8.363 1.377-12.465 2.052-8.687 1.43-17.594.642-25.895-2.29l-1.196-.425c-2.173-.772-1.102 2.896-.8 3.826z" fill="#d81a61"/><path d="m33.626 227.753c-6.09 0-11.478 1.482-14.826 3.673-2.757 1.803-4.217 4.14-4.217 6.547 0 2.406 1.46 4.743 4.217 6.547 3.348 2.19 8.736 3.672 14.826 3.672s11.478-1.482 14.826-3.672c2.757-1.804 4.217-4.141 4.217-6.547 0-2.407-1.46-4.744-4.217-6.547-3.348-2.191-8.736-3.673-14.826-3.673z" fill="#d81a61"/><path d="m149.969 215.53c-6.091 0-11.479 1.482-14.826 3.672-2.757 1.804-4.217 4.141-4.217 6.547s1.46 4.743 4.217 6.547c3.347 2.19 8.735 3.672 14.826 3.672 6.09 0 11.478-1.482 14.825-3.672 2.757-1.804 4.217-4.141 4.217-6.547s-1.46-4.743-4.217-6.547c-3.347-2.19-8.735-3.672-14.825-3.672z" fill="#d81a61"/><path d="m168.578 167.779c-5.045 0-9.507 1.238-12.28 3.053-2.375 1.553-3.608 3.581-3.608 5.653 0 2.073 1.233 4.101 3.608 5.654 2.773 1.815 7.235 3.053 12.28 3.053 5.046 0 9.507-1.238 12.281-3.053 2.374-1.553 3.607-3.581 3.607-5.654 0-2.072-1.233-4.1-3.607-5.653-2.774-1.815-7.235-3.053-12.281-3.053z" fill="#d81a61"/><path d="m82.907 144.761c-4.697 0-8.849 1.156-11.431 2.846-2.246 1.47-3.404 3.394-3.404 5.355s1.158 3.885 3.404 5.355c2.582 1.69 6.734 2.846 11.431 2.846s8.849-1.156 11.431-2.846c2.247-1.47 3.404-3.394 3.404-5.355s-1.157-3.885-3.404-5.355c-2.582-1.69-6.734-2.846-11.431-2.846z" fill="#d81a61"/><path d="m148.059 112.429c-4.229 0-7.966 1.047-10.291 2.568-2.075 1.357-3.132 3.144-3.132 4.955s1.057 3.597 3.132 4.955c2.325 1.521 6.062 2.568 10.291 2.568 4.228 0 7.966-1.047 10.29-2.568 2.075-1.358 3.132-3.144 3.132-4.955s-1.057-3.598-3.132-4.955c-2.324-1.521-6.062-2.568-10.29-2.568z" fill="#d81a61"/><path d="m197.684 89.607s3.541-1.846 2.626-2.093c2.833.766 5.099 2.046 6.481 3.541 1.168 1.263 1.767 2.7 1.767 4.191 0 2.029-1.134 3.991-3.291 5.512-2.545 1.796-6.637 3.024-11.267 3.024-4.631 0-8.723-1.228-11.268-3.024-2.157-1.521-3.291-3.483-3.291-5.512 0-1.491.6-2.928 1.767-4.191 1.382-1.495 3.648-2.775 6.481-3.541-.917.248 2.626 2.093 2.626 2.093l-.027 1.305c.005 2.044 1.666 3.702 3.712 3.702 2.044 0 3.705-1.656 3.712-3.699z" fill="#d81a61"/><path d="m187.513 24.93-1.392 65.972c0 4.349 3.53 7.879 7.879 7.879 4.348 0 7.879-3.53 7.879-7.879l-1.392-65.972c-.017-3.565-2.917-6.455-6.487-6.455s-6.47 2.89-6.487 6.456z" fill="#2d3a5a"/><g fill="#212850"><path d="m187.513 24.93-1.392 65.972c0 4.349 3.53 7.879 7.879 7.879 4.348 0 7.879-3.53 7.879-7.879l-1.392-65.972c-.017-3.565-2.917-6.455-6.487-6.455s-6.47 2.89-6.487 6.456zm4.166.076c0-.015 0-.029 0-.044 0-1.281 1.04-2.321 2.321-2.321 1.28 0 2.32 1.04 2.32 2.321l1.392 65.954c-.007 2.042-1.668 3.698-3.712 3.698-2.045 0-3.705-1.656-3.713-3.698 0 0 1.392-65.91 1.392-65.91z"/><path d="m198.012 25.184.071.209-.658-.107c-.569-.189-1.04-.618-1.273-1.193.109.268.168.562.168.869l.826 39.151c.013.598.282 1.162.739 1.548.456.386 1.057.557 1.649.469l19.648-2.903c6.257-.925 12.633-.658 18.792.786l.008.002c3.413.8 7.005-.003 9.752-2.18 2.748-2.178 4.349-5.492 4.349-8.997v-19.175c0-3.464-1.522-6.754-4.163-8.995-2.641-2.242-6.134-3.21-9.552-2.647-3.921.645-8.363 1.377-12.465 2.052-8.687 1.43-17.594.642-25.895-2.29l-1.196-.425c-2.173-.772-1.102 2.896-.8 3.826zm2.504 1.16c8.416 2.642 17.343 3.276 26.064 1.84 4.102-.675 8.544-1.406 12.465-2.052 2.211-.364 4.47.262 6.179 1.712 1.708 1.45 2.693 3.578 2.693 5.819v19.175c0 2.233-1.021 4.344-2.771 5.731s-4.038 1.899-6.212 1.389c-.001 0-.009-.002-.009-.002-6.67-1.564-13.575-1.853-20.352-.851 0 0-17.311 2.558-17.311 2.558z"/><path d="m187.745 182.751c22.519 4.798 39.543 13.662 37.003 35.242-.592 5.032-2.305 8.765-5.036 11.399-2.756 2.658-6.509 4.184-11.015 4.921-9.727 1.59-22.785-.484-37.424-3.963-1.118-.265-2.242.427-2.508 1.546-.266 1.118.426 2.242 1.545 2.508 15.274 3.629 28.911 5.68 39.059 4.021 5.433-.888 9.912-2.83 13.235-6.033 3.346-3.227 5.557-7.748 6.282-13.912 2.815-23.913-15.32-34.488-40.273-39.804-1.125-.239-2.232.479-2.472 1.604-.239 1.124.479 2.232 1.604 2.471zm-59.168 36.058c-22.65-6.166-47.019-12.217-66.191-9.742-13.332 1.721-24.219 7.487-30.609 19.81-.53 1.021-.131 2.28.89 2.809s2.279.13 2.808-.89c7.188-13.861 20.832-18.252 37.027-18.134 16.887.123 36.512 5.139 54.981 10.167 1.109.302 2.255-.353 2.557-1.463.302-1.109-.353-2.255-1.463-2.557zm-37.972-52.643c12.066 7.142 34.201 9.176 57.259 11.335 1.145.107 2.162-.735 2.269-1.88s-.735-2.161-1.88-2.268c-22.343-2.093-43.834-3.852-55.525-10.772-.99-.586-2.268-.258-2.854.731-.586.99-.258 2.268.731 2.854zm40.058-46.627c-14.823 2.435-26.703 5.916-35.14 10.258-5.905 3.039-10.166 6.53-12.691 10.347-.635.959-.371 2.252.588 2.887.959.634 2.252.371 2.887-.588 2.201-3.327 5.977-6.293 11.122-8.941 8.139-4.188 19.611-7.503 33.909-9.851 1.135-.187 1.905-1.259 1.718-2.394-.186-1.134-1.259-1.904-2.393-1.718zm62.576-15.901s4.179 1.626 6.907 3.835c.597.484 1.124.988 1.465 1.522.199.311.353.627.136.946-.656.966-2.291 1.743-5.162 2.58-5.254 1.534-14.141 2.756-28.422 3.377-1.149.05-2.041 1.023-1.991 2.172s1.023 2.041 2.172 1.991c14.779-.643 23.971-1.953 29.408-3.54 4.261-1.243 6.468-2.805 7.442-4.239 1.489-2.192.975-4.487-.859-6.566-2.885-3.272-9.575-5.957-9.575-5.957-1.07-.42-2.28.108-2.7 1.179-.42 1.07.109 2.28 1.179 2.7z"/><path d="m197.684 89.607s3.541-1.846 2.626-2.093c2.833.766 5.099 2.046 6.481 3.541 1.168 1.263 1.767 2.7 1.767 4.191 0 2.029-1.134 3.991-3.291 5.512-2.545 1.796-6.637 3.024-11.267 3.024-4.631 0-8.723-1.228-11.268-3.024-2.157-1.521-3.291-3.483-3.291-5.512 0-1.491.6-2.928 1.767-4.191 1.382-1.495 3.648-2.775 6.481-3.541-.917.248 2.626 2.093 2.626 2.093l-.027 1.305c.005 2.044 1.666 3.702 3.712 3.702 2.044 0 3.705-1.656 3.712-3.699zm4.04 2.856c.593.295 1.117.627 1.556.994.642.537 1.112 1.112 1.112 1.789 0 .823-.652 1.491-1.526 2.107-1.997 1.408-5.234 2.262-8.866 2.262s-6.87-.854-8.866-2.262c-.874-.616-1.526-1.284-1.526-2.107 0-.677.469-1.252 1.112-1.789.439-.367.962-.699 1.556-.994.725 3.602 3.91 6.318 7.724 6.318s6.999-2.716 7.724-6.318z"/><path d="m148.059 112.429c-4.229 0-7.966 1.047-10.291 2.568-2.075 1.357-3.132 3.144-3.132 4.955s1.057 3.597 3.132 4.955c2.325 1.521 6.062 2.568 10.291 2.568 4.228 0 7.966-1.047 10.29-2.568 2.075-1.358 3.132-3.144 3.132-4.955s-1.057-3.598-3.132-4.955c-2.324-1.521-6.062-2.568-10.29-2.568zm0 4.166c3.281 0 6.205.708 8.009 1.888.682.446 1.246.874 1.246 1.469s-.564 1.022-1.246 1.468c-1.804 1.18-4.728 1.888-8.009 1.888s-6.206-.708-8.01-1.888c-.682-.446-1.246-.873-1.246-1.468s.564-1.023 1.246-1.469c1.804-1.18 4.729-1.888 8.01-1.888z"/><path d="m82.907 144.761c-4.697 0-8.849 1.156-11.431 2.846-2.246 1.47-3.404 3.394-3.404 5.355s1.158 3.885 3.404 5.355c2.582 1.69 6.734 2.846 11.431 2.846s8.849-1.156 11.431-2.846c2.247-1.47 3.404-3.394 3.404-5.355s-1.157-3.885-3.404-5.355c-2.582-1.69-6.734-2.846-11.431-2.846zm0 4.167c3.749 0 7.089.817 9.15 2.165.852.558 1.519 1.125 1.519 1.869s-.667 1.311-1.519 1.869c-2.061 1.348-5.401 2.165-9.15 2.165s-7.089-.817-9.149-2.165c-.853-.558-1.519-1.125-1.519-1.869s.666-1.311 1.519-1.869c2.06-1.348 5.4-2.165 9.149-2.165z"/><path d="m168.578 167.779c-5.045 0-9.507 1.238-12.28 3.053-2.375 1.553-3.608 3.581-3.608 5.653 0 2.073 1.233 4.101 3.608 5.654 2.773 1.815 7.235 3.053 12.28 3.053 5.046 0 9.507-1.238 12.281-3.053 2.374-1.553 3.607-3.581 3.607-5.654 0-2.072-1.233-4.1-3.607-5.653-2.774-1.815-7.235-3.053-12.281-3.053zm0 4.167c4.098 0 7.747.899 9.999 2.372.98.642 1.723 1.312 1.723 2.167 0 .856-.743 1.526-1.723 2.167-2.252 1.474-5.901 2.373-9.999 2.373s-7.747-.899-9.999-2.373c-.98-.641-1.723-1.311-1.723-2.167 0-.855.743-1.525 1.723-2.167 2.252-1.473 5.901-2.372 9.999-2.372z"/><path d="m149.969 215.53c-6.091 0-11.479 1.482-14.826 3.672-2.757 1.804-4.217 4.141-4.217 6.547s1.46 4.743 4.217 6.547c3.347 2.19 8.735 3.672 14.826 3.672 6.09 0 11.478-1.482 14.825-3.672 2.757-1.804 4.217-4.141 4.217-6.547s-1.46-4.743-4.217-6.547c-3.347-2.19-8.735-3.672-14.825-3.672zm0 4.166c5.142 0 9.718 1.143 12.544 2.993 1.362.891 2.331 1.871 2.331 3.06s-.969 2.169-2.331 3.06c-2.826 1.85-7.402 2.993-12.544 2.993-5.143 0-9.719-1.143-12.545-2.993-1.362-.891-2.331-1.871-2.331-3.06s.969-2.169 2.331-3.06c2.826-1.85 7.402-2.993 12.545-2.993z"/><path d="m33.626 227.753c-6.09 0-11.478 1.482-14.826 3.673-2.757 1.803-4.217 4.14-4.217 6.547 0 2.406 1.46 4.743 4.217 6.547 3.348 2.19 8.736 3.672 14.826 3.672s11.478-1.482 14.826-3.672c2.757-1.804 4.217-4.141 4.217-6.547 0-2.407-1.46-4.744-4.217-6.547-3.348-2.191-8.736-3.673-14.826-3.673zm0 4.167c5.142 0 9.718 1.143 12.545 2.992 1.362.891 2.331 1.872 2.331 3.061 0 1.188-.969 2.169-2.331 3.06-2.827 1.849-7.403 2.992-12.545 2.992s-9.718-1.143-12.545-2.992c-1.362-.891-2.331-1.872-2.331-3.06 0-1.189.969-2.17 2.331-3.061 2.827-1.849 7.403-2.992 12.545-2.992z"/></g></svg>