<svg id="Layer_1" height="512" viewBox="0 0 64 64" width="512" xmlns="http://www.w3.org/2000/svg"><path d="m53 28h-19v-10h7c9.39 0 17-7.61 17-17h-14c-6.63 0-12 5.37-12 12 0-3.32-1.34-6.32-3.51-8.49s-5.17-3.51-8.49-3.51h-14c0 4.7 1.9 8.94 4.98 12.02s7.32 4.98 12.02 4.98h7v10h-19c-1.11 0-2 .89-2 2v4c0 1.11.89 2 2 2h2l2.45 22.03c.15 1.41.83 2.66 1.82 3.55.99.88 2.31 1.42 3.73 1.42h22c2.85 0 5.24-2.14 5.55-4.97l2.45-22.03h2c1.11 0 2-.89 2-2v-4c0-1.11-.89-2-2-2z" fill="#d6966b"/><circle cx="40.5" cy="54.5" fill="#c4804d" r="2.5"/><path d="m55 30v4c0 1.11-.89 2-2 2h-42c-1.11 0-2-.89-2-2v-4c0-1.11.89-2 2-2h42c1.11 0 2 .89 2 2z" fill="#c4804d"/><path d="m34 18v10h-4v-10h2z" fill="#7fc94f"/><path d="m58 1s-16 1-26 17v-5c0-6.63 5.37-12 12-12z" fill="#7fc94f"/><path d="m58 1c0 9.39-7.61 17-17 17h-9c10-16 26-17 26-17z" fill="#5eb132"/><path d="m32 13v5c-10-16-26-17-26-17h14c3.32 0 6.32 1.34 8.49 3.51s3.51 5.17 3.51 8.49z" fill="#7fc94f"/><path d="m32 18h-9c-4.7 0-8.94-1.9-12.02-4.98s-4.98-7.32-4.98-12.02c0 0 16 1 26 17z" fill="#5eb132"/></svg>