<?xml version="1.0" encoding="UTF-8"?>
<svg xmlns="http://www.w3.org/2000/svg" xmlns:xlink="http://www.w3.org/1999/xlink" version="1.1" id="Capa_1" x="0px" y="0px" viewBox="0 0 510.175 510.175" style="enable-background:new 0 0 510.175 510.175;" xml:space="preserve" width="512" height="512">
<g>
	<g>
		<path style="fill:#CFEFFC;" d="M89.149,180.979l-75.603,64.988c-0.371,0.319-0.584,0.783-0.584,1.272v12.3&#10;&#9;&#9;&#9;c0,1.234,1.286,2.045,2.4,1.514l73.788-35.183l24.156-4.772l8.254,34.22l17.484,4.9l49.519,34.14l11.648,37.294l12.894,32.569&#10;&#9;&#9;&#9;l22.416-7.125l-6.793-25.445l-19.182-70.918c-0.588-2.174-1.775-4.14-3.425-5.673l-67.077-62.319l-35.415-23.338L89.149,180.979z"/>
		<path style="fill:#EA9A98;" d="M307.274,124.164H442.73V40.938H307.274c-0.919,0-1.549,0.927-1.21,1.781l15.577,39.353&#10;&#9;&#9;&#9;c0.122,0.308,0.122,0.65,0,0.958l-15.577,39.353C305.725,123.238,306.355,124.164,307.274,124.164z"/>
		<path style="fill:#B3ADB5;" d="M446.672,251.874H419.73V31.123c0-2.91,2.359-5.268,5.268-5.268h16.406&#10;&#9;&#9;&#9;c2.91,0,5.268,2.359,5.268,5.268V251.874z"/>
		<g>
			<path style="fill:#DE6A66;" d="M492.828,484.32H373.574c-5.438,0-9.847-4.409-9.847-9.847v-31.195&#10;&#9;&#9;&#9;&#9;c0-5.438,4.409-9.847,9.847-9.847h119.254c5.438,0,9.847,4.409,9.847,9.847v31.195&#10;&#9;&#9;&#9;&#9;C502.675,479.911,498.266,484.32,492.828,484.32z"/>
			<path style="fill:#E5827F;" d="M492.828,433.431H373.574c-5.438,0-9.847-4.409-9.847-9.847v-31.195&#10;&#9;&#9;&#9;&#9;c0-5.438,4.409-9.847,9.847-9.847h119.254c5.438,0,9.847,4.409,9.847,9.847v31.195&#10;&#9;&#9;&#9;&#9;C502.675,429.022,498.266,433.431,492.828,433.431z"/>
			<path style="fill:#EA9A98;" d="M492.828,382.542H373.574c-5.438,0-9.847-4.409-9.847-9.847V341.5&#10;&#9;&#9;&#9;&#9;c0-5.438,4.409-9.847,9.847-9.847h119.254c5.438,0,9.847,4.409,9.847,9.847v31.195&#10;&#9;&#9;&#9;&#9;C502.675,378.133,498.266,382.542,492.828,382.542z"/>
			<path style="fill:#EFB4B2;" d="M492.828,331.653H373.574c-5.438,0-9.847-4.409-9.847-9.847v-31.195&#10;&#9;&#9;&#9;&#9;c0-5.438,4.409-9.847,9.847-9.847h119.254c5.438,0,9.847,4.409,9.847,9.847v31.195&#10;&#9;&#9;&#9;&#9;C502.675,327.244,498.266,331.653,492.828,331.653z"/>
			<path style="fill:#F3C9C7;" d="M492.828,280.764H373.574c-5.438,0-9.847-4.409-9.847-9.847v-31.195&#10;&#9;&#9;&#9;&#9;c0-5.438,4.409-9.847,9.847-9.847h119.254c5.438,0,9.847,4.409,9.847,9.847v31.195&#10;&#9;&#9;&#9;&#9;C502.675,276.355,498.266,280.764,492.828,280.764z"/>
			<path style="fill:#FBE372;" d="M314.714,484.32H195.461c-5.438,0-9.847-4.409-9.847-9.847v-31.195&#10;&#9;&#9;&#9;&#9;c0-5.438,4.409-9.847,9.847-9.847h119.254c5.438,0,9.847,4.409,9.847,9.847v31.195&#10;&#9;&#9;&#9;&#9;C324.562,479.911,320.153,484.32,314.714,484.32z"/>
			<path style="fill:#FBE88C;" d="M314.714,433.431H195.461c-5.438,0-9.847-4.409-9.847-9.847v-31.195&#10;&#9;&#9;&#9;&#9;c0-5.438,4.409-9.847,9.847-9.847h119.254c5.438,0,9.847,4.409,9.847,9.847v31.195&#10;&#9;&#9;&#9;&#9;C324.562,429.022,320.153,433.431,314.714,433.431z"/>
			<path style="fill:#FCF0B6;" d="M314.714,382.542H195.461c-5.438,0-9.847-4.409-9.847-9.847V341.5&#10;&#9;&#9;&#9;&#9;c0-5.438,4.409-9.847,9.847-9.847h119.254c5.438,0,9.847,4.409,9.847,9.847v31.195&#10;&#9;&#9;&#9;&#9;C324.562,378.133,320.153,382.542,314.714,382.542z"/>
			<polygon style="fill:#A9E4F9;" points="159.042,211.324 139.043,192.743 103.628,169.405 89.149,180.978 69.149,198.17 &#10;&#9;&#9;&#9;&#9;69.149,235.407 89.149,225.871 113.305,221.098 121.559,255.319 139.043,260.219 159.042,274.008 &#9;&#9;&#9;"/>
			<path style="fill:#CFEFFC;" d="M91.741,382.542l46.104-79.053c0.785-1.345,1.198-2.875,1.198-4.433V169.248l64.669-66.59&#10;&#9;&#9;&#9;&#9;c0.498-0.512,0.776-1.198,0.776-1.913V86.419c0-2.225-2.509-3.526-4.327-2.243L96.539,157.255&#10;&#9;&#9;&#9;&#9;c-4.634,3.268-7.39,8.585-7.39,14.255v124.47c0,0.61-0.063,1.219-0.189,1.816l-17.306,82.042l-4.256,23.986h14.197&#10;&#9;&#9;&#9;&#9;L91.741,382.542z"/>
			<circle style="fill:#CFEFFC;" cx="103.628" cy="114.46" r="30.79"/>
		</g>
		<path style="fill:#9DE5D1;" d="M136.601,484.32H17.347c-5.438,0-9.847-4.409-9.847-9.847v-31.195c0-5.438,4.409-9.847,9.847-9.847&#10;&#9;&#9;&#9;h119.254c5.438,0,9.847,4.409,9.847,9.847v31.195C146.448,479.911,142.039,484.32,136.601,484.32z"/>
		<path style="fill:#B6EBDD;" d="M136.601,433.431H17.347c-5.438,0-9.847-4.409-9.847-9.847v-31.195&#10;&#9;&#9;&#9;c0-5.438,4.409-9.847,9.847-9.847h119.254c5.438,0,9.847,4.409,9.847,9.847v31.195&#10;&#9;&#9;&#9;C146.448,429.022,142.039,433.431,136.601,433.431z"/>
	</g>
	<g>
		<g>
			<path style="fill:none;stroke:#000000;stroke-width:15;stroke-linecap:round;stroke-linejoin:round;stroke-miterlimit:10;" d="&#10;&#9;&#9;&#9;&#9;M492.828,484.32H373.574c-5.438,0-9.847-4.409-9.847-9.847v-31.195c0-5.438,4.409-9.847,9.847-9.847h119.254&#10;&#9;&#9;&#9;&#9;c5.438,0,9.847,4.409,9.847,9.847v31.195C502.675,479.911,498.266,484.32,492.828,484.32z"/>
			<path style="fill:none;stroke:#000000;stroke-width:15;stroke-linecap:round;stroke-linejoin:round;stroke-miterlimit:10;" d="&#10;&#9;&#9;&#9;&#9;M492.828,433.431H373.574c-5.438,0-9.847-4.409-9.847-9.847v-31.195c0-5.438,4.409-9.847,9.847-9.847h119.254&#10;&#9;&#9;&#9;&#9;c5.438,0,9.847,4.409,9.847,9.847v31.195C502.675,429.022,498.266,433.431,492.828,433.431z"/>
			<path style="fill:none;stroke:#000000;stroke-width:15;stroke-linecap:round;stroke-linejoin:round;stroke-miterlimit:10;" d="&#10;&#9;&#9;&#9;&#9;M492.828,382.542H373.574c-5.438,0-9.847-4.409-9.847-9.847V341.5c0-5.438,4.409-9.847,9.847-9.847h119.254&#10;&#9;&#9;&#9;&#9;c5.438,0,9.847,4.409,9.847,9.847v31.195C502.675,378.133,498.266,382.542,492.828,382.542z"/>
			<path style="fill:none;stroke:#000000;stroke-width:15;stroke-linecap:round;stroke-linejoin:round;stroke-miterlimit:10;" d="&#10;&#9;&#9;&#9;&#9;M492.828,331.653H373.574c-5.438,0-9.847-4.409-9.847-9.847v-31.195c0-5.438,4.409-9.847,9.847-9.847h119.254&#10;&#9;&#9;&#9;&#9;c5.438,0,9.847,4.409,9.847,9.847v31.195C502.675,327.244,498.266,331.653,492.828,331.653z"/>
			<path style="fill:none;stroke:#000000;stroke-width:15;stroke-linecap:round;stroke-linejoin:round;stroke-miterlimit:10;" d="&#10;&#9;&#9;&#9;&#9;M492.828,280.764H373.574c-5.438,0-9.847-4.409-9.847-9.847v-31.195c0-5.438,4.409-9.847,9.847-9.847h119.254&#10;&#9;&#9;&#9;&#9;c5.438,0,9.847,4.409,9.847,9.847v31.195C502.675,276.355,498.266,280.764,492.828,280.764z"/>
			<path style="fill:none;stroke:#000000;stroke-width:15;stroke-linecap:round;stroke-linejoin:round;stroke-miterlimit:10;" d="&#10;&#9;&#9;&#9;&#9;M314.714,484.32H195.461c-5.438,0-9.847-4.409-9.847-9.847v-31.195c0-5.438,4.409-9.847,9.847-9.847h119.254&#10;&#9;&#9;&#9;&#9;c5.438,0,9.847,4.409,9.847,9.847v31.195C324.562,479.911,320.153,484.32,314.714,484.32z"/>
			<path style="fill:none;stroke:#000000;stroke-width:15;stroke-linecap:round;stroke-linejoin:round;stroke-miterlimit:10;" d="&#10;&#9;&#9;&#9;&#9;M314.714,433.431H195.461c-5.438,0-9.847-4.409-9.847-9.847v-31.195c0-5.438,4.409-9.847,9.847-9.847h119.254&#10;&#9;&#9;&#9;&#9;c5.438,0,9.847,4.409,9.847,9.847v31.195C324.562,429.022,320.153,433.431,314.714,433.431z"/>
			<path style="fill:none;stroke:#000000;stroke-width:15;stroke-linecap:round;stroke-linejoin:round;stroke-miterlimit:10;" d="&#10;&#9;&#9;&#9;&#9;M136.601,484.32H17.347c-5.438,0-9.847-4.409-9.847-9.847v-31.195c0-5.438,4.409-9.847,9.847-9.847h119.254&#10;&#9;&#9;&#9;&#9;c5.438,0,9.847,4.409,9.847,9.847v31.195C146.448,479.911,142.039,484.32,136.601,484.32z"/>
			<path style="fill:none;stroke:#000000;stroke-width:15;stroke-linecap:round;stroke-linejoin:round;stroke-miterlimit:10;" d="&#10;&#9;&#9;&#9;&#9;M136.601,433.431H17.347c-5.438,0-9.847-4.409-9.847-9.847v-31.195c0-5.438,4.409-9.847,9.847-9.847h119.254&#10;&#9;&#9;&#9;&#9;c5.438,0,9.847,4.409,9.847,9.847v31.195C146.448,429.022,142.039,433.431,136.601,433.431z"/>
			<path style="fill:none;stroke:#000000;stroke-width:15;stroke-linecap:round;stroke-linejoin:round;stroke-miterlimit:10;" d="&#10;&#9;&#9;&#9;&#9;M91.741,382.542l46.104-79.053c0.785-1.345,1.198-2.875,1.198-4.433V169.248l64.669-66.59c0.498-0.512,0.776-1.198,0.776-1.913&#10;&#9;&#9;&#9;&#9;V86.419c0-2.225-2.509-3.526-4.327-2.243L96.539,157.255c-4.634,3.268-7.39,8.585-7.39,14.255v124.47&#10;&#9;&#9;&#9;&#9;c0,0.61-0.063,1.219-0.189,1.816l-17.306,82.042"/>
			<path style="fill:none;stroke:#000000;stroke-width:15;stroke-linecap:round;stroke-linejoin:round;stroke-miterlimit:10;" d="&#10;&#9;&#9;&#9;&#9;M139.043,192.742l67.077,62.319c1.65,1.533,2.837,3.499,3.425,5.673l19.182,70.918"/>
			
				<polyline style="fill:none;stroke:#000000;stroke-width:15;stroke-linecap:round;stroke-linejoin:round;stroke-miterlimit:10;" points="&#10;&#9;&#9;&#9;&#9;139.043,260.219 188.562,294.359 200.21,331.653 &#9;&#9;&#9;"/>
			<path style="fill:none;stroke:#000000;stroke-width:15;stroke-linecap:round;stroke-linejoin:round;stroke-miterlimit:10;" d="&#10;&#9;&#9;&#9;&#9;M89.149,180.979l-75.603,64.988c-0.371,0.319-0.584,0.783-0.584,1.272v12.3c0,1.234,1.286,2.045,2.4,1.514l73.788-35.183"/>
			
				<circle style="fill:none;stroke:#000000;stroke-width:15;stroke-linecap:round;stroke-linejoin:round;stroke-miterlimit:10;" cx="103.628" cy="114.46" r="30.79"/>
			<path style="fill:none;stroke:#000000;stroke-width:15;stroke-linecap:round;stroke-linejoin:round;stroke-miterlimit:10;" d="&#10;&#9;&#9;&#9;&#9;M419.73,124.164H307.274c-0.919,0-1.549-0.926-1.21-1.781l15.577-39.353c0.122-0.308,0.122-0.65,0-0.958l-15.577-39.353&#10;&#9;&#9;&#9;&#9;c-0.338-0.854,0.292-1.781,1.21-1.781H419.73"/>
		</g>
		<path style="fill:none;stroke:#000000;stroke-width:15;stroke-linecap:round;stroke-linejoin:round;stroke-miterlimit:10;" d="&#10;&#9;&#9;&#9;M255.088,331.653H195.46c-5.438,0-9.847,4.409-9.847,9.847v31.195c0,5.438,4.409,9.847,9.847,9.847h119.254&#10;&#9;&#9;&#9;c5.438,0,9.847-4.409,9.847-9.847V341.5c0-5.438-4.409-9.847-9.847-9.847H287.05"/>
		
			<line style="fill:none;stroke:#000000;stroke-width:15;stroke-linecap:round;stroke-linejoin:round;stroke-miterlimit:10;" x1="446.672" y1="229.874" x2="446.672" y2="184.534"/>
		<path style="fill:none;stroke:#000000;stroke-width:15;stroke-linecap:round;stroke-linejoin:round;stroke-miterlimit:10;" d="&#10;&#9;&#9;&#9;M446.672,152.572V31.123c0-2.91-2.359-5.268-5.268-5.268h-16.406c-2.91,0-5.268,2.358-5.268,5.268v198.751"/>
	</g>
</g>















</svg>
