<svg id="Layer_1" enable-background="new 0 0 512 512" viewBox="0 0 512 512" xmlns="http://www.w3.org/2000/svg"><g><g><path clip-rule="evenodd" d="m289.246 374.457v14.078c0 16.027-14.136 29.145-31.414 29.145-17.277 0-31.414-13.118-31.414-29.145v-14.078z" fill="#5170ed" fill-rule="evenodd"/></g><g><path clip-rule="evenodd" d="m314.96 332.426v31.385c0 8.261-7.272 14.98-16.143 14.98h-81.997c-8.871 0-16.143-6.719-16.143-14.98v-31.385z" fill="#8399fe" fill-rule="evenodd"/></g><g><path clip-rule="evenodd" d="m257.832 102.377c63.439 0 114.894 50.349 114.894 112.45 0 67.016-43.98 66.842-43.98 108.058 0 6.981-5.847 12.682-12.973 12.682h-115.911c-7.126 0-12.944-5.701-12.944-12.682 0-41.216-43.98-41.042-43.98-108.058.001-62.1 51.427-112.45 114.894-112.45z" fill="#fdd835" fill-rule="evenodd"/></g><g><path clip-rule="evenodd" d="m207.221 315.44c-.582-3.985-1.6-7.534-2.996-10.82-4.131-9.89-11.344-17.336-18.557-26.207-4.189-5.119-8.348-10.704-11.897-17.51-5.818-11.082-10.006-25.364-10.006-46.074 0-58.668 45.9-106.837 104.481-111.985-3.433-.291-6.923-.465-10.414-.465-63.467 0-114.893 50.349-114.893 112.45 0 20.71 4.189 34.992 10.006 46.074 3.549 6.806 7.708 12.391 11.868 17.51 9.628 11.809 19.256 21.117 21.583 37.028.32 2.327.524 4.799.524 7.446 0 2.763.902 5.352 2.472 7.446 2.356 3.171 6.196 5.236 10.472 5.236h.814 20.041c-3.258 0-6.253-1.193-8.523-3.141-2.734-2.327-4.45-5.73-4.45-9.541-.001-2.648-.176-5.12-.525-7.447z" fill="#fbc02d" fill-rule="evenodd"/></g><g><path clip-rule="evenodd" d="m220.717 335.568h-20.041v28.243c0 8.261 7.272 14.98 16.143 14.98h9.599 11.256c-4.363 0-8.348-1.6-11.256-4.247-3.025-2.734-4.916-6.515-4.916-10.733v-28.243z" fill="#728bf1" fill-rule="evenodd"/></g><g><path clip-rule="evenodd" d="m237.675 378.791h-11.256v9.744c0 16.027 14.136 29.145 31.414 29.145 1.367 0 2.705-.087 4.043-.262 2.211-.262 4.334-.727 6.37-1.396-1.571-.524-3.054-1.134-4.48-1.861-2.152-1.076-4.13-2.385-5.934-3.869-6.486-5.352-10.587-13.118-10.587-21.757v-9.744z" fill="#4a68e0" fill-rule="evenodd"/></g><g><path clip-rule="evenodd" d="m409.056 377.046h33.333c38.017 0 69.111 31.123 69.111 69.14v22.135c-23.589 14.631-53.375 23.357-85.778 23.357s-62.188-8.726-85.777-23.357v-22.135c0-38.017 31.094-69.14 69.111-69.14z" fill="#ff5ba8" fill-rule="evenodd"/></g><g><path clip-rule="evenodd" d="m425.722 377.075c30.542 0 55.44-24.927 55.44-55.44 0-30.541-24.898-55.44-55.44-55.44-30.541 0-55.44 24.898-55.44 55.44.001 30.512 24.899 55.44 55.44 55.44z" fill="#ffaf93" fill-rule="evenodd"/></g><g><path clip-rule="evenodd" d="m409.056 377.046h18.819c-41.943 0-76.266 34.323-76.266 76.266v21.495c-4.043-2.007-7.941-4.189-11.664-6.486v-22.135c0-38.017 31.094-69.14 69.111-69.14z" fill="#ed4593" fill-rule="evenodd"/></g><g><path clip-rule="evenodd" d="m425.722 266.195c2.327 0 4.625.145 6.894.407-27.371 3.403-48.546 26.731-48.546 55.033 0 28.273 21.175 51.6 48.546 55.004-2.269.262-4.566.436-6.894.436-30.628 0-55.44-24.84-55.44-55.44.001-30.628 24.812-55.44 55.44-55.44z" fill="#ee8778" fill-rule="evenodd"/></g><g><path clip-rule="evenodd" d="m69.611 377.046h33.334c38.017 0 69.111 31.123 69.111 69.14v22.135c-23.59 14.631-53.375 23.357-85.778 23.357s-62.217-8.726-85.778-23.357v-22.135c0-38.017 31.094-69.14 69.111-69.14z" fill="#00d696" fill-rule="evenodd"/></g><g><path clip-rule="evenodd" d="m86.278 377.075c30.512 0 55.44-24.927 55.44-55.44 0-30.541-24.928-55.44-55.44-55.44-30.542 0-55.44 24.898-55.44 55.44 0 30.512 24.898 55.44 55.44 55.44z" fill="#ffaf93" fill-rule="evenodd"/></g><g><path clip-rule="evenodd" d="m69.611 377.046h18.819c-41.944 0-76.266 34.323-76.266 76.266v21.495c-4.043-2.007-7.94-4.189-11.664-6.486v-22.135c0-38.017 31.094-69.14 69.111-69.14z" fill="#00c78b" fill-rule="evenodd"/></g><g><path clip-rule="evenodd" d="m86.278 266.195c2.327 0 4.625.145 6.893.407-27.371 3.403-48.575 26.731-48.575 55.033 0 28.273 21.204 51.6 48.575 55.004-2.269.262-4.566.436-6.893.436-30.629 0-55.44-24.84-55.44-55.44 0-30.628 24.811-55.44 55.44-55.44z" fill="#ee8778" fill-rule="evenodd"/></g><path d="m168.031 63.859c2.124 3.352 1.128 7.79-2.223 9.915-48.206 30.549-77.257 82.167-78.122 138.472l15.239-15.239c2.806-2.806 7.355-2.806 10.161 0s2.806 7.355 0 10.161l-27.051 27.051c-1.403 1.403-3.242 2.104-5.081 2.104s-3.678-.701-5.081-2.104l-27.051-27.051c-2.806-2.806-2.806-7.355 0-10.161s7.355-2.806 10.161 0l14.347 14.348c1.157-60.907 32.652-116.68 84.786-149.718 3.355-2.124 7.791-1.128 9.915 2.222zm298.811 133.148c-2.806-2.806-7.355-2.806-10.161 0l-14.347 14.348c-1.158-60.888-32.652-116.66-84.785-149.717-3.35-2.123-7.789-1.13-9.915 2.221-2.124 3.351-1.13 7.789 2.221 9.915 48.206 30.568 77.258 82.187 78.123 138.473l-15.239-15.239c-2.806-2.806-7.355-2.806-10.161 0s-2.806 7.355 0 10.161l27.051 27.051c1.403 1.403 3.242 2.104 5.081 2.104s3.678-.701 5.081-2.104l27.051-27.051c2.806-2.807 2.806-7.356 0-10.162z" fill="#c5c5f6"/><path d="m265.017 27.507v43.601c0 3.968-3.217 7.185-7.185 7.185s-7.185-3.217-7.185-7.185v-43.601c0-3.968 3.217-7.185 7.185-7.185 3.969 0 7.185 3.217 7.185 7.185zm68.72 12.195c-2.807-2.805-7.355-2.803-10.16.005l-30.832 30.862c-2.805 2.807-2.802 7.356.005 10.16 1.403 1.402 3.24 2.102 5.078 2.102 1.84 0 3.68-.702 5.083-2.107l30.832-30.862c2.804-2.806 2.801-7.356-.006-10.16zm-141.649.005c-2.803-2.808-7.353-2.808-10.16-.005-2.807 2.804-2.81 7.353-.005 10.16l30.832 30.862c1.403 1.405 3.243 2.107 5.083 2.107 1.838 0 3.676-.701 5.078-2.102 2.807-2.804 2.81-7.353.005-10.16z" fill="#ffa000"/><g><path clip-rule="evenodd" d="m274.296 163.693c2.85.902 5.585 2.065 8.202 3.403l17.074-10.791 16.987 16.987-10.762 17.103c1.338 2.589 2.472 5.352 3.403 8.173l19.692 4.479v24.026l-19.692 4.45c-.931 2.851-2.065 5.585-3.403 8.202l10.762 17.074-16.987 16.987-17.074-10.791c-2.618 1.367-5.352 2.502-8.202 3.403l-4.451 19.721h-24.026l-4.45-19.721c-2.85-.902-5.585-2.036-8.202-3.403l-17.103 10.791-16.987-16.986 10.791-17.074c-1.338-2.618-2.502-5.352-3.403-8.202l-19.692-4.45v-24.026l19.692-4.479c.901-2.821 2.065-5.585 3.403-8.173l-10.791-17.103 16.987-16.987 17.103 10.791c2.618-1.367 5.352-2.501 8.202-3.403l4.45-19.721h24.026z" fill="#8399fe" fill-rule="evenodd"/></g><g><path clip-rule="evenodd" d="m273.568 269.657-3.723 16.463h-24.026l-4.45-19.721c-2.85-.902-5.585-2.036-8.202-3.403l-17.103 10.791-16.987-16.987 10.791-17.074c-1.338-2.618-2.502-5.352-3.403-8.202l-19.692-4.45v-24.026l19.692-4.479c.901-2.821 2.065-5.585 3.403-8.173l-10.791-17.103 16.987-16.987 17.103 10.791c2.618-1.367 5.352-2.501 8.202-3.403l4.45-19.721h24.026l3.723 16.463c-28.214 3.869-49.913 26.847-49.913 54.625 0 27.777 21.699 50.756 49.913 54.596z" fill="#728bf1" fill-rule="evenodd"/></g><g><path clip-rule="evenodd" d="m257.832 250.343c19.43 0 35.283-15.852 35.283-35.282 0-19.459-15.852-35.312-35.283-35.312-19.459 0-35.312 15.852-35.312 35.312.001 19.43 15.854 35.282 35.312 35.282z" fill="#deddff" fill-rule="evenodd"/></g><g><path clip-rule="evenodd" d="m257.832 179.749c1.338 0 2.676.087 3.985.233-17.627 1.978-31.327 16.929-31.327 35.079s13.7 33.072 31.327 35.079c-1.309.145-2.647.204-3.985.204-19.517 0-35.312-15.794-35.312-35.282.001-19.519 15.795-35.313 35.312-35.313z" fill="#c6c6f7" fill-rule="evenodd"/></g></g></svg>