<svg width="18" height="25" viewBox="0 0 18 25" fill="none" xmlns="http://www.w3.org/2000/svg">
<path d="M14.4097 2.93776C13.553 2.17529 12.545 1.60204 11.4517 1.25544C10.3584 0.90884 9.20432 0.796675 8.06474 0.926263C4.41374 1.33651 1.42124 4.27801 0.95099 7.91926C0.60899 10.5683 1.52849 13.125 3.47624 14.9333C3.70124 15.1433 3.82649 15.4155 3.82649 15.6998V17.6235C3.82778 18.2521 4.00992 18.8671 4.35116 19.3951C4.6924 19.923 5.17834 20.3417 5.75099 20.601V21.5648C5.75178 22.2436 6.0218 22.8944 6.50182 23.3744C6.98183 23.8544 7.63265 24.1245 8.31149 24.1253H9.68849C10.3675 24.1247 11.0185 23.8547 11.4986 23.3747C11.9788 22.8947 12.2489 22.2437 12.2497 21.5648V20.601C12.8224 20.3417 13.3083 19.923 13.6496 19.3951C13.9908 18.8671 14.1729 18.2521 14.1742 17.6235V15.7005C14.1742 15.4155 14.2995 15.1425 14.5267 14.9303C15.3423 14.1707 15.9932 13.2518 16.439 12.2304C16.8849 11.209 17.1162 10.107 17.1187 8.99251C17.1182 7.84956 16.8766 6.71958 16.4098 5.6763C15.943 4.63301 15.2615 3.69987 14.4097 2.93776ZM9.68849 21.8753H8.31149C8.27071 21.8753 8.23034 21.8672 8.19267 21.8516C8.15499 21.836 8.12077 21.8132 8.09193 21.7843C8.0631 21.7555 8.04023 21.7213 8.02462 21.6836C8.00902 21.6459 8.00099 21.6055 8.00099 21.5648V20.901H9.99899V21.5648C9.99899 21.6055 9.99096 21.6459 9.97535 21.6836C9.95975 21.7213 9.93688 21.7555 9.90805 21.7843C9.87921 21.8132 9.84498 21.836 9.80731 21.8516C9.76964 21.8672 9.72926 21.8753 9.68849 21.8753ZM12.9945 13.2833C12.315 13.9163 11.9242 14.7975 11.9242 15.7005V17.6235C11.9242 18.1898 11.4637 18.651 10.8967 18.651H10.125V11.958C11.6565 11.6993 12.8295 10.3725 12.8295 8.76901C12.8295 8.47064 12.711 8.1845 12.5 7.97352C12.289 7.76254 12.0029 7.64401 11.7045 7.64401C11.4061 7.64401 11.12 7.76254 10.909 7.97352C10.698 8.1845 10.5795 8.47064 10.5795 8.76901C10.5795 9.31651 10.1332 9.76276 9.58574 9.76276H8.41499C7.86749 9.76276 7.42124 9.31726 7.42124 8.76901C7.42124 8.47064 7.30271 8.1845 7.09173 7.97352C6.88076 7.76254 6.59461 7.64401 6.29624 7.64401C5.99787 7.64401 5.71172 7.76254 5.50074 7.97352C5.28977 8.1845 5.17124 8.47064 5.17124 8.76901C5.17124 10.3725 6.34349 11.6993 7.87499 11.958V18.651H7.10399C6.53699 18.651 6.07649 18.1898 6.07649 17.6235V15.6998C6.07649 14.796 5.68649 13.9155 5.00699 13.2848C3.59999 11.9775 2.93474 10.1273 3.18224 8.20726C3.52199 5.58001 5.68049 3.45901 8.31599 3.16276C8.54774 3.13651 8.77799 3.12376 9.00674 3.12376C10.4542 3.12376 11.82 3.64126 12.9097 4.61626C13.5256 5.16701 14.0183 5.84143 14.3559 6.5955C14.6934 7.34957 14.8682 8.16634 14.8687 8.99251C14.8687 10.635 14.2035 12.159 12.9937 13.2825L12.9945 13.2833Z" fill="white"/>
</svg>
