<svg width="20" height="23" viewBox="0 0 20 23" fill="none" xmlns="http://www.w3.org/2000/svg">
<path d="M19.1694 7.34958C19.1976 7.04605 19.0917 6.74253 18.8658 6.51664L12.8658 0.516643C12.6682 0.318996 12.407 0.220172 12.1388 0.213114C12.1035 0.213114 12.0682 0.206055 12.0329 0.206055H3.29407C1.93172 0.206055 0.823486 1.31429 0.823486 2.67664V20.3237C0.823486 21.6861 1.93172 22.7943 3.29407 22.7943H16.7058C18.0682 22.7943 19.1764 21.6861 19.1764 20.3237V7.40605C19.1764 7.38488 19.1764 7.37076 19.1694 7.34958ZM13.1764 3.82017L15.5623 6.20605H13.5294C13.3388 6.20605 13.1764 6.0437 13.1764 5.85311V3.82017ZM12.8235 18.2061H5.05878C4.4729 18.2061 3.99996 17.7331 3.99996 17.1472C3.99996 16.5613 4.4729 16.0884 5.05878 16.0884H12.8235C13.4094 16.0884 13.8823 16.5613 13.8823 17.1472C13.8823 17.7331 13.4094 18.2061 12.8235 18.2061ZM14.9411 14.6766H5.05878C4.4729 14.6766 3.99996 14.2037 3.99996 13.6178C3.99996 13.0319 4.4729 12.559 5.05878 12.559H14.9411C15.527 12.559 16 13.0319 16 13.6178C16 14.2037 15.527 14.6766 14.9411 14.6766Z" fill="#AEAEAE"/>
</svg>
