<svg width="24" height="24" viewBox="0 0 24 24" fill="none" xmlns="http://www.w3.org/2000/svg">
<g clip-path="url(#clip0_14185_31146)">
<path d="M1.70113 20.3328H8.24689C8.82716 20.3328 9.26797 19.8093 9.15744 19.2506C8.83714 17.6457 7.62542 16.3976 6.10166 15.9781C6.67461 15.607 7.05538 14.9634 7.05538 14.2314C7.05538 13.084 6.12196 12.1505 4.97455 12.1505C3.82714 12.1505 2.89349 13.0841 2.89349 14.2314C2.89349 14.9632 3.27425 15.6068 3.84711 15.9779C2.32316 16.3974 1.11102 17.6457 0.790252 19.2511C0.680284 19.8102 1.1241 20.3328 1.70113 20.3328ZM3.38146 14.2314C3.38146 13.353 4.09621 12.6384 4.9746 12.6384C5.85299 12.6384 6.5675 13.353 6.5675 14.2314C6.5675 15.1098 5.85299 15.8244 4.9746 15.8244C4.09621 15.8244 3.38146 15.1098 3.38146 14.2314ZM1.26894 19.3461C1.62013 17.5885 3.17849 16.3128 4.97413 16.3128C6.77 16.3128 8.32813 17.5885 8.67885 19.3457C8.73106 19.6085 8.513 19.8449 8.24689 19.8449H1.70113C1.43483 19.8449 1.21789 19.6061 1.26894 19.3461ZM23.2067 19.2506C22.8864 17.6457 21.6748 16.3976 20.151 15.978C20.724 15.607 21.1049 14.9633 21.1049 14.2313C21.1049 13.0839 20.1712 12.1504 19.0238 12.1504C17.8764 12.1504 16.943 13.084 16.943 14.2313C16.943 14.9631 17.3236 15.6067 17.8964 15.9778C16.3723 16.3972 15.1603 17.6456 14.8398 19.251C14.7297 19.8102 15.1735 20.3328 15.7506 20.3328H22.2964C22.8771 20.3328 23.3171 19.8087 23.2067 19.2506ZM17.431 14.2314C17.431 13.353 18.1455 12.6384 19.0239 12.6384C19.9023 12.6384 20.617 13.353 20.617 14.2314C20.617 15.1098 19.9023 15.8244 19.0239 15.8244C18.1454 15.8244 17.431 15.1098 17.431 14.2314ZM15.3185 19.3461C15.6694 17.5885 17.2275 16.3128 19.0234 16.3128C20.8193 16.3128 22.3774 17.5885 22.7281 19.3457C22.7802 19.6077 22.5634 19.8449 22.2964 19.8449H15.7506C15.4843 19.8449 15.2674 19.6061 15.3185 19.3461ZM7.81494 7.39066C7.70506 7.9488 8.14789 8.47231 8.72577 8.47231H15.2715C15.851 8.47231 16.2922 7.94984 16.1821 7.3902C15.8616 5.78538 14.6497 4.53729 13.1261 4.11766C13.6992 3.7466 14.0801 3.10296 14.0801 2.37096C14.0801 1.22355 13.1464 0.290039 11.999 0.290039C10.8516 0.290039 9.91817 1.2236 9.91817 2.37096C9.91817 3.10277 10.2988 3.74632 10.8716 4.11743C9.34752 4.53687 8.13552 5.7852 7.81494 7.39066ZM10.4061 2.37096C10.4061 1.49257 11.1206 0.777961 11.999 0.777961C12.8774 0.777961 13.5921 1.49257 13.5921 2.37096C13.5921 3.24935 12.8774 3.96396 11.999 3.96396C11.1206 3.96396 10.4061 3.2494 10.4061 2.37096ZM11.9985 4.4524C13.7942 4.4524 15.3525 5.72805 15.7035 7.48512C15.755 7.74471 15.5412 7.98434 15.2715 7.98434H8.72577C8.46106 7.98434 8.24221 7.74729 8.29358 7.48568C8.64453 5.72806 10.2027 4.4524 11.9985 4.4524ZM22.6857 12.7998C22.6883 12.9345 22.5813 13.0459 22.4465 13.0486C22.4448 13.0486 22.4431 13.0486 22.4417 13.0486C22.3092 13.0486 22.2003 12.9426 22.1977 12.8096C22.1148 8.64255 19.4315 4.87793 15.5209 3.44168C15.3944 3.39532 15.3296 3.25512 15.3761 3.12865C15.4225 3.00227 15.5633 2.93745 15.6891 2.9838C19.851 4.51221 22.5973 8.3652 22.6857 12.7998ZM8.62142 3.1286C8.66788 3.25512 8.6031 3.39532 8.47658 3.44163C4.56603 4.87788 1.88267 8.64251 1.7998 12.8095C1.79717 12.9426 1.68828 13.0486 1.55581 13.0486C1.55413 13.0486 1.55272 13.0486 1.55103 13.0486C1.41617 13.0459 1.30921 12.9344 1.31183 12.7997C1.40024 8.36515 4.14646 4.51216 8.30835 2.98371C8.43439 2.9373 8.57497 3.00223 8.62142 3.1286ZM17.6196 21.8302C17.6894 21.9454 17.6527 22.0954 17.5375 22.1653C14.1389 24.2265 9.85527 24.2245 6.46006 22.1653C6.34475 22.0955 6.30805 21.9454 6.37789 21.8302C6.44792 21.7149 6.59802 21.6784 6.7131 21.7481C9.95624 23.7148 14.0443 23.7131 17.2845 21.7481C17.3998 21.6785 17.5496 21.7151 17.6196 21.8302Z" fill="url(#paint0_linear_14185_31146)"/>
</g>
<defs>
<linearGradient id="paint0_linear_14185_31146" x1="11.9986" y1="23.7104" x2="11.9986" y2="0.290039" gradientUnits="userSpaceOnUse">
<stop stop-color="#923EDC"/>
<stop offset="0.682" stop-color="#3E63E3"/>
<stop offset="1" stop-color="#1675E7"/>
</linearGradient>
<clipPath id="clip0_14185_31146">
<rect width="24" height="24" fill="white"/>
</clipPath>
</defs>
</svg>
