<svg width="24" height="24" viewBox="0 0 24 24" fill="none" xmlns="http://www.w3.org/2000/svg">
<g clip-path="url(#clip0_14185_31126)">
<path d="M1.31562 9.2666C0.78312 9.5741 0.59937 10.2604 0.90687 10.7929L1.50687 11.8354C1.81437 12.3679 2.50062 12.5516 3.05187 12.2329C3.16812 12.1654 3.31437 12.1654 3.41937 12.2329C3.53562 12.3079 3.65187 12.3754 3.77562 12.4354C3.88812 12.4916 3.96312 12.6191 3.96312 12.7766C3.96312 13.3916 4.46562 13.8941 5.08062 13.8941H5.44062V15.7616H5.25687C4.78437 15.7616 4.33812 15.9679 4.02687 16.3241C3.71937 16.6841 3.58062 17.1566 3.65187 17.6216L4.27812 21.7841C4.39812 22.5829 5.07312 23.1641 5.87937 23.1641H20.4369C21.2469 23.1641 21.9219 22.5829 22.0381 21.7841L23.2231 13.9016C23.2944 13.4329 23.1556 12.9604 22.8481 12.6041C22.5406 12.2479 22.0906 12.0416 21.6181 12.0416H20.7706V2.4491C20.7706 1.5566 20.0431 0.829102 19.1506 0.829102H7.06062C6.16812 0.829102 5.44062 1.5566 5.44062 2.4491V3.56285H5.08062C4.46562 3.56285 3.96312 4.06535 3.96312 4.70285C3.96312 4.83785 3.89187 4.96535 3.77562 5.0216C3.65562 5.08535 3.53562 5.15285 3.41937 5.2241C3.31437 5.2916 3.16812 5.2916 3.03312 5.21285C2.50062 4.90535 1.81437 5.0891 1.50687 5.6216L0.90687 6.6641C0.59937 7.1966 0.78312 7.88285 1.33437 8.2016C1.45437 8.2691 1.52562 8.4041 1.51812 8.5541C1.51812 8.61035 1.51437 8.67035 1.51437 8.7266C1.51437 8.78285 1.51437 8.84285 1.51812 8.8991C1.52562 9.0491 1.45437 9.1841 1.31937 9.26285L1.31562 9.2666ZM20.3919 12.7991C20.3919 12.7991 20.3956 12.7991 20.3994 12.7991C20.4031 12.7991 20.4031 12.7991 20.4069 12.7991H21.6219C21.8769 12.7991 22.1169 12.9079 22.2819 13.1029C22.4469 13.2941 22.5219 13.5491 22.4844 13.8004L21.2994 21.6829C21.2356 22.1141 20.8719 22.4254 20.4369 22.4254H5.87937C5.44437 22.4254 5.08437 22.1141 5.01687 21.6829L4.39062 17.5204C4.35312 17.2691 4.42812 17.0141 4.59312 16.8229C4.75812 16.6316 4.99812 16.5191 5.25312 16.5191H13.4919C13.9906 16.5191 14.4706 16.2829 14.7781 15.8854L16.8931 13.1366C17.0581 12.9229 17.3169 12.7954 17.5831 12.7954H20.3919V12.7991ZM6.19062 2.4491C6.19062 1.9691 6.58062 1.5791 7.06062 1.5791H19.1544C19.6344 1.5791 20.0244 1.9691 20.0244 2.4491V12.0491H17.5831C17.0844 12.0491 16.6044 12.2854 16.2969 12.6791L14.1819 15.4279C14.0169 15.6416 13.7619 15.7691 13.4919 15.7691H6.19062V13.9016H6.28437C6.89937 13.9016 7.40187 13.3991 7.40187 12.7616C7.40187 12.6266 7.47687 12.4991 7.58937 12.4429C7.71312 12.3791 7.82937 12.3116 7.94562 12.2404C8.05062 12.1729 8.19687 12.1729 8.33187 12.2516C8.86812 12.5591 9.55062 12.3754 9.85812 11.8429L10.4581 10.8004C10.7656 10.2679 10.5819 9.5816 10.0306 9.26285C9.91062 9.19535 9.83937 9.0566 9.84687 8.91035C9.84687 8.8541 9.85062 8.7941 9.85062 8.73785C9.85062 8.6816 9.85062 8.6216 9.84687 8.56535C9.83937 8.41535 9.91062 8.28035 10.0456 8.2016C10.5781 7.8941 10.7619 7.20785 10.4544 6.67535L9.85437 5.63285C9.54687 5.10035 8.86062 4.9166 8.30937 5.23535C8.19312 5.30285 8.04687 5.30285 7.94187 5.23535C7.82562 5.16035 7.70937 5.09285 7.58562 5.03285C7.47312 4.9766 7.39812 4.8491 7.39812 4.6916C7.39812 4.0766 6.89562 3.5741 6.28062 3.5741H6.18687V2.46035L6.19062 2.4491ZM1.70562 9.90785C2.06937 9.69785 2.28312 9.30035 2.26062 8.8691C2.26062 8.8241 2.26062 8.7791 2.26062 8.73035C2.26062 8.6816 2.26062 8.6366 2.26062 8.59535C2.28312 8.1641 2.06937 7.7666 1.68687 7.54535C1.60062 7.4966 1.54062 7.41785 1.51437 7.32035C1.48812 7.22285 1.50312 7.12535 1.55187 7.0391L2.15187 5.9966C2.25312 5.82035 2.48187 5.76035 2.67312 5.87285C3.03687 6.08285 3.47562 6.07535 3.82062 5.8541C3.91437 5.7941 4.01187 5.73785 4.11312 5.68535C4.48062 5.49785 4.70937 5.1191 4.70937 4.6766C4.70937 4.4741 4.87437 4.3091 5.07687 4.3091H5.80437C5.80437 4.3091 5.80812 4.3091 5.81187 4.3091C5.81562 4.3091 5.81562 4.3091 5.81937 4.3091H6.28062C6.48312 4.3091 6.64812 4.4741 6.64812 4.6991C6.64812 5.12285 6.87687 5.5016 7.24437 5.68535C7.34562 5.73785 7.44312 5.7941 7.53687 5.8541C7.88187 6.07535 8.32062 6.08285 8.70312 5.8616C8.78937 5.81285 8.88687 5.79785 8.98437 5.8241C9.07812 5.85035 9.15687 5.91035 9.20937 5.9966L9.80937 7.0391C9.91062 7.21535 9.85062 7.44035 9.65937 7.55285C9.29562 7.76285 9.08187 8.16035 9.10062 8.5916V8.7266C9.10062 8.7266 9.10062 8.8166 9.10062 8.8616C9.07812 9.29285 9.29187 9.69035 9.67437 9.9116C9.85062 10.0129 9.91062 10.2379 9.80937 10.4141L9.20937 11.4566C9.16062 11.5429 9.08187 11.6029 8.98437 11.6291C8.89062 11.6554 8.78937 11.6404 8.68812 11.5804C8.32437 11.3704 7.88562 11.3779 7.54062 11.5991C7.44687 11.6591 7.34937 11.7154 7.24812 11.7679C6.88062 11.9554 6.65187 12.3341 6.65187 12.7766C6.65187 12.9791 6.48687 13.1441 6.28437 13.1441H5.08062C4.87812 13.1441 4.71312 12.9791 4.71312 12.7541C4.71312 12.3341 4.48437 11.9554 4.11687 11.7679C4.01562 11.7154 3.91812 11.6629 3.82437 11.5991C3.64812 11.4866 3.44937 11.4304 3.24312 11.4304C3.03687 11.4304 2.84562 11.4829 2.65812 11.5916C2.48187 11.6929 2.25687 11.6329 2.15562 11.4566L1.55562 10.4141C1.45437 10.2379 1.51437 10.0129 1.70562 9.90035V9.90785ZM5.68062 10.9841C6.92187 10.9841 7.93062 9.97535 7.93062 8.7341C7.93062 7.49285 6.92187 6.4841 5.68062 6.4841C4.43937 6.4841 3.43062 7.49285 3.43062 8.7341C3.43062 9.97535 4.43937 10.9841 5.68062 10.9841ZM5.68062 7.2341C6.50937 7.2341 7.18062 7.90535 7.18062 8.7341C7.18062 9.56285 6.50937 10.2341 5.68062 10.2341C4.85187 10.2341 4.18062 9.56285 4.18062 8.7341C4.18062 7.90535 4.85187 7.2341 5.68062 7.2341ZM11.6544 4.05785C11.6544 3.8516 11.8231 3.68285 12.0294 3.68285H17.3694C17.5756 3.68285 17.7444 3.8516 17.7444 4.05785C17.7444 4.2641 17.5756 4.43285 17.3694 4.43285H12.0294C11.8231 4.43285 11.6544 4.2641 11.6544 4.05785ZM11.6544 7.1741C11.6544 6.96785 11.8231 6.7991 12.0294 6.7991H17.3694C17.5756 6.7991 17.7444 6.96785 17.7444 7.1741C17.7444 7.38035 17.5756 7.5491 17.3694 7.5491H12.0294C11.8231 7.5491 11.6544 7.38035 11.6544 7.1741ZM11.6544 10.2904C11.6544 10.0841 11.8231 9.91535 12.0294 9.91535H17.3694C17.5756 9.91535 17.7444 10.0841 17.7444 10.2904C17.7444 10.4966 17.5756 10.6654 17.3694 10.6654H12.0294C11.8231 10.6654 11.6544 10.4966 11.6544 10.2904Z" fill="url(#paint0_linear_14185_31126)"/>
</g>
<defs>
<linearGradient id="paint0_linear_14185_31126" x1="11.9996" y1="0.829102" x2="11.9996" y2="23.1641" gradientUnits="userSpaceOnUse">
<stop stop-color="#4E5DE2"/>
<stop offset="1" stop-color="#913FDD"/>
</linearGradient>
<clipPath id="clip0_14185_31126">
<rect width="24" height="24" fill="white"/>
</clipPath>
</defs>
</svg>
