<svg width="24" height="24" viewBox="0 0 24 24" fill="none" xmlns="http://www.w3.org/2000/svg">
<path d="M10.2696 8.45796C10.2696 9.80509 12.6461 10.143 13.9928 10.143C15.846 10.143 17.716 9.62194 17.716 8.45796C17.716 6.40503 16.0458 4.73476 13.9928 4.73476C11.9399 4.73476 10.2696 6.40503 10.2696 8.45796ZM13.9928 5.22463C15.7757 5.22463 17.2261 6.67512 17.2261 8.45796C17.2261 9.13923 15.836 9.6531 13.9928 9.6531C12.1496 9.6531 10.7595 9.13923 10.7595 8.45796C10.7595 6.67512 12.2098 5.22463 13.9928 5.22463ZM15.8766 1.88246C15.8766 0.844495 15.0322 0 13.9941 0C12.9547 0 12.109 0.844495 12.109 1.88246C12.109 2.92196 12.9547 3.76761 13.9941 3.76761C15.0322 3.76761 15.8766 2.92196 15.8766 1.88246ZM12.5989 1.88246C12.5989 1.11458 13.2247 0.489866 13.9941 0.489866C14.762 0.489866 15.3867 1.11458 15.3867 1.88246C15.3867 2.65187 14.762 3.27774 13.9941 3.27774C13.2247 3.27774 12.5989 2.65187 12.5989 1.88246ZM4.18616 23.61C4.46566 23.9457 4.96239 23.9891 5.29594 23.7116L6.29325 22.8816C6.60769 22.6199 6.66266 22.1649 6.43645 21.8336L9.72677 20.3375H14.4249C15.1925 20.3375 15.9552 20.086 16.5725 19.6294L23.5392 14.4746C24.0376 14.1055 24.1492 13.3953 23.7879 12.8911L23.1806 12.0438C22.8296 11.554 22.1547 11.4214 21.6446 11.7422L14.5113 16.2251L12.3177 15.5141H14.2973C14.7843 15.5141 15.1804 15.1179 15.1804 14.631V13.0941C15.1804 12.6071 14.7843 12.2109 14.2973 12.2109H8.82937C8.02631 12.2109 7.27048 12.523 6.70102 13.0897L2.58176 17.1903L2.3906 16.9606C2.11239 16.6265 1.6147 16.5812 1.28081 16.859L0.283511 17.6888C-0.0503797 17.9668 -0.0959386 18.4645 0.181927 18.7987L4.18616 23.61ZM7.04658 13.4368C7.52338 12.9621 8.15655 12.7007 8.82932 12.7007H14.2974C14.5142 12.7007 14.6906 12.8772 14.6906 13.0941V14.631C14.6906 14.8479 14.5142 15.0243 14.2974 15.0243H10.7677C10.6471 15.0243 10.5446 15.1119 10.5258 15.231C10.5068 15.3501 10.5775 15.4651 10.6921 15.5022L14.4693 16.7264C14.5382 16.7488 14.6137 16.7395 14.6752 16.7008L21.9053 12.1569C22.1969 11.9735 22.5818 12.0494 22.7827 12.3291L23.3898 13.1764C23.5963 13.4644 23.5324 13.8701 23.2479 14.0808L16.2813 19.2355C15.74 19.636 15.098 19.8476 14.4249 19.8476H9.67377C9.63877 19.8476 9.60431 19.8551 9.57238 19.8696L6.11869 21.44L2.8963 17.5681L7.04658 13.4368ZM0.59695 18.0654L1.59425 17.2354C1.71998 17.1307 1.90846 17.1471 2.01408 17.274L6.01836 22.0852C6.1234 22.2116 6.10616 22.4 5.9799 22.5052L4.9826 23.335C4.85423 23.4423 4.66667 23.4215 4.56278 23.2966L0.558496 18.4854C0.453408 18.3589 0.470643 18.1705 0.59695 18.0654Z" fill="url(#paint0_linear_14185_31143)"/>
<defs>
<linearGradient id="paint0_linear_14185_31143" x1="3.09702" y1="22.5255" x2="20.1976" y2="5.42496" gradientUnits="userSpaceOnUse">
<stop stop-color="#8F41DE"/>
<stop offset="1" stop-color="#276FE6"/>
</linearGradient>
</defs>
</svg>
