<svg width="24" height="24" viewBox="0 0 24 24" fill="none" xmlns="http://www.w3.org/2000/svg">
<g clip-path="url(#clip0_14192_31152)">
<path d="M23.8816 15.792C23.7598 15.4451 23.516 15.1545 23.1926 14.967C22.8738 14.7842 22.4988 14.7186 22.1379 14.7889L14.0473 16.3123C14.0519 16.2936 14.0519 16.2795 14.0519 16.2607C14.0566 16.2139 14.0613 16.167 14.066 16.1154C14.066 16.0967 14.066 16.0779 14.066 16.0639C14.066 16.0123 14.066 15.9607 14.0613 15.9092C14.0613 15.8998 14.0566 15.8904 14.0566 15.8764C14.0426 15.7498 14.0191 15.6279 13.9769 15.5107C13.8363 15.117 13.5504 14.7982 13.1894 14.6061C13.0441 14.5264 12.8848 14.4701 12.7207 14.4373L8.65663 13.6873C8.30506 13.6217 7.94413 13.6498 7.61131 13.767L3.266 15.3045L3.17694 15.0467C3.03163 14.6389 2.56288 14.4373 2.12694 14.592L0.603502 15.1311C0.167564 15.2857 -0.0714981 15.7404 0.0738144 16.1482L2.46913 22.9076C2.53944 23.1092 2.69881 23.2732 2.90506 23.3576C3.0035 23.3998 3.11131 23.4186 3.21913 23.4186C3.31756 23.4186 3.42069 23.3998 3.51913 23.367L5.04256 22.8279C5.4785 22.6732 5.71756 22.2186 5.57225 21.8107L5.516 21.6514L6.32694 21.3654C6.81913 21.192 7.3535 21.1404 7.86913 21.2201L11.0473 21.7217C11.9519 21.8623 12.8848 21.7592 13.7332 21.4217L23.0004 17.742C23.7738 17.4373 24.1629 16.5795 23.8816 15.792ZM4.78475 22.1201L3.26131 22.6592C3.20975 22.6779 3.17225 22.6639 3.16756 22.6592L0.772252 15.9045C0.772252 15.8951 0.791002 15.8576 0.847252 15.8389L2.37069 15.2998C2.38944 15.2951 2.40819 15.2904 2.42225 15.2904C2.45038 15.2904 2.46444 15.2998 2.46913 15.2998L2.68475 15.9092L4.68163 21.5482C4.68163 21.5482 4.68163 21.5529 4.68631 21.5529L4.86444 22.0545C4.85975 22.0639 4.841 22.1014 4.78475 22.1201ZM22.7191 17.0482L13.4519 20.7279C12.7254 21.0139 11.9332 21.1029 11.1551 20.9857L7.97694 20.4842C7.33944 20.3857 6.6785 20.4467 6.06913 20.6623L5.25819 20.9482L3.79569 16.8139L3.51444 16.0123L7.85975 14.4748C8.07069 14.3998 8.29569 14.3857 8.516 14.4232L8.5535 14.4326H8.55819L12.5801 15.1732C12.6598 15.1873 12.7348 15.2154 12.8051 15.2482C13.016 15.3514 13.1848 15.5342 13.2644 15.7639C13.316 15.9139 13.3301 16.0686 13.3019 16.2279C13.2785 16.3592 13.2223 16.4811 13.1473 16.5889C13.1473 16.5889 13.1473 16.5936 13.1426 16.5936C12.941 16.8748 12.5894 17.0107 12.2519 16.9451L9.03163 16.3498C8.83006 16.3123 8.63319 16.4482 8.59569 16.6498C8.55819 16.8514 8.69413 17.0482 8.89569 17.0857L12.116 17.6811C12.2191 17.6998 12.3176 17.7092 12.4207 17.7092C12.8894 17.7092 13.3441 17.5029 13.6535 17.1514L22.2738 15.5295C22.4613 15.492 22.6535 15.5248 22.8176 15.6186C22.9863 15.717 23.1082 15.8623 23.1738 16.0451C23.3191 16.4482 23.1176 16.8889 22.7191 17.0482ZM6.39725 8.29668H7.79413C7.8785 8.57324 7.991 8.84512 8.12694 9.10293L7.13788 10.092C6.88944 10.3404 6.88944 10.7436 7.13788 10.9967L8.11756 11.9764C8.23944 12.0982 8.39413 12.1545 8.57225 12.1592C8.741 12.1592 8.90038 12.0889 9.01756 11.9717L10.0066 10.9826C10.2644 11.1186 10.5316 11.2311 10.8129 11.3154V12.717C10.8129 12.8857 10.8832 13.0451 11.0004 13.167C11.1223 13.2889 11.2769 13.3498 11.4504 13.3498H12.8379C13.0066 13.3498 13.166 13.2795 13.2879 13.1623C13.4098 13.0404 13.4754 12.8811 13.4707 12.7123V8.90606C13.4707 8.77481 13.4051 8.65762 13.2926 8.58731C13.1848 8.51699 13.0441 8.51231 12.9316 8.56856C12.8613 8.60606 12.7863 8.63418 12.716 8.65762C12.5285 8.71856 12.341 8.75137 12.1535 8.75137C11.966 8.75137 11.7644 8.71856 11.5723 8.65762C11.4926 8.62949 11.4176 8.59668 11.3519 8.56387C11.0004 8.39043 10.7144 8.10449 10.541 7.75293C10.5082 7.68262 10.4801 7.61231 10.4519 7.53262C10.3863 7.34981 10.3582 7.15762 10.3582 6.96543C10.3582 6.76387 10.391 6.57168 10.4473 6.40293C10.4754 6.32324 10.5082 6.24355 10.541 6.17324C10.7144 5.82637 11.0004 5.53574 11.3613 5.36231C11.3801 5.35293 11.3988 5.34356 11.4269 5.33418C11.4598 5.32012 11.4973 5.30606 11.5301 5.29199L11.5582 5.28262C11.7504 5.21699 11.9426 5.18887 12.1301 5.18887C12.3363 5.18887 12.5238 5.22168 12.7066 5.28262C12.7816 5.31074 12.8566 5.33887 12.9269 5.37637C12.9785 5.3998 13.0348 5.41387 13.091 5.41387C13.2973 5.41387 13.466 5.24512 13.466 5.03887V1.22793C13.466 1.05449 13.4004 0.895117 13.2785 0.773242C13.1566 0.651367 12.9926 0.585742 12.8285 0.585742H11.441C11.2723 0.585742 11.1129 0.656055 10.991 0.773242C10.8691 0.895117 10.8035 1.05918 10.8035 1.22793V2.6248C10.5269 2.70918 10.2551 2.82168 9.99725 2.95762L9.00819 1.96855C8.88631 1.84668 8.72694 1.78105 8.55819 1.78105H8.5535C8.38475 1.78105 8.22069 1.85137 8.1035 1.96855L7.12381 2.94355C6.88006 3.1873 6.87538 3.59043 7.12381 3.84824L8.11288 4.8373C7.97694 5.09512 7.86444 5.36231 7.78006 5.64356L6.3785 5.63887C6.02694 5.64356 5.74569 5.92949 5.74569 6.27637V7.66387C5.76444 8.01543 6.06444 8.30606 6.39725 8.29668ZM6.50975 6.38418L8.08475 6.38887C8.25819 6.38887 8.41288 6.26699 8.45038 6.09824C8.54413 5.69512 8.69881 5.32012 8.91444 4.97324C9.00819 4.82324 8.98475 4.63574 8.86288 4.50918L7.79881 3.44512L7.74725 3.39355L8.57225 2.57324L9.68319 3.68887C9.80506 3.81074 9.99725 3.83418 10.1473 3.74043C10.4988 3.5248 10.8785 3.36543 11.2769 3.27168C11.4457 3.23418 11.5676 3.07949 11.5676 2.90605V1.33105H12.7301V4.4998C12.5426 4.45762 12.3457 4.43418 12.1441 4.42949C11.8723 4.42949 11.6004 4.47637 11.3144 4.57012L11.2723 4.58418C11.2207 4.60293 11.1644 4.62637 11.1269 4.64512C11.0894 4.65918 11.0519 4.67793 11.0285 4.69199C10.5316 4.93574 10.1238 5.34355 9.87538 5.84512C9.8285 5.94355 9.791 6.04199 9.74881 6.1498C9.66444 6.40762 9.61756 6.67949 9.61756 6.96074C9.61756 7.24199 9.66444 7.51387 9.7535 7.76699C9.78631 7.87481 9.8285 7.97324 9.88006 8.07637C10.1238 8.57324 10.5316 8.98106 11.0379 9.23418C11.1363 9.28106 11.2348 9.32324 11.3473 9.36074C11.6191 9.44981 11.891 9.49199 12.1535 9.49199C12.3504 9.49199 12.5426 9.47324 12.7394 9.42637V12.5998H11.5769V11.0248C11.5769 10.8514 11.4551 10.7014 11.2863 10.6592C10.8879 10.5654 10.5129 10.4107 10.1613 10.1904C10.0113 10.0967 9.82381 10.1201 9.69725 10.242L8.58163 11.3576L7.74725 10.5467L8.86288 9.43106C8.98475 9.30918 9.00819 9.11699 8.91444 8.96699C8.69413 8.61543 8.53944 8.23574 8.44569 7.83731C8.40819 7.66856 8.2535 7.54668 8.08006 7.54668H6.50506V6.38418H6.50975ZM15.8801 13.167C16.7098 13.167 17.4082 12.5436 17.6098 11.6951C17.7973 11.742 17.9894 11.7654 18.1863 11.7654C19.6676 11.7654 20.8723 10.4342 20.8723 8.79356C20.8723 7.87012 20.4879 7.0123 19.841 6.45449C20.2254 5.99043 20.441 5.38106 20.441 4.73418C20.441 3.32324 19.4004 2.1748 18.1254 2.1748C17.9613 2.1748 17.8019 2.19355 17.6473 2.23105C17.5066 1.29824 16.766 0.581055 15.8801 0.581055C14.891 0.581055 14.0894 1.4623 14.0894 2.5498V11.1982C14.0848 12.2857 14.891 13.167 15.8801 13.167ZM14.8348 2.5498C14.8348 1.87949 15.3035 1.33105 15.8754 1.33105C16.4473 1.33105 16.916 1.87949 16.916 2.5498C16.916 2.60605 16.9113 2.6623 16.9019 2.71855C16.8504 3.00918 16.7426 3.28105 16.5832 3.51074C16.4426 3.71699 16.2598 3.88574 16.0535 4.00293C15.8754 4.10605 15.8144 4.33574 15.9176 4.51387C15.9879 4.63574 16.1144 4.70137 16.241 4.70137C16.3066 4.70137 16.3676 4.6873 16.4285 4.6498C16.7285 4.47637 16.9957 4.22793 17.1973 3.93262C17.3801 3.66543 17.516 3.35605 17.5957 3.02793C17.7644 2.95762 17.9379 2.92012 18.116 2.92012C18.9785 2.92012 19.6863 3.73105 19.6863 4.72949C19.6863 5.31074 19.4379 5.86387 19.0254 6.20605C18.7066 6.47324 18.3316 6.66074 17.9473 6.74512C17.6332 6.81543 17.3098 6.82012 16.991 6.75449C16.7894 6.71699 16.5926 6.84824 16.5504 7.04981C16.5129 7.25137 16.6441 7.44824 16.8457 7.49043C17.0426 7.52793 17.2394 7.54668 17.4363 7.54668C17.6613 7.54668 17.8816 7.52324 18.1019 7.47168C18.5144 7.38262 18.9082 7.19981 19.2644 6.94668C19.7894 7.35918 20.1129 8.03887 20.1129 8.77949C20.1129 10.0076 19.2457 11.0014 18.1769 11.0014C17.9941 11.0014 17.816 10.9732 17.6426 10.9123C17.6144 10.6639 17.5488 10.4201 17.441 10.1998C17.2629 9.82481 16.9769 9.50606 16.6301 9.30449C16.4519 9.20137 16.2223 9.26231 16.1191 9.44043C16.016 9.61856 16.0769 9.84824 16.2551 9.95137C16.3816 10.0217 16.6113 10.1951 16.766 10.5186C16.8832 10.767 16.9113 11.0107 16.9113 11.1701V11.1795C16.9113 11.8498 16.4426 12.3982 15.8707 12.3982C15.2988 12.3982 14.8301 11.8498 14.8301 11.1795V2.5498H14.8348Z" fill="url(#paint0_linear_14192_31152)"/>
</g>
<defs>
<linearGradient id="paint0_linear_14192_31152" x1="2.47761" y1="23.0255" x2="21.1726" y2="4.33059" gradientUnits="userSpaceOnUse">
<stop stop-color="#903EF5"/>
<stop offset="0.1425" stop-color="#8D42F5"/>
<stop offset="0.2762" stop-color="#844DF5"/>
<stop offset="0.4066" stop-color="#7460F5"/>
<stop offset="0.5347" stop-color="#5F7BF5"/>
<stop offset="0.6602" stop-color="#439DF4"/>
<stop offset="0.75" stop-color="#2BBAF4"/>
</linearGradient>
<clipPath id="clip0_14192_31152">
<rect width="24" height="24" fill="white"/>
</clipPath>
</defs>
</svg>
