<svg width="24" height="25" viewBox="0 0 24 25" fill="none" xmlns="http://www.w3.org/2000/svg">
<path d="M9 1.25H3C1.75736 1.25 0.75 2.25736 0.75 3.5V9.5C0.75 10.7426 1.75736 11.75 3 11.75H9C10.2426 11.75 11.25 10.7426 11.25 9.5V3.5C11.25 2.25736 10.2426 1.25 9 1.25Z" fill="#AEAEAE"/>
<path d="M9 13.25H3C1.75736 13.25 0.75 14.2574 0.75 15.5V21.5C0.75 22.7426 1.75736 23.75 3 23.75H9C10.2426 23.75 11.25 22.7426 11.25 21.5V15.5C11.25 14.2574 10.2426 13.25 9 13.25Z" fill="#AEAEAE"/>
<path d="M18 23.75C20.8995 23.75 23.25 21.3995 23.25 18.5C23.25 15.6005 20.8995 13.25 18 13.25C15.1005 13.25 12.75 15.6005 12.75 18.5C12.75 21.3995 15.1005 23.75 18 23.75Z" fill="#AEAEAE"/>
<path d="M21 1.25H15C13.7574 1.25 12.75 2.25736 12.75 3.5V9.5C12.75 10.7426 13.7574 11.75 15 11.75H21C22.2426 11.75 23.25 10.7426 23.25 9.5V3.5C23.25 2.25736 22.2426 1.25 21 1.25Z" fill="#AEAEAE"/>
</svg>
