<svg width="24" height="25" viewBox="0 0 24 25" fill="none" xmlns="http://www.w3.org/2000/svg">
<g clip-path="url(#clip0_8882_4218)">
<path d="M8.53088 7.65181C10.7509 6.74689 13.2491 6.74689 15.4691 7.65181C15.2211 6.02492 14.4655 4.52403 13.2806 3.33912C12.8904 2.94898 12.4606 2.60272 12 2.30469C11.5394 2.60272 11.1095 2.94898 10.7193 3.33912C9.53452 4.52403 8.77885 6.02492 8.53088 7.65181Z" fill="#AEAEAE"/>
<path d="M19.7694 15.7633C19.6737 13.8335 18.8773 12.0334 17.501 10.6571C17.3037 10.4598 17.0958 10.2742 16.8795 10.0996C16.6103 12.0754 15.7096 13.9003 14.2749 15.335C14.0031 15.6068 13.7146 15.8603 13.4124 16.0953C15.4675 16.8895 17.7904 16.7783 19.7694 15.7633Z" fill="#AEAEAE"/>
<path d="M4.23059 15.7633C5.3412 16.333 6.56018 16.6189 7.7795 16.619C8.73289 16.619 9.68595 16.4439 10.5877 16.0953C10.2854 15.8603 9.99692 15.6068 9.72509 15.335C8.29039 13.9003 7.38978 12.0754 7.12053 10.0996C6.9042 10.2741 6.69636 10.4598 6.49906 10.6571C5.12276 12.0333 4.32631 13.8335 4.23059 15.7633Z" fill="#AEAEAE"/>
<path d="M21.7214 3.3389C19.5227 1.14028 16.2444 0.487073 13.412 1.58287C13.7146 1.81809 14.0028 2.07248 14.275 2.34459C15.9106 3.9802 16.8539 6.12567 16.956 8.42273C17.5105 8.77865 18.027 9.19467 18.4953 9.66309C19.9302 11.098 20.8316 12.9228 21.1007 14.899C21.3168 14.7245 21.5242 14.5382 21.7214 14.341C23.1908 12.8715 24 10.9179 24 8.83992C24 6.7619 23.1908 4.80829 21.7214 3.3389Z" fill="#AEAEAE"/>
<path d="M0 8.83991C0 10.9179 0.809203 12.8715 2.27859 14.3409C2.47584 14.5382 2.68313 14.7245 2.89931 14.8989C3.16842 12.9228 4.06973 11.0979 5.50462 9.66304C5.973 9.19462 6.48952 8.7786 7.044 8.42268C7.14614 6.12562 8.08941 3.98015 9.72502 2.34454C9.99712 2.07243 10.2854 1.81809 10.588 1.58287C9.684 1.23313 8.73436 1.06152 7.78912 1.06152C5.77266 1.06152 3.77555 1.8419 2.27859 3.33885C0.809203 4.80829 0 6.7619 0 8.83991Z" fill="#AEAEAE"/>
<path d="M16.2205 18.0253C14.77 18.0254 13.3201 17.6841 12 17.001C9.60601 18.2398 6.78291 18.3544 4.3103 17.3475C4.55832 18.9743 5.31413 20.4749 6.49894 21.6597C7.96833 23.1291 9.92194 23.9383 12 23.9383C14.078 23.9383 16.0316 23.1291 17.501 21.6597C18.6858 20.4749 19.4416 18.9743 19.6896 17.3475C18.5806 17.7992 17.4002 18.0252 16.2205 18.0253Z" fill="#AEAEAE"/>
<path d="M8.45068 9.2336C8.54607 11.1639 9.34281 12.9643 10.7194 14.3409C11.1097 14.7312 11.5392 15.0784 12 15.3766C12.4608 15.0784 12.8904 14.7312 13.2806 14.3409C14.6572 12.9643 15.4539 11.1639 15.5493 9.2336C13.3259 8.09271 10.6742 8.09271 8.45068 9.2336Z" fill="#AEAEAE"/>
</g>
<defs>
<clipPath id="clip0_8882_4218">
<rect width="24" height="24" fill="white" transform="translate(0 0.5)"/>
</clipPath>
</defs>
</svg>
