<svg width="24" height="23" viewBox="0 0 24 23" fill="none" xmlns="http://www.w3.org/2000/svg">
<path d="M8.53076 6.65181C10.7508 5.74689 13.249 5.74689 15.469 6.65181C15.221 5.02492 14.4654 3.52403 13.2805 2.33912C12.8903 1.94898 12.4604 1.60272 11.9998 1.30469C11.5392 1.60272 11.1094 1.94898 10.7192 2.33912C9.5344 3.52403 8.77873 5.02492 8.53076 6.65181Z" fill="white"/>
<path d="M19.7694 14.7633C19.6737 12.8335 18.8773 11.0334 17.501 9.65709C17.3037 9.4598 17.0958 9.27417 16.8795 9.09961C16.6103 11.0754 15.7096 12.9003 14.2749 14.335C14.0031 14.6068 13.7146 14.8603 13.4124 15.0953C15.4675 15.8895 17.7904 15.7783 19.7694 14.7633Z" fill="white"/>
<path d="M4.23047 14.7633C5.34108 15.333 6.56006 15.6189 7.77938 15.619C8.73277 15.619 9.68583 15.4439 10.5876 15.0953C10.2853 14.8603 9.9968 14.6068 9.72497 14.335C8.29027 12.9003 7.38966 11.0754 7.12041 9.09961C6.90408 9.27413 6.69623 9.4598 6.49894 9.65709C5.12264 11.0333 4.32619 12.8335 4.23047 14.7633Z" fill="white"/>
<path d="M21.7215 2.3389C19.5228 0.140276 16.2445 -0.512927 13.4121 0.58287C13.7147 0.818089 14.003 1.07248 14.2751 1.34459C15.9107 2.9802 16.854 5.12567 16.9561 7.42273C17.5106 7.77865 18.0271 8.19467 18.4955 8.66309C19.9304 10.098 20.8317 11.9228 21.1008 13.899C21.317 13.7245 21.5243 13.5382 21.7215 13.341C23.1909 11.8715 24.0001 9.91793 24.0001 7.83992C24.0001 5.7619 23.1909 3.80829 21.7215 2.3389Z" fill="white"/>
<path d="M0 7.83991C0 9.91793 0.809203 11.8715 2.27859 13.3409C2.47584 13.5382 2.68313 13.7245 2.89931 13.8989C3.16842 11.9228 4.06973 10.0979 5.50462 8.66304C5.973 8.19462 6.48952 7.7786 7.044 7.42268C7.14614 5.12562 8.08941 2.98015 9.72502 1.34454C9.99712 1.07243 10.2854 0.818086 10.588 0.582867C9.684 0.233133 8.73436 0.0615234 7.78912 0.0615234C5.77266 0.0615234 3.77555 0.841898 2.27859 2.33885C0.809203 3.80829 0 5.7619 0 7.83991Z" fill="white"/>
<path d="M16.2205 17.0253C14.77 17.0254 13.3201 16.6841 12 16.001C9.60601 17.2398 6.78291 17.3544 4.3103 16.3475C4.55832 17.9743 5.31413 19.4749 6.49894 20.6597C7.96833 22.1291 9.92194 22.9383 12 22.9383C14.078 22.9383 16.0316 22.1291 17.501 20.6597C18.6858 19.4749 19.4416 17.9743 19.6896 16.3475C18.5806 16.7992 17.4002 17.0252 16.2205 17.0253Z" fill="white"/>
<path d="M8.45068 8.2336C8.54607 10.1639 9.34281 11.9643 10.7194 13.3409C11.1097 13.7312 11.5392 14.0784 12 14.3766C12.4608 14.0784 12.8904 13.7312 13.2806 13.3409C14.6572 11.9643 15.4539 10.1639 15.5493 8.2336C13.3259 7.09271 10.6742 7.09271 8.45068 8.2336Z" fill="white"/>
</svg>
