<svg width="24" height="25" viewBox="0 0 24 25" fill="none" xmlns="http://www.w3.org/2000/svg">
<g clip-path="url(#clip0_9106_5482)">
<path fill-rule="evenodd" clip-rule="evenodd" d="M12 24.5C11.9531 24.5 11.9531 24.5 11.9062 24.4531C7.3125 22.7188 4.26562 19.9531 2.67188 15.9688C1.125 12.2656 1.03125 7.90625 1.03125 4.10938C1.03125 4.01562 1.03125 3.92188 1.07812 3.875C1.17188 3.82812 1.21875 3.82812 1.3125 3.82812H2.39062C8.53125 3.82812 11.7656 0.640625 11.8125 0.59375C11.8594 0.546875 11.9062 0.5 12 0.5C12.0938 0.5 12.1406 0.546875 12.1875 0.59375C12.1875 0.59375 13.0312 1.4375 14.5781 2.23438C16.0312 2.98438 18.4219 3.82812 21.6094 3.82812H22.6875C22.7812 3.82812 22.8281 3.82812 22.9219 3.875C22.9688 3.92188 22.9688 4.01562 22.9688 4.10938C22.9688 7.90625 22.875 12.2656 21.3281 15.9688C19.7344 19.9531 16.6875 22.7188 12.0938 24.4531C12.0469 24.5 12.0469 24.5 12 24.5ZM12 21.1719C11.9531 21.1719 11.9531 21.1719 11.9062 21.125C4.64062 18.3594 4.03125 12.6406 4.03125 6.5C4.03125 6.40625 4.07812 6.3125 4.125 6.26562C4.21875 6.21875 4.26562 6.21875 4.35938 6.21875H5.10938C9.46875 6.21875 11.7656 3.92188 11.8125 3.92188C11.8594 3.875 11.9062 3.82812 12 3.82812C12.0938 3.82812 12.1406 3.875 12.1875 3.92188C12.1875 3.92188 12.7969 4.48438 13.875 5.09375C14.9062 5.60938 16.5938 6.21875 18.8906 6.21875H19.6406C19.7344 6.21875 19.7812 6.21875 19.875 6.26562C19.9219 6.3125 19.9688 6.40625 19.9688 6.5C19.9688 12.6406 19.3594 18.3594 12.0938 21.125C12.0469 21.1719 12.0469 21.1719 12 21.1719ZM10.8281 15.0781C10.7344 15.0781 10.6406 15.0312 10.5938 14.9844L8.39062 12.7812C8.29688 12.6875 8.29688 12.5 8.39062 12.4062C8.53125 12.2656 8.67188 12.2656 8.8125 12.4062L10.8281 14.4219L15.1875 10.0156C15.3281 9.875 15.4688 9.875 15.6094 10.0156C15.7031 10.1094 15.7031 10.2969 15.6094 10.3906L11.0156 14.9844C10.9688 15.0312 10.875 15.0781 10.8281 15.0781ZM4.59375 6.78125C4.64062 12.7812 5.29688 17.9375 12 20.5625C18.7031 17.9375 19.3594 12.7812 19.4062 6.78125C19.2188 6.78125 19.0312 6.78125 18.8906 6.78125C16.5 6.78125 14.6719 6.125 13.5938 5.5625C12.7969 5.14062 12.2812 4.71875 12 4.48438C11.7188 4.71875 11.2031 5.14062 10.4062 5.5625C9.32812 6.125 7.5 6.78125 5.10938 6.78125C4.96875 6.78125 4.78125 6.78125 4.59375 6.78125Z" fill="white"/>
</g>
<defs>
<clipPath id="clip0_9106_5482">
<rect width="24" height="24" fill="white" transform="translate(0 0.5)"/>
</clipPath>
</defs>
</svg>
