<svg width="24" height="24" viewBox="0 0 24 24" fill="none" xmlns="http://www.w3.org/2000/svg">
<path fill-rule="evenodd" clip-rule="evenodd" d="M12 24C11.9531 24 11.9531 24 11.9062 23.9531C7.3125 22.2188 4.26562 19.4531 2.67188 15.4688C1.125 11.7656 1.03125 7.40625 1.03125 3.60938C1.03125 3.51562 1.03125 3.42188 1.07812 3.375C1.17188 3.32812 1.21875 3.32812 1.3125 3.32812H2.39062C8.53125 3.32812 11.7656 0.140625 11.8125 0.09375C11.8594 0.046875 11.9062 0 12 0C12.0938 0 12.1406 0.046875 12.1875 0.09375C12.1875 0.09375 13.0312 0.9375 14.5781 1.73438C16.0312 2.48438 18.4219 3.32812 21.6094 3.32812H22.6875C22.7812 3.32812 22.8281 3.32812 22.9219 3.375C22.9688 3.42188 22.9688 3.51562 22.9688 3.60938C22.9688 7.40625 22.875 11.7656 21.3281 15.4688C19.7344 19.4531 16.6875 22.2188 12.0938 23.9531C12.0469 24 12.0469 24 12 24ZM12 20.6719C11.9531 20.6719 11.9531 20.6719 11.9062 20.625C4.64062 17.8594 4.03125 12.1406 4.03125 6C4.03125 5.90625 4.07812 5.8125 4.125 5.76562C4.21875 5.71875 4.26562 5.71875 4.35938 5.71875H5.10938C9.46875 5.71875 11.7656 3.42188 11.8125 3.42188C11.8594 3.375 11.9062 3.32812 12 3.32812C12.0938 3.32812 12.1406 3.375 12.1875 3.42188C12.1875 3.42188 12.7969 3.98438 13.875 4.59375C14.9062 5.10938 16.5938 5.71875 18.8906 5.71875H19.6406C19.7344 5.71875 19.7812 5.71875 19.875 5.76562C19.9219 5.8125 19.9688 5.90625 19.9688 6C19.9688 12.1406 19.3594 17.8594 12.0938 20.625C12.0469 20.6719 12.0469 20.6719 12 20.6719ZM10.8281 14.5781C10.7344 14.5781 10.6406 14.5312 10.5938 14.4844L8.39062 12.2812C8.29688 12.1875 8.29688 12 8.39062 11.9062C8.53125 11.7656 8.67188 11.7656 8.8125 11.9062L10.8281 13.9219L15.1875 9.51562C15.3281 9.375 15.4688 9.375 15.6094 9.51562C15.7031 9.60938 15.7031 9.79688 15.6094 9.89062L11.0156 14.4844C10.9688 14.5312 10.875 14.5781 10.8281 14.5781ZM4.59375 6.28125C4.64062 12.2812 5.29688 17.4375 12 20.0625C18.7031 17.4375 19.3594 12.2812 19.4062 6.28125C19.2188 6.28125 19.0312 6.28125 18.8906 6.28125C16.5 6.28125 14.6719 5.625 13.5938 5.0625C12.7969 4.64062 12.2812 4.21875 12 3.98438C11.7188 4.21875 11.2031 4.64062 10.4062 5.0625C9.32812 5.625 7.5 6.28125 5.10938 6.28125C4.96875 6.28125 4.78125 6.28125 4.59375 6.28125Z" fill="#AEAEAE"/>
</svg>
