<svg width="24" height="24" viewBox="0 0 24 24" fill="none" xmlns="http://www.w3.org/2000/svg">
<path d="M2.47055 23.3288C2.47055 23.4699 2.61173 23.5758 2.71761 23.5758H2.75291C7.51761 23.1876 13.1647 23.5405 18.3176 23.3993C18.3882 23.3993 18.4588 23.364 18.4941 23.3288C18.4941 23.3288 18.4941 23.3288 18.4941 23.2935C18.8117 23.1876 19.0588 23.0464 19.3411 22.9405V3.63464C19.0588 3.2817 18.7058 2.99934 18.3176 2.78758C18.3176 2.75229 18.3176 2.6817 18.3176 2.6464C18.3176 2.54052 18.2117 2.43464 18.0706 2.39934C15.9529 2.11699 13.8 2.25817 11.7529 2.39934C9.67055 2.54052 7.72938 2.6464 5.82349 2.39934H5.7882C5.1882 2.39934 4.62349 2.6817 4.23526 3.14052C3.67055 3.8817 3.17644 4.55229 2.64702 5.25817C2.39997 5.61111 2.25879 5.99934 2.25879 6.45817C2.61173 12.6699 2.01173 18.7052 2.47055 23.3288ZM11.8235 2.89346C13.8 2.75229 15.847 2.6464 17.8588 2.85817C18.6 9.81111 17.7882 17.0111 18.0353 22.8346C12.847 23.0111 7.76467 22.6582 2.96467 23.0111C2.57644 18.4229 3.14114 12.917 2.82349 6.59935L5.36467 6.70523C5.82349 6.74052 6.17644 6.35229 6.10585 5.89346L5.71761 2.89346H5.7882C7.76467 3.17582 9.74114 3.03464 11.8235 2.89346ZM4.69408 3.45817C4.83526 3.2817 5.01173 3.14052 5.22349 3.03464L5.57644 5.96405C5.57644 6.06993 5.50585 6.17582 5.36467 6.17582L2.82349 6.06993C2.85879 5.89346 2.92938 5.71699 3.07055 5.57582C3.63526 4.83464 4.12938 4.19934 4.69408 3.45817Z" fill="#3E0967"/>
<path d="M5.39991 10.2715C4.90579 10.3068 4.44696 10.8009 4.48226 11.295C4.51755 11.7891 4.97638 12.248 5.47049 12.2127C5.96461 12.2127 6.42344 11.7185 6.42344 11.2244C6.42344 10.7303 5.96461 10.2715 5.4352 10.2715H5.39991Z" fill="#3E0967"/>
<path d="M5.43523 16.3064C5.92935 16.3064 6.38817 15.8123 6.38817 15.3182C6.38817 14.8241 5.92935 14.3652 5.39994 14.3652H5.32935C4.83523 14.4005 4.37641 14.8946 4.4117 15.3888C4.447 15.8829 4.94111 16.3064 5.43523 16.3064Z" fill="#3E0967"/>
<path d="M5.47049 18.2832H5.39991C4.90579 18.3185 4.44696 18.8126 4.48226 19.3067C4.51755 19.8009 4.97638 20.2597 5.47049 20.2244C5.96461 20.2244 6.42344 19.7303 6.42344 19.2361C6.45873 18.742 5.99991 18.2832 5.47049 18.2832Z" fill="#3E0967"/>
<path d="M8.68238 11.4006H14.8236C14.9647 11.4006 15.1059 11.2948 15.1059 11.1183C15.1059 10.9418 15 10.8359 14.8236 10.8359H8.68238C8.5412 10.8359 8.40002 10.9418 8.40002 11.1183C8.40002 11.2948 8.5412 11.4006 8.68238 11.4006Z" fill="#3E0967"/>
<path d="M8.39991 15.6702H12.6705C12.8117 15.6702 12.9528 15.5643 12.9528 15.3878C12.9528 15.2114 12.847 15.1055 12.6705 15.1055H8.39991C8.25873 15.1055 8.11755 15.2114 8.11755 15.3878C8.11755 15.5643 8.25873 15.6702 8.39991 15.6702Z" fill="#3E0967"/>
<path d="M8.32935 19.588H13.0588C13.1999 19.588 13.3411 19.4821 13.3411 19.3057C13.3411 19.1292 13.2352 19.0586 13.0588 19.0586H8.32935C8.18817 19.0586 8.047 19.1645 8.047 19.3409C8.047 19.5174 8.18817 19.588 8.32935 19.588Z" fill="#3E0967"/>
<path d="M19.0588 1.94134L19.2 0.741337C19.2 0.600161 19.0941 0.458984 18.9529 0.458984C18.8118 0.458984 18.6706 0.564867 18.6706 0.706043L18.5294 1.90604C18.5294 2.04722 18.6353 2.1884 18.7765 2.1884C18.9177 2.1884 19.0588 2.08251 19.0588 1.94134Z" fill="#3E0967"/>
<path d="M20.7529 0.987897L19.7293 2.22319C19.6235 2.32907 19.6587 2.50554 19.7646 2.61143C19.8705 2.71731 20.047 2.68202 20.1529 2.57613L21.1764 1.34084C21.2823 1.23496 21.247 1.05849 21.1411 0.952603C21.0352 0.846721 20.8587 0.882015 20.7529 0.987897Z" fill="#3E0967"/>
<path d="M20.1882 3.28235C20.1882 3.42353 20.2941 3.56471 20.4706 3.56471H21.4588C21.6 3.56471 21.7412 3.45882 21.7412 3.28235C21.7412 3.10588 21.6353 3 21.4588 3H20.4706C20.2941 3.03529 20.1882 3.14118 20.1882 3.28235Z" fill="#3E0967"/>
</svg>
