<svg width="24" height="24" viewBox="0 0 24 24" fill="none" xmlns="http://www.w3.org/2000/svg">
<path d="M17.9321 3.0802C18.2491 2.85378 18.385 2.44623 18.385 2.08397C18.385 1.72171 18.2038 1.35944 17.8868 1.13303C17.751 1.04246 17.5699 0.951894 17.3887 0.906611C17.2982 0.906611 17.2076 0.861328 17.117 0.861328H16.8906L15.3057 0.906611C14.2189 0.951894 13.1321 1.04246 12.0001 1.13303C13.0868 1.22359 14.1736 1.31416 15.3057 1.35944L16.9359 1.45001H17.117C17.1623 1.45001 17.2076 1.45001 17.2529 1.49529C17.3435 1.54057 17.434 1.58586 17.4793 1.63114C17.6152 1.76699 17.7057 1.90284 17.6604 2.08397C17.6604 2.2651 17.5699 2.40095 17.434 2.49152C17.3435 2.58208 17.2076 2.58208 17.117 2.58208H16.9359H16.7548C16.7095 2.5368 16.6642 2.5368 16.5736 2.5368C15.5774 2.5368 14.5812 2.5368 13.585 2.5368H12.0001H10.3246C9.37364 2.5368 8.37741 2.5368 7.42647 2.5368C7.38119 2.5368 7.29062 2.5368 7.24534 2.58208H7.06421H6.88307C6.83779 2.58208 6.79251 2.58208 6.74723 2.58208C6.65666 2.58208 6.61138 2.5368 6.52081 2.49152C6.38496 2.40095 6.2944 2.21982 6.2944 2.08397C6.2944 1.90284 6.33968 1.72171 6.47553 1.63114C6.56609 1.54057 6.70194 1.49529 6.83779 1.49529C6.97364 1.49529 8.78496 1.40472 8.6944 1.40472C9.78119 1.35944 10.868 1.26888 12.0001 1.17831C10.9133 1.08774 9.82647 0.997177 8.6944 0.951894L7.06421 0.861328H6.83779C6.56609 0.861328 6.2944 0.951894 6.06798 1.13303C5.751 1.35944 5.56987 1.72171 5.56987 2.08397C5.56987 2.44623 5.751 2.85378 6.0227 3.0802C6.15855 3.21605 6.33968 3.30661 6.52081 3.35189C6.61138 3.39718 6.70194 3.39718 6.79251 3.39718C6.61138 4.12171 6.52081 4.84623 6.52081 5.57076C6.56609 6.47642 6.79251 7.38208 7.15477 8.24246C7.51704 9.05756 8.06043 9.82737 8.73968 10.4613L10.3699 12.0462L8.83025 13.5859C8.19628 14.2198 7.69817 14.9896 7.33591 15.8047C7.01892 16.6198 6.79251 17.5255 6.79251 18.4311C6.79251 19.1557 6.92836 19.8802 7.10949 20.5594H6.88307C6.83779 20.5594 6.70194 20.5594 6.61138 20.6047C6.20383 20.6953 5.88685 20.9217 5.70572 21.284C5.52458 21.6462 5.52458 22.0538 5.66043 22.3708C5.79628 22.733 6.11326 23.0047 6.47553 23.0953C6.65666 23.1406 6.88307 23.1406 6.97364 23.1406H7.38119L9.05666 23.0953C10.1435 23.05 11.2302 22.9594 12.3623 22.8689C11.2755 22.7783 10.1887 22.6877 9.05666 22.6425L7.42647 22.5519C7.15477 22.5519 6.83779 22.5519 6.70194 22.5066C6.52081 22.4613 6.38496 22.3255 6.33968 22.1443C6.20383 21.8274 6.47553 21.4651 6.79251 21.4198H6.92836C6.97364 21.4198 7.6076 21.4198 7.56232 21.4198H8.37741L11.6831 21.4651L14.9887 21.4198L16.6189 21.3745C16.8906 21.3745 17.2076 21.3293 17.3435 21.3745C17.4793 21.4198 17.6604 21.5104 17.7057 21.6915C17.8868 22.0085 17.6604 22.4613 17.2982 22.5066C17.2076 22.5066 17.0718 22.5066 16.9359 22.5519C16.8906 22.5519 15.6227 22.5972 15.7133 22.5972C14.6265 22.6425 13.5397 22.733 12.4076 22.8236C13.4944 22.9142 14.5812 23.0047 15.7133 23.05C15.7585 23.05 17.0265 23.0953 16.9359 23.0953C17.0718 23.0953 17.2076 23.1406 17.3887 23.0953C17.751 23.05 18.068 22.8236 18.2491 22.5066C18.4302 22.1896 18.4755 21.7821 18.3397 21.4198C18.2038 21.0576 17.8868 20.7859 17.5246 20.65C17.3435 20.6047 17.117 20.6047 17.0265 20.6047H16.8906C17.117 19.9255 17.2529 19.1557 17.2076 18.4311C17.2076 17.5255 17.0265 16.6651 16.6642 15.8047C16.3019 14.9896 15.8038 14.2198 15.1699 13.5859L13.6302 12.001L15.2604 10.416C15.8944 9.78208 16.4378 9.01227 16.8453 8.19718C17.2076 7.3368 17.434 6.43114 17.4793 5.52548C17.5246 4.80095 17.434 4.07642 17.2076 3.35189C17.2982 3.35189 17.3887 3.35189 17.4793 3.30661C17.6152 3.26133 17.7963 3.17076 17.9321 3.0802ZM16.0302 7.8802C15.7133 8.60472 15.2604 9.32925 14.6718 9.87265C14.5812 9.96322 12.7699 11.8198 12.8604 11.7293C12.7246 11.8651 12.7246 12.0915 12.8604 12.2274L14.717 14.0387C15.3057 14.6274 15.8038 15.3066 16.1661 16.0311C16.5284 16.801 16.7095 17.616 16.7548 18.4311C16.8001 19.1557 16.7095 19.8802 16.5284 20.5594L14.9435 20.6047L11.6378 20.5594L8.33213 20.6047C8.28685 20.6047 7.38119 20.6047 7.42647 20.6047C7.24534 19.9255 7.15477 19.201 7.20006 18.4764C7.24534 17.6613 7.47175 16.801 7.78874 16.0764C8.151 15.3066 8.64911 14.6274 9.23779 14.084C9.37364 13.9481 11.1397 12.2274 11.0944 12.2726C11.2302 12.1368 11.2302 11.9104 11.0944 11.7745C11.0491 11.7293 9.23779 9.87265 9.28307 9.91793C8.6944 9.32925 8.24157 8.65001 7.92458 7.92548C7.6076 7.15567 7.42647 6.38586 7.42647 5.57076C7.38119 4.84623 7.51704 4.16699 7.74345 3.48774H10.1435H12.0001H13.7661H16.2567C16.4831 4.16699 16.5736 4.89152 16.5284 5.57076C16.5284 6.34057 16.3472 7.11039 16.0302 7.8802Z" fill="#3E0967"/>
<path d="M14.2643 16.1677C14.7171 16.9828 14.8982 17.9337 14.8529 18.8394C13.902 18.7941 12.951 18.7941 12.0454 18.7941C11.0944 18.7941 10.1435 18.7941 9.23784 18.8394C9.19256 17.9337 9.37369 16.9828 9.82652 16.1677C10.5963 16.1224 11.3209 16.0318 12.0907 15.9413C11.2756 15.8507 10.5058 15.7601 9.69067 15.7148C9.64539 15.7148 9.55482 15.7148 9.50954 15.8054V15.8507C8.78501 16.8016 8.42274 18.0696 8.51331 19.3375C8.51331 19.5186 8.69444 19.6997 8.87558 19.6997H8.92086C9.96237 19.745 11.0492 19.745 12.0907 19.745C13.1322 19.745 14.219 19.745 15.2605 19.6997H15.3058C15.4869 19.6997 15.668 19.5639 15.668 19.3375C15.7586 18.0696 15.3963 16.8469 14.6718 15.8507V15.8054C14.6265 15.7601 14.5812 15.7148 14.4907 15.7148C13.6756 15.7601 12.9058 15.8507 12.0907 15.9413C12.7699 16.0318 13.4944 16.1224 14.2643 16.1677Z" fill="#3E0967"/>
<path d="M15.2152 4.34802C14.1284 4.30273 13.0869 4.30273 12.0001 4.30273C10.9586 4.30273 9.87176 4.30273 8.83025 4.34802H8.78497C8.60384 4.34802 8.4227 4.52915 8.4227 4.71028C8.37742 5.34424 8.4227 5.97821 8.60384 6.56689C8.78497 7.15556 9.05667 7.74424 9.41893 8.24236C9.60006 8.51406 9.82648 8.74047 10.0076 8.9216C10.234 9.14802 10.4604 9.32915 10.6869 9.51028C11.1397 9.87255 11.5925 10.2801 12.0453 10.6424C10.6869 8.9216 10.234 8.60462 9.87176 7.97066C9.60006 7.47255 9.41893 6.97443 9.28308 6.43104C9.19252 6.02349 9.19252 5.61594 9.19252 5.20839C10.1435 5.25368 11.0491 5.20839 12.0001 5.25368C12.951 5.25368 13.8567 5.25368 14.8076 5.20839C14.8529 6.15934 14.6265 7.11028 14.1736 7.97066C13.9019 8.46877 13.5397 8.87632 13.1321 9.32915C12.7699 9.78198 12.3623 10.2348 12.0001 10.6876C12.4529 10.3254 12.9057 9.96311 13.3586 9.55556C13.585 9.37443 13.8114 9.1933 14.0378 8.96688C14.2642 8.74047 14.4453 8.51405 14.6265 8.28764C14.9887 7.78953 15.2604 7.20085 15.4416 6.61217C15.6227 6.02349 15.668 5.38953 15.6227 4.75556C15.5774 4.48387 15.4416 4.34802 15.2152 4.34802Z" fill="#3E0967"/>
</svg>
