<svg width="24" height="24" viewBox="0 0 24 24" fill="none" xmlns="http://www.w3.org/2000/svg">
<g clip-path="url(#clip0_9308_7218)">
<path d="M13.7885 15.7884C13.5478 15.9473 13.4814 16.2711 13.6402 16.5118C13.7989 16.7525 14.1228 16.8189 14.3635 16.6602C16.1815 15.5219 17.5795 13.8044 17.3777 11.5476C16.7743 6.19084 9.76918 4.2676 7.31729 9.51812C7.11455 9.87573 7.2594 10.337 7.63074 10.5142C7.98718 10.686 8.41538 10.5362 8.58713 10.1798C10.6044 5.17018 16.9533 8.00537 16.4565 12.6607C16.229 14.1051 15.0639 15.1848 13.7885 15.7884Z" fill="#3E0967"/>
<path d="M23.1112 10.0402C22.5158 9.46147 21.6736 9.20549 20.8611 9.23015C20.2359 8.99362 19.9999 8.67697 20.3985 8.07336C21.2134 6.89554 21.957 5.40557 20.9033 4.11426C20.8435 4.03105 20.7808 3.95118 20.7162 3.87374C20.7617 3.67593 20.7201 3.45046 20.5436 3.23863C18.09 0.551849 16.0176 4.93818 15.3243 3.31668C15.1346 2.35522 15.2861 1.08383 14.2064 0.552084C12.6166 -0.338447 10.1052 -0.259744 9.24216 1.59172C9.06582 2.12549 9.08438 2.77096 8.87166 3.2383C8.2523 4.30447 6.2453 1.20557 4.17333 2.91262C0.922927 5.42137 4.08858 7.09152 3.85801 8.55688C3.30169 9.37883 1.89033 8.89218 0.937177 9.89966C0.258427 10.5246 0.271411 11.5137 0.326302 12.3658C0.411943 13.3616 0.909755 14.3513 1.96051 14.6018C2.37094 14.6905 2.52821 14.107 2.12668 13.9793C0.876193 13.6311 0.845396 11.7316 1.24205 10.7454C1.79513 9.77296 3.13655 10.0928 3.9683 9.60004C5.94521 8.39929 3.70224 6.75243 3.65879 5.25993C3.68574 4.56135 4.28063 4.05121 4.82119 3.67194C6.0226 2.81957 7.07368 4.36583 8.25919 4.5508C9.78896 4.82272 10.1334 3.18721 10.2969 2.04707C10.9228 0.915974 12.5577 1.06686 13.5669 1.61952C14.1812 1.99311 13.8099 3.13846 14.1068 3.7829C14.5016 4.77665 15.5196 5.38377 16.5437 4.88052C17.1535 4.61971 17.6692 4.17374 18.2348 3.90632C18.7792 3.64335 19.0907 3.74352 19.4655 4.18082C19.6793 4.41332 19.9334 4.47299 20.1579 4.42302C21.9425 6.5324 17.6342 8.18572 20.1371 9.84894C20.3625 9.96172 20.557 10.1035 20.8049 10.1118C22.089 10.0488 23.1527 10.9256 22.9306 12.2647C22.8643 13.8541 20.5353 13.5928 19.5318 14.479C17.759 16.1965 20.6322 17.699 20.085 18.8C19.7528 19.5785 19.2209 20.1392 18.3044 19.9026C17.6814 19.7674 17.1017 19.371 16.5496 19.0308C15.7422 18.6171 14.6341 18.9392 14.286 19.8243C13.8715 20.5958 13.9973 21.5218 13.5074 22.2274C12.8321 22.9658 11.0855 22.9245 10.7192 21.8648C10.5575 21.3932 9.86391 21.5514 9.93451 22.0554C10.0791 22.9918 10.9533 23.6413 11.8453 23.7948C13.0517 24.0445 14.4962 23.5154 14.9521 22.2964C15.2357 21.6583 15.2336 20.802 15.6715 20.2679C16.0907 20.3042 16.4279 20.7116 16.835 20.8641C18.3196 21.641 19.9595 21.6201 20.9245 20.0841C21.5915 19.1332 21.6495 17.9494 20.9102 17.0391C20.6011 16.5279 19.9032 16.006 20.1699 15.4038C20.5102 15.0207 21.0622 14.9248 21.5398 14.7414C22.5148 14.4206 23.5703 13.9413 23.8221 12.8262C24.0269 11.8643 23.9101 10.8098 23.1112 10.0402Z" fill="#3E0967"/>
<path d="M9.74292 13.2416C7.58573 12.0037 5.80227 14.6011 4.45996 15.9298C3.78684 16.6884 2.9391 17.1538 2.31041 17.941C1.03795 19.4233 0.391352 21.3318 0.104946 23.2274C-0.00230402 23.6989 0.467149 24.1236 0.925868 23.9663C1.27274 23.8521 1.62252 23.7367 1.97845 23.6287C3.08821 23.2885 4.22081 22.9474 5.27826 22.455C5.85576 21.9656 6.44685 21.5019 7.0596 21.0532C9.71981 19.2281 13.3173 16.2132 9.74292 13.2416ZM4.85915 21.7647C3.79059 21.9695 2.73173 22.2091 1.66401 22.427C2.07881 20.8819 2.78099 19.3797 3.93065 18.2458C4.76615 17.5651 5.43885 16.7414 6.11863 15.9259C7.11426 16.6919 8.12043 17.4984 9.16092 18.1901C9.1679 18.195 9.17498 18.1991 9.18206 18.2033C7.91052 19.5583 6.23671 20.5165 4.85915 21.7647ZM9.5999 17.7236C9.59437 17.7166 9.5887 17.7096 9.58237 17.7028C8.75343 16.7734 7.8839 15.8013 7.05182 14.8685C7.7744 14.1525 8.71668 13.4502 9.57295 14.3823C10.4382 15.2881 10.5186 16.507 9.76556 17.5111C9.71165 17.5832 9.6561 17.6538 9.5999 17.7236Z" fill="#3E0967"/>
</g>
<defs>
<clipPath id="clip0_9308_7218">
<rect width="24" height="24" fill="white"/>
</clipPath>
</defs>
</svg>
