<svg width="24" height="24" viewBox="0 0 24 24" fill="none" xmlns="http://www.w3.org/2000/svg">
<path d="M7.64292 15.7589C7.64257 15.7619 7.64327 15.7546 7.64327 15.7539C7.64337 15.7541 7.64292 15.7586 7.64292 15.7589Z" fill="#3E0967"/>
<path d="M6.04421 3.24578C6.05953 3.23191 6.05237 3.2226 6.04801 3.20796C6.00457 3.18079 6.07767 3.09285 6.11751 3.11877C6.13061 3.09986 6.17002 3.09962 6.17708 3.07457C6.61335 3.04442 6.7658 3.50441 7.00599 3.77609C7.2709 4.10599 7.70525 4.62962 7.22818 4.97273C7.22002 4.96927 7.19228 4.98165 7.1774 4.9794C7.17514 4.97066 7.12853 4.9913 7.12661 4.98141C7.11999 4.9685 7.073 4.97661 7.05058 4.97508C7.0334 4.935 6.99356 4.93226 6.96898 4.905C6.95564 4.89012 6.94508 4.86746 6.92386 4.86401C6.89545 4.86804 6.91013 4.84601 6.88441 4.84639C6.87903 4.83367 6.85949 4.82983 6.83823 4.82685C6.51514 4.42721 6.23137 3.91001 6.09317 3.43308C6.06178 3.37956 6.09452 3.29277 6.03601 3.26114C6.03303 3.25889 6.03226 3.25543 6.04421 3.24578ZM3.03706 18.715C2.76634 18.2017 2.20162 18.5491 1.84561 18.7703C1.55089 18.9696 1.08394 19.0619 1.06383 19.4924C1.0874 19.5029 1.08289 19.5418 1.09978 19.5573C1.06935 19.593 1.14653 19.6771 1.17831 19.6382C1.19314 19.6358 1.20313 19.6301 1.21465 19.6471C1.22261 19.6602 1.22612 19.6599 1.22857 19.6574C1.26053 19.6021 1.3274 19.6527 1.37511 19.6258C1.39013 19.6323 1.39969 19.6173 1.41092 19.6298C1.42575 19.6479 1.43266 19.6457 1.4378 19.6385C1.9226 19.4976 2.42593 19.3622 2.84847 19.0801C2.8538 19.0595 2.85999 19.0407 2.873 19.0371C2.87573 19.0116 2.89536 19.0291 2.89484 19.0005C2.90074 18.9801 2.92393 18.9727 2.94015 18.9616C2.96972 18.9412 2.97677 18.9023 3.0181 18.8907C3.02209 18.8688 3.02017 18.8212 3.03332 18.8165C3.04316 18.8159 3.02861 18.7671 3.0374 18.7661C3.04124 18.7516 3.03284 18.7226 3.03706 18.715ZM11.5412 3.09247C11.5572 3.10577 11.5711 3.11743 11.5685 3.12943C11.5809 3.13567 11.5777 3.14085 11.5777 3.14623C11.5737 3.15405 11.5979 3.1626 11.5996 3.17071C11.5981 3.22625 11.6367 3.25164 11.6338 3.30362C11.6959 3.34279 11.7319 3.37322 11.782 3.39122C12.3346 3.40231 12.3156 2.84215 12.2688 2.43655C12.2303 2.11577 12.336 1.70052 11.9762 1.5258C11.956 1.53962 11.9236 1.52047 11.9022 1.527C11.8825 1.49258 11.8202 1.5113 11.7967 1.53021C11.7838 1.54759 11.8054 1.57692 11.7704 1.57961C11.7387 1.57985 11.7647 1.59645 11.765 1.61018C11.774 1.63154 11.741 1.64618 11.7364 1.66413C11.7157 1.68765 11.7229 1.72529 11.6975 1.74026C11.6748 1.74439 11.6736 1.75073 11.6777 1.75769C11.5853 2.19381 11.4791 2.65044 11.5412 3.09247ZM19.3282 8.38365C19.3244 8.39815 19.3344 8.42724 19.3301 8.43521C19.6551 8.94429 20.2286 8.5181 20.5919 8.28089C20.8932 8.05409 21.3842 7.93658 21.4009 7.48629C21.3758 7.4778 21.3793 7.4381 21.361 7.4237C21.3927 7.38425 21.3062 7.30634 21.2755 7.34844C21.2605 7.35185 21.2497 7.35885 21.2367 7.34244C21.2279 7.32986 21.2243 7.33039 21.2217 7.33322C21.1895 7.39159 21.1165 7.34628 21.0672 7.37719C21.0513 7.37181 21.0417 7.38789 21.0291 7.37613C21.0129 7.35909 21.0056 7.36193 21.0004 7.36961C20.4897 7.55229 19.9611 7.73004 19.52 8.05063C19.5148 8.07185 19.5088 8.09148 19.4952 8.09604C19.493 8.12201 19.4717 8.10588 19.473 8.13477C19.4669 8.15633 19.4427 8.16525 19.426 8.17788C19.3969 8.20015 19.3854 8.24321 19.3453 8.25602C19.3416 8.27858 19.3452 8.32634 19.3312 8.33229C19.3207 8.33373 19.3375 8.38183 19.3282 8.38365ZM16.3178 4.59453C16.3092 4.59919 16.3431 4.63716 16.3357 4.64181C16.3373 4.65823 16.3593 4.67796 16.3579 4.68775C16.8193 5.03705 17.1821 4.4862 17.4088 4.13479C17.59 3.83023 17.9713 3.54876 17.8057 3.15228C17.78 3.15281 17.7674 3.11575 17.7456 3.10884C17.7578 3.06381 17.6524 3.02018 17.6402 3.0689C17.628 3.07725 17.6212 3.08666 17.6037 3.0762C17.5909 3.0677 17.5879 3.06943 17.5867 3.07279C17.5814 3.13625 17.4997 3.11877 17.468 3.16317C17.4517 3.16365 17.4494 3.18132 17.434 3.17469C17.3975 3.15665 17.4126 3.18967 17.3865 3.19529C17.0159 3.52236 16.6292 3.85005 16.3721 4.27836C16.3761 4.29919 16.3785 4.31882 16.3683 4.32751C16.374 4.34052 16.3678 4.34321 16.364 4.34791C16.3558 4.35204 16.3686 4.37489 16.3646 4.38281C16.3357 4.41588 16.3334 4.46028 16.3178 4.49705C16.2783 4.51754 16.332 4.57519 16.3178 4.59453ZM22.9528 19.2639C22.9468 19.2521 22.9376 19.2546 22.9278 19.2524C22.897 19.2291 22.9471 19.1995 22.8923 19.2086C22.8625 19.1941 22.8404 19.1359 22.8003 19.1128C22.7986 19.0849 22.807 19.0792 22.7818 19.0777C22.4324 18.845 22.0587 18.6103 21.6459 18.5239C21.6289 18.5349 21.6131 18.5438 21.6035 18.5377C21.5936 18.5474 21.5901 18.5427 21.5853 18.5409C21.5627 18.5488 21.5442 18.5591 21.5158 18.5456C21.4845 18.5394 21.461 18.5639 21.4253 18.5432C21.4086 18.5558 21.3768 18.5908 21.3667 18.5852C21.3612 18.5789 21.3355 18.6232 21.3303 18.6179C21.3181 18.626 21.3032 18.6517 21.2959 18.6542C21.1016 19.1681 21.5796 19.3224 21.9803 19.4165C22.2807 19.4848 22.7253 19.7544 22.9193 19.3639C22.9566 19.356 22.9618 19.2926 22.9528 19.2639ZM22.5704 13.2149C22.691 13.1416 22.898 13.0222 22.8675 12.8664C22.915 12.8442 22.868 12.7365 22.8215 12.7615C22.2673 12.5612 21.5054 12.551 20.8725 12.6364C20.8582 12.6533 20.8439 12.6684 20.8291 12.6666C20.8155 12.6891 20.8028 12.6653 20.7911 12.692C20.7757 12.709 20.7493 12.7064 20.7281 12.7106C20.6918 12.7182 20.6593 12.7522 20.6181 12.7462C20.6044 12.765 20.5866 12.8096 20.5709 12.8089C20.5605 12.8057 20.5548 12.8563 20.5453 12.8539C20.5353 12.8651 20.5316 12.8959 20.524 12.9012C20.6495 13.7227 22.0042 13.2094 22.5704 13.2149ZM3.07551 12.6062C2.78521 12.5329 2.48271 12.6296 2.19255 12.6398C1.80154 12.7174 1.29308 12.6024 1.05466 13.0046C1.07569 13.0228 1.05303 13.0574 1.06445 13.0782C1.01343 13.1009 1.06551 13.2089 1.11337 13.1831C1.7101 13.3842 2.50719 13.3938 3.18231 13.3082C3.19743 13.2914 3.21269 13.2761 3.22834 13.278C3.2426 13.2555 3.25618 13.2793 3.26861 13.2526C3.28541 13.2354 3.31311 13.2383 3.33548 13.234C3.37407 13.2263 3.40896 13.1924 3.45231 13.1984C3.4669 13.1796 3.48557 13.135 3.50242 13.1357C3.51351 13.139 3.51946 13.0884 3.52964 13.0907C3.5402 13.0799 3.54404 13.0487 3.55224 13.0434C3.51912 12.8173 3.32295 12.5873 3.07551 12.6062ZM19.882 20.1291C20.0413 21.4986 18.466 22.0391 17.4049 22.3652C16.1591 22.7916 15.0262 22.0632 14.0099 21.4133C13.4194 21.5916 12.7783 21.4927 12.1701 21.5706C11.3701 21.5698 10.4918 21.7837 9.73834 21.449C8.90861 21.905 8.00794 22.5471 7.01986 22.3611C6.26357 22.2535 4.38274 21.6351 4.26956 20.778C4.3262 20.9094 4.39873 21.0166 4.50322 21.1077C4.42906 21.0044 4.49309 21.074 4.55007 21.0827C4.53797 21.0461 4.48388 20.996 4.46765 20.9522C5.25826 21.632 7.09887 22.2726 8.08109 21.7293C10.657 20.4085 12.8739 18.4661 15.481 17.1998C16.2713 17.1506 17.2057 17.8668 17.8834 17.1253C18.1586 16.8967 18.1421 16.614 18.0251 16.2753C17.6946 15.1451 17.0023 14.5243 15.8297 15.0855C13.9332 15.7124 11.916 16.3904 10.0108 16.9741C8.86537 17.3366 7.71154 17.7004 6.56199 18.047C4.94458 18.4909 4.45714 19.0979 4.33642 20.7652C3.86098 19.6149 4.36277 18.3629 5.48391 17.8309C5.45919 17.6268 5.44421 17.4196 5.41983 17.2155C5.07082 16.7835 5.33194 16.2927 5.34231 15.8185C5.56129 13.5072 7.70929 11.6153 10.0143 11.5794C6.62276 9.61001 8.34831 4.52637 12.1667 4.70061C15.6984 4.85844 17.0356 9.61903 14.0146 11.5191C16.4335 11.5634 18.6371 13.6384 18.7217 16.0736C18.8824 16.4906 18.8899 17.0495 18.589 17.4222C18.5655 17.6165 18.5307 17.7912 18.4369 17.9629C19.3706 18.2293 19.915 19.1915 19.882 20.1291ZM12.2881 11.5419C17.2836 11.2853 14.8177 3.14993 10.2594 5.9814C7.74039 7.59612 9.24245 12.124 12.2881 11.5419ZM5.98954 17.5971C5.89157 17.5643 5.79341 17.5168 5.70255 17.4607C5.70476 17.5474 5.71105 17.6333 5.70529 17.7198C5.79807 17.6744 5.89469 17.6366 5.98954 17.5971ZM10.9281 15.8922C8.84794 15.7317 6.39802 13.3787 5.80268 16.703C5.76865 16.9795 5.97385 17.2052 6.18322 17.3483C6.20636 17.4049 6.27908 17.4263 6.32924 17.455C7.84834 16.8906 9.38348 16.3843 10.9281 15.8922ZM17.4306 14.3058C16.0971 11.9398 13.2379 12.2248 10.9115 12.2769C9.1094 12.0834 7.2278 12.8253 6.34455 14.4733C7.1857 13.9118 8.00324 14.3025 8.87449 14.5404C9.81217 14.8585 10.8294 15.0844 11.6503 15.6578C12.6001 15.3476 13.9229 14.9264 14.863 14.6082C15.6346 14.3702 16.6427 13.8808 17.4306 14.3058ZM18.1014 17.8666C18.1748 17.8816 18.2473 17.9024 18.3198 17.925C18.3229 17.8528 18.2804 17.8105 18.2776 17.7389C18.2204 17.785 18.1604 17.8276 18.1014 17.8666ZM13.2451 20.9067C12.8368 20.6338 12.4841 20.2897 12.1572 19.9258C11.67 20.2459 11.1803 20.5625 10.6854 20.8712C11.5411 20.8512 12.3909 20.8393 13.2451 20.9067ZM19.2575 19.8727C19.2398 18.9909 18.5168 18.3696 17.7735 18.051C17.0832 18.3365 16.3073 18.0259 15.6496 17.8677C14.5391 18.4008 13.4934 19.0537 12.4631 19.727C14.9135 20.91 16.5562 22.9356 19.1827 20.6839C19.1818 20.6839 19.1821 20.6869 19.1845 20.6857C19.2412 20.4212 19.2732 20.1401 19.2575 19.8727ZM4.2241 8.82645C4.27066 8.83529 4.36575 8.84887 4.40458 8.86807C4.42762 8.85953 4.463 8.82871 4.47773 8.83793C4.48325 8.83898 4.48993 8.83759 4.50193 8.82444C4.51892 8.80351 4.51882 8.81834 4.53169 8.80932C4.54729 8.78983 4.55492 8.78834 4.56543 8.78201C4.79458 8.20317 4.07497 7.97383 3.66557 7.79378C3.29151 7.66668 2.9029 7.30898 2.4998 7.54461C2.50815 7.57063 2.47205 7.58959 2.47114 7.61316C2.1493 7.73911 4.01233 8.93681 4.2241 8.82645Z" fill="#3E0967"/>
</svg>
