<svg width="24" height="24" viewBox="0 0 24 24" fill="none" xmlns="http://www.w3.org/2000/svg">
<g clip-path="url(#clip0_9340_46189)">
<path d="M8.4913 1.74791C8.67178 1.43728 10.3361 1.67834 10.7745 1.64521C11.0493 1.08337 11.3165 0.511572 11.6565 0C11.4967 0.402095 11.4644 2.26126 11.0014 2.24631C10.6406 2.26045 10.277 2.28094 9.91959 2.31584C11.1305 3.20681 11.1163 2.81918 10.6259 4.27765C11.8102 3.43518 11.5013 3.41555 12.6992 4.27367C12.2163 2.72514 12.234 3.25187 13.4865 2.29057C13.2177 2.29616 12.9585 2.26459 12.6919 2.25346C12.4804 2.23497 12.1443 2.32536 12.0657 2.06064C11.8829 1.40309 11.7823 0.741171 11.6565 0.0685572C11.6749 0.109584 11.6943 0.186314 11.7115 0.235837C11.7097 0.222717 11.6941 0.161257 11.7102 0.193358L11.7191 0.192767C11.7186 0.168839 11.6791 0.0453822 11.7036 0.0911408C11.9199 0.654547 12.2144 1.20548 12.4544 1.77023C12.9088 1.72426 13.5142 1.72711 13.9762 1.71538C14.1035 1.7142 14.3839 1.71302 14.5074 1.70323C14.7621 1.67785 14.8943 2.02478 14.6929 2.17297C14.1704 2.54947 13.6207 2.96216 13.0987 3.34425C13.2445 3.76914 13.5002 4.5443 13.6454 4.97344L13.6463 4.97414L13.6458 4.97452L13.7166 5.18589C13.8203 5.46221 13.4634 5.71171 13.2341 5.53195C12.7135 5.16105 12.179 4.8074 11.6583 4.43665C9.49937 6.16171 9.06956 6.1879 10.1016 3.39006C9.79648 3.16799 9.33916 2.84166 9.03747 2.61098C8.77724 2.40332 8.20313 2.15281 8.4913 1.74791ZM23.9946 13.0638C23.7029 14.1315 23.285 15.2332 22.9177 16.281C22.3345 18.3122 21.6452 18.2518 19.9562 17.2146C19.7459 17.1083 19.5259 16.9354 19.7638 16.7256C19.7581 16.7684 19.7925 16.7776 19.806 16.8073C19.8159 16.8404 19.8726 16.8294 19.8963 16.8407C20.4374 16.9046 20.952 17.1406 21.4853 17.2517C21.6956 17.2958 21.8243 17.1124 21.8623 16.9307C22.3266 15.6601 22.7844 14.3065 23.2521 13.0387C23.3305 12.7895 23.0221 12.7347 22.8474 12.6736C22.5056 12.5488 22.0217 12.356 21.6809 12.2316C21.0787 13.7354 20.6013 15.3398 19.8291 16.7485C19.8191 16.6968 19.8423 16.6483 19.8477 16.5972C19.8165 16.6429 19.8226 16.5959 19.8006 16.5743C19.7779 16.5822 19.7758 16.6144 19.7568 16.6279C19.7331 16.4414 19.834 16.2216 19.853 16.0253C19.7944 16.0597 19.7227 16.0707 19.658 16.0944C19.7341 16.0946 19.6756 16.1124 19.6582 16.1468C19.6827 16.1608 19.7256 16.1435 19.7553 16.1511C18.6323 16.6376 17.2717 16.0269 16.7502 14.9584C16.7043 14.9432 16.5117 14.8795 16.4699 14.865C17.083 15.56 16.7271 15.6699 16.197 16.2208C15.6862 16.6764 15.6263 17.1031 14.8903 16.6493C14.8297 17.6936 14.8462 18.7515 14.7056 19.789C14.6798 20.1701 14.1195 20.5349 13.8579 20.8197C14.7168 20.7294 14.5396 21.6565 14.5526 22.2133C14.8652 24.4044 13.3451 23.8689 11.7866 23.9738C9.75628 23.8862 7.7457 24.6393 8.49669 21.7116C8.54158 21.4756 8.58647 21.0023 8.93479 21.1959C8.89208 21.205 8.8948 21.24 8.871 21.2625C8.84267 21.2828 8.87214 21.3319 8.86931 21.3577C8.9897 21.8823 8.93669 22.44 9.00936 22.9732C9.03769 23.1835 9.25592 23.2419 9.44212 23.2163C10.8105 23.2224 12.2559 23.1947 13.6229 23.2049C13.887 23.1944 13.8361 22.8891 13.8358 22.7063C13.8405 22.3466 13.8624 21.8319 13.8669 21.4732C12.2297 21.417 10.5382 21.5105 8.93484 21.2643C8.98082 21.2377 9.03491 21.243 9.08552 21.2309C9.03143 21.2172 9.07827 21.2071 9.09157 21.1795C9.07642 21.161 9.04494 21.1698 9.02571 21.1567C9.19567 21.0722 9.43907 21.0924 9.63273 21.0443C9.58452 21.0072 9.55395 20.9514 9.51353 20.9055C9.53532 20.9698 9.50024 20.9262 9.46429 20.9243C9.45791 20.9499 9.48635 20.9798 9.48749 21.0074C8.60935 20.0565 8.72576 18.7244 9.6056 17.7974C9.59623 17.3132 9.58811 16.809 9.58239 16.3223C9.3421 16.5317 8.63773 17.0579 8.34874 16.7413C8.02684 16.4412 7.69394 16.1544 7.4269 15.8021C7.07995 15.4907 7.2224 15.3023 7.43382 14.9675L7.31877 15.0075C6.76917 16.0123 5.6102 16.6601 4.45429 16.4283C4.46709 16.5031 4.47286 16.5801 4.4612 16.6547C4.42035 16.6209 4.40727 16.5688 4.37878 16.5257C4.38379 16.5806 4.35852 16.5405 4.32768 16.5373C4.31516 16.5576 4.33411 16.5839 4.32801 16.6062C4.24379 16.5514 4.20653 16.4111 4.14873 16.3221C4.13005 16.3147 4.11714 16.3087 4.0997 16.2943C4.11022 16.2917 4.121 16.2906 4.13195 16.2901C3.36505 14.994 2.91149 13.5518 2.36346 12.1597C1.89312 12.326 1.39314 12.5045 0.932772 12.6921C0.769945 12.7233 0.66448 12.9223 0.748863 13.0675C1.21305 14.298 1.72512 15.566 2.13074 16.8167C2.24955 17.4825 2.68716 17.1209 3.13505 17.048C3.46229 17.001 3.78429 16.9187 4.11485 16.8885C4.2396 16.8967 4.40771 16.829 4.39578 16.6776C4.72258 17.3045 3.26618 17.5 2.89487 17.769C1.42027 18.4848 1.26278 16.3577 0.833463 15.4639C0.643943 14.7098 -0.214536 13.2699 0.0502689 12.593C0.226715 12.0501 0.879114 11.9434 1.35501 11.7779C1.97772 11.6114 2.77639 11.0905 3.01864 12.0285C3.4089 11.4314 4.00726 11.0395 4.54357 10.5811C5.51438 9.73868 6.52256 8.89223 7.59229 8.17842C8.6933 7.11098 8.30303 7.11189 9.70218 7.81521C9.9787 7.66056 10.2737 7.53888 10.5778 7.44742C11.0632 5.84215 10.9301 6.2999 12.4827 6.21134C12.7251 6.19478 13.0667 6.20113 13.1402 6.48407C13.2312 6.75518 13.3689 7.17582 13.4523 7.45113C13.7542 7.54883 14.0454 7.67567 14.3235 7.82661C15.8658 7.08941 15.2788 7.17657 16.5387 8.33393C16.6577 8.31446 16.7878 8.36076 16.8783 8.44513C18.2828 9.64437 19.8831 10.6903 21.0033 12.1681C21.2653 11.2079 21.7804 11.5641 22.4794 11.7939C23.1569 12.0258 24.079 12.138 23.9946 13.0638ZM8.30342 8.55579L8.14195 8.71258C8.64509 10.2262 8.58326 9.45515 8.07821 10.8301C8.02129 11.0249 7.98136 11.2769 7.75365 11.3358C7.52905 11.408 7.07543 11.5543 6.85061 11.6254C6.83824 11.8792 6.85916 12.13 6.85224 12.3834C7.54158 12.1935 8.3099 11.7422 9.04123 11.8065C8.70577 7.95022 15.5647 7.95867 15.0773 11.8572C15.812 11.8862 16.5062 12.2726 17.2123 12.4616C17.206 12.1786 17.2031 11.8947 17.2025 11.6116C16.9596 11.5398 16.5106 11.4075 16.2706 11.3321C15.9376 11.2154 15.9873 10.7952 15.8302 10.5361C15.7441 10.2326 15.3723 9.92892 15.5679 9.60786C15.6192 9.5258 16.0515 8.83061 16.0946 8.76608C15.8757 8.55272 15.5713 8.26935 15.3534 8.05599C15.3701 8.05056 14.6589 8.40663 14.6429 8.41604C14.5015 8.49062 14.3043 8.61171 14.1517 8.50417C12.8676 7.77547 13.0204 8.5325 12.5133 6.94515C12.2344 6.95128 11.8052 6.94407 11.5243 6.9545C11.0768 8.58902 11.1986 7.81591 9.91317 8.57418C9.56278 8.76845 9.03311 8.27607 8.69744 8.17095C8.56811 8.30108 8.43497 8.42803 8.30342 8.55579ZM14.7342 11.9318C14.0623 8.91524 9.95522 8.78404 9.32407 11.8814C10.0861 12.1477 10.4098 13.1332 9.96982 13.7965C10.0494 13.86 10.1347 13.9303 10.2209 13.9825C10.2585 13.9812 10.2661 14.0179 10.3022 14.0198C11.4545 14.8192 13.0896 14.7321 14.0824 13.7582C13.656 13.1136 13.9967 12.1739 14.7342 11.9318ZM7.37984 14.3754C7.94301 14.1701 8.51549 13.9566 9.07947 13.7536C9.8831 13.4478 9.45361 12.2227 8.62869 12.5075C7.93135 12.6932 7.24594 13.1418 6.53476 13.2005C5.89059 13.1285 6.17991 12.3531 6.10778 11.9241C6.01054 10.7512 6.39427 11.085 7.3173 10.6782C7.40833 10.3693 7.52921 10.0678 7.68387 9.78412C7.5894 9.60592 7.49914 9.42552 7.40517 9.24717C6.22338 10.1139 5.07531 11.0352 3.80706 11.7769L3.83038 11.7564C3.59134 11.9354 3.36336 12.1358 3.10651 12.2884C3.56448 13.5818 4.009 14.8992 4.37655 16.2052C5.3387 16.2736 6.12499 15.8603 6.62704 15.0517C6.93946 14.5782 6.78311 14.5638 7.37984 14.3754ZM9.57155 15.7496C9.55412 15.348 9.74544 14.9449 10.0754 14.7069C9.87955 14.5646 9.72109 14.374 9.64918 14.1455C9.18619 14.444 8.59867 14.5434 8.08775 14.7443C8.11014 14.9658 7.99132 15.1602 7.91577 15.3538C8.15225 15.5854 8.41384 15.7921 8.66399 16.0076C8.95734 15.8913 9.24464 15.7042 9.57155 15.7496ZM13.9935 21.4772C13.9852 21.4768 13.9768 21.4769 13.9685 21.4764C13.9752 21.4792 14.0101 21.4787 13.9935 21.4772ZM14.0823 19.9196C14.1045 19.8837 14.127 19.8481 14.1499 19.8127C14.1371 18.6953 14.0586 17.582 14.1277 16.462C13.9002 16.551 13.6715 16.6374 13.4378 16.7092C12.9758 18.171 13.2441 17.9428 11.703 17.9374C11.2496 17.8977 11.379 17.3721 11.3569 17.0598C11.3558 16.6448 11.3409 16.1315 11.3438 15.714L11.3481 15.4525C11.294 15.356 11.2191 15.2374 11.1001 15.2206C10.7077 15.0088 10.223 15.2616 10.2146 15.7161C10.2151 16.4263 10.2013 17.1798 10.1924 17.8925C10.2021 18.0505 10.0313 18.1833 9.94177 18.2917C9.14719 19.1025 9.19752 20.086 9.63921 21.0435C10.9183 20.8093 12.2314 20.8706 13.5247 20.8258C13.6677 20.4996 13.8779 20.2115 14.0823 19.9196ZM16.0234 15.3457C16.0245 15.345 16.0253 15.3439 16.0264 15.343C15.9457 15.1294 15.9201 14.8993 15.9022 14.673C15.3731 14.4627 14.7525 14.3895 14.3013 14.0245C13.9945 14.8805 12.8975 15.2234 12.0596 15.2984C12.0971 15.9236 12.0844 16.5776 12.0978 17.2057C12.2245 17.2044 12.3511 17.2009 12.4776 17.1978C12.9283 15.5726 12.7988 16.3313 14.0763 15.5995C14.4918 15.3384 14.8917 15.9238 15.3176 16.0111C15.534 15.7844 15.784 15.5459 16.0234 15.3457ZM20.9054 12.4617C20.9135 12.4378 20.9213 12.414 20.9292 12.3901C19.503 11.3798 18.0549 10.377 16.6917 9.27378L16.3433 9.82568C16.4882 10.095 16.6061 10.378 16.7029 10.6675C17.0174 10.822 17.991 10.8978 17.9492 11.3457C17.9509 11.7094 17.9416 12.0725 17.9497 12.4344C17.9418 12.699 18.0244 13.0786 17.6984 13.1832C17.2296 13.4694 15.8258 12.6521 15.214 12.5361C14.5359 12.4631 14.2988 13.4557 14.9378 13.6932C15.4627 13.8851 16.086 14.1086 16.6149 14.303C17.9541 14.6635 17.0837 16.1546 19.8542 16.0198C20.0507 14.7964 20.5252 13.6351 20.9054 12.4617ZM21.7298 12.1092C21.7255 12.1187 21.7219 12.1287 21.718 12.1383C21.7233 12.1296 21.7286 12.1183 21.7298 12.1092ZM4.71582 5.82075C5.08822 6.30162 5.6784 5.80156 6.06611 5.59626C6.38926 5.36639 6.89081 5.25783 6.9284 4.80202C6.90181 4.79374 6.90737 4.75304 6.88831 4.73857C6.9241 4.6976 6.83285 4.61947 6.80005 4.66243C6.18617 4.71857 5.4635 5.03345 4.89706 5.38505C4.89074 5.40661 4.8835 5.42667 4.86874 5.43135C4.86547 5.4577 4.8433 5.44146 4.84351 5.47087C4.836 5.49318 4.80985 5.502 4.79165 5.51491C4.76038 5.53749 4.74388 5.5826 4.70231 5.59476C4.69736 5.61782 4.69943 5.66622 4.68417 5.6724C4.6729 5.67391 4.68902 5.72268 4.679 5.72461C4.67426 5.73908 4.6839 5.76892 4.67889 5.77704C4.69365 5.78978 4.69365 5.78978 4.71582 5.82075ZM5.04148 0.48673C5.15936 0.910548 5.71392 0.96405 6.07166 1.08772C6.41235 1.19967 6.79684 1.43148 7.12647 1.17703C7.11683 1.15219 7.15022 1.12923 7.14957 1.1059C7.20056 1.10482 7.20601 0.988139 7.15327 0.991473C7.12135 0.98088 7.1414 0.951199 7.1305 0.940229C7.06426 0.953134 7.05266 0.867747 6.99682 0.849734C6.99072 0.833979 6.97203 0.83699 6.97312 0.819784C6.97596 0.796286 6.96909 0.792522 6.95972 0.793436C6.489 0.518562 6.01032 0.226588 5.4769 0.0943133C5.45707 0.104099 5.43795 0.112111 5.42558 0.104583C5.40396 0.119693 5.40281 0.0928615 5.38113 0.112541C5.36054 0.12179 5.33793 0.108993 5.31734 0.104261C5.28052 0.0959265 5.24189 0.11566 5.20452 0.0926464C5.18458 0.104368 5.14956 0.137975 5.13599 0.131039C5.12815 0.123887 5.10151 0.167925 5.0941 0.161903C5.08032 0.168463 5.06408 0.19481 5.0551 0.196638C5.0399 0.282456 5.00552 0.395105 5.04148 0.48673ZM4.15091 3.10191C4.28487 3.67327 5.00264 3.47158 5.42896 3.4419C5.80964 3.36732 6.29861 3.46959 6.51275 3.07465C6.49276 3.05609 6.51422 3.02147 6.50344 3.0005C6.55132 2.97824 6.50414 2.86983 6.45686 2.895C6.44133 2.89156 6.42777 2.89328 6.42303 2.87268C6.42042 2.85741 6.41671 2.85634 6.41301 2.85774C6.35635 2.89672 6.30776 2.82375 6.24762 2.83047C6.23509 2.81864 6.21886 2.82918 6.21226 2.81295C6.20464 2.79042 6.19652 2.78982 6.18813 2.7945C5.62327 2.73842 5.04671 2.6697 4.48637 2.76896C4.47194 2.78595 4.45745 2.80122 4.44252 2.7994C4.42885 2.82203 4.41599 2.7981 4.40417 2.82494C4.38859 2.84198 4.3619 2.83945 4.34049 2.84365C4.30377 2.85128 4.27103 2.88548 4.22919 2.87951C4.21547 2.89844 4.19738 2.94328 4.18147 2.94264C4.17096 2.93936 4.16518 2.99033 4.15554 2.98791C4.14546 2.99931 4.14176 3.03018 4.13402 3.03555C4.14138 3.04857 4.14514 3.0719 4.15091 3.10191ZM18.9222 5.8949C18.9913 5.2866 18.1035 5.18648 17.6759 5.0363C17.2487 4.95543 16.7852 4.63463 16.3722 4.91682C16.387 4.9422 16.3505 4.96548 16.3543 4.98963C16.2923 4.99054 16.3077 5.11383 16.3647 5.10738C16.3789 5.11668 16.3953 5.1205 16.3926 5.14249C16.3898 5.15782 16.3933 5.1604 16.3978 5.16061C16.4477 5.15045 16.4703 5.18653 16.5013 5.2146C16.5285 5.24611 16.5791 5.25262 16.5969 5.28751C16.5965 5.31166 16.605 5.31564 16.6159 5.31488C17.2016 5.60621 17.7923 5.91507 18.4362 6.06148C18.4581 6.05197 18.4795 6.04374 18.4949 6.05186C18.5773 6.03019 18.6834 6.06987 18.7691 6.06036C18.8066 6.01605 18.8243 6.04729 18.8536 6.01357C18.8635 5.99992 18.8693 5.9975 18.8744 5.99879C18.8891 5.99341 18.9049 5.96524 18.9155 5.96373C18.9123 5.9483 18.9171 5.92539 18.9222 5.8949ZM16.2201 1.30893C16.2259 1.32442 16.2245 1.34813 16.2384 1.357C16.1981 1.39765 16.2893 1.47869 16.325 1.43648C16.974 1.39835 17.7392 1.10611 18.3535 0.770745C18.3616 0.749344 18.3705 0.729288 18.3862 0.72504C18.3913 0.698639 18.4133 0.715738 18.4152 0.68611C18.4248 0.663634 18.4524 0.655891 18.4721 0.643471C18.5062 0.62164 18.5268 0.576741 18.5705 0.565987C18.5774 0.542866 18.5783 0.494204 18.5948 0.48845C18.6066 0.487321 18.5932 0.437745 18.6038 0.436078C18.6098 0.42199 18.6016 0.391341 18.6075 0.383329C18.2665 -0.164645 17.607 0.293156 17.1887 0.503667C16.8622 0.720631 16.2067 0.84027 16.2201 1.30893ZM18.4919 2.78875C18.0479 2.91688 16.9824 2.7125 16.887 3.26892C16.8305 3.29236 16.8901 3.40119 16.9403 3.37442C16.9568 3.37786 16.9733 3.37544 16.9791 3.39673C16.9821 3.412 16.9863 3.41308 16.9905 3.41168C17.0326 3.38393 17.0667 3.40921 17.1056 3.42383C17.1422 3.44308 17.1913 3.43061 17.2205 3.45642C17.2292 3.47895 17.2385 3.47954 17.2482 3.47486C17.9963 3.52126 18.8054 3.67628 19.5028 3.37721C19.5207 3.32231 19.5486 3.34484 19.563 3.30279C19.567 3.2865 19.5714 3.28209 19.5765 3.28145C19.5881 3.27096 19.5921 3.23908 19.6012 3.23381C19.5163 2.71653 18.9034 2.74417 18.4919 2.78875Z" fill="#3E0967"/>
</g>
<defs>
<clipPath id="clip0_9340_46189">
<rect width="24" height="24" fill="white"/>
</clipPath>
</defs>
</svg>
