<svg width="24" height="24" viewBox="0 0 24 24" fill="none" xmlns="http://www.w3.org/2000/svg">
<path fill-rule="evenodd" clip-rule="evenodd" d="M17.1166 9.74296C17.1166 9.79581 17.1328 9.78448 17.1215 9.79716C17.1076 9.81271 17.1352 9.8333 17.1204 9.85442C17.0836 9.90708 17.1406 9.93573 17.0688 9.98292C17.0365 10.0042 17.0404 10.051 17.0015 10.0851C16.929 10.1485 16.9454 10.1766 16.9297 10.1917C16.9222 10.1989 16.913 10.2043 16.9132 10.2198C16.9132 10.2213 16.913 10.2226 16.9122 10.2229C16.8913 10.2332 16.89 10.2627 16.8828 10.2854L16.8448 10.3251C16.7989 10.4128 16.7333 10.4529 16.6921 10.4991C16.6732 10.5202 16.6508 10.5375 16.627 10.5533L16.4288 10.7419C16.3953 10.7726 16.3615 10.8028 16.3287 10.8343C16.3096 10.8532 16.2936 10.8746 16.2747 10.8934L16.0613 11.0869C16.0286 11.1003 16.0167 11.1362 15.9893 11.155C15.9668 11.1707 15.8681 11.2956 15.722 11.4009L15.4766 11.5816L15.3782 11.6577C15.2562 11.7514 15.082 11.731 14.9842 11.613L14.7747 11.38L14.5682 11.1527C14.538 11.138 14.561 11.1139 14.5527 11.1029C14.5437 11.091 14.5332 11.0804 14.5272 11.0652C14.5271 11.0649 14.4484 10.974 14.4325 10.9199C14.4213 10.8818 14.3464 10.8815 14.3649 10.8484C14.3802 10.821 14.3281 10.7922 14.3092 10.7635C14.2964 10.744 14.3093 10.6796 14.3141 10.675L14.361 10.6786C14.3651 10.6542 14.3779 10.6638 14.3954 10.6463C14.4069 10.6347 14.372 10.5883 14.4854 10.6252C14.642 10.6761 14.8053 10.6903 14.9365 10.7965L15.0861 10.9212C15.1206 10.9361 15.101 10.9469 15.115 10.9504L15.1981 11.0172C15.2745 10.9451 15.3263 10.8974 15.3898 10.8113C15.4094 10.7848 15.4046 10.8095 15.4422 10.7586L15.6551 10.5439L15.7518 10.4309C15.8426 10.3329 16.0083 10.1651 16.109 10.0817L16.3252 9.91605L16.4042 9.84689C16.4583 9.80594 16.6085 9.70404 16.6687 9.70648C16.7128 9.70831 16.8037 9.66396 16.9394 9.67111C17.0089 9.6749 17.0606 9.73135 17.1166 9.74296ZM12.691 8.37655L12.6925 8.37708C12.6889 8.37631 12.6897 8.37631 12.691 8.37655ZM16.0185 6.93741L16.049 6.99261L16.0175 6.93636C16.0172 6.93429 16.0185 6.93712 16.0185 6.93741ZM18.2814 8.26433C18.276 8.26562 18.2698 8.26586 18.2641 8.26639L18.2847 8.26356L18.2814 8.26433ZM11.8324 11.3331C11.7548 11.421 11.6978 11.4863 11.6817 11.6179C11.6613 11.7842 11.7315 11.8778 11.8073 12.0063L12.4145 13.0174C12.5081 13.1374 12.6543 13.1979 12.8042 13.1743C12.8163 13.1725 12.8334 13.1689 12.8313 13.1694L13.6091 12.995C13.7997 13.1382 14.0263 13.2599 14.2452 13.3531L14.4748 14.0336L14.4981 14.1041C14.4965 14.0997 14.5733 14.3696 14.8498 14.3789C15.029 14.385 15.2517 14.3694 15.4384 14.3668C15.6335 14.3642 15.8291 14.3681 16.0237 14.358C16.1383 14.3522 16.2139 14.3744 16.3316 14.2976C16.4576 14.2154 16.4762 14.1125 16.5182 13.982L16.7285 13.3287C16.9677 13.2257 17.1743 13.1053 17.3811 12.9493L18.1891 13.1142C18.351 13.1458 18.4917 13.066 18.5713 12.9227L18.9514 12.2441C18.9841 12.1856 19.1895 11.8392 19.211 11.7669C19.2705 11.5667 19.1518 11.4606 19.0332 11.3318L18.5733 10.8394C18.5957 10.5631 18.6026 10.3277 18.5622 10.049C18.5974 10.0089 19.0958 9.45002 19.1395 9.38296C19.2116 9.27218 19.1965 9.15271 19.1312 9.04932C19.0567 8.93109 18.486 8.05663 18.4239 7.98588C18.3558 7.90831 18.2747 7.89909 18.1852 7.92496L17.3199 8.18431C17.1285 8.05341 16.8867 7.91589 16.6668 7.85738C16.5641 7.83002 16.7077 7.89977 16.7212 7.92343C16.7096 7.92573 16.6983 7.92809 16.6867 7.93039C16.6866 7.93039 16.626 7.91666 16.6774 7.95002C16.6828 7.95338 16.6867 7.95722 16.6916 7.9614L16.4082 7.86233C16.4552 7.9086 16.559 7.96447 16.617 8.00762C16.8173 8.15666 16.9725 8.20994 17.1852 8.39546C17.3008 8.49626 17.4435 8.39244 17.5325 8.41509C17.5923 8.43031 17.8634 8.34943 17.947 8.32965C18.0213 8.31213 18.0969 8.29303 18.1707 8.28036L18.5191 8.92577C18.5508 8.98332 18.5887 9.03933 18.6174 9.09712C18.63 9.12295 18.6432 9.14872 18.6566 9.17349C18.5808 9.24208 18.5217 9.32335 18.4504 9.40082L18.0985 9.78352C18.0455 9.84232 18.0069 9.94912 18.028 10.0248C18.0458 10.1343 18.0564 10.2447 18.0592 10.3554C18.0641 10.5265 18.0509 10.6976 18.0213 10.8653C17.9921 11.0332 18.1055 11.1263 18.2114 11.2462L18.6111 11.6988C18.4555 11.9679 18.2948 12.2337 18.1405 12.5034L17.3795 12.33C17.2798 12.306 17.188 12.3318 17.1044 12.3973C16.8777 12.575 16.6496 12.7011 16.3821 12.8012C16.2846 12.8377 16.2164 12.9099 16.1792 13.0135L15.9395 13.7175L15.0714 13.7105L14.8297 12.9983C14.7594 12.7922 14.5813 12.7895 14.3739 12.6791C14.2116 12.593 14.0488 12.5034 13.9079 12.3806C13.7855 12.2742 13.6758 12.2989 13.5482 12.3207L12.8804 12.4603L12.4391 11.7001L12.9402 11.1411C13.078 10.9834 13.0102 10.8399 12.9947 10.6273C12.9768 10.3826 12.9923 10.2659 13.0215 10.0299C13.037 9.93208 13.0099 9.82836 12.9379 9.74916L12.4267 9.184L12.8728 8.415L13.6416 8.55794C13.7947 8.58554 13.8729 8.50202 13.9677 8.42013C14.0362 8.36104 14.1769 8.2806 14.2516 8.22919C14.3584 8.15565 14.4671 8.08183 14.5969 8.03849C14.6894 8.00729 14.7635 7.91263 14.7757 7.82897C14.7936 7.70618 14.8608 7.57337 14.8815 7.42821L14.9876 7.05871C15.2606 7.05732 15.5385 7.02353 15.7906 7.02905L16.0678 7.02751C16.1175 7.12245 16.1609 7.2257 16.1996 7.33356C16.2599 7.50213 16.2702 7.43296 16.3299 7.59857C16.339 7.6228 16.3516 7.65895 16.3607 7.66744C16.3958 7.69946 16.4226 7.76138 16.4535 7.81893C16.4208 7.64954 16.4465 7.68655 16.4401 7.60216C16.4273 7.43431 16.4562 7.46436 16.4494 7.40992C16.4404 7.33485 16.435 7.26079 16.4213 7.18389C16.4017 7.06985 16.3769 6.95421 16.3537 6.83911C16.355 6.80109 16.3026 6.72281 16.244 6.68892C16.1767 6.64999 16.0237 6.64524 15.9506 6.63679C15.804 6.61821 15.6546 6.60684 15.5036 6.59757C15.3377 6.58725 15.1713 6.57823 15.0112 6.55552C14.8596 6.53253 14.7144 6.52461 14.5945 6.65901C14.533 6.72799 14.4948 6.85053 14.4616 6.93722L14.2451 7.52921C14.0201 7.62108 13.8046 7.73824 13.6064 7.88013L13.1161 7.77487L12.7961 7.6998C12.6013 7.67407 12.4551 7.77055 12.3598 7.93255L11.7495 8.96632C11.6591 9.11983 11.6319 9.28053 11.7327 9.44656C11.7817 9.5272 12.2552 10.0452 12.303 10.0982C12.2793 10.3314 12.2806 10.5665 12.3074 10.7993L11.8324 11.3331ZM19.4367 6.4422C19.5789 6.44772 19.8384 6.47916 19.9577 6.45482C20.0385 6.43836 20.1754 6.45333 20.2077 6.43778C20.2593 6.41402 20.336 6.40423 20.4237 6.39079C20.3355 6.387 20.3247 6.38469 20.2439 6.35416C20.1772 6.32896 20.068 6.32181 20.0049 6.27444L19.6625 6.19447C19.358 6.12698 19.1033 6.07514 18.8014 5.98053C18.3916 5.85213 17.9904 5.71576 17.6076 5.52045C17.1283 5.2758 16.6433 5.01405 16.2046 4.69624L15.7091 4.3084C15.593 4.2137 15.4232 4.20674 15.2988 4.30145L14.9902 4.53473C14.3969 4.95487 14.152 5.09503 13.4648 5.39637C13.1696 5.52583 12.9581 5.59082 12.6545 5.67972C11.8931 5.90272 11.2998 5.96282 10.5284 5.98164C10.3191 5.98673 10.1645 6.14436 10.1656 6.34447C10.1751 8.10084 10.177 9.84175 10.2043 11.5989C10.2108 12.0189 10.2747 12.4025 10.4154 12.7999C10.5523 13.1868 10.8469 13.648 11.1162 13.9314C11.5274 14.3641 11.6919 14.41 12.1193 14.7234C12.2985 14.8548 12.5724 15.0238 12.7683 15.1566L13.8387 15.8849L15.34 16.9194C15.4305 16.9841 15.5606 16.9873 15.6585 16.9194L16.7101 16.1899L18.8953 14.6512C19.2182 14.4249 19.6341 14.1463 19.8702 13.8429C19.8872 13.8202 19.9076 13.7957 19.927 13.7761C20.0389 13.6643 20.1704 13.4584 20.2516 13.3155C20.5709 12.7531 20.7034 12.1957 20.6959 11.5479C20.6912 11.1426 20.6862 10.7626 20.6663 10.3569L20.5352 7.9937C20.5057 7.55037 20.4956 7.0386 20.4596 6.61413C20.4482 6.47935 20.4408 6.71661 20.4325 6.74805C20.3997 6.69338 20.412 6.65162 20.3977 6.76533L20.3793 6.43552C20.3328 6.70577 20.3077 7.25436 20.3135 7.51884C20.3152 7.59736 20.3029 7.97325 20.2877 8.0285C20.2575 8.13837 20.2828 8.77029 20.2699 8.96882C20.2422 9.39218 20.2317 9.90669 20.2216 10.3344C20.2183 10.4758 20.2162 11.0382 20.2013 11.1179C20.1638 11.3177 20.1936 11.4597 20.184 11.6383C20.145 12.3644 19.9701 12.8869 19.5053 13.4372C19.2463 13.7439 19.0059 13.8905 18.6819 14.1157L17.1818 15.1461C16.6314 15.5296 16.0591 15.9075 15.5024 16.2844L14.8031 15.7928L13.8679 15.1293L12.3152 14.045C11.8687 13.7364 11.5189 13.4847 11.2358 12.9761C11.1464 12.8155 11.0274 12.5621 10.9819 12.3803C10.8881 12.0059 10.8803 11.7564 10.8805 11.3842L10.8792 9.38743C10.8766 9.12496 10.8743 8.86279 10.8717 8.60037L10.8698 6.67788C11.2327 6.66237 11.5947 6.62316 11.9526 6.55946C12.2268 6.51093 12.7706 6.381 13.0194 6.29829C13.6162 6.09991 14.2051 5.84359 14.7357 5.50504L15.169 5.21239L15.5122 4.95175L15.9219 5.22943C16.0146 5.27561 16.1018 5.33935 16.1931 5.39484C16.3682 5.50063 16.4325 5.51805 16.5903 5.601C16.9463 5.78824 17.2895 5.94621 17.6697 6.08018C17.8317 6.1373 18.5453 6.3305 18.7466 6.36919C19.1677 6.45007 19.0112 6.42113 19.4367 6.4422ZM15.2322 18.6679C15.2273 18.6517 15.2227 18.6357 15.2183 18.6197C15.2137 18.591 15.2186 18.5304 15.1971 18.6161C15.1946 18.6259 15.1912 18.6344 15.1881 18.6448C15.193 18.5958 15.1987 18.5482 15.2044 18.5005L15.2668 18.5439C15.2562 18.5887 15.249 18.6406 15.2322 18.6679ZM15.055 18.8909C15.0812 18.7161 15.1096 18.6207 15.1538 18.4659L13.4004 17.2562L12.8964 16.9094C12.6019 16.7174 12.3137 16.5133 12.0223 16.3153C11.6117 16.0362 10.9827 15.6333 10.5873 15.3156C9.78299 14.6696 9.17233 13.7003 8.95095 12.6845C8.82841 12.1223 8.82995 11.8253 8.8227 11.2756L8.79587 7.6445L8.78814 4.96721C8.78737 4.76724 8.94889 4.6049 9.14866 4.60413L9.62324 4.60284C9.97225 4.60279 10.4512 4.61412 10.8015 4.60024C11.3908 4.57697 12.1499 4.43877 12.7008 4.21912C13.1721 4.03116 13.5575 3.8478 13.9804 3.56085C13.9528 3.55543 13.926 3.55077 13.8991 3.54948C13.7348 3.54103 13.4378 3.42165 13.0313 3.40908C12.9843 3.40778 12.9286 3.40264 12.8775 3.39516C12.1886 3.2922 11.729 3.28951 11.027 3.33194C10.7866 3.34649 10.1842 3.40634 9.98267 3.47282L9.52979 3.58764L9.34014 3.65114C9.0327 3.72765 8.80124 3.86037 8.51977 3.97912C8.35441 4.04892 8.17931 4.13988 8.02508 4.23204C7.40209 4.60418 6.78467 5.13569 6.37873 5.7246C6.21049 5.9669 6.0603 6.22034 5.92945 6.48511C5.81747 6.72257 5.69065 7.0782 5.62187 7.3385C5.4362 8.04098 5.31548 8.66724 5.07145 9.38383C4.88228 9.93933 4.66676 10.3267 4.35587 10.8142C4.19588 11.0653 4.03873 11.3179 3.87668 11.568L2.765 13.2278C2.82462 13.2283 2.88423 13.2293 2.94332 13.2312C3.31441 13.2433 3.68185 13.2247 4.05116 13.2291C4.16291 13.2302 4.27388 13.2302 4.38534 13.2294C4.68323 13.2284 4.89126 13.4343 4.93033 13.7174L5.02374 14.4187L5.3463 17.1244C5.37265 17.3592 5.38777 17.5596 5.50292 17.7765C5.60257 17.9642 5.81943 18.0809 6.02185 18.1078C6.24582 18.1375 6.78774 18.0781 6.9782 18.0534C7.44327 17.9931 7.80822 17.9406 8.29374 17.9422C8.47235 17.9428 8.61217 18.084 8.61164 18.2598L8.61135 18.2996L8.5995 20.9955L8.89292 20.9983L12.1201 21.0156C12.3298 21.0179 12.53 20.9982 12.7346 21.0303C12.8303 21.0452 13.4871 21.0451 13.6529 21.0473L14.9238 21.0705L14.9189 20.1901C14.9213 20.0083 14.9471 20.0561 14.9589 19.8817L14.9971 19.4334C15.0041 19.2514 15.0276 19.0713 15.055 18.8909ZM22.0727 11.4727C22.0518 9.63861 21.9324 7.8688 21.8694 6.04562C21.8638 5.88516 21.8443 5.19429 21.8258 5.2637C21.8168 5.33028 21.8224 5.42009 21.8098 5.47735C21.8046 5.46444 21.7993 5.45282 21.7943 5.44044C21.7847 5.40444 21.7852 5.35855 21.7786 5.45436C21.7776 5.46674 21.7763 5.47759 21.7752 5.49074L21.7569 5.05797C21.7087 5.40439 21.6848 6.10855 21.6905 6.44681C21.6923 6.54938 21.6802 7.03202 21.6645 7.10354C21.6351 7.23703 21.6589 8.07521 21.6464 8.32308C21.6314 8.61986 21.6266 8.91506 21.6175 9.20925C21.6082 9.50421 21.6036 9.79888 21.5984 10.0934C21.5966 10.2092 21.6007 10.3266 21.5964 10.4402C21.5906 10.5828 21.5922 11.0147 21.5783 11.1106C21.5411 11.3666 21.5762 11.6392 21.5445 11.9417C21.4904 12.4576 21.4256 12.7533 21.2292 13.2444C21.0973 13.5743 20.888 13.9099 20.6685 14.192C20.4554 14.4658 20.1581 14.7502 19.8752 14.9594L19.2115 15.4231L16.824 17.0608C16.5913 17.22 16.3611 17.3807 16.126 17.5371C15.9172 17.6759 15.7095 17.8171 15.502 17.9593L14.5408 17.2855C13.6538 16.6616 12.7708 16.0319 11.8777 15.4167C11.3608 15.0606 10.8901 14.7624 10.4819 14.282C10.2692 14.0316 10.1446 13.8562 9.98646 13.5628C9.69246 13.0173 9.57995 12.5506 9.52067 11.9531C9.49609 11.7054 9.50329 11.3557 9.50339 11.1059L9.49331 6.12573L9.49254 5.30824L10.7201 5.30282C11.3411 5.28746 12.0646 5.16266 12.6317 4.9733C13.4989 4.68372 14.1322 4.32876 14.8213 3.75712L15.3931 3.27199C15.4316 3.23973 15.4703 3.20824 15.509 3.17623C15.678 3.30136 15.8476 3.42578 16.014 3.56896L16.2039 3.71143C16.3521 3.8286 16.5064 3.95316 16.671 4.04585L17.167 4.3434L17.8042 4.65463C18.3573 4.88959 18.7463 4.96927 19.3091 5.07708C19.5011 5.11384 19.9529 5.17073 20.1656 5.15681L20.8861 5.11293C21.1186 5.10367 21.1551 5.06906 21.3712 5.06004C21.4099 5.0585 21.4667 5.05615 21.4878 5.05101C21.5704 5.02984 21.6827 5.02313 21.8008 5.01333C21.581 5.00052 21.641 4.98852 21.5144 4.971C21.4168 4.95837 21.3144 4.9444 21.2669 4.91781L20.8089 4.86232C20.369 4.82455 20.1013 4.81965 19.6541 4.7333C19.1773 4.64119 18.5229 4.45725 18.098 4.23295C18.025 4.1932 17.9471 4.15605 17.8699 4.11655C17.1868 3.7697 16.7945 3.43994 16.2318 2.96537C16.0574 2.81829 15.8834 2.67117 15.7093 2.52386C15.5905 2.42344 15.4188 2.42004 15.2905 2.52386L14.4146 3.23426L14.1101 3.4686C14.0015 3.40625 14.0137 3.39213 13.9538 3.36487C13.4925 3.15472 13.111 3.06372 12.6134 2.96565C12.1069 2.86581 11.6102 2.8444 11.0961 2.82396C10.5815 2.80351 9.86977 2.8949 9.34523 3.02575C8.45315 3.24833 7.59745 3.63525 6.87903 4.21768C6.60601 4.43901 6.45913 4.55777 6.21351 4.8329C5.53215 5.59605 5.14523 6.35839 4.88454 7.37705C4.67017 8.21479 4.50716 9.10245 4.10521 9.86776C3.92084 10.2188 3.57803 10.7387 3.35377 11.0881L2.01347 13.1223C1.80102 13.4403 1.99585 13.906 2.45449 13.9045L3.47871 13.9024C3.62684 13.9024 3.77468 13.8967 3.92281 13.896L4.27993 13.8952L4.38342 14.7063L4.48743 15.5325C4.51892 15.7568 4.55247 15.9805 4.5819 16.205L4.73286 17.3681C4.79569 17.8437 4.95553 18.2513 5.37207 18.5159C5.70174 18.7253 5.96473 18.741 6.3243 18.7288C6.91067 18.7088 7.44193 18.5772 8.01841 18.5458L8.03646 20.9524C8.03737 21.1152 8.01947 21.2501 8.13193 21.3895C8.25164 21.5378 8.39219 21.5556 8.55279 21.5541C8.66094 21.5528 8.76879 21.5521 8.87689 21.5508C9.11742 21.5466 9.35996 21.5551 9.59867 21.5428C9.62862 21.5409 9.66188 21.5405 9.69078 21.5428C9.84836 21.5547 10.103 21.5409 10.2817 21.5402L12.5774 21.5229C13.3103 21.5138 14.0671 21.4802 14.8005 21.4462C14.9607 21.4388 15.1531 21.4501 15.2413 21.2506C15.2816 21.1592 15.2606 21.0402 15.2549 20.9369C15.2233 20.3537 15.2075 19.8047 15.241 19.2172C15.2537 18.9948 15.274 18.7715 15.2875 18.5579L15.3411 18.5948C15.434 18.6588 15.5607 18.6621 15.6588 18.594L18.3596 16.7128C18.5952 16.5461 18.8308 16.3797 19.0664 16.213C19.3206 16.0354 19.575 15.8579 19.8292 15.6798C20.1461 15.4575 20.3172 15.3379 20.5987 15.0729C20.8601 14.8268 20.8923 14.7732 21.1073 14.5075C21.3017 14.2673 21.3949 14.0978 21.5431 13.8281C21.6585 13.6182 21.802 13.2551 21.8729 13.0172C22.031 12.4866 22.0727 12.0222 22.0727 11.4727Z" fill="#3E0967"/>
</svg>
