<svg width="24" height="24" viewBox="0 0 24 24" fill="none" xmlns="http://www.w3.org/2000/svg">
<path fill-rule="evenodd" clip-rule="evenodd" d="M17.968 0.382434C17.9559 0.3161 17.9744 0.231886 17.9922 0.221789C17.9955 0.0489041 18.363 0.0143272 18.4844 0C18.492 0.000394843 18.6748 0.0353103 18.6596 0.062216C18.655 0.0703385 18.697 0.0813378 18.7049 0.118961C18.7084 0.135036 18.7351 0.129396 18.7351 0.139098C18.7776 0.170516 18.8374 0.228953 18.8136 0.286487C18.8081 0.315762 18.8433 0.522885 18.8287 0.532249C18.8489 0.701072 18.863 0.573425 18.8106 0.741854L18.7532 0.991564C18.6774 1.02834 18.7214 1.05017 18.6687 1.07437C18.647 1.0843 18.7081 1.10173 18.6656 1.10517L18.6415 1.12135C18.6541 1.17472 18.4633 1.13816 18.421 1.14674C18.3392 1.1134 18.1093 1.04323 18.1069 0.927938C18.0902 0.916995 18.116 0.918349 18.1069 0.914683C18.0548 0.744956 18.0238 0.552273 17.968 0.382434ZM15.6938 1.4141C15.6977 1.2459 15.8579 1.00256 16.0079 0.926415C16.0292 0.928502 16.0786 0.872942 16.0864 0.902499C16.0896 0.914795 16.1314 0.891387 16.1407 0.90295C16.1594 0.92602 16.1852 0.898325 16.1951 0.90436C16.1951 0.906334 16.1981 0.910734 16.2102 0.90295C16.3232 0.861322 16.4778 1.07392 16.5635 1.13258C16.6707 1.18673 16.709 1.37789 16.8051 1.48467C16.8051 1.49364 16.8276 1.47406 16.8021 1.50965C16.7937 1.52144 16.8209 1.56826 16.8082 1.60272C16.7997 1.62568 16.8551 1.59432 16.8293 1.6267C16.7945 1.67041 16.86 1.64046 16.8202 1.69281C16.7908 1.7447 16.7197 1.77578 16.6844 1.82643C16.6102 1.85689 16.3699 1.98211 16.3008 1.88239C16.1987 1.85277 16.1305 1.75722 16.0441 1.73686C15.935 1.67712 15.7253 1.56025 15.727 1.47733C15.6972 1.45325 15.7037 1.44654 15.6968 1.41862C15.6938 1.41704 15.6938 1.41517 15.6938 1.4141ZM14.8149 3.52601C14.8186 3.38888 14.8131 3.41946 14.8511 3.29446C14.9049 3.28493 14.8832 3.25227 14.9024 3.25469C14.9085 3.25571 14.9175 3.24979 14.9236 3.24691L14.9508 3.20432C14.9657 3.21594 14.9639 3.1614 14.984 3.16907C15.0479 3.11847 15.3342 3.13415 15.4219 3.1073C15.5219 3.15017 15.6409 3.18452 15.7451 3.19744C15.7451 3.2173 15.7666 3.17759 15.7692 3.22136C15.7703 3.23912 15.8232 3.24973 15.8357 3.28301C15.8439 3.30506 15.8688 3.23405 15.8688 3.30264C15.984 3.40597 15.8614 3.68208 15.7631 3.81289L15.594 3.86862C15.4983 3.89919 15.4873 3.8583 15.4067 3.91222C15.2672 3.94764 15.1362 4.02334 14.9567 3.92931C14.9567 3.92841 14.9537 3.92745 14.9537 3.92688C14.8585 3.85508 14.8346 3.63701 14.8149 3.52601ZM22 3.62291C21.9955 3.64192 21.961 3.81475 21.9366 3.79771C21.9206 3.7866 21.9335 3.82349 21.8761 3.84177C21.8761 3.84284 21.8731 3.84222 21.8701 3.84419C21.8404 3.98854 21.5386 3.94956 21.4231 3.9671C21.347 4.00732 21.1076 3.88819 20.9851 3.8878L20.97 3.85886C20.8684 3.80984 20.9228 3.78615 20.8734 3.81825L20.8522 3.77763C20.7575 3.69601 20.879 3.27128 21.0516 3.25215C21.5538 3.14831 21.9537 2.87389 22 3.62291ZM20.8191 1.77601C20.7576 1.83862 20.5678 1.90551 20.4718 1.99142C20.4718 2.00783 20.4449 1.97969 20.4386 1.98115C20.4134 1.98713 20.3851 2.00366 20.354 1.99244C20.3303 1.98386 20.361 2.04055 20.3268 2.01195C20.3178 2.0031 20.3148 2.0031 20.3148 2.0036L20.2997 2.00603C20.3094 2.04089 20.2334 1.98691 20.2272 1.98313C19.9528 1.69901 20.016 1.52539 20.2272 1.22559C20.2575 1.19942 20.3683 0.923651 20.496 0.90876C20.6776 0.785738 21.0797 1.09033 21.0819 1.26186C21.0706 1.26502 21.0944 1.30518 21.0819 1.31421C21.0583 1.33147 21.0835 1.36497 21.0789 1.36864L21.0819 1.38573C21.0699 1.38528 21.085 1.40773 21.088 1.42239L21.079 1.43808C21.086 1.49668 21.048 1.50655 21.0186 1.5409C20.9498 1.61186 20.9321 1.65372 20.8615 1.71667C20.8434 1.71379 20.8524 1.7368 20.8403 1.74075C20.8259 1.74504 20.8284 1.76771 20.8191 1.77601ZM19.0341 3.40654V3.40992C19.0341 3.40992 19.0341 3.40992 19.0341 3.40941C19.0311 3.4084 19.0341 3.40744 19.0341 3.40654ZM10.4114 10.5945C10.5287 10.2381 10.2741 9.7031 10.5292 9.38695C11.3318 8.81437 11.2718 9.83143 11.3537 10.3809C10.9317 10.3489 10.7254 10.4904 10.4084 10.6987L10.4114 10.5945ZM11.0154 13.8549L10.9127 14.5112L10.7859 14.5105C10.7702 14.328 10.7441 13.9442 10.6651 13.7864C10.6332 13.7639 10.6687 13.7445 10.6289 13.7091C10.6083 13.6907 10.6109 13.5709 10.5776 13.5019L11.091 13.1782L11.0154 13.8549ZM19.0341 3.41088C18.8247 2.07569 17.0309 3.0958 17.9741 3.93489C18.1522 4.06316 18.1945 4.30498 18.0798 4.4857C17.8416 4.84913 16.0672 7.5485 15.7783 7.98035C15.4587 8.35624 14.8615 8.07821 14.4374 8.11205C12.0144 7.97764 8.6287 7.42001 7.32776 10.003C6.85878 10.8863 4.84948 14.8015 6.5092 15.0943C6.87938 15.0765 7.35134 14.4976 7.70526 14.5351C8.7961 13.512 10.2358 12.7378 11.5017 11.9243C11.7653 11.7892 11.7689 11.2319 11.3175 11.1179C10.9991 11.042 10.5558 11.4595 10.2845 11.5782C9.82521 11.8593 9.33088 12.129 8.80766 12.365C8.70696 12.399 8.60896 12.5338 8.56004 12.5124C8.45934 12.5091 8.25434 12.7235 8.10399 12.6682C8.11165 12.6383 8.15113 12.6085 8.17648 12.582C8.15084 12.582 8.1493 12.5949 8.1493 12.5315C8.12962 12.5206 8.07315 12.5557 8.09798 12.5109C8.59917 11.9164 9.35342 11.3638 10.0158 10.9587C8.44195 7.59763 13.2356 7.69358 11.8551 10.5298C12.8514 11.1012 12.6061 12.3648 11.6347 12.8194C11.8378 13.4494 11.6619 14.1062 11.7042 14.7349C11.591 15.4211 10.4712 15.5692 10.0823 15.0424C9.83442 14.6945 9.95635 14.2728 9.93426 13.8786C9.31263 14.2465 8.56879 14.6772 7.89865 14.7766C7.86294 15.4938 7.88926 16.0789 7.82616 16.8129C9.58308 16.7949 11.7396 16.7729 13.4921 16.7572C13.3113 15.0347 13.3606 13.2796 13.2897 11.5356C13.2765 11.3067 13.4683 11.2313 13.6492 11.1718C14.2858 10.9538 14.9539 10.7278 15.5912 10.5211C16.5041 10.3381 16.7872 8.97507 17.1285 8.29075C17.5944 7.14311 18.7269 4.58498 19.0342 3.41004C19.0341 3.41037 19.0341 3.41088 19.0341 3.41088ZM7.68713 16.6347C7.7476 16.7609 7.73507 16.7535 7.74451 16.6524C7.74754 16.7072 7.75355 16.7606 7.75658 16.8139C7.72637 16.8148 7.69617 16.8153 7.66298 16.8164C7.67809 16.761 7.66905 16.6763 7.68713 16.6347ZM16.2223 19.7131C16.1737 20.4574 16.1559 21.3665 16.1075 22.1334C16.1075 22.1334 16.0984 22.9183 16.0984 22.9183C16.0421 23.1643 15.8517 23.136 15.6575 23.1353C12.444 23.0618 9.01992 23.0759 5.80553 23.0957C5.01786 23.1851 5.23179 22.8507 5.17131 22.299C5.10231 21.3298 5.09928 20.4477 4.97501 19.4722C8.68471 19.5324 12.5095 19.5385 16.2193 19.4796L16.2223 19.7131ZM19.8798 3.30021C19.4429 0.72166 15.7582 2.24886 17.219 4.32105C16.5813 5.31938 15.8603 6.36922 15.2256 7.37844L12.7279 7.25406C14.2397 5.7479 12.7749 3.22124 11.2027 3.78728C11.1645 3.84036 11.1648 3.82473 11.1937 3.84369C11.1637 3.84848 11.0994 3.85514 11.0789 3.87454C11.1814 3.99711 11.4201 3.9464 11.538 4.04201C11.5544 4.08905 11.7228 4.07681 11.8037 4.14382L12.0121 4.29465C13.397 5.43733 12.4226 7.45791 10.7043 7.13267C9.35571 6.77557 9.18052 5.17639 10.1426 4.2951L10.3842 4.13553C10.4965 4.04912 10.6498 4.04658 10.6922 4.00083C10.774 3.91267 10.8739 3.93388 10.9187 3.88278C10.9499 3.84724 10.995 3.86348 11.0033 3.84752C11.0214 3.8196 11.0517 3.81227 11.0788 3.79912C8.98062 2.76452 7.79143 6.4131 9.56569 7.48076C6.29608 7.37189 3.03706 17.8409 7.53007 14.9909C7.5418 15.1872 7.62551 16.7183 7.65091 16.8168C6.14612 16.8808 4.50803 16.9534 3.04204 17.1174C3.08735 17.1316 3.16287 17.1223 3.19909 17.1423C3.11327 17.1933 3.07328 17.1806 3.18399 17.1987C3.10011 17.2049 2.88888 17.2147 2.82457 17.2354C5.906 17.485 10.4571 17.4054 13.5917 17.4555C13.5074 17.5511 18.954 17.2897 18.584 17.7098C18.5624 19.0061 18.8304 18.602 16.9985 18.6682C12.7167 18.6706 7.05171 18.6443 2.83361 18.8082C2.36743 18.8304 2.51618 18.3239 2.46515 18.0435C2.37704 17.7136 2.39283 17.2303 2.82451 17.1606C1.92471 16.9994 2.09011 17.9898 2 18.5605C2.08605 19.753 3.84006 19.3473 4.68196 19.4674C3.41233 25.5068 5.58531 23.7006 10.3239 23.8805C16.6574 23.4661 17.3137 25.4257 16.485 19.4771C18.4353 19.4109 19.8026 19.9575 19.324 17.3339C19.1704 16.9711 18.826 16.7311 18.427 16.7321C16.8256 16.7591 15.224 16.7362 13.6218 16.7556C13.9399 15.1567 13.9206 13.4446 14.0054 11.821C15.1665 11.4217 16.7473 11.3347 17.2793 10.0548C17.886 8.52139 19.6646 4.9339 19.8798 3.30021Z" fill="#3E0967"/>
</svg>
