<svg width="24" height="24" viewBox="0 0 24 24" fill="none" xmlns="http://www.w3.org/2000/svg">
<path d="M23.1637 15.523C23.0182 15.5302 22.8655 15.5412 22.7127 15.5521C21.5491 15.6321 20.6982 15.6284 20.36 14.8321C20.1164 14.2612 20.2109 11.4321 20.2582 9.91207C20.2764 9.34116 20.2909 8.86479 20.2909 8.57025C20.2909 7.87207 20.8582 7.30843 21.5527 7.30843H23.1818C23.3782 7.30843 23.5382 7.14843 23.5382 6.95207C23.5382 6.7557 23.3782 6.5957 23.1818 6.5957H21.5527C20.8509 6.5957 20.2364 6.96298 19.8837 7.5157C19.1564 7.52661 18.5746 7.78116 18.2255 8.19934H16.8109C15.8655 8.19934 14.92 8.1957 13.9782 8.19934C13.0764 8.20298 12.3237 8.40298 11.6546 8.73025C11.6473 8.72298 11.6437 8.7157 11.6364 8.71207C10.4837 7.84661 8.90911 7.54843 7.52002 7.93389C7.34184 7.98479 7.17456 8.04661 7.01456 8.10479C6.67275 8.23207 6.40365 8.33389 6.08365 8.28298C6.06911 8.27934 6.05456 8.28661 6.04002 8.28298C5.68002 7.90116 5.11275 7.67207 4.41093 7.67207C4.39275 7.67207 4.3782 7.67934 4.36365 7.68298C4.0582 7.30479 3.62547 7.01752 3.19275 6.90116C2.56002 6.73025 1.82911 6.73752 1.18184 6.74479C1.05456 6.74479 0.9382 6.74843 0.807291 6.74843C0.610928 6.74843 0.450928 6.90843 0.450928 7.10479C0.450928 7.30116 0.610928 7.46116 0.807291 7.46116C0.927291 7.46116 1.0582 7.46116 1.18911 7.45752C1.79275 7.45025 2.46911 7.44298 3.00729 7.58843C3.51275 7.72661 4.05456 8.21752 4.05456 8.73025C4.05456 9.02843 4.07638 9.51207 4.10184 10.0684C4.16365 11.4866 4.29093 14.4321 3.97456 14.9048C3.40002 15.7557 2.06911 15.6212 0.865473 15.4248C0.672746 15.3921 0.487291 15.5266 0.4582 15.7193C0.425473 15.9157 0.560019 16.0975 0.752746 16.1266C1.16365 16.1921 1.71275 16.283 2.28365 16.283C2.98547 16.283 3.70911 16.1412 4.24002 15.6684C4.29093 15.6975 4.34911 15.7193 4.41456 15.7193C5.07275 15.7193 5.59275 15.5521 5.94911 15.2466C6.22547 15.3666 6.51638 15.4466 6.81093 15.4793C6.65093 15.7593 6.52729 16.0502 6.50547 16.323C6.47638 16.6793 6.62184 16.9048 6.74547 17.0321C6.93456 17.2212 7.17093 17.323 7.42911 17.323C7.46547 17.323 7.50184 17.3193 7.5382 17.3157C7.57093 17.3121 7.60002 17.3048 7.62911 17.2975C7.64002 17.5848 7.75638 17.7775 7.86547 17.8866C8.05456 18.0757 8.29093 18.1775 8.54911 18.1775C8.58547 18.1775 8.62184 18.1739 8.6582 18.1702C8.72729 18.163 8.80002 18.1484 8.86911 18.1266C8.87638 18.4139 8.99638 18.6102 9.10547 18.7193C9.29456 18.9084 9.53093 19.0102 9.78911 19.0102C9.82547 19.0102 9.86184 19.0066 9.8982 19.003C9.94911 18.9993 10 18.9848 10.0473 18.9739C10.0727 19.1775 10.16 19.3521 10.3127 19.4902C10.5127 19.6721 10.76 19.7666 11.0327 19.7666C11.0727 19.7666 11.1164 19.763 11.16 19.7593C11.7673 19.6939 12.3273 19.1957 12.6473 18.7484C12.6909 18.6866 12.7309 18.6212 12.7709 18.5593C12.8837 18.6284 13.0037 18.6939 13.1782 18.763C13.4 18.8502 13.6218 18.8975 13.8364 18.8975C14.0109 18.8975 14.1746 18.8684 14.3309 18.8102C14.6691 18.6793 14.9237 18.3993 15.0146 18.083C15.1018 18.1012 15.1891 18.1121 15.2764 18.1121C15.4364 18.1121 15.6 18.083 15.7527 18.0212C16.1018 17.8793 16.3527 17.5957 16.4618 17.2393C16.52 17.2539 16.5782 17.2721 16.6364 17.2793C16.7782 17.3012 16.9091 17.3157 17.0291 17.3157C17.3564 17.3157 17.6109 17.2321 17.7891 17.0648C17.92 16.9412 18.0727 16.7084 18.0327 16.3193C17.9964 15.9557 17.8037 15.6466 17.5455 15.3739H17.56C17.8655 15.323 18.1382 15.2139 18.3564 15.0575C18.7091 15.3812 19.24 15.563 19.92 15.563C19.9346 15.563 19.9418 15.5557 19.9564 15.5557C20.44 16.1666 21.1927 16.3012 21.9237 16.3012C22.2109 16.3012 22.4909 16.283 22.7491 16.2648C22.8982 16.2539 23.0437 16.243 23.1818 16.2393C23.3782 16.2321 23.5309 16.0648 23.5237 15.8684C23.5273 15.6648 23.3564 15.5121 23.1637 15.523ZM4.70911 14.9921C4.97093 14.1302 4.91638 12.2284 4.8182 10.0357C4.79275 9.48661 4.77456 9.01025 4.77456 8.72661C4.77456 8.61752 4.76365 8.50843 4.7382 8.40661C5.14911 8.46843 5.76366 8.6757 5.76366 9.37389V14.0139C5.76366 14.5957 5.41093 14.923 4.70911 14.9921ZM7.47275 16.6066C7.38547 16.6139 7.32002 16.5921 7.25456 16.5302C7.24002 16.5157 7.21093 16.4866 7.2182 16.3812C7.25456 15.9157 7.94184 15.0721 8.27275 14.8321C8.29456 14.8175 8.3382 14.803 8.38911 14.803C8.40729 14.803 8.42184 14.803 8.44002 14.8066C8.50547 14.8175 8.54547 14.843 8.55638 14.8575C8.6582 14.9993 8.64002 15.2539 8.52729 15.5375C8.30911 15.7739 8.08365 16.0721 7.90547 16.3921C7.75638 16.5121 7.60002 16.5921 7.47275 16.6066ZM8.59638 17.4612C8.50547 17.4684 8.44366 17.4466 8.3782 17.3848C8.36366 17.3702 8.33456 17.3412 8.34184 17.2357C8.3782 16.7702 9.06547 15.9266 9.39638 15.6866C9.4182 15.6721 9.46184 15.6575 9.51275 15.6575C9.53093 15.6575 9.54547 15.6575 9.56365 15.6612C9.62911 15.6721 9.66911 15.6975 9.68002 15.7121C9.81456 15.9012 9.74184 16.2939 9.50184 16.6902C9.42911 16.7848 9.36002 16.8793 9.29456 16.9812C9.06911 17.2502 8.80365 17.4393 8.59638 17.4612ZM9.84002 18.2975C9.74911 18.3048 9.68729 18.283 9.62184 18.2212C9.60729 18.2066 9.5782 18.1775 9.58547 18.0721C9.60002 17.8866 9.72002 17.643 9.87638 17.3993C9.94547 17.3157 10.0073 17.2321 10.0618 17.1484C10.0727 17.1339 10.08 17.1157 10.0909 17.1012C10.2873 16.8466 10.4982 16.6248 10.6437 16.5193C10.6655 16.5048 10.7091 16.4902 10.76 16.4902C10.7782 16.4902 10.7927 16.4902 10.8109 16.4939C10.8764 16.5048 10.9164 16.5302 10.9273 16.5448C11.0727 16.7448 10.9818 17.1739 10.7091 17.5921C10.4546 17.9812 10.0982 18.2721 9.84002 18.2975ZM11.0982 19.0539C10.9818 19.0648 10.8873 19.0393 10.8073 18.9666C10.7891 18.9521 10.7637 18.9266 10.7709 18.8357C10.7782 18.7375 10.8255 18.6175 10.8873 18.4902C11.0509 18.3302 11.1927 18.1521 11.3055 17.9848C11.3637 17.8939 11.4146 17.803 11.4618 17.7121C11.6364 17.5266 11.8073 17.3702 11.9346 17.2866C11.9746 17.2612 12.0327 17.2502 12.0946 17.2502C12.1891 17.2502 12.2873 17.2757 12.32 17.3193C12.4727 17.5121 12.3746 17.9302 12.08 18.3412C11.7964 18.7339 11.4 19.0212 11.0982 19.0539ZM17.3164 16.5412C17.2764 16.5775 17.1127 16.6321 16.7673 16.5739C16.1964 16.4793 15.6982 16.0212 15.24 15.5593C15.1018 15.4212 14.8764 15.4212 14.7346 15.5593C14.5964 15.6975 14.5927 15.923 14.7346 16.0648C15.0509 16.3812 15.4037 16.7157 15.8109 16.9593C15.7709 17.2139 15.6037 17.323 15.5055 17.363C15.3091 17.443 15.08 17.403 14.9091 17.2612C14.6218 17.0212 14.3237 16.7993 14.04 16.5848C13.8946 16.4757 13.7527 16.3666 13.6073 16.2575C13.4509 16.1375 13.2291 16.1666 13.1055 16.323C12.9855 16.4793 13.0146 16.7012 13.1709 16.8248C13.3164 16.9375 13.4618 17.0466 13.6109 17.1593C13.8618 17.3484 14.12 17.5448 14.3709 17.7484C14.3673 17.7702 14.36 17.7884 14.36 17.8102C14.3673 17.9448 14.2473 18.0939 14.0909 18.1557C13.8582 18.2466 13.5964 18.1666 13.4618 18.1157C13.2873 18.0466 13.1964 17.9957 13.0691 17.9048C13.1564 17.5121 13.1018 17.1521 12.8837 16.8793C12.6291 16.563 12.0909 16.4575 11.6946 16.6248C11.6691 16.443 11.6109 16.2757 11.5091 16.1375C11.3782 15.9593 11.1746 15.8393 10.9273 15.803C10.7637 15.7775 10.6037 15.7957 10.4582 15.843C10.44 15.6393 10.3782 15.4575 10.2655 15.3012C10.1382 15.123 9.93093 15.003 9.68365 14.9666C9.56365 14.9484 9.44365 14.9521 9.32729 14.9739C9.30547 14.7775 9.24729 14.5957 9.1382 14.4466C9.00729 14.2684 8.80365 14.1484 8.55638 14.1121C8.2982 14.0721 8.04365 14.1266 7.8582 14.2648C7.73093 14.3593 7.52729 14.5484 7.32002 14.7921C6.99638 14.8139 6.67275 14.7666 6.37093 14.6575C6.44002 14.4684 6.48365 14.2612 6.48365 14.0284V9.37389C6.48365 9.24298 6.46911 9.1157 6.44002 8.9957C6.74184 8.96661 7.01456 8.86843 7.27638 8.77025C7.4182 8.7157 7.56365 8.66116 7.72365 8.61752C8.81093 8.3157 10.0327 8.51207 10.9818 9.12298C10.1782 9.65752 9.49093 10.3666 8.78184 11.0939C8.40729 11.4793 7.99275 11.9412 7.82547 12.5302C7.70911 12.9339 7.75275 13.3084 7.94547 13.5848C8.14184 13.8648 8.48729 14.0248 8.86547 14.0248C8.94184 14.0248 9.02184 14.0175 9.0982 14.003C9.46184 13.9412 9.76365 13.7557 10.0291 13.5921C10.2582 13.4502 10.4873 13.2975 10.7127 13.1448C11.2655 12.7739 11.7927 12.4284 12.3782 12.2284L15.6 14.7775C15.7418 14.8902 15.9127 15.0066 16.0982 15.1266C16.6037 15.4612 17.2909 15.923 17.3382 16.3848C17.3418 16.4175 17.3455 16.5121 17.3164 16.5412ZM17.4509 14.6684C17.2218 14.7084 16.9818 14.7048 16.7309 14.7012C16.6509 14.6466 16.5673 14.5921 16.4909 14.5375C16.32 14.4248 16.1637 14.3193 16.04 14.2212L13.32 12.0684C13.6837 12.0612 14.0691 12.0939 14.4618 12.1266C14.8364 12.1593 15.2255 12.1921 15.6037 12.1884C15.8 12.1848 15.96 12.0248 15.9564 11.8284C15.9527 11.6321 15.8 11.483 15.5964 11.4757C15.2582 11.483 14.9018 11.4502 14.5237 11.4175C13.7927 11.3557 13.0364 11.2866 12.3309 11.4902C11.5746 11.7048 10.9309 12.1375 10.3127 12.5557C10.0946 12.7048 9.87638 12.8502 9.65456 12.9848C9.43274 13.1193 9.20365 13.2612 8.97456 13.3012C8.78911 13.3339 8.60365 13.2793 8.53093 13.1739C8.46547 13.0793 8.4582 12.9121 8.51275 12.723C8.63638 12.2939 8.96729 11.9266 9.29456 11.5884C10.6837 10.1557 11.8873 8.9157 13.9891 8.90843C14.9309 8.90479 15.8764 8.90479 16.8182 8.90843H17.9091C17.8909 9.00661 17.8764 9.10843 17.8764 9.21389V13.8539C17.8764 14.0757 17.9164 14.2757 17.9818 14.4575C17.8109 14.5812 17.6073 14.643 17.4509 14.6684ZM18.5891 13.8539V9.21389C18.5891 8.51934 19.1964 8.30843 19.6073 8.24661C19.5891 8.35207 19.5782 8.45752 19.5782 8.56661C19.5782 8.85752 19.5637 9.32661 19.5455 9.88661C19.4727 12.0757 19.4327 13.9702 19.6218 14.8284C18.9346 14.7593 18.5891 14.4284 18.5891 13.8539Z" fill="#3E0967"/>
<path d="M4.05816 4.77053C5.15634 4.45053 6.09452 4.38507 6.09089 4.30871C6.09452 4.24325 5.12361 4.19598 3.98907 4.52689C2.85089 4.85053 2.05089 5.39234 2.08725 5.44689C2.12361 5.51234 2.95634 5.08325 4.05816 4.77053Z" fill="#3E0967"/>
<path d="M4.53819 3.60007C5.71273 3.37462 6.69092 3.48007 6.69819 3.40371C6.71637 3.34189 5.71274 3.11644 4.49092 3.34916C3.2691 3.57462 2.41092 4.13462 2.44728 4.18553C2.48364 4.25462 3.36364 3.81462 4.53819 3.60007Z" fill="#3E0967"/>
<path d="M21.0436 18.5639C21 18.5021 20.2763 18.9894 19.3163 19.4439C18.3563 19.9057 17.5236 20.1567 17.5418 20.2294C17.5563 20.2948 18.4363 20.1457 19.4254 19.673C20.4145 19.2039 21.0872 18.6148 21.0436 18.5639Z" fill="#3E0967"/>
<path d="M20.0582 20.1863C18.9855 20.5027 18.0837 20.6554 18.0946 20.7281C18.0982 20.7936 19.0328 20.7536 20.1309 20.43C21.2291 20.1136 22.04 19.6481 22.0073 19.59C21.9746 19.5245 21.1346 19.8772 20.0582 20.1863Z" fill="#3E0967"/>
</svg>
