<svg xmlns="http://www.w3.org/2000/svg" xmlns:v="https://vecta.io/nano" width="144" height="33" fill="none"><path d="M28.72 19.645c.949-3.29-3.324-8.913-13.122-5.169-7.934 3.035-9.435 8.894-8.538 12.98.54 2.453 2.423 4.363 3.815 4.58 0 0-.747-.435-1.407-1.849-1.189-2.555-.371-5.661 2.36-6.88 2.386-1.065 4.059-.762 6.295-.672 4.753.191 9.435 1.024 10.594-2.993l.004.004z" fill="#184378"></path><path d="M33.405 18.685C34.081 8.871 25.936.082 15.181.292 5.128.487-3.568 10.743 1.478 15.74c1.774 1.759 4.141 1.343 6.103.289 3.41-1.827 7.015-5.901 14-5.841 9.622.079 10.279 7.345 10.252 8.433-.026 1.095-.064 7.206-9.57 7.533-4.322.15-7.713-1.343-8.208 1.628-.623 3.74 8.204 5.665 14.371.795 4.817-3.8 4.933-9.24 4.978-9.892z" fill="#e32227"></path><path d="M49.352 15.631a9.21 9.21 0 0 1-.889-.638c-.668-.499-1.384-.934-2.135-1.29-.761-.33-1.591-.492-2.42-.473a5.93 5.93 0 0 0-2.318.473 5.83 5.83 0 0 0-1.958 1.313 6.23 6.23 0 0 0-1.335 1.932 5.7 5.7 0 0 0-.484 2.292 7.07 7.07 0 0 0 .409 2.386c.27.739.683 1.418 1.208 2 .525.57 1.159 1.032 1.868 1.35a5.94 5.94 0 0 0 2.348.473 7.27 7.27 0 0 0 3.204-.563 10.05 10.05 0 0 0 2.491-1.969l.008-7.285h.004zm-2.363-4.006a21.14 21.14 0 0 1 3.024 1.786 1.91 1.91 0 0 0 .214.131 5.61 5.61 0 0 0 .908.525 2.98 2.98 0 0 0 .945.109c-.255.165-.428.428-.484.728-.064.525-.086 1.054-.071 1.583v9.626a1.09 1.09 0 0 0 .623.983h-2.78v-1.744l-.124-.052a4.36 4.36 0 0 1-2.101 1.801 8.02 8.02 0 0 1-3.027.51c-1.103 0-2.195-.203-3.219-.604-1.009-.39-1.936-.968-2.735-1.699-1.636-1.501-2.558-3.624-2.547-5.845a8.4 8.4 0 0 1 .641-3.279 8.8 8.8 0 0 1 1.759-2.693c.754-.769 1.654-1.377 2.652-1.786 1.032-.428 2.142-.642 3.256-.638a7 7 0 0 1 3.057.548m8.112 3.738a1.48 1.48 0 0 0-.214-.765c-.019-.034-.037-.086-.052-.124.566-.173 1.11-.416 1.613-.732.477-.319.93-.664 1.365-1.035a8.6 8.6 0 0 1 1.808-1.23 6.24 6.24 0 0 1 2.457-.394 6.4 6.4 0 0 1 2.562.533 6.66 6.66 0 0 1 2.168 1.482 6.95 6.95 0 0 1 1.474 2.179c.353.803.536 1.669.536 2.547v7.131c-.03.416.03.837.18 1.23a1.55 1.55 0 0 0 .525.608H66.01c.248-.131.439-.356.525-.626.086-.368.12-.747.109-1.122v-6.914a4.77 4.77 0 0 0-1.395-3.492 4.71 4.71 0 0 0-3.496-1.426 4.03 4.03 0 0 0-2.206.57 8.65 8.65 0 0 0-1.722 1.482c-.154.169-.323.323-.503.461v9.986a.88.88 0 0 0 .199.57 2.49 2.49 0 0 0 .525.446l.052.053h-3.47a1 1 0 0 0 .413-.536c.068-.323.098-.653.09-.979v-9.9h-.038l-.004-.004zm19.672 7.668a8.77 8.77 0 0 1 .889.642 15.16 15.16 0 0 0 2.135 1.279 5.43 5.43 0 0 0 2.42.495c1.606-.011 3.14-.657 4.273-1.793a6.24 6.24 0 0 0 1.335-1.939c.319-.724.484-1.512.484-2.303 0-.814-.135-1.624-.409-2.393-.27-.743-.683-1.422-1.208-2.011-.525-.57-1.163-1.032-1.872-1.347-.743-.315-1.542-.48-2.348-.476-1.095-.06-2.195.135-3.204.566a10.07 10.07 0 0 0-2.491 1.973v7.308h-.004zM72.611 5.514a1.19 1.19 0 0 0-.623-1.05h2.776v8.812l.131.056c.484-.818 1.219-1.452 2.101-1.812a7.92 7.92 0 0 1 3.027-.51 8.84 8.84 0 0 1 5.961 2.303 7.92 7.92 0 0 1 2.547 5.867c.007 1.129-.21 2.247-.642 3.29a8.77 8.77 0 0 1-1.763 2.701c-.754.773-1.654 1.38-2.652 1.793a8.45 8.45 0 0 1-3.256.642 6.34 6.34 0 0 1-2.42-.42 14.3 14.3 0 0 1-2.427-1.339l-1.336-.822c-.536-.409-1.148-.713-1.801-.889a1.26 1.26 0 0 0 .289-.75 15.82 15.82 0 0 0 .052-1.407V5.514h.034zM91.825 26.78a.97.97 0 0 0 .45-.683 8.06 8.06 0 0 0 .109-1.531V5.889a4.08 4.08 0 0 0-.09-.882.84.84 0 0 0-.413-.54h2.697V25.49c-.075.499.142.994.555 1.279h-3.309v.019-.008zm9.258-20.246c.274.263.424.634.409 1.013a1.4 1.4 0 0 1-2.39 1.013 1.32 1.32 0 0 1-.413-1.013c-.007-.78.619-1.422 1.399-1.429a1.48 1.48 0 0 1 .99.416h.004zm-2.645 20.25a.97.97 0 0 0 .45-.686 8.16 8.16 0 0 0 .109-1.538V12.81c0-.296-.026-.597-.09-.885-.053-.232-.203-.428-.413-.54h2.697v14.12c-.075.499.139.998.555 1.283h-3.309v-.004zm18.172-11.9c-.566-.518-1.208-.953-1.898-1.29a5.09 5.09 0 0 0-2.101-.349 6.06 6.06 0 0 0-2.543.525c-.739.341-1.396.833-1.932 1.444a6.26 6.26 0 0 0-1.197 2.022 6.43 6.43 0 0 0-.405 2.239c-.038 2.442 1.437 4.652 3.702 5.552a6.6 6.6 0 0 0 2.394.435 5.52 5.52 0 0 0 3.98-1.748v3.672l-.165-.09c-.098-.056-.184-.131-.278-.184a.49.49 0 0 0-.202-.075 3.58 3.58 0 0 0-.315.056l-1.805.345c-.596.105-1.2.161-1.808.165-.975-.004-1.943-.21-2.836-.604-4.138-1.804-6.07-6.587-4.344-10.759a8.76 8.76 0 0 1 1.729-2.693 7.94 7.94 0 0 1 2.581-1.819c.979-.435 2.041-.66 3.114-.656a7.72 7.72 0 0 1 1.313.109 22.22 22.22 0 0 1 1.474.326 4.2 4.2 0 0 0 .829.184.46.46 0 0 0 .289-.131 5.62 5.62 0 0 0 .349-.308l.097-.09v3.718h-.03v.004h.008zm15.726-3.454v.056a7.85 7.85 0 0 0-1.97 1.444l-4.591 4.378a5.52 5.52 0 0 1 2.626.866 5.59 5.59 0 0 1 1.785 1.891c.462.795.799 1.658 1.002 2.558a12.5 12.5 0 0 1 .308 2.862 1.31 1.31 0 0 0 .637 1.279h-3.417a1.33 1.33 0 0 0 .566-1.279c0-2.382-.547-4.145-1.643-5.297s-2.806-1.726-5.132-1.729h-.675l6.118-6.231a.5.5 0 0 0 .222-.375c-.008-.176-.124-.326-.289-.379v-.038l4.457-.007h-.004zm-14.049 15.35c.248-.146.413-.398.454-.683a7.77 7.77 0 0 0 .109-1.531V5.889a4.14 4.14 0 0 0-.09-.882c-.057-.233-.214-.431-.424-.54h2.731V25.49c-.075.499.142.998.562 1.279h-3.346v.019l.004-.008zm23.401-12.443a4.35 4.35 0 0 0-1.257-.799c-.447-.199-.927-.304-1.414-.308a2.88 2.88 0 0 0-1.722.454 1.76 1.76 0 0 0-.638 1.531 1.96 1.96 0 0 0 .638 1.583c.607.465 1.283.84 1.995 1.11l1.497.713a4.54 4.54 0 0 1 1.103.837 3.78 3.78 0 0 1 .859 1.366c.236.642.349 1.32.326 2.003.038 1.275-.45 2.513-1.342 3.425-.86.893-2.052 1.388-3.29 1.365a10.31 10.31 0 0 1-2.51-.308 4.97 4.97 0 0 1-.657-.165 2.89 2.89 0 0 0-.686-.161c-.105.011-.206.049-.289.109a.84.84 0 0 0-.277.274h-.034v-3.804a5.74 5.74 0 0 0 1.778 1.377 4.34 4.34 0 0 0 2.063.51 4.25 4.25 0 0 0 2.24-.548 1.99 1.99 0 0 0 .877-1.838 2.67 2.67 0 0 0-.742-2.078c-.657-.559-1.4-1.002-2.206-1.313l-1.396-.675a4.58 4.58 0 0 1-1.05-.788 3.45 3.45 0 0 1-.773-1.219 4.81 4.81 0 0 1-.289-1.767c-.056-1.133.383-2.236 1.205-3.016.821-.761 1.909-1.167 3.031-1.129.48.019.956.079 1.429.184a4.5 4.5 0 0 0 .863.131.82.82 0 0 0 .656-.263v3.211h.008l.004-.004z" fill="#184378" fill-rule="evenodd"></path><path fill-rule="evenodd" d="M101.754 7.772a1.65 1.65 0 0 1-1.654 1.651c-.911-.004-1.654-.743-1.65-1.654a1.65 1.65 0 1 1 3.305.004z" fill="#e32227"></path></svg>