<svg width="60" height="54" viewBox="0 0 60 54" fill="none" xmlns="http://www.w3.org/2000/svg">
<path d="M58.0098 7.24416C58.5006 6.71444 58.8263 6.05532 58.9473 5.34635C59.0684 4.63737 58.9797 3.90884 58.6921 3.24867C58.4044 2.58849 57.9301 2.0249 57.3262 1.62588C56.7224 1.22687 56.0148 1.0095 55.2891 1H23.6158C23.1238 0.999886 22.6365 1.09578 22.1819 1.28221C21.7273 1.46865 21.3142 1.74196 20.9663 2.08655L2.09191 20.6497C1.56984 21.1706 1.21475 21.8327 1.07122 22.5528C0.927694 23.273 1.00213 24.0191 1.28518 24.6974C1.56823 25.3758 2.04729 25.9562 2.66219 26.3658C3.2771 26.7754 4.00046 26.9959 4.74144 26.9997H37.5685C38.0849 27.0063 38.597 26.9069 39.0726 26.7077C39.5482 26.5086 39.977 26.214 40.332 25.8426L58.0098 7.24416Z" stroke="#7234F7" stroke-opacity="0.25" stroke-width="2"/>
<path d="M58.0098 46.7558C58.5006 47.2856 58.8263 47.9447 58.9473 48.6537C59.0684 49.3626 58.9797 50.0912 58.6921 50.7513C58.4044 51.4115 57.9301 51.9751 57.3262 52.3741C56.7224 52.7731 56.0148 52.9905 55.2891 53H23.6158C23.1238 53.0001 22.6365 52.9042 22.1819 52.7178C21.7273 52.5314 21.3142 52.258 20.9663 51.9134L2.09191 33.3503C1.56984 32.8294 1.21475 32.1673 1.07122 31.4472C0.927694 30.727 1.00213 29.9809 1.28518 29.3026C1.56823 28.6242 2.04729 28.0438 2.66219 27.6342C3.2771 27.2246 4.00046 27.0041 4.74144 27.0003H37.5685C38.0849 26.9937 38.597 27.0931 39.0726 27.2923C39.5482 27.4914 39.977 27.786 40.332 28.1574L58.0098 46.7558Z" stroke="#FE7465" stroke-opacity="0.25" stroke-width="2"/>
</svg>
