<svg width="52" height="49" viewBox="0 0 52 49" fill="none" xmlns="http://www.w3.org/2000/svg">
<path d="M46.2147 6.04336C46.604 5.61551 46.8622 5.08315 46.9582 4.51051C47.0542 3.93788 46.9839 3.34945 46.7558 2.81623C46.5277 2.28301 46.1514 1.8278 45.6725 1.50552C45.1936 1.18324 44.6325 1.00767 44.0568 1H18.9367C18.5464 0.999908 18.16 1.07736 17.7995 1.22794C17.4389 1.37852 17.1113 1.59928 16.8353 1.8776L1.866 16.8709C1.45194 17.2916 1.17032 17.8264 1.05649 18.4081C0.942654 18.9897 1.00169 19.5923 1.22618 20.1402C1.45067 20.6882 1.83061 21.157 2.31829 21.4878C2.80598 21.8186 3.37967 21.9967 3.96735 21.9998H30.0026C30.4121 22.0051 30.8183 21.9248 31.1955 21.7639C31.5727 21.6031 31.9128 21.3652 32.1944 21.0652L46.2147 6.04336Z" stroke="#7233F7" stroke-opacity="0.25" stroke-width="2"/>
<path d="M14.0036 35.4783C13.5102 34.9325 13.1807 34.247 13.0559 33.5069C12.9311 32.7669 13.0164 32.0047 13.3014 31.315C13.5864 30.6252 14.0584 30.0382 14.659 29.6267C15.2596 29.2152 15.9624 28.9973 16.6801 29H36.5002C37.4704 29.0001 38.401 29.4033 39.0876 30.121L50.9136 42.433C51.4303 42.9689 51.7832 43.6536 51.9273 44.4C52.0714 45.1464 52.0003 45.9208 51.7229 46.6248C51.4455 47.3288 50.9745 47.9305 50.3697 48.3534C49.7649 48.7763 49.0536 49.0014 48.3263 49H27.7612C27.2598 49.0001 26.7638 48.8929 26.3035 48.6848C25.8432 48.4768 25.4284 48.1724 25.0846 47.7903L14.0036 35.4783Z" fill="#FF7262" fill-opacity="0.2"/>
</svg>
