<svg width="92" height="67" viewBox="0 0 92 67" fill="none" xmlns="http://www.w3.org/2000/svg">
<g id="loading 4">
<path id="Vector 2" d="M87.749 45.0796L46.0344 52.3816L4.32 45.0796" stroke="#FE7465" stroke-width="5.03052" stroke-linecap="round"/>
<path id="Vector 3" d="M85.8848 38.0884C63.5127 42.7492 46.0346 51.3718 46.0346 51.3718C46.0346 51.3718 26.3812 41.351 5.56291 38.0884" stroke="#FE7465" stroke-width="5.03052" stroke-linecap="round"/>
<path id="Vector 4" d="M85.8848 38.0884C63.5127 42.7492 46.0346 51.3718 46.0346 51.3718" stroke="#FE7465" stroke-width="5.03052" stroke-linecap="round"/>
<path id="Union" fill-rule="evenodd" clip-rule="evenodd" d="M87.1414 49.8451C89.0571 49.5097 90.8819 50.7909 91.2172 52.7065C91.5525 54.6222 90.2714 56.447 88.3557 56.7823L53.2184 62.933C53.0278 64.9456 49.8841 66.5464 46.0339 66.5464C42.1837 66.5464 39.04 64.9456 38.8494 62.933L3.71236 56.7823C1.79669 56.447 0.515579 54.6222 0.850914 52.7065C1.18624 50.7909 3.01104 49.5097 4.9267 49.8451L46.034 57.0408L87.1414 49.8451Z" fill="#0F002E"/>
</g>
</svg>
