<svg width="18" height="19" viewBox="0 0 18 19" fill="none" xmlns="http://www.w3.org/2000/svg">
<g id="briefcase 2">
<g id="Group">
<path id="Vector" d="M4.92188 4.78906V3.22363C4.92188 2.60059 5.43164 2.09082 6.05468 2.09082H11.9453C12.5684 2.09082 13.0781 2.60059 13.0781 3.22363V4.78906" stroke="#FE7465" stroke-miterlimit="22.9256" stroke-linecap="round" stroke-linejoin="round"/>
<path id="Vector_2" d="M16.7695 9.85156V15.8545C16.7695 16.4345 16.2948 16.9092 15.7148 16.9092H2.28516C1.70518 16.9092 1.23047 16.4346 1.23047 15.8545V9.88672" stroke="#7234F7" stroke-miterlimit="22.9256" stroke-linecap="round" stroke-linejoin="round"/>
<path id="Vector_3" d="M7.59375 11.627C3.87461 11.4143 0.527344 10.3508 0.527344 8.43642V5.94043C0.527344 5.35954 1.00111 4.88574 1.58203 4.88574H16.418C16.9989 4.88574 17.4727 5.35958 17.4727 5.94043V8.43642C17.4727 10.3628 14.0831 11.4276 10.3359 11.6309" stroke="#7234F7" stroke-miterlimit="22.9256" stroke-linecap="round" stroke-linejoin="round"/>
<path id="Vector_4" fill-rule="evenodd" clip-rule="evenodd" d="M7.69922 10.5811H10.3008V11.7939C10.3008 12.461 9.75498 13.0068 9.08789 13.0068H8.91211C8.24502 13.0068 7.69922 12.461 7.69922 11.7939V10.5811Z" stroke="#FE7465" stroke-miterlimit="22.9256" stroke-linecap="round" stroke-linejoin="round"/>
</g>
</g>
</svg>
