<svg width="48" height="48" viewBox="0 0 48 48" fill="none" xmlns="http://www.w3.org/2000/svg">
<g id="certificate (2) 2" clip-path="url(#clip0_4861_57922)">
<g id="Page-1">
<g id="008---Certificate">
<path id="Shape" d="M44 3.19995H4C1.79196 3.2026 0.0026449 4.99191 0 7.19995V36C0.0026449 38.208 1.79196 39.9973 4 40H28V44C28.0001 44.3235 28.195 44.6151 28.4939 44.7389C28.7928 44.8627 29.1368 44.7943 29.3656 44.5656L32 41.9312L34.6344 44.5656C34.8632 44.7943 35.2072 44.8627 35.5061 44.7389C35.805 44.6151 35.9999 44.3235 36 44V40H44C46.208 39.9973 47.9974 38.208 48 36V7.19995C47.9974 4.99191 46.208 3.2026 44 3.19995ZM25.848 18.852C25.7243 18.7949 25.6355 18.6821 25.6089 18.5486C25.5823 18.415 25.6212 18.2768 25.7136 18.1768C26.4294 17.3988 26.4294 16.2019 25.7136 15.424C25.6209 15.3238 25.5819 15.1853 25.6087 15.0514C25.6354 14.9176 25.7247 14.8048 25.8488 14.748C26.8071 14.302 27.2645 13.1967 26.9016 12.204C26.8544 12.0761 26.8712 11.9334 26.9468 11.8201C27.0225 11.7068 27.1478 11.6365 27.284 11.6312C28.3405 11.5868 29.1868 10.7404 29.2312 9.68395C29.2365 9.54759 29.3069 9.42204 29.4204 9.34635C29.5339 9.27066 29.6769 9.25399 29.8048 9.30155C30.7977 9.66233 31.9017 9.20509 32.3488 8.24795C32.4054 8.12405 32.518 8.03487 32.6516 8.00825C32.7852 7.98163 32.9234 8.0208 33.0232 8.11355C33.8015 8.82949 34.9985 8.82949 35.7768 8.11355C35.8768 8.02086 36.0153 7.98182 36.149 8.0086C36.2827 8.03537 36.3954 8.1247 36.452 8.24875C36.8982 9.20635 38.0027 9.66358 38.9952 9.30155C39.1231 9.25399 39.2661 9.27066 39.3796 9.34635C39.4931 9.42204 39.5635 9.54759 39.5688 9.68395C39.6137 10.7419 40.462 11.5888 41.52 11.632C41.6561 11.6371 41.7815 11.7071 41.8572 11.8204C41.9329 11.9336 41.9497 12.0762 41.9024 12.204C41.5392 13.1969 41.9971 14.3026 42.956 14.748C43.0797 14.805 43.1686 14.9178 43.1951 15.0513C43.2217 15.1849 43.1828 15.3231 43.0904 15.4232C42.3746 16.2011 42.3746 17.398 43.0904 18.176C43.1831 18.2761 43.2221 18.4146 43.1953 18.5485C43.1686 18.6823 43.0793 18.7951 42.9552 18.852C41.9969 19.2979 41.5395 20.4032 41.9024 21.396C41.9496 21.5238 41.9328 21.6665 41.8572 21.7798C41.7815 21.8931 41.6562 21.9634 41.52 21.9688C40.4605 22.0113 39.6113 22.8604 39.5688 23.92C39.5635 24.0563 39.4931 24.1819 39.3796 24.2576C39.2661 24.3332 39.1231 24.3499 38.9952 24.3024C38.0023 23.9412 36.898 24.3985 36.4512 25.356C36.3967 25.481 36.2837 25.5709 36.1496 25.596C36.0157 25.6239 35.8765 25.5848 35.7768 25.4912C34.9984 24.7756 33.8016 24.7756 33.0232 25.4912C32.9234 25.5847 32.7843 25.6238 32.6504 25.596C32.5161 25.5709 32.4029 25.4811 32.348 25.356C31.9021 24.3981 30.7973 23.9407 29.8048 24.3032C29.6769 24.3507 29.5339 24.334 29.4204 24.2584C29.3069 24.1827 29.2365 24.0571 29.2312 23.9208C29.1887 22.8609 28.3398 22.0113 27.28 21.968C27.1439 21.9628 27.0185 21.8928 26.9428 21.7795C26.8671 21.6663 26.8503 21.5237 26.8976 21.396C27.2614 20.4041 26.8054 19.2988 25.848 18.852ZM34.6352 33.8336L34.4 34.0688V26.5488C34.5071 26.5485 34.6103 26.5888 34.6888 26.6616C35.0595 27.0091 35.5487 27.2024 36.0568 27.2024C36.1927 27.2021 36.3283 27.1887 36.4616 27.1624C37.0982 27.0381 37.635 26.6128 37.9016 26.0216C37.9953 25.8199 38.2281 25.7238 38.4368 25.8008C38.6802 25.887 38.938 25.9258 39.196 25.9152V34.0688L37.3616 32.2344C37.0492 31.922 36.5428 31.922 36.2304 32.2344L34.6352 33.8336ZM34.4 42.0688L32.5656 40.2344C32.2532 39.922 31.7468 39.922 31.4344 40.2344L29.6 42.0688V25.9136C29.8581 25.9243 30.1158 25.8855 30.3592 25.7992C30.5675 25.7218 30.8002 25.8176 30.8936 26.0192C31.161 26.6119 31.6998 27.0377 32.3384 27.1608C32.4904 27.1908 32.6452 27.204 32.8 27.2V36C32.8001 36.3235 32.995 36.6151 33.2939 36.7389C33.5928 36.8627 33.9368 36.7943 34.1656 36.5656L34.4 36.3312V42.0688ZM46.4 36C46.4 37.3254 45.3255 38.4 44 38.4H36V34.7312L36.8 33.9312L39.4344 36.5656C39.6632 36.7943 40.0072 36.8627 40.3061 36.7389C40.605 36.6151 40.7999 36.3235 40.8 36V25.0456C41.0233 24.732 41.1508 24.3605 41.1672 23.976C41.177 23.754 41.3549 23.5765 41.5768 23.5672C42.2254 23.5421 42.8227 23.2079 43.1832 22.6681C43.5437 22.1284 43.6237 21.4486 43.3984 20.84C43.322 20.6317 43.418 20.3997 43.6192 20.3064C44.2093 20.0353 44.6336 19.4977 44.7603 18.8609C44.8869 18.224 44.7006 17.565 44.2592 17.0888C44.1088 16.9253 44.1088 16.6738 44.2592 16.5104C44.7006 16.0343 44.887 15.3754 44.7603 14.7386C44.6336 14.1018 44.2092 13.5644 43.6192 13.2936C43.4174 13.2008 43.3209 12.9684 43.3976 12.76C43.6229 12.1513 43.5429 11.4715 43.1824 10.9318C42.8219 10.392 42.2246 10.0578 41.576 10.0328C41.3541 10.0234 41.1762 9.84586 41.1664 9.62395C41.1421 8.97516 40.8083 8.37735 40.2686 8.01645C39.7289 7.65555 39.0489 7.57533 38.44 7.80075C38.2317 7.87939 37.9981 7.78323 37.9056 7.58075C37.6345 6.99069 37.097 6.56637 36.4601 6.43969C35.8232 6.31301 35.1642 6.49934 34.688 6.94075C34.5248 7.09101 34.2736 7.09101 34.1104 6.94075C33.6343 6.49933 32.9754 6.31299 32.3386 6.43967C31.7019 6.56636 31.1645 6.99072 30.8936 7.58075C30.8007 7.78335 30.5671 7.87974 30.3584 7.80155C29.7495 7.57613 29.0695 7.65635 28.5298 8.01725C27.9901 8.37815 27.6563 8.97596 27.632 9.62475C27.6222 9.84666 27.4443 10.0242 27.2224 10.0336C26.5738 10.0586 25.9765 10.3928 25.616 10.9326C25.2556 11.4723 25.1755 12.1521 25.4008 12.7608C25.4772 12.969 25.3812 13.201 25.18 13.2944C24.5899 13.5654 24.1656 14.103 24.0389 14.7398C23.9123 15.3767 24.0986 16.0357 24.54 16.512C24.6904 16.6754 24.6904 16.9269 24.54 17.0904C24.0986 17.5664 23.9122 18.2253 24.0389 18.8621C24.1656 19.4989 24.59 20.0363 25.18 20.3072C25.3818 20.4 25.4783 20.6323 25.4016 20.8408C25.1763 21.4494 25.2563 22.1292 25.6168 22.6689C25.9773 23.2087 26.5746 23.5429 27.2232 23.568C27.4451 23.5773 27.623 23.7548 27.6328 23.9768C27.6493 24.361 27.7769 24.7323 28 25.0456V38.4H4C2.67452 38.4 1.6 37.3254 1.6 36V7.19995C1.6 5.87447 2.67452 4.79995 4 4.79995H44C45.3255 4.79995 46.4 5.87447 46.4 7.19995V36Z" fill="#7234F7"/>
<path id="Shape_2" d="M8.7998 31.9999C7.47432 31.9999 6.3998 30.9253 6.3998 29.5999V13.5999C6.3998 12.2744 7.47432 11.1999 8.7998 11.1999H23.1998C23.6416 11.1999 23.9998 10.8417 23.9998 10.3999C23.9998 9.95803 23.6416 9.59985 23.1998 9.59985H8.7998C6.59176 9.6025 4.80245 11.3918 4.7998 13.5999V29.5999C4.80245 31.8079 6.59176 33.5972 8.7998 33.5999H23.9998C24.4416 33.5999 24.7998 33.2417 24.7998 32.7999C24.7998 32.358 24.4416 31.9999 23.9998 31.9999H8.7998Z" fill="#FE7465"/>
<path id="Shape_3" d="M9.5998 22.4H20.7998C21.2416 22.4 21.5998 22.0419 21.5998 21.6C21.5998 21.1582 21.2416 20.8 20.7998 20.8H9.5998C9.15798 20.8 8.7998 21.1582 8.7998 21.6C8.7998 22.0419 9.15798 22.4 9.5998 22.4Z" fill="#FE7465"/>
<path id="Shape_4" d="M9.5998 19.1999H20.7998C21.2416 19.1999 21.5998 18.8417 21.5998 18.3999C21.5998 17.958 21.2416 17.5999 20.7998 17.5999H9.5998C9.15798 17.5999 8.7998 17.958 8.7998 18.3999C8.7998 18.8417 9.15798 19.1999 9.5998 19.1999Z" fill="#FE7465"/>
<path id="Shape_5" d="M9.5998 15.9999H20.7998C21.2416 15.9999 21.5998 15.6417 21.5998 15.1999C21.5998 14.7581 21.2416 14.3999 20.7998 14.3999H9.5998C9.15798 14.3999 8.7998 14.7581 8.7998 15.1999C8.7998 15.6417 9.15798 15.9999 9.5998 15.9999Z" fill="#FE7465"/>
<path id="Shape_6" d="M8.86667 29.9199C8.99397 30.2115 9.28203 30.4 9.60027 30.3999C9.71041 30.4004 9.81943 30.3778 9.92027 30.3335C10.6609 30.0583 11.3416 29.643 11.9251 29.1103C12.1417 28.8941 12.3311 28.6523 12.4891 28.3903C12.7946 28.7337 13.1536 29.0255 13.5523 29.2543C14.1083 29.6178 14.8003 29.7063 15.4299 29.4943C15.6712 29.4006 15.8895 29.256 16.0699 29.0703C16.4319 29.2965 16.8307 29.4576 17.2483 29.5463L17.8531 29.6895C19.0876 30.0511 20.3702 30.221 21.6563 30.1935C21.9414 30.1729 22.1938 30.0018 22.3186 29.7446C22.4433 29.4874 22.4213 29.1832 22.261 28.9466C22.1006 28.71 21.8262 28.5769 21.5411 28.5975C20.4189 28.6121 19.3009 28.4557 18.2259 28.1335L17.6075 27.9871C16.8611 27.8151 16.6691 27.5143 16.5899 27.3023C16.4505 26.9301 16.0589 26.7166 15.6705 26.8012C15.2822 26.8857 15.0147 27.2426 15.0427 27.6391C15.0516 27.7825 14.9837 27.9199 14.8643 27.9999C14.6774 28.0236 14.4884 27.975 14.3363 27.8639C13.6893 27.4611 13.2028 26.8456 12.9603 26.1231C12.8226 25.7511 12.4332 25.5361 12.045 25.6179C11.6569 25.6997 11.3873 26.0535 11.4115 26.4495C11.4249 27.0218 11.2008 27.5741 10.7923 27.9751C10.3481 28.3636 9.83529 28.6658 9.28027 28.8663C9.08565 28.9511 8.9327 29.1097 8.85513 29.3074C8.77755 29.505 8.78171 29.7253 8.86667 29.9199Z" fill="#FE7465"/>
<path id="Shape_7" d="M34.4 23.1999C37.9346 23.1999 40.8 20.3345 40.8 16.7999C40.8 13.2653 37.9346 10.3999 34.4 10.3999C30.8654 10.3999 28 13.2653 28 16.7999C28.004 20.3329 30.867 23.1959 34.4 23.1999ZM34.4 11.9999C37.051 11.9999 39.2 14.1489 39.2 16.7999C39.2 19.4509 37.051 21.5999 34.4 21.5999C31.749 21.5999 29.6 19.4509 29.6 16.7999C29.6026 14.15 31.7501 12.0025 34.4 11.9999Z" fill="#7234F7"/>
</g>
</g>
</g>
<defs>
<clipPath id="clip0_4861_57922">
<rect width="48" height="48" fill="white"/>
</clipPath>
</defs>
</svg>
