<svg width="30" height="30" viewBox="0 0 30 30" fill="none" xmlns="http://www.w3.org/2000/svg">
<path d="M28.354 7.26492V22.5188C28.3361 23.1375 28.0748 23.7243 27.627 24.1516C27.1792 24.579 26.5809 24.8125 25.962 24.8014H12.9771C12.7052 24.8014 12.4444 24.6934 12.2522 24.5012C12.0599 24.3089 11.9519 24.0482 11.9519 23.7763C11.9519 23.5044 12.0599 23.2437 12.2522 23.0514C12.4444 22.8592 12.7052 22.7512 12.9771 22.7512H25.962C26.1533 22.7512 26.3037 22.6281 26.3037 22.5188V7.26492C26.3037 7.15558 26.1533 7.03256 25.962 7.03256H4.09264C3.90129 7.03256 3.75093 7.15558 3.75093 7.26492V22.5188C3.75093 22.6281 3.90129 22.7512 4.09264 22.7512H7.50973C7.78161 22.7512 8.04235 22.8592 8.2346 23.0514C8.42685 23.2437 8.53485 23.5044 8.53485 23.7763C8.53485 24.0482 8.42685 24.3089 8.2346 24.5012C8.04235 24.6934 7.78161 24.8014 7.50973 24.8014H4.09264C3.47373 24.8125 2.87543 24.579 2.42761 24.1516C1.97979 23.7243 1.71858 23.1375 1.70068 22.5188V7.26492C1.71858 6.64617 1.97979 6.05944 2.42761 5.63209C2.87543 5.20474 3.47373 4.97125 4.09264 4.98231H25.962C26.5809 4.97125 27.1792 5.20474 27.627 5.63209C28.0748 6.05944 28.3361 6.64617 28.354 7.26492ZM23.2283 17.2838H17.0776C16.8057 17.2838 16.5449 17.3918 16.3527 17.5841C16.1604 17.7763 16.0524 18.0371 16.0524 18.3089C16.0524 18.5808 16.1604 18.8416 16.3527 19.0338C16.5449 19.2261 16.8057 19.3341 17.0776 19.3341H23.2283C23.5002 19.3341 23.7609 19.2261 23.9532 19.0338C24.1454 18.8416 24.2534 18.5808 24.2534 18.3089C24.2534 18.0371 24.1454 17.7763 23.9532 17.5841C23.7609 17.3918 23.5002 17.2838 23.2283 17.2838ZM23.2283 9.08281H6.82631C6.55443 9.08281 6.29369 9.19082 6.10144 9.38306C5.90919 9.57531 5.80119 9.83606 5.80119 10.1079C5.80119 10.3798 5.90919 10.6406 6.10144 10.8328C6.29369 11.0251 6.55443 11.1331 6.82631 11.1331H23.2283C23.5002 11.1331 23.7609 11.0251 23.9532 10.8328C24.1454 10.6406 24.2534 10.3798 24.2534 10.1079C24.2534 9.83606 24.1454 9.57531 23.9532 9.38306C23.7609 9.19082 23.5002 9.08281 23.2283 9.08281ZM23.2283 13.1833H17.0776C16.8057 13.1833 16.5449 13.2913 16.3527 13.4836C16.1604 13.6758 16.0524 13.9366 16.0524 14.2084C16.0524 14.4803 16.1604 14.7411 16.3527 14.9333C16.5449 15.1256 16.8057 15.2336 17.0776 15.2336H23.2283C23.5002 15.2336 23.7609 15.1256 23.9532 14.9333C24.1454 14.7411 24.2534 14.4803 24.2534 14.2084C24.2534 13.9366 24.1454 13.6758 23.9532 13.4836C23.7609 13.2913 23.5002 13.1833 23.2283 13.1833Z" fill="#772BD8"/>
<path d="M14.6851 15.542C14.6898 14.8522 14.5337 14.1707 14.2293 13.5517C13.9248 12.9326 13.4804 12.393 12.9312 11.9755C12.382 11.5581 11.7431 11.2743 11.0652 11.1466C10.3872 11.0189 9.68888 11.0509 9.02545 11.2399C8.36201 11.429 7.75173 11.77 7.24296 12.2359C6.73419 12.7018 6.34092 13.2798 6.09432 13.924C5.84771 14.5683 5.75454 15.2612 5.8222 15.9477C5.88985 16.6342 6.11647 17.2956 6.4841 17.8793V24.4264C6.48361 24.6114 6.53316 24.793 6.6275 24.9521C6.72184 25.1111 6.85745 25.2417 7.01997 25.33C7.18249 25.4183 7.36586 25.4609 7.55065 25.4534C7.73544 25.446 7.91477 25.3886 8.06963 25.2875L10.2429 23.9207L12.4162 25.2875C12.5841 25.3933 12.7781 25.4501 12.9766 25.4516C13.1482 25.4513 13.3171 25.4091 13.4686 25.3285C13.6294 25.2389 13.7636 25.1081 13.8572 24.9496C13.9509 24.7911 14.0008 24.6106 14.0017 24.4264V17.8793C14.4441 17.1797 14.6809 16.3698 14.6851 15.542ZM10.2429 13.1501C10.716 13.1501 11.1784 13.2903 11.5718 13.5532C11.9651 13.816 12.2717 14.1896 12.4528 14.6267C12.6338 15.0637 12.6812 15.5447 12.5889 16.0087C12.4966 16.4727 12.2688 16.8989 11.9343 17.2334C11.5997 17.5679 11.1735 17.7957 10.7095 17.888C10.2455 17.9803 9.7646 17.9329 9.32753 17.7519C8.89046 17.5709 8.51688 17.2643 8.25405 16.8709C7.99122 16.4776 7.85093 16.0151 7.85093 15.542C7.85452 14.9087 8.10768 14.3024 8.55549 13.8546C9.00329 13.4068 9.60961 13.1536 10.2429 13.1501ZM10.8033 21.8021C10.636 21.6949 10.4415 21.638 10.2429 21.638C10.0442 21.638 9.84975 21.6949 9.68249 21.8021L8.53435 22.5539V19.6425C9.07572 19.8681 9.6564 19.9842 10.2429 19.9842C10.8294 19.9842 11.4101 19.8681 11.9514 19.6425V22.5539L10.8033 21.8021Z" fill="#772BD8"/>
</svg>
