<svg width="30" height="30" viewBox="0 0 30 30" fill="none" xmlns="http://www.w3.org/2000/svg">
<g clip-path="url(#clip0_26716_3743)">
<path fill-rule="evenodd" clip-rule="evenodd" d="M25.6762 30.0004H10.6322C10.3335 30.0004 10.105 29.7543 10.105 29.4731V15.3431C10.105 15.0443 10.3335 14.8158 10.6322 14.8158C10.9134 14.8158 11.1595 15.0443 11.1595 15.3431V28.9459H25.1489V8.01444H11.1595V9.36769C11.1595 9.64889 10.9134 9.89493 10.6322 9.89493C10.3335 9.89493 10.105 9.64889 10.105 9.36769V7.4872C10.105 7.18843 10.3335 6.95996 10.6322 6.95996H25.6762C25.9574 6.95996 26.2034 7.18843 26.2034 7.4872V29.4731C26.2034 29.7543 25.9574 30.0004 25.6762 30.0004Z" fill="#4EE8EB"/>
<path fill-rule="evenodd" clip-rule="evenodd" d="M25.6762 30.0004H10.6322C10.3335 30.0004 10.105 29.7543 10.105 29.4731V15.3431C10.105 15.0443 10.3335 14.8158 10.6322 14.8158C10.9134 14.8158 11.1595 15.0443 11.1595 15.3431V28.9459H25.1489V8.01444H11.1595V9.36769C11.1595 9.64889 10.9134 9.89493 10.6322 9.89493C10.3335 9.89493 10.105 9.64889 10.105 9.36769V7.4872C10.105 7.18843 10.3335 6.95996 10.6322 6.95996H25.6762C25.9574 6.95996 26.2034 7.18843 26.2034 7.4872V29.4731C26.2034 29.7543 25.9574 30.0004 25.6762 30.0004Z" fill="#FF7262"/>
<path fill-rule="evenodd" clip-rule="evenodd" d="M25.6762 30.0004H10.6322C10.3335 30.0004 10.105 29.7543 10.105 29.4731V15.3431C10.105 15.0443 10.3335 14.8158 10.6322 14.8158C10.9134 14.8158 11.1595 15.0443 11.1595 15.3431V28.9459H25.1489V8.01444H11.1595V9.36769C11.1595 9.64889 10.9134 9.89493 10.6322 9.89493C10.3335 9.89493 10.105 9.64889 10.105 9.36769V7.4872C10.105 7.18843 10.3335 6.95996 10.6322 6.95996H25.6762C25.9574 6.95996 26.2034 7.18843 26.2034 7.4872V29.4731C26.2034 29.7543 25.9574 30.0004 25.6762 30.0004Z" fill="#BD89FF"/>
<path fill-rule="evenodd" clip-rule="evenodd" d="M10.6324 30.0004H6.62539C6.34419 30.0004 6.09814 29.7543 6.09814 29.4731V7.4872C6.09814 7.18843 6.34419 6.95996 6.62539 6.95996H10.6324C10.9136 6.95996 11.1597 7.18843 11.1597 7.4872V9.89493C11.1597 10.1761 10.9136 10.4222 10.6324 10.4222C10.3336 10.4222 10.1052 10.1761 10.1052 9.89493V8.01444H7.15263V28.9459H10.1052V15.3431C10.1052 15.0443 10.3336 14.8158 10.6324 14.8158C10.9136 14.8158 11.1597 15.0443 11.1597 15.3431V29.4731C11.1597 29.7543 10.9136 30.0004 10.6324 30.0004Z" fill="#4EE8EB"/>
<path fill-rule="evenodd" clip-rule="evenodd" d="M10.6324 30.0004H6.62539C6.34419 30.0004 6.09814 29.7543 6.09814 29.4731V7.4872C6.09814 7.18843 6.34419 6.95996 6.62539 6.95996H10.6324C10.9136 6.95996 11.1597 7.18843 11.1597 7.4872V9.89493C11.1597 10.1761 10.9136 10.4222 10.6324 10.4222C10.3336 10.4222 10.1052 10.1761 10.1052 9.89493V8.01444H7.15263V28.9459H10.1052V15.3431C10.1052 15.0443 10.3336 14.8158 10.6324 14.8158C10.9136 14.8158 11.1597 15.0443 11.1597 15.3431V29.4731C11.1597 29.7543 10.9136 30.0004 10.6324 30.0004Z" fill="#FF7262"/>
<path fill-rule="evenodd" clip-rule="evenodd" d="M10.6324 30.0004H6.62539C6.34419 30.0004 6.09814 29.7543 6.09814 29.4731V7.4872C6.09814 7.18843 6.34419 6.95996 6.62539 6.95996H10.6324C10.9136 6.95996 11.1597 7.18843 11.1597 7.4872V9.89493C11.1597 10.1761 10.9136 10.4222 10.6324 10.4222C10.3336 10.4222 10.1052 10.1761 10.1052 9.89493V8.01444H7.15263V28.9459H10.1052V15.3431C10.1052 15.0443 10.3336 14.8158 10.6324 14.8158C10.9136 14.8158 11.1597 15.0443 11.1597 15.3431V29.4731C11.1597 29.7543 10.9136 30.0004 10.6324 30.0004Z" fill="#BD89FF"/>
<path fill-rule="evenodd" clip-rule="evenodd" d="M11.5814 16.028C9.6833 16.028 8.1543 14.499 8.1543 12.6185C8.1543 10.738 9.6833 9.20898 11.5814 9.20898C13.4619 9.20898 14.9909 10.738 14.9909 12.6185C14.9909 14.499 13.4619 16.028 11.5814 16.028ZM11.5814 10.2635C10.2808 10.2635 9.20878 11.3179 9.20878 12.6185C9.20878 13.919 10.2808 14.9735 11.5814 14.9735C12.8643 14.9735 13.9364 13.919 13.9364 12.6185C13.9364 11.3179 12.8643 10.2635 11.5814 10.2635Z" fill="#4EE8EB"/>
<path fill-rule="evenodd" clip-rule="evenodd" d="M11.5814 16.028C9.6833 16.028 8.1543 14.499 8.1543 12.6185C8.1543 10.738 9.6833 9.20898 11.5814 9.20898C13.4619 9.20898 14.9909 10.738 14.9909 12.6185C14.9909 14.499 13.4619 16.028 11.5814 16.028ZM11.5814 10.2635C10.2808 10.2635 9.20878 11.3179 9.20878 12.6185C9.20878 13.919 10.2808 14.9735 11.5814 14.9735C12.8643 14.9735 13.9364 13.919 13.9364 12.6185C13.9364 11.3179 12.8643 10.2635 11.5814 10.2635Z" fill="#FF7262"/>
<path fill-rule="evenodd" clip-rule="evenodd" d="M11.5814 16.028C9.6833 16.028 8.1543 14.499 8.1543 12.6185C8.1543 10.738 9.6833 9.20898 11.5814 9.20898C13.4619 9.20898 14.9909 10.738 14.9909 12.6185C14.9909 14.499 13.4619 16.028 11.5814 16.028ZM11.5814 10.2635C10.2808 10.2635 9.20878 11.3179 9.20878 12.6185C9.20878 13.919 10.2808 14.9735 11.5814 14.9735C12.8643 14.9735 13.9364 13.919 13.9364 12.6185C13.9364 11.3179 12.8643 10.2635 11.5814 10.2635Z" fill="#BD89FF"/>
<path fill-rule="evenodd" clip-rule="evenodd" d="M23.6026 10.7381H16.8539C16.5727 10.7381 16.3267 10.5096 16.3267 10.2108C16.3267 9.92964 16.5727 9.68359 16.8539 9.68359H23.6026C23.9014 9.68359 24.1298 9.92964 24.1298 10.2108C24.1298 10.5096 23.9014 10.7381 23.6026 10.7381Z" fill="#FF7262"/>
<path fill-rule="evenodd" clip-rule="evenodd" d="M23.6026 14.2182H16.8539C16.5727 14.2182 16.3267 13.9721 16.3267 13.6909V11.8632C16.3267 11.582 16.5727 11.3359 16.8539 11.3359H23.6026C23.9014 11.3359 24.1298 11.582 24.1298 11.8632V13.6909C24.1298 13.9721 23.9014 14.2182 23.6026 14.2182ZM17.3811 13.1637H23.0753V12.3904H17.3811V13.1637Z" fill="#FF7262"/>
<path fill-rule="evenodd" clip-rule="evenodd" d="M19.5254 18.2078H12.7768C12.4956 18.2078 12.2495 17.9793 12.2495 17.6806C12.2495 17.3818 12.4956 17.1533 12.7768 17.1533H19.5254C19.8242 17.1533 20.0527 17.3818 20.0527 17.6806C20.0527 17.9793 19.8242 18.2078 19.5254 18.2078Z" fill="#FF7262"/>
<path fill-rule="evenodd" clip-rule="evenodd" d="M23.5149 20.158H12.7768C12.4956 20.158 12.2495 19.9295 12.2495 19.6308C12.2495 19.3496 12.4956 19.1035 12.7768 19.1035H23.5149C23.8137 19.1035 24.0421 19.3496 24.0421 19.6308C24.0421 19.9295 23.8137 20.158 23.5149 20.158Z" fill="#FF7262"/>
<path fill-rule="evenodd" clip-rule="evenodd" d="M23.5149 22.1267H12.7768C12.4956 22.1267 12.2495 21.8807 12.2495 21.5995C12.2495 21.3007 12.4956 21.0723 12.7768 21.0723H23.5149C23.8137 21.0723 24.0421 21.3007 24.0421 21.5995C24.0421 21.8807 23.8137 22.1267 23.5149 22.1267Z" fill="#FF7262"/>
<path fill-rule="evenodd" clip-rule="evenodd" d="M23.5149 24.0769H12.7768C12.4956 24.0769 12.2495 23.8485 12.2495 23.5497C12.2495 23.2685 12.4956 23.0225 12.7768 23.0225H23.5149C23.8137 23.0225 24.0421 23.2685 24.0421 23.5497C24.0421 23.8485 23.8137 24.0769 23.5149 24.0769Z" fill="#FF7262"/>
<path fill-rule="evenodd" clip-rule="evenodd" d="M21.5289 27.5926H14.7802C14.4814 27.5926 14.2529 27.3465 14.2529 27.0653C14.2529 26.7666 14.4814 26.5381 14.7802 26.5381H21.5289C21.81 26.5381 22.0561 26.7666 22.0561 27.0653C22.0561 27.3465 21.81 27.5926 21.5289 27.5926Z" fill="#FF7262"/>
<path fill-rule="evenodd" clip-rule="evenodd" d="M24.3407 29.9997H4.32314C4.04194 29.9997 3.7959 29.7537 3.7959 29.4725V3.97158C3.7959 3.69038 4.04194 3.44434 4.32314 3.44434H11.6869C11.9857 3.44434 12.2142 3.69038 12.2142 3.97158V4.90304H16.4497V3.97158C16.4497 3.69038 16.6957 3.44434 16.9769 3.44434H24.3407C24.6395 3.44434 24.868 3.69038 24.868 3.97158V7.48652C24.868 7.78528 24.6395 8.01376 24.3407 8.01376C24.0595 8.01376 23.8135 7.78528 23.8135 7.48652V4.49882H17.5042V5.43028C17.5042 5.72905 17.2757 5.95752 16.9769 5.95752H11.6869C11.4057 5.95752 11.1597 5.72905 11.1597 5.43028V4.49882H4.85038V28.9452H24.3407C24.6395 28.9452 24.868 29.1737 24.868 29.4725C24.868 29.7537 24.6395 29.9997 24.3407 29.9997Z" fill="#4EE8EB"/>
<path fill-rule="evenodd" clip-rule="evenodd" d="M24.3407 29.9997H4.32314C4.04194 29.9997 3.7959 29.7537 3.7959 29.4725V3.97158C3.7959 3.69038 4.04194 3.44434 4.32314 3.44434H11.6869C11.9857 3.44434 12.2142 3.69038 12.2142 3.97158V4.90304H16.4497V3.97158C16.4497 3.69038 16.6957 3.44434 16.9769 3.44434H24.3407C24.6395 3.44434 24.868 3.69038 24.868 3.97158V7.48652C24.868 7.78528 24.6395 8.01376 24.3407 8.01376C24.0595 8.01376 23.8135 7.78528 23.8135 7.48652V4.49882H17.5042V5.43028C17.5042 5.72905 17.2757 5.95752 16.9769 5.95752H11.6869C11.4057 5.95752 11.1597 5.72905 11.1597 5.43028V4.49882H4.85038V28.9452H24.3407C24.6395 28.9452 24.868 29.1737 24.868 29.4725C24.868 29.7537 24.6395 29.9997 24.3407 29.9997Z" fill="#FF7262"/>
<path fill-rule="evenodd" clip-rule="evenodd" d="M24.3407 29.9997H4.32314C4.04194 29.9997 3.7959 29.7537 3.7959 29.4725V3.97158C3.7959 3.69038 4.04194 3.44434 4.32314 3.44434H11.6869C11.9857 3.44434 12.2142 3.69038 12.2142 3.97158V4.90304H16.4497V3.97158C16.4497 3.69038 16.6957 3.44434 16.9769 3.44434H24.3407C24.6395 3.44434 24.868 3.69038 24.868 3.97158V7.48652C24.868 7.78528 24.6395 8.01376 24.3407 8.01376C24.0595 8.01376 23.8135 7.78528 23.8135 7.48652V4.49882H17.5042V5.43028C17.5042 5.72905 17.2757 5.95752 16.9769 5.95752H11.6869C11.4057 5.95752 11.1597 5.72905 11.1597 5.43028V4.49882H4.85038V28.9452H24.3407C24.6395 28.9452 24.868 29.1737 24.868 29.4725C24.868 29.7537 24.6395 29.9997 24.3407 29.9997Z" fill="#BD89FF"/>
<path fill-rule="evenodd" clip-rule="evenodd" d="M16.977 5.95782H11.6871C11.4059 5.95782 11.1598 5.72935 11.1598 5.43058V4.49912H9.98232C9.70112 4.49912 9.45508 4.27065 9.45508 3.97188V0.527241C9.45508 0.246046 9.70112 0 9.98232 0H18.6818C18.9806 0 19.209 0.246046 19.209 0.527241V3.97188C19.209 4.27065 18.9806 4.49912 18.6818 4.49912H17.5043V5.43058C17.5043 5.72935 17.2758 5.95782 16.977 5.95782ZM12.2143 4.90334H16.4498V3.97188C16.4498 3.69069 16.6959 3.44464 16.977 3.44464H18.1546V1.05448H10.5096V3.44464H11.6871C11.9858 3.44464 12.2143 3.69069 12.2143 3.97188V4.90334Z" fill="#4EE8EB"/>
<path fill-rule="evenodd" clip-rule="evenodd" d="M16.977 5.95782H11.6871C11.4059 5.95782 11.1598 5.72935 11.1598 5.43058V4.49912H9.98232C9.70112 4.49912 9.45508 4.27065 9.45508 3.97188V0.527241C9.45508 0.246046 9.70112 0 9.98232 0H18.6818C18.9806 0 19.209 0.246046 19.209 0.527241V3.97188C19.209 4.27065 18.9806 4.49912 18.6818 4.49912H17.5043V5.43058C17.5043 5.72935 17.2758 5.95782 16.977 5.95782ZM12.2143 4.90334H16.4498V3.97188C16.4498 3.69069 16.6959 3.44464 16.977 3.44464H18.1546V1.05448H10.5096V3.44464H11.6871C11.9858 3.44464 12.2143 3.69069 12.2143 3.97188V4.90334Z" fill="#FF7262"/>
<path fill-rule="evenodd" clip-rule="evenodd" d="M16.977 5.95782H11.6871C11.4059 5.95782 11.1598 5.72935 11.1598 5.43058V4.49912H9.98232C9.70112 4.49912 9.45508 4.27065 9.45508 3.97188V0.527241C9.45508 0.246046 9.70112 0 9.98232 0H18.6818C18.9806 0 19.209 0.246046 19.209 0.527241V3.97188C19.209 4.27065 18.9806 4.49912 18.6818 4.49912H17.5043V5.43058C17.5043 5.72935 17.2758 5.95782 16.977 5.95782ZM12.2143 4.90334H16.4498V3.97188C16.4498 3.69069 16.6959 3.44464 16.977 3.44464H18.1546V1.05448H10.5096V3.44464H11.6871C11.9858 3.44464 12.2143 3.69069 12.2143 3.97188V4.90334Z" fill="#BD89FF"/>
<path fill-rule="evenodd" clip-rule="evenodd" d="M15.5531 2.77714H13.1102C12.8291 2.77714 12.583 2.54867 12.583 2.2499C12.583 1.9687 12.8291 1.72266 13.1102 1.72266H15.5531C15.8519 1.72266 16.0804 1.9687 16.0804 2.2499C16.0804 2.54867 15.8519 2.77714 15.5531 2.77714Z" fill="#FF7262"/>
</g>
<defs>
<clipPath id="clip0_26716_3743">
<rect width="30" height="30" fill="white"/>
</clipPath>
</defs>
</svg>
