<svg width="48" height="44" viewBox="0 0 48 44" fill="none" xmlns="http://www.w3.org/2000/svg">
<g id="coding (1) 1" clip-path="url(#clip0_4861_57913)">
<path id="Vector" d="M41.25 30.9416V28.1875C41.2488 27.2762 40.8533 26.4024 40.1503 25.758C39.4473 25.1136 38.4942 24.7511 37.5 24.75H31.1865C31.8807 23.5761 32.4407 22.3396 32.8575 21.0602L35.7075 18.9695C36.1505 18.6453 36.4743 18.2043 36.6354 17.7061C36.7964 17.2079 36.7868 16.6764 36.6079 16.1833C36.429 15.6903 36.0894 15.2594 35.635 14.9488C35.1805 14.6382 34.6331 14.4629 34.0665 14.4464L35.7375 10.2348C36.1639 9.15999 36.3013 8.00679 36.1382 6.87292C35.9751 5.73905 35.5163 4.65793 34.8005 3.72115C34.0848 2.78437 33.1333 2.01953 32.0266 1.49145C30.9199 0.96337 29.6907 0.687598 28.443 0.687501H22.0755C17.311 0.686411 12.6422 1.91382 8.6025 4.2295C8.48112 4.29842 8.38373 4.39767 8.32177 4.51558C8.2598 4.63348 8.23584 4.76516 8.25269 4.89512C8.26955 5.02508 8.32652 5.14793 8.41692 5.24924C8.50732 5.35054 8.62738 5.42609 8.763 5.467L10.5712 6.017C10.8201 6.09311 11.0494 6.21502 11.2451 6.37526C11.4407 6.53551 11.5986 6.7307 11.709 6.94887C11.8194 7.16704 11.88 7.40359 11.8871 7.644C11.8942 7.88441 11.8476 8.12361 11.7502 8.34694C11.5705 8.75865 11.488 9.20057 11.508 9.64363C11.5281 10.0867 11.6502 10.5208 11.8665 10.9175L13.8 14.4588C13.2469 14.4992 12.7198 14.6911 12.2871 15.0096C11.8545 15.328 11.5363 15.7584 11.3739 16.2448C11.2115 16.7312 11.2124 17.251 11.3765 17.7369C11.5406 18.2228 11.8603 18.6523 12.294 18.9695L15.144 21.0602C15.5604 22.3396 16.1198 23.5761 16.8135 24.75H10.5C9.5058 24.7511 8.55267 25.1136 7.84966 25.758C7.14666 26.4024 6.75119 27.2762 6.75 28.1875V30.9416C4.97493 31.6214 3.45848 32.7666 2.39102 34.2337C1.32356 35.7007 0.75266 37.4241 0.75 39.1875V42.625C0.75 42.8073 0.829018 42.9822 0.96967 43.1111C1.11032 43.2401 1.30109 43.3125 1.5 43.3125H46.5C46.6989 43.3125 46.8897 43.2401 47.0303 43.1111C47.171 42.9822 47.25 42.8073 47.25 42.625V39.1875C47.2473 37.4241 46.6764 35.7007 45.609 34.2337C44.5415 32.7666 43.0251 31.6214 41.25 30.9416ZM30 14.4375H25.5C25.3011 14.4375 25.1103 14.5099 24.9697 14.6389C24.829 14.7678 24.75 14.9427 24.75 15.125V15.8125H23.25V15.125C23.25 14.9427 23.171 14.7678 23.0303 14.6389C22.8897 14.5099 22.6989 14.4375 22.5 14.4375H15.75V13.4303L20.4315 10.5696C21.4389 9.9527 22.6235 9.62393 23.835 9.625C25.5683 9.62315 27.2496 9.08242 28.6042 8.09119L29.8298 7.19263L31.116 8.96225C31.8566 9.97801 32.2512 11.1725 32.25 12.3943V14.4375H30ZM29.25 15.8125V17.875C29.25 18.0573 29.171 18.2322 29.0303 18.3611C28.8897 18.4901 28.6989 18.5625 28.5 18.5625H27C26.8011 18.5625 26.6103 18.4901 26.4697 18.3611C26.329 18.2322 26.25 18.0573 26.25 17.875V15.8125H29.25ZM21.75 15.8125V17.875C21.75 18.0573 21.671 18.2322 21.5303 18.3611C21.3897 18.4901 21.1989 18.5625 21 18.5625H19.5C19.3011 18.5625 19.1103 18.4901 18.9697 18.3611C18.829 18.2322 18.75 18.0573 18.75 17.875V15.8125H21.75ZM35.25 16.9813C35.2504 17.1566 35.2076 17.3298 35.1247 17.4879C35.0418 17.646 34.9211 17.7849 34.7715 17.8943L33.4118 18.8911C33.61 17.8745 33.7191 16.845 33.738 15.8125H33.975C34.1424 15.8125 34.3082 15.8427 34.4629 15.9015C34.6176 15.9602 34.7582 16.0463 34.8766 16.1548C34.995 16.2633 35.0889 16.3922 35.1529 16.534C35.217 16.6758 35.25 16.8278 35.25 16.9813ZM13.1423 8.85775C13.3155 8.46053 13.3984 8.03504 13.3859 7.6074C13.3734 7.17975 13.2657 6.75896 13.0694 6.37083C12.8731 5.98271 12.5924 5.63544 12.2444 5.35033C11.8965 5.06522 11.4887 4.84828 11.046 4.71281L10.8165 4.64406C14.2811 2.94853 18.1481 2.06186 22.0755 2.0625H28.443C29.4493 2.06267 30.4407 2.28512 31.3333 2.71101C32.2259 3.13689 32.9934 3.75367 33.5708 4.50912C34.1482 5.26457 34.5185 6.13644 34.6503 7.0509C34.7822 7.96536 34.6717 8.89548 34.3283 9.7625L33.6765 11.4056C33.5136 10.2577 33.0645 9.15957 32.364 8.19638L30.624 5.80319C30.5663 5.72392 30.4912 5.65652 30.4035 5.60528C30.3158 5.55403 30.2175 5.52005 30.1147 5.5055C30.012 5.49128 29.9072 5.49658 29.8069 5.52106C29.7065 5.54554 29.6127 5.58869 29.5312 5.64781L27.6675 7.018C26.5786 7.81392 25.2277 8.24819 23.835 8.25C22.3272 8.24874 20.8529 8.65791 19.599 9.42563L14.5837 12.4905C14.5373 12.5194 14.4945 12.5531 14.4562 12.5909L13.2083 10.3022C13.0866 10.0793 13.0179 9.83541 13.0065 9.58645C12.9951 9.33749 13.0414 9.08914 13.1423 8.85775ZM13.2292 17.8956C13.0222 17.7446 12.8716 17.5382 12.7983 17.3051C12.725 17.0721 12.7326 16.8239 12.82 16.595C12.9075 16.3661 13.0704 16.1678 13.2863 16.0276C13.5023 15.8873 13.7604 15.8122 14.025 15.8125H14.2605C14.2794 16.8455 14.3885 17.8755 14.5868 18.8925L13.2292 17.8956ZM15.762 15.8125H17.25V17.875C17.25 18.422 17.4871 18.9466 17.909 19.3334C18.331 19.7202 18.9033 19.9375 19.5 19.9375H21C21.5967 19.9375 22.169 19.7202 22.591 19.3334C23.0129 18.9466 23.25 18.422 23.25 17.875V17.1875H24.75V17.875C24.75 18.422 24.9871 18.9466 25.409 19.3334C25.831 19.7202 26.4033 19.9375 27 19.9375H28.5C29.0967 19.9375 29.669 19.7202 30.091 19.3334C30.5129 18.9466 30.75 18.422 30.75 17.875V15.8125H32.238C32.1798 18.9636 31.22 22.0455 29.4548 24.75H18.5452C16.78 22.0455 15.8202 18.9636 15.762 15.8125ZM10.5 26.125H37.5C38.0967 26.125 38.669 26.3423 39.091 26.7291C39.5129 27.1159 39.75 27.6405 39.75 28.1875V41.9375H8.25V28.1875C8.25 27.6405 8.48705 27.1159 8.90901 26.7291C9.33097 26.3423 9.90326 26.125 10.5 26.125ZM2.25 39.1875C2.25204 37.7944 2.67318 36.4289 3.46711 35.2411C4.26104 34.0532 5.39699 33.0891 6.75 32.4548V41.9375H2.25V39.1875ZM45.75 41.9375H41.25V32.4548C42.603 33.0892 43.7389 34.0533 44.5328 35.2411C45.3267 36.4289 45.7479 37.7945 45.75 39.1875V41.9375Z" fill="#7234F7" stroke="#7234F7" stroke-width="0.5"/>
<path id="Vector_2" d="M24 39.875C24.5933 39.875 25.1734 39.7137 25.6667 39.4115C26.1601 39.1094 26.5446 38.6799 26.7716 38.1774C26.9987 37.6749 27.0581 37.122 26.9424 36.5885C26.8266 36.0551 26.5409 35.5651 26.1213 35.1805C25.7018 34.7959 25.1672 34.534 24.5853 34.4278C24.0033 34.3217 23.4001 34.3762 22.852 34.5843C22.3038 34.7925 21.8352 35.1449 21.5056 35.5972C21.1759 36.0494 21 36.5811 21 37.125C21 37.8543 21.3161 38.5538 21.8787 39.0695C22.4413 39.5853 23.2044 39.875 24 39.875ZM24 35.75C24.2967 35.75 24.5867 35.8306 24.8334 35.9817C25.08 36.1328 25.2723 36.3476 25.3858 36.5988C25.4994 36.8501 25.5291 37.1265 25.4712 37.3933C25.4133 37.66 25.2704 37.905 25.0607 38.0973C24.8509 38.2896 24.5836 38.4205 24.2926 38.4736C24.0017 38.5266 23.7001 38.4994 23.426 38.3953C23.1519 38.2913 22.9176 38.115 22.7528 37.8889C22.588 37.6628 22.5 37.397 22.5 37.125C22.5 36.7603 22.658 36.4106 22.9393 36.1527C23.2206 35.8949 23.6022 35.75 24 35.75Z" fill="#FE7465"/>
<path id="Vector_3" d="M18.9696 33.486L20.0301 32.5139L17.5603 30.25L20.0301 27.986L18.9696 27.0139L15.9696 29.7639C15.829 29.8928 15.75 30.0677 15.75 30.25C15.75 30.4323 15.829 30.6071 15.9696 30.736L18.9696 33.486Z" fill="#FE7465"/>
<path id="Vector_4" d="M29.0302 33.486L32.0302 30.736C32.1708 30.6071 32.2498 30.4323 32.2498 30.25C32.2498 30.0677 32.1708 29.8928 32.0302 29.7639L29.0302 27.0139L27.9697 27.986L30.4395 30.25L27.9697 32.5139L29.0302 33.486Z" fill="#FE7465"/>
<path id="Vector_5" d="M25.6506 27.0875L21.1494 32.5867L22.3492 33.4119L26.8504 27.9127L25.6506 27.0875Z" fill="#FE7465"/>
</g>
<defs>
<clipPath id="clip0_4861_57913">
<rect width="48" height="44" fill="white"/>
</clipPath>
</defs>
</svg>
