<svg width="30" height="32" viewBox="0 0 30 32" fill="none" xmlns="http://www.w3.org/2000/svg">
<g clip-path="url(#clip0_26716_4204)">
<path d="M28.5071 4.02365C28.7415 3.76871 28.897 3.4515 28.9548 3.1103C29.0126 2.76909 28.9703 2.41848 28.8329 2.10076C28.6955 1.78304 28.469 1.5118 28.1807 1.31977C27.8924 1.12774 27.5545 1.02313 27.2079 1.01855H12.0838C11.8489 1.0185 11.6162 1.06465 11.3991 1.15437C11.1821 1.2441 10.9848 1.37564 10.8186 1.54147L1.80606 10.4753C1.55677 10.726 1.38721 11.0446 1.31868 11.3912C1.25014 11.7378 1.28568 12.0968 1.42084 12.4233C1.556 12.7498 1.78475 13.0291 2.07837 13.2262C2.37199 13.4234 2.7174 13.5295 3.07122 13.5313H18.7463C18.9929 13.5345 19.2374 13.4866 19.4645 13.3908C19.6916 13.2949 19.8964 13.1532 20.0659 12.9744L28.5071 4.02365Z" stroke="#7233F7" stroke-width="2"/>
<path d="M0.768514 22.1697C0.392382 21.7728 0.141167 21.2745 0.046011 20.7365C-0.0491452 20.1985 0.0159421 19.6444 0.233204 19.1429C0.450466 18.6415 0.810349 18.2148 1.26824 17.9156C1.72613 17.6164 2.26189 17.458 2.8091 17.46H17.9196C18.6593 17.46 19.3687 17.7531 19.8922 18.2749L28.9082 27.2257C29.3021 27.6153 29.5711 28.113 29.681 28.6557C29.7909 29.1983 29.7366 29.7613 29.5252 30.2731C29.3137 30.7849 28.9546 31.2223 28.4935 31.5298C28.0324 31.8373 27.4901 32.0009 26.9356 31.9999H11.2571C10.8749 32 10.4967 31.922 10.1458 31.7708C9.79485 31.6195 9.47862 31.3982 9.21654 31.1204L0.768514 22.1697Z" fill="#FF7262" fill-opacity="0.48"/>
</g>
<defs>
<clipPath id="clip0_26716_4204">
<rect width="30" height="32" fill="white"/>
</clipPath>
</defs>
</svg>
