<svg width="48" height="48" viewBox="0 0 48 48" fill="none" xmlns="http://www.w3.org/2000/svg">
<g clip-path="url(#clip0_26716_3562)">
<path d="M14.263 11.3955C17.3634 11.3955 19.8858 8.87314 19.8858 5.77272C19.8858 2.6723 17.3634 0.149902 14.263 0.149902C11.1625 0.149902 8.64014 2.6723 8.64014 5.77272C8.64014 8.87314 11.1625 11.3955 14.263 11.3955ZM14.263 2.96131C15.8132 2.96131 17.0744 4.22251 17.0744 5.77272C17.0744 7.32293 15.8132 8.58412 14.263 8.58412C12.7127 8.58412 11.4515 7.32293 11.4515 5.77272C11.4515 4.22251 12.7127 2.96131 14.263 2.96131Z" fill="#BD89FF"/>
<path d="M48 19.736C48 13.5351 42.9552 8.49036 36.7544 8.49036C34.4211 8.49036 32.2517 9.20483 30.453 10.4262L30.4504 10.4223L21.2904 16.6328L14.1776 11.8251L14.177 11.8259C13.9272 11.6566 13.6599 11.5146 13.3798 11.4024C11.2155 10.5364 8.76269 11.5872 7.89668 13.752L3.14268 25.637L5.74483 35.0837L0 47.8501H48V24.6043L46.5555 25.2443C47.4745 23.6153 48 21.736 48 19.736ZM45.1886 19.736C45.1886 24.3866 41.405 28.1702 36.7544 28.1702C32.1037 28.1702 28.3201 24.3866 28.3201 19.736C28.3201 15.0854 32.1037 11.3018 36.7544 11.3018C41.405 11.3018 45.1886 15.0854 45.1886 19.736ZM21.2928 20.0278L25.8634 16.929C25.6273 17.846 25.5081 18.7892 25.5087 19.7361C25.5087 25.0742 29.2474 29.5552 34.2437 30.6989L14.4382 39.4735L18.4676 29.6928L11.6815 27.0042L15.7291 16.8851C15.7947 16.72 15.8499 16.5509 15.8942 16.3789L21.2928 20.0278ZM10.5071 14.7963C10.7957 14.0746 11.6136 13.7238 12.3354 14.0127C13.0554 14.3008 13.4069 15.121 13.1189 15.841L9.06782 25.9686L6.45255 24.9325L10.5071 14.7963ZM8.72427 35.3137L6.72779 28.0655L14.7826 31.2568L10.7186 41.1213L4.96345 43.6711L8.72427 35.3137ZM45.1886 45.0387H8.81723L45.1886 28.9248V45.0387Z" fill="#BD89FF"/>
<path d="M39.5658 19.7361H42.3772C42.3772 16.6357 39.8548 14.1133 36.7544 14.1133V16.9247C38.3046 16.9247 39.5658 18.1859 39.5658 19.7361Z" fill="#BD89FF"/>
</g>
<defs>
<clipPath id="clip0_26716_3562">
<rect width="48" height="48" fill="white"/>
</clipPath>
</defs>
</svg>
