<svg width="30" height="30" viewBox="0 0 30 30" fill="none" xmlns="http://www.w3.org/2000/svg">
<g clip-path="url(#clip0_26716_3681)">
<path d="M10.2189 16.7717H9.99863C9.74551 16.7717 9.54395 16.5701 9.54395 16.317C9.54395 16.0639 9.74551 15.8623 9.99863 15.8623H10.2189C10.4721 15.8623 10.6736 16.0639 10.6736 16.317C10.6736 16.5654 10.4721 16.7717 10.2189 16.7717Z" fill="#4EE8EB"/>
<path d="M10.2189 16.7717H9.99863C9.74551 16.7717 9.54395 16.5701 9.54395 16.317C9.54395 16.0639 9.74551 15.8623 9.99863 15.8623H10.2189C10.4721 15.8623 10.6736 16.0639 10.6736 16.317C10.6736 16.5654 10.4721 16.7717 10.2189 16.7717Z" fill="#FF7262"/>
<path d="M10.2189 16.7717H9.99863C9.74551 16.7717 9.54395 16.5701 9.54395 16.317C9.54395 16.0639 9.74551 15.8623 9.99863 15.8623H10.2189C10.4721 15.8623 10.6736 16.0639 10.6736 16.317C10.6736 16.5654 10.4721 16.7717 10.2189 16.7717Z" fill="#BD89FF"/>
<path d="M7.92197 15.3424C7.66885 15.3424 7.46729 15.1408 7.46729 14.8877V12.6236C7.46729 12.3705 7.66885 12.1689 7.92197 12.1689C8.1751 12.1689 8.37666 12.3705 8.37666 12.6236V14.8877C8.37666 15.1408 8.1751 15.3424 7.92197 15.3424Z" fill="#4EE8EB"/>
<path d="M7.92197 15.3424C7.66885 15.3424 7.46729 15.1408 7.46729 14.8877V12.6236C7.46729 12.3705 7.66885 12.1689 7.92197 12.1689C8.1751 12.1689 8.37666 12.3705 8.37666 12.6236V14.8877C8.37666 15.1408 8.1751 15.3424 7.92197 15.3424Z" fill="#FF7262"/>
<path d="M7.92197 15.3424C7.66885 15.3424 7.46729 15.1408 7.46729 14.8877V12.6236C7.46729 12.3705 7.66885 12.1689 7.92197 12.1689C8.1751 12.1689 8.37666 12.3705 8.37666 12.6236V14.8877C8.37666 15.1408 8.1751 15.3424 7.92197 15.3424Z" fill="#BD89FF"/>
<path d="M12.4967 15.3422C12.2436 15.3422 12.042 15.1406 12.042 14.8875V12.5953C12.042 12.3422 12.2436 12.1406 12.4967 12.1406C12.7498 12.1406 12.9514 12.3422 12.9514 12.5953V14.8875C12.9514 15.1406 12.7498 15.3422 12.4967 15.3422Z" fill="#4EE8EB"/>
<path d="M12.4967 15.3422C12.2436 15.3422 12.042 15.1406 12.042 14.8875V12.5953C12.042 12.3422 12.2436 12.1406 12.4967 12.1406C12.7498 12.1406 12.9514 12.3422 12.9514 12.5953V14.8875C12.9514 15.1406 12.7498 15.3422 12.4967 15.3422Z" fill="#FF7262"/>
<path d="M12.4967 15.3422C12.2436 15.3422 12.042 15.1406 12.042 14.8875V12.5953C12.042 12.3422 12.2436 12.1406 12.4967 12.1406C12.7498 12.1406 12.9514 12.3422 12.9514 12.5953V14.8875C12.9514 15.1406 12.7498 15.3422 12.4967 15.3422Z" fill="#BD89FF"/>
<path d="M5.2876 8.00185C5.1751 8.00185 5.05791 7.95966 4.96885 7.8706C3.76416 6.69872 4.33135 3.45966 4.39697 3.09404C4.65947 1.99247 5.17041 1.27997 5.92041 0.947161C6.84385 0.539348 7.84229 0.853411 8.29697 1.0456C12.0095 -1.21846 14.1798 0.684661 15.1548 2.04404C15.797 2.92997 16.1579 3.96591 16.2001 5.04404C16.2329 6.0706 15.9938 7.01279 15.497 7.77685C15.361 7.98779 15.0798 8.04872 14.8688 7.9081C14.6579 7.77216 14.597 7.49091 14.7376 7.27997C15.136 6.66591 15.3235 5.92529 15.2954 5.07685C15.2626 4.18154 14.9579 3.31904 14.4188 2.57372C13.4345 1.20497 11.6251 -0.0184642 8.57354 1.9456C8.43291 2.03466 8.25479 2.04404 8.10947 1.96435C8.1001 1.95966 7.0876 1.42529 6.28604 1.78154C5.8126 1.99247 5.4751 2.49872 5.2876 3.28622C5.06729 4.4581 4.95479 6.59091 5.60635 7.22372C5.78447 7.39716 5.78916 7.68779 5.61572 7.86591C5.52197 7.95966 5.40479 8.00185 5.2876 8.00185Z" fill="#4EE8EB"/>
<path d="M5.2876 8.00185C5.1751 8.00185 5.05791 7.95966 4.96885 7.8706C3.76416 6.69872 4.33135 3.45966 4.39697 3.09404C4.65947 1.99247 5.17041 1.27997 5.92041 0.947161C6.84385 0.539348 7.84229 0.853411 8.29697 1.0456C12.0095 -1.21846 14.1798 0.684661 15.1548 2.04404C15.797 2.92997 16.1579 3.96591 16.2001 5.04404C16.2329 6.0706 15.9938 7.01279 15.497 7.77685C15.361 7.98779 15.0798 8.04872 14.8688 7.9081C14.6579 7.77216 14.597 7.49091 14.7376 7.27997C15.136 6.66591 15.3235 5.92529 15.2954 5.07685C15.2626 4.18154 14.9579 3.31904 14.4188 2.57372C13.4345 1.20497 11.6251 -0.0184642 8.57354 1.9456C8.43291 2.03466 8.25479 2.04404 8.10947 1.96435C8.1001 1.95966 7.0876 1.42529 6.28604 1.78154C5.8126 1.99247 5.4751 2.49872 5.2876 3.28622C5.06729 4.4581 4.95479 6.59091 5.60635 7.22372C5.78447 7.39716 5.78916 7.68779 5.61572 7.86591C5.52197 7.95966 5.40479 8.00185 5.2876 8.00185Z" fill="#FF7262"/>
<path d="M5.2876 8.00185C5.1751 8.00185 5.05791 7.95966 4.96885 7.8706C3.76416 6.69872 4.33135 3.45966 4.39697 3.09404C4.65947 1.99247 5.17041 1.27997 5.92041 0.947161C6.84385 0.539348 7.84229 0.853411 8.29697 1.0456C12.0095 -1.21846 14.1798 0.684661 15.1548 2.04404C15.797 2.92997 16.1579 3.96591 16.2001 5.04404C16.2329 6.0706 15.9938 7.01279 15.497 7.77685C15.361 7.98779 15.0798 8.04872 14.8688 7.9081C14.6579 7.77216 14.597 7.49091 14.7376 7.27997C15.136 6.66591 15.3235 5.92529 15.2954 5.07685C15.2626 4.18154 14.9579 3.31904 14.4188 2.57372C13.4345 1.20497 11.6251 -0.0184642 8.57354 1.9456C8.43291 2.03466 8.25479 2.04404 8.10947 1.96435C8.1001 1.95966 7.0876 1.42529 6.28604 1.78154C5.8126 1.99247 5.4751 2.49872 5.2876 3.28622C5.06729 4.4581 4.95479 6.59091 5.60635 7.22372C5.78447 7.39716 5.78916 7.68779 5.61572 7.86591C5.52197 7.95966 5.40479 8.00185 5.2876 8.00185Z" fill="#BD89FF"/>
<path d="M10.214 13.8241C9.66084 13.8241 9.10303 13.7116 8.5499 13.4913C8.24053 13.3647 7.94053 13.2006 7.65928 12.9991C6.82959 12.3991 6.22022 11.5319 5.92022 10.5381C5.22647 10.3084 4.72021 9.42251 4.72021 8.3397C4.72021 8.02095 4.7624 7.71157 4.85147 7.42563C5.02022 6.86313 5.32959 6.44126 5.71396 6.23032C5.75146 6.02407 5.85928 5.83188 6.01865 5.69126C6.2249 5.51782 6.49678 5.43813 6.76865 5.48032C9.04678 5.83657 10.6968 4.05063 10.7155 4.03657C10.814 3.92876 10.9546 3.87251 11.0999 3.89126C11.2499 3.90063 11.3765 3.98501 11.4468 4.10688C11.4702 4.14907 12.103 5.16626 13.6218 5.06313C13.9077 5.04438 14.1843 5.14751 14.3905 5.3397C14.5968 5.53188 14.7093 5.79907 14.7093 6.08032V6.23032C15.0843 6.44126 15.389 6.85376 15.553 7.39751C15.6421 7.67407 15.689 7.98813 15.689 8.33501C15.689 9.42251 15.178 10.3131 14.4796 10.5381C14.1749 11.5272 13.5702 12.3803 12.764 12.9663C12.5577 13.1256 12.328 13.2663 12.0702 13.3834C11.5358 13.6413 10.9733 13.7866 10.3921 13.8147C10.3312 13.8194 10.2749 13.8241 10.214 13.8241ZM6.63272 6.37563L6.61397 6.54438C6.61397 6.7647 6.45928 6.9522 6.24365 6.9897C6.07959 7.02251 5.85459 7.24282 5.72803 7.67876C5.66709 7.88501 5.63896 8.10532 5.63896 8.33501C5.63896 9.09438 5.99053 9.68501 6.29522 9.68501C6.50615 9.68501 6.68897 9.83032 6.73584 10.0366C6.94678 10.9413 7.46709 11.7288 8.19365 12.2584C8.41397 12.4131 8.65303 12.5444 8.89678 12.6475C9.38428 12.8444 9.87647 12.9288 10.3546 12.9147C10.8093 12.8913 11.2546 12.7788 11.6812 12.5725C11.8874 12.4741 12.0608 12.3709 12.2249 12.2444C12.9515 11.7194 13.4624 10.9413 13.6827 10.0366C13.7343 9.83501 13.9124 9.6897 14.1233 9.6897C14.4327 9.6897 14.7843 9.09907 14.7843 8.3397C14.7843 8.09126 14.7515 7.87095 14.6905 7.67407C14.578 7.29438 14.3765 7.03188 14.1749 6.99438C13.9593 6.9522 13.8046 6.7647 13.8046 6.54907V6.0897C13.8046 6.05688 13.7952 6.02876 13.7718 6.01001C13.7577 5.99595 13.7296 5.98188 13.6827 5.9772C12.3093 6.06626 11.4515 5.45688 11.0155 5.01157C10.3171 5.60688 8.71865 6.70376 6.63272 6.37563Z" fill="#4EE8EB"/>
<path d="M10.214 13.8241C9.66084 13.8241 9.10303 13.7116 8.5499 13.4913C8.24053 13.3647 7.94053 13.2006 7.65928 12.9991C6.82959 12.3991 6.22022 11.5319 5.92022 10.5381C5.22647 10.3084 4.72021 9.42251 4.72021 8.3397C4.72021 8.02095 4.7624 7.71157 4.85147 7.42563C5.02022 6.86313 5.32959 6.44126 5.71396 6.23032C5.75146 6.02407 5.85928 5.83188 6.01865 5.69126C6.2249 5.51782 6.49678 5.43813 6.76865 5.48032C9.04678 5.83657 10.6968 4.05063 10.7155 4.03657C10.814 3.92876 10.9546 3.87251 11.0999 3.89126C11.2499 3.90063 11.3765 3.98501 11.4468 4.10688C11.4702 4.14907 12.103 5.16626 13.6218 5.06313C13.9077 5.04438 14.1843 5.14751 14.3905 5.3397C14.5968 5.53188 14.7093 5.79907 14.7093 6.08032V6.23032C15.0843 6.44126 15.389 6.85376 15.553 7.39751C15.6421 7.67407 15.689 7.98813 15.689 8.33501C15.689 9.42251 15.178 10.3131 14.4796 10.5381C14.1749 11.5272 13.5702 12.3803 12.764 12.9663C12.5577 13.1256 12.328 13.2663 12.0702 13.3834C11.5358 13.6413 10.9733 13.7866 10.3921 13.8147C10.3312 13.8194 10.2749 13.8241 10.214 13.8241ZM6.63272 6.37563L6.61397 6.54438C6.61397 6.7647 6.45928 6.9522 6.24365 6.9897C6.07959 7.02251 5.85459 7.24282 5.72803 7.67876C5.66709 7.88501 5.63896 8.10532 5.63896 8.33501C5.63896 9.09438 5.99053 9.68501 6.29522 9.68501C6.50615 9.68501 6.68897 9.83032 6.73584 10.0366C6.94678 10.9413 7.46709 11.7288 8.19365 12.2584C8.41397 12.4131 8.65303 12.5444 8.89678 12.6475C9.38428 12.8444 9.87647 12.9288 10.3546 12.9147C10.8093 12.8913 11.2546 12.7788 11.6812 12.5725C11.8874 12.4741 12.0608 12.3709 12.2249 12.2444C12.9515 11.7194 13.4624 10.9413 13.6827 10.0366C13.7343 9.83501 13.9124 9.6897 14.1233 9.6897C14.4327 9.6897 14.7843 9.09907 14.7843 8.3397C14.7843 8.09126 14.7515 7.87095 14.6905 7.67407C14.578 7.29438 14.3765 7.03188 14.1749 6.99438C13.9593 6.9522 13.8046 6.7647 13.8046 6.54907V6.0897C13.8046 6.05688 13.7952 6.02876 13.7718 6.01001C13.7577 5.99595 13.7296 5.98188 13.6827 5.9772C12.3093 6.06626 11.4515 5.45688 11.0155 5.01157C10.3171 5.60688 8.71865 6.70376 6.63272 6.37563Z" fill="#FF7262"/>
<path d="M10.214 13.8241C9.66084 13.8241 9.10303 13.7116 8.5499 13.4913C8.24053 13.3647 7.94053 13.2006 7.65928 12.9991C6.82959 12.3991 6.22022 11.5319 5.92022 10.5381C5.22647 10.3084 4.72021 9.42251 4.72021 8.3397C4.72021 8.02095 4.7624 7.71157 4.85147 7.42563C5.02022 6.86313 5.32959 6.44126 5.71396 6.23032C5.75146 6.02407 5.85928 5.83188 6.01865 5.69126C6.2249 5.51782 6.49678 5.43813 6.76865 5.48032C9.04678 5.83657 10.6968 4.05063 10.7155 4.03657C10.814 3.92876 10.9546 3.87251 11.0999 3.89126C11.2499 3.90063 11.3765 3.98501 11.4468 4.10688C11.4702 4.14907 12.103 5.16626 13.6218 5.06313C13.9077 5.04438 14.1843 5.14751 14.3905 5.3397C14.5968 5.53188 14.7093 5.79907 14.7093 6.08032V6.23032C15.0843 6.44126 15.389 6.85376 15.553 7.39751C15.6421 7.67407 15.689 7.98813 15.689 8.33501C15.689 9.42251 15.178 10.3131 14.4796 10.5381C14.1749 11.5272 13.5702 12.3803 12.764 12.9663C12.5577 13.1256 12.328 13.2663 12.0702 13.3834C11.5358 13.6413 10.9733 13.7866 10.3921 13.8147C10.3312 13.8194 10.2749 13.8241 10.214 13.8241ZM6.63272 6.37563L6.61397 6.54438C6.61397 6.7647 6.45928 6.9522 6.24365 6.9897C6.07959 7.02251 5.85459 7.24282 5.72803 7.67876C5.66709 7.88501 5.63896 8.10532 5.63896 8.33501C5.63896 9.09438 5.99053 9.68501 6.29522 9.68501C6.50615 9.68501 6.68897 9.83032 6.73584 10.0366C6.94678 10.9413 7.46709 11.7288 8.19365 12.2584C8.41397 12.4131 8.65303 12.5444 8.89678 12.6475C9.38428 12.8444 9.87647 12.9288 10.3546 12.9147C10.8093 12.8913 11.2546 12.7788 11.6812 12.5725C11.8874 12.4741 12.0608 12.3709 12.2249 12.2444C12.9515 11.7194 13.4624 10.9413 13.6827 10.0366C13.7343 9.83501 13.9124 9.6897 14.1233 9.6897C14.4327 9.6897 14.7843 9.09907 14.7843 8.3397C14.7843 8.09126 14.7515 7.87095 14.6905 7.67407C14.578 7.29438 14.3765 7.03188 14.1749 6.99438C13.9593 6.9522 13.8046 6.7647 13.8046 6.54907V6.0897C13.8046 6.05688 13.7952 6.02876 13.7718 6.01001C13.7577 5.99595 13.7296 5.98188 13.6827 5.9772C12.3093 6.06626 11.4515 5.45688 11.0155 5.01157C10.3171 5.60688 8.71865 6.70376 6.63272 6.37563Z" fill="#BD89FF"/>
<path d="M9.4125 26.3209H1.15781C0.904688 26.3209 0.703125 26.1193 0.703125 25.8662V18.9521C0.703125 16.4631 2.72813 14.4334 5.21719 14.4334H7.93125C8.10469 14.4334 8.25938 14.5318 8.33906 14.6818C8.69531 15.3943 9.30938 15.8209 10.0172 15.8584C10.8188 15.9006 11.6016 15.4459 12.1125 14.6396C12.1969 14.5084 12.3422 14.4287 12.4969 14.4287H15.2062C17.6953 14.4287 19.725 16.4537 19.725 18.9475V19.1443C19.725 19.3975 19.5234 19.599 19.2703 19.599C19.0172 19.599 18.8156 19.3975 18.8156 19.1443V18.9475C18.8156 16.96 17.1984 15.3381 15.2062 15.3381H12.7359C12.0422 16.2896 11.025 16.824 9.97031 16.7631C9.01875 16.7115 8.18906 16.2006 7.66875 15.3381H5.22188C3.23438 15.3381 1.61719 16.9553 1.61719 18.9475V25.4068H9.42188C9.675 25.4068 9.87656 25.6084 9.87656 25.8615C9.86719 26.1146 9.66562 26.3209 9.4125 26.3209Z" fill="#4EE8EB"/>
<path d="M9.4125 26.3209H1.15781C0.904688 26.3209 0.703125 26.1193 0.703125 25.8662V18.9521C0.703125 16.4631 2.72813 14.4334 5.21719 14.4334H7.93125C8.10469 14.4334 8.25938 14.5318 8.33906 14.6818C8.69531 15.3943 9.30938 15.8209 10.0172 15.8584C10.8188 15.9006 11.6016 15.4459 12.1125 14.6396C12.1969 14.5084 12.3422 14.4287 12.4969 14.4287H15.2062C17.6953 14.4287 19.725 16.4537 19.725 18.9475V19.1443C19.725 19.3975 19.5234 19.599 19.2703 19.599C19.0172 19.599 18.8156 19.3975 18.8156 19.1443V18.9475C18.8156 16.96 17.1984 15.3381 15.2062 15.3381H12.7359C12.0422 16.2896 11.025 16.824 9.97031 16.7631C9.01875 16.7115 8.18906 16.2006 7.66875 15.3381H5.22188C3.23438 15.3381 1.61719 16.9553 1.61719 18.9475V25.4068H9.42188C9.675 25.4068 9.87656 25.6084 9.87656 25.8615C9.86719 26.1146 9.66562 26.3209 9.4125 26.3209Z" fill="#FF7262"/>
<path d="M9.4125 26.3209H1.15781C0.904688 26.3209 0.703125 26.1193 0.703125 25.8662V18.9521C0.703125 16.4631 2.72813 14.4334 5.21719 14.4334H7.93125C8.10469 14.4334 8.25938 14.5318 8.33906 14.6818C8.69531 15.3943 9.30938 15.8209 10.0172 15.8584C10.8188 15.9006 11.6016 15.4459 12.1125 14.6396C12.1969 14.5084 12.3422 14.4287 12.4969 14.4287H15.2062C17.6953 14.4287 19.725 16.4537 19.725 18.9475V19.1443C19.725 19.3975 19.5234 19.599 19.2703 19.599C19.0172 19.599 18.8156 19.3975 18.8156 19.1443V18.9475C18.8156 16.96 17.1984 15.3381 15.2062 15.3381H12.7359C12.0422 16.2896 11.025 16.824 9.97031 16.7631C9.01875 16.7115 8.18906 16.2006 7.66875 15.3381H5.22188C3.23438 15.3381 1.61719 16.9553 1.61719 18.9475V25.4068H9.42188C9.675 25.4068 9.87656 25.6084 9.87656 25.8615C9.86719 26.1146 9.66562 26.3209 9.4125 26.3209Z" fill="#BD89FF"/>
<path d="M11.6485 30.0006C10.9219 30.0006 10.2563 29.7334 9.70786 29.2131C9.61411 29.1287 8.66723 28.224 8.94849 25.8756L9.03286 25.1819C9.08442 24.774 9.1313 24.3662 9.17817 23.9537C9.22036 23.5647 9.29067 23.1194 9.36098 22.674C9.41723 22.3037 9.47817 21.9334 9.51567 21.6006C9.67973 20.2412 10.2985 19.0131 11.2594 18.1459C12.286 17.2178 14.3954 16.0787 17.1235 18.699H21.0938C23.8219 16.0787 25.936 17.2178 26.9579 18.1459C27.9188 19.0131 28.5375 20.2412 28.7016 21.6006C28.7438 21.9334 28.8 22.299 28.8563 22.6647C28.9219 23.0959 28.9922 23.5412 29.0344 23.935C29.0625 24.1787 29.0954 24.4272 29.1282 24.6756C29.1797 25.074 29.236 25.4819 29.2688 25.8944C29.4469 28.1725 28.6172 29.1006 28.5235 29.2037C27.8485 29.8459 27.0141 30.1037 26.1 29.9678C25.2563 29.8412 24.4782 29.3865 23.9063 28.6787L21.2157 25.3506H16.9922L14.3016 28.6787C13.7297 29.3819 12.9516 29.8412 12.1079 29.9678C11.9579 29.9865 11.8032 30.0006 11.6485 30.0006ZM13.7954 17.9912C13.125 17.9912 12.4875 18.2678 11.8782 18.8162C11.0766 19.5381 10.561 20.5647 10.425 21.7084C10.3829 22.0506 10.3266 22.4303 10.2657 22.81C10.2 23.2412 10.1297 23.6725 10.0875 24.0522C10.0407 24.4694 9.98911 24.8819 9.93755 25.2897L9.85317 25.9834C9.62817 27.8537 10.3219 28.5428 10.3266 28.5522C10.7954 28.9975 11.3344 29.1662 11.9813 29.0678C12.6 28.974 13.1766 28.6365 13.6032 28.1069L16.4297 24.61C16.5141 24.5022 16.6454 24.4412 16.7813 24.4412H21.436C21.5719 24.4412 21.7032 24.5022 21.7875 24.61L24.6141 28.1069C25.0407 28.6365 25.6172 28.974 26.236 29.0678C26.8829 29.1662 27.4172 28.9975 27.8813 28.5569C28.3454 28.1162 28.5094 27.8162 28.3594 25.9647C28.3266 25.5756 28.275 25.1772 28.2235 24.7928C28.1907 24.5397 28.1532 24.2865 28.125 24.0334C28.0829 23.6584 28.0172 23.2319 27.9516 22.8053C27.8907 22.4256 27.8344 22.0506 27.7922 21.7084C27.6563 20.5647 27.1407 19.5381 26.3391 18.8162C24.9141 17.5272 23.3157 17.7475 21.5907 19.4725C21.5063 19.5569 21.3891 19.6037 21.2719 19.6037H16.9407C16.8188 19.6037 16.7063 19.5569 16.6172 19.4725C15.6375 18.4834 14.6907 17.9912 13.7954 17.9912Z" fill="#FF7262"/>
<path d="M13.8984 24.9941C12.3328 24.9941 11.0625 23.7238 11.0625 22.1582C11.0625 20.5926 12.3328 19.3223 13.8984 19.3223C15.4641 19.3223 16.7344 20.5926 16.7344 22.1582C16.7344 23.7238 15.4641 24.9941 13.8984 24.9941ZM13.8984 20.2316C12.8344 20.2316 11.9719 21.0988 11.9719 22.1582C11.9719 23.2223 12.8344 24.0848 13.8984 24.0848C14.9625 24.0848 15.825 23.2176 15.825 22.1582C15.825 21.0941 14.9625 20.2316 13.8984 20.2316Z" fill="#FF7262"/>
<path d="M24.2998 24.9941C22.7342 24.9941 21.4639 23.7238 21.4639 22.1582C21.4639 20.5926 22.7342 19.3223 24.2998 19.3223C25.8654 19.3223 27.1357 20.5926 27.1357 22.1582C27.1357 23.7238 25.8654 24.9941 24.2998 24.9941ZM24.2998 20.2316C23.2357 20.2316 22.3732 21.0988 22.3732 22.1582C22.3732 23.2223 23.2357 24.0848 24.2998 24.0848C25.3639 24.0848 26.2264 23.2176 26.2264 22.1582C26.2311 21.0941 25.3639 20.2316 24.2998 20.2316Z" fill="#FF7262"/>
<path d="M24.2999 23.7619C24.0468 23.7619 23.8452 23.5604 23.8452 23.3072V21.0104C23.8452 20.7572 24.0468 20.5557 24.2999 20.5557C24.553 20.5557 24.7546 20.7572 24.7546 21.0104V23.3072C24.7546 23.5604 24.553 23.7619 24.2999 23.7619Z" fill="#FF7262"/>
<path d="M25.4483 22.6135H23.1515C22.8983 22.6135 22.6968 22.4119 22.6968 22.1588C22.6968 21.9057 22.8983 21.7041 23.1515 21.7041H25.4483C25.7015 21.7041 25.903 21.9057 25.903 22.1588C25.903 22.4119 25.7015 22.6135 25.4483 22.6135Z" fill="#FF7262"/>
<path d="M13.8985 21.7557C13.6454 21.7557 13.4438 21.5541 13.4438 21.301V20.8697C13.4438 20.6166 13.6454 20.415 13.8985 20.415C14.1517 20.415 14.3532 20.6166 14.3532 20.8697V21.301C14.3532 21.5541 14.1517 21.7557 13.8985 21.7557Z" fill="#FF7262"/>
<path d="M13.8985 23.9021C13.6454 23.9021 13.4438 23.7006 13.4438 23.4475V23.0162C13.4438 22.7631 13.6454 22.5615 13.8985 22.5615C14.1517 22.5615 14.3532 22.7631 14.3532 23.0162V23.4475C14.3532 23.6959 14.1517 23.9021 13.8985 23.9021Z" fill="#FF7262"/>
<path d="M15.1877 22.6135H14.7564C14.5033 22.6135 14.3018 22.4119 14.3018 22.1588C14.3018 21.9057 14.5033 21.7041 14.7564 21.7041H15.1877C15.4408 21.7041 15.6424 21.9057 15.6424 22.1588C15.6424 22.4119 15.4361 22.6135 15.1877 22.6135Z" fill="#FF7262"/>
<path d="M13.0407 22.6135H12.6095C12.3563 22.6135 12.1548 22.4119 12.1548 22.1588C12.1548 21.9057 12.3563 21.7041 12.6095 21.7041H13.0407C13.2938 21.7041 13.4954 21.9057 13.4954 22.1588C13.4954 22.4119 13.2938 22.6135 13.0407 22.6135Z" fill="#FF7262"/>
<path d="M19.7437 4.72496C19.6641 4.72496 19.5844 4.70621 19.5094 4.65934L16.7438 2.99527C16.6078 2.9109 16.5234 2.76559 16.5234 2.60621C16.5234 2.44684 16.6078 2.29684 16.7438 2.21715L19.5094 0.576524C19.725 0.449961 20.0063 0.520274 20.1328 0.735899C20.2594 0.951524 20.1891 1.23277 19.9734 1.35934L17.8594 2.60621L19.9734 3.87652C20.1891 4.00777 20.2594 4.28434 20.1281 4.49996C20.0484 4.64527 19.8937 4.72496 19.7437 4.72496Z" fill="#FF7262"/>
<path d="M23.7374 4.72496C23.5827 4.72496 23.4327 4.64527 23.3483 4.50465C23.2171 4.28902 23.2874 4.01246 23.503 3.88121L25.6171 2.6109L23.503 1.35934C23.2874 1.23277 23.2171 0.951524 23.3436 0.735899C23.4702 0.520274 23.7514 0.449961 23.9671 0.576524L26.7327 2.21715C26.8686 2.29684 26.953 2.44684 26.953 2.60621C26.953 2.76559 26.8686 2.91559 26.7327 2.99527L23.9671 4.65934C23.8967 4.70152 23.8171 4.72496 23.7374 4.72496Z" fill="#FF7262"/>
<path d="M20.9158 5.22688C20.8596 5.22688 20.808 5.2175 20.7518 5.19875C20.5174 5.10969 20.4002 4.84719 20.4893 4.61282L22.1393 0.305005C22.2283 0.0706301 22.4908 -0.0465574 22.7252 0.0425051C22.9596 0.131568 23.0768 0.394068 22.9877 0.628443L21.3377 4.93625C21.2721 5.11438 21.0987 5.22688 20.9158 5.22688Z" fill="#FF7262"/>
</g>
<defs>
<clipPath id="clip0_26716_3681">
<rect width="30" height="30" fill="white"/>
</clipPath>
</defs>
</svg>
