<svg width="85" height="18" viewBox="0 0 85 18" fill="none" xmlns="http://www.w3.org/2000/svg">
<g id="Group">
<path id="Vector" d="M78.001 2C74.135 2 71.001 5.134 71.001 8.99999C71.001 12.866 74.135 16 78.001 16C81.867 16 85.001 12.866 85.001 8.99999C85.001 5.134 81.867 2 78.001 2Z" fill="#C2A8FC"/>
<g id="Group_2">
<path id="Vector_2" d="M30.8391 8.85995L24.0091 15.7L26.0191 17.71L34.8691 8.85995L26.0191 0.00994873L24.0091 2.02997L30.8391 8.85995Z" fill="#7234F7" fill-opacity="0.4"/>
<path id="Vector_3" d="M18.9095 8.85995L12.0795 15.7L14.0894 17.71L22.9395 8.85995L14.0894 0.00994873L12.0795 2.02997L18.9095 8.85995Z" fill="#7234F7" fill-opacity="0.4"/>
<path id="Vector_4" d="M6.83937 8.85995L-0.00062561 15.7L2.01938 17.71L10.8594 8.85995L2.01938 0.00994873L-0.00062561 2.02997L6.83937 8.85995Z" fill="#7234F7" fill-opacity="0.4"/>
<g id="Group_3">
<path id="Vector_5" d="M54.8391 8.85995L48.0091 15.7L50.0191 17.71L58.8691 8.85995L50.0191 0.00994873L48.0091 2.02997L54.8391 8.85995Z" fill="#7234F7" fill-opacity="0.4"/>
<path id="Vector_6" d="M42.9095 8.85995L36.0795 15.7L38.0895 17.71L46.9395 8.85995L38.0895 0.00994873L36.0795 2.02997L42.9095 8.85995Z" fill="#7234F7" fill-opacity="0.4"/>
</g>
</g>
</g>
</svg>
