<svg width="30" height="30" viewBox="0 0 30 30" fill="none" xmlns="http://www.w3.org/2000/svg">
<path d="M27.4998 6.25V11.25C27.4998 11.5815 27.3681 11.8995 27.1336 12.1339C26.8992 12.3683 26.5813 12.5 26.2498 12.5C25.9182 12.5 25.6003 12.3683 25.3659 12.1339C25.1315 11.8995 24.9998 11.5815 24.9998 11.25V9.4L17.1873 18.325C17.0701 18.4583 16.9259 18.5652 16.7643 18.6385C16.6026 18.7118 16.4272 18.7498 16.2498 18.75C16.0781 18.7544 15.9074 18.7234 15.7482 18.6588C15.5891 18.5943 15.4449 18.4977 15.3248 18.375L12.5248 15.55L4.64976 24.575C4.54392 24.7064 4.41256 24.815 4.26361 24.8943C4.11466 24.9736 3.95119 25.0219 3.78307 25.0363C3.61495 25.0508 3.44565 25.031 3.28537 24.9782C3.12509 24.9254 2.97716 24.8408 2.85048 24.7293C2.72381 24.6178 2.62102 24.4819 2.5483 24.3296C2.47558 24.1773 2.43444 24.0119 2.42737 23.8433C2.42029 23.6747 2.44743 23.5064 2.50713 23.3486C2.56683 23.1908 2.65787 23.0467 2.77476 22.925L11.5248 12.925C11.6374 12.796 11.7752 12.6915 11.9299 12.618C12.0845 12.5445 12.2526 12.5036 12.4237 12.4977C12.5948 12.4919 12.7653 12.5212 12.9246 12.584C13.0839 12.6467 13.2286 12.7415 13.3498 12.8625L16.2498 15.6625L23.3373 7.5H21.2498C20.9182 7.5 20.6003 7.3683 20.3659 7.13388C20.1315 6.89946 19.9998 6.58152 19.9998 6.25C19.9998 5.91848 20.1315 5.60054 20.3659 5.36612C20.6003 5.1317 20.9182 5 21.2498 5H26.2498C26.5813 5 26.8992 5.1317 27.1336 5.36612C27.3681 5.60054 27.4998 5.91848 27.4998 6.25Z" fill="#772BD8"/>
</svg>
