<svg width="30" height="30" viewBox="0 0 30 30" fill="none" xmlns="http://www.w3.org/2000/svg">
<path d="M26.9513 12.715C26.7821 12.6006 26.5874 12.5293 26.3843 12.5075C26.1812 12.4858 25.9759 12.5141 25.7863 12.59L21.1925 14.4275C21.0562 13.5449 20.6094 12.74 19.9325 12.1575C19.2556 11.575 18.393 11.2532 17.5 11.25H6.25C5.25544 11.25 4.30161 11.6451 3.59835 12.3483C2.89509 13.0516 2.5 14.0054 2.5 15V23.75C2.5 24.7446 2.89509 25.6984 3.59835 26.4017C4.30161 27.1049 5.25544 27.5 6.25 27.5H17.5C18.3928 27.4968 19.2552 27.1752 19.9321 26.593C20.609 26.0107 21.0559 25.2061 21.1925 24.3238L25.7863 26.1613C25.9759 26.237 26.1813 26.2652 26.3844 26.2432C26.5875 26.2213 26.7821 26.1499 26.9512 26.0353C27.1203 25.9207 27.2587 25.7664 27.3544 25.5859C27.4501 25.4054 27.5001 25.2043 27.5 25V13.75C27.5 13.5458 27.45 13.3447 27.3544 13.1642C27.2587 12.9838 27.1203 12.8296 26.9513 12.715ZM17.5 25H6.25C5.91848 25 5.60054 24.8683 5.36612 24.6339C5.1317 24.3995 5 24.0815 5 23.75V15C5 14.6685 5.1317 14.3505 5.36612 14.1161C5.60054 13.8817 5.91848 13.75 6.25 13.75H17.5C17.8315 13.75 18.1495 13.8817 18.3839 14.1161C18.6183 14.3505 18.75 14.6685 18.75 15V23.75C18.75 24.0815 18.6183 24.3995 18.3839 24.6339C18.1495 24.8683 17.8315 25 17.5 25ZM25 23.1538L21.25 21.6538V17.0963L25 15.5963V23.1538Z" fill="#4EE8EB"/>
<path d="M26.9513 12.715C26.7821 12.6006 26.5874 12.5293 26.3843 12.5075C26.1812 12.4858 25.9759 12.5141 25.7863 12.59L21.1925 14.4275C21.0562 13.5449 20.6094 12.74 19.9325 12.1575C19.2556 11.575 18.393 11.2532 17.5 11.25H6.25C5.25544 11.25 4.30161 11.6451 3.59835 12.3483C2.89509 13.0516 2.5 14.0054 2.5 15V23.75C2.5 24.7446 2.89509 25.6984 3.59835 26.4017C4.30161 27.1049 5.25544 27.5 6.25 27.5H17.5C18.3928 27.4968 19.2552 27.1752 19.9321 26.593C20.609 26.0107 21.0559 25.2061 21.1925 24.3238L25.7863 26.1613C25.9759 26.237 26.1813 26.2652 26.3844 26.2432C26.5875 26.2213 26.7821 26.1499 26.9512 26.0353C27.1203 25.9207 27.2587 25.7664 27.3544 25.5859C27.4501 25.4054 27.5001 25.2043 27.5 25V13.75C27.5 13.5458 27.45 13.3447 27.3544 13.1642C27.2587 12.9838 27.1203 12.8296 26.9513 12.715ZM17.5 25H6.25C5.91848 25 5.60054 24.8683 5.36612 24.6339C5.1317 24.3995 5 24.0815 5 23.75V15C5 14.6685 5.1317 14.3505 5.36612 14.1161C5.60054 13.8817 5.91848 13.75 6.25 13.75H17.5C17.8315 13.75 18.1495 13.8817 18.3839 14.1161C18.6183 14.3505 18.75 14.6685 18.75 15V23.75C18.75 24.0815 18.6183 24.3995 18.3839 24.6339C18.1495 24.8683 17.8315 25 17.5 25ZM25 23.1538L21.25 21.6538V17.0963L25 15.5963V23.1538Z" fill="#FF7262"/>
<path d="M26.9513 12.715C26.7821 12.6006 26.5874 12.5293 26.3843 12.5075C26.1812 12.4858 25.9759 12.5141 25.7863 12.59L21.1925 14.4275C21.0562 13.5449 20.6094 12.74 19.9325 12.1575C19.2556 11.575 18.393 11.2532 17.5 11.25H6.25C5.25544 11.25 4.30161 11.6451 3.59835 12.3483C2.89509 13.0516 2.5 14.0054 2.5 15V23.75C2.5 24.7446 2.89509 25.6984 3.59835 26.4017C4.30161 27.1049 5.25544 27.5 6.25 27.5H17.5C18.3928 27.4968 19.2552 27.1752 19.9321 26.593C20.609 26.0107 21.0559 25.2061 21.1925 24.3238L25.7863 26.1613C25.9759 26.237 26.1813 26.2652 26.3844 26.2432C26.5875 26.2213 26.7821 26.1499 26.9512 26.0353C27.1203 25.9207 27.2587 25.7664 27.3544 25.5859C27.4501 25.4054 27.5001 25.2043 27.5 25V13.75C27.5 13.5458 27.45 13.3447 27.3544 13.1642C27.2587 12.9838 27.1203 12.8296 26.9513 12.715ZM17.5 25H6.25C5.91848 25 5.60054 24.8683 5.36612 24.6339C5.1317 24.3995 5 24.0815 5 23.75V15C5 14.6685 5.1317 14.3505 5.36612 14.1161C5.60054 13.8817 5.91848 13.75 6.25 13.75H17.5C17.8315 13.75 18.1495 13.8817 18.3839 14.1161C18.6183 14.3505 18.75 14.6685 18.75 15V23.75C18.75 24.0815 18.6183 24.3995 18.3839 24.6339C18.1495 24.8683 17.8315 25 17.5 25ZM25 23.1538L21.25 21.6538V17.0963L25 15.5963V23.1538Z" fill="#BD89FF"/>
<path d="M7.7498 6.67998C8.8513 5.60017 10.3323 4.99533 11.8748 4.99533C13.4173 4.99533 14.8983 5.60017 15.9998 6.67998C16.2394 6.89363 16.5521 7.00688 16.873 6.99627C17.1938 6.98565 17.4983 6.85199 17.7233 6.62298C17.9483 6.39396 18.0766 6.08716 18.0815 5.76616C18.0864 5.44515 17.9677 5.13455 17.7498 4.89873C16.1799 3.36293 14.071 2.50293 11.8748 2.50293C9.6786 2.50293 7.56971 3.36293 5.9998 4.89873C5.78195 5.13455 5.66318 5.44515 5.66812 5.76616C5.67305 6.08716 5.8013 6.39396 6.0263 6.62298C6.25129 6.85199 6.55578 6.98565 6.87665 6.99627C7.19751 7.00688 7.51016 6.89363 7.7498 6.67998Z" fill="#FF7262"/>
<path d="M9.0002 7.85844C8.87387 7.97107 8.77172 8.10818 8.69996 8.26146C8.6282 8.41474 8.58831 8.581 8.58271 8.75015C8.57712 8.91931 8.60593 9.08784 8.66741 9.24552C8.72889 9.40321 8.82175 9.54677 8.94036 9.6675C9.05897 9.78823 9.20087 9.88362 9.35744 9.94788C9.51402 10.0121 9.68201 10.0439 9.85124 10.0413C10.0205 10.0387 10.1874 10.0018 10.3419 9.93275C10.4965 9.86371 10.6354 9.76401 10.7502 9.63969C11.0502 9.34441 11.4543 9.17891 11.8752 9.17891C12.2961 9.17891 12.7002 9.34441 13.0002 9.63969C13.115 9.76401 13.2539 9.86371 13.4085 9.93275C13.563 10.0018 13.7299 10.0387 13.8992 10.0413C14.0684 10.0439 14.2364 10.0121 14.393 9.94788C14.5495 9.88362 14.6914 9.78823 14.81 9.6675C14.9286 9.54677 15.0215 9.40321 15.083 9.24552C15.1445 9.08784 15.1733 8.91931 15.1677 8.75015C15.1621 8.581 15.1222 8.41474 15.0504 8.26146C14.9787 8.10818 14.8765 7.97107 14.7502 7.85844C13.9818 7.10717 12.9498 6.68652 11.8752 6.68652C10.8006 6.68652 9.76861 7.10717 9.0002 7.85844Z" fill="#FF7262"/>
</svg>
