<svg width="48" height="48" viewBox="0 0 48 48" fill="none" xmlns="http://www.w3.org/2000/svg">
<path d="M43.122 20.344C42.8513 20.1609 42.5398 20.0469 42.2149 20.0121C41.8899 19.9772 41.5614 20.0225 41.258 20.144L33.908 23.084C33.6899 21.6719 32.975 20.384 31.8919 19.452C30.8089 18.5201 29.4288 18.0052 28 18H10C8.4087 18 6.88258 18.6321 5.75736 19.7574C4.63214 20.8826 4 22.4087 4 24V38C4 39.5913 4.63214 41.1174 5.75736 42.2426C6.88258 43.3679 8.4087 44 10 44H28C29.4285 43.9949 30.8084 43.4803 31.8914 42.5487C32.9744 41.6171 33.6895 40.3297 33.908 38.918L41.258 41.858C41.5615 41.9793 41.8901 42.0243 42.215 41.9891C42.54 41.954 42.8514 41.8398 43.1219 41.6564C43.3925 41.4731 43.614 41.2262 43.7671 40.9375C43.9202 40.6487 44.0001 40.3268 44 40V22C44.0001 21.6733 43.9201 21.3515 43.767 21.0628C43.614 20.7741 43.3925 20.5273 43.122 20.344ZM28 40H10C9.46957 40 8.96086 39.7893 8.58579 39.4142C8.21072 39.0391 8 38.5304 8 38V24C8 23.4696 8.21072 22.9609 8.58579 22.5858C8.96086 22.2107 9.46957 22 10 22H28C28.5304 22 29.0391 22.2107 29.4142 22.5858C29.7893 22.9609 30 23.4696 30 24V38C30 38.5304 29.7893 39.0391 29.4142 39.4142C29.0391 39.7893 28.5304 40 28 40ZM40 37.046L34 34.646V27.354L40 24.954V37.046Z" fill="#BD89FF"/>
<path d="M12.3998 10.688C14.1622 8.96034 16.5318 7.99259 18.9998 7.99259C21.4678 7.99259 23.8374 8.96034 25.5998 10.688C25.9832 11.0299 26.4834 11.2111 26.9968 11.1941C27.5102 11.1771 27.9974 10.9633 28.3574 10.5968C28.7174 10.2304 28.9226 9.73953 28.9305 9.22592C28.9384 8.71231 28.7483 8.21536 28.3998 7.83805C25.8879 5.38076 22.5137 4.00476 18.9998 4.00476C15.4859 4.00476 12.1116 5.38076 9.59978 7.83805C9.25122 8.21536 9.06119 8.71231 9.06908 9.22592C9.07698 9.73953 9.28218 10.2304 9.64218 10.5968C10.0022 10.9633 10.4893 11.1771 11.0027 11.1941C11.5161 11.2111 12.0164 11.0299 12.3998 10.688Z" fill="#BD89FF"/>
<path d="M14.4 12.574C14.1979 12.7542 14.0345 12.9736 13.9196 13.2189C13.8048 13.4641 13.741 13.7301 13.7321 14.0008C13.7231 14.2714 13.7692 14.5411 13.8676 14.7934C13.9659 15.0457 14.1145 15.2754 14.3043 15.4685C14.4941 15.6617 14.7211 15.8143 14.9716 15.9171C15.2221 16.02 15.4909 16.0708 15.7617 16.0667C16.0325 16.0625 16.2996 16.0034 16.5468 15.8929C16.794 15.7825 17.0163 15.623 17.2 15.424C17.68 14.9516 18.3265 14.6868 19 14.6868C19.6735 14.6868 20.32 14.9516 20.8 15.424C20.9838 15.623 21.206 15.7825 21.4533 15.8929C21.7005 16.0034 21.9676 16.0625 22.2384 16.0667C22.5091 16.0708 22.7779 16.02 23.0284 15.9171C23.279 15.8143 23.506 15.6617 23.6958 15.4685C23.8855 15.2754 24.0341 15.0457 24.1325 14.7934C24.2308 14.5411 24.277 14.2714 24.268 14.0008C24.259 13.7301 24.1952 13.4641 24.0804 13.2189C23.9656 12.9736 23.8022 12.7542 23.6 12.574C22.3706 11.372 20.7195 10.699 19 10.699C17.2806 10.699 15.6295 11.372 14.4 12.574Z" fill="#BD89FF"/>
</svg>
