<svg width="18" height="19" viewBox="0 0 18 19" fill="none" xmlns="http://www.w3.org/2000/svg">
<g id="money 1">
<g id="Group">
<g id="Group_2">
<path id="Vector" d="M7.88452 4.46826C5.76096 4.46826 4.03906 6.19016 4.03906 8.31372C4.03906 10.4373 5.75724 12.1629 7.88452 12.1629C10.0118 12.1629 11.73 10.441 11.73 8.31372C11.7263 6.19016 10.0081 4.47198 7.88452 4.46826ZM7.88452 11.4191C6.17005 11.4191 4.78286 10.0282 4.78286 8.31744C4.78286 6.60669 6.17377 5.21578 7.88452 5.21578C9.59526 5.21578 10.9862 6.60669 10.9862 8.31744C10.9862 10.0282 9.59526 11.4154 7.88452 11.4191Z" fill="#FE7465"/>
</g>
</g>
<g id="Group_3">
<g id="Group_4">
<path id="Vector_2" d="M16.5459 5.85526H15.7686V4.94782C15.7686 4.14452 15.114 3.4751 14.3145 3.4751H1.45413C0.654545 3.4751 0 4.14452 0 4.94782V11.6792C0 12.4825 0.650826 13.1371 1.45413 13.1445H2.23141V14.052C2.23141 14.8553 2.88595 15.5247 3.68554 15.5247H16.5459C17.3455 15.5247 18 14.8553 18 14.052V7.32055C18 6.51353 17.3492 5.85898 16.5459 5.85526ZM1.45413 12.4007C1.05992 12.397 0.743802 12.0734 0.743802 11.6792V4.94782C0.743802 4.55361 1.06364 4.2189 1.45413 4.2189H14.3145C14.705 4.2189 15.0248 4.55361 15.0248 4.94782V11.6792C15.0248 12.0734 14.7087 12.3933 14.3145 12.4007H1.45413ZM17.2562 14.052C17.2562 14.4462 16.9364 14.7809 16.5459 14.7809H3.68554C3.29504 14.7809 2.97521 14.4462 2.97521 14.052V13.1445H14.3145C15.1178 13.1408 15.7686 12.4863 15.7686 11.6792V6.59906H16.5459C16.9401 6.60278 17.2562 6.92634 17.2562 7.32055V14.052Z" fill="#7234F7"/>
</g>
</g>
<g id="Group_5">
<g id="Group_6">
<path id="Vector_3" d="M9.0814 7.12357H8.72065C8.6909 7.03432 8.65371 6.94506 8.60908 6.86324H9.0814C9.28594 6.85952 9.4533 6.69217 9.4533 6.48762C9.4533 6.28308 9.28594 6.11572 9.0814 6.11572H6.68635C6.48181 6.11572 6.31445 6.28308 6.31445 6.48762C6.31445 6.69217 6.48181 6.85952 6.68635 6.85952H7.37065C7.57892 6.85952 7.77974 6.95622 7.90991 7.11985H6.68635C6.48181 7.11985 6.31445 7.28721 6.31445 7.49176C6.31445 7.6963 6.48181 7.86366 6.68635 7.86366H7.91363C7.89131 7.90085 7.86528 7.93432 7.83553 7.96407C7.7128 8.0868 7.54544 8.15746 7.37065 8.16118H6.68635C6.48181 8.16118 6.31445 8.32853 6.31445 8.53308C6.31445 8.63721 6.35536 8.7339 6.42974 8.80457L8.14421 10.4223C8.29297 10.5637 8.53098 10.5525 8.66859 10.4037C8.80619 10.255 8.79875 10.0207 8.65371 9.88308L7.60123 8.8901C7.88759 8.84176 8.15536 8.70787 8.35991 8.49961C8.35991 8.49961 8.35991 8.49217 8.36363 8.49217C8.54214 8.32109 8.66487 8.10539 8.72065 7.86738H9.0814C9.28594 7.86738 9.4533 7.70002 9.4533 7.49547C9.4533 7.29093 9.28594 7.12357 9.0814 7.12357Z" fill="#FE7465"/>
</g>
</g>
<g id="Group_7">
<g id="Group_8">
<path id="Vector_4" d="M2.3277 4.61328C1.69175 4.61328 1.1748 5.13022 1.1748 5.76617C1.1748 6.40212 1.69175 6.91907 2.3277 6.91907C2.96365 6.91907 3.48059 6.40212 3.48059 5.76617C3.48059 5.13022 2.96365 4.61328 2.3277 4.61328ZM2.3277 6.17155C2.10084 6.17155 1.91861 5.98931 1.91861 5.76245C1.91861 5.5356 2.10084 5.35336 2.3277 5.35336C2.55456 5.35336 2.73679 5.5356 2.73679 5.76245C2.73679 5.98931 2.55456 6.17155 2.3277 6.17155Z" fill="#FE7465"/>
</g>
</g>
<g id="Group_9">
<g id="Group_10">
<path id="Vector_5" d="M13.4371 9.67847C12.8011 9.67847 12.2842 10.1954 12.2842 10.8314C12.2842 11.4673 12.8011 11.9843 13.4371 11.9843C14.073 11.9843 14.59 11.4673 14.59 10.8314C14.59 10.1954 14.073 9.68219 13.4371 9.67847ZM13.4371 11.2404C13.2102 11.2404 13.028 11.0582 13.028 10.8314C13.028 10.6045 13.2102 10.4223 13.4371 10.4223C13.6639 10.4223 13.8462 10.6045 13.8462 10.8314C13.8462 11.0545 13.6639 11.2367 13.4371 11.2404Z" fill="#FE7465"/>
</g>
</g>
</g>
</svg>
