<svg width="48" height="48" viewBox="0 0 48 48" fill="none" xmlns="http://www.w3.org/2000/svg">
<g id="resume 1">
<path id="Vector" d="M41.2829 13.7684L29.897 2.38244C29.8019 2.28409 29.6877 2.20632 29.5613 2.15395C29.4349 2.10159 29.2992 2.07574 29.1624 2.07802H10.565C9.46282 2.07802 8.40577 2.51587 7.6264 3.29524C6.84703 4.07461 6.40918 5.13167 6.40918 6.23387V41.7663C6.40918 42.8685 6.84703 43.9256 7.6264 44.705C8.40577 45.4843 9.46282 45.9222 10.565 45.9222H37.4315C38.5337 45.9222 39.5908 45.4843 40.3701 44.705C41.1495 43.9256 41.5873 42.8685 41.5873 41.7663V14.503C41.5865 14.2276 41.4771 13.9637 41.2829 13.7684ZM38.0403 13.464H31.7598C31.3465 13.464 30.9501 13.2998 30.6578 13.0075C30.3656 12.7153 30.2014 12.3189 30.2014 11.9056V5.62503L38.0403 13.464ZM37.4315 43.8443H10.5681C10.017 43.8443 9.48851 43.6254 9.09883 43.2357C8.70914 42.846 8.49022 42.3174 8.49022 41.7663V6.23387C8.49022 5.68277 8.70914 5.15424 9.09883 4.76455C9.48851 4.37487 10.017 4.15594 10.5681 4.15594H28.1266V11.9056C28.1266 12.87 28.5097 13.7949 29.1916 14.4769C29.8736 15.1588 30.7985 15.5419 31.7629 15.5419H39.5125V41.7663C39.5125 42.0395 39.4587 42.3099 39.3541 42.5623C39.2495 42.8146 39.0961 43.0438 38.9028 43.2368C38.7095 43.4298 38.4801 43.5828 38.2276 43.687C37.9752 43.7912 37.7046 43.8447 37.4315 43.8443Z" fill="#7234F7"/>
<path id="Vector_2" d="M19.8269 18.0779C20.6592 18.0779 21.4727 17.8312 22.1647 17.3688C22.8566 16.9064 23.396 16.2493 23.7144 15.4804C24.0329 14.7115 24.1162 13.8655 23.9539 13.0492C23.7915 12.233 23.3908 11.4833 22.8023 10.8948C22.2138 10.3063 21.4641 9.90557 20.6478 9.74321C19.8316 9.58085 18.9856 9.66418 18.2167 9.98265C17.4478 10.3011 16.7906 10.8405 16.3283 11.5324C15.8659 12.2244 15.6191 13.0379 15.6191 13.8702C15.6205 14.9857 16.0643 16.0552 16.8531 16.844C17.6419 17.6328 18.7114 18.0766 19.8269 18.0779ZM19.8269 11.7403C20.2482 11.7403 20.66 11.8652 21.0102 12.0992C21.3605 12.3333 21.6335 12.6659 21.7947 13.0551C21.9559 13.4443 21.9981 13.8725 21.9159 14.2857C21.8337 14.6988 21.6308 15.0783 21.333 15.3762C21.0351 15.6741 20.6556 15.8769 20.2425 15.9591C19.8293 16.0413 19.4011 15.9991 19.0119 15.8379C18.6227 15.6767 18.29 15.4037 18.056 15.0534C17.822 14.7032 17.6971 14.2914 17.6971 13.8702C17.6979 13.3055 17.9225 12.7643 18.3218 12.365C18.721 11.9658 19.2623 11.7411 19.8269 11.7403Z" fill="#7234F7"/>
<path id="Vector_3" d="M13.7372 26.1299C14.0128 26.1299 14.277 26.0204 14.4719 25.8255C14.6667 25.6307 14.7762 25.3664 14.7762 25.0909V24.4571C14.7775 23.4364 15.1836 22.4578 15.9054 21.736C16.6272 21.0142 17.6058 20.6081 18.6266 20.6067H21.0266C22.0473 20.6081 23.0259 21.0142 23.7477 21.736C24.4695 22.4578 24.8756 23.4364 24.877 24.4571V25.0909C24.877 25.3664 24.9864 25.6307 25.1813 25.8255C25.3761 26.0204 25.6404 26.1299 25.9159 26.1299C26.1915 26.1299 26.4557 26.0204 26.6506 25.8255C26.8454 25.6307 26.9549 25.3664 26.9549 25.0909V24.4571C26.9529 22.8854 26.3277 21.3787 25.2164 20.2673C24.105 19.1559 22.5983 18.5307 21.0266 18.5288H18.6266C17.0549 18.5307 15.5481 19.1559 14.4367 20.2673C13.3254 21.3787 12.7002 22.8854 12.6982 24.4571V25.0909C12.6982 25.3664 12.8077 25.6307 13.0025 25.8255C13.1974 26.0204 13.4617 26.1299 13.7372 26.1299Z" fill="#7234F7"/>
<path id="Vector_4" d="M13.1581 33.7317H25.7659C26.0414 33.7317 26.3057 33.6223 26.5006 33.4274C26.6954 33.2326 26.8049 32.9683 26.8049 32.6928C26.8049 32.4172 26.6954 32.153 26.5006 31.9581C26.3057 31.7633 26.0414 31.6538 25.7659 31.6538H13.1581C12.8826 31.6538 12.6183 31.7633 12.4234 31.9581C12.2286 32.153 12.1191 32.4172 12.1191 32.6928C12.1191 32.9683 12.2286 33.2326 12.4234 33.4274C12.6183 33.6223 12.8826 33.7317 13.1581 33.7317Z" fill="#FE7465"/>
<path id="Vector_5" d="M32.8984 37.125H13.1581C12.8826 37.125 12.6183 37.2345 12.4234 37.4293C12.2286 37.6241 12.1191 37.8884 12.1191 38.164C12.1191 38.4395 12.2286 38.7038 12.4234 38.8986C12.6183 39.0935 12.8826 39.2029 13.1581 39.2029H32.8984C33.1739 39.2029 33.4382 39.0935 33.633 38.8986C33.8279 38.7038 33.9373 38.4395 33.9373 38.164C33.9373 37.8884 33.8279 37.6241 33.633 37.4293C33.4382 37.2345 33.1739 37.125 32.8984 37.125Z" fill="#FE7465"/>
</g>
</svg>
