<svg width="30" height="30" viewBox="0 0 30 30" fill="none" xmlns="http://www.w3.org/2000/svg">
<path d="M22.0461 9.89863H19.4874C18.9699 9.89863 18.5499 10.318 18.5499 10.8361C18.5499 11.3543 18.9699 11.7736 19.4874 11.7736H22.0467C22.5636 11.7736 22.9842 12.1943 22.9842 12.7111V24.9711C22.9842 25.488 22.5636 25.9086 22.0467 25.9086H7.95361C7.43674 25.9086 7.01611 25.488 7.01611 24.9711V12.7111C7.01611 12.1943 7.43674 11.7736 7.95361 11.7736H10.513C11.0311 11.7736 11.4505 11.3543 11.4505 10.8361C11.4505 10.318 11.0311 9.89863 10.513 9.89863H7.95361C6.40299 9.89863 5.14111 11.1605 5.14111 12.7111V24.9711C5.14111 26.5218 6.40299 27.7836 7.95361 27.7836H22.0467C23.5974 27.7836 24.8592 26.5218 24.8592 24.9711V12.7111C24.8586 11.1599 23.5974 9.89863 22.0461 9.89863ZM11.5042 8.00613L14.0936 5.41676V17.7593C14.0936 18.2768 14.513 18.6968 15.0311 18.6968C15.5492 18.6968 15.9686 18.2768 15.9686 17.7593V5.41676L18.558 8.00613C18.7411 8.18926 18.9811 8.28051 19.2211 8.28051C19.4611 8.28051 19.7011 8.18926 19.8842 8.00613C20.2505 7.64051 20.2505 7.04613 19.8842 6.68051L15.6949 2.49051C15.328 2.12426 14.7349 2.12426 14.3686 2.49051L10.1786 6.68051C9.81236 7.04613 9.81236 7.64051 10.1786 8.00613C10.5449 8.37238 11.138 8.37238 11.5042 8.00613Z" fill="#772BD8"/>
</svg>
