<svg width="48" height="48" viewBox="0 0 48 48" fill="none" xmlns="http://www.w3.org/2000/svg">
<path fill-rule="evenodd" clip-rule="evenodd" d="M16.5 10C16.5 6.96244 18.9624 4.5 22 4.5H26C29.0376 4.5 31.5 6.96244 31.5 10V10.5H36C39.0376 10.5 41.5 12.9624 41.5 16C41.5 16.8284 40.8284 17.5 40 17.5C39.1716 17.5 38.5 16.8284 38.5 16C38.5 14.6193 37.3808 13.5 36 13.5H12C10.6193 13.5 9.5 14.6193 9.5 16V24C9.5 25.3808 10.6193 26.5 12 26.5H22.5V24C22.5 23.1716 23.1716 22.5 24 22.5C24.8284 22.5 25.5 23.1716 25.5 24V26.5H36C37.3808 26.5 38.5 25.3808 38.5 24V22C38.5 21.1716 39.1716 20.5 40 20.5C40.8284 20.5 41.5 21.1716 41.5 22V36C41.5 39.0376 39.0376 41.5 36 41.5H12C8.96244 41.5 6.5 39.0376 6.5 36V34C6.5 33.1716 7.17158 32.5 8 32.5C8.82842 32.5 9.5 33.1716 9.5 34V36C9.5 37.3808 10.6193 38.5 12 38.5H36C37.3808 38.5 38.5 37.3808 38.5 36V28.9002C37.75 29.2838 36.9002 29.5 36 29.5H25.5V32C25.5 32.8284 24.8284 33.5 24 33.5C23.1716 33.5 22.5 32.8284 22.5 32V29.5H12C8.96244 29.5 6.5 27.0376 6.5 24V16C6.5 12.9624 8.96244 10.5 12 10.5H16.5V10ZM19.5 10.5H28.5V10C28.5 8.61928 27.3808 7.5 26 7.5H22C20.6192 7.5 19.5 8.61928 19.5 10V10.5Z" fill="#BD89FF"/>
</svg>
