<svg width="20" height="20" viewBox="0 0 20 20" fill="none" xmlns="http://www.w3.org/2000/svg">
<g clip-path="url(#clip0_27952_27769)">
<path d="M18.3333 4.16703H14.1667V3.33367C14.1667 2.41449 13.4192 1.66699 12.5 1.66699H7.5C6.58082 1.66699 5.83332 2.41445 5.83332 3.33367V4.16699H1.66668C0.747461 4.16703 0 4.91449 0 5.83367V16.667C0 17.5862 0.747461 18.3337 1.66668 18.3337H18.3334C19.2525 18.3337 20 17.5862 20 16.667V5.83367C20 4.91449 19.2525 4.16703 18.3333 4.16703ZM6.66668 3.33367C6.66668 2.8743 7.04062 2.50035 7.5 2.50035H12.5C12.9594 2.50035 13.3333 2.8743 13.3333 3.33367V4.16699H6.66668V3.33367ZM19.1667 16.667C19.1667 17.1264 18.7927 17.5004 18.3334 17.5004H1.66668C1.2073 17.5004 0.833359 17.1264 0.833359 16.667V10.6019C1.07949 10.7454 1.36176 10.8337 1.66668 10.8337H8.33336V12.0837C8.33336 12.314 8.51973 12.5004 8.75004 12.5004H11.25C11.4804 12.5004 11.6667 12.314 11.6667 12.0837V10.8337H18.3334C18.6383 10.8337 18.9206 10.7455 19.1667 10.6019V16.667H19.1667ZM9.16668 11.667V10.0004H10.8334V11.667H9.16668ZM19.1667 9.16703C19.1667 9.62641 18.7927 10.0004 18.3334 10.0004H11.6667V9.58367C11.6667 9.35336 11.4803 9.16699 11.25 9.16699H8.75C8.51969 9.16699 8.33332 9.35336 8.33332 9.58367V10.0004H1.66668C1.2073 10.0004 0.833359 9.62641 0.833359 9.16703V5.83371C0.833359 5.37434 1.2073 5.00039 1.66668 5.00039H18.3334C18.7927 5.00039 19.1667 5.37434 19.1667 5.83371V9.16703Z" fill="#7234F7"/>
</g>
<defs>
<clipPath id="clip0_27952_27769">
<rect width="20" height="20" fill="white"/>
</clipPath>
</defs>
</svg>
