<svg xmlns="http://www.w3.org/2000/svg" version="1.1" xmlns:xlink="http://www.w3.org/1999/xlink" width="512" height="512" x="0" y="0" viewBox="0 0 64 64" style="enable-background:new 0 0 512 512" xml:space="preserve" fill-rule="evenodd"><g><path d="M20 12H10a7.998 7.998 0 0 0-8 8v32a8 8 0 0 0 8 8h44a8 8 0 0 0 8-8V20a7.998 7.998 0 0 0-8-8H44a7.998 7.998 0 0 0-8-8h-8a7.998 7.998 0 0 0-8 8zm38 22.928A8.003 8.003 0 0 1 54 36h-8v4h-4v-4H22v4h-4v-4h-8c-1.42 0-2.79-.376-4-1.072V52a4 4 0 0 0 4 4h44a4 4 0 0 0 4-4zM46 32h8a4.002 4.002 0 0 0 4-4v-8a3.998 3.998 0 0 0-4-4H10a4.002 4.002 0 0 0-4 4v8a3.998 3.998 0 0 0 4 4h8v-4h4v4h20v-4h4zm-6-20a3.998 3.998 0 0 0-4-4h-8a4.002 4.002 0 0 0-4 4z" fill="#ffffff" opacity="1" data-original="#000000"></path></g></svg>