<svg width="1378" height="412" viewBox="0 0 1378 412" fill="none" xmlns="http://www.w3.org/2000/svg">
<g clip-path="url(#clip0_27983_36370)">
<rect width="1378" height="412" fill="#100015"/>
<path opacity="0.5" d="M-39.2217 271.691V352.456L39.297 312.066L-39.2217 271.691Z" fill="#C08EFF" fill-opacity="0.1"/>
<path d="M39.297 231.302L-39.2217 271.691L39.297 312.066V231.302Z" fill="#C08EFF" fill-opacity="0.1"/>
<path opacity="0.4" d="M117.801 271.691L39.2988 231.302V312.066L117.801 271.691Z" fill="#C08EFF" fill-opacity="0.1"/>
<path opacity="0.5" d="M-39.2217 352.455L39.297 392.83V312.066L-39.2217 352.455Z" fill="#C08EFF" fill-opacity="0.1"/>
<path opacity="0.3" d="M39.2988 392.83L117.801 352.455L39.2988 312.066V392.83Z" fill="#C08EFF" fill-opacity="0.1"/>
<path opacity="0.6" d="M117.8 271.691V352.455L196.318 312.066L117.8 271.691Z" fill="#C08EFF" fill-opacity="0.1"/>
<path opacity="0.5" d="M274.839 271.691L196.32 231.302V312.066L274.839 271.691Z" fill="#C08EFF" fill-opacity="0.1"/>
<path opacity="0.4" d="M117.8 352.455L196.318 392.83V312.066L117.8 352.455Z" fill="#C08EFF" fill-opacity="0.1"/>
<path opacity="0.1" d="M274.835 271.691V352.456L353.338 312.066L274.835 271.691Z" fill="#C08EFF" fill-opacity="0.1"/>
<path opacity="0.6" d="M353.338 231.302L274.835 271.692L353.338 312.067V231.302Z" fill="#C08EFF" fill-opacity="0.1"/>
<path opacity="0.5" d="M274.835 352.455L353.338 392.83V312.066L274.835 352.455Z" fill="#C08EFF" fill-opacity="0.1"/>
<path opacity="0.3" d="M353.337 392.83L431.856 352.455L353.337 312.066V392.83Z" fill="#C08EFF" fill-opacity="0.1"/>
<path opacity="0.4" d="M431.86 271.691V352.456L510.363 312.066L431.86 271.691Z" fill="#C08EFF" fill-opacity="0.1"/>
<path opacity="0.5" d="M510.363 231.302L431.86 271.691L510.363 312.066V231.302Z" fill="#C08EFF" fill-opacity="0.1"/>
<path opacity="0.8" d="M431.86 352.455L510.363 392.83V312.066L431.86 352.455Z" fill="#C08EFF" fill-opacity="0.1"/>
<path opacity="0.4" d="M510.363 312.066L588.881 352.456V271.691L510.363 312.066Z" fill="#C08EFF" fill-opacity="0.1"/>
<path d="M588.875 271.691V352.456L667.394 312.066L588.875 271.691Z" fill="#C08EFF" fill-opacity="0.1"/>
<path d="M667.394 231.302L588.875 271.691L667.394 312.066V231.302Z" fill="#C08EFF" fill-opacity="0.1"/>
<path opacity="0.6" d="M745.899 271.691L667.396 231.302V312.066L745.899 271.691Z" fill="#C08EFF" fill-opacity="0.1"/>
<path opacity="0.4" d="M667.396 392.83L745.899 352.455L667.396 312.066V392.83Z" fill="#C08EFF" fill-opacity="0.1"/>
<path opacity="0.5" d="M667.396 312.066L745.899 352.441V271.691L667.396 312.066Z" fill="#C08EFF" fill-opacity="0.1"/>
<path d="M745.905 271.691V352.456L824.423 312.066L745.905 271.691Z" fill="#C08EFF" fill-opacity="0.1"/>
<path opacity="0.6" d="M824.423 231.302L745.904 271.691L824.423 312.066V231.302Z" fill="#C08EFF" fill-opacity="0.1"/>
<path opacity="0.4" d="M902.943 271.691L824.425 231.302V312.066L902.943 271.691Z" fill="#C08EFF" fill-opacity="0.1"/>
<path opacity="0.4" d="M745.905 352.455L824.423 392.83V312.066L745.905 352.455Z" fill="#C08EFF" fill-opacity="0.1"/>
<path opacity="0.9" d="M824.425 392.83L902.943 352.455L824.425 312.066V392.83Z" fill="#C08EFF" fill-opacity="0.1"/>
<path d="M824.425 312.066L902.943 352.456V271.691L824.425 312.066Z" fill="#C08EFF" fill-opacity="0.1"/>
<path opacity="0.6" d="M902.938 271.691V352.456L981.441 312.066L902.938 271.691Z" fill="#C08EFF" fill-opacity="0.1"/>
<path opacity="0.5" d="M981.441 231.302L902.938 271.692L981.441 312.067V231.302Z" fill="#C08EFF" fill-opacity="0.1"/>
<path d="M1059.96 271.691L981.441 231.302V312.066L1059.96 271.691Z" fill="#C08EFF" fill-opacity="0.1"/>
<path opacity="0.8" d="M902.938 352.455L981.441 392.83V312.066L902.938 352.455Z" fill="#C08EFF" fill-opacity="0.1"/>
<path d="M981.441 392.83L1059.96 352.455L981.441 312.066V392.83Z" fill="#C08EFF" fill-opacity="0.1"/>
<path d="M981.441 312.066L1059.96 352.456V271.691L981.441 312.066Z" fill="#C08EFF" fill-opacity="0.1"/>
<path opacity="0.6" d="M1059.96 271.691V352.455L1138.46 312.066L1059.96 271.691Z" fill="#C08EFF" fill-opacity="0.1"/>
<path d="M1138.46 231.302L1059.96 271.692L1138.46 312.067V231.302Z" fill="#C08EFF" fill-opacity="0.1"/>
<path opacity="0.4" d="M1216.98 271.692L1138.46 231.302V312.067L1216.98 271.692Z" fill="#C08EFF" fill-opacity="0.1"/>
<path d="M1059.96 352.455L1138.46 392.83V312.066L1059.96 352.455Z" fill="#C08EFF" fill-opacity="0.1"/>
<path d="M1138.46 392.83L1216.98 352.455L1138.46 312.066V392.83Z" fill="#C08EFF" fill-opacity="0.1"/>
<path opacity="0.8" d="M1138.46 312.066L1216.98 352.455V271.691L1138.46 312.066Z" fill="#C08EFF" fill-opacity="0.1"/>
<path d="M1216.98 271.691V352.455L1295.5 312.066L1216.98 271.691Z" fill="#C08EFF" fill-opacity="0.1"/>
<path opacity="0.5" d="M1295.5 231.302L1216.98 271.691L1295.5 312.066V231.302Z" fill="#C08EFF" fill-opacity="0.1"/>
<path d="M1374 271.691L1295.5 231.302V312.066L1374 271.691Z" fill="#C08EFF" fill-opacity="0.1"/>
<path opacity="0.5" d="M1216.98 352.455L1295.5 392.83V312.066L1216.98 352.455Z" fill="#C08EFF" fill-opacity="0.1"/>
<path opacity="0.8" d="M1295.5 392.83L1374 352.455L1295.5 312.066V392.83Z" fill="#C08EFF" fill-opacity="0.1"/>
<path d="M1295.5 312.066L1374 352.455V271.691L1295.5 312.066Z" fill="#C08EFF" fill-opacity="0.1"/>
<path opacity="0.3" d="M39.3052 392.833V473.597L117.808 433.208L39.3052 392.833Z" fill="#C08EFF" fill-opacity="0.1"/>
<path opacity="0.3" d="M196.326 392.833L117.808 352.443V433.208L196.326 392.833Z" fill="#C08EFF" fill-opacity="0.1"/>
<path opacity="0.1" d="M196.324 392.832V473.597L274.842 433.207L196.324 392.832Z" fill="#C08EFF" fill-opacity="0.1"/>
<path opacity="0.4" d="M274.842 352.443L196.324 392.832L274.842 433.207V352.443Z" fill="#C08EFF" fill-opacity="0.1"/>
<path opacity="0.6" d="M353.346 392.832L274.844 352.443V433.207L353.346 392.832Z" fill="#C08EFF" fill-opacity="0.1"/>
<path opacity="0.3" d="M274.844 433.207L353.346 473.597V392.832L274.844 433.207Z" fill="#C08EFF" fill-opacity="0.1"/>
<path opacity="0.4" d="M353.343 392.833V473.597L431.861 433.208L353.343 392.833Z" fill="#C08EFF" fill-opacity="0.1"/>
<path opacity="0.3" d="M510.365 392.832L431.862 352.443V433.207L510.365 392.832Z" fill="#C08EFF" fill-opacity="0.1"/>
<path opacity="0.1" d="M431.862 433.208L510.365 473.597V392.833L431.862 433.208Z" fill="#C08EFF" fill-opacity="0.1"/>
<path opacity="0.8" d="M510.365 392.832V473.597L588.883 433.207L510.365 392.832Z" fill="#C08EFF" fill-opacity="0.1"/>
<path opacity="0.5" d="M588.883 352.443L510.365 392.832L588.883 433.207V352.443Z" fill="#C08EFF" fill-opacity="0.1"/>
<path opacity="0.4" d="M667.404 392.832L588.885 352.443V433.207L667.404 392.832Z" fill="#C08EFF" fill-opacity="0.1"/>
<path opacity="0.9" d="M588.885 433.207L667.404 473.597V392.832L588.885 433.207Z" fill="#C08EFF" fill-opacity="0.1"/>
<path opacity="0.6" d="M667.41 392.832V473.597L745.912 433.207L667.41 392.832Z" fill="#C08EFF" fill-opacity="0.1"/>
<path d="M745.912 352.443L667.41 392.832L745.912 433.207V352.443Z" fill="#C08EFF" fill-opacity="0.1"/>
<path opacity="0.9" d="M824.431 392.832L745.913 352.443V433.207L824.431 392.832Z" fill="#C08EFF" fill-opacity="0.1"/>
<path opacity="0.4" d="M745.913 433.207L824.431 473.597V392.832L745.913 433.207Z" fill="#C08EFF" fill-opacity="0.1"/>
<path d="M824.425 392.832V473.597L902.943 433.207L824.425 392.832Z" fill="#C08EFF" fill-opacity="0.1"/>
<path opacity="0.6" d="M902.943 352.443L824.425 392.832L902.943 433.207V352.443Z" fill="#C08EFF" fill-opacity="0.1"/>
<path opacity="0.5" d="M981.448 392.832L902.945 352.443V433.207L981.448 392.832Z" fill="#C08EFF" fill-opacity="0.1"/>
<path opacity="0.9" d="M902.945 433.207L981.448 473.597V392.832L902.945 433.207Z" fill="#C08EFF" fill-opacity="0.1"/>
<path opacity="0.4" d="M981.446 392.833V473.597L1059.96 433.208L981.446 392.833Z" fill="#C08EFF" fill-opacity="0.1"/>
<path opacity="0.4" d="M1059.96 352.443L981.446 392.832L1059.96 433.207V352.443Z" fill="#C08EFF" fill-opacity="0.1"/>
<path opacity="0.8" d="M1138.47 392.832L1059.97 352.443V433.207L1138.47 392.832Z" fill="#C08EFF" fill-opacity="0.1"/>
<path d="M1059.97 433.208L1138.47 473.597V392.833L1059.97 433.208Z" fill="#C08EFF" fill-opacity="0.1"/>
<path opacity="0.5" d="M1138.47 392.818V473.582L1216.99 433.207L1138.47 392.818Z" fill="#C08EFF" fill-opacity="0.1"/>
<path opacity="0.6" d="M1216.99 352.443L1138.47 392.832L1216.99 433.207V352.443Z" fill="#C08EFF" fill-opacity="0.1"/>
<path d="M1295.51 392.832L1216.99 352.443V433.207L1295.51 392.832Z" fill="#C08EFF" fill-opacity="0.1"/>
<path d="M1216.99 433.207L1295.51 473.597V392.832L1216.99 433.207Z" fill="#C08EFF" fill-opacity="0.1"/>
<rect x="1383.79" y="357.722" width="1405.79" height="358.458" transform="rotate(-179.871 1383.79 357.722)" fill="url(#paint0_linear_27983_36370)"/>
</g>
<defs>
<linearGradient id="paint0_linear_27983_36370" x1="1966.65" y1="130.94" x2="1968.13" y2="716.179" gradientUnits="userSpaceOnUse">
<stop stop-color="#232028" stop-opacity="0"/>
<stop offset="1" stop-color="#232028"/>
</linearGradient>
<clipPath id="clip0_27983_36370">
<rect width="1378" height="412" fill="white"/>
</clipPath>
</defs>
</svg>
