<svg width="69" height="68" viewBox="0 0 69 68" fill="none" xmlns="http://www.w3.org/2000/svg">
<g id="Group">
<g id="Group_2">
<g id="Group_3">
<path id="Vector" d="M5.98514 2.61872C5.26601 2.61872 4.67578 2.03527 4.67578 1.30936C4.67578 0.590229 5.25922 0 5.98514 0C6.71105 0 7.29449 0.583445 7.29449 1.30936C7.29449 2.02849 6.70426 2.61872 5.98514 2.61872Z" fill="#0B315E"/>
<path id="Vector_2" d="M18.2937 2.61872C17.5746 2.61872 16.9844 2.03527 16.9844 1.30936C16.9844 0.590229 17.5678 0 18.2937 0C19.0129 0 19.6031 0.583445 19.6031 1.30936C19.5963 2.02849 19.0129 2.61872 18.2937 2.61872Z" fill="#0B315E"/>
<path id="Vector_3" d="M30.5916 2.61872C29.8725 2.61872 29.2822 2.03527 29.2822 1.30936C29.2822 0.590229 29.8657 0 30.5916 0C31.3107 0 31.9009 0.583445 31.9009 1.30936C31.9009 2.02849 31.3175 2.61872 30.5916 2.61872Z" fill="#0B315E"/>
<path id="Vector_4" d="M42.8963 2.61872C42.1772 2.61872 41.5869 2.03527 41.5869 1.30936C41.5869 0.590229 42.1704 0 42.8963 0C43.6154 0 44.2057 0.583445 44.2057 1.30936C44.2057 2.02849 43.6154 2.61872 42.8963 2.61872Z" fill="#0B315E"/>
<path id="Vector_5" d="M55.1981 2.61872C54.4789 2.61872 53.8887 2.03527 53.8887 1.30936C53.8887 0.590229 54.4722 0 55.1981 0C55.9172 0 56.5074 0.583445 56.5074 1.30936C56.5074 2.02849 55.924 2.61872 55.1981 2.61872Z" fill="#0B315E"/>
<path id="Vector_6" d="M67.5037 2.61872C66.7846 2.61872 66.1943 2.03527 66.1943 1.30936C66.1943 0.590229 66.7778 0 67.5037 0C68.2296 0 68.813 0.583445 68.813 1.30936C68.813 2.02849 68.2228 2.61872 67.5037 2.61872Z" fill="#0B315E"/>
</g>
<g id="Group_4">
<path id="Vector_7" d="M5.98514 13.84C5.26601 13.84 4.67578 13.2566 4.67578 12.5307C4.67578 11.8115 5.25922 11.2213 5.98514 11.2213C6.71105 11.2213 7.29449 11.8048 7.29449 12.5307C7.29449 13.2498 6.70426 13.84 5.98514 13.84Z" fill="#0B315E"/>
<path id="Vector_8" d="M18.2937 13.84C17.5746 13.84 16.9844 13.2566 16.9844 12.5307C16.9844 11.8115 17.5678 11.2213 18.2937 11.2213C19.0129 11.2213 19.6031 11.8048 19.6031 12.5307C19.5963 13.2498 19.0129 13.84 18.2937 13.84Z" fill="#0B315E"/>
<path id="Vector_9" d="M30.5916 13.84C29.8725 13.84 29.2822 13.2566 29.2822 12.5307C29.2822 11.8115 29.8657 11.2213 30.5916 11.2213C31.3107 11.2213 31.9009 11.8048 31.9009 12.5307C31.9009 13.2498 31.3175 13.84 30.5916 13.84Z" fill="#0B315E"/>
<path id="Vector_10" d="M42.8963 13.84C42.1772 13.84 41.5869 13.2566 41.5869 12.5307C41.5869 11.8115 42.1704 11.2213 42.8963 11.2213C43.6154 11.2213 44.2057 11.8048 44.2057 12.5307C44.2057 13.2498 43.6154 13.84 42.8963 13.84Z" fill="#0B315E"/>
<path id="Vector_11" d="M55.1981 13.84C54.4789 13.84 53.8887 13.2566 53.8887 12.5307C53.8887 11.8115 54.4722 11.2213 55.1981 11.2213C55.9172 11.2213 56.5074 11.8048 56.5074 12.5307C56.5074 13.2498 55.924 13.84 55.1981 13.84Z" fill="#0B315E"/>
<path id="Vector_12" d="M67.5037 13.84C66.7846 13.84 66.1943 13.2566 66.1943 12.5307C66.1943 11.8115 66.7778 11.2213 67.5037 11.2213C68.2296 11.2213 68.813 11.8048 68.813 12.5307C68.813 13.2498 68.2228 13.84 67.5037 13.84Z" fill="#0B315E"/>
</g>
<g id="Group_5">
<path id="Vector_13" d="M5.98514 25.0544C5.26601 25.0544 4.67578 24.4709 4.67578 23.745C4.67578 23.0259 5.25922 22.4357 5.98514 22.4357C6.71105 22.4357 7.29449 23.0191 7.29449 23.745C7.29449 24.4709 6.70426 25.0544 5.98514 25.0544Z" fill="#0B315E"/>
<path id="Vector_14" d="M18.2937 25.0544C17.5746 25.0544 16.9844 24.4709 16.9844 23.745C16.9844 23.0259 17.5678 22.4357 18.2937 22.4357C19.0129 22.4357 19.6031 23.0191 19.6031 23.745C19.5963 24.4709 19.0129 25.0544 18.2937 25.0544Z" fill="#0B315E"/>
<path id="Vector_15" d="M30.5916 25.0544C29.8725 25.0544 29.2822 24.4709 29.2822 23.745C29.2822 23.0259 29.8657 22.4357 30.5916 22.4357C31.3107 22.4357 31.9009 23.0191 31.9009 23.745C31.9009 24.4709 31.3175 25.0544 30.5916 25.0544Z" fill="#0B315E"/>
<path id="Vector_16" d="M42.8963 25.0544C42.1772 25.0544 41.5869 24.4709 41.5869 23.745C41.5869 23.0259 42.1704 22.4357 42.8963 22.4357C43.6154 22.4357 44.2057 23.0191 44.2057 23.745C44.2057 24.4709 43.6154 25.0544 42.8963 25.0544Z" fill="#0B315E"/>
<path id="Vector_17" d="M55.1981 25.0544C54.4789 25.0544 53.8887 24.4709 53.8887 23.745C53.8887 23.0259 54.4722 22.4357 55.1981 22.4357C55.9172 22.4357 56.5074 23.0191 56.5074 23.745C56.5074 24.4709 55.924 25.0544 55.1981 25.0544Z" fill="#0B315E"/>
<path id="Vector_18" d="M67.5037 25.0544C66.7846 25.0544 66.1943 24.4709 66.1943 23.745C66.1943 23.0259 66.7778 22.4357 67.5037 22.4357C68.2296 22.4357 68.813 23.0191 68.813 23.745C68.813 24.4709 68.2228 25.0544 67.5037 25.0544Z" fill="#0B315E"/>
</g>
<g id="Group_6">
<path id="Vector_19" d="M5.98514 36.2752C5.26601 36.2752 4.67578 35.6918 4.67578 34.9659C4.67578 34.2467 5.25922 33.6565 5.98514 33.6565C6.71105 33.6565 7.29449 34.2399 7.29449 34.9659C7.29449 35.685 6.70426 36.2752 5.98514 36.2752Z" fill="#0B315E"/>
<path id="Vector_20" d="M18.2937 36.2752C17.5746 36.2752 16.9844 35.6918 16.9844 34.9659C16.9844 34.2467 17.5678 33.6565 18.2937 33.6565C19.0129 33.6565 19.6031 34.2399 19.6031 34.9659C19.5963 35.685 19.0129 36.2752 18.2937 36.2752Z" fill="#0B315E"/>
<path id="Vector_21" d="M30.5916 36.2752C29.8725 36.2752 29.2822 35.6918 29.2822 34.9659C29.2822 34.2467 29.8657 33.6565 30.5916 33.6565C31.3107 33.6565 31.9009 34.2399 31.9009 34.9659C31.9009 35.685 31.3175 36.2752 30.5916 36.2752Z" fill="#0B315E"/>
<path id="Vector_22" d="M42.8963 36.2752C42.1772 36.2752 41.5869 35.6918 41.5869 34.9659C41.5869 34.2467 42.1704 33.6565 42.8963 33.6565C43.6154 33.6565 44.2057 34.2399 44.2057 34.9659C44.2057 35.685 43.6154 36.2752 42.8963 36.2752Z" fill="#0B315E"/>
<path id="Vector_23" d="M55.1981 36.2752C54.4789 36.2752 53.8887 35.6918 53.8887 34.9659C53.8887 34.2467 54.4722 33.6565 55.1981 33.6565C55.9172 33.6565 56.5074 34.2399 56.5074 34.9659C56.5074 35.685 55.924 36.2752 55.1981 36.2752Z" fill="#0B315E"/>
<path id="Vector_24" d="M67.5037 36.2752C66.7846 36.2752 66.1943 35.6918 66.1943 34.9659C66.1943 34.2467 66.7778 33.6565 67.5037 33.6565C68.2296 33.6565 68.813 34.2399 68.813 34.9659C68.813 35.685 68.2228 36.2752 67.5037 36.2752Z" fill="#0B315E"/>
</g>
<g id="Group_7">
<path id="Vector_25" d="M5.98514 47.4964C5.26601 47.4964 4.67578 46.913 4.67578 46.187C4.67578 45.4679 5.25922 44.8777 5.98514 44.8777C6.71105 44.8777 7.29449 45.4611 7.29449 46.187C7.29449 46.9062 6.70426 47.4964 5.98514 47.4964Z" fill="#0B315E"/>
<path id="Vector_26" d="M18.2937 47.4964C17.5746 47.4964 16.9844 46.913 16.9844 46.187C16.9844 45.4679 17.5678 44.8777 18.2937 44.8777C19.0129 44.8777 19.6031 45.4611 19.6031 46.187C19.5963 46.9062 19.0129 47.4964 18.2937 47.4964Z" fill="#0B315E"/>
<path id="Vector_27" d="M30.5916 47.4964C29.8725 47.4964 29.2822 46.913 29.2822 46.187C29.2822 45.4679 29.8657 44.8777 30.5916 44.8777C31.3107 44.8777 31.9009 45.4611 31.9009 46.187C31.9009 46.9062 31.3175 47.4964 30.5916 47.4964Z" fill="#0B315E"/>
<path id="Vector_28" d="M42.8963 47.4964C42.1772 47.4964 41.5869 46.913 41.5869 46.187C41.5869 45.4679 42.1704 44.8777 42.8963 44.8777C43.6154 44.8777 44.2057 45.4611 44.2057 46.187C44.2057 46.9062 43.6154 47.4964 42.8963 47.4964Z" fill="#0B315E"/>
<path id="Vector_29" d="M55.1981 47.4964C54.4789 47.4964 53.8887 46.913 53.8887 46.187C53.8887 45.4679 54.4722 44.8777 55.1981 44.8777C55.9172 44.8777 56.5074 45.4611 56.5074 46.187C56.5074 46.9062 55.924 47.4964 55.1981 47.4964Z" fill="#0B315E"/>
<path id="Vector_30" d="M67.5037 47.4964C66.7846 47.4964 66.1943 46.913 66.1943 46.187C66.1943 45.4679 66.7778 44.8777 67.5037 44.8777C68.2296 44.8777 68.813 45.4611 68.813 46.187C68.813 46.9062 68.2228 47.4964 67.5037 47.4964Z" fill="#0B315E"/>
</g>
<g id="Group_8">
<path id="Vector_31" d="M5.98514 58.7108C5.26601 58.7108 4.67578 58.1273 4.67578 57.4014C4.67578 56.6823 5.25922 56.092 5.98514 56.092C6.71105 56.092 7.29449 56.6755 7.29449 57.4014C7.29449 58.1273 6.70426 58.7108 5.98514 58.7108Z" fill="#0B315E"/>
<path id="Vector_32" d="M18.2937 58.7108C17.5746 58.7108 16.9844 58.1273 16.9844 57.4014C16.9844 56.6823 17.5678 56.092 18.2937 56.092C19.0129 56.092 19.6031 56.6755 19.6031 57.4014C19.5963 58.1273 19.0129 58.7108 18.2937 58.7108Z" fill="#0B315E"/>
<path id="Vector_33" d="M30.5916 58.7108C29.8725 58.7108 29.2822 58.1273 29.2822 57.4014C29.2822 56.6823 29.8657 56.092 30.5916 56.092C31.3107 56.092 31.9009 56.6755 31.9009 57.4014C31.9009 58.1273 31.3175 58.7108 30.5916 58.7108Z" fill="#0B315E"/>
<path id="Vector_34" d="M42.8963 58.7108C42.1772 58.7108 41.5869 58.1273 41.5869 57.4014C41.5869 56.6823 42.1704 56.092 42.8963 56.092C43.6154 56.092 44.2057 56.6755 44.2057 57.4014C44.2057 58.1273 43.6154 58.7108 42.8963 58.7108Z" fill="#0B315E"/>
<path id="Vector_35" d="M55.1981 58.7108C54.4789 58.7108 53.8887 58.1273 53.8887 57.4014C53.8887 56.6823 54.4722 56.092 55.1981 56.092C55.9172 56.092 56.5074 56.6755 56.5074 57.4014C56.5074 58.1273 55.924 58.7108 55.1981 58.7108Z" fill="#0B315E"/>
<path id="Vector_36" d="M67.5037 58.7108C66.7846 58.7108 66.1943 58.1273 66.1943 57.4014C66.1943 56.6823 66.7778 56.092 67.5037 56.092C68.2296 56.092 68.813 56.6755 68.813 57.4014C68.813 58.1273 68.2228 58.7108 67.5037 58.7108Z" fill="#0B315E"/>
</g>
</g>
<path id="Vector_37" d="M57.8064 67.5099L0.106445 9.80994H57.8064V67.5099Z" fill="#E6DAFF"/>
</g>
</svg>
