<svg version="1.1" id="Layer_1" xmlns:x="ns_extend;" xmlns:i="ns_ai;" xmlns:graph="ns_graphs;" xmlns="http://www.w3.org/2000/svg" xmlns:xlink="http://www.w3.org/1999/xlink" x="0px" y="0px" viewBox="0 0 201.9 55.4" style="enable-background:new 0 0 201.9 55.4;" xml:space="preserve">
 <style type="text/css">
  .st0{fill:#B92B27;}
 </style>
 <metadata>
  <sfw xmlns="ns_sfw;">
   <slices>
   </slices>
   <sliceSourceBounds bottomLeftOrigin="true" height="55.4" width="201.9" x="99.3" y="-227.9">
   </sliceSourceBounds>
  </sfw>
 </metadata>
 <g>
  <path class="st0" d="M24.4,0c12.7,0,24.7,9.9,24.7,24.3c0,8.1-3.8,14.7-9.2,19.1c1.6,2.6,3.6,4.4,6,4.4c2.8,0,4-2.2,4.2-4l0,0h3.6
		c0.2,2.4-1,11.6-11,11.6c-6.2,0-9.4-3.6-11.8-7.6c-2,0.4-4.2,0.8-6.4,0.8C12.2,48.6,0,38.7,0,24.3S12.2,0,24.4,0z M114.1,10.9
		c10.2,0,18.4,7.2,18.5,17.9c0,11.3-8.3,18.7-18.5,18.7c-9.9,0-18.5-7.5-18.5-18.7C95.6,17.9,104.1,10.9,114.1,10.9z M181.4,10.9
		c9,0,14.6,2.4,14.6,11.4l0,0v15.4c0,2.4,0.8,3.6,2.8,3.6c1,0,1.8-0.4,2.2-0.6l0,0l0.9,1.8c-0.8,1.4-3.4,4-8.2,4
		c-4.2,0-6.8-2-7.2-5.2l0,0h-0.2c-2,3.6-5.6,6-10.8,6c-6.2,0-10-3.2-10-9c0-11.4,15.9-8.2,20.5-15.8l0,0v-1.8c0-5.4-2.2-6.6-4.6-6.6
		c-7.2,0-4,8.4-10.4,8.4c-3.2,0-4.4-1.8-4.4-4C166.6,14.3,171.8,10.9,181.4,10.9z M67.6,11.7v23.4c0,4.4,2.2,6.4,5.4,6.4
		c2.6,0,5.4-1.2,6.8-4V18.1c0-2-0.6-2.8-2.8-2.8h-2.4v-3.6h15.2v25.7c0,2.4,0.8,3.6,3.6,3.6h0.4v3.8L80.2,47v-5.1H80
		c-2.6,3.3-6.4,5.3-11.4,5.3c-6.2,0-10.8-3.2-10.8-11.8V18.1c0-2-0.8-2.8-3-2.8h-2.2v-3.6H67.6z M157.9,11.1c3.2,0,5.8,1.8,5.8,5.4
		c0,2.6-1.2,5.2-4.8,5.2c-3,0-3.6-2.8-6.2-2.8c-2.2,0-4,2.2-4,5.4v14.2c0,3.2,0.8,4.2,4.4,4.2h2v3.8h-21.6v-3.7h1.4c3.6,0,4-1,4-4.2
		V18.1c0-2-1-2.8-3.2-2.8h-2v-3.6h13.8l0.6,7.2h0.4C149.9,13.7,154.1,11.1,157.9,11.1z M24.5,3.9c-9.2,0-13.2,6.9-13.2,20.3
		s4,20.3,13.2,20.3c1.7,0,3.2-0.4,4.4-0.8c-1.8-4.2-4.2-8.2-8.8-8.2c-0.8,0-1.6,0.2-2.4,0.6l0,0l-1.4-2.8c2-1.7,4.7-3,8.4-3
		c5.8,0,8.8,2.8,11.2,6.4c1.4-3,2-7.2,2-12.5C37.9,10.8,33.9,3.9,24.5,3.9z M114.1,14.3c-4.8,0-7.6,4.8-7.6,14.4
		c0,9.8,2.8,14.8,7.6,14.8c5.2,0,7.2-5,7.4-14.8C121.7,19.2,119.3,14.3,114.1,14.3z M185.9,26.7c-3.2,3.5-10.6,4-10.6,10.4
		c0,3.2,2,5,4.6,5c4.4,0,6-3.8,6-8l0,0V26.7z">
  </path>
 </g>
</svg>