<?xml version="1.0" encoding="UTF-8"?><svg id="Layer_2" xmlns="http://www.w3.org/2000/svg" viewBox="0 0 784.0002 235.5901"><defs><style>.cls-1{fill:#2e2925;}</style></defs><g id="Layer_1-2"><path class="cls-1" d="m28.036,24.1524c-3.328,0-5.597,1.0081-7.261,2.9241-1.361,1.6639-2.117,3.8329-2.117,6.707v62.476h54.256c11.447,0,20.271-3.732,26.977-11.195,6.051-6.857,9.077-14.976,9.077-24.607,0-9.984-3.026-18.2531-9.077-25.111-6.706-7.463-15.53-11.144-26.977-11.194H28.036ZM9.329,197.8644c-2.471,0-4.79-.807-6.606-2.471-1.815-1.815-2.723-4.286-2.723-7.11V32.7745c0-6.958,2.017-12.959,6.102-17.749,4.639-5.345,11.194-8.068,19.161-8.018h49.618c16.438,0,29.801,5.497,39.583,16.489,8.925,9.934,13.363,22.237,13.363,36.709,0,14.119-4.438,26.271-13.363,36.205-9.782,11.144-23.145,16.791-39.583,16.741H18.658v75.132c0,2.824-1.009,5.396-3.026,7.161-1.714,1.613-3.933,2.42-6.303,2.42Z"/><path class="cls-1" d="m147.4922,232.8599c-1.412-1.614-2.168-3.631-2.168-5.799s.706-4.185,2.218-5.899c1.715-1.665,4.135-2.471,6.858-2.471h11.245c3.328,0,5.748-.958,7.614-2.774,1.563-1.563,3.63-4.891,5.9-9.782l10.74-23.397-46.34-116.934c-.605-1.261-.908-2.522-.908-3.782,0-1.261.303-2.521.958-3.631l1.412.757-1.361-.807c1.16-1.967,2.975-3.479,5.143-4.337,1.513-.756,3.126-1.159,4.69-1.159.806,0,1.613.1,2.369.302,2.522.605,4.387,2.42,5.345,4.942l38.878,100.092,38.373-99.235c.756-2.673,2.824-4.589,5.446-5.295,1.21-.453,2.521-.655,3.832-.655,1.008,0,2.017.101,3.025.353,2.421.554,4.488,1.765,5.95,3.63.858,1.211,1.311,2.572,1.311,3.9839,0,1.0081-.252,2.017-.655,3.025l-58.694,145.475c-3.883,8.623-8.572,15.178-14.169,19.514-5.396,4.387-11.8,6.606-18.96,6.606h-11.346c-2.672.101-5.092-.857-6.706-2.723Z"/><path class="cls-1" d="m324.7848,197.8655h-24.456c-8.017,0-14.573-2.773-19.161-8.27-4.236-4.79-6.404-10.69-6.354-17.497V15.5305c0-2.7729.858-5.244,2.774-6.908l1.059,1.21-.959-1.261c1.765-1.411,4.034-2.067,6.455-2.067s4.639.656,6.454,2.118c2.068,1.613,3.126,4.135,3.076,6.958v36.6589h31.616c2.421,0,4.538.656,6.001,2.168,1.462,1.513,2.067,3.681,2.067,6.152,0,2.521-.605,4.74-2.017,6.354-1.462,1.563-3.63,2.269-6,2.269h-31.617v102.008c0,2.723.706,4.791,2.169,6.505,1.714,2.068,3.933,3.127,7.21,3.127h21.733c2.622,0,4.992.806,6.858,2.47,1.614,1.614,2.471,3.782,2.471,6.102,0,2.218-.8571,4.286-2.471,5.849-1.765,1.765-4.135,2.723-6.807,2.723,0,0-.051-.101-.101-.101Z"/><path class="cls-1" d="m357.8631,195.3958c-1.866-1.815-2.723-4.387-2.723-7.362V16.0358c0-2.824.908-5.294,2.723-7.11l1.16,1.11-1.059-1.211c1.765-1.613,4.084-2.42,6.555-2.37,2.37,0,4.538.8069,6.303,2.421,2.017,1.815,3.026,4.336,3.026,7.16v54.761c4.79-4.942,9.782-8.875,15.127-11.749,8.068-4.286,17.043-6.404,26.927-6.404,13.765,0,25.01,4.186,33.28,12.657,7.614,7.563,11.446,17.144,11.446,28.288v94.445c0,2.824-1.008,5.446-3.025,7.412-1.765,1.614-4.085,2.421-6.556,2.37-2.47,0-4.79-.806-6.656-2.521-1.764-1.966-2.672-4.488-2.672-7.311v-94.395c0-6.807-2.168-12.203-6.555-16.59-4.69-4.941-10.942-7.463-19.262-7.463-8.371,0-16.086,2.219-23.297,6.757-6.454,4.085-12.706,10.287-18.707,18.6071v92.983c0,2.975-.9579,5.647-3.025,7.664-1.715,1.563-3.833,2.471-6.304,2.622-2.622,0-4.891-1.008-6.656-2.773h-.05Z"/><path class="cls-1" d="m493.3537,195.3445c-1.765-1.967-2.672-4.488-2.672-7.312V61.1646c0-2.622.907-4.941,2.773-6.403,1.765-1.614,4.084-2.421,6.555-2.37,2.42,0,4.69.655,6.454,2.067,2.017,1.614,3.127,4.034,3.076,6.706v126.868c0,2.824-1.008,5.396-2.975,7.11-1.765,1.765-4.084,2.723-6.605,2.723-2.37,0-4.639-.807-6.556-2.521h-.05Z"/><path class="cls-1" d="m491.0342,3.832c-1.967,2.471-2.975,5.446-2.975,9.228,0,3.58,1.008,6.353,2.975,8.673,2.067,2.521,4.891,3.782,8.976,3.832,3.882-.05,6.706-1.261,9.026-3.832,2.168-2.522,3.176-5.295,3.227-8.673,0-3.7321-1.11-6.707-3.227-9.178-2.32-2.622-5.144-3.832-9.026-3.882-4.085.05-6.909,1.311-8.976,3.832Z"/><path class="cls-1" d="m615.6338,124.8015c-7.312,2.219-17.145,4.1349-29.701,5.799-12.303,1.613-20.825,4.79-25.565,9.076-4.588,3.9839-6.908,9.833-6.908,18.002,0,7.866,2.219,13.362,6.454,16.993,4.387,3.933,11.447,6.051,21.38,6.051,11.296,0,20.775-2.118,28.692-6.303,6.959-3.631,12.152-8.623,15.833-14.976v-38.928c-2.571,1.563-5.95,2.924-10.185,4.286Zm-34.39,73.065c-15.178,0-26.927-3.53-34.944-10.841-7.866-6.959-11.749-16.943-11.749-29.347,0-11.195,2.622-20.12,8.118-26.473,8.068-9.127,22.338-14.674,42.609-17.245,17.699-2.471,29.145-5.194,33.885-7.816,4.387-2.37,6.555-6.505,6.606-13.312,0-7.816-2.521-13.312-7.564-17.145-5.395-4.034-13.766-6.202-25.212-6.202-11.093,0-19.161,2.471-24.355,7.11-4.639,3.984-7.362,9.8831-8.169,17.951-.403,2.572-1.765,4.74-3.832,6.001-1.614,1.26-3.58,1.865-5.698,1.865h-.908c-2.37-.201-4.488-1.26-6-2.975-1.412-1.412-2.169-3.277-2.169-5.345,0-.655,0-1.361.202-2.017,2.017-13.06,7.564-23.195,16.59-29.952,8.824-6.404,20.422-9.53,34.591-9.53,15.127,0,27.179,2.7729,36.0031,8.4709,10.085,6.556,15.228,16.993,15.178,30.507v79.116c0,2.572.655,4.236,1.765,5.345,1.311,1.311,3.126,2.017,5.849,2.017,2.32,0,4.488.857,6.202,2.521,1.412,1.614,2.168,3.631,2.37,6.051,0,2.169-.706,4.186-2.168,5.799-1.664,1.866-4.034,2.773-6.656,2.773-9.631,0-16.388-1.109-20.624-3.781-2.773-1.967-4.336-5.043-4.941-8.875-4.488,3.883-9.48,7.059-14.926,9.53-8.824,3.933-18.8589,5.849-29.952,5.849h-.101v-.05Z"/><path class="cls-1" d="m679.0672,195.395c-1.866-1.815-2.723-4.387-2.723-7.362V61.77c0-2.824.908-5.294,2.723-7.11l1.109,1.11-1.059-1.211c1.765-1.613,4.085-2.42,6.556-2.37,2.37,0,4.538.807,6.303,2.421,1.966,1.765,3.025,4.3361,3.025,7.16v12.505c4.438-6.151,9.782-11.093,16.035-14.724,8.068-4.639,17.548-6.958,28.238-6.958,13.766,0,25.01,4.185,33.28,12.656,7.6139,7.564,11.4459,17.145,11.4459,28.289v94.445c0,2.823-1.0079,5.445-3.025,7.412-1.765,1.563-3.933,2.42-6.303,2.37-2.4709,0-4.74-.807-6.656-2.521-1.765-1.967-2.673-4.488-2.673-7.312v-94.344c0-6.807-2.168-12.203-6.5551-16.59-4.8409-4.992-11.2439-7.463-19.5649-7.5131-9.177,0-17.295,2.42-24.556,7.2111-7.463,4.941-14.0179,12.455-19.716,22.741v88.344c0,2.975-.9579,5.647-3.026,7.664-1.714,1.564-3.832,2.471-6.303,2.623-2.471.05-4.79-.908-6.505-2.673h-.05Z"/></g></svg>